<svg xmlns="http://www.w3.org/2000/svg" xmlns:xlink="http://www.w3.org/1999/xlink" contentStyleType="text/css" data-diagram-type="DESCRIPTION" height="514.3874px" preserveAspectRatio="none" style="width:2406px;height:514px;background:#FEFEFE;" version="1.1" viewBox="0 0 2406 514" width="2406.7915px" zoomAndPan="magnify"><title>**MicrOSAL &#8212; Backend Map &amp; Native Support**</title><defs/><g><rect fill="#FEFEFE" height="514.3874" style="stroke:none;stroke-width:0.5415;" width="2406.7915" x="0" y="0"/><g class="title" data-source-line="8"><text fill="#000000" font-family="'Segoe UI'" font-size="11.9121" font-weight="bold" lengthAdjust="spacing" textLength="294.674" x="1053.6222" y="24.5936">MicrOSAL &#8212; Backend Map &amp; Native Support</text></g><g class="legend" data-source-line="13"><rect fill="none" height="97.0229" rx="4.061" ry="4.061" style="stroke:#000000;stroke-width:0.5415;" width="169.5718" x="5.4146" y="41.4809"/><text fill="#000000" font-family="'Segoe UI'" font-size="7.5804" font-weight="bold" lengthAdjust="spacing" textLength="22.3157" x="21.5902" y="63.1367">Color</text><text fill="#000000" font-family="'Segoe UI'" font-size="7.5804" font-weight="bold" lengthAdjust="spacing" textLength="36.6178" x="60.0133" y="63.1367">Meaning</text><rect fill="#C8E6C9" height="19.6533" style="stroke:none;stroke-width:0.5415;" width="38.4231" x="13.5365" y="70.3391"/><text fill="#000000" font-family="'Segoe UI'" font-size="7.5804" lengthAdjust="spacing" textLength="2.4096" x="18.9511" y="82.79">&#160;</text><text fill="#000000" font-family="'Segoe UI'" font-size="7.5804" lengthAdjust="spacing" textLength="99.2565" x="59.7838" y="82.79">Full-featured / desktop OS</text><rect fill="#BBDEFB" height="19.6533" style="stroke:none;stroke-width:0.5415;" width="38.4231" x="13.5365" y="89.9924"/><text fill="#000000" font-family="'Segoe UI'" font-size="7.5804" lengthAdjust="spacing" textLength="2.4096" x="18.9511" y="102.4434">&#160;</text><text fill="#000000" font-family="'Segoe UI'" font-size="7.5804" lengthAdjust="spacing" textLength="91.6982" x="59.7838" y="102.4434">Real-time kernel (RTOS)</text><rect fill="#FFE0B2" height="19.6533" style="stroke:none;stroke-width:0.5415;" width="38.4231" x="13.5365" y="109.6457"/><text fill="#000000" font-family="'Segoe UI'" font-size="7.5804" lengthAdjust="spacing" textLength="2.4096" x="18.9511" y="122.0967">&#160;</text><text fill="#000000" font-family="'Segoe UI'" font-size="7.5804" lengthAdjust="spacing" textLength="81.9747" x="59.7838" y="122.0967">Minimal / cooperative</text><line style="stroke:#000000;stroke-width:0.5415;" x1="13.5365" x2="166.8645" y1="50.6858" y2="50.6858"/><line style="stroke:#000000;stroke-width:0.5415;" x1="13.5365" x2="166.8645" y1="70.3391" y2="70.3391"/><line style="stroke:#000000;stroke-width:0.5415;" x1="13.5365" x2="166.8645" y1="89.9924" y2="89.9924"/><line style="stroke:#000000;stroke-width:0.5415;" x1="13.5365" x2="166.8645" y1="109.6457" y2="109.6457"/><line style="stroke:#000000;stroke-width:0.5415;" x1="13.5365" x2="166.8645" y1="129.2991" y2="129.2991"/><line style="stroke:#000000;stroke-width:0.5415;" x1="13.5365" x2="13.5365" y1="50.6858" y2="129.2991"/><line style="stroke:#000000;stroke-width:0.5415;" x1="51.9596" x2="51.9596" y1="50.6858" y2="129.2991"/><line style="stroke:#000000;stroke-width:0.5415;" x1="166.8645" x2="166.8645" y1="50.6858" y2="129.2991"/></g><!--cluster posix_fam--><g class="cluster" data-entity="posix_fam" data-source-line="23" data-uid="ent0002" id="cluster_posix_fam"><path d="M7.3097,179.2325 L76.2814,179.2325 A2.0305,2.0305 0 0 1 77.6351,180.5862 L81.4253,202.1346 L363.0492,202.1346 A1.3537,1.3537 0 0 1 364.4028,203.4883 L364.4028,354.1242 A1.3537,1.3537 0 0 1 363.0492,355.4779 L7.3097,355.4779 A1.3537,1.3537 0 0 1 5.9561,354.1242 L5.9561,180.5862 A1.3537,1.3537 0 0 1 7.3097,179.2325" fill="#C8E6C9" style="stroke:#666666;stroke-width:0.5415;"/><line style="stroke:#666666;stroke-width:0.5415;" x1="5.9561" x2="81.4253" y1="202.1346" y2="202.1346"/><text fill="#000000" font-family="'Segoe UI'" font-size="7.5804" font-weight="bold" lengthAdjust="spacing" textLength="57.601" x="13.5365" y="192.7664">POSIX-Family</text></g><!--cluster commercial--><g class="cluster" data-entity="commercial" data-source-line="44" data-uid="ent0010" id="cluster_commercial"><path d="M849.8221,183.5642 L936.9972,183.5642 A2.0305,2.0305 0 0 1 938.3509,184.9179 L942.1411,206.4663 L1222.8883,206.4663 A1.3537,1.3537 0 0 1 1224.242,207.8199 L1224.242,349.7926 A1.3537,1.3537 0 0 1 1222.8883,351.1462 L849.8221,351.1462 A1.3537,1.3537 0 0 1 848.4684,349.7926 L848.4684,184.9179 A1.3537,1.3537 0 0 1 849.8221,183.5642" fill="#BBDEFB" style="stroke:#666666;stroke-width:0.5415;"/><line style="stroke:#666666;stroke-width:0.5415;" x1="848.4684" x2="942.1411" y1="206.4663" y2="206.4663"/><text fill="#000000" font-family="'Segoe UI'" font-size="7.5804" font-weight="bold" lengthAdjust="spacing" textLength="75.8045" x="856.0489" y="197.0981">Commercial RTOS</text></g><!--cluster specialty--><g class="cluster" data-entity="specialty" data-source-line="55" data-uid="ent0016" id="cluster_specialty"><path d="M35.4657,372.8046 L111.7846,372.8046 A2.0305,2.0305 0 0 1 113.1383,374.1583 L116.9285,395.7067 L187.616,395.7067 A1.3537,1.3537 0 0 1 188.9697,397.0604 L188.9697,509.5234 A1.3537,1.3537 0 0 1 187.616,510.877 L35.4657,510.877 A1.3537,1.3537 0 0 1 34.112,509.5234 L34.112,374.1583 A1.3537,1.3537 0 0 1 35.4657,372.8046" fill="#BBDEFB" style="stroke:#666666;stroke-width:0.5415;"/><line style="stroke:#666666;stroke-width:0.5415;" x1="34.112" x2="116.9285" y1="395.7067" y2="395.7067"/><text fill="#000000" font-family="'Segoe UI'" font-size="7.5804" font-weight="bold" lengthAdjust="spacing" textLength="64.9483" x="41.6925" y="386.3385">Specialty RTOS</text></g><!--cluster cmsis_fam--><g class="cluster" data-entity="cmsis_fam" data-source-line="64" data-uid="ent0020" id="cluster_cmsis_fam"><path d="M1635.4811,183.5642 L1695.5843,183.5642 A2.0305,2.0305 0 0 1 1696.9379,184.9179 L1700.7282,206.4663 L1839.6117,206.4663 A1.3537,1.3537 0 0 1 1840.9653,207.8199 L1840.9653,260.1809 A1.3537,1.3537 0 0 1 1839.6117,261.5345 L1635.4811,261.5345 A1.3537,1.3537 0 0 1 1634.1275,260.1809 L1634.1275,184.9179 A1.3537,1.3537 0 0 1 1635.4811,183.5642" fill="#BBDEFB" style="stroke:#666666;stroke-width:0.5415;"/><line style="stroke:#666666;stroke-width:0.5415;" x1="1634.1275" x2="1700.7282" y1="206.4663" y2="206.4663"/><text fill="#000000" font-family="'Segoe UI'" font-size="7.5804" font-weight="bold" lengthAdjust="spacing" textLength="48.7325" x="1641.7079" y="197.0981">ARM CMSIS</text></g><!--cluster noos--><g class="cluster" data-entity="noos" data-source-line="72" data-uid="ent0023" id="cluster_noos"><path d="M2267.9069,183.5642 L2305.8794,183.5642 A2.0305,2.0305 0 0 1 2307.2331,184.9179 L2311.0233,206.4663 L2401.6476,206.4663 A1.3537,1.3537 0 0 1 2403.0012,207.8199 L2403.0012,260.1809 A1.3537,1.3537 0 0 1 2401.6476,261.5345 L2267.9069,261.5345 A1.3537,1.3537 0 0 1 2266.5532,260.1809 L2266.5532,184.9179 A1.3537,1.3537 0 0 1 2267.9069,183.5642" fill="#FFE0B2" style="stroke:#666666;stroke-width:0.5415;"/><line style="stroke:#666666;stroke-width:0.5415;" x1="2266.5532" x2="2311.0233" y1="206.4663" y2="206.4663"/><text fill="#000000" font-family="'Segoe UI'" font-size="7.5804" font-weight="bold" lengthAdjust="spacing" textLength="26.6019" x="2274.1337" y="197.0981">No-OS</text></g><!--entity be_po--><g class="entity" data-entity="be_po" data-source-line="24" data-uid="ent0003" id="entity_be_po"><rect fill="#FFFFFF" height="39.3066" rx="1.3537" ry="1.3537" style="stroke:#000000;stroke-width:0.5415;" width="88.5425" x="28.6974" y="213.3445"/><text fill="#000000" font-family="'Segoe UI'" font-size="7.5804" lengthAdjust="spacing" textLength="22.7784" x="39.5266" y="231.2101">POSIX</text><text fill="#000000" font-family="'Segoe UI'" font-size="7.5804" lengthAdjust="spacing" textLength="66.8841" x="39.5266" y="240.0342">(any POSIX:2008)</text></g><!--entity be_li--><g class="entity" data-entity="be_li" data-source-line="25" data-uid="ent0004" id="entity_be_li"><rect fill="#FFFFFF" height="39.3066" rx="1.3537" ry="1.3537" style="stroke:#000000;stroke-width:0.5415;" width="113.5713" x="237.7011" y="213.3445"/><text fill="#000000" font-family="'Segoe UI'" font-size="7.5804" lengthAdjust="spacing" textLength="20.4243" x="248.5303" y="231.2101">Linux</text><text fill="#000000" font-family="'Segoe UI'" font-size="7.5804" lengthAdjust="spacing" textLength="91.9129" x="248.5303" y="240.0342">(&#8805; 4.11, extends POSIX)</text></g><!--entity be_qx--><g class="entity" data-entity="be_qx" data-source-line="26" data-uid="ent0005" id="entity_be_qx"><rect fill="#FFFFFF" height="39.3066" rx="1.3537" ry="1.3537" style="stroke:#000000;stroke-width:0.5415;" width="83.4346" x="135.9066" y="213.3445"/><text fill="#000000" font-family="'Segoe UI'" font-size="7.5804" lengthAdjust="spacing" textLength="16.8302" x="146.7358" y="231.2101">QNX</text><text fill="#000000" font-family="'Segoe UI'" font-size="7.5804" lengthAdjust="spacing" textLength="61.7762" x="146.7358" y="240.0342">(Neutrino RTOS)</text></g><!--entity be_nx--><g class="entity" data-entity="be_nx" data-source-line="27" data-uid="ent0006" id="entity_be_nx"><rect fill="#FFFFFF" height="39.3066" rx="1.3537" ry="1.3537" style="stroke:#000000;stroke-width:0.5415;" width="79.0781" x="33.5705" y="302.9562"/><text fill="#000000" font-family="'Segoe UI'" font-size="7.5804" lengthAdjust="spacing" textLength="21.6124" x="44.3998" y="320.8218">NuttX</text><text fill="#000000" font-family="'Segoe UI'" font-size="7.5804" lengthAdjust="spacing" textLength="57.4197" x="44.3998" y="329.6459">(Apache, &#8805; 12)</text></g><!--entity be_fr--><g class="entity" data-entity="be_fr" data-source-line="45" data-uid="ent0011" id="entity_be_fr"><rect fill="#FFFFFF" height="39.3066" rx="1.3537" ry="1.3537" style="stroke:#000000;stroke-width:0.5415;" width="86.7696" x="1061.8038" y="213.3445"/><text fill="#000000" font-family="'Segoe UI'" font-size="7.5804" lengthAdjust="spacing" textLength="37.4803" x="1072.633" y="231.2101">FreeRTOS</text><text fill="#000000" font-family="'Segoe UI'" font-size="7.5804" lengthAdjust="spacing" textLength="65.1111" x="1072.633" y="240.0342">(all chip families)</text></g><!--entity be_zy--><g class="entity" data-entity="be_zy" data-source-line="46" data-uid="ent0012" id="entity_be_zy"><rect fill="#FFFFFF" height="39.3066" rx="1.3537" ry="1.3537" style="stroke:#000000;stroke-width:0.5415;" width="48.7341" x="1166.8472" y="213.3445"/><text fill="#000000" font-family="'Segoe UI'" font-size="7.5804" lengthAdjust="spacing" textLength="27.0757" x="1177.6764" y="231.2101">Zephyr</text><text fill="#000000" font-family="'Segoe UI'" font-size="7.5804" lengthAdjust="spacing" textLength="26.7314" x="1177.6764" y="240.0342">(&#8805; 3.0)</text></g><!--entity be_tx--><g class="entity" data-entity="be_tx" data-source-line="47" data-uid="ent0013" id="entity_be_tx"><rect fill="#FFFFFF" height="39.3066" rx="1.3537" ry="1.3537" style="stroke:#000000;stroke-width:0.5415;" width="72.4082" x="857.1318" y="213.3445"/><text fill="#000000" font-family="'Segoe UI'" font-size="7.5804" lengthAdjust="spacing" textLength="31.8653" x="867.961" y="231.2101">ThreadX</text><text fill="#000000" font-family="'Segoe UI'" font-size="7.5804" lengthAdjust="spacing" textLength="50.7498" x="867.961" y="240.0342">(Azure RTOS)</text></g><!--entity be_px--><g class="entity" data-entity="be_px" data-source-line="48" data-uid="ent0014" id="entity_be_px"><rect fill="#FFFFFF" height="39.3066" rx="1.3537" ry="1.3537" style="stroke:#000000;stroke-width:0.5415;" width="94.7794" x="948.3679" y="213.3445"/><text fill="#000000" font-family="'Segoe UI'" font-size="7.5804" lengthAdjust="spacing" textLength="14.5872" x="959.1971" y="231.2101">PX5</text><text fill="#000000" font-family="'Segoe UI'" font-size="7.5804" lengthAdjust="spacing" textLength="73.1209" x="959.1971" y="240.0342">(ThreadX superset)</text></g><!--entity be_vx--><g class="entity" data-entity="be_vx" data-source-line="49" data-uid="ent0015" id="entity_be_vx"><rect fill="#FFFFFF" height="39.3066" rx="1.3537" ry="1.3537" style="stroke:#000000;stroke-width:0.5415;" width="76.0725" x="857.1318" y="302.9562"/><text fill="#000000" font-family="'Segoe UI'" font-size="7.5804" lengthAdjust="spacing" textLength="33.2607" x="867.961" y="320.8218">VxWorks</text><text fill="#000000" font-family="'Segoe UI'" font-size="7.5804" lengthAdjust="spacing" textLength="54.4141" x="867.961" y="329.6459">(Wind River 7)</text></g><!--entity be_mi--><g class="entity" data-entity="be_mi" data-source-line="56" data-uid="ent0017" id="entity_be_mi"><rect fill="#FFFFFF" height="39.3066" rx="1.3537" ry="1.3537" style="stroke:#000000;stroke-width:0.5415;" width="60.4638" x="42.7754" y="402.5849"/><text fill="#000000" font-family="'Segoe UI'" font-size="7.5804" lengthAdjust="spacing" textLength="30.2255" x="53.6046" y="420.4505">Micrium</text><text fill="#000000" font-family="'Segoe UI'" font-size="7.5804" lengthAdjust="spacing" textLength="38.8054" x="53.6046" y="429.2746">(&#181;C/OS-III)</text></g><!--entity be_ch--><g class="entity" data-entity="be_ch" data-source-line="57" data-uid="ent0018" id="entity_be_ch"><rect fill="#FFFFFF" height="39.3066" rx="1.3537" ry="1.3537" style="stroke:#000000;stroke-width:0.5415;" width="58.2874" x="121.8286" y="402.5849"/><text fill="#000000" font-family="'Segoe UI'" font-size="7.5804" lengthAdjust="spacing" textLength="29.8998" x="132.6578" y="420.4505">ChibiOS</text><text fill="#000000" font-family="'Segoe UI'" font-size="7.5804" lengthAdjust="spacing" textLength="36.6289" x="132.6578" y="429.2746">(RT &#8805; 21)</text></g><!--entity be_em--><g class="entity" data-entity="be_em" data-source-line="58" data-uid="ent0019" id="entity_be_em"><rect fill="#FFFFFF" height="39.3066" rx="1.3537" ry="1.3537" style="stroke:#000000;stroke-width:0.5415;" width="58.9795" x="43.5876" y="462.687"/><text fill="#000000" font-family="'Segoe UI'" font-size="7.5804" lengthAdjust="spacing" textLength="27.6383" x="54.4168" y="480.5526">embOS</text><text fill="#000000" font-family="'Segoe UI'" font-size="7.5804" lengthAdjust="spacing" textLength="37.3211" x="54.4168" y="489.3767">(SEGGER)</text></g><!--entity be_c1--><g class="entity" data-entity="be_c1" data-source-line="65" data-uid="ent0021" id="entity_be_c1"><rect fill="#FFFFFF" height="39.3066" rx="1.3537" ry="1.3537" style="stroke:#000000;stroke-width:0.5415;" width="82.8498" x="1643.0616" y="213.3445"/><text fill="#000000" font-family="'Segoe UI'" font-size="7.5804" lengthAdjust="spacing" textLength="47.1039" x="1653.8908" y="231.2101">CMSIS-RTOS</text><text fill="#000000" font-family="'Segoe UI'" font-size="7.5804" lengthAdjust="spacing" textLength="61.1914" x="1653.8908" y="240.0342">(v1, cmsis_os.h)</text></g><!--entity be_c2--><g class="entity" data-entity="be_c2" data-source-line="66" data-uid="ent0022" id="entity_be_c2"><rect fill="#FFFFFF" height="39.3066" rx="1.3537" ry="1.3537" style="stroke:#000000;stroke-width:0.5415;" width="87.6727" x="1744.5854" y="213.3445"/><text fill="#000000" font-family="'Segoe UI'" font-size="7.5804" lengthAdjust="spacing" textLength="51.9268" x="1755.4146" y="231.2101">CMSIS-RTOS2</text><text fill="#000000" font-family="'Segoe UI'" font-size="7.5804" lengthAdjust="spacing" textLength="66.0143" x="1755.4146" y="240.0342">(v2, cmsis_os2.h)</text></g><!--entity be_bm--><g class="entity" data-entity="be_bm" data-source-line="73" data-uid="ent0024" id="entity_be_bm"><rect fill="#FFFFFF" height="39.3066" rx="1.3537" ry="1.3537" style="stroke:#000000;stroke-width:0.5415;" width="119.0642" x="2275.2166" y="213.3445"/><text fill="#000000" font-family="'Segoe UI'" font-size="7.5804" lengthAdjust="spacing" textLength="42.1329" x="2286.0458" y="231.2101">Bare-metal</text><text fill="#000000" font-family="'Segoe UI'" font-size="7.5804" lengthAdjust="spacing" textLength="97.4058" x="2286.0458" y="240.0342">(cooperative, single-core)</text></g><g class="entity" data-entity="GMN7" data-source-line="31" data-uid="ent0008" id="entity_GMN7"><path d="M377.3979,189.791 L377.3979,276.6277 L572.4564,276.6277 L572.4564,195.2056 L567.0418,189.791 L377.3979,189.791" fill="#FFFFFF" style="stroke:#000000;stroke-width:0.5415;"/><path d="M567.0418,189.791 L567.0418,195.2056 L572.4564,195.2056 L567.0418,189.791" fill="#FFFFFF" style="stroke:#000000;stroke-width:0.5415;"/><text fill="#000000" font-family="'Segoe UI'" font-size="7.5804" lengthAdjust="spacing" textLength="124.7849" x="386.0613" y="204.9493">Shared timeout conversion path:</text><text fill="#000000" font-family="'Segoe UI'" font-size="7.5804" lengthAdjust="spacing" textLength="172.8586" x="386.0613" y="213.7734">`src/common/backend_timeout_adapter.hpp`</text><text fill="#000000" font-family="'Segoe UI'" font-size="7.5804" lengthAdjust="spacing" textLength="130.8589" x="386.0613" y="222.5975">used by Linux, POSIX, QNX, NuttX.</text><text fill="#000000" font-family="'Segoe UI'" font-size="7.5804" lengthAdjust="spacing" textLength="2.4096" x="386.0613" y="231.4216">&#160;</text><text fill="#000000" font-family="'Segoe UI'" font-size="7.5804" lengthAdjust="spacing" textLength="66.0772" x="386.0613" y="240.2457">Tick-width guard:</text><text fill="#000000" font-family="'Segoe UI'" font-size="7.5804" lengthAdjust="spacing" textLength="120.1619" x="386.0613" y="249.0698">`OSAL_CFG_NATIVE_TICK_BITS`</text><text fill="#000000" font-family="'Segoe UI'" font-size="7.5804" lengthAdjust="spacing" textLength="111.4266" x="386.0613" y="257.8939">enforces `sizeof(osal::tick_t)`</text><text fill="#000000" font-family="'Segoe UI'" font-size="7.5804" lengthAdjust="spacing" textLength="142.3999" x="386.0613" y="266.718">&lt;= native tick width at compile time.</text></g><g class="entity" data-entity="GMN25" data-source-line="81" data-uid="ent0026" id="entity_GMN25"><path d="M590.7333,203.0568 L590.7333,263.4212 L838.8697,263.4212 L838.8697,208.4714 L833.4551,203.0568 L590.7333,203.0568" fill="#FFFFFF" style="stroke:#000000;stroke-width:0.5415;"/><path d="M833.4551,203.0568 L833.4551,208.4714 L838.8697,208.4714 L833.4551,203.0568" fill="#FFFFFF" style="stroke:#000000;stroke-width:0.5415;"/><text fill="#000000" font-family="'Segoe UI'" font-size="7.5804" font-weight="bold" lengthAdjust="spacing" textLength="67.7539" x="599.3967" y="218.215">Native condvar:</text><text fill="#000000" font-family="'Segoe UI'" font-size="7.5804" lengthAdjust="spacing" textLength="155.773" x="669.5602" y="218.215">&#10003; (pthread_cond_t, CLOCK_MONOTONIC)</text><text fill="#000000" font-family="'Segoe UI'" font-size="7.5804" font-weight="bold" lengthAdjust="spacing" textLength="61.5171" x="599.3967" y="227.0391">Native rwlock:</text><text fill="#000000" font-family="'Segoe UI'" font-size="7.5804" lengthAdjust="spacing" textLength="79.6724" x="663.3234" y="227.0391">&#10003; (pthread_rwlock_t)</text><text fill="#000000" font-family="'Segoe UI'" font-size="7.5804" font-weight="bold" lengthAdjust="spacing" textLength="83.5663" x="599.3967" y="235.8633">Native work queue:</text><text fill="#000000" font-family="'Segoe UI'" font-size="7.5804" lengthAdjust="spacing" textLength="50.7275" x="685.3725" y="235.8633">&#10007; (emulated)</text><text fill="#000000" font-family="'Segoe UI'" font-size="7.5804" font-weight="bold" lengthAdjust="spacing" textLength="39.1533" x="599.3967" y="244.6874">Wait-set:</text><text fill="#000000" font-family="'Segoe UI'" font-size="7.5804" lengthAdjust="spacing" textLength="33.0016" x="640.9596" y="244.6874">&#10003; (epoll)</text><text fill="#000000" font-family="'Segoe UI'" font-size="7.5804" font-weight="bold" lengthAdjust="spacing" textLength="47.7072" x="599.3967" y="253.5115">Timed join:</text><text fill="#000000" font-family="'Segoe UI'" font-size="7.5804" lengthAdjust="spacing" textLength="6.3516" x="649.5135" y="253.5115">&#10007;</text></g><g class="entity" data-entity="GMN28" data-source-line="89" data-uid="ent0029" id="entity_GMN28"><path d="M1233.7175,198.4544 L1233.7175,230.942 L1215.7843,233.1078 L1233.7175,235.2737 L1233.7175,267.6429 A0,0 0 0 0 1233.7175,267.6429 L1410.6318,267.6429 A0,0 0 0 0 1410.6318,267.6429 L1410.6318,203.869 L1405.2172,198.4544 L1233.7175,198.4544 A0,0 0 0 0 1233.7175,198.4544" fill="#FFFFFF" style="stroke:#000000;stroke-width:0.5415;"/><path d="M1405.2172,198.4544 L1405.2172,203.869 L1410.6318,203.869 L1405.2172,198.4544" fill="#FFFFFF" style="stroke:#000000;stroke-width:0.5415;"/><text fill="#000000" font-family="'Segoe UI'" font-size="7.5804" font-weight="bold" lengthAdjust="spacing" textLength="67.7539" x="1242.3809" y="213.6126">Native condvar:</text><text fill="#000000" font-family="'Segoe UI'" font-size="7.5804" lengthAdjust="spacing" textLength="53.5258" x="1312.5444" y="213.6126">&#10003; (k_condvar)</text><text fill="#000000" font-family="'Segoe UI'" font-size="7.5804" font-weight="bold" lengthAdjust="spacing" textLength="81.2677" x="1242.3809" y="222.4367">Native event flags:</text><text fill="#000000" font-family="'Segoe UI'" font-size="7.5804" lengthAdjust="spacing" textLength="44.4463" x="1326.0582" y="222.4367">&#10003; (k_event)</text><text fill="#000000" font-family="'Segoe UI'" font-size="7.5804" font-weight="bold" lengthAdjust="spacing" textLength="83.5663" x="1242.3809" y="231.2608">Native work queue:</text><text fill="#000000" font-family="'Segoe UI'" font-size="7.5804" lengthAdjust="spacing" textLength="68.7385" x="1328.3568" y="231.2608">&#10003; (k_work_queue)</text><text fill="#000000" font-family="'Segoe UI'" font-size="7.5804" font-weight="bold" lengthAdjust="spacing" textLength="89.3404" x="1242.3809" y="240.085">Native memory pool:</text><text fill="#000000" font-family="'Segoe UI'" font-size="7.5804" lengthAdjust="spacing" textLength="50.7275" x="1334.1309" y="240.085">&#10007; (emulated)</text><text fill="#000000" font-family="'Segoe UI'" font-size="7.5804" font-weight="bold" lengthAdjust="spacing" textLength="67.3653" x="1242.3809" y="248.9091">ISR semaphore:</text><text fill="#000000" font-family="'Segoe UI'" font-size="7.5804" lengthAdjust="spacing" textLength="6.3516" x="1312.1558" y="248.9091">&#10003;</text><text fill="#000000" font-family="'Segoe UI'" font-size="7.5804" font-weight="bold" lengthAdjust="spacing" textLength="47.7072" x="1242.3809" y="257.7332">Timed join:</text><text fill="#000000" font-family="'Segoe UI'" font-size="7.5804" lengthAdjust="spacing" textLength="6.3516" x="1292.4977" y="257.7332">&#10003;</text></g><g class="entity" data-entity="GMN31" data-source-line="98" data-uid="ent0032" id="entity_GMN31"><path d="M1429.4554,194.1227 L1429.4554,272.1353 L1624.2881,272.1353 L1624.2881,199.5373 L1618.8735,194.1227 L1429.4554,194.1227" fill="#FFFFFF" style="stroke:#000000;stroke-width:0.5415;"/><path d="M1618.8735,194.1227 L1618.8735,199.5373 L1624.2881,199.5373 L1618.8735,194.1227" fill="#FFFFFF" style="stroke:#000000;stroke-width:0.5415;"/><text fill="#000000" font-family="'Segoe UI'" font-size="7.5804" font-weight="bold" lengthAdjust="spacing" textLength="67.7539" x="1438.1188" y="209.2809">Native condvar:</text><text fill="#000000" font-family="'Segoe UI'" font-size="7.5804" lengthAdjust="spacing" textLength="50.7275" x="1508.2823" y="209.2809">&#10007; (emulated)</text><text fill="#000000" font-family="'Segoe UI'" font-size="7.5804" font-weight="bold" lengthAdjust="spacing" textLength="83.5663" x="1438.1188" y="218.105">Native work queue:</text><text fill="#000000" font-family="'Segoe UI'" font-size="7.5804" lengthAdjust="spacing" textLength="50.7275" x="1524.0947" y="218.105">&#10007; (emulated)</text><text fill="#000000" font-family="'Segoe UI'" font-size="7.5804" font-weight="bold" lengthAdjust="spacing" textLength="67.3653" x="1438.1188" y="226.9292">ISR semaphore:</text><text fill="#000000" font-family="'Segoe UI'" font-size="7.5804" lengthAdjust="spacing" textLength="6.3516" x="1507.8937" y="226.9292">&#10003;</text><text fill="#000000" font-family="'Segoe UI'" font-size="7.5804" font-weight="bold" lengthAdjust="spacing" textLength="50.9015" x="1438.1188" y="235.7533">Event flags:</text><text fill="#000000" font-family="'Segoe UI'" font-size="7.5804" lengthAdjust="spacing" textLength="90.2103" x="1491.4299" y="235.7533">&#10003; (native xEventGroup)</text><text fill="#000000" font-family="'Segoe UI'" font-size="7.5804" font-weight="bold" lengthAdjust="spacing" textLength="62.9458" x="1438.1188" y="244.5774">Stream buffer:</text><text fill="#000000" font-family="'Segoe UI'" font-size="7.5804" lengthAdjust="spacing" textLength="95.233" x="1503.4742" y="244.5774">&#10003; (xStreamBufferCreate)</text><text fill="#000000" font-family="'Segoe UI'" font-size="7.5804" font-weight="bold" lengthAdjust="spacing" textLength="69.3603" x="1438.1188" y="253.4015">Message buffer:</text><text fill="#000000" font-family="'Segoe UI'" font-size="7.5804" lengthAdjust="spacing" textLength="100.8629" x="1509.8888" y="253.4015">&#10003; (xMessageBufferCreate)</text><text fill="#000000" font-family="'Segoe UI'" font-size="7.5804" font-weight="bold" lengthAdjust="spacing" textLength="78.7545" x="1438.1188" y="262.2256">ISR stream buffer:</text><text fill="#000000" font-family="'Segoe UI'" font-size="7.5804" lengthAdjust="spacing" textLength="6.3516" x="1519.2829" y="262.2256">&#10003;</text></g><g class="entity" data-entity="GMN34" data-source-line="108" data-uid="ent0035" id="entity_GMN34"><path d="M2276.0288,297.0002 L2276.0288,348.5404 A0,0 0 0 0 2276.0288,348.5404 L2393.4691,348.5404 A0,0 0 0 0 2393.4691,348.5404 L2393.4691,302.4148 L2388.0545,297.0002 L2336.9431,297.0002 L2334.7772,253.0769 L2332.6114,297.0002 L2276.0288,297.0002 A0,0 0 0 0 2276.0288,297.0002" fill="#FFFFFF" style="stroke:#000000;stroke-width:0.5415;"/><path d="M2388.0545,297.0002 L2388.0545,302.4148 L2393.4691,302.4148 L2388.0545,297.0002" fill="#FFFFFF" style="stroke:#000000;stroke-width:0.5415;"/><text fill="#000000" font-family="'Segoe UI'" font-size="7.5804" lengthAdjust="spacing" textLength="95.2405" x="2284.6921" y="312.1584">Cooperative round-robin.</text><text fill="#000000" font-family="'Segoe UI'" font-size="7.5804" lengthAdjust="spacing" textLength="88.6224" x="2284.6921" y="320.9825">No preemption. Priority</text><text fill="#000000" font-family="'Segoe UI'" font-size="7.5804" lengthAdjust="spacing" textLength="82.615" x="2284.6921" y="329.8066">ignored. All advanced</text><text fill="#000000" font-family="'Segoe UI'" font-size="7.5804" lengthAdjust="spacing" textLength="72.3548" x="2284.6921" y="338.6307">features emulated.</text></g><g class="entity" data-entity="GMN37" data-source-line="115" data-uid="ent0038" id="entity_GMN37"><path d="M1850.7116,207.3885 L1850.7116,230.942 L1832.4482,233.1078 L1850.7116,235.2737 L1850.7116,258.9287 A0,0 0 0 0 1850.7116,258.9287 L2034.7066,258.9287 A0,0 0 0 0 2034.7066,258.9287 L2034.7066,212.8031 L2029.292,207.3885 L1850.7116,207.3885 A0,0 0 0 0 1850.7116,207.3885" fill="#FFFFFF" style="stroke:#000000;stroke-width:0.5415;"/><path d="M2029.292,207.3885 L2029.292,212.8031 L2034.7066,212.8031 L2029.292,207.3885" fill="#FFFFFF" style="stroke:#000000;stroke-width:0.5415;"/><text fill="#000000" font-family="'Segoe UI'" font-size="7.5804" font-weight="bold" lengthAdjust="spacing" textLength="81.2677" x="1859.375" y="222.5467">Native event flags:</text><text fill="#000000" font-family="'Segoe UI'" font-size="7.5804" lengthAdjust="spacing" textLength="64.852" x="1943.0523" y="222.5467">&#10003; (osEventFlags)</text><text fill="#000000" font-family="'Segoe UI'" font-size="7.5804" font-weight="bold" lengthAdjust="spacing" textLength="89.3404" x="1859.375" y="231.3708">Native memory pool:</text><text fill="#000000" font-family="'Segoe UI'" font-size="7.5804" lengthAdjust="spacing" textLength="70.0451" x="1951.125" y="231.3708">&#10003; (osMemoryPool)</text><text fill="#000000" font-family="'Segoe UI'" font-size="7.5804" font-weight="bold" lengthAdjust="spacing" textLength="67.3653" x="1859.375" y="240.1949">ISR semaphore:</text><text fill="#000000" font-family="'Segoe UI'" font-size="7.5804" lengthAdjust="spacing" textLength="6.3516" x="1929.1499" y="240.1949">&#10003;</text><text fill="#000000" font-family="'Segoe UI'" font-size="7.5804" font-weight="bold" lengthAdjust="spacing" textLength="74.4201" x="1859.375" y="249.0191">Recursive mutex:</text><text fill="#000000" font-family="'Segoe UI'" font-size="7.5804" lengthAdjust="spacing" textLength="6.3516" x="1936.2047" y="249.0191">&#10003;</text></g><g class="entity" data-entity="GMN40" data-source-line="122" data-uid="ent0041" id="entity_GMN40"><path d="M2053.4886,211.7202 L2053.4886,254.4363 L2256.4643,254.4363 L2256.4643,217.1348 L2251.0497,211.7202 L2053.4886,211.7202" fill="#FFFFFF" style="stroke:#000000;stroke-width:0.5415;"/><path d="M2251.0497,211.7202 L2251.0497,217.1348 L2256.4643,217.1348 L2251.0497,211.7202" fill="#FFFFFF" style="stroke:#000000;stroke-width:0.5415;"/><text fill="#000000" font-family="'Segoe UI'" font-size="7.5804" font-weight="bold" lengthAdjust="spacing" textLength="89.3404" x="2062.1519" y="226.8784">Native memory pool:</text><text fill="#000000" font-family="'Segoe UI'" font-size="7.5804" lengthAdjust="spacing" textLength="39.2162" x="2153.902" y="226.8784">&#10003; (osPool)</text><text fill="#000000" font-family="'Segoe UI'" font-size="7.5804" font-weight="bold" lengthAdjust="spacing" textLength="67.3653" x="2062.1519" y="235.7025">ISR semaphore:</text><text fill="#000000" font-family="'Segoe UI'" font-size="7.5804" lengthAdjust="spacing" textLength="6.3516" x="2131.9268" y="235.7025">&#10003;</text><text fill="#000000" font-family="'Segoe UI'" font-size="7.5804" font-weight="bold" lengthAdjust="spacing" textLength="50.9015" x="2062.1519" y="244.5266">Event flags:</text><text fill="#000000" font-family="'Segoe UI'" font-size="7.5804" lengthAdjust="spacing" textLength="127.4647" x="2115.463" y="244.5266">emulated (osSignal is per-thread)</text></g><!--link posix_fam to GMN7--><g class="link" data-entity-1="posix_fam" data-entity-2="GMN7" data-source-line="31" data-uid="lnk9" id="link_posix_fam_GMN7"><path d="M12.7286,179.057 C13.0804,178.1475 13.4568,177.2535 13.8593,176.3778 C17.0787,169.3719 21.963,163.5342 29.2389,160.2814 C61.8619,145.6945 316.3807,150.9033 350.8663,160.2814 C373.3911,166.4053 396.0025,177.7706 415.6304,189.7314" fill="none" id="posix_fam-GMN7" style="stroke:#000000;stroke-width:0.5415;stroke-dasharray:3.7902,3.7902;"/></g><!--link be_li to GMN25--><g class="link" data-entity-1="be_li" data-entity-2="GMN25" data-source-line="81" data-uid="lnk27" id="link_be_li_GMN25"><path d="M309.8074,213.2741 C324.795,195.5576 349.4477,170.8236 377.3979,160.2814 C417.9316,145.0014 530.2088,150.1399 572.3236,160.2814 C606.9446,168.6199 642.6214,186.8834 669.6024,203.0297" fill="none" id="be_li-GMN25" style="stroke:#000000;stroke-width:0.5415;stroke-dasharray:3.7902,3.7902;"/></g><!--link be_fr to GMN31--><g class="link" data-entity-1="be_fr" data-entity-2="GMN31" data-source-line="98" data-uid="lnk33" id="link_be_fr_GMN31"><path d="M1115.2135,213.285 C1125.485,195.5684 1143.2449,170.8345 1166.8472,160.2814 C1191.619,149.2085 1384.9745,152.7659 1411.0458,160.2814 C1434.9621,167.1742 1458.7051,180.6187 1478.4143,194.101" fill="none" id="be_fr-GMN31" style="stroke:#000000;stroke-width:0.5415;stroke-dasharray:3.7902,3.7902;"/></g><!--link be_c1 to GMN40--><g class="link" data-entity-1="be_c1" data-entity-2="GMN40" data-source-line="122" data-uid="lnk42" id="link_be_c1_GMN40"><path d="M1694.1429,213.2308 C1704.03,195.4818 1721.2376,170.7208 1744.5854,160.2814 C1774.0246,147.1185 2003.75,151.6072 2034.8082,160.2814 C2070.4092,170.228 2105.9723,193.9061 2129.071,211.5794" fill="none" id="be_c1-GMN40" style="stroke:#000000;stroke-width:0.5415;stroke-dasharray:3.7902,3.7902;"/></g><!--SRC=[jLVDRjj64BxhAIOEqDg2VcorTLCZAM0faY7KabnHJOAY0BCYH-96v2wpkxIbD0LwxJa5UkcrZz0NwAFaIJgxf2LPifqSBEjWOlZDtpS_ktna8amGqfXnKNh4HH1d8K8zaWdMtunP75vnKRzGyWq6HjSJ7gY1TtfU3sMWwo5dKyKINVSLYX2LdoevuJ7IVovCBSsIkAHdNAICK31cmMogP2R2beobWiUTjlsj8KASi2ms7IbCdr5GUnvE9S9FtRqrK22JL0eKnZEB645HN4nCOro3N90dDiMcL1HKuUpu-BXKCjoGIhdSAzA0Zx__2Kr2K_ZGOoby0Nrc-2M2bwMfLAPSBfM-X6SF-4Vcpd5A_XxQRkoiWf4fn3Wn9O3tpo1FdXvwo0GNKtXlvV3qSUj9-xZrtVVqtCdYk3f1PZA58TIf27fcZGoy9RZPVDxkD2ruY2ok6awrcQ4I6CF-S3Jm3fR8JgTzs6nOP8yBdh2O30PIfgXoMj-NACOyqXqGUp7mkg-g4vRmUF7GrjEyfs0lTz9nJlQ0QKYbvdEVl4B1AlnARC2gKGkTNyG-4uiyo9F6uU6J0wS-fd6HcmhdN6HpKlZunp_mTUteg08uDqIQpjMNcZ7VrFonRntrCJCqWn9SUQxHR-URw7vcZCMVKdeHLi3wEsei5SIyz5kf9AIXEUFJo82ShD8bMrx4RDFOXf2P8SFY4fNcKa3AJ7H2YDTQ1NLoc4XH7-U3vXTmduKiDQXgKPg-9cYcoTHu0IxtIfve1IYV2hWmQoK2ZNWmgrxnq4GmpPWAdGyxodwhS-RtJqVT5sr_r6tzu3Ux8y-QHJ6HAa1DeV1tA2VxKhFuvCIG8TySMCJJPo3ozhH2oAqputYYRURIgzd61Sl43lgsHVoW2ZYDYwtNpbftmu-hSh2I5NE-tRuTXMWLR0V7CGGHJy5D6KUzx9M9sbJx6TDeeOek_gfsk8I-Msn2Hv525hfEV4Txw6RRcgsslNZr3K4B9T0PxHUDPZLFMmelvY-bccbIUicfZaCgje9lbmgNhiyVlAvUYfPOizXjMM-wSJdffUZEejepa6S9KVBVlwtwmAjskzqb8SdMNcb5VCnT2mn7RaqqZfRe8Df4Op9sMAzzTjOUBe6Ox8Jdqs4FMZslkpkAbnxocKaqr_d6lujT1wuMGtD9-plNaReMhMWxkbkhOTKQAxN6kbvZ9omsQPTN4pGitXcDVLaj6bH8gQ6uBcopjmg5Q5YxFrH0StlNgmPIuPAFyMwwgiLIDgOTHqF416r-Ya0A3VlvIQXvY0SFxNJZgBq-uClbubPA1snuoTH9kGmV__u0-wbnAz2tSjzKe7K-e9ElD-WFHeD-jtMmhgkkOXdCjbHpCPs4wzWhMfRmDiCCS_nVi8z95ZE3OOvxoRYfqifTciDKnd7-RaJ7PGXl91U5yjhHkPMVEmhkp6_c5v8RqU6bRP99pAPw3UcazsRXO5ReE-4DR8A9L0kwtCZuZfIxtX0q9YoDgFSAWxVc- -6-VDqfUNk-Mnu_jnXtHjQ-XQZYfZDtxyxeSopDZNY6se4-qhB915S5cEVYffEswD4KjFLGQplIc_X2lgtWWhp5noPPOscCJ0gsnlQIsLhxVd2VZrKbnrpKw5LVGaftaoIrerc32yMbedcbDtmgY8om1gTqOM54iWWm97dneQFXciBQVTMYJVk9lfFQ4TcnmliRoe5xJdf1ma-KReX1HZTfQoWpEF-CpdAdoIVSVuRZZPwvfibgUqGgNHCvVVAWgkRxus0Lqly0]--></g></svg>