<svg xmlns="http://www.w3.org/2000/svg" xmlns:xlink="http://www.w3.org/1999/xlink" contentStyleType="text/css" data-diagram-type="DESCRIPTION" height="491.1841px" preserveAspectRatio="none" style="width:2406px;height:491px;background:#FEFEFE;" version="1.1" viewBox="0 0 2406 491" width="2406.7517px" zoomAndPan="magnify"><title>**MicrOSAL &#8212; Backend Map &amp; Native Support**</title><defs/><g><rect fill="#FEFEFE" height="491.1841" style="stroke:none;stroke-width:0.5017;" width="2406.7517" x="0" y="0"/><g class="title" data-source-line="8"><text fill="#000000" font-family="'Segoe UI'" font-size="11.0378" font-weight="bold" lengthAdjust="spacing" textLength="273.0465" x="1064.5949" y="22.7886">MicrOSAL &#8212; Backend Map &amp; Native Support</text></g><g class="legend" data-source-line="13"><rect fill="none" height="89.902" rx="3.7629" ry="3.7629" style="stroke:#000000;stroke-width:0.5017;" width="157.1261" x="5.0172" y="38.4365"/><text fill="#000000" font-family="'Segoe UI'" font-size="7.0241" font-weight="bold" lengthAdjust="spacing" textLength="20.6778" x="20.0056" y="58.5028">Color</text><text fill="#000000" font-family="'Segoe UI'" font-size="7.0241" font-weight="bold" lengthAdjust="spacing" textLength="33.9303" x="55.6086" y="58.5028">Meaning</text><rect fill="#C8E6C9" height="18.2109" style="stroke:none;stroke-width:0.5017;" width="35.603" x="12.543" y="65.1766"/><text fill="#000000" font-family="'Segoe UI'" font-size="7.0241" lengthAdjust="spacing" textLength="2.2328" x="17.5602" y="76.7137">&#160;</text><text fill="#000000" font-family="'Segoe UI'" font-size="7.0241" lengthAdjust="spacing" textLength="91.9716" x="55.396" y="76.7137">Full-featured / desktop OS</text><rect fill="#BBDEFB" height="18.2109" style="stroke:none;stroke-width:0.5017;" width="35.603" x="12.543" y="83.3875"/><text fill="#000000" font-family="'Segoe UI'" font-size="7.0241" lengthAdjust="spacing" textLength="2.2328" x="17.5602" y="94.9246">&#160;</text><text fill="#000000" font-family="'Segoe UI'" font-size="7.0241" lengthAdjust="spacing" textLength="84.9681" x="55.396" y="94.9246">Real-time kernel (RTOS)</text><rect fill="#FFE0B2" height="18.2109" style="stroke:none;stroke-width:0.5017;" width="35.603" x="12.543" y="101.5983"/><text fill="#000000" font-family="'Segoe UI'" font-size="7.0241" lengthAdjust="spacing" textLength="2.2328" x="17.5602" y="113.1355">&#160;</text><text fill="#000000" font-family="'Segoe UI'" font-size="7.0241" lengthAdjust="spacing" textLength="75.9582" x="55.396" y="113.1355">Minimal / cooperative</text><line style="stroke:#000000;stroke-width:0.5017;" x1="12.543" x2="154.6175" y1="46.9657" y2="46.9657"/><line style="stroke:#000000;stroke-width:0.5017;" x1="12.543" x2="154.6175" y1="65.1766" y2="65.1766"/><line style="stroke:#000000;stroke-width:0.5017;" x1="12.543" x2="154.6175" y1="83.3875" y2="83.3875"/><line style="stroke:#000000;stroke-width:0.5017;" x1="12.543" x2="154.6175" y1="101.5983" y2="101.5983"/><line style="stroke:#000000;stroke-width:0.5017;" x1="12.543" x2="154.6175" y1="119.8092" y2="119.8092"/><line style="stroke:#000000;stroke-width:0.5017;" x1="12.543" x2="12.543" y1="46.9657" y2="119.8092"/><line style="stroke:#000000;stroke-width:0.5017;" x1="48.146" x2="48.146" y1="46.9657" y2="119.8092"/><line style="stroke:#000000;stroke-width:0.5017;" x1="154.6175" x2="154.6175" y1="46.9657" y2="119.8092"/></g><!--cluster posix_fam--><g class="cluster" data-entity="posix_fam" data-source-line="23" data-uid="ent0002" id="cluster_posix_fam"><path d="M6.7732,164.1161 L70.6828,164.1161 A1.8815,1.8815 0 0 1 71.9371,165.3704 L75.4491,185.3373 L426.713,185.3373 A1.2543,1.2543 0 0 1 427.9673,186.5916 L427.9673,342.7285 A1.2543,1.2543 0 0 1 426.713,343.9828 L6.7732,343.9828 A1.2543,1.2543 0 0 1 5.5189,342.7285 L5.5189,165.3704 A1.2543,1.2543 0 0 1 6.7732,164.1161" fill="#C8E6C9" style="stroke:#666666;stroke-width:0.5017;"/><line style="stroke:#666666;stroke-width:0.5017;" x1="5.5189" x2="75.4491" y1="185.3373" y2="185.3373"/><text fill="#000000" font-family="'Segoe UI'" font-size="7.0241" font-weight="bold" lengthAdjust="spacing" textLength="53.3734" x="12.543" y="176.6567">POSIX-Family</text></g><!--cluster commercial--><g class="cluster" data-entity="commercial" data-source-line="50" data-uid="ent0012" id="cluster_commercial"><path d="M964.0553,168.1299 L1044.8323,168.1299 A1.8815,1.8815 0 0 1 1046.0866,169.3842 L1049.5986,189.3511 L1309.7405,189.3511 A1.2543,1.2543 0 0 1 1310.9948,190.6054 L1310.9948,338.7147 A1.2543,1.2543 0 0 1 1309.7405,339.969 L964.0553,339.969 A1.2543,1.2543 0 0 1 962.801,338.7147 L962.801,169.3842 A1.2543,1.2543 0 0 1 964.0553,168.1299" fill="#BBDEFB" style="stroke:#666666;stroke-width:0.5017;"/><line style="stroke:#666666;stroke-width:0.5017;" x1="962.801" x2="1049.5986" y1="189.3511" y2="189.3511"/><text fill="#000000" font-family="'Segoe UI'" font-size="7.0241" font-weight="bold" lengthAdjust="spacing" textLength="70.2408" x="969.8251" y="180.6704">Commercial RTOS</text></g><!--cluster specialty--><g class="cluster" data-entity="specialty" data-source-line="61" data-uid="ent0018" id="cluster_specialty"><path d="M32.8627,360.0379 L103.5802,360.0379 A1.8815,1.8815 0 0 1 104.8345,361.2922 L108.3466,381.259 L173.846,381.259 A1.2543,1.2543 0 0 1 175.1003,382.5133 L175.1003,486.7222 A1.2543,1.2543 0 0 1 173.846,487.9765 L32.8627,487.9765 A1.2543,1.2543 0 0 1 31.6084,486.7222 L31.6084,361.2922 A1.2543,1.2543 0 0 1 32.8627,360.0379" fill="#BBDEFB" style="stroke:#666666;stroke-width:0.5017;"/><line style="stroke:#666666;stroke-width:0.5017;" x1="31.6084" x2="108.3466" y1="381.259" y2="381.259"/><text fill="#000000" font-family="'Segoe UI'" font-size="7.0241" font-weight="bold" lengthAdjust="spacing" textLength="60.1814" x="38.6325" y="372.5784">Specialty RTOS</text></g><!--cluster cmsis_fam--><g class="cluster" data-entity="cmsis_fam" data-source-line="70" data-uid="ent0022" id="cluster_cmsis_fam"><path d="M1692.0513,168.1299 L1747.7432,168.1299 A1.8815,1.8815 0 0 1 1748.9975,169.3842 L1752.5096,189.3511 L1881.1998,189.3511 A1.2543,1.2543 0 0 1 1882.4541,190.6054 L1882.4541,239.1233 A1.2543,1.2543 0 0 1 1881.1998,240.3776 L1692.0513,240.3776 A1.2543,1.2543 0 0 1 1690.797,239.1233 L1690.797,169.3842 A1.2543,1.2543 0 0 1 1692.0513,168.1299" fill="#BBDEFB" style="stroke:#666666;stroke-width:0.5017;"/><line style="stroke:#666666;stroke-width:0.5017;" x1="1690.797" x2="1752.5096" y1="189.3511" y2="189.3511"/><text fill="#000000" font-family="'Segoe UI'" font-size="7.0241" font-weight="bold" lengthAdjust="spacing" textLength="45.1558" x="1697.8211" y="180.6704">ARM CMSIS</text></g><!--cluster noos--><g class="cluster" data-entity="noos" data-source-line="78" data-uid="ent0025" id="cluster_noos"><path d="M2278.0605,168.1299 L2313.2461,168.1299 A1.8815,1.8815 0 0 1 2314.5004,169.3842 L2318.0124,189.3511 L2401.9854,189.3511 A1.2543,1.2543 0 0 1 2403.2397,190.6054 L2403.2397,239.1233 A1.2543,1.2543 0 0 1 2401.9854,240.3776 L2278.0605,240.3776 A1.2543,1.2543 0 0 1 2276.8062,239.1233 L2276.8062,169.3842 A1.2543,1.2543 0 0 1 2278.0605,168.1299" fill="#FFE0B2" style="stroke:#666666;stroke-width:0.5017;"/><line style="stroke:#666666;stroke-width:0.5017;" x1="2276.8062" x2="2318.0124" y1="189.3511" y2="189.3511"/><text fill="#000000" font-family="'Segoe UI'" font-size="7.0241" font-weight="bold" lengthAdjust="spacing" textLength="24.6495" x="2283.8303" y="180.6704">No-OS</text></g><!--entity be_po--><g class="entity" data-entity="be_po" data-source-line="24" data-uid="ent0003" id="entity_be_po"><rect fill="#FFFFFF" height="36.4217" rx="1.2543" ry="1.2543" style="stroke:#000000;stroke-width:0.5017;" width="82.044" x="26.5912" y="195.7245"/><text fill="#000000" font-family="'Segoe UI'" font-size="7.0241" lengthAdjust="spacing" textLength="21.1065" x="36.6256" y="212.2788">POSIX</text><text fill="#000000" font-family="'Segoe UI'" font-size="7.0241" lengthAdjust="spacing" textLength="61.9752" x="36.6256" y="220.4553">(any POSIX:2008)</text></g><!--entity be_li--><g class="entity" data-entity="be_li" data-source-line="25" data-uid="ent0004" id="entity_be_li"><rect fill="#FFFFFF" height="36.4217" rx="1.2543" ry="1.2543" style="stroke:#000000;stroke-width:0.5017;" width="105.2358" x="310.5648" y="195.7245"/><text fill="#000000" font-family="'Segoe UI'" font-size="7.0241" lengthAdjust="spacing" textLength="18.9252" x="320.5992" y="212.2788">Linux</text><text fill="#000000" font-family="'Segoe UI'" font-size="7.0241" lengthAdjust="spacing" textLength="85.167" x="320.5992" y="220.4553">(&#8805; 4.11, extends POSIX)</text></g><!--entity be_qx--><g class="entity" data-entity="be_qx" data-source-line="26" data-uid="ent0005" id="entity_be_qx"><rect fill="#FFFFFF" height="36.4217" rx="1.2543" ry="1.2543" style="stroke:#000000;stroke-width:0.5017;" width="77.311" x="125.9318" y="195.7245"/><text fill="#000000" font-family="'Segoe UI'" font-size="7.0241" lengthAdjust="spacing" textLength="15.595" x="135.9662" y="212.2788">QNX</text><text fill="#000000" font-family="'Segoe UI'" font-size="7.0241" lengthAdjust="spacing" textLength="57.2422" x="135.9662" y="220.4553">(Neutrino RTOS)</text></g><!--entity be_nx--><g class="entity" data-entity="be_nx" data-source-line="27" data-uid="ent0006" id="entity_be_nx"><rect fill="#FFFFFF" height="36.4217" rx="1.2543" ry="1.2543" style="stroke:#000000;stroke-width:0.5017;" width="73.2742" x="220.2552" y="195.7245"/><text fill="#000000" font-family="'Segoe UI'" font-size="7.0241" lengthAdjust="spacing" textLength="20.0262" x="230.2896" y="212.2788">NuttX</text><text fill="#000000" font-family="'Segoe UI'" font-size="7.0241" lengthAdjust="spacing" textLength="53.2054" x="230.2896" y="220.4553">(Apache, &#8805; 12)</text></g><!--entity be_rt--><g class="entity" data-entity="be_rt" data-source-line="28" data-uid="ent0007" id="entity_be_rt"><rect fill="#FFFFFF" height="36.4217" rx="1.2543" ry="1.2543" style="stroke:#000000;stroke-width:0.5017;" width="71.2301" x="32.1101" y="295.3159"/><text fill="#000000" font-family="'Segoe UI'" font-size="7.0241" lengthAdjust="spacing" textLength="24.1281" x="42.1445" y="311.8703">RTEMS</text><text fill="#000000" font-family="'Segoe UI'" font-size="7.0241" lengthAdjust="spacing" textLength="51.1612" x="42.1445" y="320.0467">(POSIX profile)</text></g><!--entity be_in--><g class="entity" data-entity="be_in" data-source-line="29" data-uid="ent0008" id="entity_be_in"><rect fill="#FFFFFF" height="36.4217" rx="1.2543" ry="1.2543" style="stroke:#000000;stroke-width:0.5017;" width="77.7603" x="120.6637" y="295.3159"/><text fill="#000000" font-family="'Segoe UI'" font-size="7.0241" lengthAdjust="spacing" textLength="37.0308" x="130.6981" y="311.8703">INTEGRITY</text><text fill="#000000" font-family="'Segoe UI'" font-size="7.0241" lengthAdjust="spacing" textLength="57.6915" x="130.6981" y="320.0467">(pthread profile)</text></g><!--entity be_fr--><g class="entity" data-entity="be_fr" data-source-line="51" data-uid="ent0013" id="entity_be_fr"><rect fill="#FFFFFF" height="36.4217" rx="1.2543" ry="1.2543" style="stroke:#000000;stroke-width:0.5017;" width="80.4011" x="1160.4788" y="195.7245"/><text fill="#000000" font-family="'Segoe UI'" font-size="7.0241" lengthAdjust="spacing" textLength="34.7294" x="1170.5132" y="212.2788">FreeRTOS</text><text fill="#000000" font-family="'Segoe UI'" font-size="7.0241" lengthAdjust="spacing" textLength="60.3323" x="1170.5132" y="220.4553">(all chip families)</text></g><!--entity be_zy--><g class="entity" data-entity="be_zy" data-source-line="52" data-uid="ent0014" id="entity_be_zy"><rect fill="#FFFFFF" height="36.4217" rx="1.2543" ry="1.2543" style="stroke:#000000;stroke-width:0.5017;" width="45.1573" x="1257.8125" y="195.7245"/><text fill="#000000" font-family="'Segoe UI'" font-size="7.0241" lengthAdjust="spacing" textLength="25.0885" x="1267.8469" y="212.2788">Zephyr</text><text fill="#000000" font-family="'Segoe UI'" font-size="7.0241" lengthAdjust="spacing" textLength="24.7695" x="1267.8469" y="220.4553">(&#8805; 3.0)</text></g><!--entity be_tx--><g class="entity" data-entity="be_tx" data-source-line="53" data-uid="ent0015" id="entity_be_tx"><rect fill="#FFFFFF" height="36.4217" rx="1.2543" ry="1.2543" style="stroke:#000000;stroke-width:0.5017;" width="67.0938" x="970.8286" y="195.7245"/><text fill="#000000" font-family="'Segoe UI'" font-size="7.0241" lengthAdjust="spacing" textLength="29.5265" x="980.863" y="212.2788">ThreadX</text><text fill="#000000" font-family="'Segoe UI'" font-size="7.0241" lengthAdjust="spacing" textLength="47.025" x="980.863" y="220.4553">(Azure RTOS)</text></g><!--entity be_px--><g class="entity" data-entity="be_px" data-source-line="54" data-uid="ent0016" id="entity_be_px"><rect fill="#FFFFFF" height="36.4217" rx="1.2543" ry="1.2543" style="stroke:#000000;stroke-width:0.5017;" width="87.8231" x="1055.3684" y="195.7245"/><text fill="#000000" font-family="'Segoe UI'" font-size="7.0241" lengthAdjust="spacing" textLength="13.5166" x="1065.4028" y="212.2788">PX5</text><text fill="#000000" font-family="'Segoe UI'" font-size="7.0241" lengthAdjust="spacing" textLength="67.7543" x="1065.4028" y="220.4553">(ThreadX superset)</text></g><!--entity be_vx--><g class="entity" data-entity="be_vx" data-source-line="55" data-uid="ent0017" id="entity_be_vx"><rect fill="#FFFFFF" height="36.4217" rx="1.2543" ry="1.2543" style="stroke:#000000;stroke-width:0.5017;" width="70.4892" x="970.8286" y="295.3159"/><text fill="#000000" font-family="'Segoe UI'" font-size="7.0241" lengthAdjust="spacing" textLength="30.8195" x="980.863" y="311.8703">VxWorks</text><text fill="#000000" font-family="'Segoe UI'" font-size="7.0241" lengthAdjust="spacing" textLength="50.4204" x="980.863" y="320.0467">(Wind River 7)</text></g><!--entity be_mi--><g class="entity" data-entity="be_mi" data-source-line="62" data-uid="ent0019" id="entity_be_mi"><rect fill="#FFFFFF" height="36.4217" rx="1.2543" ry="1.2543" style="stroke:#000000;stroke-width:0.5017;" width="56.0261" x="39.6359" y="387.6325"/><text fill="#000000" font-family="'Segoe UI'" font-size="7.0241" lengthAdjust="spacing" textLength="28.0072" x="49.6703" y="404.1868">Micrium</text><text fill="#000000" font-family="'Segoe UI'" font-size="7.0241" lengthAdjust="spacing" textLength="35.9573" x="49.6703" y="412.3633">(&#181;C/OS-III)</text></g><!--entity be_ch--><g class="entity" data-entity="be_ch" data-source-line="63" data-uid="ent0020" id="entity_be_ch"><rect fill="#FFFFFF" height="36.4217" rx="1.2543" ry="1.2543" style="stroke:#000000;stroke-width:0.5017;" width="54.0094" x="112.887" y="387.6325"/><text fill="#000000" font-family="'Segoe UI'" font-size="7.0241" lengthAdjust="spacing" textLength="27.7053" x="122.9214" y="404.1868">ChibiOS</text><text fill="#000000" font-family="'Segoe UI'" font-size="7.0241" lengthAdjust="spacing" textLength="33.9406" x="122.9214" y="412.3633">(RT &#8805; 21)</text></g><!--entity be_em--><g class="entity" data-entity="be_em" data-source-line="64" data-uid="ent0021" id="entity_be_em"><rect fill="#FFFFFF" height="36.4217" rx="1.2543" ry="1.2543" style="stroke:#000000;stroke-width:0.5017;" width="54.6508" x="40.3885" y="443.3234"/><text fill="#000000" font-family="'Segoe UI'" font-size="7.0241" lengthAdjust="spacing" textLength="25.6098" x="50.4229" y="459.8777">embOS</text><text fill="#000000" font-family="'Segoe UI'" font-size="7.0241" lengthAdjust="spacing" textLength="34.5819" x="50.4229" y="468.0542">(SEGGER)</text></g><!--entity be_c1--><g class="entity" data-entity="be_c1" data-source-line="71" data-uid="ent0023" id="entity_be_c1"><rect fill="#FFFFFF" height="36.4217" rx="1.2543" ry="1.2543" style="stroke:#000000;stroke-width:0.5017;" width="76.7691" x="1699.0754" y="195.7245"/><text fill="#000000" font-family="'Segoe UI'" font-size="7.0241" lengthAdjust="spacing" textLength="43.6467" x="1709.1098" y="212.2788">CMSIS-RTOS</text><text fill="#000000" font-family="'Segoe UI'" font-size="7.0241" lengthAdjust="spacing" textLength="56.7003" x="1709.1098" y="220.4553">(v1, cmsis_os.h)</text></g><!--entity be_c2--><g class="entity" data-entity="be_c2" data-source-line="72" data-uid="ent0024" id="entity_be_c2"><rect fill="#FFFFFF" height="36.4217" rx="1.2543" ry="1.2543" style="stroke:#000000;stroke-width:0.5017;" width="81.238" x="1793.1479" y="195.7245"/><text fill="#000000" font-family="'Segoe UI'" font-size="7.0241" lengthAdjust="spacing" textLength="48.1157" x="1803.1823" y="212.2788">CMSIS-RTOS2</text><text fill="#000000" font-family="'Segoe UI'" font-size="7.0241" lengthAdjust="spacing" textLength="61.1692" x="1803.1823" y="220.4553">(v2, cmsis_os2.h)</text></g><!--entity be_bm--><g class="entity" data-entity="be_bm" data-source-line="79" data-uid="ent0026" id="entity_be_bm"><rect fill="#FFFFFF" height="36.4217" rx="1.2543" ry="1.2543" style="stroke:#000000;stroke-width:0.5017;" width="110.3255" x="2284.8337" y="195.7245"/><text fill="#000000" font-family="'Segoe UI'" font-size="7.0241" lengthAdjust="spacing" textLength="39.0406" x="2294.8681" y="212.2788">Bare-metal</text><text fill="#000000" font-family="'Segoe UI'" font-size="7.0241" lengthAdjust="spacing" textLength="90.2567" x="2294.8681" y="220.4553">(cooperative, single-core)</text></g><g class="entity" data-entity="GMN9" data-source-line="33" data-uid="ent0010" id="entity_GMN9"><path d="M440.2595,157.3429 L440.2595,270.5122 L706.594,270.5122 L706.594,162.3601 L701.5768,157.3429 L440.2595,157.3429" fill="#FFFFFF" style="stroke:#000000;stroke-width:0.5017;"/><path d="M701.5768,157.3429 L701.5768,162.3601 L706.594,162.3601 L701.5768,157.3429" fill="#FFFFFF" style="stroke:#000000;stroke-width:0.5017;"/><text fill="#000000" font-family="'Segoe UI'" font-size="7.0241" lengthAdjust="spacing" textLength="107.9953" x="448.287" y="171.3886">Shared implementation files in</text><text fill="#000000" font-family="'Segoe UI'" font-size="7.0241" lengthAdjust="spacing" textLength="76.0165" x="448.287" y="179.5651">`src/common/posix/`:</text><text fill="#000000" font-family="'Segoe UI'" font-size="7.0241" lengthAdjust="spacing" textLength="2.2328" x="448.287" y="187.7416">&#160;</text><text fill="#000000" font-family="'Segoe UI'" font-size="7.0241" lengthAdjust="spacing" textLength="130.7447" x="448.287" y="195.918">&#8226; `posix_clock.inl`   &#8212; all 6 backends</text><text fill="#000000" font-family="'Segoe UI'" font-size="7.0241" lengthAdjust="spacing" textLength="133.2827" x="448.287" y="204.0945">&#8226; `posix_rwlock.inl`  &#8212; all 6 backends</text><text fill="#000000" font-family="'Segoe UI'" font-size="7.0241" lengthAdjust="spacing" textLength="220.5795" x="448.287" y="212.271">&#8226; `posix_condvar.inl` &#8212; POSIX, Linux, QNX, RTEMS, INTEGRITY</text><text fill="#000000" font-family="'Segoe UI'" font-size="7.0241" lengthAdjust="spacing" textLength="245.764" x="448.287" y="220.4474">&#8226; `posix_pthread_work_queue.inl` &#8212; POSIX, Linux, RTEMS, INTEGRITY</text><text fill="#000000" font-family="'Segoe UI'" font-size="7.0241" lengthAdjust="spacing" textLength="2.2328" x="448.287" y="228.6239">&#160;</text><text fill="#000000" font-family="'Segoe UI'" font-size="7.0241" lengthAdjust="spacing" textLength="61.2275" x="448.287" y="236.8004">Tick-width guard:</text><text fill="#000000" font-family="'Segoe UI'" font-size="7.0241" lengthAdjust="spacing" textLength="111.3427" x="448.287" y="244.9769">`OSAL_CFG_NATIVE_TICK_BITS`</text><text fill="#000000" font-family="'Segoe UI'" font-size="7.0241" lengthAdjust="spacing" textLength="103.2485" x="448.287" y="253.1533">enforces `sizeof(osal::tick_t)`</text><text fill="#000000" font-family="'Segoe UI'" font-size="7.0241" lengthAdjust="spacing" textLength="131.9485" x="448.287" y="261.3298">&lt;= native tick width at compile time.</text></g><g class="entity" data-entity="GMN27" data-source-line="87" data-uid="ent0028" id="entity_GMN27"><path d="M723.9822,186.1918 L723.9822,242.1258 L953.9068,242.1258 L953.9068,191.209 L948.8896,186.1918 L723.9822,186.1918" fill="#FFFFFF" style="stroke:#000000;stroke-width:0.5017;"/><path d="M948.8896,186.1918 L948.8896,191.209 L953.9068,191.209 L948.8896,186.1918" fill="#FFFFFF" style="stroke:#000000;stroke-width:0.5017;"/><text fill="#000000" font-family="'Segoe UI'" font-size="7.0241" font-weight="bold" lengthAdjust="spacing" textLength="62.7812" x="732.0097" y="200.2375">Native condvar:</text><text fill="#000000" font-family="'Segoe UI'" font-size="7.0241" lengthAdjust="spacing" textLength="144.3401" x="797.0237" y="200.2375">&#10003; (pthread_cond_t, CLOCK_MONOTONIC)</text><text fill="#000000" font-family="'Segoe UI'" font-size="7.0241" font-weight="bold" lengthAdjust="spacing" textLength="57.0021" x="732.0097" y="208.414">Native rwlock:</text><text fill="#000000" font-family="'Segoe UI'" font-size="7.0241" lengthAdjust="spacing" textLength="73.8249" x="791.2446" y="208.414">&#10003; (pthread_rwlock_t)</text><text fill="#000000" font-family="'Segoe UI'" font-size="7.0241" font-weight="bold" lengthAdjust="spacing" textLength="77.433" x="732.0097" y="216.5905">Native work queue:</text><text fill="#000000" font-family="'Segoe UI'" font-size="7.0241" lengthAdjust="spacing" textLength="47.0044" x="811.6755" y="216.5905">&#10007; (emulated)</text><text fill="#000000" font-family="'Segoe UI'" font-size="7.0241" font-weight="bold" lengthAdjust="spacing" textLength="36.2797" x="732.0097" y="224.7669">Wait-set:</text><text fill="#000000" font-family="'Segoe UI'" font-size="7.0241" lengthAdjust="spacing" textLength="30.5795" x="770.5222" y="224.7669">&#10003; (epoll)</text><text fill="#000000" font-family="'Segoe UI'" font-size="7.0241" font-weight="bold" lengthAdjust="spacing" textLength="44.2058" x="732.0097" y="232.9434">Timed join:</text><text fill="#000000" font-family="'Segoe UI'" font-size="7.0241" lengthAdjust="spacing" textLength="5.8854" x="778.4483" y="232.9434">&#10007;</text></g><g class="entity" data-entity="GMN30" data-source-line="95" data-uid="ent0031" id="entity_GMN30"><path d="M1319.7749,181.9272 L1319.7749,212.0304 L1303.158,214.0373 L1319.7749,216.0442 L1319.7749,246.0376 A0,0 0 0 0 1319.7749,246.0376 L1483.7047,246.0376 A0,0 0 0 0 1483.7047,246.0376 L1483.7047,186.9444 L1478.6875,181.9272 L1319.7749,181.9272 A0,0 0 0 0 1319.7749,181.9272" fill="#FFFFFF" style="stroke:#000000;stroke-width:0.5017;"/><path d="M1478.6875,181.9272 L1478.6875,186.9444 L1483.7047,186.9444 L1478.6875,181.9272" fill="#FFFFFF" style="stroke:#000000;stroke-width:0.5017;"/><text fill="#000000" font-family="'Segoe UI'" font-size="7.0241" font-weight="bold" lengthAdjust="spacing" textLength="62.7812" x="1327.8025" y="195.9729">Native condvar:</text><text fill="#000000" font-family="'Segoe UI'" font-size="7.0241" lengthAdjust="spacing" textLength="49.5973" x="1392.8164" y="195.9729">&#10003; (k_condvar)</text><text fill="#000000" font-family="'Segoe UI'" font-size="7.0241" font-weight="bold" lengthAdjust="spacing" textLength="75.3031" x="1327.8025" y="204.1494">Native event flags:</text><text fill="#000000" font-family="'Segoe UI'" font-size="7.0241" lengthAdjust="spacing" textLength="41.1842" x="1405.3383" y="204.1494">&#10003; (k_event)</text><text fill="#000000" font-family="'Segoe UI'" font-size="7.0241" font-weight="bold" lengthAdjust="spacing" textLength="77.433" x="1327.8025" y="212.3258">Native work queue:</text><text fill="#000000" font-family="'Segoe UI'" font-size="7.0241" lengthAdjust="spacing" textLength="63.6935" x="1407.4682" y="212.3258">&#10003; (k_work_queue)</text><text fill="#000000" font-family="'Segoe UI'" font-size="7.0241" font-weight="bold" lengthAdjust="spacing" textLength="82.7833" x="1327.8025" y="220.5023">Native memory pool:</text><text fill="#000000" font-family="'Segoe UI'" font-size="7.0241" lengthAdjust="spacing" textLength="47.0044" x="1412.8186" y="220.5023">&#10007; (emulated)</text><text fill="#000000" font-family="'Segoe UI'" font-size="7.0241" font-weight="bold" lengthAdjust="spacing" textLength="62.421" x="1327.8025" y="228.6788">ISR semaphore:</text><text fill="#000000" font-family="'Segoe UI'" font-size="7.0241" lengthAdjust="spacing" textLength="5.8854" x="1392.4563" y="228.6788">&#10003;</text><text fill="#000000" font-family="'Segoe UI'" font-size="7.0241" font-weight="bold" lengthAdjust="spacing" textLength="44.2058" x="1327.8025" y="236.8553">Timed join:</text><text fill="#000000" font-family="'Segoe UI'" font-size="7.0241" lengthAdjust="spacing" textLength="5.8854" x="1374.241" y="236.8553">&#10003;</text></g><g class="entity" data-entity="GMN33" data-source-line="104" data-uid="ent0034" id="entity_GMN33"><path d="M1501.1468,177.9134 L1501.1468,250.2003 L1681.6798,250.2003 L1681.6798,182.9306 L1676.6626,177.9134 L1501.1468,177.9134" fill="#FFFFFF" style="stroke:#000000;stroke-width:0.5017;"/><path d="M1676.6626,177.9134 L1676.6626,182.9306 L1681.6798,182.9306 L1676.6626,177.9134" fill="#FFFFFF" style="stroke:#000000;stroke-width:0.5017;"/><text fill="#000000" font-family="'Segoe UI'" font-size="7.0241" font-weight="bold" lengthAdjust="spacing" textLength="62.7812" x="1509.1743" y="191.9591">Native condvar:</text><text fill="#000000" font-family="'Segoe UI'" font-size="7.0241" lengthAdjust="spacing" textLength="47.0044" x="1574.1882" y="191.9591">&#10007; (emulated)</text><text fill="#000000" font-family="'Segoe UI'" font-size="7.0241" font-weight="bold" lengthAdjust="spacing" textLength="77.433" x="1509.1743" y="200.1356">Native work queue:</text><text fill="#000000" font-family="'Segoe UI'" font-size="7.0241" lengthAdjust="spacing" textLength="47.0044" x="1588.84" y="200.1356">&#10007; (emulated)</text><text fill="#000000" font-family="'Segoe UI'" font-size="7.0241" font-weight="bold" lengthAdjust="spacing" textLength="62.421" x="1509.1743" y="208.3121">ISR semaphore:</text><text fill="#000000" font-family="'Segoe UI'" font-size="7.0241" lengthAdjust="spacing" textLength="5.8854" x="1573.8281" y="208.3121">&#10003;</text><text fill="#000000" font-family="'Segoe UI'" font-size="7.0241" font-weight="bold" lengthAdjust="spacing" textLength="47.1656" x="1509.1743" y="216.4886">Event flags:</text><text fill="#000000" font-family="'Segoe UI'" font-size="7.0241" lengthAdjust="spacing" textLength="83.5893" x="1558.5727" y="216.4886">&#10003; (native xEventGroup)</text><text fill="#000000" font-family="'Segoe UI'" font-size="7.0241" font-weight="bold" lengthAdjust="spacing" textLength="58.326" x="1509.1743" y="224.665">Stream buffer:</text><text fill="#000000" font-family="'Segoe UI'" font-size="7.0241" lengthAdjust="spacing" textLength="88.2435" x="1569.733" y="224.665">&#10003; (xStreamBufferCreate)</text><text fill="#000000" font-family="'Segoe UI'" font-size="7.0241" font-weight="bold" lengthAdjust="spacing" textLength="64.2697" x="1509.1743" y="232.8415">Message buffer:</text><text fill="#000000" font-family="'Segoe UI'" font-size="7.0241" lengthAdjust="spacing" textLength="93.4601" x="1575.6767" y="232.8415">&#10003; (xMessageBufferCreate)</text><text fill="#000000" font-family="'Segoe UI'" font-size="7.0241" font-weight="bold" lengthAdjust="spacing" textLength="72.9743" x="1509.1743" y="241.018">ISR stream buffer:</text><text fill="#000000" font-family="'Segoe UI'" font-size="7.0241" lengthAdjust="spacing" textLength="5.8854" x="1584.3814" y="241.018">&#10003;</text></g><g class="entity" data-entity="GMN36" data-source-line="114" data-uid="ent0037" id="entity_GMN36"><path d="M2285.5863,289.797 L2285.5863,337.5545 A0,0 0 0 0 2285.5863,337.5545 L2394.4071,337.5545 A0,0 0 0 0 2394.4071,337.5545 L2394.4071,294.8142 L2389.3899,289.797 L2342.0298,289.797 L2340.0229,232.3902 L2338.0161,289.797 L2285.5863,289.797 A0,0 0 0 0 2285.5863,289.797" fill="#FFFFFF" style="stroke:#000000;stroke-width:0.5017;"/><path d="M2389.3899,289.797 L2389.3899,294.8142 L2394.4071,294.8142 L2389.3899,289.797" fill="#FFFFFF" style="stroke:#000000;stroke-width:0.5017;"/><text fill="#000000" font-family="'Segoe UI'" font-size="7.0241" lengthAdjust="spacing" textLength="88.2503" x="2293.6138" y="303.8427">Cooperative round-robin.</text><text fill="#000000" font-family="'Segoe UI'" font-size="7.0241" lengthAdjust="spacing" textLength="82.118" x="2293.6138" y="312.0192">No preemption. Priority</text><text fill="#000000" font-family="'Segoe UI'" font-size="7.0241" lengthAdjust="spacing" textLength="76.5515" x="2293.6138" y="320.1957">ignored. All advanced</text><text fill="#000000" font-family="'Segoe UI'" font-size="7.0241" lengthAdjust="spacing" textLength="67.0443" x="2293.6138" y="328.3722">features emulated.</text></g><g class="entity" data-entity="GMN39" data-source-line="121" data-uid="ent0040" id="entity_GMN39"><path d="M1891.4851,190.2056 L1891.4851,212.0304 L1874.5621,214.0373 L1891.4851,216.0442 L1891.4851,237.9631 A0,0 0 0 0 1891.4851,237.9631 L2061.9759,237.9631 A0,0 0 0 0 2061.9759,237.9631 L2061.9759,195.2228 L2056.9587,190.2056 L1891.4851,190.2056 A0,0 0 0 0 1891.4851,190.2056" fill="#FFFFFF" style="stroke:#000000;stroke-width:0.5017;"/><path d="M2056.9587,190.2056 L2056.9587,195.2228 L2061.9759,195.2228 L2056.9587,190.2056" fill="#FFFFFF" style="stroke:#000000;stroke-width:0.5017;"/><text fill="#000000" font-family="'Segoe UI'" font-size="7.0241" font-weight="bold" lengthAdjust="spacing" textLength="75.3031" x="1899.5126" y="204.2513">Native event flags:</text><text fill="#000000" font-family="'Segoe UI'" font-size="7.0241" lengthAdjust="spacing" textLength="60.0923" x="1977.0485" y="204.2513">&#10003; (osEventFlags)</text><text fill="#000000" font-family="'Segoe UI'" font-size="7.0241" font-weight="bold" lengthAdjust="spacing" textLength="82.7833" x="1899.5126" y="212.4278">Native memory pool:</text><text fill="#000000" font-family="'Segoe UI'" font-size="7.0241" lengthAdjust="spacing" textLength="64.9042" x="1984.5287" y="212.4278">&#10003; (osMemoryPool)</text><text fill="#000000" font-family="'Segoe UI'" font-size="7.0241" font-weight="bold" lengthAdjust="spacing" textLength="62.421" x="1899.5126" y="220.6042">ISR semaphore:</text><text fill="#000000" font-family="'Segoe UI'" font-size="7.0241" lengthAdjust="spacing" textLength="5.8854" x="1964.1664" y="220.6042">&#10003;</text><text fill="#000000" font-family="'Segoe UI'" font-size="7.0241" font-weight="bold" lengthAdjust="spacing" textLength="68.9581" x="1899.5126" y="228.7807">Recursive mutex:</text><text fill="#000000" font-family="'Segoe UI'" font-size="7.0241" lengthAdjust="spacing" textLength="5.8854" x="1970.7035" y="228.7807">&#10003;</text></g><g class="entity" data-entity="GMN42" data-source-line="128" data-uid="ent0043" id="entity_GMN42"><path d="M2079.3793,194.2193 L2079.3793,233.8004 L2267.4577,233.8004 L2267.4577,199.2365 L2262.4405,194.2193 L2079.3793,194.2193" fill="#FFFFFF" style="stroke:#000000;stroke-width:0.5017;"/><path d="M2262.4405,194.2193 L2262.4405,199.2365 L2267.4577,199.2365 L2262.4405,194.2193" fill="#FFFFFF" style="stroke:#000000;stroke-width:0.5017;"/><text fill="#000000" font-family="'Segoe UI'" font-size="7.0241" font-weight="bold" lengthAdjust="spacing" textLength="82.7833" x="2087.4068" y="208.265">Native memory pool:</text><text fill="#000000" font-family="'Segoe UI'" font-size="7.0241" lengthAdjust="spacing" textLength="36.338" x="2172.4229" y="208.265">&#10003; (osPool)</text><text fill="#000000" font-family="'Segoe UI'" font-size="7.0241" font-weight="bold" lengthAdjust="spacing" textLength="62.421" x="2087.4068" y="216.4415">ISR semaphore:</text><text fill="#000000" font-family="'Segoe UI'" font-size="7.0241" lengthAdjust="spacing" textLength="5.8854" x="2152.0606" y="216.4415">&#10003;</text><text fill="#000000" font-family="'Segoe UI'" font-size="7.0241" font-weight="bold" lengthAdjust="spacing" textLength="47.1656" x="2087.4068" y="224.618">Event flags:</text><text fill="#000000" font-family="'Segoe UI'" font-size="7.0241" lengthAdjust="spacing" textLength="118.1095" x="2136.8052" y="224.618">emulated (osSignal is per-thread)</text></g><!--link posix_fam to GMN9--><g class="link" data-entity-1="posix_fam" data-entity-2="GMN9" data-source-line="33" data-uid="lnk11" id="link_posix_fam_GMN9"><path d="M11.7944,163.9535 C12.1204,163.1107 12.4692,162.2823 12.8421,161.4709 C15.8252,154.9792 20.351,149.57 27.0929,146.5559 C46.7854,137.7507 394.2868,142.2311 415.4243,146.5559 C428.3587,149.2 441.5439,152.9478 454.5033,157.3379" fill="none" id="posix_fam-GMN9" style="stroke:#000000;stroke-width:0.5017;stroke-dasharray:3.512,3.512;"/></g><!--link be_li to GMN27--><g class="link" data-entity-1="be_li" data-entity-2="GMN27" data-source-line="87" data-uid="lnk29" id="link_be_li_GMN27"><path d="M377.4943,195.6593 C391.4973,179.238 414.4961,156.3144 440.5103,146.5559 C468.2253,136.1553 678.1451,139.6221 706.9237,146.5559 C739.0037,154.2824 772.0621,171.2054 797.0628,186.1667" fill="none" id="be_li-GMN27" style="stroke:#000000;stroke-width:0.5017;stroke-dasharray:3.512,3.512;"/></g><!--link be_fr to GMN33--><g class="link" data-entity-1="be_fr" data-entity-2="GMN33" data-source-line="104" data-uid="lnk35" id="link_be_fr_GMN33"><path d="M1209.9685,195.6693 C1219.4861,179.253 1235.9425,156.3344 1257.8125,146.5559 C1280.7662,136.2957 1459.9305,139.592 1484.0883,146.5559 C1506.2493,152.9428 1528.2497,165.4005 1546.5123,177.8934" fill="none" id="be_fr-GMN33" style="stroke:#000000;stroke-width:0.5017;stroke-dasharray:3.512,3.512;"/></g><!--link be_c1 to GMN42--><g class="link" data-entity-1="be_c1" data-entity-2="GMN42" data-source-line="128" data-uid="lnk44" id="link_be_c1_GMN42"><path d="M1746.4077,195.6191 C1755.5691,179.1727 1771.5138,156.2291 1793.1479,146.5559 C1820.4265,134.3591 2033.2913,138.5184 2062.07,146.5559 C2095.0581,155.7725 2128.011,177.7127 2149.4144,194.0889" fill="none" id="be_c1-GMN42" style="stroke:#000000;stroke-width:0.5017;stroke-dasharray:3.512,3.512;"/></g><!--SRC=[jLVDRXit4BxhAIOEqDg2VcorTLCZAM1j9KEe9RbQDKcB0ZArIqcCkEI6vDfIcWAvzfm2lVHKe8_G5-YZ-4awvAvNVvQTWsKTl9ZzPeRyvdUVc0cDACISC55umaJ0av12TI8ZMdqp93oyPg9weUGR6XXTZLYWklxfUJMKWQw6Z8mLYNHreAW8gHh4IeuOf_YV2LE9auWNz9I9c20AXYIOZfLCHEX9BXKyRJRiRmaHqX59k6bAOJe43xNdqx6ay6DhRmaKo2YMWWhZcpcdeF1SH8mvNO9Se2SofdMfy52Pi-FZuqB1C8CgnM8xkmRSVFW3weZ6uqERnF0PT8XXLnJy98wbCiLYeV0vl7Z4FpHtJiVexx7jScSLZ8o1qv4f0Bn_0UdbyQ5DYM1Y3E-j79u_zPurZhrlliNdPi9vUKI9IHGDeOf1q5DhfEldu7hzkqQpRi4zIdZPC8pDb2f1EUpt-bt_84Sscut3UiqYsqomY70q64WPKvNI-hw0PqnFkWDYBxf-wtLvH2B6vuzjFKvp2lPI9qtdP0-8XbXgDXkWLyXOXL-H3LWaQgRpYzWdOfuUygHsUFZimAaFiLpaki8v4yaC5Mv-_mU-h1mTbO3E39AcK_LSaxDrpHywrb679WPhK88BpotwxMmTtKcCiVXJlDw4bi3wEwhb2i8gBC5x_KRRHxWx16JLdgELMKMtElt6MQ_L_marOZDHb8GREjXqVYiKX3HOoMmyCI172qBHd3yXDYrP57DiKy9W6aa1reG6r0Mur2geejD8YgfJh5wU551-y-5lk4mj1Lm6qmeJ_1B0LJpX78vTFxAKheBLzHBw8N0WHNX5L8gsO4TC2LpuIe2nA87Zh0Gv6QiMCbu6rr9D1syJcj1jnZRieA4-2wRbQnQQ2OmJei8JIuXjR0ElUJRedFPRBnk3VilxVb1lzVrBV4l5IAe0oRlKx1sLetsf2JyvCMXeO0uiulaB46cnMY6arebnWKNQmLP_nPOnsAZje8ez32PL0SFcORDtPuMyviTbPB2GPLrlivYRYbAhOEiPSoEOi1XSps5KvtazKkjgFzDuCbTPJNzHESoXx-RhqBxB2LUNxx0hhnQnsIZYYzTV8JHJ0frWjzNKBBhBXiBBsIjCDurAhnZ6iOV1Ll1rhd0ripNvw77rOsg9DVFTXdNLZRkJpaLRWset0fP4ICb__thLhbzkjLev8T56b_KcRCXS2lJwhcdMZd9qC5b7qsZei7xZxApHou4qsWdFfxqsU6s_jJkASmzfpKIQwNJ-RMFNWSjPqLpXD4jrfAvC5hGTRTUgMRNQGgssh5VR2Ojrd3lbY1h2TqPZHvQp11LIQiYMfqts5aT16fQsgH9ePZVVSY3LOg8ETvDL7ed947iS5X4HsFdT8DQmdqvjpK9wyDXErzQ2stMdMCnsz6pwdXIBSFFNHxZTCTnK7fWIUETTd7pjRgVRxtPQti6oRZhcDrHJCKx2PQoTpU1cSuh_4_Pfb71YQ9ZYNX5cojXoStCqbfodx_euBaDu8vd8b9T6vyRzt2ZOUh_fxRwnSZfwPPDanCbOBo6TzDvREDXYxLZ1HZIIQewBcEHRhjpoUw1fHE89vbvcyCxxVhpllcvAtdtV3O-V6eoj9slSGLIswSpSkpFyE8rJ8xx1TC1FrcGqeei0p59ntKazV3GPRMsgjItfTNmctrHmXxp3npfPGscCZ3AsXdOXzfQ-fjp7T5d98HCLVDMHk5vJ6iMsD2jmePXKMA_uXeq5aX5Mu1GN5e8aYu26ACy- -pJSKbYvBrhOQH_8EwaTaKqhl3-X7BZjf1SeV21qFHeaIZj3YQ6pJyWiDqqUSFy9ZjTovfOcg-qZgRWcClm0fAgSze-3nP7-1m00]--></g></svg>