<svg xmlns="http://www.w3.org/2000/svg" xmlns:xlink="http://www.w3.org/1999/xlink" contentStyleType="text/css" data-diagram-type="ACTIVITY" height="3224.375px" preserveAspectRatio="none" style="width:1640px;height:3224px;background:#FEFEFE;" version="1.1" viewBox="0 0 1640 3224" width="1640.8333px" zoomAndPan="magnify"><title>**MicrOSAL &#8212; Build &amp; Compilation Flow**</title><defs/><g><rect fill="#FEFEFE" height="3224.375" style="stroke:none;stroke-width:2.2917;" width="1640.8333" x="0" y="0"/><g class="title" data-source-line="8"><text fill="#000000" font-family="'Segoe UI'" font-size="50.4167" font-weight="bold" lengthAdjust="spacing" textLength="1073.3236" x="281.3804" y="104.0896">MicrOSAL &#8212; Build &amp; Compilation Flow</text></g><ellipse cx="720.4517" cy="187.0215" fill="#FFFFFF" rx="22.9167" ry="22.9167" style="stroke:#000000;stroke-width:2.2917;"/><path d="M1084.8893,232.8548 L1084.8893,314.0837 L1039.056,323.2503 L1084.8893,332.417 L1084.8893,413.6458 A0,0 0 0 0 1084.8893,413.6458 L1626.9177,413.6458 A0,0 0 0 0 1626.9177,413.6458 L1626.9177,255.7715 L1604.0011,232.8548 L1084.8893,232.8548 A0,0 0 0 0 1084.8893,232.8548" fill="#FFFFFF" style="stroke:#000000;stroke-width:2.2917;"/><path d="M1604.0011,232.8548 L1604.0011,255.7715 L1626.9177,255.7715 L1604.0011,232.8548" fill="#FFFFFF" style="stroke:#000000;stroke-width:2.2917;"/><text fill="#000000" font-family="'Segoe UI'" font-size="32.0833" lengthAdjust="spacing" textLength="239.7477" x="1121.556" y="297.0103">cmake -B build</text><text fill="#000000" font-family="'Segoe UI'" font-size="32.0833" lengthAdjust="spacing" textLength="417.8196" x="1141.9527" y="334.3573">-DOSAL_BACKEND=LINUX</text><text fill="#000000" font-family="'Segoe UI'" font-size="32.0833" lengthAdjust="spacing" textLength="427.6733" x="1141.9527" y="371.7043">-DOSAL_BUILD_TESTS=ON</text><rect fill="#E3F2FD" height="129.0137" rx="28.6458" ry="28.6458" style="stroke:#1565C0;stroke-width:2.2917;" width="637.2087" x="401.8473" y="258.7435"/><text fill="#000000" font-family="'Segoe UI'" font-size="32.0833" lengthAdjust="spacing" textLength="545.542" x="447.6807" y="334.3573">Developer sets backend in CMake</text><path d="M1052.2577,436.5625 L1052.2577,536.4648 L1006.4244,545.6315 L1052.2577,554.7982 L1052.2577,654.7005 A0,0 0 0 0 1052.2577,654.7005 L1612.0353,654.7005 A0,0 0 0 0 1612.0353,654.7005 L1612.0353,459.4792 L1589.1187,436.5625 L1052.2577,436.5625 A0,0 0 0 0 1052.2577,436.5625" fill="#FFFFFF" style="stroke:#000000;stroke-width:2.2917;"/><path d="M1589.1187,436.5625 L1589.1187,459.4792 L1612.0353,459.4792 L1589.1187,436.5625" fill="#FFFFFF" style="stroke:#000000;stroke-width:2.2917;"/><text fill="#000000" font-family="'Segoe UI'" font-size="32.0833" lengthAdjust="spacing" textLength="376.0392" x="1088.9244" y="500.718">OSAL_BACKEND_SRC =</text><text fill="#000000" font-family="'Segoe UI'" font-size="32.0833" lengthAdjust="spacing" textLength="445.4226" x="1109.3211" y="538.065">src/linux/linux_backend.cpp</text><text fill="#000000" font-family="'Segoe UI'" font-size="32.0833" lengthAdjust="spacing" textLength="430.5558" x="1088.9244" y="575.412">OSAL_BACKEND_MACRO =</text><text fill="#000000" font-family="'Segoe UI'" font-size="32.0833" lengthAdjust="spacing" textLength="370.6972" x="1109.3211" y="612.759">OSAL_BACKEND_LINUX</text><rect fill="#E3F2FD" height="166.3607" rx="28.6458" ry="28.6458" style="stroke:#1565C0;stroke-width:2.2917;" width="571.9454" x="434.479" y="462.4512"/><text fill="#000000" font-family="'Segoe UI'" font-size="32.0833" lengthAdjust="spacing" textLength="480.2787" x="480.3123" y="538.065">CMakeLists.txt maps backend</text><text fill="#000000" font-family="'Segoe UI'" font-size="32.0833" lengthAdjust="spacing" textLength="331.7837" x="480.3123" y="575.412">to source and macro</text><rect fill="#000000" height="13.75" rx="5.7292" ry="5.7292" style="stroke:#000000;stroke-width:2.2917;" width="1413.4033" x="13.75" y="700.5339"/><rect fill="#E3F2FD" height="203.7077" rx="28.6458" ry="28.6458" style="stroke:#1565C0;stroke-width:2.2917;" width="613.4908" x="45.8333" y="760.1172"/><text fill="#000000" font-family="'Segoe UI'" font-size="32.0833" lengthAdjust="spacing" textLength="131.2158" x="91.6667" y="835.731">Compile</text><text fill="#000000" font-family="'Segoe UI'" font-size="32.0833" font-weight="bold" lengthAdjust="spacing" textLength="288.3584" x="233.0809" y="835.731">header-only API</text><text fill="#000000" font-family="'Segoe UI'" font-size="32.0833" lengthAdjust="spacing" textLength="521.8241" x="91.6667" y="873.078">(osal.hpp includes all primitives)</text><text fill="#000000" font-family="'Segoe UI'" font-size="32.0833" lengthAdjust="spacing" textLength="483.8192" x="91.6667" y="910.425">&#8594; all resolved at compile time</text><rect fill="#E3F2FD" height="203.7077" rx="28.6458" ry="28.6458" style="stroke:#1565C0;stroke-width:2.2917;" width="671.5792" x="723.4908" y="760.1172"/><text fill="#000000" font-family="'Segoe UI'" font-size="32.0833" lengthAdjust="spacing" textLength="131.2158" x="769.3241" y="835.731">Compile</text><text fill="#000000" font-family="'Segoe UI'" font-size="32.0833" font-weight="bold" lengthAdjust="spacing" textLength="318.6558" x="910.7383" y="835.731">one backend .cpp</text><text fill="#000000" font-family="'Segoe UI'" font-size="32.0833" lengthAdjust="spacing" textLength="579.9125" x="769.3241" y="873.078">with OSAL_BACKEND_LINUX defined</text><text fill="#000000" font-family="'Segoe UI'" font-size="32.0833" lengthAdjust="spacing" textLength="561.7403" x="769.3241" y="910.425">&#8594; implements extern "C" functions</text><rect fill="#000000" height="13.75" rx="5.7292" ry="5.7292" style="stroke:#000000;stroke-width:2.2917;" width="1413.4033" x="13.75" y="1009.6582"/><polygon fill="#E3F2FD" points="423.7692,1069.2415,1017.1341,1069.2415,1044.6341,1110.8317,1017.1341,1152.4219,423.7692,1152.4219,396.2692,1110.8317,423.7692,1069.2415" style="stroke:#1565C0;stroke-width:2.2917;"/><text fill="#000000" font-family="'Segoe UI'" font-size="32.0833" lengthAdjust="spacing" textLength="547.5315" x="446.6859" y="1121.9387">Backend uses shared emulations?</text><text fill="#000000" font-family="'Segoe UI'" font-size="32.0833" lengthAdjust="spacing" textLength="55.4409" x="317.9117" y="1080.3485">yes</text><text fill="#000000" font-family="'Segoe UI'" font-size="32.0833" lengthAdjust="spacing" textLength="39.9632" x="1067.5508" y="1080.3485">no</text><rect fill="#E3F2FD" height="278.4017" rx="28.6458" ry="28.6458" style="stroke:#1565C0;stroke-width:2.2917;" width="537.4809" x="104.6121" y="1175.3385"/><text fill="#000000" font-family="'Segoe UI'" font-size="32.0833" lengthAdjust="spacing" textLength="217.0951" x="150.4455" y="1250.9524">Backend .cpp</text><text fill="#000000" font-family="'Segoe UI'" font-size="32.0833" font-weight="bold" lengthAdjust="spacing" textLength="177.3983" x="387.9373" y="1250.9524">#includes</text><text fill="#000000" font-family="'Segoe UI'" font-size="32.0833" lengthAdjust="spacing" textLength="421.3757" x="150.4455" y="1288.2994">emulated_work_queue.inl,</text><text fill="#000000" font-family="'Segoe UI'" font-size="32.0833" lengthAdjust="spacing" textLength="356.9897" x="150.4455" y="1325.6464">emulated_condvar.inl,</text><text fill="#000000" font-family="'Segoe UI'" font-size="32.0833" lengthAdjust="spacing" textLength="445.8142" x="150.4455" y="1362.9934">emulated_memory_pool.inl,</text><text fill="#000000" font-family="'Segoe UI'" font-size="32.0833" lengthAdjust="spacing" textLength="435.3652" x="150.4455" y="1400.3404">and/or emulated_rwlock.inl</text><rect fill="#E3F2FD" height="166.3607" rx="28.6458" ry="28.6458" style="stroke:#1565C0;stroke-width:2.2917;" width="473.0009" x="831.0503" y="1175.3385"/><text fill="#000000" font-family="'Segoe UI'" font-size="32.0833" lengthAdjust="spacing" textLength="346.0864" x="876.8836" y="1250.9524">Backend provides full</text><text fill="#000000" font-family="'Segoe UI'" font-size="32.0833" lengthAdjust="spacing" textLength="381.3342" x="876.8836" y="1288.2994">native implementations</text><polygon fill="#E3F2FD" points="720.4517,1476.6569,747.9517,1504.1569,720.4517,1531.6569,692.9517,1504.1569,720.4517,1476.6569" style="stroke:#1565C0;stroke-width:2.2917;"/><rect fill="#E3F2FD" height="203.7077" rx="28.6458" ry="28.6458" style="stroke:#1565C0;stroke-width:2.2917;" width="527.4548" x="456.7242" y="1577.4902"/><text fill="#000000" font-family="'Segoe UI'" font-size="32.0833" lengthAdjust="spacing" textLength="419.3392" x="502.5576" y="1653.104">Linker resolves extern "C"</text><text fill="#000000" font-family="'Segoe UI'" font-size="32.0833" lengthAdjust="spacing" textLength="402.3263" x="502.5576" y="1690.451">symbols from header API</text><text fill="#000000" font-family="'Segoe UI'" font-size="32.0833" lengthAdjust="spacing" textLength="435.7882" x="502.5576" y="1727.7981">to backend .cpp definitions</text><rect fill="#E3F2FD" height="166.3607" rx="28.6458" ry="28.6458" style="stroke:#1565C0;stroke-width:2.2917;" width="471.074" x="484.9147" y="1827.0312"/><text fill="#000000" font-family="'Segoe UI'" font-size="32.0833" lengthAdjust="spacing" textLength="137.3568" x="530.748" y="1902.6451">Link into</text><text fill="#000000" font-family="'Segoe UI'" font-size="32.0833" font-weight="bold" lengthAdjust="spacing" textLength="231.8522" x="678.3031" y="1902.6451">libmicrosal.a</text><text fill="#000000" font-family="'Segoe UI'" font-size="32.0833" lengthAdjust="spacing" textLength="226.5415" x="530.748" y="1939.9921">(static library)</text><polygon fill="#E3F2FD" points="493.3249,2039.2253,947.5784,2039.2253,975.0784,2080.8154,947.5784,2122.4056,493.3249,2122.4056,465.8249,2080.8154,493.3249,2039.2253" style="stroke:#1565C0;stroke-width:2.2917;"/><text fill="#000000" font-family="'Segoe UI'" font-size="32.0833" lengthAdjust="spacing" textLength="408.4202" x="516.2416" y="2091.9224">OSAL_BUILD_TESTS=ON?</text><text fill="#000000" font-family="'Segoe UI'" font-size="32.0833" lengthAdjust="spacing" textLength="55.4409" x="387.4673" y="2050.3322">yes</text><text fill="#000000" font-family="'Segoe UI'" font-size="32.0833" lengthAdjust="spacing" textLength="39.9632" x="997.9951" y="2050.3322">no</text><rect fill="#E3F2FD" height="166.3607" rx="28.6458" ry="28.6458" style="stroke:#1565C0;stroke-width:2.2917;" width="499.6482" x="179.9364" y="2145.3223"/><text fill="#000000" font-family="'Segoe UI'" font-size="32.0833" lengthAdjust="spacing" textLength="407.9816" x="225.7697" y="2220.9361">Build 15 test executables</text><text fill="#000000" font-family="'Segoe UI'" font-size="32.0833" lengthAdjust="spacing" textLength="327.2563" x="225.7697" y="2258.2831">(doctest framework)</text><rect fill="#E3F2FD" height="129.0137" rx="28.6458" ry="28.6458" style="stroke:#1565C0;stroke-width:2.2917;" width="404.6985" x="227.4113" y="2357.5163"/><text fill="#000000" font-family="'Segoe UI'" font-size="32.0833" lengthAdjust="spacing" textLength="313.0318" x="273.2446" y="2433.1301">Register with CTest</text><rect fill="#E3F2FD" height="129.0137" rx="28.6458" ry="28.6458" style="stroke:#1565C0;stroke-width:2.2917;" width="255.3731" x="302.0739" y="2532.3633"/><text fill="#000000" font-family="'Segoe UI'" font-size="32.0833" lengthAdjust="spacing" textLength="62.9604" x="347.9073" y="2607.9771">Run</text><text fill="#000000" font-family="'Segoe UI'" font-size="32.0833" font-weight="bold" lengthAdjust="spacing" textLength="90.5477" x="421.0661" y="2607.9771">ctest</text><polygon fill="#E3F2FD" points="292.3512,2707.2103,567.1699,2707.2103,594.6699,2748.8005,567.1699,2790.3906,292.3512,2790.3906,264.8512,2748.8005,292.3512,2707.2103" style="stroke:#1565C0;stroke-width:2.2917;"/><text fill="#000000" font-family="'Segoe UI'" font-size="32.0833" lengthAdjust="spacing" textLength="228.9854" x="315.2678" y="2759.9074">All tests pass?</text><text fill="#000000" font-family="'Segoe UI'" font-size="32.0833" lengthAdjust="spacing" textLength="55.4409" x="186.4936" y="2718.3173">yes</text><text fill="#000000" font-family="'Segoe UI'" font-size="32.0833" lengthAdjust="spacing" textLength="39.9632" x="617.5865" y="2718.3173">no</text><rect fill="#C8E6C9" height="129.0137" rx="28.6458" ry="28.6458" style="stroke:#1565C0;stroke-width:2.2917;" width="385.5237" x="40.2952" y="2813.3073"/><text fill="#000000" font-family="'Segoe UI'" font-size="32.0833" lengthAdjust="spacing" textLength="293.857" x="86.1286" y="2888.9211">&#10003; Build successful</text><rect fill="#FFCDD2" height="129.0137" rx="28.6458" ry="28.6458" style="stroke:#1565C0;stroke-width:2.2917;" width="309.6234" x="471.6522" y="2813.3073"/><text fill="#000000" font-family="'Segoe UI'" font-size="32.0833" lengthAdjust="spacing" textLength="217.9567" x="517.4856" y="2888.9211">&#10007; Test failure</text><ellipse cx="626.464" cy="3013.3626" fill="none" rx="25.2083" ry="25.2083" style="stroke:#000000;stroke-width:2.2917;"/><ellipse cx="626.464" cy="3013.3626" fill="#FFFFFF" rx="13.75" ry="13.75" style="stroke:#000000;stroke-width:2.2917;"/><rect fill="#C8E6C9" height="129.0137" rx="28.6458" ry="28.6458" style="stroke:#1565C0;stroke-width:2.2917;" width="322.2343" x="850.0257" y="2145.3223"/><text fill="#000000" font-family="'Segoe UI'" font-size="32.0833" lengthAdjust="spacing" textLength="230.5676" x="895.859" y="2220.9361">&#10003; Library built</text><polygon fill="#E3F2FD" points="720.4517,3061.4876,747.9517,3088.9876,720.4517,3116.4876,692.9517,3088.9876,720.4517,3061.4876" style="stroke:#1565C0;stroke-width:2.2917;"/><ellipse cx="720.4517" cy="3187.5293" fill="none" rx="25.2083" ry="25.2083" style="stroke:#000000;stroke-width:2.2917;"/><ellipse cx="720.4517" cy="3187.5293" fill="#FFFFFF" rx="13.75" ry="13.75" style="stroke:#000000;stroke-width:2.2917;"/><line style="stroke:#000000;stroke-width:2.2917;" x1="720.4517" x2="720.4517" y1="209.9382" y2="258.7435"/><polygon fill="#000000" points="711.285,235.8268,720.4517,258.7435,729.6183,235.8268,720.4517,244.9935" style="stroke:#000000;stroke-width:2.2917;"/><line style="stroke:#000000;stroke-width:2.2917;" x1="720.4517" x2="720.4517" y1="387.7572" y2="462.4512"/><polygon fill="#000000" points="711.285,439.5345,720.4517,462.4512,729.6183,439.5345,720.4517,448.7012" style="stroke:#000000;stroke-width:2.2917;"/><line style="stroke:#000000;stroke-width:2.2917;" x1="352.5787" x2="352.5787" y1="714.2839" y2="760.1172"/><polygon fill="#000000" points="343.4121,737.2005,352.5787,760.1172,361.7454,737.2005,352.5787,746.3672" style="stroke:#000000;stroke-width:2.2917;"/><line style="stroke:#000000;stroke-width:2.2917;" x1="1059.2804" x2="1059.2804" y1="714.2839" y2="760.1172"/><polygon fill="#000000" points="1050.1137,737.2005,1059.2804,760.1172,1068.4471,737.2005,1059.2804,746.3672" style="stroke:#000000;stroke-width:2.2917;"/><line style="stroke:#000000;stroke-width:2.2917;" x1="352.5787" x2="352.5787" y1="963.8249" y2="1009.6582"/><polygon fill="#000000" points="343.4121,986.7415,352.5787,1009.6582,361.7454,986.7415,352.5787,995.9082" style="stroke:#000000;stroke-width:2.2917;"/><line style="stroke:#000000;stroke-width:2.2917;" x1="1059.2804" x2="1059.2804" y1="963.8249" y2="1009.6582"/><polygon fill="#000000" points="1050.1137,986.7415,1059.2804,1009.6582,1068.4471,986.7415,1059.2804,995.9082" style="stroke:#000000;stroke-width:2.2917;"/><line style="stroke:#000000;stroke-width:2.2917;" x1="720.4517" x2="720.4517" y1="628.8118" y2="700.5339"/><polygon fill="#000000" points="711.285,677.6172,720.4517,700.5339,729.6183,677.6172,720.4517,686.7839" style="stroke:#000000;stroke-width:2.2917;"/><line style="stroke:#000000;stroke-width:2.2917;" x1="396.2692" x2="373.3526" y1="1110.8317" y2="1110.8317"/><line style="stroke:#000000;stroke-width:2.2917;" x1="373.3526" x2="373.3526" y1="1110.8317" y2="1175.3385"/><polygon fill="#000000" points="364.1859,1152.4219,373.3526,1175.3385,382.5192,1152.4219,373.3526,1161.5885" style="stroke:#000000;stroke-width:2.2917;"/><line style="stroke:#000000;stroke-width:2.2917;" x1="1044.6341" x2="1067.5508" y1="1110.8317" y2="1110.8317"/><line style="stroke:#000000;stroke-width:2.2917;" x1="1067.5508" x2="1067.5508" y1="1110.8317" y2="1175.3385"/><polygon fill="#000000" points="1058.3841,1152.4219,1067.5508,1175.3385,1076.7174,1152.4219,1067.5508,1161.5885" style="stroke:#000000;stroke-width:2.2917;"/><line style="stroke:#000000;stroke-width:2.2917;" x1="373.3526" x2="373.3526" y1="1453.7402" y2="1504.1569"/><line style="stroke:#000000;stroke-width:2.2917;" x1="373.3526" x2="692.9517" y1="1504.1569" y2="1504.1569"/><polygon fill="#000000" points="670.035,1494.9902,692.9517,1504.1569,670.035,1513.3236,679.2017,1504.1569" style="stroke:#000000;stroke-width:2.2917;"/><line style="stroke:#000000;stroke-width:2.2917;" x1="1067.5508" x2="1067.5508" y1="1341.6992" y2="1504.1569"/><line style="stroke:#000000;stroke-width:2.2917;" x1="1067.5508" x2="747.9517" y1="1504.1569" y2="1504.1569"/><polygon fill="#000000" points="770.8683,1494.9902,747.9517,1504.1569,770.8683,1513.3236,761.7017,1504.1569" style="stroke:#000000;stroke-width:2.2917;"/><line style="stroke:#000000;stroke-width:2.2917;" x1="720.4517" x2="720.4517" y1="1023.4082" y2="1069.2415"/><polygon fill="#000000" points="711.285,1046.3249,720.4517,1069.2415,729.6183,1046.3249,720.4517,1055.4915" style="stroke:#000000;stroke-width:2.2917;"/><line style="stroke:#000000;stroke-width:2.2917;" x1="720.4517" x2="720.4517" y1="1531.6569" y2="1577.4902"/><polygon fill="#000000" points="711.285,1554.5736,720.4517,1577.4902,729.6183,1554.5736,720.4517,1563.7402" style="stroke:#000000;stroke-width:2.2917;"/><line style="stroke:#000000;stroke-width:2.2917;" x1="720.4517" x2="720.4517" y1="1781.1979" y2="1827.0312"/><polygon fill="#000000" points="711.285,1804.1146,720.4517,1827.0312,729.6183,1804.1146,720.4517,1813.2812" style="stroke:#000000;stroke-width:2.2917;"/><line style="stroke:#000000;stroke-width:2.2917;" x1="429.7605" x2="429.7605" y1="2311.6829" y2="2357.5163"/><polygon fill="#000000" points="420.5938,2334.5996,429.7605,2357.5163,438.9272,2334.5996,429.7605,2343.7663" style="stroke:#000000;stroke-width:2.2917;"/><line style="stroke:#000000;stroke-width:2.2917;" x1="429.7605" x2="429.7605" y1="2486.5299" y2="2532.3633"/><polygon fill="#000000" points="420.5938,2509.4466,429.7605,2532.3633,438.9272,2509.4466,429.7605,2518.6133" style="stroke:#000000;stroke-width:2.2917;"/><line style="stroke:#000000;stroke-width:2.2917;" x1="626.464" x2="626.464" y1="2942.321" y2="2988.1543"/><polygon fill="#000000" points="617.2973,2965.2376,626.464,2988.1543,635.6306,2965.2376,626.464,2974.4043" style="stroke:#000000;stroke-width:2.2917;"/><line style="stroke:#000000;stroke-width:2.2917;" x1="264.8512" x2="233.0571" y1="2748.8005" y2="2748.8005"/><line style="stroke:#000000;stroke-width:2.2917;" x1="233.0571" x2="233.0571" y1="2748.8005" y2="2813.3073"/><polygon fill="#000000" points="223.8904,2790.3906,233.0571,2813.3073,242.2237,2790.3906,233.0571,2799.5573" style="stroke:#000000;stroke-width:2.2917;"/><line style="stroke:#000000;stroke-width:2.2917;" x1="594.6699" x2="626.464" y1="2748.8005" y2="2748.8005"/><line style="stroke:#000000;stroke-width:2.2917;" x1="626.464" x2="626.464" y1="2748.8005" y2="2813.3073"/><polygon fill="#000000" points="617.2973,2790.3906,626.464,2813.3073,635.6306,2790.3906,626.464,2799.5573" style="stroke:#000000;stroke-width:2.2917;"/><line style="stroke:#000000;stroke-width:2.2917;" x1="233.0571" x2="233.0571" y1="2942.321" y2="3088.9876"/><line style="stroke:#000000;stroke-width:2.2917;" x1="233.0571" x2="692.9517" y1="3088.9876" y2="3088.9876"/><polygon fill="#000000" points="670.035,3079.821,692.9517,3088.9876,670.035,3098.1543,679.2017,3088.9876" style="stroke:#000000;stroke-width:2.2917;"/><line style="stroke:#000000;stroke-width:2.2917;" x1="429.7605" x2="429.7605" y1="2661.377" y2="2707.2103"/><polygon fill="#000000" points="420.5938,2684.2936,429.7605,2707.2103,438.9272,2684.2936,429.7605,2693.4603" style="stroke:#000000;stroke-width:2.2917;"/><line style="stroke:#000000;stroke-width:2.2917;" x1="465.8249" x2="429.7605" y1="2080.8154" y2="2080.8154"/><line style="stroke:#000000;stroke-width:2.2917;" x1="429.7605" x2="429.7605" y1="2080.8154" y2="2145.3223"/><polygon fill="#000000" points="420.5938,2122.4056,429.7605,2145.3223,438.9272,2122.4056,429.7605,2131.5723" style="stroke:#000000;stroke-width:2.2917;"/><line style="stroke:#000000;stroke-width:2.2917;" x1="975.0784" x2="1011.1428" y1="2080.8154" y2="2080.8154"/><line style="stroke:#000000;stroke-width:2.2917;" x1="1011.1428" x2="1011.1428" y1="2080.8154" y2="2145.3223"/><polygon fill="#000000" points="1001.9761,2122.4056,1011.1428,2145.3223,1020.3095,2122.4056,1011.1428,2131.5723" style="stroke:#000000;stroke-width:2.2917;"/><line style="stroke:#000000;stroke-width:2.2917;" x1="1011.1428" x2="1011.1428" y1="2274.3359" y2="3088.9876"/><line style="stroke:#000000;stroke-width:2.2917;" x1="1011.1428" x2="747.9517" y1="3088.9876" y2="3088.9876"/><polygon fill="#000000" points="770.8683,3079.821,747.9517,3088.9876,770.8683,3098.1543,761.7017,3088.9876" style="stroke:#000000;stroke-width:2.2917;"/><line style="stroke:#000000;stroke-width:2.2917;" x1="720.4517" x2="720.4517" y1="1993.3919" y2="2039.2253"/><polygon fill="#000000" points="711.285,2016.3086,720.4517,2039.2253,729.6183,2016.3086,720.4517,2025.4753" style="stroke:#000000;stroke-width:2.2917;"/><line style="stroke:#000000;stroke-width:2.2917;" x1="720.4517" x2="720.4517" y1="3116.4876" y2="3162.321"/><polygon fill="#000000" points="711.285,3139.4043,720.4517,3162.321,729.6183,3139.4043,720.4517,3148.571" style="stroke:#000000;stroke-width:2.2917;"/><!--SRC=[RLJRRjD047ttLmojXDA8nb1K1Aqgb3Y9L96sg6abtgpDUf8isOlPIzAyySG7018lV5s_X5dRjEv5aHnfhcVcdDaNVeaAePHCwEI5q5o60Y5T6eNfrncJnKRezBCrNv5xboh1xSMqFqaBmrrQ2BQmJBaqjwWBj7bfpLn8f7-XVQyCIYPk9NJ9A0fcZAyMrWHTP4OQ2xlZKVor8WgSio3zs6X_pWZKpXGN1k7wTASLrETUh8NV3XwN6xqT7uo7pqKQI-2Qg3U7xmwprqdYXPS8tUvPCn7SVlyDWo1a0IyXCweKadbXD8obsNIxIU8yipv9ZeQuHcbAjE3Gkseg6Xw4XkoChV0uqSOZMB5O-WI0AxB1_W1ciJGP0FQ7iLy-w6UVHkV3aydf-VMN1uxhqyamlnfDhwOd5-T9B1vBKkkgmKGuxth-neDYvLt_n1jm9bYEm2X1CMxD8oZjhldqCeEJggkpF9L2XvlwcpS5Uxmi7oUTzRFBYoRjWQEUuHxftDWLHHtLUunhNY8Z3lQDbbleVpwbXG9qZ6EojonBQ6JdW4a991ubY3bqUnHq- -DdPRNeZ5nZ0Sm3RyfweMZViHcmHTJlWvP6unqxSPggvqRuvJFOe_I4ng9fA5GfwIeqyOit7gs6dMm7va7pA0btN8rQ3Pc8ENG6JPVWQ0ItP9PWeWgrWDp7FQ0Rqz3PrXCT3LgWW83k_X-_GbWdOf5lg7x-BM30dj3oLTl5ZIxMp3wnArJ6RlFI6FdVHsf8IVTt8NOZ3Lz5BqqX7K97cmUew8RN8d8n3rAIGxF8nVrAsFqAn9n4EH5wHSVGyDDUMEAsQcOaLR96GQs0I7xKQfkOUlcYgLjN94bGLBShnIo-EPLI6Esduo803cItp6xtZci6dZcSfsklZllD8NXqdc0Y3vxD9BeeHNhFAlES7WwCcwVAb7E92petWbtf9hkYaDeUD86hKhhTQ8aW-YJJQ75GClU4Te3TxFteNVRXwFRlh-QbSO5pT8us7MkqwQ3eyJWR3Wye-WzSLT2OaC7YSNsrtiJph4be9xQRJEebLM-FlsEiIlq7]--></g></svg>