<svg xmlns="http://www.w3.org/2000/svg" xmlns:xlink="http://www.w3.org/1999/xlink" contentStyleType="text/css" data-diagram-type="CLASS" height="3500.7865px" preserveAspectRatio="none" style="width:2407px;height:3500px;background:#FFFFFF;" version="1.1" viewBox="0 0 2407 3500" width="2407.2914px" zoomAndPan="magnify"><title>micrOSAL Bus + Signal Layer &#8212; Class Diagram</title><defs/><g><g class="title" data-source-line="3"><text fill="#000000" font-family="'Segoe UI'" font-size="28.0383" font-weight="bold" lengthAdjust="spacing" textLength="733.3503" x="823.432" y="66.0806">micrOSAL Bus + Signal Layer &#8212; Class Diagram</text></g><!--cluster osal--><g class="cluster" data-entity="osal" data-source-line="5" data-uid="ent0002" id="cluster_osal"><path d="M17.0233,126.7671 L123.5635,126.7671 A7.5103,7.5103 0 0 1 128.5703,131.7739 L142.5895,211.4766 L2388.2654,211.4766 A5.0068,5.0068 0 0 1 2393.2723,216.4835 L2393.2723,3482.3551 A5.0068,5.0068 0 0 1 2388.2654,3487.3619 L17.0233,3487.3619 A5.0068,5.0068 0 0 1 12.0164,3482.3551 L12.0164,131.7739 A5.0068,5.0068 0 0 1 17.0233,126.7671" fill="none" style="stroke:#000000;stroke-width:3.0041;"/><line style="stroke:#000000;stroke-width:3.0041;" x1="12.0164" x2="142.5895" y1="211.4766" y2="211.4766"/><text fill="#000000" font-family="'Segoe UI'" font-size="28.0383" font-weight="bold" lengthAdjust="spacing" textLength="64.4827" x="40.0548" y="176.8258">osal</text></g><!--class Bus--><g class="entity" data-entity="Bus" data-source-line="7" data-uid="ent0003" id="entity_Bus"><rect fill="#F1F1F1" height="560.9232" rx="5.0068" ry="5.0068" style="stroke:#181818;stroke-width:1.0014;" width="631.8483" x="1342.836" y="2031.3712"/><ellipse cx="1370.8744" cy="2114.078" fill="#ADD1B2" rx="20.0274" ry="20.0274" style="stroke:#181818;stroke-width:2.0027;"/><path d="M1373.3152,2125.5938 L1369.2784,2125.5938 L1369.2784,2108.6957 L1364.0838,2108.6957 L1364.0838,2105.1596 L1378.5098,2105.1596 L1378.5098,2108.6957 L1373.3152,2108.6957 L1373.3152,2125.5938 Z " fill="#000000"/><text fill="#000000" font-family="Segoe UI" font-size="28.0383" font-style="italic" lengthAdjust="spacing" textLength="161.1794" x="1412.9319" y="2087.4381">&#171;template&#187;</text><text fill="#000000" font-family="'Segoe UI'" font-size="28.0383" lengthAdjust="spacing" textLength="120.929" x="1433.057" y="2160.1312">osal_bus</text><rect fill="#FFFFFF" height="76.6986" style="stroke:#181818;stroke-width:2.0027;stroke-dasharray:4.0055,4.0055;" width="374.5375" x="1606.155" y="2025.363"/><text fill="#000000" font-family="Segoe UI" font-size="28.0383" font-style="italic" lengthAdjust="spacing" textLength="330.4772" x="1628.1852" y="2073.4189">T,Capacity,BackendTag</text><line style="stroke:#181818;stroke-width:1.0014;" x1="1344.8388" x2="1972.6816" y1="2196.7849" y2="2196.7849"/><line style="stroke:#181818;stroke-width:1.0014;" x1="1344.8388" x2="1972.6816" y1="2212.8068" y2="2212.8068"/><ellipse cx="1364.8661" cy="2260.1684" fill="#84BE84" rx="6.0082" ry="6.0082" style="stroke:#038048;stroke-width:2.0027;"/><text fill="#000000" font-family="'Segoe UI'" font-size="28.0383" lengthAdjust="spacing" textLength="176.1979" x="1400.9154" y="2266.8709">valid() : bool</text><ellipse cx="1364.8661" cy="2332.8615" fill="#84BE84" rx="6.0082" ry="6.0082" style="stroke:#038048;stroke-width:2.0027;"/><text fill="#000000" font-family="'Segoe UI'" font-size="28.0383" lengthAdjust="spacing" textLength="337.3499" x="1400.9154" y="2339.5641">try_send(item : T) : bool</text><ellipse cx="1364.8661" cy="2405.5547" fill="#84BE84" rx="6.0082" ry="6.0082" style="stroke:#038048;stroke-width:2.0027;"/><text fill="#000000" font-family="'Segoe UI'" font-size="28.0383" lengthAdjust="spacing" textLength="469.8064" x="1400.9154" y="2412.2572">send(item : T, ticks : tick_t) : bool</text><ellipse cx="1364.8661" cy="2478.2478" fill="#84BE84" rx="6.0082" ry="6.0082" style="stroke:#038048;stroke-width:2.0027;"/><text fill="#000000" font-family="'Segoe UI'" font-size="28.0383" lengthAdjust="spacing" textLength="377.436" x="1400.9154" y="2484.9503">try_receive(out : T&amp;) : bool</text><ellipse cx="1364.8661" cy="2550.941" fill="#84BE84" rx="6.0082" ry="6.0082" style="stroke:#038048;stroke-width:2.0027;"/><text fill="#000000" font-family="'Segoe UI'" font-size="28.0383" lengthAdjust="spacing" textLength="509.8925" x="1400.9154" y="2557.6435">receive(out : T&amp;, ticks : tick_t) : bool</text></g><!--class BusGeneric--><g class="entity" data-entity="BusGeneric" data-source-line="15" data-uid="ent0004" id="entity_BusGeneric"><rect fill="#F1F1F1" height="363.4657" rx="5.0068" ry="5.0068" style="stroke:#181818;stroke-width:1.0014;" width="613.9253" x="964.3185" y="3092.8225"/><ellipse cx="1011.4042" cy="3149.4937" fill="#ADD1B2" rx="20.0274" ry="20.0274" style="stroke:#181818;stroke-width:2.0027;"/><path d="M1016.192,3158.9128 Q1015.2219,3159.4135 1014.1579,3159.6639 Q1013.1253,3159.9142 1011.9674,3159.9142 Q1007.8368,3159.9142 1005.6463,3157.1917 Q1003.4871,3154.4693 1003.4871,3149.306 Q1003.4871,3144.1427 1005.6463,3141.4202 Q1007.8368,3138.6977 1011.9674,3138.6977 Q1013.1253,3138.6977 1014.1892,3138.948 Q1015.2532,3139.1984 1016.192,3139.6678 L1016.192,3144.1739 Q1015.1593,3143.2039 1014.1579,3142.7658 Q1013.1878,3142.3277 1012.1552,3142.3277 Q1009.9334,3142.3277 1008.8069,3144.0801 Q1007.6803,3145.8325 1007.6803,3149.306 Q1007.6803,3152.7482 1008.8069,3154.5319 Q1009.9334,3156.2843 1012.1552,3156.2843 Q1013.1878,3156.2843 1014.1579,3155.8462 Q1015.1593,3155.3768 1016.192,3154.438 L1016.192,3158.9128 Z " fill="#000000"/><text fill="#000000" font-family="'Segoe UI'" font-size="28.0383" lengthAdjust="spacing" textLength="120.929" x="1061.6999" y="3159.2003">osal_bus</text><rect fill="#FFFFFF" height="109.337" style="stroke:#181818;stroke-width:2.0027;stroke-dasharray:4.0055,4.0055;" width="346.5265" x="1237.7255" y="3086.8143"/><text fill="#000000" font-family="Segoe UI" font-size="28.0383" font-style="italic" lengthAdjust="spacing" textLength="157.4829" x="1332.2473" y="3134.8702">T,Capacity,</text><text fill="#000000" font-family="Segoe UI" font-size="28.0383" font-style="italic" lengthAdjust="spacing" textLength="302.4663" x="1259.7556" y="3167.5086">bus_backend_generic</text><line style="stroke:#181818;stroke-width:1.0014;" x1="966.3212" x2="1576.2411" y1="3206.165" y2="3206.165"/><rect fill="none" height="12.0164" style="stroke:#C82930;stroke-width:2.0027;" width="12.0164" x="980.3404" y="3247.5184"/><text fill="#000000" font-family="'Segoe UI'" font-size="28.0383" lengthAdjust="spacing" textLength="359.2823" x="1022.3979" y="3260.2291">handle_ : queue_handle_t</text><rect fill="none" height="12.0164" style="stroke:#C82930;stroke-width:2.0027;" width="12.0164" x="980.3404" y="3320.2115"/><text fill="#000000" font-family="'Segoe UI'" font-size="28.0383" lengthAdjust="spacing" textLength="168.3395" x="1022.3979" y="3332.9222">valid_ : bool</text><line style="stroke:#181818;stroke-width:1.0014;" x1="966.3212" x2="1576.2411" y1="3367.5731" y2="3367.5731"/><rect fill="#F24D5C" height="12.0164" style="stroke:#C82930;stroke-width:2.0027;" width="12.0164" x="980.3404" y="3408.9266"/><text fill="#000000" font-family="'Segoe UI'" font-size="28.0383" lengthAdjust="spacing" textLength="523.8021" x="1022.3979" y="3421.6373">storage_ : uint8_t[Capacity*sizeof(T)]</text></g><!--class BusZephyr--><g class="entity" data-entity="BusZephyr" data-source-line="21" data-uid="ent0005" id="entity_BusZephyr"><rect fill="#F1F1F1" height="218.0794" rx="5.0068" ry="5.0068" style="stroke:#181818;stroke-width:1.0014;" width="819.9688" x="862.1788" y="2696.2803"/><ellipse cx="1012.967" cy="2752.9515" fill="#ADD1B2" rx="20.0274" ry="20.0274" style="stroke:#181818;stroke-width:2.0027;"/><path d="M1017.7548,2762.3707 Q1016.7848,2762.8713 1015.7208,2763.1217 Q1014.6881,2763.372 1013.5303,2763.372 Q1009.3997,2763.372 1007.2092,2760.6496 Q1005.05,2757.9271 1005.05,2752.7638 Q1005.05,2747.6005 1007.2092,2744.878 Q1009.3997,2742.1555 1013.5303,2742.1555 Q1014.6881,2742.1555 1015.7521,2742.4059 Q1016.816,2742.6562 1017.7548,2743.1256 L1017.7548,2747.6318 Q1016.7222,2746.6617 1015.7208,2746.2236 Q1014.7507,2745.7855 1013.7181,2745.7855 Q1011.4963,2745.7855 1010.3697,2747.5379 Q1009.2432,2749.2903 1009.2432,2752.7638 Q1009.2432,2756.206 1010.3697,2757.9897 Q1011.4963,2759.7421 1013.7181,2759.7421 Q1014.7507,2759.7421 1015.7208,2759.304 Q1016.7222,2758.8346 1017.7548,2757.8958 L1017.7548,2762.3707 Z " fill="#000000"/><text fill="#000000" font-family="'Segoe UI'" font-size="28.0383" lengthAdjust="spacing" textLength="120.929" x="1071.0464" y="2762.6582">osal_bus</text><rect fill="#FFFFFF" height="109.337" style="stroke:#181818;stroke-width:2.0027;stroke-dasharray:4.0055,4.0055;" width="337.3812" x="1350.7746" y="2690.2721"/><text fill="#000000" font-family="Segoe UI" font-size="28.0383" font-style="italic" lengthAdjust="spacing" textLength="157.4829" x="1440.7238" y="2738.328">T,Capacity,</text><text fill="#000000" font-family="Segoe UI" font-size="28.0383" font-style="italic" lengthAdjust="spacing" textLength="293.321" x="1372.8047" y="2770.9664">bus_backend_zephyr</text><line style="stroke:#181818;stroke-width:1.0014;" x1="864.1816" x2="1680.1449" y1="2809.6228" y2="2809.6228"/><rect fill="none" height="12.0164" style="stroke:#C82930;stroke-width:2.0027;" width="12.0164" x="878.2007" y="2850.9762"/><text fill="#000000" font-family="'Segoe UI'" font-size="28.0383" lengthAdjust="spacing" textLength="729.8456" x="920.2582" y="2863.6869">impl_ : osal_bus&lt;T,Capacity,bus_backend_generic&gt;</text><line style="stroke:#181818;stroke-width:1.0014;" x1="864.1816" x2="1680.1449" y1="2898.3378" y2="2898.3378"/></g><!--class Signal--><g class="entity" data-entity="Signal" data-source-line="28" data-uid="ent0008" id="entity_Signal"><rect fill="#F1F1F1" height="633.6163" rx="5.0068" ry="5.0068" style="stroke:#181818;stroke-width:1.0014;" width="753.6789" x="220.3012" y="1096.0924"/><ellipse cx="337.212" cy="1178.7992" fill="#ADD1B2" rx="20.0274" ry="20.0274" style="stroke:#181818;stroke-width:2.0027;"/><path d="M339.6529,1190.315 L335.6161,1190.315 L335.6161,1173.4169 L330.4215,1173.4169 L330.4215,1169.8808 L344.8475,1169.8808 L344.8475,1173.4169 L339.6529,1173.4169 L339.6529,1190.315 Z " fill="#000000"/><text fill="#000000" font-family="Segoe UI" font-size="28.0383" font-style="italic" lengthAdjust="spacing" textLength="161.1794" x="391.5471" y="1152.1593">&#171;template&#187;</text><text fill="#000000" font-family="'Segoe UI'" font-size="28.0383" lengthAdjust="spacing" textLength="153.6906" x="395.2914" y="1224.8524">osal_signal</text><rect fill="#FFFFFF" height="76.6986" style="stroke:#181818;stroke-width:2.0027;stroke-dasharray:4.0055,4.0055;" width="306.0845" x="673.9038" y="1090.0842"/><text fill="#000000" font-family="Segoe UI" font-size="28.0383" font-style="italic" lengthAdjust="spacing" textLength="262.0243" x="695.934" y="1138.1401">T,N,M,BackendTag</text><line style="stroke:#181818;stroke-width:1.0014;" x1="222.304" x2="971.9774" y1="1261.5061" y2="1261.5061"/><line style="stroke:#181818;stroke-width:1.0014;" x1="222.304" x2="971.9774" y1="1277.528" y2="1277.528"/><ellipse cx="242.3313" cy="1324.8896" fill="#84BE84" rx="6.0082" ry="6.0082" style="stroke:#038048;stroke-width:2.0027;"/><text fill="#000000" font-family="'Segoe UI'" font-size="28.0383" lengthAdjust="spacing" textLength="563.9703" x="278.3806" y="1331.5921">subscribe(out_id : subscriber_id&amp;) : bool</text><ellipse cx="242.3313" cy="1397.5828" fill="#84BE84" rx="6.0082" ry="6.0082" style="stroke:#038048;stroke-width:2.0027;"/><text fill="#000000" font-family="'Segoe UI'" font-size="28.0383" lengthAdjust="spacing" textLength="517.7098" x="278.3806" y="1404.2853">unsubscribe(id : subscriber_id) : bool</text><ellipse cx="242.3313" cy="1470.2759" fill="#84BE84" rx="6.0082" ry="6.0082" style="stroke:#038048;stroke-width:2.0027;"/><text fill="#000000" font-family="'Segoe UI'" font-size="28.0383" lengthAdjust="spacing" textLength="314.4866" x="278.3806" y="1476.9784">publish(msg : T) : bool</text><ellipse cx="242.3313" cy="1542.969" fill="#84BE84" rx="6.0082" ry="6.0082" style="stroke:#038048;stroke-width:2.0027;"/><text fill="#000000" font-family="'Segoe UI'" font-size="28.0383" lengthAdjust="spacing" textLength="633.8197" x="278.3806" y="1549.6716">try_receive(id : subscriber_id, out : T&amp;) : bool</text><ellipse cx="242.3313" cy="1615.6622" fill="#84BE84" rx="6.0082" ry="6.0082" style="stroke:#038048;stroke-width:2.0027;"/><text fill="#000000" font-family="'Segoe UI'" font-size="28.0383" lengthAdjust="spacing" textLength="663.5557" x="278.3806" y="1622.3647">receive(id : subscriber_id, out : T&amp;, ticks) : bool</text><ellipse cx="242.3313" cy="1688.3553" fill="#84BE84" rx="6.0082" ry="6.0082" style="stroke:#038048;stroke-width:2.0027;"/><text fill="#000000" font-family="'Segoe UI'" font-size="28.0383" lengthAdjust="spacing" textLength="367.743" x="278.3806" y="1695.0578">subscriber_count() : size_t</text></g><!--class SignalGeneric--><g class="entity" data-entity="SignalGeneric" data-source-line="37" data-uid="ent0009" id="entity_SignalGeneric"><rect fill="#F1F1F1" height="363.4657" rx="5.0068" ry="5.0068" style="stroke:#181818;stroke-width:1.0014;" width="604.3595" x="116.1588" y="2130.5067"/><ellipse cx="144.1972" cy="2187.178" fill="#ADD1B2" rx="20.0274" ry="20.0274" style="stroke:#181818;stroke-width:2.0027;"/><path d="M148.985,2196.5971 Q148.0149,2197.0978 146.9509,2197.3481 Q145.9183,2197.5985 144.7604,2197.5985 Q140.6298,2197.5985 138.4393,2194.876 Q136.2801,2192.1535 136.2801,2186.9902 Q136.2801,2181.8269 138.4393,2179.1044 Q140.6298,2176.382 144.7604,2176.382 Q145.9183,2176.382 146.9822,2176.6323 Q148.0462,2176.8826 148.985,2177.352 L148.985,2181.8582 Q147.9523,2180.8881 146.9509,2180.45 Q145.9808,2180.0119 144.9482,2180.0119 Q142.7264,2180.0119 141.5999,2181.7643 Q140.4733,2183.5167 140.4733,2186.9902 Q140.4733,2190.4324 141.5999,2192.2161 Q142.7264,2193.9685 144.9482,2193.9685 Q145.9808,2193.9685 146.9509,2193.5304 Q147.9523,2193.061 148.985,2192.1222 L148.985,2196.5971 Z " fill="#000000"/><text fill="#000000" font-family="'Segoe UI'" font-size="28.0383" lengthAdjust="spacing" textLength="153.6906" x="190.2601" y="2196.8846">osal_signal</text><rect fill="#FFFFFF" height="109.337" style="stroke:#181818;stroke-width:2.0027;stroke-dasharray:4.0055,4.0055;" width="346.5265" x="380" y="2124.4985"/><text fill="#000000" font-family="Segoe UI" font-size="28.0383" font-style="italic" lengthAdjust="spacing" textLength="89.0299" x="508.7483" y="2172.5545">T,N,M,</text><text fill="#000000" font-family="Segoe UI" font-size="28.0383" font-style="italic" lengthAdjust="spacing" textLength="302.4663" x="402.0302" y="2205.1928">bus_backend_generic</text><line style="stroke:#181818;stroke-width:1.0014;" x1="118.1616" x2="718.5156" y1="2243.8492" y2="2243.8492"/><rect fill="none" height="12.0164" style="stroke:#C82930;stroke-width:2.0027;" width="12.0164" x="132.1807" y="2285.2026"/><text fill="#000000" font-family="'Segoe UI'" font-size="28.0383" lengthAdjust="spacing" textLength="359.9531" x="174.2382" y="2297.9134">slots_ : subscriber_slot[N]</text><rect fill="none" height="12.0164" style="stroke:#C82930;stroke-width:2.0027;" width="12.0164" x="132.1807" y="2357.8958"/><text fill="#000000" font-family="'Segoe UI'" font-size="28.0383" lengthAdjust="spacing" textLength="296.7573" x="174.2382" y="2370.6065">mutex_ : osal::mutex</text><rect fill="none" height="12.0164" style="stroke:#C82930;stroke-width:2.0027;" width="12.0164" x="132.1807" y="2430.5889"/><text fill="#000000" font-family="'Segoe UI'" font-size="28.0383" lengthAdjust="spacing" textLength="359.8846" x="174.2382" y="2443.2996">subscriber_count_ : size_t</text><line style="stroke:#181818;stroke-width:1.0014;" x1="118.1616" x2="718.5156" y1="2477.9505" y2="2477.9505"/></g><!--class SignalZephyr--><g class="entity" data-entity="SignalZephyr" data-source-line="43" data-uid="ent0010" id="entity_SignalZephyr"><rect fill="#F1F1F1" height="145.3863" rx="5.0068" ry="5.0068" style="stroke:#181818;stroke-width:1.0014;" width="595.2142" x="437.5983" y="1807.0645"/><ellipse cx="465.6367" cy="1863.7357" fill="#ADD1B2" rx="20.0274" ry="20.0274" style="stroke:#181818;stroke-width:2.0027;"/><path d="M470.4244,1873.1549 Q469.4544,1873.6555 468.3904,1873.9059 Q467.3578,1874.1562 466.1999,1874.1562 Q462.0693,1874.1562 459.8788,1871.4338 Q457.7196,1868.7113 457.7196,1863.548 Q457.7196,1858.3847 459.8788,1855.6622 Q462.0693,1852.9397 466.1999,1852.9397 Q467.3578,1852.9397 468.4217,1853.1901 Q469.4857,1853.4404 470.4244,1853.9098 L470.4244,1858.416 Q469.3918,1857.4459 468.3904,1857.0078 Q467.4203,1856.5697 466.3877,1856.5697 Q464.1659,1856.5697 463.0394,1858.3221 Q461.9128,1860.0745 461.9128,1863.548 Q461.9128,1866.9902 463.0394,1868.7739 Q464.1659,1870.5263 466.3877,1870.5263 Q467.4203,1870.5263 468.3904,1870.0882 Q469.3918,1869.6188 470.4244,1868.68 L470.4244,1873.1549 Z " fill="#000000"/><text fill="#000000" font-family="'Segoe UI'" font-size="28.0383" lengthAdjust="spacing" textLength="153.6906" x="511.6996" y="1873.4424">osal_signal</text><rect fill="#FFFFFF" height="109.337" style="stroke:#181818;stroke-width:2.0027;stroke-dasharray:4.0055,4.0055;" width="337.3812" x="701.4395" y="1801.0563"/><text fill="#000000" font-family="Segoe UI" font-size="28.0383" font-style="italic" lengthAdjust="spacing" textLength="89.0299" x="825.6152" y="1849.1122">T,N,M,</text><text fill="#000000" font-family="Segoe UI" font-size="28.0383" font-style="italic" lengthAdjust="spacing" textLength="293.321" x="723.4696" y="1881.7506">bus_backend_zephyr</text><line style="stroke:#181818;stroke-width:1.0014;" x1="439.6011" x2="1030.8098" y1="1920.407" y2="1920.407"/><line style="stroke:#181818;stroke-width:1.0014;" x1="439.6011" x2="1030.8098" y1="1936.4289" y2="1936.4289"/></g><!--class subscriber_slot--><g class="entity" data-entity="subscriber_slot" data-source-line="46" data-uid="ent0011" id="entity_subscriber_slot"><rect fill="#F1F1F1" height="270.1506" rx="5.0068" ry="5.0068" style="stroke:#181818;stroke-width:1.0014;" width="748.7777" x="44.0602" y="2670.2447"/><ellipse cx="285.0822" cy="2716.605" fill="#ADD1B2" rx="20.0274" ry="20.0274" style="stroke:#181818;stroke-width:2.0027;"/><path d="M289.87,2726.0241 Q288.8999,2726.5248 287.8359,2726.7751 Q286.8033,2727.0255 285.6454,2727.0255 Q281.5148,2727.0255 279.3243,2724.303 Q277.1651,2721.5805 277.1651,2716.4172 Q277.1651,2711.2539 279.3243,2708.5314 Q281.5148,2705.809 285.6454,2705.809 Q286.8033,2705.809 287.8672,2706.0593 Q288.9312,2706.3096 289.87,2706.779 L289.87,2711.2852 Q288.8373,2710.3151 287.8359,2709.877 Q286.8659,2709.4389 285.8332,2709.4389 Q283.6114,2709.4389 282.4849,2711.1913 Q281.3583,2712.9437 281.3583,2716.4172 Q281.3583,2719.8594 282.4849,2721.6431 Q283.6114,2723.3955 285.8332,2723.3955 Q286.8659,2723.3955 287.8359,2722.9574 Q288.8373,2722.488 289.87,2721.5492 L289.87,2726.0241 Z " fill="#000000"/><text fill="#000000" font-family="'Segoe UI'" font-size="28.0383" lengthAdjust="spacing" textLength="210.6572" x="343.1616" y="2726.3116">subscriber_slot</text><line style="stroke:#181818;stroke-width:1.0014;" x1="46.063" x2="790.8352" y1="2762.9652" y2="2762.9652"/><ellipse cx="66.0904" cy="2810.3269" fill="none" rx="6.0082" ry="6.0082" style="stroke:#038048;stroke-width:2.0027;"/><text fill="#000000" font-family="'Segoe UI'" font-size="28.0383" lengthAdjust="spacing" textLength="190.3951" x="102.1397" y="2817.0294">in_use_ : bool</text><ellipse cx="66.0904" cy="2883.02" fill="none" rx="6.0082" ry="6.0082" style="stroke:#038048;stroke-width:2.0027;"/><text fill="#000000" font-family="'Segoe UI'" font-size="28.0383" lengthAdjust="spacing" textLength="658.6545" x="102.1397" y="2889.7225">queue_ : osal_bus&lt;T,M,bus_backend_generic&gt;</text><line style="stroke:#181818;stroke-width:1.0014;" x1="46.063" x2="790.8352" y1="2924.3734" y2="2924.3734"/></g><!--class SignalPremium--><g class="entity" data-entity="SignalPremium" data-source-line="51" data-uid="ent0012" id="entity_SignalPremium"><rect fill="#F1F1F1" height="706.3095" rx="5.0068" ry="5.0068" style="stroke:#181818;stroke-width:1.0014;" width="727.2835" x="617.8448" y="236.9177"/><ellipse cx="656.0466" cy="283.2779" fill="#ADD1B2" rx="20.0274" ry="20.0274" style="stroke:#181818;stroke-width:2.0027;"/><path d="M660.8344,292.6971 Q659.8643,293.1978 658.8004,293.4481 Q657.7677,293.6984 656.6099,293.6984 Q652.4792,293.6984 650.2887,290.976 Q648.1295,288.2535 648.1295,283.0902 Q648.1295,277.9269 650.2887,275.2044 Q652.4792,272.4819 656.6099,272.4819 Q657.7677,272.4819 658.8317,272.7323 Q659.8956,272.9826 660.8344,273.452 L660.8344,277.9582 Q659.8017,276.9881 658.8004,276.55 Q657.8303,276.1119 656.7976,276.1119 Q654.5758,276.1119 653.4493,277.8643 Q652.3228,279.6167 652.3228,283.0902 Q652.3228,286.5324 653.4493,288.3161 Q654.5758,290.0685 656.7976,290.0685 Q657.8303,290.0685 658.8004,289.6304 Q659.8017,289.161 660.8344,288.2222 L660.8344,292.6971 Z " fill="#000000"/><text fill="#000000" font-family="'Segoe UI'" font-size="28.0383" lengthAdjust="spacing" textLength="294.471" x="704.3681" y="292.9846">osal_signal_premium</text><rect fill="#FFFFFF" height="76.6986" style="stroke:#181818;stroke-width:2.0027;stroke-dasharray:4.0055,4.0055;" width="306.0845" x="1045.0519" y="230.9095"/><text fill="#000000" font-family="Segoe UI" font-size="28.0383" font-style="italic" lengthAdjust="spacing" textLength="262.0243" x="1067.082" y="278.9654">T,N,M,BackendTag</text><line style="stroke:#181818;stroke-width:1.0014;" x1="619.8475" x2="1343.1255" y1="329.6382" y2="329.6382"/><rect fill="none" height="12.0164" style="stroke:#C82930;stroke-width:2.0027;" width="12.0164" x="633.8667" y="370.9916"/><text fill="#000000" font-family="'Segoe UI'" font-size="28.0383" lengthAdjust="spacing" textLength="588.7092" x="675.9242" y="383.7024">observers_ : observer_fn[MaxSubscribers]</text><rect fill="none" height="12.0164" style="stroke:#C82930;stroke-width:2.0027;" width="12.0164" x="633.8667" y="443.6848"/><text fill="#000000" font-family="'Segoe UI'" font-size="28.0383" lengthAdjust="spacing" textLength="337.5005" x="675.9242" y="456.3955">observer_count_ : size_t</text><line style="stroke:#181818;stroke-width:1.0014;" x1="619.8475" x2="1343.1255" y1="491.0464" y2="491.0464"/><ellipse cx="639.8749" cy="538.408" fill="#84BE84" rx="6.0082" ry="6.0082" style="stroke:#038048;stroke-width:2.0027;"/><text fill="#000000" font-family="'Segoe UI'" font-size="28.0383" lengthAdjust="spacing" textLength="601.6195" x="675.9242" y="545.1105">subscribe_observer(fn : observer_fn) : bool</text><ellipse cx="639.8749" cy="611.1012" fill="#84BE84" rx="6.0082" ry="6.0082" style="stroke:#038048;stroke-width:2.0027;"/><text fill="#000000" font-family="'Segoe UI'" font-size="28.0383" lengthAdjust="spacing" textLength="637.1602" x="675.9242" y="617.8037">unsubscribe_observer(fn : observer_fn) : bool</text><ellipse cx="639.8749" cy="683.7943" fill="#84BE84" rx="6.0082" ry="6.0082" style="stroke:#038048;stroke-width:2.0027;"/><text fill="#000000" font-family="'Segoe UI'" font-size="28.0383" lengthAdjust="spacing" textLength="314.4866" x="675.9242" y="690.4968">publish(msg : T) : bool</text><ellipse cx="639.8749" cy="756.4874" fill="#84BE84" rx="6.0082" ry="6.0082" style="stroke:#038048;stroke-width:2.0027;"/><text fill="#000000" font-family="'Segoe UI'" font-size="28.0383" lengthAdjust="spacing" textLength="464.7546" x="675.9242" y="763.19">publish_zero_copy(ptr : T*) : bool</text><ellipse cx="639.8749" cy="829.1806" fill="#84BE84" rx="6.0082" ry="6.0082" style="stroke:#038048;stroke-width:2.0027;"/><text fill="#000000" font-family="'Segoe UI'" font-size="28.0383" lengthAdjust="spacing" textLength="558.3161" x="675.9242" y="835.8831">route_to(dest : signal_id, msg : T) : bool</text><ellipse cx="639.8749" cy="901.8737" fill="#84BE84" rx="6.0082" ry="6.0082" style="stroke:#038048;stroke-width:2.0027;"/><text fill="#000000" font-family="'Segoe UI'" font-size="28.0383" lengthAdjust="spacing" textLength="345.3589" x="675.9242" y="908.5763">observer_count() : size_t</text></g><!--class Caps--><g class="entity" data-entity="Caps" data-source-line="62" data-uid="ent0013" id="entity_Caps"><rect fill="#F1F1F1" height="415.5369" rx="5.0068" ry="5.0068" style="stroke:#181818;stroke-width:1.0014;" width="648.2926" x="1041.4239" y="1205.2416"/><ellipse cx="1069.4622" cy="1251.6019" fill="#ADD1B2" rx="20.0274" ry="20.0274" style="stroke:#181818;stroke-width:2.0027;"/><path d="M1074.25,1261.021 Q1073.28,1261.5217 1072.216,1261.7721 Q1071.1833,1262.0224 1070.0255,1262.0224 Q1065.8949,1262.0224 1063.7044,1259.2999 Q1061.5452,1256.5775 1061.5452,1251.4141 Q1061.5452,1246.2508 1063.7044,1243.5284 Q1065.8949,1240.8059 1070.0255,1240.8059 Q1071.1833,1240.8059 1072.2473,1241.0562 Q1073.3113,1241.3066 1074.25,1241.776 L1074.25,1246.2821 Q1073.2174,1245.3121 1072.216,1244.874 Q1071.2459,1244.4359 1070.2133,1244.4359 Q1067.9915,1244.4359 1066.8649,1246.1883 Q1065.7384,1247.9407 1065.7384,1251.4141 Q1065.7384,1254.8564 1066.8649,1256.64 Q1067.9915,1258.3924 1070.2133,1258.3924 Q1071.2459,1258.3924 1072.216,1257.9543 Q1073.2174,1257.4849 1074.25,1256.5462 L1074.25,1261.021 Z " fill="#000000"/><text fill="#000000" font-family="'Segoe UI'" font-size="28.0383" lengthAdjust="spacing" textLength="327.0957" x="1115.5252" y="1261.3085">osal_signal_capabilities</text><rect fill="#FFFFFF" height="76.6986" style="stroke:#181818;stroke-width:2.0027;stroke-dasharray:4.0055,4.0055;" width="217.0546" x="1478.6702" y="1199.2334"/><text fill="#000000" font-family="Segoe UI" font-size="28.0383" font-style="italic" lengthAdjust="spacing" textLength="172.9943" x="1500.7003" y="1247.2894">BackendTag</text><line style="stroke:#181818;stroke-width:1.0014;" x1="1043.4266" x2="1687.7138" y1="1297.9622" y2="1297.9622"/><ellipse cx="1063.454" cy="1345.3238" fill="none" rx="6.0082" ry="6.0082" style="stroke:#038048;stroke-width:2.0027;"/><text fill="#000000" font-family="'Segoe UI'" font-size="28.0383" lengthAdjust="spacing" textLength="292.3079" x="1099.5033" y="1352.0263">native_pubsub : bool</text><ellipse cx="1063.454" cy="1418.0169" fill="none" rx="6.0082" ry="6.0082" style="stroke:#038048;stroke-width:2.0027;"/><text fill="#000000" font-family="'Segoe UI'" font-size="28.0383" lengthAdjust="spacing" textLength="327.082" x="1099.5033" y="1424.7195">native_observers : bool</text><ellipse cx="1063.454" cy="1490.7101" fill="none" rx="6.0082" ry="6.0082" style="stroke:#038048;stroke-width:2.0027;"/><text fill="#000000" font-family="'Segoe UI'" font-size="28.0383" lengthAdjust="spacing" textLength="289.5697" x="1099.5033" y="1497.4126">native_routing : bool</text><ellipse cx="1063.454" cy="1563.4032" fill="none" rx="6.0082" ry="6.0082" style="stroke:#038048;stroke-width:2.0027;"/><text fill="#000000" font-family="'Segoe UI'" font-size="28.0383" lengthAdjust="spacing" textLength="228.7972" x="1099.5033" y="1570.1057">zero_copy : bool</text><line style="stroke:#181818;stroke-width:1.0014;" x1="1043.4266" x2="1687.7138" y1="1604.7566" y2="1604.7566"/></g><g class="entity" data-entity="GMN22" data-source-line="79" data-uid="ent0023" id="entity_GMN22"><path d="M1749.3919,2710.2995 L1749.3919,2797.4186 L1681.7194,2805.4295 L1749.3919,2813.4405 L1749.3919,2900.9351 A0,0 0 0 0 1749.3919,2900.9351 L2288.7563,2900.9351 A0,0 0 0 0 2288.7563,2900.9351 L2288.7563,2730.3269 L2268.7289,2710.2995 L1749.3919,2710.2995 A0,0 0 0 0 1749.3919,2710.2995" fill="#FEFFDD" style="stroke:#181818;stroke-width:1.0014;"/><path d="M2268.7289,2710.2995 L2268.7289,2730.3269 L2288.7563,2730.3269 L2268.7289,2710.2995" fill="#FEFFDD" style="stroke:#181818;stroke-width:1.0014;"/><text fill="#000000" font-family="'Segoe UI'" font-size="28.0383" lengthAdjust="spacing" textLength="430.1174" x="1781.4357" y="2766.3664">Current Zephyr specialisations</text><text fill="#000000" font-family="'Segoe UI'" font-size="28.0383" lengthAdjust="spacing" textLength="457.2521" x="1781.4357" y="2799.0047">delegate to the generic runtime.</text><text fill="#000000" font-family="'Segoe UI'" font-size="28.0383" lengthAdjust="spacing" textLength="420" x="1781.4357" y="2831.6431">A future native Zbus path can</text><text fill="#000000" font-family="'Segoe UI'" font-size="28.0383" lengthAdjust="spacing" textLength="298.1264" x="1781.4357" y="2864.2815">replace this wrapper.</text></g><!--reverse link Bus to BusGeneric--><g class="link" data-entity-1="Bus" data-entity-2="BusGeneric" data-source-line="25" data-uid="lnk6" id="link_Bus_BusGeneric"><path codeLine="25" d="M2007.5754,2416.6283 C2139.5759,2471.1829 2246.4916,2542.1295 2323.1764,2670.2447 C2384.8808,2773.3457 2394.2336,2843.7019 2323.1764,2940.6144 C2234.0546,3062.1606 1856.5985,3159.6138 1579.3394,3216.6117" fill="none" id="Bus-backto-BusGeneric" style="stroke:#181818;stroke-width:2.0027;stroke-dasharray:14.0192,14.0192;"/><polygon fill="none" points="1974.2594,2402.8591,2002.9857,2427.7337,2012.1652,2405.523,1974.2594,2402.8591" style="stroke:#181818;stroke-width:2.0027;"/></g><!--reverse link Bus to BusZephyr--><g class="link" data-entity-1="Bus" data-entity-2="BusZephyr" data-source-line="26" data-uid="lnk7" id="link_Bus_BusZephyr"><path codeLine="26" d="M1416.1295,2620.5129 C1387.0698,2657.3232 1381.1484,2664.8173 1356.4146,2696.1401" fill="none" id="Bus-backto-BusZephyr" style="stroke:#181818;stroke-width:2.0027;stroke-dasharray:14.0192,14.0192;"/><polygon fill="none" points="1438.4668,2592.218,1406.6979,2613.0671,1425.5612,2627.9586,1438.4668,2592.218" style="stroke:#181818;stroke-width:2.0027;"/></g><!--reverse link Signal to SignalGeneric--><g class="link" data-entity-1="Signal" data-entity-2="SignalGeneric" data-source-line="69" data-uid="lnk14" id="link_Signal_SignalGeneric"><path codeLine="69" d="M415.5869,1763.1481 C406.3142,1788.9834 410.5413,1781.1891 404.5531,1807.0645 C380.1598,1912.3084 382.6232,2033.2738 391.6755,2130.1663" fill="none" id="Signal-backto-SignalGeneric" style="stroke:#181818;stroke-width:2.0027;stroke-dasharray:14.0192,14.0192;"/><polygon fill="none" points="427.7649,1729.2181,404.2769,1759.0888,426.8969,1767.2074,427.7649,1729.2181" style="stroke:#181818;stroke-width:2.0027;"/></g><!--reverse link Signal to SignalZephyr--><g class="link" data-entity-1="Signal" data-entity-2="SignalZephyr" data-source-line="70" data-uid="lnk15" id="link_Signal_SignalZephyr"><path codeLine="70" d="M701.0137,1764.1022 C709.4653,1792.421 707.0267,1784.2934 713.7158,1806.7441" fill="none" id="Signal-backto-SignalZephyr" style="stroke:#181818;stroke-width:2.0027;stroke-dasharray:14.0192,14.0192;"/><polygon fill="none" points="690.7044,1729.5585,689.4992,1767.5387,712.5283,1760.6658,690.7044,1729.5585" style="stroke:#181818;stroke-width:2.0027;"/></g><!--link SignalPremium to Signal--><g class="link" data-entity-1="SignalPremium" data-entity-2="Signal" data-source-line="71" data-uid="lnk16" id="link_SignalPremium_Signal"><path codeLine="71" d="M816.0357,944.1046 C792.3233,994.5536 783.3884,1013.5808 760.0365,1063.2487" fill="none" id="SignalPremium-to-Signal" style="stroke:#181818;stroke-width:2.0027;"/><polygon fill="none" points="744.6982,1095.8721,770.911,1068.3614,749.162,1058.1359,744.6982,1095.8721" style="stroke:#181818;stroke-width:2.0027;"/></g><!--link SignalZephyr to SignalGeneric--><g class="link" data-entity-1="SignalZephyr" data-entity-2="SignalGeneric" data-source-line="72" data-uid="lnk17" id="link_SignalZephyr_SignalGeneric"><path codeLine="72" d="M682.0325,1953.7451 C646.3237,2001.991 618.962,2038.9843 573.0592,2101.0091" fill="none" id="SignalZephyr-to-SignalGeneric" style="stroke:#181818;stroke-width:2.0027;"/><polygon fill="none" points="551.6142,2129.986,582.7182,2108.1574,563.4002,2093.8607,551.6142,2129.986" style="stroke:#181818;stroke-width:2.0027;"/></g><!--reverse link SignalGeneric to subscriber_slot--><g class="link" data-entity-1="SignalGeneric" data-entity-2="subscriber_slot" data-source-line="73" data-uid="lnk18" id="link_SignalGeneric_subscriber_slot"><path codeLine="73" d="M418.5723,2517.3356 C418.5723,2575.7555 418.5723,2615.4898 418.5723,2669.9243" fill="none" id="SignalGeneric-backto-subscriber_slot" style="stroke:#181818;stroke-width:2.0027;"/><polygon fill="#181818" points="418.5723,2493.3028,410.5613,2505.3192,418.5723,2517.3356,426.5833,2505.3192,418.5723,2493.3028" style="stroke:#181818;stroke-width:2.0027;"/></g><!--reverse link subscriber_slot to BusGeneric--><g class="link" data-entity-1="subscriber_slot" data-entity-2="BusGeneric" data-source-line="74" data-uid="lnk19" id="link_subscriber_slot_BusGeneric"><path codeLine="74" d="M684.7348,2952.3862 C778.2828,3003.3158 865.0227,3050.5647 963.6976,3104.3182" fill="none" id="subscriber_slot-backto-BusGeneric" style="stroke:#181818;stroke-width:2.0027;"/><polygon fill="#181818" points="663.6274,2940.8948,670.3506,2953.6763,684.7348,2952.3862,678.0116,2939.6046,663.6274,2940.8948" style="stroke:#181818;stroke-width:2.0027;"/></g><!--reverse link BusZephyr to BusGeneric--><g class="link" data-entity-1="BusZephyr" data-entity-2="BusGeneric" data-source-line="75" data-uid="lnk20" id="link_BusZephyr_BusGeneric"><path codeLine="75" d="M1271.7388,2938.6517 C1271.7388,2991.4439 1271.7388,3032.5 1271.7388,3092.6022" fill="none" id="BusZephyr-backto-BusGeneric" style="stroke:#181818;stroke-width:2.0027;"/><polygon fill="#181818" points="1271.7388,2914.6188,1263.7279,2926.6353,1271.7388,2938.6517,1279.7498,2926.6353,1271.7388,2914.6188" style="stroke:#181818;stroke-width:2.0027;"/><text fill="#000000" font-family="'Segoe UI'" font-size="28.0383" lengthAdjust="spacing" textLength="74.7096" x="1293.7689" y="3026.7223">impl_</text></g><!--link SignalPremium to Caps--><g class="link" data-entity-1="SignalPremium" data-entity-2="Caps" data-source-line="76" data-uid="lnk21" id="link_SignalPremium_Caps"><path codeLine="76" d="M1146.6478,944.1046 C1188.485,1033.1063 1226.9333,1114.9178 1264.1041,1194.006" fill="none" id="SignalPremium-to-Caps" style="stroke:#181818;stroke-width:2.0027;stroke-dasharray:14.0192,14.0192;"/><polygon fill="#181818" points="1269.2154,1204.8812,1268.7986,1185.1609,1264.956,1195.8185,1254.2984,1191.9759,1269.2154,1204.8812" style="stroke:#181818;stroke-width:2.0027;"/><text fill="#000000" font-family="'Segoe UI'" font-size="28.0383" lengthAdjust="spacing" textLength="228.9615" x="1217.6649" y="1029.9923">constexpr query</text></g><!--SRC=[fLR9JXj14BtxAof4YWRmekGKMSWIYvGB42HyWg1Mpqnvt33JFUa5C04f7v4lp9UaPh4z6tOGVR6x-zNILQ-gveEGGUn2XD5S9JYwzNaSFWWvkj3g5WDhHea8zFVBmzDHg08p2WMFD4_CY6cK8MgMQZKJCTAla7QOkYJkzQomCS9I48wSWNsu597aCPpo1Mhu-_iF7CVS63Wf5FPwaYTeKXuWA4EuNxqUq0foq4vsn7nd3gRzOquWOHVz8nxSaGzJ7arsW9lSpC41UDF-nyEJayz7NtR1OfB6t29C9gGGohL_psCHUhim1b-fU7rkzO8PKka94gJRQHjIk-w35S6TeR_PBxFT6ZK6AExHKyvcGf_Qg2PYezwNhO7v8Uc0-KLuM8GIjGXMCVfMx2ln6Cov32c5PEMdGuUitDirmbYbUPH37ENvAxFNItDxHZoXcddJtPirFeymUu_RJvZE5thbzLM-hJejABMPXIvLNU-lUf5JvNauhCIZTLvOR7jjSXwJjVF-MOk39Sd_ZuR6-IRGmiyJpqH8ZraTQTftCCN9jL1Re8rFdHyBC_SI4tNpkKhGji8-R2Vj9gcIo1rbjCO7oacR5sD6f99qBrlYle7YHGewM6vYPGshEvkTNPzNY9iuYuzBMet7-RQYek4sUu_NLOONJjT8NbFMSBdA8Y6PCyXQ8IvAkLuWPrihe-qxTNPCX4isClwYm7IocodVeBv7xSravawvOpEvaTzl4TjAyn90CTUAKfSklDJg3BhNGMnYBsLKUI4QcoSu3qF6wrVrhxphP7FEdIKafs3bDTTd_F5obLvpqvPu6zTOG5tG5x6m0ir1CrtK8aqrIv9RAc96yQ70jvvLtgvSVmsGXKp8g7Mz2dV79CZMibrcBRTMjniGPL-k0vRy6moU9-LH0r7MLWNGRMhPEFO6WsRLhP3DQiomZKbIJfFIQXr0mSY7rojl60udHPh642Xfg06bEXlCUh4Ed5GqJRI8vXRKh3AjeBAEdQPlD0kb3oR5GD1ODfGoKbk3XXXZb0qegy3E4ShE09fu9n8Sri27C7FMQOGY-N15FGLIRkSGS5b3QgInHnzqTYuCF6YUfgZNkeYM-JjwBxr_]--></g></svg>