<svg xmlns="http://www.w3.org/2000/svg" xmlns:xlink="http://www.w3.org/1999/xlink" contentStyleType="text/css" data-diagram-type="CLASS" height="3769.7917px" preserveAspectRatio="none" style="width:2174px;height:3769px;background:#FFFFFF;" version="1.1" viewBox="0 0 2174 3769" width="2174.7917px" zoomAndPan="magnify"><title>micrOSAL Bus + Signal Layer &#8212; Class Diagram</title><defs/><g><g class="title" data-source-line="3"><text fill="#000000" font-family="'Segoe UI'" font-size="32.0833" font-weight="bold" lengthAdjust="spacing" textLength="839.1484" x="651.78" y="75.6138">micrOSAL Bus + Signal Layer &#8212; Class Diagram</text></g><!--cluster osal--><g class="cluster" data-entity="osal" data-source-line="5" data-uid="ent0002" id="cluster_osal"><path d="M19.4792,145.0553 L141.3896,145.0553 A8.5938,8.5938 0 0 1 147.1187,150.7845 L163.1604,241.9857 L2153.0208,241.9857 A5.7292,5.7292 0 0 1 2158.75,247.7148 L2158.75,3748.7012 A5.7292,5.7292 0 0 1 2153.0208,3754.4303 L19.4792,3754.4303 A5.7292,5.7292 0 0 1 13.75,3748.7012 L13.75,150.7845 A5.7292,5.7292 0 0 1 19.4792,145.0553" fill="none" style="stroke:#000000;stroke-width:3.4375;"/><line style="stroke:#000000;stroke-width:3.4375;" x1="13.75" x2="163.1604" y1="241.9857" y2="241.9857"/><text fill="#000000" font-family="'Segoe UI'" font-size="32.0833" font-weight="bold" lengthAdjust="spacing" textLength="73.7854" x="45.8333" y="202.3358">osal</text></g><!--class Bus--><g class="entity" data-entity="Bus" data-source-line="7" data-uid="ent0003" id="entity_Bus"><rect fill="#F1F1F1" height="641.8457" rx="5.7292" ry="5.7292" style="stroke:#181818;stroke-width:1.1458;" width="723.0029" x="986.5625" y="2571.9303"/><ellipse cx="1018.6458" cy="2666.569" fill="#ADD1B2" rx="22.9167" ry="22.9167" style="stroke:#181818;stroke-width:2.2917;"/><path d="M1021.4388,2679.7461 L1016.8197,2679.7461 L1016.8197,2660.4102 L1010.8757,2660.4102 L1010.8757,2656.3639 L1027.3828,2656.3639 L1027.3828,2660.4102 L1021.4388,2660.4102 L1021.4388,2679.7461 Z " fill="#000000"/><text fill="#000000" font-family="Segoe UI" font-size="32.0833" font-style="italic" lengthAdjust="spacing" textLength="184.4322" x="1066.7708" y="2636.0858">&#171;template&#187;</text><text fill="#000000" font-family="'Segoe UI'" font-size="32.0833" lengthAdjust="spacing" textLength="138.375" x="1089.7994" y="2719.2662">osal_bus</text><rect fill="#FFFFFF" height="87.7637" style="stroke:#181818;stroke-width:2.2917;stroke-dasharray:4.5833,4.5833;" width="428.5708" x="1287.8697" y="2565.0553"/><text fill="#000000" font-family="Segoe UI" font-size="32.0833" font-style="italic" lengthAdjust="spacing" textLength="378.1541" x="1313.078" y="2620.0441">T,Capacity,BackendTag</text><line style="stroke:#181818;stroke-width:1.1458;" x1="988.8542" x2="1707.2738" y1="2761.2077" y2="2761.2077"/><line style="stroke:#181818;stroke-width:1.1458;" x1="988.8542" x2="1707.2738" y1="2779.541" y2="2779.541"/><ellipse cx="1011.7708" cy="2833.7354" fill="#84BE84" rx="6.875" ry="6.875" style="stroke:#038048;stroke-width:2.2917;"/><text fill="#000000" font-family="'Segoe UI'" font-size="32.0833" lengthAdjust="spacing" textLength="201.6174" x="1053.0208" y="2841.4048">valid() : bool</text><ellipse cx="1011.7708" cy="2916.9157" fill="#84BE84" rx="6.875" ry="6.875" style="stroke:#038048;stroke-width:2.2917;"/><text fill="#000000" font-family="'Segoe UI'" font-size="32.0833" lengthAdjust="spacing" textLength="386.0183" x="1053.0208" y="2924.5852">try_send(item : T) : bool</text><ellipse cx="1011.7708" cy="3000.096" fill="#84BE84" rx="6.875" ry="6.875" style="stroke:#038048;stroke-width:2.2917;"/><text fill="#000000" font-family="'Segoe UI'" font-size="32.0833" lengthAdjust="spacing" textLength="537.5838" x="1053.0208" y="3007.7655">send(item : T, ticks : tick_t) : bool</text><ellipse cx="1011.7708" cy="3083.2764" fill="#84BE84" rx="6.875" ry="6.875" style="stroke:#038048;stroke-width:2.2917;"/><text fill="#000000" font-family="'Segoe UI'" font-size="32.0833" lengthAdjust="spacing" textLength="431.8874" x="1053.0208" y="3090.9458">try_receive(out : T&amp;) : bool</text><ellipse cx="1011.7708" cy="3166.4567" fill="#84BE84" rx="6.875" ry="6.875" style="stroke:#038048;stroke-width:2.2917;"/><text fill="#000000" font-family="'Segoe UI'" font-size="32.0833" lengthAdjust="spacing" textLength="583.453" x="1053.0208" y="3174.1262">receive(out : T&amp;, ticks : tick_t) : bool</text></g><!--class BusGeneric--><g class="entity" data-entity="BusGeneric" data-source-line="15" data-uid="ent0004" id="entity_BusGeneric"><rect fill="#F1F1F1" height="415.9017" rx="5.7292" ry="5.7292" style="stroke:#181818;stroke-width:1.1458;" width="702.4943" x="49.2708" y="3302.972"/><ellipse cx="103.1494" cy="3367.819" fill="#ADD1B2" rx="22.9167" ry="22.9167" style="stroke:#181818;stroke-width:2.2917;"/><path d="M108.6279,3378.597 Q107.5179,3379.1699 106.3004,3379.4564 Q105.1188,3379.7428 103.7939,3379.7428 Q99.0674,3379.7428 96.5609,3376.6276 Q94.0901,3373.5124 94.0901,3367.6042 Q94.0901,3361.696 96.5609,3358.5807 Q99.0674,3355.4655 103.7939,3355.4655 Q105.1188,3355.4655 106.3362,3355.752 Q107.5537,3356.0384 108.6279,3356.5755 L108.6279,3361.7318 Q107.4463,3360.6217 106.3004,3360.1204 Q105.1904,3359.6191 104.0088,3359.6191 Q101.4665,3359.6191 100.1774,3361.6243 Q98.8883,3363.6296 98.8883,3367.6042 Q98.8883,3371.543 100.1774,3373.584 Q101.4665,3375.5892 104.0088,3375.5892 Q105.1904,3375.5892 106.3004,3375.0879 Q107.4463,3374.5508 108.6279,3373.4766 L108.6279,3378.597 Z " fill="#000000"/><text fill="#000000" font-family="'Segoe UI'" font-size="32.0833" lengthAdjust="spacing" textLength="138.375" x="160.7011" y="3378.926">osal_bus</text><rect fill="#FFFFFF" height="125.1107" style="stroke:#181818;stroke-width:2.2917;stroke-dasharray:4.5833,4.5833;" width="396.5188" x="362.1214" y="3296.097"/><text fill="#000000" font-family="Segoe UI" font-size="32.0833" font-style="italic" lengthAdjust="spacing" textLength="180.2024" x="470.2795" y="3351.0858">T,Capacity,</text><text fill="#000000" font-family="Segoe UI" font-size="32.0833" font-style="italic" lengthAdjust="spacing" textLength="346.1021" x="387.3297" y="3388.4328">bus_backend_generic</text><line style="stroke:#181818;stroke-width:1.1458;" x1="51.5625" x2="749.4735" y1="3432.666" y2="3432.666"/><rect fill="none" height="13.75" style="stroke:#C82930;stroke-width:2.2917;" width="13.75" x="67.6042" y="3479.9854"/><text fill="#000000" font-family="'Segoe UI'" font-size="32.0833" lengthAdjust="spacing" textLength="411.1147" x="115.7292" y="3494.5298">handle_ : queue_handle_t</text><rect fill="none" height="13.75" style="stroke:#C82930;stroke-width:2.2917;" width="13.75" x="67.6042" y="3563.1657"/><text fill="#000000" font-family="'Segoe UI'" font-size="32.0833" lengthAdjust="spacing" textLength="192.6253" x="115.7292" y="3577.7102">valid_ : bool</text><line style="stroke:#181818;stroke-width:1.1458;" x1="51.5625" x2="749.4735" y1="3617.36" y2="3617.36"/><rect fill="#F24D5C" height="13.75" style="stroke:#C82930;stroke-width:2.2917;" width="13.75" x="67.6042" y="3664.6794"/><text fill="#000000" font-family="'Segoe UI'" font-size="32.0833" lengthAdjust="spacing" textLength="599.3693" x="115.7292" y="3679.2238">storage_ : uint8_t[Capacity*sizeof(T)]</text></g><!--class BusZephyr--><g class="entity" data-entity="BusZephyr" data-source-line="21" data-uid="ent0005" id="entity_BusZephyr"><rect fill="#F1F1F1" height="272.7979" rx="5.7292" ry="5.7292" style="stroke:#181818;stroke-width:1.1458;" width="643.5958" x="830.7292" y="3374.0137"/><ellipse cx="862.8125" cy="3438.8607" fill="#ADD1B2" rx="22.9167" ry="22.9167" style="stroke:#181818;stroke-width:2.2917;"/><path d="M868.291,3449.6387 Q867.181,3450.2116 865.9635,3450.498 Q864.7819,3450.7845 863.457,3450.7845 Q858.7305,3450.7845 856.224,3447.6693 Q853.7533,3444.554 853.7533,3438.6458 Q853.7533,3432.7376 856.224,3429.6224 Q858.7305,3426.5072 863.457,3426.5072 Q864.7819,3426.5072 865.9993,3426.7936 Q867.2168,3427.0801 868.291,3427.6172 L868.291,3432.7734 Q867.1094,3431.6634 865.9635,3431.1621 Q864.8535,3430.6608 863.6719,3430.6608 Q861.1296,3430.6608 859.8405,3432.666 Q858.5514,3434.6712 858.5514,3438.6458 Q858.5514,3442.5846 859.8405,3444.6257 Q861.1296,3446.6309 863.6719,3446.6309 Q864.8535,3446.6309 865.9635,3446.1296 Q867.1094,3445.5924 868.291,3444.5182 L868.291,3449.6387 Z " fill="#000000"/><text fill="#000000" font-family="'Segoe UI'" font-size="32.0833" lengthAdjust="spacing" textLength="138.375" x="915.5208" y="3449.9677">osal_bus</text><rect fill="#FFFFFF" height="125.1107" style="stroke:#181818;stroke-width:2.2917;stroke-dasharray:4.5833,4.5833;" width="386.0541" x="1095.1459" y="3367.1387"/><text fill="#000000" font-family="Segoe UI" font-size="32.0833" font-style="italic" lengthAdjust="spacing" textLength="180.2024" x="1198.0717" y="3422.1275">T,Capacity,</text><text fill="#000000" font-family="Segoe UI" font-size="32.0833" font-style="italic" lengthAdjust="spacing" textLength="335.6374" x="1120.3542" y="3459.4745">bus_backend_zephyr</text><line style="stroke:#181818;stroke-width:1.1458;" x1="833.0208" x2="1472.0333" y1="3503.7077" y2="3503.7077"/><line style="stroke:#181818;stroke-width:2.2917;stroke-dasharray:2.2917,4.5833;" x1="833.0208" x2="955.0084" y1="3563.6312" y2="3563.6312"/><text fill="#000000" font-family="'Segoe UI'" font-size="32.0833" lengthAdjust="spacing" textLength="349.2039" x="977.9251" y="3573.5923">TODO Zbus reference</text><line style="stroke:#181818;stroke-width:2.2917;stroke-dasharray:2.2917,4.5833;" x1="1350.0457" x2="1472.0333" y1="3563.6312" y2="3563.6312"/></g><!--class Signal--><g class="entity" data-entity="Signal" data-source-line="28" data-uid="ent0008" id="entity_Signal"><rect fill="#F1F1F1" height="725.026" rx="5.7292" ry="5.7292" style="stroke:#181818;stroke-width:1.1458;" width="862.4097" x="50.4167" y="1254.222"/><ellipse cx="184.1938" cy="1348.8607" fill="#ADD1B2" rx="22.9167" ry="22.9167" style="stroke:#181818;stroke-width:2.2917;"/><path d="M186.9868,1362.0378 L182.3677,1362.0378 L182.3677,1342.7018 L176.4236,1342.7018 L176.4236,1338.6556 L192.9308,1338.6556 L192.9308,1342.7018 L186.9868,1342.7018 L186.9868,1362.0378 Z " fill="#000000"/><text fill="#000000" font-family="Segoe UI" font-size="32.0833" font-style="italic" lengthAdjust="spacing" textLength="184.4322" x="246.3676" y="1318.3775">&#171;template&#187;</text><text fill="#000000" font-family="'Segoe UI'" font-size="32.0833" lengthAdjust="spacing" textLength="175.863" x="250.6522" y="1401.5578">osal_signal</text><rect fill="#FFFFFF" height="87.7637" style="stroke:#181818;stroke-width:2.2917;stroke-dasharray:4.5833,4.5833;" width="350.2423" x="569.459" y="1247.347"/><text fill="#000000" font-family="Segoe UI" font-size="32.0833" font-style="italic" lengthAdjust="spacing" textLength="299.8256" x="594.6674" y="1302.3358">T,N,M,BackendTag</text><line style="stroke:#181818;stroke-width:1.1458;" x1="52.7083" x2="910.5347" y1="1443.4993" y2="1443.4993"/><line style="stroke:#181818;stroke-width:1.1458;" x1="52.7083" x2="910.5347" y1="1461.8327" y2="1461.8327"/><ellipse cx="75.625" cy="1516.027" fill="#84BE84" rx="6.875" ry="6.875" style="stroke:#038048;stroke-width:2.2917;"/><text fill="#000000" font-family="'Segoe UI'" font-size="32.0833" lengthAdjust="spacing" textLength="645.3324" x="116.875" y="1523.6965">subscribe(out_id : subscriber_id&amp;) : bool</text><ellipse cx="75.625" cy="1599.2074" fill="#84BE84" rx="6.875" ry="6.875" style="stroke:#038048;stroke-width:2.2917;"/><text fill="#000000" font-family="'Segoe UI'" font-size="32.0833" lengthAdjust="spacing" textLength="592.3981" x="116.875" y="1606.8768">unsubscribe(id : subscriber_id) : bool</text><ellipse cx="75.625" cy="1682.3877" fill="#84BE84" rx="6.875" ry="6.875" style="stroke:#038048;stroke-width:2.2917;"/><text fill="#000000" font-family="'Segoe UI'" font-size="32.0833" lengthAdjust="spacing" textLength="359.8566" x="116.875" y="1690.0572">publish(msg : T) : bool</text><ellipse cx="75.625" cy="1765.568" fill="#84BE84" rx="6.875" ry="6.875" style="stroke:#038048;stroke-width:2.2917;"/><text fill="#000000" font-family="'Segoe UI'" font-size="32.0833" lengthAdjust="spacing" textLength="725.2588" x="116.875" y="1773.2375">try_receive(id : subscriber_id, out : T&amp;) : bool</text><ellipse cx="75.625" cy="1848.7484" fill="#84BE84" rx="6.875" ry="6.875" style="stroke:#038048;stroke-width:2.2917;"/><text fill="#000000" font-family="'Segoe UI'" font-size="32.0833" lengthAdjust="spacing" textLength="759.2847" x="116.875" y="1856.4178">receive(id : subscriber_id, out : T&amp;, ticks) : bool</text><ellipse cx="75.625" cy="1931.9287" fill="#84BE84" rx="6.875" ry="6.875" style="stroke:#038048;stroke-width:2.2917;"/><text fill="#000000" font-family="'Segoe UI'" font-size="32.0833" lengthAdjust="spacing" textLength="420.7961" x="116.875" y="1939.5982">subscriber_count() : size_t</text></g><!--class SignalGeneric--><g class="entity" data-entity="SignalGeneric" data-source-line="37" data-uid="ent0009" id="entity_SignalGeneric"><rect fill="#F1F1F1" height="415.9017" rx="5.7292" ry="5.7292" style="stroke:#181818;stroke-width:1.1458;" width="691.5485" x="132.9167" y="2067.7637"/><ellipse cx="165" cy="2132.6107" fill="#ADD1B2" rx="22.9167" ry="22.9167" style="stroke:#181818;stroke-width:2.2917;"/><path d="M170.4785,2143.3887 Q169.3685,2143.9616 168.151,2144.248 Q166.9694,2144.5345 165.6445,2144.5345 Q160.918,2144.5345 158.4115,2141.4193 Q155.9408,2138.304 155.9408,2132.3958 Q155.9408,2126.4876 158.4115,2123.3724 Q160.918,2120.2572 165.6445,2120.2572 Q166.9694,2120.2572 168.1868,2120.5436 Q169.4043,2120.8301 170.4785,2121.3672 L170.4785,2126.5234 Q169.2969,2125.4134 168.151,2124.9121 Q167.041,2124.4108 165.8594,2124.4108 Q163.3171,2124.4108 162.028,2126.416 Q160.7389,2128.4212 160.7389,2132.3958 Q160.7389,2136.3346 162.028,2138.3757 Q163.3171,2140.3809 165.8594,2140.3809 Q167.041,2140.3809 168.151,2139.8796 Q169.2969,2139.3424 170.4785,2138.2682 L170.4785,2143.3887 Z " fill="#000000"/><text fill="#000000" font-family="'Segoe UI'" font-size="32.0833" lengthAdjust="spacing" textLength="175.863" x="217.7083" y="2143.7177">osal_signal</text><rect fill="#FFFFFF" height="125.1107" style="stroke:#181818;stroke-width:2.2917;stroke-dasharray:4.5833,4.5833;" width="396.5188" x="434.8214" y="2060.8887"/><text fill="#000000" font-family="Segoe UI" font-size="32.0833" font-style="italic" lengthAdjust="spacing" textLength="101.874" x="582.1438" y="2115.8775">T,N,M,</text><text fill="#000000" font-family="Segoe UI" font-size="32.0833" font-style="italic" lengthAdjust="spacing" textLength="346.1021" x="460.0297" y="2153.2245">bus_backend_generic</text><line style="stroke:#181818;stroke-width:1.1458;" x1="135.2083" x2="822.1735" y1="2197.4577" y2="2197.4577"/><rect fill="none" height="13.75" style="stroke:#C82930;stroke-width:2.2917;" width="13.75" x="151.25" y="2244.777"/><text fill="#000000" font-family="'Segoe UI'" font-size="32.0833" lengthAdjust="spacing" textLength="411.8823" x="199.375" y="2259.3215">slots_ : subscriber_slot[N]</text><rect fill="none" height="13.75" style="stroke:#C82930;stroke-width:2.2917;" width="13.75" x="151.25" y="2327.9574"/><text fill="#000000" font-family="'Segoe UI'" font-size="32.0833" lengthAdjust="spacing" textLength="339.5695" x="199.375" y="2342.5018">mutex_ : osal::mutex</text><rect fill="none" height="13.75" style="stroke:#C82930;stroke-width:2.2917;" width="13.75" x="151.25" y="2411.1377"/><text fill="#000000" font-family="'Segoe UI'" font-size="32.0833" lengthAdjust="spacing" textLength="411.804" x="199.375" y="2425.6822">subscriber_count_ : size_t</text><line style="stroke:#181818;stroke-width:1.1458;" x1="135.2083" x2="822.1735" y1="2465.332" y2="2465.332"/></g><!--class subscriber_slot--><g class="entity" data-entity="subscriber_slot" data-source-line="43" data-uid="ent0010" id="entity_subscriber_slot"><rect fill="#F1F1F1" height="309.1243" rx="5.7292" ry="5.7292" style="stroke:#181818;stroke-width:1.1458;" width="856.8014" x="50.4167" y="2738.0762"/><ellipse cx="326.21" cy="2791.1247" fill="#ADD1B2" rx="22.9167" ry="22.9167" style="stroke:#181818;stroke-width:2.2917;"/><path d="M331.6885,2801.9027 Q330.5785,2802.4756 329.3611,2802.762 Q328.1794,2803.0485 326.8546,2803.0485 Q322.128,2803.0485 319.6215,2799.9333 Q317.1508,2796.818 317.1508,2790.9098 Q317.1508,2785.0016 319.6215,2781.8864 Q322.128,2778.7712 326.8546,2778.7712 Q328.1794,2778.7712 329.3969,2779.0576 Q330.6143,2779.3441 331.6885,2779.8812 L331.6885,2785.0374 Q330.5069,2783.9274 329.3611,2783.4261 Q328.251,2782.9248 327.0694,2782.9248 Q324.5271,2782.9248 323.238,2784.93 Q321.949,2786.9352 321.949,2790.9098 Q321.949,2794.8486 323.238,2796.8896 Q324.5271,2798.8949 327.0694,2798.8949 Q328.251,2798.8949 329.3611,2798.3936 Q330.5069,2797.8564 331.6885,2796.7822 L331.6885,2801.9027 Z " fill="#000000"/><text fill="#000000" font-family="'Segoe UI'" font-size="32.0833" lengthAdjust="spacing" textLength="241.048" x="392.6684" y="2802.2316">subscriber_slot</text><line style="stroke:#181818;stroke-width:1.1458;" x1="52.7083" x2="904.9264" y1="2844.1732" y2="2844.1732"/><ellipse cx="75.625" cy="2898.3675" fill="none" rx="6.875" ry="6.875" style="stroke:#038048;stroke-width:2.2917;"/><text fill="#000000" font-family="'Segoe UI'" font-size="32.0833" lengthAdjust="spacing" textLength="217.8628" x="116.875" y="2906.037">in_use_ : bool</text><ellipse cx="75.625" cy="2981.5479" fill="none" rx="6.875" ry="6.875" style="stroke:#038048;stroke-width:2.2917;"/><text fill="#000000" font-family="'Segoe UI'" font-size="32.0833" lengthAdjust="spacing" textLength="753.6764" x="116.875" y="2989.2173">queue_ : osal_bus&lt;T,M,bus_backend_generic&gt;</text><line style="stroke:#181818;stroke-width:1.1458;" x1="52.7083" x2="904.9264" y1="3028.8672" y2="3028.8672"/></g><!--class SignalPremium--><g class="entity" data-entity="SignalPremium" data-source-line="48" data-uid="ent0011" id="entity_SignalPremium"><rect fill="#F1F1F1" height="808.2064" rx="5.7292" ry="5.7292" style="stroke:#181818;stroke-width:1.1458;" width="832.2062" x="505.3125" y="271.097"/><ellipse cx="549.0256" cy="324.1455" fill="#ADD1B2" rx="22.9167" ry="22.9167" style="stroke:#181818;stroke-width:2.2917;"/><path d="M554.5041,334.9235 Q553.3941,335.4964 552.1766,335.7829 Q550.995,336.0693 549.6701,336.0693 Q544.9436,336.0693 542.4371,332.9541 Q539.9663,329.8389 539.9663,323.9307 Q539.9663,318.0225 542.4371,314.9072 Q544.9436,311.792 549.6701,311.792 Q550.995,311.792 552.2124,312.0785 Q553.4299,312.3649 554.5041,312.902 L554.5041,318.0583 Q553.3225,316.9482 552.1766,316.4469 Q551.0666,315.9456 549.885,315.9456 Q547.3427,315.9456 546.0536,317.9508 Q544.7645,319.9561 544.7645,323.9307 Q544.7645,327.8695 546.0536,329.9105 Q547.3427,331.9157 549.885,331.9157 Q551.0666,331.9157 552.1766,331.4144 Q553.3225,330.8773 554.5041,329.8031 L554.5041,334.9235 Z " fill="#000000"/><text fill="#000000" font-family="'Segoe UI'" font-size="32.0833" lengthAdjust="spacing" textLength="336.9533" x="604.3183" y="335.2525">osal_signal_premium</text><rect fill="#FFFFFF" height="87.7637" style="stroke:#181818;stroke-width:2.2917;stroke-dasharray:4.5833,4.5833;" width="350.2423" x="994.1514" y="264.222"/><text fill="#000000" font-family="Segoe UI" font-size="32.0833" font-style="italic" lengthAdjust="spacing" textLength="299.8256" x="1019.3597" y="319.2108">T,N,M,BackendTag</text><line style="stroke:#181818;stroke-width:1.1458;" x1="507.6042" x2="1335.2271" y1="377.194" y2="377.194"/><rect fill="none" height="13.75" style="stroke:#C82930;stroke-width:2.2917;" width="13.75" x="523.6458" y="424.5133"/><text fill="#000000" font-family="'Segoe UI'" font-size="32.0833" lengthAdjust="spacing" textLength="673.6403" x="571.7708" y="439.0578">observers_ : observer_fn[MaxSubscribers]</text><rect fill="none" height="13.75" style="stroke:#C82930;stroke-width:2.2917;" width="13.75" x="523.6458" y="507.6937"/><text fill="#000000" font-family="'Segoe UI'" font-size="32.0833" lengthAdjust="spacing" textLength="386.1906" x="571.7708" y="522.2382">observer_count_ : size_t</text><line style="stroke:#181818;stroke-width:1.1458;" x1="507.6042" x2="1335.2271" y1="561.888" y2="561.888"/><ellipse cx="530.5208" cy="616.0824" fill="#84BE84" rx="6.875" ry="6.875" style="stroke:#038048;stroke-width:2.2917;"/><text fill="#000000" font-family="'Segoe UI'" font-size="32.0833" lengthAdjust="spacing" textLength="688.4131" x="571.7708" y="623.7518">subscribe_observer(fn : observer_fn) : bool</text><ellipse cx="530.5208" cy="699.2627" fill="#84BE84" rx="6.875" ry="6.875" style="stroke:#038048;stroke-width:2.2917;"/><text fill="#000000" font-family="'Segoe UI'" font-size="32.0833" lengthAdjust="spacing" textLength="729.0812" x="571.7708" y="706.9322">unsubscribe_observer(fn : observer_fn) : bool</text><ellipse cx="530.5208" cy="782.443" fill="#84BE84" rx="6.875" ry="6.875" style="stroke:#038048;stroke-width:2.2917;"/><text fill="#000000" font-family="'Segoe UI'" font-size="32.0833" lengthAdjust="spacing" textLength="359.8566" x="571.7708" y="790.1125">publish(msg : T) : bool</text><ellipse cx="530.5208" cy="865.6234" fill="#84BE84" rx="6.875" ry="6.875" style="stroke:#038048;stroke-width:2.2917;"/><text fill="#000000" font-family="'Segoe UI'" font-size="32.0833" lengthAdjust="spacing" textLength="531.8032" x="571.7708" y="873.2928">publish_zero_copy(ptr : T*) : bool</text><ellipse cx="530.5208" cy="948.8037" fill="#84BE84" rx="6.875" ry="6.875" style="stroke:#038048;stroke-width:2.2917;"/><text fill="#000000" font-family="'Segoe UI'" font-size="32.0833" lengthAdjust="spacing" textLength="638.8625" x="571.7708" y="956.4732">route_to(dest : signal_id, msg : T) : bool</text><ellipse cx="530.5208" cy="1031.984" fill="#84BE84" rx="6.875" ry="6.875" style="stroke:#038048;stroke-width:2.2917;"/><text fill="#000000" font-family="'Segoe UI'" font-size="32.0833" lengthAdjust="spacing" textLength="395.1827" x="571.7708" y="1039.6535">observer_count() : size_t</text></g><!--class Caps--><g class="entity" data-entity="Caps" data-source-line="59" data-uid="ent0012" id="entity_Caps"><rect fill="#F1F1F1" height="475.485" rx="5.7292" ry="5.7292" style="stroke:#181818;stroke-width:1.1458;" width="741.8197" x="990" y="1379.1178"/><ellipse cx="1022.0833" cy="1432.1663" fill="#ADD1B2" rx="22.9167" ry="22.9167" style="stroke:#181818;stroke-width:2.2917;"/><path d="M1027.5618,1442.9443 Q1026.4518,1443.5173 1025.2344,1443.8037 Q1024.0527,1444.0902 1022.7279,1444.0902 Q1018.0013,1444.0902 1015.4948,1440.9749 Q1013.0241,1437.8597 1013.0241,1431.9515 Q1013.0241,1426.0433 1015.4948,1422.9281 Q1018.0013,1419.8128 1022.7279,1419.8128 Q1024.0527,1419.8128 1025.2702,1420.0993 Q1026.4876,1420.3857 1027.5618,1420.9229 L1027.5618,1426.0791 Q1026.3802,1424.9691 1025.2344,1424.4678 Q1024.1243,1423.9665 1022.9427,1423.9665 Q1020.4004,1423.9665 1019.1113,1425.9717 Q1017.8223,1427.9769 1017.8223,1431.9515 Q1017.8223,1435.8903 1019.1113,1437.9313 Q1020.4004,1439.9365 1022.9427,1439.9365 Q1024.1243,1439.9365 1025.2344,1439.4352 Q1026.3802,1438.8981 1027.5618,1437.8239 L1027.5618,1442.9443 Z " fill="#000000"/><text fill="#000000" font-family="'Segoe UI'" font-size="32.0833" lengthAdjust="spacing" textLength="374.2847" x="1074.7917" y="1443.2733">osal_signal_capabilities</text><rect fill="#FFFFFF" height="87.7637" style="stroke:#181818;stroke-width:2.2917;stroke-dasharray:4.5833,4.5833;" width="248.3683" x="1490.3263" y="1372.2428"/><text fill="#000000" font-family="Segoe UI" font-size="32.0833" font-style="italic" lengthAdjust="spacing" textLength="197.9517" x="1515.5347" y="1427.2316">BackendTag</text><line style="stroke:#181818;stroke-width:1.1458;" x1="992.2917" x2="1729.528" y1="1485.2148" y2="1485.2148"/><ellipse cx="1015.2083" cy="1539.4092" fill="none" rx="6.875" ry="6.875" style="stroke:#038048;stroke-width:2.2917;"/><text fill="#000000" font-family="'Segoe UI'" font-size="32.0833" lengthAdjust="spacing" textLength="334.4781" x="1056.4583" y="1547.0787">native_pubsub : bool</text><ellipse cx="1015.2083" cy="1622.5895" fill="none" rx="6.875" ry="6.875" style="stroke:#038048;stroke-width:2.2917;"/><text fill="#000000" font-family="'Segoe UI'" font-size="32.0833" lengthAdjust="spacing" textLength="374.269" x="1056.4583" y="1630.259">native_observers : bool</text><ellipse cx="1015.2083" cy="1705.7699" fill="none" rx="6.875" ry="6.875" style="stroke:#038048;stroke-width:2.2917;"/><text fill="#000000" font-family="'Segoe UI'" font-size="32.0833" lengthAdjust="spacing" textLength="331.345" x="1056.4583" y="1713.4393">native_routing : bool</text><ellipse cx="1015.2083" cy="1788.9502" fill="none" rx="6.875" ry="6.875" style="stroke:#038048;stroke-width:2.2917;"/><text fill="#000000" font-family="'Segoe UI'" font-size="32.0833" lengthAdjust="spacing" textLength="261.805" x="1056.4583" y="1796.6197">zero_copy : bool</text><line style="stroke:#181818;stroke-width:1.1458;" x1="992.2917" x2="1729.528" y1="1836.2695" y2="1836.2695"/></g><g class="entity" data-entity="GMN18" data-source-line="73" data-uid="ent0019" id="entity_GMN18"><path d="M1553.75,3438.1803 L1553.75,3501.2012 L1475.2375,3510.3678 L1553.75,3519.5345 L1553.75,3581.6243 A0,0 0 0 0 1553.75,3581.6243 L2123.162,3581.6243 A0,0 0 0 0 2123.162,3581.6243 L2123.162,3461.097 L2100.2454,3438.1803 L1553.75,3438.1803 A0,0 0 0 0 1553.75,3438.1803" fill="#FEFFDD" style="stroke:#181818;stroke-width:1.1458;"/><path d="M2100.2454,3438.1803 L2100.2454,3461.097 L2123.162,3461.097 L2100.2454,3438.1803" fill="#FEFFDD" style="stroke:#181818;stroke-width:1.1458;"/><text fill="#000000" font-family="'Segoe UI'" font-size="32.0833" lengthAdjust="spacing" textLength="475.4537" x="1590.4167" y="3502.3358">Current Zephyr specialisation</text><text fill="#000000" font-family="'Segoe UI'" font-size="32.0833" lengthAdjust="spacing" textLength="317.1206" x="1590.4167" y="3539.6828">is a TODO skeleton.</text></g><!--reverse link Bus to BusGeneric--><g class="link" data-entity-1="Bus" data-entity-2="BusGeneric" data-source-line="25" data-uid="lnk6" id="link_Bus_BusGeneric"><path codeLine="25" d="M951.7859,3210.5736 C938.6776,3219.6944 959.4521,3205.0262 946.4583,3213.597 C908.05,3238.9199 834.4646,3280.1928 753.4771,3323.9178" fill="none" id="Bus-backto-BusGeneric" style="stroke:#181818;stroke-width:2.2917;stroke-dasharray:16.0417,16.0417;"/><polygon fill="none" points="985.6458,3187.0137,943.9326,3199.2869,959.6392,3221.8602,985.6458,3187.0137" style="stroke:#181818;stroke-width:2.2917;"/></g><!--reverse link Bus to BusZephyr--><g class="link" data-entity-1="Bus" data-entity-2="BusZephyr" data-source-line="26" data-uid="lnk7" id="link_Bus_BusZephyr"><path codeLine="26" d="M1233.6221,3253.4363 C1215.77,3309.605 1210.5958,3325.8658 1195.5167,3373.3262" fill="none" id="Bus-backto-BusZephyr" style="stroke:#181818;stroke-width:2.2917;stroke-dasharray:16.0417,16.0417;"/><polygon fill="none" points="1246.1167,3214.1241,1220.518,3249.2714,1246.7262,3257.6011,1246.1167,3214.1241" style="stroke:#181818;stroke-width:2.2917;"/></g><!--reverse link Signal to SignalGeneric--><g class="link" data-entity-1="Signal" data-entity-2="SignalGeneric" data-source-line="66" data-uid="lnk13" id="link_Signal_SignalGeneric"><path codeLine="66" d="M479.8332,2020.4634 C479.7186,2050.6905 479.7833,2039.2783 479.6688,2067.672" fill="none" id="Signal-backto-SignalGeneric" style="stroke:#181818;stroke-width:2.2917;stroke-dasharray:16.0417,16.0417;"/><polygon fill="none" points="479.9896,1979.2137,466.0833,2020.4113,493.5831,2020.5155,479.9896,1979.2137" style="stroke:#181818;stroke-width:2.2917;"/></g><!--link SignalPremium to Signal--><g class="link" data-entity-1="SignalPremium" data-entity-2="Signal" data-source-line="67" data-uid="lnk14" id="link_SignalPremium_Signal"><path codeLine="67" d="M732.0958,1080.3074 C704.9625,1138.0345 694.7386,1159.8067 668.0177,1216.64" fill="none" id="SignalPremium-to-Signal" style="stroke:#181818;stroke-width:2.2917;"/><polygon fill="none" points="650.4667,1253.9699,680.461,1222.4904,655.5744,1210.7897,650.4667,1253.9699" style="stroke:#181818;stroke-width:2.2917;"/></g><!--reverse link SignalGeneric to subscriber_slot--><g class="link" data-entity-1="SignalGeneric" data-entity-2="subscriber_slot" data-source-line="68" data-uid="lnk15" id="link_SignalGeneric_subscriber_slot"><path codeLine="68" d="M478.9583,2510.7887 C478.9583,2593.9074 478.9583,2660.6637 478.9583,2737.5262" fill="none" id="SignalGeneric-backto-subscriber_slot" style="stroke:#181818;stroke-width:2.2917;"/><polygon fill="#181818" points="478.9583,2483.2887,469.7917,2497.0387,478.9583,2510.7887,488.125,2497.0387,478.9583,2483.2887" style="stroke:#181818;stroke-width:2.2917;"/></g><!--reverse link subscriber_slot to BusGeneric--><g class="link" data-entity-1="subscriber_slot" data-entity-2="BusGeneric" data-source-line="69" data-uid="lnk16" id="link_subscriber_slot_BusGeneric"><path codeLine="69" d="M456.0331,3075.4419 C446.2477,3152.3961 437.7312,3219.4637 427.1667,3302.6283" fill="none" id="subscriber_slot-backto-BusGeneric" style="stroke:#181818;stroke-width:2.2917;"/><polygon fill="#181818" points="459.5021,3048.1616,448.6742,3060.6454,456.0331,3075.4419,466.8611,3062.9581,459.5021,3048.1616" style="stroke:#181818;stroke-width:2.2917;"/></g><!--link SignalPremium to Caps--><g class="link" data-entity-1="SignalPremium" data-entity-2="Caps" data-source-line="70" data-uid="lnk17" id="link_SignalPremium_Caps"><path codeLine="70" d="M1110.4042,1080.3074 C1158.2771,1182.1491 1202.2722,1275.7633 1244.8055,1366.2612" fill="none" id="SignalPremium-to-Caps" style="stroke:#181818;stroke-width:2.2917;stroke-dasharray:16.0417,16.0417;"/><polygon fill="#181818" points="1250.6542,1378.7053,1250.1773,1356.1401,1245.7803,1368.3352,1233.5851,1363.9383,1250.6542,1378.7053" style="stroke:#181818;stroke-width:2.2917;"/><text fill="#000000" font-family="'Segoe UI'" font-size="32.0833" lengthAdjust="spacing" textLength="261.993" x="1191.6667" y="1178.5858">constexpr query</text></g><!--SRC=[fLN9Rjim4BthAzWKA9J4bj6U2iCma0Ne9HiGdv8612MDPIOIgNAeD4uJe1_HB-oNTBHObYN5Rb5TR99l5hvvCtmdLH1d8R3HGYSmklT577wNQdHbz3q45aU93CpbzT7PADG1Za8f8YCI7743AWJ3KwFdCWRwbSfwQPR4ZcEbZO6j3DbnXkoGNSj8YPYTYIKOzlldBtOI2qHsMZfq72KIm5G4m3GIxeVZCFg20hINRt4_mybiS2889EroS2o21yfX9gBf7XDOX9bCc3iRl3ywFVru_6cVMKZIM5XWqoavPDLt-2XY6RhxRCnyhUFrlZLBZkJIbMH8fxCkPEDumAmC7f3-vh_Szdiq481y15TdDZVwq4Mr4LlzlkuavgkY3UwNzF0851WPr1nzATSDFeOBeK8g8KNvba46l5hRDGAjDY8g81dL-JEtjwjm1oYVGS_TsVxT6bympFydxMT85qjJPtrJB1j9UnwRNPvUiXioOWRcG7eaxNXUCreXYHU2hk_TsIyzTxF3Gg-KuCNWlAErIin_9pVCV0oCz8i2SnaIBVMMeNMF8ZArDkeQTF5fviSI5sw2KRzkcqBiEXomtUBSPbK9jgTTrlX0PyeMJPSBfXBNwmxUjqYvB46FcZ7M5lbcildUxKL3e4bcuIa7vJ77usBPSD5Acs_9kXMbMNYfU8R0EwoKNLO5hzhWVD1tq-qaqT25H6R9Lf5UbPXUGNBj8vX7CEvSvUbKApvNMoNvBsOxbLa1gE6D9hRJfPjQaqCFUhH8WgCYQ3S4j4LD2XfoARxflywkLu15kLUGGZMDszoUYwVhkhnurxNOBO-DUWKqwtmPIoi19-roqI34PfMKiDHtdFWXuZlNgaxhrDy2v9H95NMEQxfxXdJ-hIPSFYKtMgs5MCbhE7oPLbijnAf53uR3ThFKo7OJvTZMpEw6zBnfITgO1LeXTN1gyXVCBDVNK9h6iP7HmZ8zRunxrlXECaEFXsNL6uCf19BUBoG2jTf0IcIYV7Rm0MAmMddrEPMoYEQyEdy0]--></g></svg>