<svg xmlns="http://www.w3.org/2000/svg" xmlns:xlink="http://www.w3.org/1999/xlink" contentStyleType="text/css" data-diagram-type="DESCRIPTION" height="1258.8007px" preserveAspectRatio="none" style="width:2407px;height:1258px;background:#FFFFFF;" version="1.1" viewBox="0 0 2407 1258" width="2407.3105px" zoomAndPan="magnify"><title>micrOSAL Bus + Signal Layer &#8212; Architecture</title><defs/><g><g class="title" data-source-line="3"><text fill="#000000" font-family="'Segoe UI'" font-size="14.8468" font-weight="bold" lengthAdjust="spacing" textLength="372.9038" x="1009.7799" y="34.991">micrOSAL Bus + Signal Layer &#8212; Architecture</text></g><!--cluster Bus / Signal API--><g class="cluster" data-entity="Bus . Signal API" data-source-line="10" data-uid="ent0005" id="cluster_Bus . Signal API"><path d="M302.7697,580.4024 L456.6752,580.4024 A3.9768,3.9768 0 0 1 459.3265,583.0536 L466.7499,625.2578 L1084.3502,625.2578 A2.6512,2.6512 0 0 1 1087.0014,627.909 L1087.0014,829.0871 A2.6512,2.6512 0 0 1 1084.3502,831.7384 L302.7697,831.7384 A2.6512,2.6512 0 0 1 300.1184,829.0871 L300.1184,583.0536 A2.6512,2.6512 0 0 1 302.7697,580.4024" fill="none" style="stroke:#000000;stroke-width:1.5907;"/><line style="stroke:#000000;stroke-width:1.5907;" x1="300.1184" x2="466.7499" y1="625.2578" y2="625.2578"/><text fill="#000000" font-family="'Segoe UI'" font-size="14.8468" font-weight="bold" lengthAdjust="spacing" textLength="131.6353" x="314.9653" y="606.9095">Bus / Signal API</text></g><!--cluster Implemented Runtime--><g class="cluster" data-entity="Implemented Runtime" data-source-line="16" data-uid="ent0009" id="cluster_Implemented Runtime"><path d="M1285.8432,343.9133 L1494.2645,343.9133 A3.9768,3.9768 0 0 1 1496.9157,346.5646 L1504.3391,388.7687 L2014.3992,388.7687 A2.6512,2.6512 0 0 1 2017.0505,391.4199 L2017.0505,629.7152 A2.6512,2.6512 0 0 1 2014.3992,632.3664 L1285.8432,632.3664 A2.6512,2.6512 0 0 1 1283.1919,629.7152 L1283.1919,346.5646 A2.6512,2.6512 0 0 1 1285.8432,343.9133" fill="none" style="stroke:#000000;stroke-width:1.5907;"/><line style="stroke:#000000;stroke-width:1.5907;" x1="1283.1919" x2="1504.3391" y1="388.7687" y2="388.7687"/><text fill="#000000" font-family="'Segoe UI'" font-size="14.8468" font-weight="bold" lengthAdjust="spacing" textLength="186.1511" x="1298.0388" y="370.4204">Implemented Runtime</text></g><!--cluster Premium Helpers--><g class="cluster" data-entity="Premium Helpers" data-source-line="22" data-uid="ent0013" id="cluster_Premium Helpers"><path d="M839.3772,857.1901 L1006.1288,857.1901 A3.9768,3.9768 0 0 1 1008.78,859.8413 L1016.2034,902.0455 L1079.0478,902.0455 A2.6512,2.6512 0 0 1 1081.699,904.6967 L1081.699,1249.0409 A2.6512,2.6512 0 0 1 1079.0478,1251.6921 L839.3772,1251.6921 A2.6512,2.6512 0 0 1 836.726,1249.0409 L836.726,859.8413 A2.6512,2.6512 0 0 1 839.3772,857.1901" fill="none" style="stroke:#000000;stroke-width:1.5907;"/><line style="stroke:#000000;stroke-width:1.5907;" x1="836.726" x2="1016.2034" y1="902.0455" y2="902.0455"/><text fill="#000000" font-family="'Segoe UI'" font-size="14.8468" font-weight="bold" lengthAdjust="spacing" textLength="144.4813" x="851.5728" y="883.6972">Premium Helpers</text></g><!--cluster Planned Zephyr Path--><g class="cluster" data-entity="Planned Zephyr Path" data-source-line="28" data-uid="ent0017" id="cluster_Planned Zephyr Path"><path d="M1318.1881,67.1257 L1516.221,67.1257 A3.9768,3.9768 0 0 1 1518.8722,69.7769 L1526.2956,111.981 L1992.6592,111.981 A2.6512,2.6512 0 0 1 1995.3104,114.6323 L1995.3104,315.8104 A2.6512,2.6512 0 0 1 1992.6592,318.4616 L1318.1881,318.4616 A2.6512,2.6512 0 0 1 1315.5369,315.8104 L1315.5369,69.7769 A2.6512,2.6512 0 0 1 1318.1881,67.1257" fill="none" style="stroke:#000000;stroke-width:1.5907;"/><line style="stroke:#000000;stroke-width:1.5907;" x1="1315.5369" x2="1526.2956" y1="111.981" y2="111.981"/><text fill="#000000" font-family="'Segoe UI'" font-size="14.8468" font-weight="bold" lengthAdjust="spacing" textLength="175.7626" x="1330.3837" y="93.6327">Planned Zephyr Path</text></g><!--cluster MicrOSAL Primitives--><g class="cluster" data-entity="MicrOSAL Primitives" data-source-line="34" data-uid="ent0021" id="cluster_MicrOSAL Primitives"><path d="M2161.8072,477.535 L2354.1203,477.535 A3.9768,3.9768 0 0 1 2356.7716,480.1862 L2364.195,522.3904 L2397.2358,522.3904 A2.6512,2.6512 0 0 1 2399.8871,525.0416 L2399.8871,726.2197 A2.6512,2.6512 0 0 1 2397.2358,728.8709 L2161.8072,728.8709 A2.6512,2.6512 0 0 1 2159.156,726.2197 L2159.156,480.1862 A2.6512,2.6512 0 0 1 2161.8072,477.535" fill="none" style="stroke:#000000;stroke-width:1.5907;"/><line style="stroke:#000000;stroke-width:1.5907;" x1="2159.156" x2="2364.195" y1="522.3904" y2="522.3904"/><text fill="#000000" font-family="'Segoe UI'" font-size="14.8468" font-weight="bold" lengthAdjust="spacing" textLength="170.0428" x="2174.0029" y="504.042">MicrOSAL Primitives</text></g><!--entity BUS--><g class="entity" data-entity="BUS" data-source-line="11" data-uid="ent0006" id="entity_BUS"><rect fill="#F1F1F1" height="70.3071" rx="2.6512" ry="2.6512" style="stroke:#181818;stroke-width:0.5302;" width="235.934" x="347.3102" y="638.7293"/><rect fill="#F1F1F1" height="10.6049" style="stroke:#181818;stroke-width:0.5302;" width="15.9073" x="562.0344" y="644.0318"/><rect fill="#F1F1F1" height="2.121" style="stroke:#181818;stroke-width:0.5302;" width="4.242" x="559.9134" y="646.1528"/><rect fill="#F1F1F1" height="2.121" style="stroke:#181818;stroke-width:0.5302;" width="4.242" x="559.9134" y="650.3947"/><text fill="#000000" font-family="'Segoe UI'" font-size="14.8468" lengthAdjust="spacing" textLength="172.3046" x="373.8224" y="684.3252">osal_bus&lt;T, Capacity&gt;</text></g><!--entity SIGNAL--><g class="entity" data-entity="SIGNAL" data-source-line="12" data-uid="ent0007" id="entity_SIGNAL"><rect fill="#F1F1F1" height="70.3071" rx="2.6512" ry="2.6512" style="stroke:#181818;stroke-width:0.5302;" width="221.7541" x="848.3914" y="638.7293"/><rect fill="#F1F1F1" height="10.6049" style="stroke:#181818;stroke-width:0.5302;" width="15.9073" x="1048.9357" y="644.0318"/><rect fill="#F1F1F1" height="2.121" style="stroke:#181818;stroke-width:0.5302;" width="4.242" x="1046.8147" y="646.1528"/><rect fill="#F1F1F1" height="2.121" style="stroke:#181818;stroke-width:0.5302;" width="4.242" x="1046.8147" y="650.3947"/><text fill="#000000" font-family="'Segoe UI'" font-size="14.8468" lengthAdjust="spacing" textLength="158.1247" x="874.9036" y="684.3252">osal_signal&lt;T, N, M&gt;</text></g><!--entity PREMIUM--><g class="entity" data-entity="PREMIUM" data-source-line="13" data-uid="ent0008" id="entity_PREMIUM"><rect fill="#F1F1F1" height="70.3071" rx="2.6512" ry="2.6512" style="stroke:#181818;stroke-width:0.5302;" width="296.3001" x="317.0863" y="744.7783"/><rect fill="#F1F1F1" height="10.6049" style="stroke:#181818;stroke-width:0.5302;" width="15.9073" x="592.1765" y="750.0807"/><rect fill="#F1F1F1" height="2.121" style="stroke:#181818;stroke-width:0.5302;" width="4.242" x="590.0556" y="752.2017"/><rect fill="#F1F1F1" height="2.121" style="stroke:#181818;stroke-width:0.5302;" width="4.242" x="590.0556" y="756.4436"/><text fill="#000000" font-family="'Segoe UI'" font-size="14.8468" lengthAdjust="spacing" textLength="232.6707" x="343.5985" y="790.3741">osal_signal_premium&lt;T, N, M&gt;</text></g><!--entity GEN--><g class="entity" data-entity="GEN" data-source-line="17" data-uid="ent0010" id="entity_GEN"><rect fill="#F1F1F1" height="87.5898" rx="2.6512" ry="2.6512" style="stroke:#181818;stroke-width:0.5302;" width="232.2803" x="1767.8355" y="526.8477"/><rect fill="#F1F1F1" height="10.6049" style="stroke:#181818;stroke-width:0.5302;" width="15.9073" x="1978.906" y="532.1502"/><rect fill="#F1F1F1" height="2.121" style="stroke:#181818;stroke-width:0.5302;" width="4.242" x="1976.785" y="534.2711"/><rect fill="#F1F1F1" height="2.121" style="stroke:#181818;stroke-width:0.5302;" width="4.242" x="1976.785" y="538.5131"/><text fill="#000000" font-family="'Segoe UI'" font-size="14.8468" lengthAdjust="spacing" textLength="160.1618" x="1794.3477" y="572.4436">bus_backend_generic</text><text fill="#000000" font-family="'Segoe UI'" font-size="14.8468" lengthAdjust="spacing" textLength="168.6509" x="1794.3477" y="589.7262">canonical LCD runtime</text></g><!--entity DEL--><g class="entity" data-entity="DEL" data-source-line="18" data-uid="ent0011" id="entity_DEL"><rect fill="#F1F1F1" height="87.5898" rx="2.6512" ry="2.6512" style="stroke:#181818;stroke-width:0.5302;" width="291.9576" x="1300.1598" y="402.7705"/><rect fill="#F1F1F1" height="10.6049" style="stroke:#181818;stroke-width:0.5302;" width="15.9073" x="1570.9076" y="408.0729"/><rect fill="#F1F1F1" height="2.121" style="stroke:#181818;stroke-width:0.5302;" width="4.242" x="1568.7866" y="410.1939"/><rect fill="#F1F1F1" height="2.121" style="stroke:#181818;stroke-width:0.5302;" width="4.242" x="1568.7866" y="414.4359"/><text fill="#000000" font-family="'Segoe UI'" font-size="14.8468" lengthAdjust="spacing" textLength="228.3283" x="1326.672" y="448.3663">delegated bus_backend_* tags</text><text fill="#000000" font-family="'Segoe UI'" font-size="14.8468" lengthAdjust="spacing" textLength="138.4208" x="1326.672" y="465.649">16 tags -&gt; generic</text></g><!--entity MOCK--><g class="entity" data-entity="MOCK" data-source-line="19" data-uid="ent0012" id="entity_MOCK"><rect fill="#F1F1F1" height="87.5898" rx="2.6512" ry="2.6512" style="stroke:#181818;stroke-width:0.5302;" width="229.8082" x="1330.9139" y="526.8477"/><rect fill="#F1F1F1" height="10.6049" style="stroke:#181818;stroke-width:0.5302;" width="15.9073" x="1539.5124" y="532.1502"/><rect fill="#F1F1F1" height="2.121" style="stroke:#181818;stroke-width:0.5302;" width="4.242" x="1537.3914" y="534.2711"/><rect fill="#F1F1F1" height="2.121" style="stroke:#181818;stroke-width:0.5302;" width="4.242" x="1537.3914" y="538.5131"/><text fill="#000000" font-family="'Segoe UI'" font-size="14.8468" lengthAdjust="spacing" textLength="144.9743" x="1357.4262" y="572.4436">bus_backend_mock</text><text fill="#000000" font-family="'Segoe UI'" font-size="14.8468" lengthAdjust="spacing" textLength="166.1789" x="1357.4262" y="589.7262">test-only premium tag</text></g><!--entity OBS--><g class="entity" data-entity="OBS" data-source-line="23" data-uid="ent0014" id="entity_OBS"><rect fill="#F1F1F1" height="70.3071" rx="2.6512" ry="2.6512" style="stroke:#181818;stroke-width:0.5302;" width="171.4575" x="873.3129" y="915.517"/><rect fill="#F1F1F1" height="10.6049" style="stroke:#181818;stroke-width:0.5302;" width="15.9073" x="1023.5606" y="920.8195"/><rect fill="#F1F1F1" height="2.121" style="stroke:#181818;stroke-width:0.5302;" width="4.242" x="1021.4396" y="922.9404"/><rect fill="#F1F1F1" height="2.121" style="stroke:#181818;stroke-width:0.5302;" width="4.242" x="1021.4396" y="927.1824"/><text fill="#000000" font-family="'Segoe UI'" font-size="14.8468" lengthAdjust="spacing" textLength="107.8281" x="899.8251" y="961.1129">observer table</text></g><!--entity ZCOPY--><g class="entity" data-entity="ZCOPY" data-source-line="24" data-uid="ent0015" id="entity_ZCOPY"><rect fill="#F1F1F1" height="87.5898" rx="2.6512" ry="2.6512" style="stroke:#181818;stroke-width:0.5302;" width="211.2859" x="853.6938" y="1022.0962"/><rect fill="#F1F1F1" height="10.6049" style="stroke:#181818;stroke-width:0.5302;" width="15.9073" x="1043.7699" y="1027.3986"/><rect fill="#F1F1F1" height="2.121" style="stroke:#181818;stroke-width:0.5302;" width="4.242" x="1041.6489" y="1029.5196"/><rect fill="#F1F1F1" height="2.121" style="stroke:#181818;stroke-width:0.5302;" width="4.242" x="1041.6489" y="1033.7616"/><text fill="#000000" font-family="'Segoe UI'" font-size="14.8468" lengthAdjust="spacing" textLength="147.6566" x="880.206" y="1067.692">publish_zero_copy()</text><text fill="#000000" font-family="'Segoe UI'" font-size="14.8468" lengthAdjust="spacing" textLength="144.967" x="880.206" y="1084.9747">copy fallback today</text></g><!--entity ROUTE--><g class="entity" data-entity="ROUTE" data-source-line="25" data-uid="ent0016" id="entity_ROUTE"><rect fill="#F1F1F1" height="87.5898" rx="2.6512" ry="2.6512" style="stroke:#181818;stroke-width:0.5302;" width="142.9527" x="887.6295" y="1146.1734"/><rect fill="#F1F1F1" height="10.6049" style="stroke:#181818;stroke-width:0.5302;" width="15.9073" x="1009.3724" y="1151.4759"/><rect fill="#F1F1F1" height="2.121" style="stroke:#181818;stroke-width:0.5302;" width="4.242" x="1007.2514" y="1153.5968"/><rect fill="#F1F1F1" height="2.121" style="stroke:#181818;stroke-width:0.5302;" width="4.242" x="1007.2514" y="1157.8388"/><text fill="#000000" font-family="'Segoe UI'" font-size="14.8468" lengthAdjust="spacing" textLength="73.4658" x="914.1417" y="1191.7693">route_to()</text><text fill="#000000" font-family="'Segoe UI'" font-size="14.8468" lengthAdjust="spacing" textLength="79.3233" x="914.1417" y="1209.0519">stub today</text></g><!--entity ZEP--><g class="entity" data-entity="ZEP" data-source-line="29" data-uid="ent0018" id="entity_ZEP"><rect fill="#F1F1F1" height="87.5898" rx="2.6512" ry="2.6512" style="stroke:#181818;stroke-width:0.5302;" width="226.4445" x="1332.5047" y="212.9429"/><rect fill="#F1F1F1" height="10.6049" style="stroke:#181818;stroke-width:0.5302;" width="15.9073" x="1537.7394" y="218.2454"/><rect fill="#F1F1F1" height="2.121" style="stroke:#181818;stroke-width:0.5302;" width="4.242" x="1535.6184" y="220.3663"/><rect fill="#F1F1F1" height="2.121" style="stroke:#181818;stroke-width:0.5302;" width="4.242" x="1535.6184" y="224.6083"/><text fill="#000000" font-family="'Segoe UI'" font-size="14.8468" lengthAdjust="spacing" textLength="155.3192" x="1359.0169" y="258.5388">bus_backend_zephyr</text><text fill="#000000" font-family="'Segoe UI'" font-size="14.8468" lengthAdjust="spacing" textLength="162.8151" x="1359.0169" y="275.8214">Zbus skeleton / TODO</text></g><!--entity ZPUB--><g class="entity" data-entity="ZPUB" data-source-line="30" data-uid="ent0019" id="entity_ZPUB"><rect fill="#F1F1F1" height="70.3071" rx="2.6512" ry="2.6512" style="stroke:#181818;stroke-width:0.5302;" width="188.7619" x="1789.5755" y="231.5015"/><rect fill="#F1F1F1" height="10.6049" style="stroke:#181818;stroke-width:0.5302;" width="15.9073" x="1957.1276" y="236.8039"/><rect fill="#F1F1F1" height="2.121" style="stroke:#181818;stroke-width:0.5302;" width="4.242" x="1955.0067" y="238.9249"/><rect fill="#F1F1F1" height="2.121" style="stroke:#181818;stroke-width:0.5302;" width="4.242" x="1955.0067" y="243.1669"/><text fill="#000000" font-family="'Segoe UI'" font-size="14.8468" lengthAdjust="spacing" textLength="125.1325" x="1816.0878" y="277.0973">zbus_chan_pub()</text></g><!--entity ZWAIT--><g class="entity" data-entity="ZWAIT" data-source-line="31" data-uid="ent0020" id="entity_ZWAIT"><rect fill="#F1F1F1" height="70.3071" rx="2.6512" ry="2.6512" style="stroke:#181818;stroke-width:0.5302;" width="182.1794" x="1792.757" y="125.4526"/><rect fill="#F1F1F1" height="10.6049" style="stroke:#181818;stroke-width:0.5302;" width="15.9073" x="1953.7266" y="130.755"/><rect fill="#F1F1F1" height="2.121" style="stroke:#181818;stroke-width:0.5302;" width="4.242" x="1951.6056" y="132.876"/><rect fill="#F1F1F1" height="2.121" style="stroke:#181818;stroke-width:0.5302;" width="4.242" x="1951.6056" y="137.1179"/><text fill="#000000" font-family="'Segoe UI'" font-size="14.8468" lengthAdjust="spacing" textLength="118.5501" x="1819.2692" y="171.0484">zbus_sub_wait()</text></g><!--entity QABI--><g class="entity" data-entity="QABI" data-source-line="35" data-uid="ent0022" id="entity_QABI"><rect fill="#F1F1F1" height="70.3071" rx="2.6512" ry="2.6512" style="stroke:#181818;stroke-width:0.5302;" width="206.9797" x="2176.1238" y="641.9108"/><rect fill="#F1F1F1" height="10.6049" style="stroke:#181818;stroke-width:0.5302;" width="15.9073" x="2361.8938" y="647.2132"/><rect fill="#F1F1F1" height="2.121" style="stroke:#181818;stroke-width:0.5302;" width="4.242" x="2359.7728" y="649.3342"/><rect fill="#F1F1F1" height="2.121" style="stroke:#181818;stroke-width:0.5302;" width="4.242" x="2359.7728" y="653.5762"/><text fill="#000000" font-family="'Segoe UI'" font-size="14.8468" lengthAdjust="spacing" textLength="143.3504" x="2202.6361" y="687.5067">osal_queue_* C ABI</text></g><!--entity MUTEX--><g class="entity" data-entity="MUTEX" data-source-line="36" data-uid="ent0023" id="entity_MUTEX"><rect fill="#F1F1F1" height="70.3071" rx="2.6512" ry="2.6512" style="stroke:#181818;stroke-width:0.5302;" width="151.2896" x="2203.6966" y="535.8619"/><rect fill="#F1F1F1" height="10.6049" style="stroke:#181818;stroke-width:0.5302;" width="15.9073" x="2333.7763" y="541.1643"/><rect fill="#F1F1F1" height="2.121" style="stroke:#181818;stroke-width:0.5302;" width="4.242" x="2331.6554" y="543.2853"/><rect fill="#F1F1F1" height="2.121" style="stroke:#181818;stroke-width:0.5302;" width="4.242" x="2331.6554" y="547.5273"/><text fill="#000000" font-family="'Segoe UI'" font-size="14.8468" lengthAdjust="spacing" textLength="87.6602" x="2230.2088" y="581.4577">osal::mutex</text></g><!--entity Producer--><g class="entity" data-entity="Producer" data-source-line="6" data-uid="ent0002" id="entity_Producer"><ellipse cx="40.0811" cy="562.9044" fill="#F1F1F1" rx="8.4839" ry="8.4839" style="stroke:#181818;stroke-width:0.5302;"/><path d="M40.0811,571.3883 L40.0811,600.0215 M26.2947,579.8722 L53.8675,579.8722 M40.0811,600.0215 L26.2947,615.9288 M40.0811,600.0215 L53.8675,615.9288" fill="none" style="stroke:#181818;stroke-width:0.5302;"/><text fill="#000000" font-family="'Segoe UI'" font-size="14.8468" lengthAdjust="spacing" textLength="66.3759" x="6.8932" y="641.9056">Producer</text></g><!--entity Subscriber--><g class="entity" data-entity="Subscriber" data-source-line="7" data-uid="ent0003" id="entity_Subscriber"><ellipse cx="464.7801" cy="397.468" fill="#F1F1F1" rx="8.4839" ry="8.4839" style="stroke:#181818;stroke-width:0.5302;"/><path d="M464.7801,405.952 L464.7801,434.5852 M450.9937,414.4359 L478.5665,414.4359 M464.7801,434.5852 L450.9937,450.4925 M464.7801,434.5852 L478.5665,450.4925" fill="none" style="stroke:#181818;stroke-width:0.5302;"/><text fill="#000000" font-family="'Segoe UI'" font-size="14.8468" lengthAdjust="spacing" textLength="79.0479" x="425.2562" y="476.4693">Subscriber</text></g><!--entity Observer--><g class="entity" data-entity="Observer" data-source-line="8" data-uid="ent0004" id="entity_Observer"><ellipse cx="40.4172" cy="737.8851" fill="#F1F1F1" rx="8.4839" ry="8.4839" style="stroke:#181818;stroke-width:0.5302;"/><path d="M40.4172,746.369 L40.4172,775.0022 M26.6308,754.8529 L54.2035,754.8529 M40.4172,775.0022 L26.6308,790.9095 M40.4172,775.0022 L54.2035,790.9095" fill="none" style="stroke:#181818;stroke-width:0.5302;"/><text fill="#000000" font-family="'Segoe UI'" font-size="14.8468" lengthAdjust="spacing" textLength="68.1085" x="6.3629" y="816.8863">Observer</text></g><!--link Producer to BUS--><g class="link" data-entity-1="Producer" data-entity-2="BUS" data-source-line="39" data-uid="lnk24" id="link_Producer_BUS"><path d="M84.4468,627.1912 C91.1915,630.0121 98.1801,632.5785 104.9884,634.4874 C183.9312,656.5668 269.5241,665.9529 340.5981,670.2161" fill="none" id="Producer-to-BUS" style="stroke:#181818;stroke-width:1.0605;"/><polygon fill="#181818" points="346.9496,670.597,337.6764,665.7912,341.6567,670.2796,337.1684,674.2599,346.9496,670.597" style="stroke:#181818;stroke-width:1.0605;"/><text fill="#000000" font-family="'Segoe UI'" font-size="14.8468" lengthAdjust="spacing" textLength="137.1521" x="125.668" y="619.6353">try_send() / send()</text></g><!--link Producer to SIGNAL--><g class="link" data-entity-1="Producer" data-entity-2="SIGNAL" data-source-line="40" data-uid="lnk25" id="link_Producer_SIGNAL"><path d="M84.5952,593.3086 C91.3717,591.9087 98.3392,590.7104 104.9884,589.9468 C183.6555,580.8903 204.0487,586.2669 283.1506,589.9468 C483.3816,599.2579 708.5851,632.032 841.825,653.7509" fill="none" id="Producer-to-SIGNAL" style="stroke:#181818;stroke-width:1.0605;"/><polygon fill="#181818" points="848.105,654.7745,839.3674,649.0523,842.8717,653.9215,838.0025,657.4257,848.105,654.7745" style="stroke:#181818;stroke-width:1.0605;"/><text fill="#000000" font-family="'Segoe UI'" font-size="14.8468" lengthAdjust="spacing" textLength="65.2377" x="432.6796" y="576.1553">publish()</text></g><!--link Subscriber to SIGNAL--><g class="link" data-entity-1="Subscriber" data-entity-2="SIGNAL" data-source-line="41" data-uid="lnk26" id="link_Subscriber_SIGNAL"><path d="M515.6841,445.4552 C586.9702,455.9116 720.7085,481.9042 819.7582,539.0433 C864.3305,564.7602 901.1268,603.182 926.7164,633.7347" fill="none" id="Subscriber-to-SIGNAL" style="stroke:#181818;stroke-width:1.0605;"/><polygon fill="#181818" points="930.802,638.6127,927.9256,628.572,927.3973,634.5477,921.4216,634.0194,930.802,638.6127" style="stroke:#181818;stroke-width:1.0605;"/><text fill="#000000" font-family="'Segoe UI'" font-size="14.8468" lengthAdjust="spacing" textLength="163.4458" x="644.7774" y="454.199">subscribe() / receive()</text></g><!--link Observer to PREMIUM--><g class="link" data-entity-1="Observer" data-entity-2="PREMIUM" data-source-line="42" data-uid="lnk27" id="link_Observer_PREMIUM"><path d="M84.9982,779.7744 C139.4013,779.7744 228.843,779.7744 310.5112,779.7744" fill="none" id="Observer-to-PREMIUM" style="stroke:#181818;stroke-width:1.0605;"/><polygon fill="#181818" points="316.8742,779.7744,307.3298,775.5324,311.5717,779.7744,307.3298,784.0164,316.8742,779.7744" style="stroke:#181818;stroke-width:1.0605;"/><text fill="#000000" font-family="'Segoe UI'" font-size="14.8468" lengthAdjust="spacing" textLength="155.7687" x="116.6538" y="764.9224">subscribe_observer()</text></g><!--link PREMIUM to SIGNAL--><g class="link" data-entity-1="PREMIUM" data-entity-2="SIGNAL" data-source-line="44" data-uid="lnk28" id="link_PREMIUM_SIGNAL"><path d="M613.0582,748.0976 C688.5226,731.8297 772.7092,713.689 842.044,698.7467" fill="none" id="PREMIUM-to-SIGNAL" style="stroke:#181818;stroke-width:1.0605;"/><polygon fill="#181818" points="848.2641,697.4062,838.0402,695.2702,843.0807,698.5233,839.8276,703.5637,848.2641,697.4062" style="stroke:#181818;stroke-width:1.0605;"/><text fill="#000000" font-family="'Segoe UI'" font-size="14.8468" lengthAdjust="spacing" textLength="87.653" x="682.955" y="689.6276">extends API</text></g><!--link SIGNAL to GEN--><g class="link" data-entity-1="SIGNAL" data-entity-2="GEN" data-source-line="45" data-uid="lnk29" id="link_SIGNAL_GEN"><path d="M1070.1715,684.5531 C1196.9105,694.5111 1411.0339,703.5146 1591.7943,672.665 C1657.5022,661.445 1722.2439,639.4269 1777.4848,617.3369" fill="none" id="SIGNAL-to-GEN" style="stroke:#181818;stroke-width:1.0605;"/><polygon fill="#181818" points="1783.3929,614.9744,1772.9557,614.5795,1778.4695,616.9432,1776.1058,622.4569,1783.3929,614.9744" style="stroke:#181818;stroke-width:1.0605;"/><text fill="#000000" font-family="'Segoe UI'" font-size="14.8468" lengthAdjust="spacing" textLength="133.8609" x="1379.1662" y="657.813">canonical runtime</text></g><!--link SIGNAL to DEL--><g class="link" data-entity-1="SIGNAL" data-entity-2="DEL" data-source-line="46" data-uid="lnk30" id="link_SIGNAL_DEL"><path d="M1020.7951,638.6869 C1083.2155,603.309 1183.9938,548.3226 1274.708,508.2892 C1288.2187,502.3292 1296.5741,498.7945 1310.9013,493.2163" fill="none" id="SIGNAL-to-DEL" style="stroke:#181818;stroke-width:1.0605;"/><polygon fill="#181818" points="1316.8307,490.9077,1306.3975,490.4177,1311.8895,492.8315,1309.4756,498.3235,1316.8307,490.9077" style="stroke:#181818;stroke-width:1.0605;"/><text fill="#000000" font-family="'Segoe UI'" font-size="14.8468" lengthAdjust="spacing" textLength="111.5181" x="1129.421" y="497.6791">delegated tags</text></g><!--link SIGNAL to ZEP--><g class="link" data-entity-1="SIGNAL" data-entity-2="ZEP" data-source-line="47" data-uid="lnk31" id="link_SIGNAL_ZEP"><path d="M978.2907,638.39 C1002.3532,593.701 1048.4739,516.2852 1103.9693,463.7486 C1176.7506,394.8592 1270.5415,340.6243 1343.2592,304.0056" fill="none" id="SIGNAL-to-ZEP" style="stroke:#181818;stroke-width:1.0605;stroke-dasharray:7.4234,7.4234;"/><polygon fill="#181818" points="1348.9423,301.1438,1338.5098,301.6478,1344.2064,303.5287,1342.3256,309.2252,1348.9423,301.1438" style="stroke:#181818;stroke-width:1.0605;"/><text fill="#000000" font-family="'Segoe UI'" font-size="14.8468" lengthAdjust="spacing" textLength="139.0515" x="1115.6346" y="317.3959">Zephyr default tag</text><text fill="#000000" font-family="'Segoe UI'" font-size="14.8468" lengthAdjust="spacing" textLength="127.2349" x="1121.5429" y="334.6786">(currently TODO)</text></g><!--link BUS to QABI--><g class="link" data-entity-1="BUS" data-entity-2="QABI" data-source-line="48" data-uid="lnk32" id="link_BUS_QABI"><path d="M581.5935,708.8595 C592.5908,714.1195 603.2487,720.0689 612.9628,726.7499 C624.257,734.5127 621.1709,743.3678 633.1121,750.0807 C760.8056,821.791 811.6984,804.1656 958.152,804.1656 C958.152,804.1656 958.152,804.1656 1885.0196,804.1656 C2005.2684,804.1656 2130.8814,752.5012 2207.3109,714.8327" fill="none" id="BUS-to-QABI" style="stroke:#181818;stroke-width:1.0605;"/><polygon fill="#181818" points="2213.0183,712.0197,2202.5819,712.4342,2208.2621,714.3638,2206.3324,720.0441,2213.0183,712.0197" style="stroke:#181818;stroke-width:1.0605;"/><text fill="#000000" font-family="'Segoe UI'" font-size="14.8468" lengthAdjust="spacing" textLength="107.0742" x="1392.9526" y="789.3136">transport path</text></g><!--link GEN to QABI--><g class="link" data-entity-1="GEN" data-entity-2="QABI" data-source-line="49" data-uid="lnk33" id="link_GEN_QABI"><path d="M2000.2311,609.6613 C2011.5995,613.1715 2023.0104,616.5545 2034.0183,619.6405 C2080.2874,632.6103 2125.8331,643.625 2169.7692,653.5618" fill="none" id="GEN-to-QABI" style="stroke:#181818;stroke-width:1.0605;"/><polygon fill="#181818" points="2175.9754,654.9654,2167.6018,648.7225,2170.8035,653.7957,2165.7303,656.9975,2175.9754,654.9654" style="stroke:#181818;stroke-width:1.0605;"/><text fill="#000000" font-family="'Segoe UI'" font-size="14.8468" lengthAdjust="spacing" textLength="84.9852" x="2045.6837" y="604.7885">queue path</text></g><!--link GEN to MUTEX--><g class="link" data-entity-1="GEN" data-entity-2="MUTEX" data-source-line="50" data-uid="lnk34" id="link_GEN_MUTEX"><path d="M2000.4114,570.858 C2065.939,570.858 2139.7172,570.858 2197.1003,570.858" fill="none" id="GEN-to-MUTEX" style="stroke:#181818;stroke-width:1.0605;"/><polygon fill="#181818" points="2203.4633,570.858,2193.9189,566.6161,2198.1608,570.858,2193.9189,575.1,2203.4633,570.858" style="stroke:#181818;stroke-width:1.0605;"/><text fill="#000000" font-family="'Segoe UI'" font-size="14.8468" lengthAdjust="spacing" textLength="74.9447" x="2050.9861" y="556.006">slot guard</text></g><!--link DEL to GEN--><g class="link" data-entity-1="DEL" data-entity-2="GEN" data-source-line="51" data-uid="lnk35" id="link_DEL_GEN"><path d="M1591.9852,479.9423 C1641.6479,492.1379 1697.3766,506.7408 1747.6862,522.0755 C1754.2506,524.0798 1754.9177,524.2278 1761.673,526.4442" fill="none" id="DEL-to-GEN" style="stroke:#181818;stroke-width:1.0605;"/><polygon fill="#181818" points="1767.7188,528.4279,1759.9725,521.4218,1762.6807,526.7748,1757.3277,529.4829,1767.7188,528.4279" style="stroke:#181818;stroke-width:1.0605;"/><text fill="#000000" font-family="'Segoe UI'" font-size="14.8468" lengthAdjust="spacing" textLength="73.0308" x="1643.7583" y="472.2273">delegates</text></g><!--link MOCK to GEN--><g class="link" data-entity-1="MOCK" data-entity-2="GEN" data-source-line="52" data-uid="lnk36" id="link_MOCK_GEN"><path d="M1561.2734,570.858 C1624.8285,570.858 1697.3766,570.858 1761.1226,570.858" fill="none" id="MOCK-to-GEN" style="stroke:#181818;stroke-width:1.0605;"/><polygon fill="#181818" points="1767.4855,570.858,1757.9411,566.6161,1762.1831,570.858,1757.9411,575.1,1767.4855,570.858" style="stroke:#181818;stroke-width:1.0605;"/><text fill="#000000" font-family="'Segoe UI'" font-size="14.8468" lengthAdjust="spacing" textLength="112.4388" x="1623.609" y="556.006">reuses runtime</text></g><!--link PREMIUM to OBS--><g class="link" data-entity-1="PREMIUM" data-entity-2="OBS" data-source-line="53" data-uid="lnk37" id="link_PREMIUM_OBS"><path d="M520.7108,814.8342 C552.4831,833.9654 593.8952,856.7871 633.1121,872.037 C711.97,902.6957 800.1429,922.7072 866.8476,935.2634" fill="none" id="PREMIUM-to-OBS" style="stroke:#181818;stroke-width:1.0605;"/><polygon fill="#181818" points="873.1008,936.4405,864.5058,930.5061,867.8898,935.4596,862.9364,938.8436,873.1008,936.4405" style="stroke:#181818;stroke-width:1.0605;"/><text fill="#000000" font-family="'Segoe UI'" font-size="14.8468" lengthAdjust="spacing" textLength="107.8426" x="672.8804" y="857.1849">local callbacks</text></g><!--link PREMIUM to ZCOPY--><g class="link" data-entity-1="PREMIUM" data-entity-2="ZCOPY" data-source-line="54" data-uid="lnk38" id="link_PREMIUM_ZCOPY"><path d="M497.4331,814.8342 C529.025,848.5365 580.5224,899.1219 633.1121,932.4848 C701.8954,976.124 781.3195,1008.4865 847.3349,1031.4779" fill="none" id="PREMIUM-to-ZCOPY" style="stroke:#181818;stroke-width:1.0605;"/><polygon fill="#181818" points="853.3438,1033.5707,845.7256,1026.4256,848.3364,1031.8267,842.9353,1034.4375,853.3438,1033.5707" style="stroke:#181818;stroke-width:1.0605;"/></g><!--link PREMIUM to ROUTE--><g class="link" data-entity-1="PREMIUM" data-entity-2="ROUTE" data-source-line="55" data-uid="lnk39" id="link_PREMIUM_ROUTE"><path d="M482.6923,814.9084 C508.6424,866.7875 563.1834,964.4692 633.1121,1026.8684 C708.6189,1094.2519 810.9816,1139.0913 881.4617,1164.8294" fill="none" id="PREMIUM-to-ROUTE" style="stroke:#181818;stroke-width:1.0605;"/><polygon fill="#181818" points="887.4386,1167.012,879.9284,1159.7535,882.4578,1165.1932,877.0182,1167.7226,887.4386,1167.012" style="stroke:#181818;stroke-width:1.0605;"/></g><!--link ZEP to ZPUB--><g class="link" data-entity-1="ZEP" data-entity-2="ZPUB" data-source-line="56" data-uid="lnk40" id="link_ZEP_ZPUB"><path d="M1559.566,259.4136 C1630.9476,260.9831 1715.8412,262.8376 1783.1929,264.3117" fill="none" id="ZEP-to-ZPUB" style="stroke:#181818;stroke-width:1.0605;"/><polygon fill="#181818" points="1789.5543,264.4509,1780.105,260.0011,1784.2531,264.3349,1779.9194,268.483,1789.5543,264.4509" style="stroke:#181818;stroke-width:1.0605;"/></g><!--link ZEP to ZWAIT--><g class="link" data-entity-1="ZEP" data-entity-2="ZWAIT" data-source-line="57" data-uid="lnk41" id="link_ZEP_ZWAIT"><path d="M1559.566,232.0423 C1632.0823,215.9865 1718.8959,196.7566 1786.5339,181.7825" fill="none" id="ZEP-to-ZWAIT" style="stroke:#181818;stroke-width:1.0605;"/><polygon fill="#181818" points="1792.7464,180.4071,1782.5107,178.3285,1787.5693,181.5532,1784.3445,186.6118,1792.7464,180.4071" style="stroke:#181818;stroke-width:1.0605;"/></g><!--SRC=[XLJRJjj047ttLqnvIbeWwaiVK8MKX8X6JKXAG6rH96kzdYGBwrrtBq2eAlKZ-eNzaixw0ZPDQLvYxvmvU-Po_4eeBdsAqDle37lN2PFfdL2zkT7No9tjPOARsQ8_wQMQsrugsDgmpFPYWof54-T6huH4-XVA7UO-ar7aX9C8TI8Cl8Kti11hnIHCs1OD_Fxv2_g6RuIZExp1IEBAWTDWn7hZ81M6peLMKSIuqmP8JUevckfruHFBZKWU3sQ9HNDBhr7E-0rR8-o5MtlrhVtvU0- -Hq0_hhDSArGEzhHbCawyVN-n3qD6cS9jZ_U0MHXSBdQ2RK4Ny6VxC2snY_7fMN_o0fnwWvdmMJjjVZwQZY-dqO-6vd6MIyme7rCuzyg937V89iLnGYaqW7YD2etWIyMPqahmqE7X2PWwcIuw7PqzPqXHufg5MvfShy6njLsgj- -A1pWuXeg-u3aPJLvIacb-ioJbrXre9RTG5HseYlJfRFYnLUoy0dn0cQEnk-PJJPKu4baMCnlyDPZS9rBOJVo0HiTSvzjEbzf1_x1YKWPvj5WfsnRvLyFP_Ejp1gEzmzZfa6YTJnhuyzdbnQWjMpAbg7DNc6-sj9dCRVupeuS2kLHNT0ZsXdhljABTl9YTp4fHe_dp_8T0m3TCnLHUfrl2vfU3dJZha_YE2LVZFlV75otDqzgASoCouSGjsd_PuPj7ZxGAG-WFnWNT9thO1JqwogXjz-LmgKjVmfMrKU60jeTS14VWp3Qsr8TEbsek7zgmqa24h2P9yIU3jn6sFY_8w2E1L0lXQ_yNwCfPJNXShn9XephUOiPxHz9i-594rM68atae-6IkobXD2Fc284-M2jwfuuU7ns6w5A_M9SKLyz85q59rk3Vq6NNabh0BtIWqB526bXUTOyhcsZZ8QSkYeAKHBIRLZXHZ27LBxM3jcKcZeEwfa5gbZO8T6m63tg9zBA_P8h8S0QGEvVFAKRQ5A4tLF2bj4oeluc5n7r-AxVm3]--></g></svg>