<svg xmlns="http://www.w3.org/2000/svg" xmlns:xlink="http://www.w3.org/1999/xlink" contentStyleType="text/css" data-diagram-type="DESCRIPTION" height="998.9772px" preserveAspectRatio="none" style="width:2407px;height:998px;background:#FFFFFF;" version="1.1" viewBox="0 0 2407 998" width="2407.2863px" zoomAndPan="magnify"><title>micrOSAL Bus + Signal Layer &#8212; Architecture</title><defs/><g><g class="title" data-source-line="3"><text fill="#000000" font-family="'Segoe UI'" font-size="14.508" font-weight="bold" lengthAdjust="spacing" textLength="364.3923" x="1014.193" y="34.1923">micrOSAL Bus + Signal Layer &#8212; Architecture</text></g><!--cluster Bus / Signal API--><g class="cluster" data-entity="Bus . Signal API" data-source-line="10" data-uid="ent0005" id="cluster_Bus . Signal API"><path d="M295.8589,336.0635 L446.2516,336.0635 A3.8861,3.8861 0 0 1 448.8423,338.6542 L456.0962,379.895 L1059.5998,379.895 A2.5907,2.5907 0 0 1 1062.1905,382.4857 L1062.1905,579.0719 A2.5907,2.5907 0 0 1 1059.5998,581.6626 L295.8589,581.6626 A2.5907,2.5907 0 0 1 293.2682,579.0719 L293.2682,338.6542 A2.5907,2.5907 0 0 1 295.8589,336.0635" fill="none" style="stroke:#000000;stroke-width:1.5544;"/><line style="stroke:#000000;stroke-width:1.5544;" x1="293.2682" x2="456.0962" y1="379.895" y2="379.895"/><text fill="#000000" font-family="'Segoe UI'" font-size="14.508" font-weight="bold" lengthAdjust="spacing" textLength="128.6307" x="307.7762" y="361.9655">Bus / Signal API</text></g><!--cluster Implemented Runtime--><g class="cluster" data-entity="Implemented Runtime" data-source-line="16" data-uid="ent0009" id="cluster_Implemented Runtime"><path d="M1256.4936,97.7183 L1460.1577,97.7183 A3.8861,3.8861 0 0 1 1462.7484,100.309 L1470.0024,141.5498 L2023.3433,141.5498 A2.5907,2.5907 0 0 1 2025.934,144.1405 L2025.934,498.2418 A2.5907,2.5907 0 0 1 2023.3433,500.8325 L1256.4936,500.8325 A2.5907,2.5907 0 0 1 1253.9029,498.2418 L1253.9029,100.309 A2.5907,2.5907 0 0 1 1256.4936,97.7183" fill="none" style="stroke:#000000;stroke-width:1.5544;"/><line style="stroke:#000000;stroke-width:1.5544;" x1="1253.9029" x2="1470.0024" y1="141.5498" y2="141.5498"/><text fill="#000000" font-family="'Segoe UI'" font-size="14.508" font-weight="bold" lengthAdjust="spacing" textLength="181.9021" x="1268.4109" y="123.6203">Implemented Runtime</text></g><!--cluster Premium Helpers--><g class="cluster" data-entity="Premium Helpers" data-source-line="23" data-uid="ent0014" id="cluster_Premium Helpers"><path d="M820.2183,606.5334 L983.1637,606.5334 A3.8861,3.8861 0 0 1 985.7544,609.1241 L993.0084,650.365 L1054.4183,650.365 A2.5907,2.5907 0 0 1 1057.009,652.9557 L1057.009,989.4401 A2.5907,2.5907 0 0 1 1054.4183,992.0308 L820.2183,992.0308 A2.5907,2.5907 0 0 1 817.6276,989.4401 L817.6276,609.1241 A2.5907,2.5907 0 0 1 820.2183,606.5334" fill="none" style="stroke:#000000;stroke-width:1.5544;"/><line style="stroke:#000000;stroke-width:1.5544;" x1="817.6276" x2="993.0084" y1="650.365" y2="650.365"/><text fill="#000000" font-family="'Segoe UI'" font-size="14.508" font-weight="bold" lengthAdjust="spacing" textLength="141.1835" x="832.1356" y="632.4354">Premium Helpers</text></g><!--cluster Planned Zephyr Native Path--><g class="cluster" data-entity="Planned Zephyr Native Path" data-source-line="29" data-uid="ent0018" id="cluster_Planned Zephyr Native Path"><path d="M1757.0185,594.098 L2008.7189,594.098 A3.8861,3.8861 0 0 1 2011.3097,596.6887 L2018.5636,637.9296 L2388.6332,637.9296 A2.5907,2.5907 0 0 1 2391.2239,640.5203 L2391.2239,837.1065 A2.5907,2.5907 0 0 1 2388.6332,839.6972 L1757.0185,839.6972 A2.5907,2.5907 0 0 1 1754.4278,837.1065 L1754.4278,596.6887 A2.5907,2.5907 0 0 1 1757.0185,594.098" fill="none" style="stroke:#000000;stroke-width:1.5544;"/><line style="stroke:#000000;stroke-width:1.5544;" x1="1754.4278" x2="2018.5636" y1="637.9296" y2="637.9296"/><text fill="#000000" font-family="'Segoe UI'" font-size="14.508" font-weight="bold" lengthAdjust="spacing" textLength="229.9385" x="1768.9357" y="620">Planned Zephyr Native Path</text></g><!--cluster MicrOSAL Primitives--><g class="cluster" data-entity="MicrOSAL Primitives" data-source-line="35" data-uid="ent0022" id="cluster_MicrOSAL Primitives"><path d="M2167.3867,228.29 L2355.3102,228.29 A3.8861,3.8861 0 0 1 2357.9009,230.8807 L2365.1549,272.1215 L2397.4416,272.1215 A2.5907,2.5907 0 0 1 2400.0323,274.7122 L2400.0323,471.2984 A2.5907,2.5907 0 0 1 2397.4416,473.8891 L2167.3867,473.8891 A2.5907,2.5907 0 0 1 2164.796,471.2984 L2164.796,230.8807 A2.5907,2.5907 0 0 1 2167.3867,228.29" fill="none" style="stroke:#000000;stroke-width:1.5544;"/><line style="stroke:#000000;stroke-width:1.5544;" x1="2164.796" x2="2365.1549" y1="272.1215" y2="272.1215"/><text fill="#000000" font-family="'Segoe UI'" font-size="14.508" font-weight="bold" lengthAdjust="spacing" textLength="166.1616" x="2179.3039" y="254.192">MicrOSAL Primitives</text></g><!--entity BUS--><g class="entity" data-entity="BUS" data-source-line="11" data-uid="ent0006" id="entity_BUS"><rect fill="#F1F1F1" height="68.7023" rx="2.5907" ry="2.5907" style="stroke:#181818;stroke-width:0.5181;" width="230.5488" x="339.3828" y="393.059"/><rect fill="#F1F1F1" height="10.3628" style="stroke:#181818;stroke-width:0.5181;" width="15.5443" x="549.2059" y="398.2405"/><rect fill="#F1F1F1" height="2.0726" style="stroke:#181818;stroke-width:0.5181;" width="4.1451" x="547.1333" y="400.313"/><rect fill="#F1F1F1" height="2.0726" style="stroke:#181818;stroke-width:0.5181;" width="4.1451" x="547.1333" y="404.4582"/><text fill="#000000" font-family="'Segoe UI'" font-size="14.508" lengthAdjust="spacing" textLength="168.3718" x="365.2899" y="437.6142">osal_bus&lt;T, Capacity&gt;</text></g><!--entity SIGNAL--><g class="entity" data-entity="SIGNAL" data-source-line="12" data-uid="ent0007" id="entity_SIGNAL"><rect fill="#F1F1F1" height="68.7023" rx="2.5907" ry="2.5907" style="stroke:#181818;stroke-width:0.5181;" width="216.6925" x="829.0267" y="393.059"/><rect fill="#F1F1F1" height="10.3628" style="stroke:#181818;stroke-width:0.5181;" width="15.5443" x="1024.9936" y="398.2405"/><rect fill="#F1F1F1" height="2.0726" style="stroke:#181818;stroke-width:0.5181;" width="4.1451" x="1022.921" y="400.313"/><rect fill="#F1F1F1" height="2.0726" style="stroke:#181818;stroke-width:0.5181;" width="4.1451" x="1022.921" y="404.4582"/><text fill="#000000" font-family="'Segoe UI'" font-size="14.508" lengthAdjust="spacing" textLength="154.5155" x="854.9338" y="437.6142">osal_signal&lt;T, N, M&gt;</text></g><!--entity PREMIUM--><g class="entity" data-entity="PREMIUM" data-source-line="13" data-uid="ent0008" id="entity_PREMIUM"><rect fill="#F1F1F1" height="68.7023" rx="2.5907" ry="2.5907" style="stroke:#181818;stroke-width:0.5181;" width="289.537" x="309.8487" y="496.6874"/><rect fill="#F1F1F1" height="10.3628" style="stroke:#181818;stroke-width:0.5181;" width="15.5443" x="578.66" y="501.8688"/><rect fill="#F1F1F1" height="2.0726" style="stroke:#181818;stroke-width:0.5181;" width="4.1451" x="576.5875" y="503.9414"/><rect fill="#F1F1F1" height="2.0726" style="stroke:#181818;stroke-width:0.5181;" width="4.1451" x="576.5875" y="508.0865"/><text fill="#000000" font-family="'Segoe UI'" font-size="14.508" lengthAdjust="spacing" textLength="227.36" x="335.7558" y="541.2425">osal_signal_premium&lt;T, N, M&gt;</text></g><!--entity GEN--><g class="entity" data-entity="GEN" data-source-line="17" data-uid="ent0010" id="entity_GEN"><rect fill="#F1F1F1" height="85.5905" rx="2.5907" ry="2.5907" style="stroke:#181818;stroke-width:0.5181;" width="226.9784" x="1782.4074" y="276.4772"/><rect fill="#F1F1F1" height="10.3628" style="stroke:#181818;stroke-width:0.5181;" width="15.5443" x="1988.6602" y="281.6586"/><rect fill="#F1F1F1" height="2.0726" style="stroke:#181818;stroke-width:0.5181;" width="4.1451" x="1986.5876" y="283.7312"/><rect fill="#F1F1F1" height="2.0726" style="stroke:#181818;stroke-width:0.5181;" width="4.1451" x="1986.5876" y="287.8763"/><text fill="#000000" font-family="'Segoe UI'" font-size="14.508" lengthAdjust="spacing" textLength="156.5061" x="1808.3145" y="321.0323">bus_backend_generic</text><text fill="#000000" font-family="'Segoe UI'" font-size="14.508" lengthAdjust="spacing" textLength="164.8014" x="1808.3145" y="337.9205">canonical LCD runtime</text></g><!--entity DEL--><g class="entity" data-entity="DEL" data-source-line="18" data-uid="ent0011" id="entity_DEL"><rect fill="#F1F1F1" height="85.5905" rx="2.5907" ry="2.5907" style="stroke:#181818;stroke-width:0.5181;" width="285.2937" x="1270.4834" y="155.232"/><rect fill="#F1F1F1" height="10.3628" style="stroke:#181818;stroke-width:0.5181;" width="15.5443" x="1535.0514" y="160.4134"/><rect fill="#F1F1F1" height="2.0726" style="stroke:#181818;stroke-width:0.5181;" width="4.1451" x="1532.9789" y="162.486"/><rect fill="#F1F1F1" height="2.0726" style="stroke:#181818;stroke-width:0.5181;" width="4.1451" x="1532.9789" y="166.6311"/><text fill="#000000" font-family="'Segoe UI'" font-size="14.508" lengthAdjust="spacing" textLength="223.1167" x="1296.3905" y="199.7871">delegated bus_backend_* tags</text><text fill="#000000" font-family="'Segoe UI'" font-size="14.508" lengthAdjust="spacing" textLength="135.2613" x="1296.3905" y="216.6753">16 tags -&gt; generic</text></g><!--entity ZEP--><g class="entity" data-entity="ZEP" data-source-line="19" data-uid="ent0012" id="entity_ZEP"><rect fill="#F1F1F1" height="85.5905" rx="2.5907" ry="2.5907" style="stroke:#181818;stroke-width:0.5181;" width="235.0754" x="1295.3542" y="397.7223"/><rect fill="#F1F1F1" height="10.3628" style="stroke:#181818;stroke-width:0.5181;" width="15.5443" x="1509.704" y="402.9037"/><rect fill="#F1F1F1" height="2.0726" style="stroke:#181818;stroke-width:0.5181;" width="4.1451" x="1507.6314" y="404.9763"/><rect fill="#F1F1F1" height="2.0726" style="stroke:#181818;stroke-width:0.5181;" width="4.1451" x="1507.6314" y="409.1214"/><text fill="#000000" font-family="'Segoe UI'" font-size="14.508" lengthAdjust="spacing" textLength="151.774" x="1321.2613" y="442.2774">bus_backend_zephyr</text><text fill="#000000" font-family="'Segoe UI'" font-size="14.508" lengthAdjust="spacing" textLength="172.8984" x="1321.2613" y="459.1656">current generic fallback</text></g><!--entity MOCK--><g class="entity" data-entity="MOCK" data-source-line="20" data-uid="ent0013" id="entity_MOCK"><rect fill="#F1F1F1" height="85.5905" rx="2.5907" ry="2.5907" style="stroke:#181818;stroke-width:0.5181;" width="224.5628" x="1300.5356" y="276.4772"/><rect fill="#F1F1F1" height="10.3628" style="stroke:#181818;stroke-width:0.5181;" width="15.5443" x="1504.3728" y="281.6586"/><rect fill="#F1F1F1" height="2.0726" style="stroke:#181818;stroke-width:0.5181;" width="4.1451" x="1502.3002" y="283.7312"/><rect fill="#F1F1F1" height="2.0726" style="stroke:#181818;stroke-width:0.5181;" width="4.1451" x="1502.3002" y="287.8763"/><text fill="#000000" font-family="'Segoe UI'" font-size="14.508" lengthAdjust="spacing" textLength="141.6652" x="1326.4427" y="321.0323">bus_backend_mock</text><text fill="#000000" font-family="'Segoe UI'" font-size="14.508" lengthAdjust="spacing" textLength="162.3858" x="1326.4427" y="337.9205">test-only premium tag</text></g><!--entity OBS--><g class="entity" data-entity="OBS" data-source-line="24" data-uid="ent0015" id="entity_OBS"><rect fill="#F1F1F1" height="68.7023" rx="2.5907" ry="2.5907" style="stroke:#181818;stroke-width:0.5181;" width="167.5439" x="853.3794" y="663.529"/><rect fill="#F1F1F1" height="10.3628" style="stroke:#181818;stroke-width:0.5181;" width="15.5443" x="1000.1976" y="668.7104"/><rect fill="#F1F1F1" height="2.0726" style="stroke:#181818;stroke-width:0.5181;" width="4.1451" x="998.1251" y="670.783"/><rect fill="#F1F1F1" height="2.0726" style="stroke:#181818;stroke-width:0.5181;" width="4.1451" x="998.1251" y="674.9281"/><text fill="#000000" font-family="'Segoe UI'" font-size="14.508" lengthAdjust="spacing" textLength="105.3669" x="879.2864" y="708.0841">observer table</text></g><!--entity ZCOPY--><g class="entity" data-entity="ZCOPY" data-source-line="25" data-uid="ent0016" id="entity_ZCOPY"><rect fill="#F1F1F1" height="85.5905" rx="2.5907" ry="2.5907" style="stroke:#181818;stroke-width:0.5181;" width="206.4633" x="834.2081" y="767.6755"/><rect fill="#F1F1F1" height="10.3628" style="stroke:#181818;stroke-width:0.5181;" width="15.5443" x="1019.9457" y="772.8569"/><rect fill="#F1F1F1" height="2.0726" style="stroke:#181818;stroke-width:0.5181;" width="4.1451" x="1017.8732" y="774.9295"/><rect fill="#F1F1F1" height="2.0726" style="stroke:#181818;stroke-width:0.5181;" width="4.1451" x="1017.8732" y="779.0746"/><text fill="#000000" font-family="'Segoe UI'" font-size="14.508" lengthAdjust="spacing" textLength="144.2863" x="860.1152" y="812.2306">publish_zero_copy()</text><text fill="#000000" font-family="'Segoe UI'" font-size="14.508" lengthAdjust="spacing" textLength="141.6581" x="860.1152" y="829.1188">copy fallback today</text></g><!--entity ROUTE--><g class="entity" data-entity="ROUTE" data-source-line="26" data-uid="ent0017" id="entity_ROUTE"><rect fill="#F1F1F1" height="85.5905" rx="2.5907" ry="2.5907" style="stroke:#181818;stroke-width:0.5181;" width="139.6898" x="867.3692" y="888.9206"/><rect fill="#F1F1F1" height="10.3628" style="stroke:#181818;stroke-width:0.5181;" width="15.5443" x="986.3333" y="894.1021"/><rect fill="#F1F1F1" height="2.0726" style="stroke:#181818;stroke-width:0.5181;" width="4.1451" x="984.2607" y="896.1746"/><rect fill="#F1F1F1" height="2.0726" style="stroke:#181818;stroke-width:0.5181;" width="4.1451" x="984.2607" y="900.3198"/><text fill="#000000" font-family="'Segoe UI'" font-size="14.508" lengthAdjust="spacing" textLength="71.7889" x="893.2763" y="933.4758">route_to()</text><text fill="#000000" font-family="'Segoe UI'" font-size="14.508" lengthAdjust="spacing" textLength="77.5128" x="893.2763" y="950.3639">stub today</text></g><!--entity ZEP_NATIVE--><g class="entity" data-entity="ZEP_NATIVE" data-source-line="30" data-uid="ent0019" id="entity_ZEP_NATIVE"><rect fill="#F1F1F1" height="85.5905" rx="2.5907" ry="2.5907" style="stroke:#181818;stroke-width:0.5181;" width="250.2068" x="1771.0083" y="651.6117"/><rect fill="#F1F1F1" height="10.3628" style="stroke:#181818;stroke-width:0.5181;" width="15.5443" x="2000.4894" y="656.7932"/><rect fill="#F1F1F1" height="2.0726" style="stroke:#181818;stroke-width:0.5181;" width="4.1451" x="1998.4168" y="658.8657"/><rect fill="#F1F1F1" height="2.0726" style="stroke:#181818;stroke-width:0.5181;" width="4.1451" x="1998.4168" y="663.0109"/><text fill="#000000" font-family="'Segoe UI'" font-size="14.508" lengthAdjust="spacing" textLength="188.0298" x="1796.9154" y="696.1669">future native Zephyr path</text><text fill="#000000" font-family="'Segoe UI'" font-size="14.508" lengthAdjust="spacing" textLength="136.0972" x="1796.9154" y="713.0551">(not implemented)</text></g><!--entity ZPUB--><g class="entity" data-entity="ZPUB" data-source-line="31" data-uid="ent0020" id="entity_ZPUB"><rect fill="#F1F1F1" height="68.7023" rx="2.5907" ry="2.5907" style="stroke:#181818;stroke-width:0.5181;" width="184.4534" x="2190.1849" y="651.0936"/><rect fill="#F1F1F1" height="10.3628" style="stroke:#181818;stroke-width:0.5181;" width="15.5443" x="2353.9126" y="656.275"/><rect fill="#F1F1F1" height="2.0726" style="stroke:#181818;stroke-width:0.5181;" width="4.1451" x="2351.8401" y="658.3476"/><rect fill="#F1F1F1" height="2.0726" style="stroke:#181818;stroke-width:0.5181;" width="4.1451" x="2351.8401" y="662.4927"/><text fill="#000000" font-family="'Segoe UI'" font-size="14.508" lengthAdjust="spacing" textLength="122.2764" x="2216.092" y="695.6487">zbus_chan_pub()</text></g><!--entity ZWAIT--><g class="entity" data-entity="ZWAIT" data-source-line="32" data-uid="ent0021" id="entity_ZWAIT"><rect fill="#F1F1F1" height="68.7023" rx="2.5907" ry="2.5907" style="stroke:#181818;stroke-width:0.5181;" width="178.0211" x="2193.2938" y="754.7219"/><rect fill="#F1F1F1" height="10.3628" style="stroke:#181818;stroke-width:0.5181;" width="15.5443" x="2350.5892" y="759.9034"/><rect fill="#F1F1F1" height="2.0726" style="stroke:#181818;stroke-width:0.5181;" width="4.1451" x="2348.5167" y="761.9759"/><rect fill="#F1F1F1" height="2.0726" style="stroke:#181818;stroke-width:0.5181;" width="4.1451" x="2348.5167" y="766.1211"/><text fill="#000000" font-family="'Segoe UI'" font-size="14.508" lengthAdjust="spacing" textLength="115.8441" x="2219.2009" y="799.2771">zbus_sub_wait()</text></g><!--entity QABI--><g class="entity" data-entity="QABI" data-source-line="36" data-uid="ent0023" id="entity_QABI"><rect fill="#F1F1F1" height="68.7023" rx="2.5907" ry="2.5907" style="stroke:#181818;stroke-width:0.5181;" width="202.2554" x="2181.3765" y="388.9139"/><rect fill="#F1F1F1" height="10.3628" style="stroke:#181818;stroke-width:0.5181;" width="15.5443" x="2362.9062" y="394.0953"/><rect fill="#F1F1F1" height="2.0726" style="stroke:#181818;stroke-width:0.5181;" width="4.1451" x="2360.8337" y="396.1679"/><rect fill="#F1F1F1" height="2.0726" style="stroke:#181818;stroke-width:0.5181;" width="4.1451" x="2360.8337" y="400.313"/><text fill="#000000" font-family="'Segoe UI'" font-size="14.508" lengthAdjust="spacing" textLength="140.0784" x="2207.2836" y="433.469">osal_queue_* C ABI</text></g><!--entity MUTEX--><g class="entity" data-entity="MUTEX" data-source-line="37" data-uid="ent0024" id="entity_MUTEX"><rect fill="#F1F1F1" height="68.7023" rx="2.5907" ry="2.5907" style="stroke:#181818;stroke-width:0.5181;" width="147.8363" x="2208.3199" y="285.2856"/><rect fill="#F1F1F1" height="10.3628" style="stroke:#181818;stroke-width:0.5181;" width="15.5443" x="2335.4306" y="290.467"/><rect fill="#F1F1F1" height="2.0726" style="stroke:#181818;stroke-width:0.5181;" width="4.1451" x="2333.358" y="292.5396"/><rect fill="#F1F1F1" height="2.0726" style="stroke:#181818;stroke-width:0.5181;" width="4.1451" x="2333.358" y="296.6847"/><text fill="#000000" font-family="'Segoe UI'" font-size="14.508" lengthAdjust="spacing" textLength="85.6593" x="2234.227" y="329.8407">osal::mutex</text></g><!--entity Producer--><g class="entity" data-entity="Producer" data-source-line="6" data-uid="ent0002" id="entity_Producer"><ellipse cx="39.1662" cy="231.917" fill="#F1F1F1" rx="8.2903" ry="8.2903" style="stroke:#181818;stroke-width:0.5181;"/><path d="M39.1662,240.2072 L39.1662,268.1869 M25.6946,248.4975 L52.6379,248.4975 M39.1662,268.1869 L25.6946,283.7312 M39.1662,268.1869 L52.6379,283.7312" fill="none" style="stroke:#181818;stroke-width:0.5181;"/><text fill="#000000" font-family="'Segoe UI'" font-size="14.508" lengthAdjust="spacing" textLength="64.8608" x="6.7358" y="309.115">Producer</text></g><!--entity Subscriber--><g class="entity" data-entity="Subscriber" data-source-line="7" data-uid="ent0003" id="entity_Subscriber"><ellipse cx="454.1714" cy="228.8081" fill="#F1F1F1" rx="8.2903" ry="8.2903" style="stroke:#181818;stroke-width:0.5181;"/><path d="M454.1714,237.0984 L454.1714,265.078 M440.6997,245.3887 L467.6431,245.3887 M454.1714,265.078 L440.6997,280.6223 M454.1714,265.078 L467.6431,280.6223" fill="none" style="stroke:#181818;stroke-width:0.5181;"/><text fill="#000000" font-family="'Segoe UI'" font-size="14.508" lengthAdjust="spacing" textLength="77.2436" x="415.5496" y="306.0062">Subscriber</text></g><!--entity Observer--><g class="entity" data-entity="Observer" data-source-line="8" data-uid="ent0004" id="entity_Observer"><ellipse cx="39.4946" cy="489.9515" fill="#F1F1F1" rx="8.2903" ry="8.2903" style="stroke:#181818;stroke-width:0.5181;"/><path d="M39.4946,498.2418 L39.4946,526.2215 M26.023,506.5321 L52.9663,506.5321 M39.4946,526.2215 L26.023,541.7657 M39.4946,526.2215 L52.9663,541.7657" fill="none" style="stroke:#181818;stroke-width:0.5181;"/><text fill="#000000" font-family="'Segoe UI'" font-size="14.508" lengthAdjust="spacing" textLength="66.5539" x="6.2177" y="567.1496">Observer</text></g><!--link Producer to BUS--><g class="link" data-entity-1="Producer" data-entity-2="BUS" data-source-line="40" data-uid="lnk25" id="link_Producer_BUS"><path d="M82.6643,288.6535 C147.9398,313.0476 268.988,358.3112 355.9633,390.8298" fill="none" id="Producer-to-BUS" style="stroke:#181818;stroke-width:1.0363;"/><polygon fill="#181818" points="361.7873,393.0072,354.503,385.8584,356.934,391.1927,351.5997,393.6237,361.7873,393.0072" style="stroke:#181818;stroke-width:1.0363;"/><text fill="#000000" font-family="'Segoe UI'" font-size="14.508" lengthAdjust="spacing" textLength="134.0216" x="122.7996" y="284.2442">try_send() / send()</text></g><!--link Producer to SIGNAL--><g class="link" data-entity-1="Producer" data-entity-2="SIGNAL" data-source-line="41" data-uid="lnk26" id="link_Producer_SIGNAL"><path d="M82.4156,257.6686 C89.1307,255.3784 96.0324,253.109 102.5921,251.0882 C314.4395,185.8335 380.8445,162.8901 598.9718,202.3829 C693.3358,219.4712 721.6988,224.1656 801.047,278.0316 C847.1824,309.3481 884.6606,354.5596 909.1169,387.9694" fill="none" id="Producer-to-SIGNAL" style="stroke:#181818;stroke-width:1.0363;"/><polygon fill="#181818" points="912.7895,392.9865,910.6253,383.0124,909.729,388.8055,903.9358,387.9092,912.7895,392.9865" style="stroke:#181818;stroke-width:1.0363;"/><text fill="#000000" font-family="'Segoe UI'" font-size="14.508" lengthAdjust="spacing" textLength="63.7486" x="422.8036" y="169.2168">publish()</text></g><!--link Subscriber to SIGNAL--><g class="link" data-entity-1="Subscriber" data-entity-2="SIGNAL" data-source-line="42" data-uid="lnk27" id="link_Subscriber_SIGNAL"><path d="M503.7477,285.5654 C579.956,310.5294 723.956,357.7034 825.6672,391.0199" fill="none" id="Subscriber-to-SIGNAL" style="stroke:#181818;stroke-width:1.0363;"/><polygon fill="#181818" points="831.576,392.9554,824.0031,386.113,826.652,391.3425,821.4225,393.9914,831.576,392.9554" style="stroke:#181818;stroke-width:1.0363;"/><text fill="#000000" font-family="'Segoe UI'" font-size="14.508" lengthAdjust="spacing" textLength="159.7152" x="630.0603" y="311.1876">subscribe() / receive()</text></g><!--link Observer to PREMIUM--><g class="link" data-entity-1="Observer" data-entity-2="PREMIUM" data-source-line="43" data-uid="lnk28" id="link_Observer_PREMIUM"><path d="M83.0581,530.8847 C136.2194,530.8847 223.6196,530.8847 303.4238,530.8847" fill="none" id="Observer-to-PREMIUM" style="stroke:#181818;stroke-width:1.0363;"/><polygon fill="#181818" points="309.6415,530.8847,300.3149,526.7396,304.4601,530.8847,300.3149,535.0299,309.6415,530.8847" style="stroke:#181818;stroke-width:1.0363;"/><text fill="#000000" font-family="'Segoe UI'" font-size="14.508" lengthAdjust="spacing" textLength="152.2132" x="113.9912" y="516.3717">subscribe_observer()</text></g><!--link PREMIUM to SIGNAL--><g class="link" data-entity-1="PREMIUM" data-entity-2="SIGNAL" data-source-line="45" data-uid="lnk29" id="link_PREMIUM_SIGNAL"><path d="M599.0651,499.931 C672.807,484.0344 755.072,466.3077 822.8242,451.7065" fill="none" id="PREMIUM-to-SIGNAL" style="stroke:#181818;stroke-width:1.0363;"/><polygon fill="#181818" points="828.9023,450.3966,818.9118,448.3094,823.8372,451.4882,820.6584,456.4136,828.9023,450.3966" style="stroke:#181818;stroke-width:1.0363;"/><text fill="#000000" font-family="'Segoe UI'" font-size="14.508" lengthAdjust="spacing" textLength="85.6523" x="667.3665" y="443.8319">extends API</text></g><!--link SIGNAL to GEN--><g class="link" data-entity-1="SIGNAL" data-entity-2="GEN" data-source-line="46" data-uid="lnk30" id="link_SIGNAL_GEN"><path d="M953.6501,392.8622 C975.5675,346.9755 1019.8272,265.6169 1078.771,214.8183 C1140.7304,161.4083 1165.7463,154.7864 1245.6126,137.0971 C1460.2476,89.5524 1543.171,83.6663 1737.8472,185.8024 C1782.2312,209.0877 1820.6082,242.499 1850.277,271.9709" fill="none" id="SIGNAL-to-GEN" style="stroke:#181818;stroke-width:1.0363;"/><polygon fill="#181818" points="1854.6882,276.3528,1850.9927,266.8391,1851.0122,272.7012,1845.1501,272.7207,1854.6882,276.3528" style="stroke:#181818;stroke-width:1.0363;"/><text fill="#000000" font-family="'Segoe UI'" font-size="14.508" lengthAdjust="spacing" textLength="130.8055" x="1347.6865" y="90.4592">canonical runtime</text></g><!--link SIGNAL to DEL--><g class="link" data-entity-1="SIGNAL" data-entity-2="DEL" data-source-line="47" data-uid="lnk31" id="link_SIGNAL_DEL"><path d="M994.4693,392.9347 C1055.0505,356.7062 1155.0622,299.2858 1245.6126,258.3422 C1258.618,252.4561 1266.6029,248.9987 1280.427,243.5686" fill="none" id="SIGNAL-to-DEL" style="stroke:#181818;stroke-width:1.0363;"/><polygon fill="#181818" points="1286.2142,241.2953,1276.0178,240.8471,1281.3915,243.1897,1279.0488,248.5634,1286.2142,241.2953" style="stroke:#181818;stroke-width:1.0363;"/><text fill="#000000" font-family="'Segoe UI'" font-size="14.508" lengthAdjust="spacing" textLength="108.9727" x="1103.6418" y="247.9743">delegated tags</text></g><!--link SIGNAL to ZEP--><g class="link" data-entity-1="SIGNAL" data-entity-2="ZEP" data-source-line="48" data-uid="lnk32" id="link_SIGNAL_ZEP"><path d="M1045.8172,430.3134 C1120.0462,432.4275 1212.5162,435.0592 1288.7349,437.225" fill="none" id="SIGNAL-to-ZEP" style="stroke:#181818;stroke-width:1.0363;"/><polygon fill="#181818" points="1294.9501,437.4016,1285.745,432.9932,1289.7707,437.2544,1285.5095,441.2802,1294.9501,437.4016" style="stroke:#181818;stroke-width:1.0363;"/><text fill="#000000" font-family="'Segoe UI'" font-size="14.508" lengthAdjust="spacing" textLength="135.8776" x="1090.1701" y="417.9248">Zephyr default tag</text></g><!--link BUS to QABI--><g class="link" data-entity-1="BUS" data-entity-2="QABI" data-source-line="49" data-uid="lnk33" id="link_BUS_QABI"><path d="M568.8367,461.5574 C579.4171,466.6973 589.6556,472.5109 598.9718,479.0706 C610.2051,486.9774 606.7854,495.9931 618.6612,502.9051 C742.5281,575.0408 792.9433,558.8644 936.282,558.8644 C936.282,558.8644 936.282,558.8644 1896.9167,558.8644 C2018.6697,558.8644 2144.9192,500.5684 2218.2363,460.3606" fill="none" id="BUS-to-QABI" style="stroke:#181818;stroke-width:1.0363;"/><polygon fill="#181818" points="2223.688,457.3708,2213.5172,458.221,2219.1449,459.8623,2217.5036,465.4899,2223.688,457.3708" style="stroke:#181818;stroke-width:1.0363;"/><text fill="#000000" font-family="'Segoe UI'" font-size="14.508" lengthAdjust="spacing" textLength="104.6302" x="1361.1582" y="544.3514">transport path</text></g><!--link GEN to QABI--><g class="link" data-entity-1="GEN" data-entity-2="QABI" data-source-line="50" data-uid="lnk34" id="link_GEN_QABI"><path d="M2009.4985,357.4005 C2020.6075,360.8306 2031.7579,364.1364 2042.5145,367.152 C2087.7276,379.8257 2132.2337,390.589 2175.1669,400.299" fill="none" id="GEN-to-QABI" style="stroke:#181818;stroke-width:1.0363;"/><polygon fill="#181818" points="2181.2314,401.6706,2173.049,395.5702,2176.1777,400.5276,2171.2202,403.6562,2181.2314,401.6706" style="stroke:#181818;stroke-width:1.0363;"/><text fill="#000000" font-family="'Segoe UI'" font-size="14.508" lengthAdjust="spacing" textLength="83.0454" x="2053.9137" y="352.6389">queue path</text></g><!--link GEN to MUTEX--><g class="link" data-entity-1="GEN" data-entity-2="MUTEX" data-source-line="51" data-uid="lnk35" id="link_GEN_MUTEX"><path d="M2009.6747,319.4829 C2073.7067,319.4829 2145.8009,319.4829 2201.8742,319.4829" fill="none" id="GEN-to-MUTEX" style="stroke:#181818;stroke-width:1.0363;"/><polygon fill="#181818" points="2208.0919,319.4829,2198.7653,315.3378,2202.9105,319.4829,2198.7653,323.6281,2208.0919,319.4829" style="stroke:#181818;stroke-width:1.0363;"/><text fill="#000000" font-family="'Segoe UI'" font-size="14.508" lengthAdjust="spacing" textLength="73.2341" x="2059.0951" y="304.9699">slot guard</text></g><!--link DEL to GEN--><g class="link" data-entity-1="DEL" data-entity-2="GEN" data-source-line="52" data-uid="lnk36" id="link_DEL_GEN"><path d="M1555.6168,228.1138 C1612.4777,240.7047 1678.4993,256.0831 1737.8472,271.8139 C1752.3034,275.6481 1761.4652,278.1625 1776.3877,282.5252" fill="none" id="DEL-to-GEN" style="stroke:#181818;stroke-width:1.0363;"/><polygon fill="#181818" points="1782.3556,284.27,1774.567,277.6743,1777.3824,282.816,1772.2406,285.6314,1782.3556,284.27" style="stroke:#181818;stroke-width:1.0363;"/><text fill="#000000" font-family="'Segoe UI'" font-size="14.508" lengthAdjust="spacing" textLength="71.3639" x="1621.2653" y="218.9584">delegates</text></g><!--link ZEP to GEN--><g class="link" data-entity-1="ZEP" data-entity-2="GEN" data-source-line="53" data-uid="lnk37" id="link_ZEP_GEN"><path d="M1530.6631,416.334 C1592.4878,402.8726 1669.5769,385.2455 1737.8472,367.152 C1752.3034,363.3177 1761.4652,360.8034 1776.3877,356.4406" fill="none" id="ZEP-to-GEN" style="stroke:#181818;stroke-width:1.0363;"/><polygon fill="#181818" points="1782.3556,354.6958,1772.2406,353.3344,1777.3824,356.1498,1774.567,361.2916,1782.3556,354.6958" style="stroke:#181818;stroke-width:1.0363;"/><text fill="#000000" font-family="'Segoe UI'" font-size="14.508" lengthAdjust="spacing" textLength="117.2255" x="1597.949" y="352.6389">delegates today</text></g><!--link MOCK to GEN--><g class="link" data-entity-1="MOCK" data-entity-2="GEN" data-source-line="54" data-uid="lnk38" id="link_MOCK_GEN"><path d="M1525.5335,319.4829 C1602.6537,319.4829 1698.6861,319.4829 1776.0446,319.4829" fill="none" id="MOCK-to-GEN" style="stroke:#181818;stroke-width:1.0363;"/><polygon fill="#181818" points="1782.2623,319.4829,1772.9358,315.3378,1777.0809,319.4829,1772.9358,323.6281,1782.2623,319.4829" style="stroke:#181818;stroke-width:1.0363;"/><text fill="#000000" font-family="'Segoe UI'" font-size="14.508" lengthAdjust="spacing" textLength="109.8723" x="1601.576" y="304.9699">reuses runtime</text></g><!--link PREMIUM to OBS--><g class="link" data-entity-1="PREMIUM" data-entity-2="OBS" data-source-line="55" data-uid="lnk39" id="link_PREMIUM_OBS"><path d="M505.6441,565.165 C536.9502,585.186 578.7539,609.5179 618.6612,625.1865 C695.5223,655.3735 781.8905,673.6829 847.1971,684.7401" fill="none" id="PREMIUM-to-OBS" style="stroke:#181818;stroke-width:1.0363;"/><polygon fill="#181818" points="853.3275,685.778,844.8238,680.1341,848.2188,684.913,843.4399,688.308,853.3275,685.778" style="stroke:#181818;stroke-width:1.0363;"/><text fill="#000000" font-family="'Segoe UI'" font-size="14.508" lengthAdjust="spacing" textLength="105.3811" x="657.5218" y="610.6735">local callbacks</text></g><!--link PREMIUM to ZCOPY--><g class="link" data-entity-1="PREMIUM" data-entity-2="ZCOPY" data-source-line="56" data-uid="lnk40" id="link_PREMIUM_ZCOPY"><path d="M485.3019,565.3619 C515.9655,599.0825 566.4843,650.047 618.6612,683.2184 C685.7294,725.8511 763.5144,756.7551 828.1474,778.4341" fill="none" id="PREMIUM-to-ZCOPY" style="stroke:#181818;stroke-width:1.0363;"/><polygon fill="#181818" points="834.0423,780.4114,826.5181,773.5156,829.1299,778.7637,823.8817,781.3755,834.0423,780.4114" style="stroke:#181818;stroke-width:1.0363;"/></g><!--link PREMIUM to ROUTE--><g class="link" data-entity-1="PREMIUM" data-entity-2="ROUTE" data-source-line="57" data-uid="lnk41" id="link_PREMIUM_ROUTE"><path d="M471.3224,565.165 C496.4212,616.2952 549.6033,713.0634 618.6612,774.4113 C692.4031,839.9148 792.426,883.0433 861.3181,907.6965" fill="none" id="PREMIUM-to-ROUTE" style="stroke:#181818;stroke-width:1.0363;"/><polygon fill="#181818" points="867.1723,909.7914,859.7877,902.7462,862.2938,908.0456,856.9944,910.5518,867.1723,909.7914" style="stroke:#181818;stroke-width:1.0363;"/></g><!--link ZEP to ZEP_NATIVE--><g class="link" data-entity-1="ZEP" data-entity-2="ZEP_NATIVE" data-source-line="58" data-uid="lnk42" id="link_ZEP_ZEP_NATIVE"><path d="M1501.7715,483.8789 C1519.5956,492.8013 1538.1761,502.2211 1555.4613,511.1954 C1645.6698,558.025 1742.7293,610.794 1811.2691,648.4421" fill="none" id="ZEP-to-ZEP_NATIVE" style="stroke:#181818;stroke-width:1.0363;stroke-dasharray:7.254,7.254;"/><polygon fill="#181818" points="1816.7188,651.4356,1810.5399,643.3123,1812.1773,648.941,1806.5486,650.5785,1816.7188,651.4356" style="stroke:#181818;stroke-width:1.0363;"/><text fill="#000000" font-family="'Segoe UI'" font-size="14.508" lengthAdjust="spacing" textLength="140.553" x="1586.5498" y="511.1903">future replacement</text></g><!--link ZEP_NATIVE to ZPUB--><g class="link" data-entity-1="ZEP_NATIVE" data-entity-2="ZPUB" data-source-line="59" data-uid="lnk43" id="link_ZEP_NATIVE_ZPUB"><path d="M2020.9391,691.6123 C2075.9139,690.2755 2133.2222,688.8818 2183.7721,687.659" fill="none" id="ZEP_NATIVE-to-ZPUB" style="stroke:#181818;stroke-width:1.0363;"/><polygon fill="#181818" points="2189.988,687.5086,2180.564,683.5902,2184.8081,687.6339,2180.7644,691.8781,2189.988,687.5086" style="stroke:#181818;stroke-width:1.0363;"/></g><!--link ZEP_NATIVE to ZWAIT--><g class="link" data-entity-1="ZEP_NATIVE" data-entity-2="ZWAIT" data-source-line="60" data-uid="lnk44" id="link_ZEP_NATIVE_ZWAIT"><path d="M2020.9391,725.0428 C2077.0124,738.7943 2135.9384,753.2402 2186.9547,765.7585" fill="none" id="ZEP_NATIVE-to-ZWAIT" style="stroke:#181818;stroke-width:1.0363;"/><polygon fill="#181818" points="2192.9932,767.2402,2184.9232,760.9919,2187.9611,766.0055,2182.9476,769.0434,2192.9932,767.2402" style="stroke:#181818;stroke-width:1.0363;"/></g><!--SRC=[VLJRJjj047ttLqnvWXQ8-j87L24b8Q9HIU8Iw0KXMUlr95bOxxfx0K9LgH_HB-oNTDONOjCKlzZUEJDxvkoSVIKKbpv3wArqZhsRbCdiNgXURFGDScTxkU1cDk-VzJBDRIyJR6bORdk9GPMXIGgZ5q8YlOLoXuNFPHGvuIH2amW3R-4DpCLICGbdR8q6_lpw3Nt3LyBH7jvW977Xm6amOhboa0b3wqAhA6BSQGF49lCSJVqxzwdbHgHF2xFKehcZtwXW_9Oj4NR2hhrcrtuyte4V4T33TLveXSh1ZhPC9gctxo_sOSWeKxZryGum2uFB-LQmBSi5_7GV9XLsFZwTzizUW9Csc0kVTzFYyz5aV3c9VhOuZ_D2OaxvcC6vLqxak8KsCKvIIg43I9Qeq0X-hJXJMWaU51wUW6cIQQFJqVHvXGmbBbdOfLthDJYsjDVgxRlo0mwEeIvVrZaPdRt4v16BrTeG4MzC2DQfi61I1anPuseKlrGZr_pschgtxa0hkOPQk42dJ9_CXXyxWiKru0FA0etTTiRrP52DL5Q2p0R_76xXKodiYfemEk6wME_kKIVqVg9FmvcnTTN4S1P_Urx1QEymSJeaMkVJ5lvyTdanwjAMJ2bI_whK3ARCYJk4cBdLbWuMFZW4L0MgKmh2NgjTfHs8pT3iDI8dq_x5-FFeUQd783PVCPLGmxirEhuSRCLPdoRtJBW6zwK_lkXqCMaC7XkHYy3E_izatprwf04RGdymBijzeezjqAEZd8Hyg8wRTFiQjcpi3mSqa-HDE09drecbcTdT8vTN7rrOPKj2rcTBySsrqKNOPhqiHbSFKY-4RswL4btxjGrFck4YRDJ4EvNnmH4r6-wVg5uCSR8a1JUMhUtQXf3R2B8nQd1aEqw7JF5w6Z9SC2zT04L1dW080fSwCMKBRLmvCb7OkHKjpwKRAKKFNKgQhQLd9ei2bmtjXfED0eSjwzNeHy6ihR11RodMjDgMYmn90Ac35Bpsc-qWAikrLofJ1GQ7XyUjaQT2jM4C5fBnqXbHArwM2pF_VAsSxxy0]--></g></svg>