<svg xmlns="http://www.w3.org/2000/svg" xmlns:xlink="http://www.w3.org/1999/xlink" contentStyleType="text/css" data-diagram-type="SEQUENCE" height="5086.0714px" preserveAspectRatio="none" style="width:2406px;height:5086px;background:#FEFEFE;" version="1.1" viewBox="0 0 2406 5086" width="2406.5111px" zoomAndPan="magnify"><title>Memory Pool &#8212; Allocate / Deallocate Lifecycle</title><defs/><g><rect fill="#FEFEFE" height="5086.0714" style="stroke:none;stroke-width:1.4148;" width="2406.5111" x="0" y="0"/><text fill="#000000" font-family="'Segoe UI'" font-size="31.1248" font-weight="bold" lengthAdjust="spacing" textLength="807.77" x="797.8252" y="64.2598">Memory Pool &#8212; Allocate / Deallocate Lifecycle</text><g><title>osal..memory_pool</title><rect fill="#FFFFFF" height="498.107" style="stroke:#000000;stroke-width:1.4148;" width="14.1476" x="713.8051" y="464.5948"/></g><g><title>osal..memory_pool</title><rect fill="#FFFFFF" height="498.107" style="stroke:#000000;stroke-width:1.4148;" width="14.1476" x="713.8051" y="1124.8247"/></g><g><title>osal..memory_pool</title><rect fill="#FFFFFF" height="498.107" style="stroke:#000000;stroke-width:1.4148;" width="14.1476" x="713.8051" y="1864.7013"/></g><g><title>osal..memory_pool</title><rect fill="#FFFFFF" height="498.107" style="stroke:#000000;stroke-width:1.4148;" width="14.1476" x="713.8051" y="2524.9312"/></g><g><title>osal..memory_pool</title><rect fill="#FFFFFF" height="690.3599" style="stroke:#000000;stroke-width:1.4148;" width="14.1476" x="713.8051" y="3264.8078"/></g><g><title>osal..memory_pool</title><rect fill="#FFFFFF" height="355.7907" style="stroke:#000000;stroke-width:1.4148;" width="14.1476" x="713.8051" y="4117.2906"/></g><g><title>osal..memory_pool</title><rect fill="#FFFFFF" height="324.2459" style="stroke:#000000;stroke-width:1.4148;" width="14.1476" x="713.8051" y="4635.2043"/></g><g><title>Application</title><rect fill="#000000" fill-opacity="0.00000" height="4787.9765" width="11.3181" x="205.2988" y="196.9394"/><line style="stroke:#000000;stroke-width:1.4148;stroke-dasharray:7.0738,7.0738;" x1="210.7996" x2="210.7996" y1="196.9394" y2="4984.9159"/></g><g><title>osal..memory_pool</title><rect fill="#000000" fill-opacity="0.00000" height="4787.9765" width="11.3181" x="715.2198" y="196.9394"/><line style="stroke:#000000;stroke-width:1.4148;stroke-dasharray:7.0738,7.0738;" x1="720.0554" x2="720.0554" y1="196.9394" y2="4984.9159"/></g><g><title>extern C bridge</title><rect fill="#000000" fill-opacity="0.00000" height="4787.9765" width="11.3181" x="1291.7121" y="196.9394"/><line style="stroke:#000000;stroke-width:1.4148;stroke-dasharray:7.0738,7.0738;" x1="1296.2009" x2="1296.2009" y1="196.9394" y2="4984.9159"/></g><g><title>Backend .cpp</title><rect fill="#000000" fill-opacity="0.00000" height="4787.9765" width="11.3181" x="1561.5449" y="196.9394"/><line style="stroke:#000000;stroke-width:1.4148;stroke-dasharray:7.0738,7.0738;" x1="1566.6858" x2="1566.6858" y1="196.9394" y2="4984.9159"/></g><g><title>OS . Emulation</title><rect fill="#000000" fill-opacity="0.00000" height="4787.9765" width="11.3181" x="2073.4679" y="196.9394"/><line style="stroke:#000000;stroke-width:1.4148;stroke-dasharray:7.0738,7.0738;" x1="2078.8299" x2="2078.8299" y1="196.9394" y2="4984.9159"/></g><g class="participant participant-head" data-participant="app"><rect fill="#E8F5E9" height="71.1581" rx="3.5369" ry="3.5369" style="stroke:#000000;stroke-width:1.4148;" width="158.7698" x="131.5729" y="124.3665"/><text fill="#000000" font-family="'Segoe UI'" font-size="19.8067" lengthAdjust="spacing" textLength="110.6679" x="155.6239" y="166.8024">Application</text></g><g class="participant participant-tail" data-participant="app"><rect fill="#E8F5E9" height="71.1581" rx="3.5369" ry="3.5369" style="stroke:#000000;stroke-width:1.4148;" width="158.7698" x="131.5729" y="4983.5011"/><text fill="#000000" font-family="'Segoe UI'" font-size="19.8067" lengthAdjust="spacing" textLength="110.6679" x="155.6239" y="5025.9371">Application</text></g><g class="participant participant-head" data-participant="mp"><rect fill="#E3F2FD" height="94.2143" rx="3.5369" ry="3.5369" style="stroke:#000000;stroke-width:1.4148;" width="236.4975" x="602.6301" y="101.3103"/><text fill="#000000" font-family="'Segoe UI'" font-size="19.8067" lengthAdjust="spacing" textLength="188.3955" x="626.6811" y="143.7462">osal::memory_pool</text><text fill="#000000" font-family="'Segoe UI'" font-size="19.8067" lengthAdjust="spacing" textLength="134.2753" x="653.7412" y="166.8024">(header-only)</text></g><g class="participant participant-tail" data-participant="mp"><rect fill="#E3F2FD" height="94.2143" rx="3.5369" ry="3.5369" style="stroke:#000000;stroke-width:1.4148;" width="236.4975" x="602.6301" y="4983.5011"/><text fill="#000000" font-family="'Segoe UI'" font-size="19.8067" lengthAdjust="spacing" textLength="188.3955" x="626.6811" y="5025.9371">osal::memory_pool</text><text fill="#000000" font-family="'Segoe UI'" font-size="19.8067" lengthAdjust="spacing" textLength="134.2753" x="653.7412" y="5048.9933">(header-only)</text></g><g class="participant participant-head" data-participant="bridge"><rect fill="#FFF3E0" height="94.2143" rx="3.5369" ry="3.5369" style="stroke:#000000;stroke-width:1.4148;" width="268.3158" x="1163.2132" y="101.3103"/><text fill="#000000" font-family="'Segoe UI'" font-size="19.8067" lengthAdjust="spacing" textLength="154.5269" x="1220.1077" y="143.7462">extern C bridge</text><text fill="#000000" font-family="'Segoe UI'" font-size="19.8067" lengthAdjust="spacing" textLength="220.2139" x="1187.2642" y="166.8024">osal_memory_pool_*()</text></g><g class="participant participant-tail" data-participant="bridge"><rect fill="#FFF3E0" height="94.2143" rx="3.5369" ry="3.5369" style="stroke:#000000;stroke-width:1.4148;" width="268.3158" x="1163.2132" y="4983.5011"/><text fill="#000000" font-family="'Segoe UI'" font-size="19.8067" lengthAdjust="spacing" textLength="154.5269" x="1220.1077" y="5025.9371">extern C bridge</text><text fill="#000000" font-family="'Segoe UI'" font-size="19.8067" lengthAdjust="spacing" textLength="220.2139" x="1187.2642" y="5048.9933">osal_memory_pool_*()</text></g><g class="participant participant-head" data-participant="be"><rect fill="#FFEBEE" height="94.2143" rx="3.5369" ry="3.5369" style="stroke:#000000;stroke-width:1.4148;" width="182.1258" x="1476.141" y="101.3103"/><text fill="#000000" font-family="'Segoe UI'" font-size="19.8067" lengthAdjust="spacing" textLength="134.0239" x="1500.192" y="143.7462">Backend .cpp</text><text fill="#000000" font-family="'Segoe UI'" font-size="19.8067" lengthAdjust="spacing" textLength="129.8459" x="1502.281" y="166.8024">(e.g. Zephyr)</text></g><g class="participant participant-tail" data-participant="be"><rect fill="#FFEBEE" height="94.2143" rx="3.5369" ry="3.5369" style="stroke:#000000;stroke-width:1.4148;" width="182.1258" x="1476.141" y="4983.5011"/><text fill="#000000" font-family="'Segoe UI'" font-size="19.8067" lengthAdjust="spacing" textLength="134.0239" x="1500.192" y="5025.9371">Backend .cpp</text><text fill="#000000" font-family="'Segoe UI'" font-size="19.8067" lengthAdjust="spacing" textLength="129.8459" x="1502.281" y="5048.9933">(e.g. Zephyr)</text></g><g class="participant participant-head" data-participant="os"><rect fill="#ECEFF1" height="94.2143" rx="3.5369" ry="3.5369" style="stroke:#000000;stroke-width:1.4148;" width="229.7856" x="1964.2341" y="101.3103"/><text fill="#000000" font-family="'Segoe UI'" font-size="19.8067" lengthAdjust="spacing" textLength="147.3702" x="2005.4418" y="143.7462">OS / Emulation</text><text fill="#000000" font-family="'Segoe UI'" font-size="19.8067" lengthAdjust="spacing" textLength="181.6837" x="1988.2851" y="166.8024">(e.g. k_mem_slab)</text></g><g class="participant participant-tail" data-participant="os"><rect fill="#ECEFF1" height="94.2143" rx="3.5369" ry="3.5369" style="stroke:#000000;stroke-width:1.4148;" width="229.7856" x="1964.2341" y="4983.5011"/><text fill="#000000" font-family="'Segoe UI'" font-size="19.8067" lengthAdjust="spacing" textLength="147.3702" x="2005.4418" y="5025.9371">OS / Emulation</text><text fill="#000000" font-family="'Segoe UI'" font-size="19.8067" lengthAdjust="spacing" textLength="181.6837" x="1988.2851" y="5048.9933">(e.g. k_mem_slab)</text></g><g><title>osal..memory_pool</title><rect fill="#FFFFFF" height="498.107" style="stroke:#000000;stroke-width:1.4148;" width="14.1476" x="713.8051" y="464.5948"/></g><g><title>osal..memory_pool</title><rect fill="#FFFFFF" height="498.107" style="stroke:#000000;stroke-width:1.4148;" width="14.1476" x="713.8051" y="1124.8247"/></g><g><title>osal..memory_pool</title><rect fill="#FFFFFF" height="498.107" style="stroke:#000000;stroke-width:1.4148;" width="14.1476" x="713.8051" y="1864.7013"/></g><g><title>osal..memory_pool</title><rect fill="#FFFFFF" height="498.107" style="stroke:#000000;stroke-width:1.4148;" width="14.1476" x="713.8051" y="2524.9312"/></g><g><title>osal..memory_pool</title><rect fill="#FFFFFF" height="690.3599" style="stroke:#000000;stroke-width:1.4148;" width="14.1476" x="713.8051" y="3264.8078"/></g><g><title>osal..memory_pool</title><rect fill="#FFFFFF" height="355.7907" style="stroke:#000000;stroke-width:1.4148;" width="14.1476" x="713.8051" y="4117.2906"/></g><g><title>osal..memory_pool</title><rect fill="#FFFFFF" height="324.2459" style="stroke:#000000;stroke-width:1.4148;" width="14.1476" x="713.8051" y="4635.2043"/></g><path d="M14.1476,218.1608 L14.1476,305.8761 L407.4516,305.8761 L407.4516,232.3084 L393.304,218.1608 L14.1476,218.1608" fill="#FFFFFF" style="stroke:#000000;stroke-width:1.4148;"/><path d="M393.304,218.1608 L393.304,232.3084 L407.4516,232.3084 L393.304,218.1608" fill="#FFFFFF" style="stroke:#000000;stroke-width:1.4148;"/><text fill="#000000" font-family="'Segoe UI'" font-size="19.8067" lengthAdjust="spacing" textLength="333.6187" x="36.7838" y="257.7673">Caller supplies the backing buffer</text><text fill="#000000" font-family="'Segoe UI'" font-size="19.8067" lengthAdjust="spacing" textLength="336.4427" x="36.7838" y="280.8235">(stack or static, properly aligned).</text><rect fill="#FFFFFF" height="4.2443" style="stroke:#FFFFFF;stroke-width:1.4148;" width="2390.6876" x="7.0738" y="357.8576"/><line style="stroke:#000000;stroke-width:0.7074;" x1="7.0738" x2="2397.7614" y1="357.8576" y2="357.8576"/><line style="stroke:#000000;stroke-width:0.7074;" x1="7.0738" x2="2397.7614" y1="362.1018" y2="362.1018"/><rect fill="#FFFFFF" height="62.6696" style="stroke:#000000;stroke-width:1.4148;" width="198.0737" x="1103.3808" y="327.9375"/><text fill="#000000" font-family="'Segoe UI'" font-size="19.8067" font-weight="bold" lengthAdjust="spacing" textLength="143.0762" x="1126.017" y="366.1292">Construction</text><g class="message" data-participant-1="app" data-participant-2="mp"><polygon fill="#000000" points="696.8279,458.9357,710.9755,464.5948,696.8279,470.2538,702.487,464.5948" style="stroke:#000000;stroke-width:1.4148;"/><line style="stroke:#000000;stroke-width:1.4148;" x1="210.9578" x2="705.3165" y1="464.5948" y2="464.5948"/><text fill="#000000" font-family="'Segoe UI'" font-size="19.8067" lengthAdjust="spacing" textLength="447.6715" x="238.5457" y="442.9464">memory_pool pool(buf, buf_sz, blk_sz, count)</text></g><g class="message" data-participant-1="mp" data-participant-2="bridge"><polygon fill="#000000" points="1280.394,530.0938,1294.5416,535.7529,1280.394,541.4119,1286.053,535.7529" style="stroke:#000000;stroke-width:1.4148;"/><line style="stroke:#000000;stroke-width:1.4148;" x1="727.9527" x2="1288.8825" y1="535.7529" y2="535.7529"/><text fill="#000000" font-family="'Segoe UI'" font-size="19.8067" lengthAdjust="spacing" textLength="442.6425" x="791.3407" y="514.1045">osal_memory_pool_create(&amp;handle_, buf, ...)</text></g><g class="message" data-participant-1="bridge" data-participant-2="be"><polygon fill="#000000" points="1550.2268,601.252,1564.3744,606.911,1550.2268,612.5701,1555.8858,606.911" style="stroke:#000000;stroke-width:1.4148;"/><line style="stroke:#000000;stroke-width:1.4148;" x1="1297.3711" x2="1558.7153" y1="606.911" y2="606.911"/><text fill="#000000" font-family="'Segoe UI'" font-size="19.8067" lengthAdjust="spacing" textLength="207.5832" x="1328.4959" y="585.2627">calls implementation</text></g><g class="message" data-participant-1="be" data-participant-2="os"><polygon fill="#000000" points="2062.1498,672.4101,2076.2974,678.0692,2062.1498,683.7282,2067.8088,678.0692" style="stroke:#000000;stroke-width:1.4148;"/><line style="stroke:#000000;stroke-width:1.4148;" x1="1567.2039" x2="2070.6383" y1="678.0692" y2="678.0692"/><text fill="#000000" font-family="'Segoe UI'" font-size="19.8067" lengthAdjust="spacing" textLength="305.9977" x="1670.1666" y="656.4208">k_mem_slab_init() / bitmap init</text></g><g class="message" data-participant-1="os" data-participant-2="be"><polygon fill="#000000" points="1582.7663,743.5683,1568.6187,749.2273,1582.7663,754.8864,1577.1073,749.2273" style="stroke:#000000;stroke-width:1.4148;"/><line style="stroke:#000000;stroke-width:1.4148;stroke-dasharray:2.8295,2.8295;" x1="1574.2777" x2="2077.7122" y1="749.2273" y2="749.2273"/><text fill="#000000" font-family="'Segoe UI'" font-size="19.8067" lengthAdjust="spacing" textLength="111.8284" x="1767.2512" y="727.579">0 (success)</text></g><g class="message" data-participant-1="be" data-participant-2="bridge"><polygon fill="#000000" points="1312.9335,814.7264,1298.7859,820.3854,1312.9335,826.0445,1307.2745,820.3854" style="stroke:#000000;stroke-width:1.4148;"/><line style="stroke:#000000;stroke-width:1.4148;stroke-dasharray:2.8295,2.8295;" x1="1304.4449" x2="1565.7892" y1="820.3854" y2="820.3854"/><text fill="#000000" font-family="'Segoe UI'" font-size="19.8067" lengthAdjust="spacing" textLength="105.2617" x="1379.6567" y="798.7371">result{ok}</text></g><g class="message" data-participant-1="bridge" data-participant-2="mp"><polygon fill="#000000" points="743.5151,885.8845,729.3674,891.5436,743.5151,897.2026,737.856,891.5436" style="stroke:#000000;stroke-width:1.4148;"/><line style="stroke:#000000;stroke-width:1.4148;stroke-dasharray:2.8295,2.8295;" x1="735.0265" x2="1295.9564" y1="891.5436" y2="891.5436"/><text fill="#000000" font-family="'Segoe UI'" font-size="19.8067" lengthAdjust="spacing" textLength="105.2617" x="960.0311" y="869.8952">result{ok}</text></g><g class="message" data-participant-1="mp" data-participant-2="app"><polygon fill="#000000" points="226.5202,957.0427,212.3726,962.7017,226.5202,968.3608,220.8612,962.7017" style="stroke:#000000;stroke-width:1.4148;"/><line style="stroke:#000000;stroke-width:1.4148;stroke-dasharray:2.8295,2.8295;" x1="218.0316" x2="719.4641" y1="962.7017" y2="962.7017"/><text fill="#000000" font-family="'Segoe UI'" font-size="19.8067" lengthAdjust="spacing" textLength="149.3238" x="391.2565" y="941.0534">valid() == true</text></g><rect fill="#FFFFFF" height="4.2443" style="stroke:#FFFFFF;stroke-width:1.4148;" width="2390.6876" x="7.0738" y="1018.0875"/><line style="stroke:#000000;stroke-width:0.7074;" x1="7.0738" x2="2397.7614" y1="1018.0875" y2="1018.0875"/><line style="stroke:#000000;stroke-width:0.7074;" x1="7.0738" x2="2397.7614" y1="1022.3317" y2="1022.3317"/><rect fill="#FFFFFF" height="62.6696" style="stroke:#000000;stroke-width:1.4148;" width="315.1052" x="1044.865" y="988.1674"/><text fill="#000000" font-family="'Segoe UI'" font-size="19.8067" font-weight="bold" lengthAdjust="spacing" textLength="260.1077" x="1067.5012" y="1026.3591">Allocate (non-blocking)</text><g class="message" data-participant-1="app" data-participant-2="mp"><polygon fill="#000000" points="696.8279,1119.1656,710.9755,1124.8247,696.8279,1130.4837,702.487,1124.8247" style="stroke:#000000;stroke-width:1.4148;"/><line style="stroke:#000000;stroke-width:1.4148;" x1="210.9578" x2="705.3165" y1="1124.8247" y2="1124.8247"/><text fill="#000000" font-family="'Segoe UI'" font-size="19.8067" lengthAdjust="spacing" textLength="259.1502" x="332.8063" y="1103.1763">void* blk = pool.allocate()</text></g><g class="message" data-participant-1="mp" data-participant-2="bridge"><polygon fill="#000000" points="1280.394,1190.3237,1294.5416,1195.9828,1280.394,1201.6418,1286.053,1195.9828" style="stroke:#000000;stroke-width:1.4148;"/><line style="stroke:#000000;stroke-width:1.4148;" x1="727.9527" x2="1288.8825" y1="1195.9828" y2="1195.9828"/><text fill="#000000" font-family="'Segoe UI'" font-size="19.8067" lengthAdjust="spacing" textLength="381.4042" x="821.9598" y="1174.3344">osal_memory_pool_allocate(&amp;handle_)</text></g><g class="message" data-participant-1="bridge" data-participant-2="be"><polygon fill="#000000" points="1550.2268,1261.4819,1564.3744,1267.1409,1550.2268,1272.8,1555.8858,1267.1409" style="stroke:#000000;stroke-width:1.4148;"/><line style="stroke:#000000;stroke-width:1.4148;" x1="1297.3711" x2="1558.7153" y1="1267.1409" y2="1267.1409"/><text fill="#000000" font-family="'Segoe UI'" font-size="19.8067" lengthAdjust="spacing" textLength="207.5832" x="1328.4959" y="1245.4926">calls implementation</text></g><g class="message" data-participant-1="be" data-participant-2="os"><polygon fill="#000000" points="2062.1498,1332.64,2076.2974,1338.2991,2062.1498,1343.9581,2067.8088,1338.2991" style="stroke:#000000;stroke-width:1.4148;"/><line style="stroke:#000000;stroke-width:1.4148;" x1="1567.2039" x2="2070.6383" y1="1338.2991" y2="1338.2991"/><text fill="#000000" font-family="'Segoe UI'" font-size="19.8067" lengthAdjust="spacing" textLength="449.6734" x="1598.3287" y="1316.6507">k_mem_slab_alloc(K_NO_WAIT) / bitmap scan</text></g><g class="message" data-participant-1="os" data-participant-2="be"><polygon fill="#000000" points="1582.7663,1403.7982,1568.6187,1409.4572,1582.7663,1415.1163,1577.1073,1409.4572" style="stroke:#000000;stroke-width:1.4148;"/><line style="stroke:#000000;stroke-width:1.4148;stroke-dasharray:2.8295,2.8295;" x1="1574.2777" x2="2077.7122" y1="1409.4572" y2="1409.4572"/><text fill="#000000" font-family="'Segoe UI'" font-size="19.8067" lengthAdjust="spacing" textLength="201.6548" x="1722.338" y="1387.8089">pointer to free block</text></g><g class="message" data-participant-1="be" data-participant-2="bridge"><polygon fill="#000000" points="1312.9335,1474.9563,1298.7859,1480.6153,1312.9335,1486.2744,1307.2745,1480.6153" style="stroke:#000000;stroke-width:1.4148;"/><line style="stroke:#000000;stroke-width:1.4148;stroke-dasharray:2.8295,2.8295;" x1="1304.4449" x2="1565.7892" y1="1480.6153" y2="1480.6153"/><text fill="#000000" font-family="'Segoe UI'" font-size="19.8067" lengthAdjust="spacing" textLength="131.7802" x="1366.3974" y="1458.967">blk (non-null)</text></g><g class="message" data-participant-1="bridge" data-participant-2="mp"><polygon fill="#000000" points="743.5151,1546.1144,729.3674,1551.7735,743.5151,1557.4325,737.856,1551.7735" style="stroke:#000000;stroke-width:1.4148;"/><line style="stroke:#000000;stroke-width:1.4148;stroke-dasharray:2.8295,2.8295;" x1="735.0265" x2="1295.9564" y1="1551.7735" y2="1551.7735"/><text fill="#000000" font-family="'Segoe UI'" font-size="19.8067" lengthAdjust="spacing" textLength="29.5456" x="997.8891" y="1530.1251">blk</text></g><g class="message" data-participant-1="mp" data-participant-2="app"><polygon fill="#000000" points="226.5202,1617.2726,212.3726,1622.9316,226.5202,1628.5907,220.8612,1622.9316" style="stroke:#000000;stroke-width:1.4148;"/><line style="stroke:#000000;stroke-width:1.4148;stroke-dasharray:2.8295,2.8295;" x1="218.0316" x2="719.4641" y1="1622.9316" y2="1622.9316"/><text fill="#000000" font-family="'Segoe UI'" font-size="19.8067" lengthAdjust="spacing" textLength="131.7802" x="400.0283" y="1601.2833">blk (non-null)</text></g><path d="M42.4429,1641.3235 L42.4429,1706.4026 L377.7416,1706.4026 L377.7416,1655.4712 L363.594,1641.3235 L42.4429,1641.3235" fill="#FFFFFF" style="stroke:#000000;stroke-width:1.4148;"/><path d="M363.594,1641.3235 L363.594,1655.4712 L377.7416,1655.4712 L363.594,1641.3235" fill="#FFFFFF" style="stroke:#000000;stroke-width:1.4148;"/><text fill="#000000" font-family="'Segoe UI'" font-size="19.8067" lengthAdjust="spacing" textLength="278.6281" x="65.0791" y="1680.93">placement new &#8212; use block</text><rect fill="#FFFFFF" height="4.2443" style="stroke:#FFFFFF;stroke-width:1.4148;" width="2390.6876" x="7.0738" y="1757.9641"/><line style="stroke:#000000;stroke-width:0.7074;" x1="7.0738" x2="2397.7614" y1="1757.9641" y2="1757.9641"/><line style="stroke:#000000;stroke-width:0.7074;" x1="7.0738" x2="2397.7614" y1="1762.2084" y2="1762.2084"/><rect fill="#FFFFFF" height="62.6696" style="stroke:#000000;stroke-width:1.4148;" width="173.4314" x="1115.7019" y="1728.0441"/><text fill="#000000" font-family="'Segoe UI'" font-size="19.8067" font-weight="bold" lengthAdjust="spacing" textLength="118.4339" x="1138.3381" y="1766.2357">Deallocate</text><g class="message" data-participant-1="app" data-participant-2="mp"><polygon fill="#000000" points="696.8279,1859.0422,710.9755,1864.7013,696.8279,1870.3603,702.487,1864.7013" style="stroke:#000000;stroke-width:1.4148;"/><line style="stroke:#000000;stroke-width:1.4148;" x1="210.9578" x2="705.3165" y1="1864.7013" y2="1864.7013"/><text fill="#000000" font-family="'Segoe UI'" font-size="19.8067" lengthAdjust="spacing" textLength="196.6064" x="364.0782" y="1843.0529">pool.deallocate(blk)</text></g><g class="message" data-participant-1="mp" data-participant-2="bridge"><polygon fill="#000000" points="1280.394,1930.2004,1294.5416,1935.8594,1280.394,1941.5185,1286.053,1935.8594" style="stroke:#000000;stroke-width:1.4148;"/><line style="stroke:#000000;stroke-width:1.4148;" x1="727.9527" x2="1288.8825" y1="1935.8594" y2="1935.8594"/><text fill="#000000" font-family="'Segoe UI'" font-size="19.8067" lengthAdjust="spacing" textLength="448.3001" x="788.5118" y="1914.2111">osal_memory_pool_deallocate(&amp;handle_, blk)</text></g><g class="message" data-participant-1="bridge" data-participant-2="be"><polygon fill="#000000" points="1550.2268,2001.3585,1564.3744,2007.0175,1550.2268,2012.6766,1555.8858,2007.0175" style="stroke:#000000;stroke-width:1.4148;"/><line style="stroke:#000000;stroke-width:1.4148;" x1="1297.3711" x2="1558.7153" y1="2007.0175" y2="2007.0175"/><text fill="#000000" font-family="'Segoe UI'" font-size="19.8067" lengthAdjust="spacing" textLength="207.5832" x="1328.4959" y="1985.3692">calls implementation</text></g><g class="message" data-participant-1="be" data-participant-2="os"><polygon fill="#000000" points="2062.1498,2072.5166,2076.2974,2078.1757,2062.1498,2083.8347,2067.8088,2078.1757" style="stroke:#000000;stroke-width:1.4148;"/><line style="stroke:#000000;stroke-width:1.4148;" x1="1567.2039" x2="2070.6383" y1="2078.1757" y2="2078.1757"/><text fill="#000000" font-family="'Segoe UI'" font-size="19.8067" lengthAdjust="spacing" textLength="331.6941" x="1657.3184" y="2056.5273">k_mem_slab_free() / bitmap clear</text></g><g class="message" data-participant-1="os" data-participant-2="be"><polygon fill="#000000" points="1582.7663,2143.6748,1568.6187,2149.3338,1582.7663,2154.9929,1577.1073,2149.3338" style="stroke:#000000;stroke-width:1.4148;"/><line style="stroke:#000000;stroke-width:1.4148;stroke-dasharray:2.8295,2.8295;" x1="1574.2777" x2="2077.7122" y1="2149.3338" y2="2149.3338"/><text fill="#000000" font-family="'Segoe UI'" font-size="19.8067" lengthAdjust="spacing" textLength="12.6016" x="1816.8646" y="2127.6855">0</text></g><g class="message" data-participant-1="be" data-participant-2="bridge"><polygon fill="#000000" points="1312.9335,2214.8329,1298.7859,2220.492,1312.9335,2226.151,1307.2745,2220.492" style="stroke:#000000;stroke-width:1.4148;"/><line style="stroke:#000000;stroke-width:1.4148;stroke-dasharray:2.8295,2.8295;" x1="1304.4449" x2="1565.7892" y1="2220.492" y2="2220.492"/><text fill="#000000" font-family="'Segoe UI'" font-size="19.8067" lengthAdjust="spacing" textLength="105.2617" x="1379.6567" y="2198.8436">result{ok}</text></g><g class="message" data-participant-1="bridge" data-participant-2="mp"><polygon fill="#000000" points="743.5151,2285.991,729.3674,2291.6501,743.5151,2297.3091,737.856,2291.6501" style="stroke:#000000;stroke-width:1.4148;"/><line style="stroke:#000000;stroke-width:1.4148;stroke-dasharray:2.8295,2.8295;" x1="735.0265" x2="1295.9564" y1="2291.6501" y2="2291.6501"/><text fill="#000000" font-family="'Segoe UI'" font-size="19.8067" lengthAdjust="spacing" textLength="105.2617" x="960.0311" y="2270.0017">result{ok}</text></g><g class="message" data-participant-1="mp" data-participant-2="app"><polygon fill="#000000" points="226.5202,2357.1492,212.3726,2362.8082,226.5202,2368.4673,220.8612,2362.8082" style="stroke:#000000;stroke-width:1.4148;"/><line style="stroke:#000000;stroke-width:1.4148;stroke-dasharray:2.8295,2.8295;" x1="218.0316" x2="719.4641" y1="2362.8082" y2="2362.8082"/><text fill="#000000" font-family="'Segoe UI'" font-size="19.8067" lengthAdjust="spacing" textLength="105.2617" x="413.2875" y="2341.1599">result{ok}</text></g><rect fill="#FFFFFF" height="4.2443" style="stroke:#FFFFFF;stroke-width:1.4148;" width="2390.6876" x="7.0738" y="2418.194"/><line style="stroke:#000000;stroke-width:0.7074;" x1="7.0738" x2="2397.7614" y1="2418.194" y2="2418.194"/><line style="stroke:#000000;stroke-width:0.7074;" x1="7.0738" x2="2397.7614" y1="2422.4383" y2="2422.4383"/><rect fill="#FFFFFF" height="62.6696" style="stroke:#000000;stroke-width:1.4148;" width="227.0583" x="1088.8884" y="2388.2739"/><text fill="#000000" font-family="'Segoe UI'" font-size="19.8067" font-weight="bold" lengthAdjust="spacing" textLength="172.0608" x="1111.5247" y="2426.4656">Pool exhausted</text><g class="message" data-participant-1="app" data-participant-2="mp"><polygon fill="#000000" points="696.8279,2519.2721,710.9755,2524.9312,696.8279,2530.5902,702.487,2524.9312" style="stroke:#000000;stroke-width:1.4148;"/><line style="stroke:#000000;stroke-width:1.4148;" x1="210.9578" x2="705.3165" y1="2524.9312" y2="2524.9312"/><text fill="#000000" font-family="'Segoe UI'" font-size="19.8067" lengthAdjust="spacing" textLength="271.7518" x="326.5055" y="2503.2828">void* blk2 = pool.allocate()</text></g><g class="message" data-participant-1="mp" data-participant-2="bridge"><polygon fill="#000000" points="1280.394,2590.4303,1294.5416,2596.0893,1280.394,2601.7484,1286.053,2596.0893" style="stroke:#000000;stroke-width:1.4148;"/><line style="stroke:#000000;stroke-width:1.4148;" x1="727.9527" x2="1288.8825" y1="2596.0893" y2="2596.0893"/><text fill="#000000" font-family="'Segoe UI'" font-size="19.8067" lengthAdjust="spacing" textLength="381.4042" x="821.9598" y="2574.441">osal_memory_pool_allocate(&amp;handle_)</text></g><g class="message" data-participant-1="bridge" data-participant-2="be"><polygon fill="#000000" points="1550.2268,2661.5884,1564.3744,2667.2474,1550.2268,2672.9065,1555.8858,2667.2474" style="stroke:#000000;stroke-width:1.4148;"/><line style="stroke:#000000;stroke-width:1.4148;" x1="1297.3711" x2="1558.7153" y1="2667.2474" y2="2667.2474"/><text fill="#000000" font-family="'Segoe UI'" font-size="19.8067" lengthAdjust="spacing" textLength="207.5832" x="1328.4959" y="2645.5991">calls implementation</text></g><g class="message" data-participant-1="be" data-participant-2="os"><polygon fill="#000000" points="2062.1498,2732.7465,2076.2974,2738.4056,2062.1498,2744.0646,2067.8088,2738.4056" style="stroke:#000000;stroke-width:1.4148;"/><line style="stroke:#000000;stroke-width:1.4148;" x1="1567.2039" x2="2070.6383" y1="2738.4056" y2="2738.4056"/><text fill="#000000" font-family="'Segoe UI'" font-size="19.8067" lengthAdjust="spacing" textLength="158.0182" x="1744.1563" y="2716.7572">all blocks in use</text></g><g class="message" data-participant-1="os" data-participant-2="be"><polygon fill="#000000" points="1582.7663,2803.9047,1568.6187,2809.5637,1582.7663,2815.2228,1577.1073,2809.5637" style="stroke:#000000;stroke-width:1.4148;"/><line style="stroke:#000000;stroke-width:1.4148;stroke-dasharray:2.8295,2.8295;" x1="1574.2777" x2="2077.7122" y1="2809.5637" y2="2809.5637"/><text fill="#000000" font-family="'Segoe UI'" font-size="19.8067" lengthAdjust="spacing" textLength="64.5941" x="1790.8684" y="2787.9154">nullptr</text></g><g class="message" data-participant-1="be" data-participant-2="bridge"><polygon fill="#000000" points="1312.9335,2875.0628,1298.7859,2880.7219,1312.9335,2886.3809,1307.2745,2880.7219" style="stroke:#000000;stroke-width:1.4148;"/><line style="stroke:#000000;stroke-width:1.4148;stroke-dasharray:2.8295,2.8295;" x1="1304.4449" x2="1565.7892" y1="2880.7219" y2="2880.7219"/><text fill="#000000" font-family="'Segoe UI'" font-size="19.8067" lengthAdjust="spacing" textLength="64.5941" x="1399.9905" y="2859.0735">nullptr</text></g><g class="message" data-participant-1="bridge" data-participant-2="mp"><polygon fill="#000000" points="743.5151,2946.2209,729.3674,2951.88,743.5151,2957.539,737.856,2951.88" style="stroke:#000000;stroke-width:1.4148;"/><line style="stroke:#000000;stroke-width:1.4148;stroke-dasharray:2.8295,2.8295;" x1="735.0265" x2="1295.9564" y1="2951.88" y2="2951.88"/><text fill="#000000" font-family="'Segoe UI'" font-size="19.8067" lengthAdjust="spacing" textLength="64.5941" x="980.3648" y="2930.2316">nullptr</text></g><g class="message" data-participant-1="mp" data-participant-2="app"><polygon fill="#000000" points="226.5202,3017.3791,212.3726,3023.0381,226.5202,3028.6972,220.8612,3023.0381" style="stroke:#000000;stroke-width:1.4148;"/><line style="stroke:#000000;stroke-width:1.4148;stroke-dasharray:2.8295,2.8295;" x1="218.0316" x2="719.4641" y1="3023.0381" y2="3023.0381"/><text fill="#000000" font-family="'Segoe UI'" font-size="19.8067" lengthAdjust="spacing" textLength="64.5941" x="433.6213" y="3001.3898">nullptr</text></g><path d="M76.3972,3041.43 L76.3972,3106.5091 L342.3725,3106.5091 L342.3725,3055.5777 L328.2249,3041.43 L76.3972,3041.43" fill="#FFFFFF" style="stroke:#000000;stroke-width:1.4148;"/><path d="M328.2249,3041.43 L328.2249,3055.5777 L342.3725,3055.5777 L328.2249,3041.43" fill="#FFFFFF" style="stroke:#000000;stroke-width:1.4148;"/><text fill="#000000" font-family="'Segoe UI'" font-size="19.8067" lengthAdjust="spacing" textLength="209.3724" x="99.0334" y="3081.0365">caller handles nullptr</text><rect fill="#FFFFFF" height="4.2443" style="stroke:#FFFFFF;stroke-width:1.4148;" width="2390.6876" x="7.0738" y="3158.0706"/><line style="stroke:#000000;stroke-width:0.7074;" x1="7.0738" x2="2397.7614" y1="3158.0706" y2="3158.0706"/><line style="stroke:#000000;stroke-width:0.7074;" x1="7.0738" x2="2397.7614" y1="3162.3149" y2="3162.3149"/><rect fill="#FFFFFF" height="62.6696" style="stroke:#000000;stroke-width:1.4148;" width="295.4726" x="1054.6813" y="3128.1506"/><text fill="#000000" font-family="'Segoe UI'" font-size="19.8067" font-weight="bold" lengthAdjust="spacing" textLength="240.4751" x="1077.3175" y="3166.3422">Allocate with timeout</text><g class="message" data-participant-1="app" data-participant-2="mp"><polygon fill="#000000" points="696.8279,3259.1487,710.9755,3264.8078,696.8279,3270.4668,702.487,3264.8078" style="stroke:#000000;stroke-width:1.4148;"/><line style="stroke:#000000;stroke-width:1.4148;" x1="210.9578" x2="705.3165" y1="3264.8078" y2="3264.8078"/><text fill="#000000" font-family="'Segoe UI'" font-size="19.8067" lengthAdjust="spacing" textLength="376.3075" x="274.2277" y="3243.1594">void* blk3 = pool.allocate_for(500ms)</text></g><g class="message" data-participant-1="mp" data-participant-2="mp"><line style="stroke:#000000;stroke-width:1.4148;" x1="727.9527" x2="787.3727" y1="3335.9659" y2="3335.9659"/><line style="stroke:#000000;stroke-width:1.4148;" x1="787.3727" x2="787.3727" y1="3335.9659" y2="3354.3578"/><line style="stroke:#000000;stroke-width:1.4148;" x1="729.3674" x2="787.3727" y1="3354.3578" y2="3354.3578"/><polygon fill="#000000" points="743.5151,3348.6988,729.3674,3354.3578,743.5151,3360.0169,737.856,3354.3578" style="stroke:#000000;stroke-width:1.4148;"/><text fill="#000000" font-family="'Segoe UI'" font-size="19.8067" lengthAdjust="spacing" textLength="168.5115" x="752.0036" y="3314.3176">ms_to_ticks(500)</text></g><g class="message" data-participant-1="mp" data-participant-2="bridge"><polygon fill="#000000" points="1280.394,3419.8569,1294.5416,3425.516,1280.394,3431.175,1286.053,3425.516" style="stroke:#000000;stroke-width:1.4148;"/><line style="stroke:#000000;stroke-width:1.4148;" x1="727.9527" x2="1288.8825" y1="3425.516" y2="3425.516"/><text fill="#000000" font-family="'Segoe UI'" font-size="19.8067" lengthAdjust="spacing" textLength="507.1689" x="759.0775" y="3403.8676">osal_memory_pool_allocate_timed(&amp;handle_, ticks)</text></g><g class="message" data-participant-1="bridge" data-participant-2="be"><polygon fill="#000000" points="1550.2268,3491.0151,1564.3744,3496.6741,1550.2268,3502.3332,1555.8858,3496.6741" style="stroke:#000000;stroke-width:1.4148;"/><line style="stroke:#000000;stroke-width:1.4148;" x1="1297.3711" x2="1558.7153" y1="3496.6741" y2="3496.6741"/><text fill="#000000" font-family="'Segoe UI'" font-size="19.8067" lengthAdjust="spacing" textLength="207.5832" x="1328.4959" y="3475.0257">calls implementation</text></g><g class="message" data-participant-1="be" data-participant-2="os"><polygon fill="#000000" points="2062.1498,3562.1732,2076.2974,3567.8322,2062.1498,3573.4913,2067.8088,3567.8322" style="stroke:#000000;stroke-width:1.4148;"/><line style="stroke:#000000;stroke-width:1.4148;" x1="1567.2039" x2="2070.6383" y1="3567.8322" y2="3567.8322"/><text fill="#000000" font-family="'Segoe UI'" font-size="19.8067" lengthAdjust="spacing" textLength="349.0056" x="1648.6626" y="3546.1839">k_mem_slab_alloc(ticks) / sem wait</text></g><path d="M2085.36,3586.2242 L2085.36,3673.9394 L2389.534,3673.9394 L2389.534,3600.3718 L2375.3863,3586.2242 L2085.36,3586.2242" fill="#FFFFFF" style="stroke:#000000;stroke-width:1.4148;"/><path d="M2375.3863,3586.2242 L2375.3863,3600.3718 L2389.534,3600.3718 L2375.3863,3586.2242" fill="#FFFFFF" style="stroke:#000000;stroke-width:1.4148;"/><text fill="#000000" font-family="'Segoe UI'" font-size="19.8067" lengthAdjust="spacing" textLength="213.4634" x="2107.9962" y="3625.8306">Blocks until a block is</text><text fill="#000000" font-family="'Segoe UI'" font-size="19.8067" lengthAdjust="spacing" textLength="247.3223" x="2107.9962" y="3648.8868">freed or timeout expires.</text><g class="message" data-participant-1="os" data-participant-2="be"><polygon fill="#000000" points="1582.7663,3736.0342,1568.6187,3741.6933,1582.7663,3747.3523,1577.1073,3741.6933" style="stroke:#000000;stroke-width:1.4148;"/><line style="stroke:#000000;stroke-width:1.4148;stroke-dasharray:2.8295,2.8295;" x1="1574.2777" x2="2077.7122" y1="3741.6933" y2="3741.6933"/><text fill="#000000" font-family="'Segoe UI'" font-size="19.8067" lengthAdjust="spacing" textLength="183.7437" x="1731.2936" y="3720.0449">pointer (or nullptr)</text></g><g class="message" data-participant-1="be" data-participant-2="bridge"><polygon fill="#000000" points="1312.9335,3807.1924,1298.7859,3812.8514,1312.9335,3818.5105,1307.2745,3812.8514" style="stroke:#000000;stroke-width:1.4148;"/><line style="stroke:#000000;stroke-width:1.4148;stroke-dasharray:2.8295,2.8295;" x1="1304.4449" x2="1565.7892" y1="3812.8514" y2="3812.8514"/><text fill="#000000" font-family="'Segoe UI'" font-size="19.8067" lengthAdjust="spacing" textLength="42.1472" x="1411.2139" y="3791.2031">blk3</text></g><g class="message" data-participant-1="bridge" data-participant-2="mp"><polygon fill="#000000" points="743.5151,3878.3505,729.3674,3884.0096,743.5151,3889.6686,737.856,3884.0096" style="stroke:#000000;stroke-width:1.4148;"/><line style="stroke:#000000;stroke-width:1.4148;stroke-dasharray:2.8295,2.8295;" x1="735.0265" x2="1295.9564" y1="3884.0096" y2="3884.0096"/><text fill="#000000" font-family="'Segoe UI'" font-size="19.8067" lengthAdjust="spacing" textLength="42.1472" x="991.5883" y="3862.3612">blk3</text></g><g class="message" data-participant-1="mp" data-participant-2="app"><polygon fill="#000000" points="226.5202,3949.5087,212.3726,3955.1677,226.5202,3960.8268,220.8612,3955.1677" style="stroke:#000000;stroke-width:1.4148;"/><line style="stroke:#000000;stroke-width:1.4148;stroke-dasharray:2.8295,2.8295;" x1="218.0316" x2="719.4641" y1="3955.1677" y2="3955.1677"/><text fill="#000000" font-family="'Segoe UI'" font-size="19.8067" lengthAdjust="spacing" textLength="42.1472" x="444.8447" y="3933.5193">blk3</text></g><rect fill="#FFFFFF" height="4.2443" style="stroke:#FFFFFF;stroke-width:1.4148;" width="2390.6876" x="7.0738" y="4010.5534"/><line style="stroke:#000000;stroke-width:0.7074;" x1="7.0738" x2="2397.7614" y1="4010.5534" y2="4010.5534"/><line style="stroke:#000000;stroke-width:0.7074;" x1="7.0738" x2="2397.7614" y1="4014.7977" y2="4014.7977"/><rect fill="#FFFFFF" height="62.6696" style="stroke:#000000;stroke-width:1.4148;" width="308.1032" x="1048.366" y="3980.6334"/><text fill="#000000" font-family="'Segoe UI'" font-size="19.8067" font-weight="bold" lengthAdjust="spacing" textLength="253.1057" x="1071.0022" y="4018.8251">Query available blocks</text><g class="message" data-participant-1="app" data-participant-2="mp"><polygon fill="#000000" points="696.8279,4111.6316,710.9755,4117.2906,696.8279,4122.9497,702.487,4117.2906" style="stroke:#000000;stroke-width:1.4148;"/><line style="stroke:#000000;stroke-width:1.4148;" x1="210.9578" x2="705.3165" y1="4117.2906" y2="4117.2906"/><text fill="#000000" font-family="'Segoe UI'" font-size="19.8067" lengthAdjust="spacing" textLength="301.5779" x="311.5925" y="4095.6423">std::size_t n = pool.available()</text></g><g class="message" data-participant-1="mp" data-participant-2="bridge"><polygon fill="#000000" points="1280.394,4182.7897,1294.5416,4188.4488,1280.394,4194.1078,1286.053,4188.4488" style="stroke:#000000;stroke-width:1.4148;"/><line style="stroke:#000000;stroke-width:1.4148;" x1="727.9527" x2="1288.8825" y1="4188.4488" y2="4188.4488"/><text fill="#000000" font-family="'Segoe UI'" font-size="19.8067" lengthAdjust="spacing" textLength="392.5648" x="816.3795" y="4166.8004">osal_memory_pool_available(&amp;handle_)</text></g><g class="message" data-participant-1="bridge" data-participant-2="be"><polygon fill="#000000" points="1550.2268,4253.9479,1564.3744,4259.6069,1550.2268,4265.266,1555.8858,4259.6069" style="stroke:#000000;stroke-width:1.4148;"/><line style="stroke:#000000;stroke-width:1.4148;" x1="1297.3711" x2="1558.7153" y1="4259.6069" y2="4259.6069"/><text fill="#000000" font-family="'Segoe UI'" font-size="19.8067" lengthAdjust="spacing" textLength="207.5832" x="1328.4959" y="4237.9586">calls implementation</text></g><g class="message" data-participant-1="be" data-participant-2="bridge"><polygon fill="#000000" points="1312.9335,4325.106,1298.7859,4330.7651,1312.9335,4336.4241,1307.2745,4330.7651" style="stroke:#000000;stroke-width:1.4148;"/><line style="stroke:#000000;stroke-width:1.4148;stroke-dasharray:2.8295,2.8295;" x1="1304.4449" x2="1565.7892" y1="4330.7651" y2="4330.7651"/><text fill="#000000" font-family="'Segoe UI'" font-size="19.8067" lengthAdjust="spacing" textLength="55.8804" x="1404.3473" y="4309.1167">count</text></g><g class="message" data-participant-1="bridge" data-participant-2="mp"><polygon fill="#000000" points="743.5151,4396.2641,729.3674,4401.9232,743.5151,4407.5822,737.856,4401.9232" style="stroke:#000000;stroke-width:1.4148;"/><line style="stroke:#000000;stroke-width:1.4148;stroke-dasharray:2.8295,2.8295;" x1="735.0265" x2="1295.9564" y1="4401.9232" y2="4401.9232"/><text fill="#000000" font-family="'Segoe UI'" font-size="19.8067" lengthAdjust="spacing" textLength="55.8804" x="984.7217" y="4380.2748">count</text></g><g class="message" data-participant-1="mp" data-participant-2="app"><polygon fill="#000000" points="226.5202,4467.4223,212.3726,4473.0813,226.5202,4478.7404,220.8612,4473.0813" style="stroke:#000000;stroke-width:1.4148;"/><line style="stroke:#000000;stroke-width:1.4148;stroke-dasharray:2.8295,2.8295;" x1="218.0316" x2="719.4641" y1="4473.0813" y2="4473.0813"/><text fill="#000000" font-family="'Segoe UI'" font-size="19.8067" lengthAdjust="spacing" textLength="12.5533" x="459.6417" y="4451.433">n</text></g><rect fill="#FFFFFF" height="4.2443" style="stroke:#FFFFFF;stroke-width:1.4148;" width="2390.6876" x="7.0738" y="4528.4671"/><line style="stroke:#000000;stroke-width:0.7074;" x1="7.0738" x2="2397.7614" y1="4528.4671" y2="4528.4671"/><line style="stroke:#000000;stroke-width:0.7074;" x1="7.0738" x2="2397.7614" y1="4532.7114" y2="4532.7114"/><rect fill="#FFFFFF" height="62.6696" style="stroke:#000000;stroke-width:1.4148;" width="185.7042" x="1109.5655" y="4498.5471"/><text fill="#000000" font-family="'Segoe UI'" font-size="19.8067" font-weight="bold" lengthAdjust="spacing" textLength="130.7067" x="1132.2017" y="4536.7387">Destruction</text><g class="message" data-participant-1="app" data-participant-2="mp"><polygon fill="#000000" points="696.8279,4629.5452,710.9755,4635.2043,696.8279,4640.8633,702.487,4635.2043" style="stroke:#000000;stroke-width:1.4148;"/><line style="stroke:#000000;stroke-width:1.4148;" x1="210.9578" x2="705.3165" y1="4635.2043" y2="4635.2043"/><text fill="#000000" font-family="'Segoe UI'" font-size="19.8067" lengthAdjust="spacing" textLength="167.0221" x="378.8704" y="4613.5559">~memory_pool()</text></g><g class="message" data-participant-1="mp" data-participant-2="bridge"><polygon fill="#000000" points="1280.394,4700.7034,1294.5416,4706.3624,1280.394,4712.0215,1286.053,4706.3624" style="stroke:#000000;stroke-width:1.4148;"/><line style="stroke:#000000;stroke-width:1.4148;" x1="727.9527" x2="1288.8825" y1="4706.3624" y2="4706.3624"/><text fill="#000000" font-family="'Segoe UI'" font-size="19.8067" lengthAdjust="spacing" textLength="377.9903" x="823.6668" y="4684.7141">osal_memory_pool_destroy(&amp;handle_)</text></g><g class="message" data-participant-1="bridge" data-participant-2="be"><polygon fill="#000000" points="1550.2268,4771.8615,1564.3744,4777.5205,1550.2268,4783.1796,1555.8858,4777.5205" style="stroke:#000000;stroke-width:1.4148;"/><line style="stroke:#000000;stroke-width:1.4148;" x1="1297.3711" x2="1558.7153" y1="4777.5205" y2="4777.5205"/><text fill="#000000" font-family="'Segoe UI'" font-size="19.8067" lengthAdjust="spacing" textLength="207.5832" x="1328.4959" y="4755.8722">calls implementation</text></g><g class="message" data-participant-1="be" data-participant-2="os"><polygon fill="#000000" points="2062.1498,4843.0196,2076.2974,4848.6787,2062.1498,4854.3377,2067.8088,4848.6787" style="stroke:#000000;stroke-width:1.4148;"/><line style="stroke:#000000;stroke-width:1.4148;" x1="1567.2039" x2="2070.6383" y1="4848.6787" y2="4848.6787"/><text fill="#000000" font-family="'Segoe UI'" font-size="19.8067" lengthAdjust="spacing" textLength="154.1691" x="1746.0809" y="4827.0303">cleanup / no-op</text></g><g class="message" data-participant-1="os" data-participant-2="be"><polygon fill="#000000" points="1582.7663,4862.8263,1568.6187,4868.4854,1582.7663,4874.1444,1577.1073,4868.4854" style="stroke:#000000;stroke-width:1.4148;"/><line style="stroke:#000000;stroke-width:1.4148;stroke-dasharray:2.8295,2.8295;" x1="1574.2777" x2="2077.7122" y1="4868.4854" y2="4868.4854"/></g><g class="message" data-participant-1="be" data-participant-2="bridge"><polygon fill="#000000" points="1312.9335,4933.9844,1298.7859,4939.6435,1312.9335,4945.3025,1307.2745,4939.6435" style="stroke:#000000;stroke-width:1.4148;"/><line style="stroke:#000000;stroke-width:1.4148;stroke-dasharray:2.8295,2.8295;" x1="1304.4449" x2="1565.7892" y1="4939.6435" y2="4939.6435"/><text fill="#000000" font-family="'Segoe UI'" font-size="19.8067" lengthAdjust="spacing" textLength="105.2617" x="1379.6567" y="4917.9951">result{ok}</text></g><g class="message" data-participant-1="bridge" data-participant-2="mp"><polygon fill="#000000" points="736.4413,4953.7911,722.2936,4959.4502,736.4413,4965.1092,730.7822,4959.4502" style="stroke:#000000;stroke-width:1.4148;"/><line style="stroke:#000000;stroke-width:1.4148;stroke-dasharray:2.8295,2.8295;" x1="727.9527" x2="1295.9564" y1="4959.4502" y2="4959.4502"/></g><!--SRC=[nPRXYXit4CU_xrDCBb1smzc-nWHQWmk-Enj2arpAjHHAO96rOrknLb8bhU-SqDA7w1FsIJhIthgxje_6IQ4SdBtIp6ZcDt_D-ebVOObW91CgUI8KbrM1C5Zf4WVlvqmMTq8Dtbhz7hbtWr9mUtCxUJKeD7U3Gh2bPQKRv1PLWJOtLY-4HFeKolTDLSh4hOKoZAnWplXwQNMbYYijjOMdisduQraKk62Lz3Ej_1j6IPtTub8Z_FJoh6NayDSA5SVNw1nRuaIAfGAEogDD4Y-yH7YDfRPRUAkrXB_- -1CcKchEF9K5ryYQXrTYWNpB9IO9HVQ22yEKXxE9CLAGXT3g39W3PWmydNupUp7zjcke7PEZKHaFomqTzawbAsG4egULt6RHkmpEmzdpsNNN6UyfOGLNCBUYME8x5QBbhM3vixIEK1iGhjbiEBteHhaafeGU-jmOEXtxopxyWcQrjG- -qMzwEPrs_MvkYSMqh6Gii_5SX_Dp9zcyzjQESh-QpcPV9udIX4nlq0OU2S0LSQG7LmLQw81a53iir1BcrM91tG18dQSbe6RJ5phz74WX1gtS0WjzmoBh9o7_43r9ncEuqifvM_6G5ep7IHBezxuB64VGeWFXNqe7dOVJSlU1FkKwVdAIcCyIHZ4seS-bISeOum7a20vGSujacNwrOgeW-SQOvz3lzxFamIcu1rTEPJiGfP5qQvIF-99vt2TQenR2N2ZXqumupuKlcO7md91HhubrGNmgpad7MGpHJj6YevlmKQz_ssNGK6XjXRfeEJ0QmOQG5dGWKII2c1JOHX3Wxkv1ghJgpUaXj2ixuBpHedWMUC8uSkutToOz3UlEhG7x9JXZiFJx_CrD_lFavOyji8uprG5hj0ZZ0Bo6XKNIPQZq076eBu9GbPJP0MRQxlBTiz_3sxaV8GV9UAm95Dx5ALIv9fFGYzOWsiSVaHUx_PGEFerxoxSbwH3by_47a6qrqznajYld_qB4hVL3_SQ1ZlShLZcFnUEoVVw_wvQswrwJaGgTxv0A0ZBU7l3QhU_1QjOxf9h5Vz4Xh-TqNOZRUNN6mPtmA_2YH5tvnwaEzwdc2stJ5nSNfJk6jvxOBlSwfyc_Ti4o-sJqUKYdQCatnlZo-L678HaxBE6EqKIEmAnOhZpe1NdHQ-koxXozHeG4LZSIHDW9jw08xxE65juRGPfjlSME3QAKF1x8PyVcqF3Oz1aUZ9_XaJlnGuNqKuTjcA0Y9JQgs- -YyyLevCG70WjgryZ6wzJxiVCx_OAq0yStzK7fzMfNwqSAlyR7VoZytiesFNLsKbYz_Voh7mQZgWn9JEcUDl_euPF7urwnVmC0]--></g></svg>