<svg xmlns="http://www.w3.org/2000/svg" xmlns:xlink="http://www.w3.org/1999/xlink" contentStyleType="text/css" data-diagram-type="SEQUENCE" height="4584.4508px" preserveAspectRatio="none" style="width:2408px;height:4584px;background:#FEFEFE;" version="1.1" viewBox="0 0 2408 4584" width="2408.2597px" zoomAndPan="magnify"><title>Mutex Lock / Unlock - Call Flow</title><defs/><g><rect fill="#FEFEFE" height="4584.4508" style="stroke:none;stroke-width:2.1893;" width="2408.2597" x="0" y="0"/><text fill="#000000" font-family="'Segoe UI'" font-size="48.1652" font-weight="bold" lengthAdjust="spacing" textLength="842.985" x="779.4432" y="99.4412">Mutex Lock / Unlock - Call Flow</text><g><title>osal..mutex</title><rect fill="#FFFFFF" height="770.8142" style="stroke:#000000;stroke-width:2.1893;" width="21.8933" x="504.9873" y="560.023"/></g><g><title>osal..mutex</title><rect fill="#FFFFFF" height="909.3917" style="stroke:#000000;stroke-width:2.1893;" width="21.8933" x="504.9873" y="1581.7204"/></g><g><title>osal..mutex</title><rect fill="#FFFFFF" height="770.8142" style="stroke:#000000;stroke-width:2.1893;" width="21.8933" x="504.9873" y="2865.2475"/></g><g><title>osal..mutex</title><rect fill="#FFFFFF" height="501.7664" style="stroke:#000000;stroke-width:2.1893;" width="21.8933" x="504.9873" y="3886.9449"/></g><g><title>Application</title><rect fill="#000000" fill-opacity="0.00000" height="4123.358" width="17.5146" x="168.823" y="304.7612"/><line style="stroke:#000000;stroke-width:2.1893;stroke-dasharray:10.9466,10.9466;" x1="177.3355" x2="177.3355" y1="304.7612" y2="4428.1192"/></g><g><title>osal..mutex</title><rect fill="#000000" fill-opacity="0.00000" height="4123.358" width="17.5146" x="507.1766" y="304.7612"/><line style="stroke:#000000;stroke-width:2.1893;stroke-dasharray:10.9466,10.9466;" x1="514.9376" x2="514.9376" y1="304.7612" y2="4428.1192"/></g><g><title>extern C bridge</title><rect fill="#000000" fill-opacity="0.00000" height="4123.358" width="17.5146" x="1163.3953" y="304.7612"/><line style="stroke:#000000;stroke-width:2.1893;stroke-dasharray:10.9466,10.9466;" x1="1170.8121" x2="1170.8121" y1="304.7612" y2="4428.1192"/></g><g><title>Backend .cpp</title><rect fill="#000000" fill-opacity="0.00000" height="4123.358" width="17.5146" x="1580.9582" y="304.7612"/><line style="stroke:#000000;stroke-width:2.1893;stroke-dasharray:10.9466,10.9466;" x1="1588.9137" x2="1588.9137" y1="304.7612" y2="4428.1192"/></g><g><title>OS Kernel</title><rect fill="#000000" fill-opacity="0.00000" height="4123.358" width="17.5146" x="2208.2709" y="304.7612"/><line style="stroke:#000000;stroke-width:2.1893;stroke-dasharray:10.9466,10.9466;" x1="2216.0886" x2="2216.0886" y1="304.7612" y2="4428.1192"/></g><g class="participant participant-head" data-participant="app"><rect fill="#E8F5E9" height="110.1163" rx="5.4733" ry="5.4733" style="stroke:#000000;stroke-width:2.1893;" width="245.6942" x="54.7332" y="192.4555"/><text fill="#000000" font-family="'Segoe UI'" font-size="30.6506" lengthAdjust="spacing" textLength="171.2571" x="91.9517" y="258.1247">Application</text></g><g class="participant participant-tail" data-participant="app"><rect fill="#E8F5E9" height="110.1163" rx="5.4733" ry="5.4733" style="stroke:#000000;stroke-width:2.1893;" width="245.6942" x="54.7332" y="4425.9298"/><text fill="#000000" font-family="'Segoe UI'" font-size="30.6506" lengthAdjust="spacing" textLength="171.2571" x="91.9517" y="4491.599">Application</text></g><g class="participant participant-head" data-participant="mtx"><rect fill="#E3F2FD" height="145.7955" rx="5.4733" ry="5.4733" style="stroke:#000000;stroke-width:2.1893;" width="282.2265" x="374.8207" y="156.7763"/><text fill="#000000" font-family="'Segoe UI'" font-size="30.6506" lengthAdjust="spacing" textLength="180.9701" x="425.4489" y="222.4455">osal::mutex</text><text fill="#000000" font-family="'Segoe UI'" font-size="30.6506" lengthAdjust="spacing" textLength="207.7894" x="412.0393" y="258.1247">(header-only)</text></g><g class="participant participant-tail" data-participant="mtx"><rect fill="#E3F2FD" height="145.7955" rx="5.4733" ry="5.4733" style="stroke:#000000;stroke-width:2.1893;" width="282.2265" x="374.8207" y="4425.9298"/><text fill="#000000" font-family="'Segoe UI'" font-size="30.6506" lengthAdjust="spacing" textLength="180.9701" x="425.4489" y="4491.599">osal::mutex</text><text fill="#000000" font-family="'Segoe UI'" font-size="30.6506" lengthAdjust="spacing" textLength="207.7894" x="412.0393" y="4527.2782">(header-only)</text></g><g class="participant participant-head" data-participant="bridge"><rect fill="#FFF3E0" height="145.7955" rx="5.4733" ry="5.4733" style="stroke:#000000;stroke-width:2.1893;" width="313.5655" x="1015.3699" y="156.7763"/><text fill="#000000" font-family="'Segoe UI'" font-size="30.6506" lengthAdjust="spacing" textLength="239.1284" x="1052.5885" y="222.4455">extern C bridge</text><text fill="#000000" font-family="'Segoe UI'" font-size="30.6506" lengthAdjust="spacing" textLength="230.2086" x="1057.0484" y="258.1247">osal_mutex_*()</text></g><g class="participant participant-tail" data-participant="bridge"><rect fill="#FFF3E0" height="145.7955" rx="5.4733" ry="5.4733" style="stroke:#000000;stroke-width:2.1893;" width="313.5655" x="1015.3699" y="4425.9298"/><text fill="#000000" font-family="'Segoe UI'" font-size="30.6506" lengthAdjust="spacing" textLength="239.1284" x="1052.5885" y="4491.599">extern C bridge</text><text fill="#000000" font-family="'Segoe UI'" font-size="30.6506" lengthAdjust="spacing" textLength="230.2086" x="1057.0484" y="4527.2782">osal_mutex_*()</text></g><g class="participant participant-head" data-participant="be"><rect fill="#FFEBEE" height="145.7955" rx="5.4733" ry="5.4733" style="stroke:#000000;stroke-width:2.1893;" width="281.8374" x="1448.7968" y="156.7763"/><text fill="#000000" font-family="'Segoe UI'" font-size="30.6506" lengthAdjust="spacing" textLength="207.4003" x="1486.0153" y="222.4455">Backend .cpp</text><text fill="#000000" font-family="'Segoe UI'" font-size="30.6506" lengthAdjust="spacing" textLength="174.0408" x="1502.6951" y="258.1247">(e.g. Linux)</text></g><g class="participant participant-tail" data-participant="be"><rect fill="#FFEBEE" height="145.7955" rx="5.4733" ry="5.4733" style="stroke:#000000;stroke-width:2.1893;" width="281.8374" x="1448.7968" y="4425.9298"/><text fill="#000000" font-family="'Segoe UI'" font-size="30.6506" lengthAdjust="spacing" textLength="207.4003" x="1486.0153" y="4491.599">Backend .cpp</text><text fill="#000000" font-family="'Segoe UI'" font-size="30.6506" lengthAdjust="spacing" textLength="174.0408" x="1502.6951" y="4527.2782">(e.g. Linux)</text></g><g class="participant participant-head" data-participant="os"><rect fill="#ECEFF1" height="145.7955" rx="5.4733" ry="5.4733" style="stroke:#000000;stroke-width:2.1893;" width="286.4918" x="2073.7823" y="156.7763"/><text fill="#000000" font-family="'Segoe UI'" font-size="30.6506" lengthAdjust="spacing" textLength="151.6815" x="2141.1875" y="222.4455">OS Kernel</text><text fill="#000000" font-family="'Segoe UI'" font-size="30.6506" lengthAdjust="spacing" textLength="212.0547" x="2111.0009" y="258.1247">(e.g. pthread)</text></g><g class="participant participant-tail" data-participant="os"><rect fill="#ECEFF1" height="145.7955" rx="5.4733" ry="5.4733" style="stroke:#000000;stroke-width:2.1893;" width="286.4918" x="2073.7823" y="4425.9298"/><text fill="#000000" font-family="'Segoe UI'" font-size="30.6506" lengthAdjust="spacing" textLength="151.6815" x="2141.1875" y="4491.599">OS Kernel</text><text fill="#000000" font-family="'Segoe UI'" font-size="30.6506" lengthAdjust="spacing" textLength="212.0547" x="2111.0009" y="4527.2782">(e.g. pthread)</text></g><g><title>osal..mutex</title><rect fill="#FFFFFF" height="770.8142" style="stroke:#000000;stroke-width:2.1893;" width="21.8933" x="504.9873" y="560.023"/></g><g><title>osal..mutex</title><rect fill="#FFFFFF" height="909.3917" style="stroke:#000000;stroke-width:2.1893;" width="21.8933" x="504.9873" y="1581.7204"/></g><g><title>osal..mutex</title><rect fill="#FFFFFF" height="770.8142" style="stroke:#000000;stroke-width:2.1893;" width="21.8933" x="504.9873" y="2865.2475"/></g><g><title>osal..mutex</title><rect fill="#FFFFFF" height="501.7664" style="stroke:#000000;stroke-width:2.1893;" width="21.8933" x="504.9873" y="3886.9449"/></g><rect fill="#FFFFFF" height="6.568" style="stroke:#FFFFFF;stroke-width:2.1893;" width="2382.1674" x="10.9466" y="394.8486"/><line style="stroke:#000000;stroke-width:1.0947;" x1="10.9466" x2="2393.114" y1="394.8486" y2="394.8486"/><line style="stroke:#000000;stroke-width:1.0947;" x1="10.9466" x2="2393.114" y1="401.4165" y2="401.4165"/><rect fill="#FFFFFF" height="96.9803" style="stroke:#000000;stroke-width:2.1893;" width="306.5165" x="1048.7721" y="348.5477"/><text fill="#000000" font-family="'Segoe UI'" font-size="30.6506" font-weight="bold" lengthAdjust="spacing" textLength="221.4085" x="1083.8013" y="407.6488">Construction</text><g class="message" data-participant-1="app" data-participant-2="mtx"><polygon fill="#000000" points="478.7154,551.2657,500.6087,560.023,478.7154,568.7803,487.4727,560.023" style="stroke:#000000;stroke-width:2.1893;"/><line style="stroke:#000000;stroke-width:2.1893;" x1="177.5803" x2="491.8513" y1="560.023" y2="560.023"/><text fill="#000000" font-family="'Segoe UI'" font-size="30.6506" lengthAdjust="spacing" textLength="148.2243" x="267.1717" y="526.5225">mutex m;</text></g><g class="message" data-participant-1="mtx" data-participant-2="bridge"><polygon fill="#000000" points="1145.8807,661.382,1167.774,670.1393,1145.8807,678.8966,1154.638,670.1393" style="stroke:#000000;stroke-width:2.1893;"/><line style="stroke:#000000;stroke-width:2.1893;" x1="526.8806" x2="1159.0167" y1="670.1393" y2="670.1393"/><text fill="#000000" font-family="'Segoe UI'" font-size="30.6506" lengthAdjust="spacing" textLength="548.9417" x="575.0458" y="636.6388">osal_mutex_create(&amp;handle_, false)</text></g><g class="message" data-participant-1="bridge" data-participant-2="be"><polygon fill="#000000" points="1563.4435,771.4983,1585.3368,780.2556,1563.4435,789.0129,1572.2009,780.2556" style="stroke:#000000;stroke-width:2.1893;"/><line style="stroke:#000000;stroke-width:2.1893;" x1="1172.1527" x2="1576.5795" y1="780.2556" y2="780.2556"/><text fill="#000000" font-family="'Segoe UI'" font-size="30.6506" lengthAdjust="spacing" textLength="321.2324" x="1220.3178" y="746.7551">calls implementation</text></g><g class="message" data-participant-1="be" data-participant-2="os"><polygon fill="#000000" points="2190.7563,881.6146,2212.6496,890.3719,2190.7563,899.1292,2199.5136,890.3719" style="stroke:#000000;stroke-width:2.1893;"/><line style="stroke:#000000;stroke-width:2.1893;" x1="1589.7155" x2="2203.8923" y1="890.3719" y2="890.3719"/><text fill="#000000" font-family="'Segoe UI'" font-size="30.6506" lengthAdjust="spacing" textLength="321.9358" x="1742.4039" y="856.8714">pthread_mutex_init()</text></g><g class="message" data-participant-1="os" data-participant-2="be"><polygon fill="#000000" points="1613.7981,991.7309,1591.9048,1000.4882,1613.7981,1009.2456,1605.0408,1000.4882" style="stroke:#000000;stroke-width:2.1893;"/><line style="stroke:#000000;stroke-width:2.1893;stroke-dasharray:4.3787,4.3787;" x1="1600.6621" x2="2214.8389" y1="1000.4882" y2="1000.4882"/><text fill="#000000" font-family="'Segoe UI'" font-size="30.6506" lengthAdjust="spacing" textLength="173.053" x="1816.8453" y="966.9877">0 (success)</text></g><g class="message" data-participant-1="be" data-participant-2="bridge"><polygon fill="#000000" points="1196.2352,1101.8472,1174.342,1110.6046,1196.2352,1119.3619,1187.4779,1110.6046" style="stroke:#000000;stroke-width:2.1893;"/><line style="stroke:#000000;stroke-width:2.1893;stroke-dasharray:4.3787,4.3787;" x1="1183.0993" x2="1587.5261" y1="1110.6046" y2="1110.6046"/><text fill="#000000" font-family="'Segoe UI'" font-size="30.6506" lengthAdjust="spacing" textLength="162.8911" x="1299.4885" y="1077.104">result{ok}</text></g><g class="message" data-participant-1="bridge" data-participant-2="mtx"><polygon fill="#000000" points="550.9632,1211.9636,529.0699,1220.7209,550.9632,1229.4782,542.2059,1220.7209" style="stroke:#000000;stroke-width:2.1893;"/><line style="stroke:#000000;stroke-width:2.1893;stroke-dasharray:4.3787,4.3787;" x1="537.8272" x2="1169.9633" y1="1220.7209" y2="1220.7209"/><text fill="#000000" font-family="'Segoe UI'" font-size="30.6506" lengthAdjust="spacing" textLength="162.8911" x="768.0711" y="1187.2203">result{ok}</text></g><g class="message" data-participant-1="mtx" data-participant-2="app"><polygon fill="#000000" points="201.6629,1322.0799,179.7696,1330.8372,201.6629,1339.5945,192.9056,1330.8372" style="stroke:#000000;stroke-width:2.1893;"/><line style="stroke:#000000;stroke-width:2.1893;stroke-dasharray:4.3787,4.3787;" x1="188.5269" x2="513.7446" y1="1330.8372" y2="1330.8372"/><text fill="#000000" font-family="'Segoe UI'" font-size="30.6506" lengthAdjust="spacing" textLength="231.0766" x="231.2188" y="1297.3366">valid() == true</text></g><rect fill="#FFFFFF" height="6.568" style="stroke:#FFFFFF;stroke-width:2.1893;" width="2382.1674" x="10.9466" y="1416.5459"/><line style="stroke:#000000;stroke-width:1.0947;" x1="10.9466" x2="2393.114" y1="1416.5459" y2="1416.5459"/><line style="stroke:#000000;stroke-width:1.0947;" x1="10.9466" x2="2393.114" y1="1423.1139" y2="1423.1139"/><rect fill="#FFFFFF" height="96.9803" style="stroke:#000000;stroke-width:2.1893;" width="349.2597" x="1027.4005" y="1370.2451"/><text fill="#000000" font-family="'Segoe UI'" font-size="30.6506" font-weight="bold" lengthAdjust="spacing" textLength="264.1517" x="1062.4297" y="1429.3462">Lock (blocking)</text><g class="message" data-participant-1="app" data-participant-2="mtx"><polygon fill="#000000" points="478.7154,1572.9631,500.6087,1581.7204,478.7154,1590.4777,487.4727,1581.7204" style="stroke:#000000;stroke-width:2.1893;"/><line style="stroke:#000000;stroke-width:2.1893;" x1="177.5803" x2="491.8513" y1="1581.7204" y2="1581.7204"/><text fill="#000000" font-family="'Segoe UI'" font-size="30.6506" lengthAdjust="spacing" textLength="125.386" x="278.5908" y="1548.2198">m.lock()</text></g><g class="message" data-participant-1="mtx" data-participant-2="mtx"><line style="stroke:#000000;stroke-width:2.1893;" x1="526.8806" x2="618.8323" y1="1691.8367" y2="1691.8367"/><line style="stroke:#000000;stroke-width:2.1893;" x1="618.8323" x2="618.8323" y1="1691.8367" y2="1720.2979"/><line style="stroke:#000000;stroke-width:2.1893;" x1="529.0699" x2="618.8323" y1="1720.2979" y2="1720.2979"/><polygon fill="#000000" points="550.9632,1711.5406,529.0699,1720.2979,550.9632,1729.0552,542.2059,1720.2979" style="stroke:#000000;stroke-width:2.1893;"/><text fill="#000000" font-family="'Segoe UI'" font-size="30.6506" lengthAdjust="spacing" textLength="440.6769" x="564.0991" y="1658.3361">ms_to_ticks(WAIT_FOREVER)</text></g><g class="message" data-participant-1="mtx" data-participant-2="bridge"><polygon fill="#000000" points="1145.8807,1821.6569,1167.774,1830.4142,1145.8807,1839.1715,1154.638,1830.4142" style="stroke:#000000;stroke-width:2.1893;"/><line style="stroke:#000000;stroke-width:2.1893;" x1="526.8806" x2="1159.0167" y1="1830.4142" y2="1830.4142"/><text fill="#000000" font-family="'Segoe UI'" font-size="30.6506" lengthAdjust="spacing" textLength="511.0325" x="594.0003" y="1796.9137">osal_mutex_lock(&amp;handle_, ticks)</text></g><g class="message" data-participant-1="bridge" data-participant-2="be"><polygon fill="#000000" points="1563.4435,1931.7732,1585.3368,1940.5305,1563.4435,1949.2878,1572.2009,1940.5305" style="stroke:#000000;stroke-width:2.1893;"/><line style="stroke:#000000;stroke-width:2.1893;" x1="1172.1527" x2="1576.5795" y1="1940.5305" y2="1940.5305"/><text fill="#000000" font-family="'Segoe UI'" font-size="30.6506" lengthAdjust="spacing" textLength="321.2324" x="1220.3178" y="1907.03">calls implementation</text></g><g class="message" data-participant-1="be" data-participant-2="os"><polygon fill="#000000" points="2190.7563,2041.8895,2212.6496,2050.6468,2190.7563,2059.4042,2199.5136,2050.6468" style="stroke:#000000;stroke-width:2.1893;"/><line style="stroke:#000000;stroke-width:2.1893;" x1="1589.7155" x2="2203.8923" y1="2050.6468" y2="2050.6468"/><text fill="#000000" font-family="'Segoe UI'" font-size="30.6506" lengthAdjust="spacing" textLength="335.3305" x="1735.7066" y="2017.1463">pthread_mutex_lock()</text></g><g class="message" data-participant-1="os" data-participant-2="be"><polygon fill="#000000" points="1613.7981,2152.0058,1591.9048,2160.7632,1613.7981,2169.5205,1605.0408,2160.7632" style="stroke:#000000;stroke-width:2.1893;"/><line style="stroke:#000000;stroke-width:2.1893;stroke-dasharray:4.3787,4.3787;" x1="1600.6621" x2="2214.8389" y1="2160.7632" y2="2160.7632"/><text fill="#000000" font-family="'Segoe UI'" font-size="30.6506" lengthAdjust="spacing" textLength="187.1062" x="1809.8187" y="2127.2626">0 (acquired)</text></g><g class="message" data-participant-1="be" data-participant-2="bridge"><polygon fill="#000000" points="1196.2352,2262.1222,1174.342,2270.8795,1196.2352,2279.6368,1187.4779,2270.8795" style="stroke:#000000;stroke-width:2.1893;"/><line style="stroke:#000000;stroke-width:2.1893;stroke-dasharray:4.3787,4.3787;" x1="1183.0993" x2="1587.5261" y1="2270.8795" y2="2270.8795"/><text fill="#000000" font-family="'Segoe UI'" font-size="30.6506" lengthAdjust="spacing" textLength="162.8911" x="1299.4885" y="2237.3789">result{ok}</text></g><g class="message" data-participant-1="bridge" data-participant-2="mtx"><polygon fill="#000000" points="550.9632,2372.2385,529.0699,2380.9958,550.9632,2389.7531,542.2059,2380.9958" style="stroke:#000000;stroke-width:2.1893;"/><line style="stroke:#000000;stroke-width:2.1893;stroke-dasharray:4.3787,4.3787;" x1="537.8272" x2="1169.9633" y1="2380.9958" y2="2380.9958"/><text fill="#000000" font-family="'Segoe UI'" font-size="30.6506" lengthAdjust="spacing" textLength="162.8911" x="768.0711" y="2347.4952">result{ok}</text></g><g class="message" data-participant-1="mtx" data-participant-2="app"><polygon fill="#000000" points="201.6629,2482.3548,179.7696,2491.1121,201.6629,2499.8694,192.9056,2491.1121" style="stroke:#000000;stroke-width:2.1893;"/><line style="stroke:#000000;stroke-width:2.1893;stroke-dasharray:4.3787,4.3787;" x1="188.5269" x2="513.7446" y1="2491.1121" y2="2491.1121"/><text fill="#000000" font-family="'Segoe UI'" font-size="30.6506" lengthAdjust="spacing" textLength="162.8911" x="265.3116" y="2457.6115">result{ok}</text></g><path d="M21.8933,2519.5733 L21.8933,2620.2824 L332.7777,2620.2824 L332.7777,2541.4666 L310.8844,2519.5733 L21.8933,2519.5733" fill="#FFFFFF" style="stroke:#000000;stroke-width:2.1893;"/><path d="M310.8844,2519.5733 L310.8844,2541.4666 L332.7777,2541.4666 L310.8844,2519.5733" fill="#FFFFFF" style="stroke:#000000;stroke-width:2.1893;"/><text fill="#000000" font-family="'Segoe UI'" font-size="30.6506" lengthAdjust="spacing" textLength="222.7854" x="56.9225" y="2580.8638">critical section</text><rect fill="#FFFFFF" height="6.568" style="stroke:#FFFFFF;stroke-width:2.1893;" width="2382.1674" x="10.9466" y="2700.0731"/><line style="stroke:#000000;stroke-width:1.0947;" x1="10.9466" x2="2393.114" y1="2700.0731" y2="2700.0731"/><line style="stroke:#000000;stroke-width:1.0947;" x1="10.9466" x2="2393.114" y1="2706.6411" y2="2706.6411"/><rect fill="#FFFFFF" height="96.9803" style="stroke:#000000;stroke-width:2.1893;" width="201.9333" x="1101.0637" y="2653.7722"/><text fill="#000000" font-family="'Segoe UI'" font-size="30.6506" font-weight="bold" lengthAdjust="spacing" textLength="116.8254" x="1136.0929" y="2712.8734">Unlock</text><g class="message" data-participant-1="app" data-participant-2="mtx"><polygon fill="#000000" points="478.7154,2856.4902,500.6087,2865.2475,478.7154,2874.0049,487.4727,2865.2475" style="stroke:#000000;stroke-width:2.1893;"/><line style="stroke:#000000;stroke-width:2.1893;" x1="177.5803" x2="491.8513" y1="2865.2475" y2="2865.2475"/><text fill="#000000" font-family="'Segoe UI'" font-size="30.6506" lengthAdjust="spacing" textLength="164.238" x="259.1648" y="2831.747">m.unlock()</text></g><g class="message" data-participant-1="mtx" data-participant-2="bridge"><polygon fill="#000000" points="1145.8807,2966.6065,1167.774,2975.3639,1145.8807,2984.1212,1154.638,2975.3639" style="stroke:#000000;stroke-width:2.1893;"/><line style="stroke:#000000;stroke-width:2.1893;" x1="526.8806" x2="1159.0167" y1="2975.3639" y2="2975.3639"/><text fill="#000000" font-family="'Segoe UI'" font-size="30.6506" lengthAdjust="spacing" textLength="459.2947" x="619.8693" y="2941.8633">osal_mutex_unlock(&amp;handle_)</text></g><g class="message" data-participant-1="bridge" data-participant-2="be"><polygon fill="#000000" points="1563.4435,3076.7229,1585.3368,3085.4802,1563.4435,3094.2375,1572.2009,3085.4802" style="stroke:#000000;stroke-width:2.1893;"/><line style="stroke:#000000;stroke-width:2.1893;" x1="1172.1527" x2="1576.5795" y1="3085.4802" y2="3085.4802"/><text fill="#000000" font-family="'Segoe UI'" font-size="30.6506" lengthAdjust="spacing" textLength="321.2324" x="1220.3178" y="3051.9796">calls implementation</text></g><g class="message" data-participant-1="be" data-participant-2="os"><polygon fill="#000000" points="2190.7563,3186.8392,2212.6496,3195.5965,2190.7563,3204.3538,2199.5136,3195.5965" style="stroke:#000000;stroke-width:2.1893;"/><line style="stroke:#000000;stroke-width:2.1893;" x1="1589.7155" x2="2203.8923" y1="3195.5965" y2="3195.5965"/><text fill="#000000" font-family="'Segoe UI'" font-size="30.6506" lengthAdjust="spacing" textLength="374.1825" x="1716.2806" y="3162.0959">pthread_mutex_unlock()</text></g><g class="message" data-participant-1="os" data-participant-2="be"><polygon fill="#000000" points="1613.7981,3296.9555,1591.9048,3305.7128,1613.7981,3314.4701,1605.0408,3305.7128" style="stroke:#000000;stroke-width:2.1893;"/><line style="stroke:#000000;stroke-width:2.1893;stroke-dasharray:4.3787,4.3787;" x1="1600.6621" x2="2214.8389" y1="3305.7128" y2="3305.7128"/><text fill="#000000" font-family="'Segoe UI'" font-size="30.6506" lengthAdjust="spacing" textLength="19.5008" x="1893.6214" y="3272.2122">0</text></g><g class="message" data-participant-1="be" data-participant-2="bridge"><polygon fill="#000000" points="1196.2352,3407.0718,1174.342,3415.8291,1196.2352,3424.5864,1187.4779,3415.8291" style="stroke:#000000;stroke-width:2.1893;"/><line style="stroke:#000000;stroke-width:2.1893;stroke-dasharray:4.3787,4.3787;" x1="1183.0993" x2="1587.5261" y1="3415.8291" y2="3415.8291"/><text fill="#000000" font-family="'Segoe UI'" font-size="30.6506" lengthAdjust="spacing" textLength="162.8911" x="1299.4885" y="3382.3285">result{ok}</text></g><g class="message" data-participant-1="bridge" data-participant-2="mtx"><polygon fill="#000000" points="550.9632,3517.1881,529.0699,3525.9454,550.9632,3534.7027,542.2059,3525.9454" style="stroke:#000000;stroke-width:2.1893;"/><line style="stroke:#000000;stroke-width:2.1893;stroke-dasharray:4.3787,4.3787;" x1="537.8272" x2="1169.9633" y1="3525.9454" y2="3525.9454"/><text fill="#000000" font-family="'Segoe UI'" font-size="30.6506" lengthAdjust="spacing" textLength="162.8911" x="768.0711" y="3492.4448">result{ok}</text></g><g class="message" data-participant-1="mtx" data-participant-2="app"><polygon fill="#000000" points="201.6629,3627.3044,179.7696,3636.0617,201.6629,3644.819,192.9056,3636.0617" style="stroke:#000000;stroke-width:2.1893;"/><line style="stroke:#000000;stroke-width:2.1893;stroke-dasharray:4.3787,4.3787;" x1="188.5269" x2="513.7446" y1="3636.0617" y2="3636.0617"/><text fill="#000000" font-family="'Segoe UI'" font-size="30.6506" lengthAdjust="spacing" textLength="162.8911" x="265.3116" y="3602.5611">result{ok}</text></g><rect fill="#FFFFFF" height="6.568" style="stroke:#FFFFFF;stroke-width:2.1893;" width="2382.1674" x="10.9466" y="3721.7704"/><line style="stroke:#000000;stroke-width:1.0947;" x1="10.9466" x2="2393.114" y1="3721.7704" y2="3721.7704"/><line style="stroke:#000000;stroke-width:1.0947;" x1="10.9466" x2="2393.114" y1="3728.3384" y2="3728.3384"/><rect fill="#FFFFFF" height="96.9803" style="stroke:#000000;stroke-width:2.1893;" width="287.3748" x="1058.3429" y="3675.4696"/><text fill="#000000" font-family="'Segoe UI'" font-size="30.6506" font-weight="bold" lengthAdjust="spacing" textLength="202.2669" x="1093.3722" y="3734.5707">Destruction</text><g class="message" data-participant-1="app" data-participant-2="mtx"><polygon fill="#000000" points="478.7154,3878.1876,500.6087,3886.9449,478.7154,3895.7022,487.4727,3886.9449" style="stroke:#000000;stroke-width:2.1893;"/><line style="stroke:#000000;stroke-width:2.1893;" x1="177.5803" x2="491.8513" y1="3886.9449" y2="3886.9449"/><text fill="#000000" font-family="'Segoe UI'" font-size="30.6506" lengthAdjust="spacing" textLength="147.895" x="267.3363" y="3853.4443">~mutex()</text></g><g class="message" data-participant-1="mtx" data-participant-2="bridge"><polygon fill="#000000" points="1145.8807,3988.3039,1167.774,3997.0612,1145.8807,4005.8185,1154.638,3997.0612" style="stroke:#000000;stroke-width:2.1893;"/><line style="stroke:#000000;stroke-width:2.1893;" x1="526.8806" x2="1159.0167" y1="3997.0612" y2="3997.0612"/><text fill="#000000" font-family="'Segoe UI'" font-size="30.6506" lengthAdjust="spacing" textLength="474.3656" x="612.3338" y="3963.5606">osal_mutex_destroy(&amp;handle_)</text></g><g class="message" data-participant-1="bridge" data-participant-2="be"><polygon fill="#000000" points="1563.4435,4098.4202,1585.3368,4107.1775,1563.4435,4115.9348,1572.2009,4107.1775" style="stroke:#000000;stroke-width:2.1893;"/><line style="stroke:#000000;stroke-width:2.1893;" x1="1172.1527" x2="1576.5795" y1="4107.1775" y2="4107.1775"/><text fill="#000000" font-family="'Segoe UI'" font-size="30.6506" lengthAdjust="spacing" textLength="321.2324" x="1220.3178" y="4073.677">calls implementation</text></g><g class="message" data-participant-1="be" data-participant-2="os"><polygon fill="#000000" points="2190.7563,4208.5365,2212.6496,4217.2938,2190.7563,4226.0511,2199.5136,4217.2938" style="stroke:#000000;stroke-width:2.1893;"/><line style="stroke:#000000;stroke-width:2.1893;" x1="1589.7155" x2="2203.8923" y1="4217.2938" y2="4217.2938"/><text fill="#000000" font-family="'Segoe UI'" font-size="30.6506" lengthAdjust="spacing" textLength="530.9824" x="1637.8807" y="4183.7933">pthread_mutex_destroy() + delete</text></g><g class="message" data-participant-1="os" data-participant-2="be"><polygon fill="#000000" points="1613.7981,4239.1871,1591.9048,4247.9444,1613.7981,4256.7017,1605.0408,4247.9444" style="stroke:#000000;stroke-width:2.1893;"/><line style="stroke:#000000;stroke-width:2.1893;stroke-dasharray:4.3787,4.3787;" x1="1600.6621" x2="2214.8389" y1="4247.9444" y2="4247.9444"/></g><g class="message" data-participant-1="be" data-participant-2="bridge"><polygon fill="#000000" points="1196.2352,4349.3034,1174.342,4358.0607,1196.2352,4366.818,1187.4779,4358.0607" style="stroke:#000000;stroke-width:2.1893;"/><line style="stroke:#000000;stroke-width:2.1893;stroke-dasharray:4.3787,4.3787;" x1="1183.0993" x2="1587.5261" y1="4358.0607" y2="4358.0607"/><text fill="#000000" font-family="'Segoe UI'" font-size="30.6506" lengthAdjust="spacing" textLength="162.8911" x="1299.4885" y="4324.5602">result{ok}</text></g><g class="message" data-participant-1="bridge" data-participant-2="mtx"><polygon fill="#000000" points="540.0165,4379.954,518.1233,4388.7113,540.0165,4397.4686,531.2592,4388.7113" style="stroke:#000000;stroke-width:2.1893;"/><line style="stroke:#000000;stroke-width:2.1893;stroke-dasharray:4.3787,4.3787;" x1="526.8806" x2="1169.9633" y1="4388.7113" y2="4388.7113"/></g><!--SRC=[jPHXJzim48Q_-rSSHPgIRMtOqAIjKoULaaXeC2OOsnUaodMErDInW-sKecdxxJk755fKeKqmvKEYthrtxpq-TyjFiKIe59UQRKajL9qZ95DJOd8vuIg_bZhvQiqb2k-IKWfxV3eyJ78ZN99BNbXUkcHiKUTenvKr5r8XlQNslQek5NCpgIjEMJ3XObPOK-jyP9Ini9sbuLd9oF62ryfdHlild4nrJh4m26S7dPKaXrSrQe57w1mlSAXaeK6WzcWPyz8hXAFQum8EZPX10cTQXOykZBXIa2bppHXLybB8YciFdM5LAIcubqPtW3lWLGNRwVliNVfXFT4uhlhzCXG_rz4KEOtSDLhTn8skz0lIxMPli_rr7Ix8cuOHJApC2ppNeT2ugJD-6TsARqF49Cjsqvrr_Hw18xxG4rL5ZR5NzE1GwdhHIXjPkfUcwxBZK_XCVL4jDPMVMZ9zgpAEp8xIB7l3s6008wETjxK8560mO2nGw7vgXkf3unNAZunJmfnx3B-p4AEKrdeVLiOIrCXZz6BATKxxy1ekk78OipOtg892q94ua6MbQ0UrRyw0JPeu-Uil7RT5fPO-YXb5kii2En2vMWXQXRZHhTgnw6YPVfhPhxksTmEjn9efA106xiESAvb7CI40me4inxMH0wfchw99s2gfYtW3hLw8aTDDjDeKD_PcJ6SrSz6FuS6tSNPyadvFJ-B7e3PLxv4swYSYROq-GCh5LIqjvi_4T2Nm4ASsz6NcQDjKOIMDnHNTycOL6-3j3Tx0kTQFaDw4i1Ki8JwHtbtxDNx_7HeXsST7Rkllnjq_KCb3DNFpN5YMvM9uHN_f2ZtU0_fxE0_7_WC0]--></g></svg>