<svg xmlns="http://www.w3.org/2000/svg" xmlns:xlink="http://www.w3.org/1999/xlink" contentStyleType="text/css" data-diagram-type="SEQUENCE" height="3048.0346px" preserveAspectRatio="none" style="width:2406px;height:3048px;background:#FEFEFE;" version="1.1" viewBox="0 0 2406 3048" width="2406.9411px" zoomAndPan="magnify"><title>Thread Lifecycle - Create / Run / Join</title><defs/><g><rect fill="#FEFEFE" height="3048.0346" style="stroke:none;stroke-width:1.623;" width="2406.9411" x="0" y="0"/><text fill="#000000" font-family="'Segoe UI'" font-size="35.7065" font-weight="bold" lengthAdjust="spacing" textLength="733.2032" x="834.9004" y="73.7191">Thread Lifecycle - Create / Run / Join</text><g><title>osal..thread</title><rect fill="#FFFFFF" height="571.4304" style="stroke:#000000;stroke-width:1.623;" width="16.2302" x="631.2928" y="845.8732"/></g><g><title>osal..thread</title><rect fill="#FFFFFF" height="765.5336" style="stroke:#000000;stroke-width:1.623;" width="16.2302" x="631.2928" y="2019.5714"/></g><g><title>OS Kernel</title><rect fill="#ECEFF1" height="613.629" style="stroke:#000000;stroke-width:1.623;" width="16.2302" x="2033.6057" y="1090.772"/></g><g><title>Application</title><rect fill="#000000" fill-opacity="0.00000" height="2706.211" width="12.9842" x="246.8808" y="225.9297"/><line style="stroke:#000000;stroke-width:1.623;stroke-dasharray:8.1151,8.1151;" x1="253.1914" x2="253.1914" y1="225.9297" y2="2932.1407"/></g><g><title>osal..thread</title><rect fill="#000000" fill-opacity="0.00000" height="2706.211" width="12.9842" x="632.9158" y="225.9297"/><line style="stroke:#000000;stroke-width:1.623;stroke-dasharray:8.1151,8.1151;" x1="637.8182" x2="637.8182" y1="225.9297" y2="2932.1407"/></g><g><title>extern C bridge</title><rect fill="#000000" fill-opacity="0.00000" height="2706.211" width="12.9842" x="1212.4899" y="225.9297"/><line style="stroke:#000000;stroke-width:1.623;stroke-dasharray:8.1151,8.1151;" x1="1217.9882" x2="1217.9882" y1="225.9297" y2="2932.1407"/></g><g><title>Backend .cpp</title><rect fill="#000000" fill-opacity="0.00000" height="2706.211" width="12.9842" x="1481.8766" y="225.9297"/><line style="stroke:#000000;stroke-width:1.623;stroke-dasharray:8.1151,8.1151;" x1="1487.7743" x2="1487.7743" y1="225.9297" y2="2932.1407"/></g><g><title>OS Kernel</title><rect fill="#000000" fill-opacity="0.00000" height="2706.211" width="12.9842" x="2035.2287" y="225.9297"/><line style="stroke:#000000;stroke-width:1.623;stroke-dasharray:8.1151,8.1151;" x1="2040.6802" x2="2040.6802" y1="225.9297" y2="2932.1407"/></g><g class="participant participant-head" data-participant="app"><rect fill="#E8F5E9" height="81.6329" rx="4.0576" ry="4.0576" style="stroke:#000000;stroke-width:1.623;" width="182.1414" x="162.3022" y="142.6737"/><text fill="#000000" font-family="'Segoe UI'" font-size="22.7223" lengthAdjust="spacing" textLength="126.9586" x="189.8935" y="191.3565">Application</text></g><g class="participant participant-tail" data-participant="app"><rect fill="#E8F5E9" height="81.6329" rx="4.0576" ry="4.0576" style="stroke:#000000;stroke-width:1.623;" width="182.1414" x="162.3022" y="2930.5177"/><text fill="#000000" font-family="'Segoe UI'" font-size="22.7223" lengthAdjust="spacing" textLength="126.9586" x="189.8935" y="2979.2004">Application</text></g><g class="participant participant-head" data-participant="t"><rect fill="#E3F2FD" height="81.6329" rx="4.0576" ry="4.0576" style="stroke:#000000;stroke-width:1.623;" width="191.45" x="543.6829" y="142.6737"/><text fill="#000000" font-family="'Segoe UI'" font-size="22.7223" lengthAdjust="spacing" textLength="136.2672" x="571.2743" y="191.3565">osal::thread</text></g><g class="participant participant-tail" data-participant="t"><rect fill="#E3F2FD" height="81.6329" rx="4.0576" ry="4.0576" style="stroke:#000000;stroke-width:1.623;" width="191.45" x="543.6829" y="2930.5177"/><text fill="#000000" font-family="'Segoe UI'" font-size="22.7223" lengthAdjust="spacing" textLength="136.2672" x="571.2743" y="2979.2004">osal::thread</text></g><g class="participant participant-head" data-participant="bridge"><rect fill="#FFF3E0" height="108.0831" rx="4.0576" ry="4.0576" style="stroke:#000000;stroke-width:1.623;" width="232.4566" x="1102.7536" y="116.2236"/><text fill="#000000" font-family="'Segoe UI'" font-size="22.7223" lengthAdjust="spacing" textLength="177.2739" x="1130.345" y="164.9063">extern C bridge</text><text fill="#000000" font-family="'Segoe UI'" font-size="22.7223" lengthAdjust="spacing" textLength="172.7694" x="1132.5973" y="191.3565">osal_thread_*()</text></g><g class="participant participant-tail" data-participant="bridge"><rect fill="#FFF3E0" height="108.0831" rx="4.0576" ry="4.0576" style="stroke:#000000;stroke-width:1.623;" width="232.4566" x="1102.7536" y="2930.5177"/><text fill="#000000" font-family="'Segoe UI'" font-size="22.7223" lengthAdjust="spacing" textLength="177.2739" x="1130.345" y="2979.2004">extern C bridge</text><text fill="#000000" font-family="'Segoe UI'" font-size="22.7223" lengthAdjust="spacing" textLength="172.7694" x="1132.5973" y="3005.6506">osal_thread_*()</text></g><g class="participant participant-head" data-participant="be"><rect fill="#FFEBEE" height="81.6329" rx="4.0576" ry="4.0576" style="stroke:#000000;stroke-width:1.623;" width="208.9355" x="1383.9009" y="142.6737"/><text fill="#000000" font-family="'Segoe UI'" font-size="22.7223" lengthAdjust="spacing" textLength="153.7528" x="1411.4923" y="191.3565">Backend .cpp</text></g><g class="participant participant-tail" data-participant="be"><rect fill="#FFEBEE" height="81.6329" rx="4.0576" ry="4.0576" style="stroke:#000000;stroke-width:1.623;" width="208.9355" x="1383.9009" y="2930.5177"/><text fill="#000000" font-family="'Segoe UI'" font-size="22.7223" lengthAdjust="spacing" textLength="153.7528" x="1411.4923" y="2979.2004">Backend .cpp</text></g><g class="participant participant-head" data-participant="os"><rect fill="#ECEFF1" height="81.6329" rx="4.0576" ry="4.0576" style="stroke:#000000;stroke-width:1.623;" width="167.6293" x="1957.9061" y="142.6737"/><text fill="#000000" font-family="'Segoe UI'" font-size="22.7223" lengthAdjust="spacing" textLength="112.4466" x="1985.4975" y="191.3565">OS Kernel</text></g><g class="participant participant-tail" data-participant="os"><rect fill="#ECEFF1" height="81.6329" rx="4.0576" ry="4.0576" style="stroke:#000000;stroke-width:1.623;" width="167.6293" x="1957.9061" y="2930.5177"/><text fill="#000000" font-family="'Segoe UI'" font-size="22.7223" lengthAdjust="spacing" textLength="112.4466" x="1985.4975" y="2979.2004">OS Kernel</text></g><g><title>osal..thread</title><rect fill="#FFFFFF" height="571.4304" style="stroke:#000000;stroke-width:1.623;" width="16.2302" x="631.2928" y="845.8732"/></g><g><title>osal..thread</title><rect fill="#FFFFFF" height="765.5336" style="stroke:#000000;stroke-width:1.623;" width="16.2302" x="631.2928" y="2019.5714"/></g><g><title>OS Kernel</title><rect fill="#ECEFF1" height="613.629" style="stroke:#000000;stroke-width:1.623;" width="16.2302" x="2033.6057" y="1090.772"/></g><rect fill="#FFFFFF" height="4.8691" style="stroke:#FFFFFF;stroke-width:1.623;" width="2388.3968" x="8.1151" y="292.7145"/><line style="stroke:#000000;stroke-width:0.8115;" x1="8.1151" x2="2396.5119" y1="292.7145" y2="292.7145"/><line style="stroke:#000000;stroke-width:0.8115;" x1="8.1151" x2="2396.5119" y1="297.5835" y2="297.5835"/><rect fill="#FFFFFF" height="71.8948" style="stroke:#000000;stroke-width:1.623;" width="238.6476" x="1082.9897" y="258.3901"/><text fill="#000000" font-family="'Segoe UI'" font-size="22.7223" font-weight="bold" lengthAdjust="spacing" textLength="175.5542" x="1108.958" y="302.2038">Configuration</text><g class="message" data-participant-1="app" data-participant-2="app"><line style="stroke:#000000;stroke-width:1.623;" x1="253.3729" x2="321.5398" y1="415.1639" y2="415.1639"/><line style="stroke:#000000;stroke-width:1.623;" x1="321.5398" x2="321.5398" y1="415.1639" y2="436.2631"/><line style="stroke:#000000;stroke-width:1.623;" x1="254.9959" x2="321.5398" y1="436.2631" y2="436.2631"/><polygon fill="#000000" points="271.2261,429.7711,254.9959,436.2631,271.2261,442.7552,264.734,436.2631" style="stroke:#000000;stroke-width:1.623;"/><text fill="#000000" font-family="'Segoe UI'" font-size="22.7223" lengthAdjust="spacing" textLength="226.9235" x="280.9642" y="390.3288">thread_config cfg{}</text></g><path d="M261.3065,457.3624 L261.3065,663.4862 L706.0144,663.4862 L706.0144,473.5926 L689.7842,457.3624 L261.3065,457.3624" fill="#FFFFFF" style="stroke:#000000;stroke-width:1.623;"/><path d="M689.7842,457.3624 L689.7842,473.5926 L706.0144,473.5926 L689.7842,457.3624" fill="#FFFFFF" style="stroke:#000000;stroke-width:1.623;"/><text fill="#000000" font-family="'Segoe UI'" font-size="22.7223" lengthAdjust="spacing" textLength="238.1293" x="287.2748" y="502.7991">cfg.entry = my_task;</text><text fill="#000000" font-family="'Segoe UI'" font-size="22.7223" lengthAdjust="spacing" textLength="239.1722" x="287.2748" y="529.2493">cfg.arg   = &amp;context;</text><text fill="#000000" font-family="'Segoe UI'" font-size="22.7223" lengthAdjust="spacing" textLength="277.6714" x="287.2748" y="555.6995">cfg.stack = static_stack;</text><text fill="#000000" font-family="'Segoe UI'" font-size="22.7223" lengthAdjust="spacing" textLength="275.3859" x="287.2748" y="582.1496">cfg.stack_bytes = 4096;</text><text fill="#000000" font-family="'Segoe UI'" font-size="22.7223" lengthAdjust="spacing" textLength="379.4336" x="287.2748" y="608.5998">cfg.priority = PRIORITY_NORMAL;</text><text fill="#000000" font-family="'Segoe UI'" font-size="22.7223" lengthAdjust="spacing" textLength="246.9275" x="287.2748" y="635.05">cfg.name = "worker";</text><rect fill="#FFFFFF" height="4.8691" style="stroke:#FFFFFF;stroke-width:1.623;" width="2388.3968" x="8.1151" y="723.4238"/><line style="stroke:#000000;stroke-width:0.8115;" x1="8.1151" x2="2396.5119" y1="723.4238" y2="723.4238"/><line style="stroke:#000000;stroke-width:0.8115;" x1="8.1151" x2="2396.5119" y1="728.2929" y2="728.2929"/><rect fill="#FFFFFF" height="71.8948" style="stroke:#000000;stroke-width:1.623;" width="147.9914" x="1128.3178" y="689.0995"/><text fill="#000000" font-family="'Segoe UI'" font-size="22.7223" font-weight="bold" lengthAdjust="spacing" textLength="84.898" x="1154.2862" y="732.9131">Create</text><g class="message" data-participant-1="app" data-participant-2="t"><polygon fill="#000000" points="611.8165,839.3811,628.0468,845.8732,611.8165,852.3653,618.3086,845.8732" style="stroke:#000000;stroke-width:1.623;"/><line style="stroke:#000000;stroke-width:1.623;" x1="253.3729" x2="621.5547" y1="845.8732" y2="845.8732"/><text fill="#000000" font-family="'Segoe UI'" font-size="22.7223" lengthAdjust="spacing" textLength="141.4042" x="371.6307" y="821.0381">t.create(cfg)</text></g><g class="message" data-participant-1="t" data-participant-2="bridge"><polygon fill="#000000" points="1199.5057,921.014,1215.7359,927.5061,1199.5057,933.9982,1205.9978,927.5061" style="stroke:#000000;stroke-width:1.623;"/><line style="stroke:#000000;stroke-width:1.623;" x1="647.523" x2="1209.2438" y1="927.5061" y2="927.5061"/><text fill="#000000" font-family="'Segoe UI'" font-size="22.7223" lengthAdjust="spacing" textLength="376.671" x="744.917" y="902.671">osal_thread_create(&amp;handle_, ...)</text></g><g class="message" data-participant-1="bridge" data-participant-2="be"><polygon fill="#000000" points="1468.8924,1002.647,1485.1226,1009.139,1468.8924,1015.6311,1475.3845,1009.139" style="stroke:#000000;stroke-width:1.623;"/><line style="stroke:#000000;stroke-width:1.623;" x1="1218.982" x2="1478.6305" y1="1009.139" y2="1009.139"/><text fill="#000000" font-family="'Segoe UI'" font-size="22.7223" lengthAdjust="spacing" textLength="180.0365" x="1263.657" y="984.304">implementation</text></g><g class="message" data-participant-1="be" data-participant-2="os"><polygon fill="#000000" points="2014.1294,1084.2799,2030.3596,1090.772,2014.1294,1097.264,2020.6215,1090.772" style="stroke:#000000;stroke-width:1.623;"/><line style="stroke:#000000;stroke-width:1.623;" x1="1488.3687" x2="2023.8675" y1="1090.772" y2="1090.772"/><text fill="#000000" font-family="'Segoe UI'" font-size="22.7223" lengthAdjust="spacing" textLength="481.9392" x="1520.0176" y="1065.9369">pthread_create() / xTaskCreateStatic() / ...</text></g><g class="message" data-participant-1="os" data-participant-2="be"><polygon fill="#000000" points="1506.2219,1165.9128,1489.9917,1172.4049,1506.2219,1178.897,1499.7298,1172.4049" style="stroke:#000000;stroke-width:1.623;"/><line style="stroke:#000000;stroke-width:1.623;stroke-dasharray:3.246,3.246;" x1="1496.4838" x2="2031.9826" y1="1172.4049" y2="1172.4049"/><text fill="#000000" font-family="'Segoe UI'" font-size="22.7223" lengthAdjust="spacing" textLength="88.881" x="1716.5466" y="1147.5698">success</text></g><g class="message" data-participant-1="be" data-participant-2="bridge"><polygon fill="#000000" points="1236.8352,1247.5457,1220.605,1254.0378,1236.8352,1260.5299,1230.3431,1254.0378" style="stroke:#000000;stroke-width:1.623;"/><line style="stroke:#000000;stroke-width:1.623;stroke-dasharray:3.246,3.246;" x1="1227.0971" x2="1486.7456" y1="1254.0378" y2="1254.0378"/><text fill="#000000" font-family="'Segoe UI'" font-size="22.7223" lengthAdjust="spacing" textLength="120.7566" x="1293.297" y="1229.2027">result{ok}</text></g><g class="message" data-participant-1="bridge" data-participant-2="t"><polygon fill="#000000" points="665.3763,1329.1786,649.146,1335.6707,665.3763,1342.1628,658.8842,1335.6707" style="stroke:#000000;stroke-width:1.623;"/><line style="stroke:#000000;stroke-width:1.623;stroke-dasharray:3.246,3.246;" x1="655.6381" x2="1217.3589" y1="1335.6707" y2="1335.6707"/><text fill="#000000" font-family="'Segoe UI'" font-size="22.7223" lengthAdjust="spacing" textLength="120.7566" x="872.8742" y="1310.8356">result{ok}</text></g><g class="message" data-participant-1="t" data-participant-2="app"><polygon fill="#000000" points="271.2261,1410.8115,254.9959,1417.3036,271.2261,1423.7957,264.734,1417.3036" style="stroke:#000000;stroke-width:1.623;"/><line style="stroke:#000000;stroke-width:1.623;stroke-dasharray:3.246,3.246;" x1="261.488" x2="637.7849" y1="1417.3036" y2="1417.3036"/><text fill="#000000" font-family="'Segoe UI'" font-size="22.7223" lengthAdjust="spacing" textLength="306.507" x="293.1369" y="1392.4685">result{ok}, valid() == true</text></g><path d="M1827.5223,1438.4029 L1827.5223,1513.0619 L2252.754,1513.0619 L2252.754,1454.6331 L2236.5238,1438.4029 L1827.5223,1438.4029" fill="#FFFFFF" style="stroke:#000000;stroke-width:1.623;"/><path d="M2236.5238,1438.4029 L2236.5238,1454.6331 L2252.754,1454.6331 L2236.5238,1438.4029" fill="#FFFFFF" style="stroke:#000000;stroke-width:1.623;"/><text fill="#000000" font-family="'Segoe UI'" font-size="22.7223" lengthAdjust="spacing" textLength="360.1285" x="1853.4907" y="1483.8396">Thread running asynchronously</text><rect fill="#FFFFFF" height="4.8691" style="stroke:#FFFFFF;stroke-width:1.623;" width="2388.3968" x="8.1151" y="1572.2134"/><line style="stroke:#000000;stroke-width:0.8115;" x1="8.1151" x2="2396.5119" y1="1572.2134" y2="1572.2134"/><line style="stroke:#000000;stroke-width:0.8115;" x1="8.1151" x2="2396.5119" y1="1577.0825" y2="1577.0825"/><rect fill="#FFFFFF" height="71.8948" style="stroke:#000000;stroke-width:1.623;" width="275.8154" x="1064.4058" y="1537.8891"/><text fill="#000000" font-family="'Segoe UI'" font-size="22.7223" font-weight="bold" lengthAdjust="spacing" textLength="212.722" x="1090.3741" y="1581.7027">Thread executes</text><g class="message" data-participant-1="os" data-participant-2="os"><line style="stroke:#000000;stroke-width:1.623;" x1="2049.8359" x2="2118.0028" y1="1702.7779" y2="1702.7779"/><line style="stroke:#000000;stroke-width:1.623;" x1="2118.0028" x2="2118.0028" y1="1702.7779" y2="1723.8772"/><line style="stroke:#000000;stroke-width:1.623;" x1="2041.7208" x2="2118.0028" y1="1723.8772" y2="1723.8772"/><polygon fill="#000000" points="2057.951,1717.3851,2041.7208,1723.8772,2057.951,1730.3693,2051.4589,1723.8772" style="stroke:#000000;stroke-width:1.623;"/><text fill="#000000" font-family="'Segoe UI'" font-size="22.7223" lengthAdjust="spacing" textLength="199.7743" x="2077.4272" y="1677.9428">cfg.entry(cfg.arg)</text></g><path d="M2048.2533,1736.8614 L2048.2533,1837.4887 L2330.659,1837.4887 L2330.659,1753.0916 L2314.4288,1736.8614 L2048.2533,1736.8614" fill="#FFFFFF" style="stroke:#000000;stroke-width:1.623;"/><path d="M2314.4288,1736.8614 L2314.4288,1753.0916 L2330.659,1753.0916 L2314.4288,1736.8614" fill="#FFFFFF" style="stroke:#000000;stroke-width:1.623;"/><text fill="#000000" font-family="'Segoe UI'" font-size="22.7223" lengthAdjust="spacing" textLength="216.2613" x="2074.2216" y="1782.298">my_task(&amp;context)</text><text fill="#000000" font-family="'Segoe UI'" font-size="22.7223" lengthAdjust="spacing" textLength="214.009" x="2074.2216" y="1808.7482">runs to completion</text><rect fill="#FFFFFF" height="4.8691" style="stroke:#FFFFFF;stroke-width:1.623;" width="2388.3968" x="8.1151" y="1897.1221"/><line style="stroke:#000000;stroke-width:0.8115;" x1="8.1151" x2="2396.5119" y1="1897.1221" y2="1897.1221"/><line style="stroke:#000000;stroke-width:0.8115;" x1="8.1151" x2="2396.5119" y1="1901.9911" y2="1901.9911"/><rect fill="#FFFFFF" height="71.8948" style="stroke:#000000;stroke-width:1.623;" width="111.1231" x="1146.7519" y="1862.7977"/><text fill="#000000" font-family="'Segoe UI'" font-size="22.7223" font-weight="bold" lengthAdjust="spacing" textLength="48.0297" x="1172.7203" y="1906.6114">Join</text><g class="message" data-participant-1="app" data-participant-2="t"><polygon fill="#000000" points="611.8165,2013.0794,628.0468,2019.5714,611.8165,2026.0635,618.3086,2019.5714" style="stroke:#000000;stroke-width:1.623;"/><line style="stroke:#000000;stroke-width:1.623;" x1="253.3729" x2="621.5547" y1="2019.5714" y2="2019.5714"/><text fill="#000000" font-family="'Segoe UI'" font-size="22.7223" lengthAdjust="spacing" textLength="74.7905" x="404.9376" y="1994.7364">t.join()</text></g><g class="message" data-participant-1="t" data-participant-2="bridge"><polygon fill="#000000" points="1199.5057,2094.7123,1215.7359,2101.2044,1199.5057,2107.6964,1205.9978,2101.2044" style="stroke:#000000;stroke-width:1.623;"/><line style="stroke:#000000;stroke-width:1.623;" x1="647.523" x2="1209.2438" y1="2101.2044" y2="2101.2044"/><text fill="#000000" font-family="'Segoe UI'" font-size="22.7223" lengthAdjust="spacing" textLength="500.046" x="683.2295" y="2076.3693">osal_thread_join(&amp;handle_, WAIT_FOREVER)</text></g><g class="message" data-participant-1="bridge" data-participant-2="be"><polygon fill="#000000" points="1468.8924,2176.3452,1485.1226,2182.8373,1468.8924,2189.3294,1475.3845,2182.8373" style="stroke:#000000;stroke-width:1.623;"/><line style="stroke:#000000;stroke-width:1.623;" x1="1218.982" x2="1478.6305" y1="2182.8373" y2="2182.8373"/><text fill="#000000" font-family="'Segoe UI'" font-size="22.7223" lengthAdjust="spacing" textLength="180.0365" x="1263.657" y="2158.0022">implementation</text></g><g class="message" data-participant-1="be" data-participant-2="os"><polygon fill="#000000" points="2022.2445,2257.9781,2038.4747,2264.4702,2022.2445,2270.9623,2028.7366,2264.4702" style="stroke:#000000;stroke-width:1.623;"/><line style="stroke:#000000;stroke-width:1.623;" x1="1488.3687" x2="2031.9826" y1="2264.4702" y2="2264.4702"/><text fill="#000000" font-family="'Segoe UI'" font-size="22.7223" lengthAdjust="spacing" textLength="428.4508" x="1550.8193" y="2239.6351">pthread_join() / xTaskNotifyWait() / ...</text></g><path d="M2048.2533,2285.5695 L2048.2533,2360.2285 L2387.4648,2360.2285 L2387.4648,2301.7997 L2371.2346,2285.5695 L2048.2533,2285.5695" fill="#FFFFFF" style="stroke:#000000;stroke-width:1.623;"/><path d="M2371.2346,2285.5695 L2371.2346,2301.7997 L2387.4648,2301.7997 L2371.2346,2285.5695" fill="#FFFFFF" style="stroke:#000000;stroke-width:1.623;"/><text fill="#000000" font-family="'Segoe UI'" font-size="22.7223" lengthAdjust="spacing" textLength="273.5996" x="2074.2216" y="2331.0061">blocks until thread exits</text><g class="message" data-participant-1="os" data-participant-2="be"><polygon fill="#000000" points="1506.2219,2430.9821,1489.9917,2437.4741,1506.2219,2443.9662,1499.7298,2437.4741" style="stroke:#000000;stroke-width:1.623;"/><line style="stroke:#000000;stroke-width:1.623;stroke-dasharray:3.246,3.246;" x1="1496.4838" x2="2040.0978" y1="2437.4741" y2="2437.4741"/><text fill="#000000" font-family="'Segoe UI'" font-size="22.7223" lengthAdjust="spacing" textLength="88.881" x="1720.6042" y="2412.6391">success</text></g><g class="message" data-participant-1="be" data-participant-2="bridge"><polygon fill="#000000" points="1236.8352,2512.615,1220.605,2519.1071,1236.8352,2525.5991,1230.3431,2519.1071" style="stroke:#000000;stroke-width:1.623;"/><line style="stroke:#000000;stroke-width:1.623;stroke-dasharray:3.246,3.246;" x1="1227.0971" x2="1486.7456" y1="2519.1071" y2="2519.1071"/><text fill="#000000" font-family="'Segoe UI'" font-size="22.7223" lengthAdjust="spacing" textLength="120.7566" x="1293.297" y="2494.272">result{ok}</text></g><g class="message" data-participant-1="bridge" data-participant-2="t"><polygon fill="#000000" points="665.3763,2594.2479,649.146,2600.74,665.3763,2607.2321,658.8842,2600.74" style="stroke:#000000;stroke-width:1.623;"/><line style="stroke:#000000;stroke-width:1.623;stroke-dasharray:3.246,3.246;" x1="655.6381" x2="1217.3589" y1="2600.74" y2="2600.74"/><text fill="#000000" font-family="'Segoe UI'" font-size="22.7223" lengthAdjust="spacing" textLength="120.7566" x="872.8742" y="2575.9049">result{ok}</text></g><g class="message" data-participant-1="t" data-participant-2="t"><line style="stroke:#000000;stroke-width:1.623;" x1="647.523" x2="715.6899" y1="2682.3729" y2="2682.3729"/><line style="stroke:#000000;stroke-width:1.623;" x1="715.6899" x2="715.6899" y1="2682.3729" y2="2703.4722"/><line style="stroke:#000000;stroke-width:1.623;" x1="649.146" x2="715.6899" y1="2703.4722" y2="2703.4722"/><polygon fill="#000000" points="665.3763,2696.9801,649.146,2703.4722,665.3763,2709.9643,658.8842,2703.4722" style="stroke:#000000;stroke-width:1.623;"/><text fill="#000000" font-family="'Segoe UI'" font-size="22.7223" lengthAdjust="spacing" textLength="153.3201" x="675.1144" y="2657.5378">valid_ = false</text></g><g class="message" data-participant-1="t" data-participant-2="app"><polygon fill="#000000" points="271.2261,2778.613,254.9959,2785.1051,271.2261,2791.5972,264.734,2785.1051" style="stroke:#000000;stroke-width:1.623;"/><line style="stroke:#000000;stroke-width:1.623;stroke-dasharray:3.246,3.246;" x1="261.488" x2="637.7849" y1="2785.1051" y2="2785.1051"/><text fill="#000000" font-family="'Segoe UI'" font-size="22.7223" lengthAdjust="spacing" textLength="120.7566" x="386.0121" y="2760.27">result{ok}</text></g><path d="M16.2302,2806.2044 L16.2302,2906.8317 L493.3986,2906.8317 L493.3986,2822.4346 L477.1684,2806.2044 L16.2302,2806.2044" fill="#FFFFFF" style="stroke:#000000;stroke-width:1.623;"/><path d="M477.1684,2806.2044 L477.1684,2822.4346 L493.3986,2822.4346 L477.1684,2806.2044" fill="#FFFFFF" style="stroke:#000000;stroke-width:1.623;"/><text fill="#000000" font-family="'Segoe UI'" font-size="22.7223" lengthAdjust="spacing" textLength="263.5144" x="42.1986" y="2851.641">Thread handle cleared.</text><text fill="#000000" font-family="'Segoe UI'" font-size="22.7223" lengthAdjust="spacing" textLength="410.699" x="42.1986" y="2878.0912">Object may be reused or destroyed.</text><!--SRC=[hLNzYnCn4FqzVyLOGLhnMh_HIeLQT-7ql1wzKn649SrEjxccoPfaprla_dSdsMrlgmWYKkZ7vCravhqtspj-ZLk4Kd6fsHsfXQfoXD7QR75qkUGg_oxrwCoQInJUZRPIsFdvz6IK6-56kUI5vLitoYpg76rMMhEI2kbJQZyigwrYRYDroGa5IousXJMLpcT66GjtqoIyEeWSLxnIFZNQdt9ggdUEXK7uUDphW1n-gr0B_83EyGAdIXOQ16gFbZ4llKAuM5laEPp85OfQKE08PXJnD1SiAatlxmnDowYWbqAMN7leJSjIIS6zDBe7t04lIxYRl4YV9IyFWSPnDHxxU4T4Ui8zIH-dRmznU4qjQPZ1qigymAyw96PDNdQ_FuYvpHbnaQPFaeU71TuGOSGh34LPDk08JDuaoI5mVWxlwIfK4MKSzJDBqlGHOvC9p8nUoQAoSJAOJ1WBanszZWEEeUr7H1I8LV7ZXcb3L5bPh3sOLS0n22T38jdMC85jdNdkDg_QCBS508NlKH5FK-_YpjC05ATFwZMBFm_EicNjqH7YwSENptSdv1rZfG_td2sEvulZYo_PwNpnONgoG-ZWZGdqlXkxGTjxnG99eUTctaRfpg0-Z3aKCTwd0WF6XPTN0UMP3uXMXJ5q9MeJxgsvpidJ3s0u70vO2mr98K5kIqNxetsabotZ2IamXlAmp81STtr1h3NzdKTEOfJAtZRK4O- -7kskSPKGvFTOlzklHKSByyDiRlQDjGDtJdmCDdBVXX_05LSofnQ8D6yhP3bsU6bCOAxGDkEqEsKhhQKko6Ur5cjhjAcSgYFnBGAlKLHHLb8WpD3oiJTGl_NCu1UV6KVwjjRgxxmqe1ZTIKjcG9X0TkHvhtYdPyeFROJL_btzIuhs_rBuYBsL_VFq-29BvulaKxBu1_sRctVgdnelL_LdBlrU-rzPeDobCcBZeD9UgdP3YLVftNyrHHEBBiXedrPSEVo3MVxeZURXq4hVK0RqnEKMyo4Tp9VXVmEsl0ujMwmSva3F_XoTjwOEeBsKFm40]--></g></svg>