<svg xmlns="http://www.w3.org/2000/svg" xmlns:xlink="http://www.w3.org/1999/xlink" contentStyleType="text/css" data-diagram-type="SEQUENCE" height="3525.3842px" preserveAspectRatio="none" style="width:2406px;height:3525px;background:#FEFEFE;" version="1.1" viewBox="0 0 2406 3525" width="2406.6978px" zoomAndPan="magnify"><title>Work Queue - Submit / Execute Flow</title><defs/><g><rect fill="#FEFEFE" height="3525.3842" style="stroke:none;stroke-width:1.9025;" width="2406.6978" x="0" y="0"/><text fill="#000000" font-family="'Segoe UI'" font-size="41.8556" font-weight="bold" lengthAdjust="spacing" textLength="860.656" x="770.8944" y="86.4145">Work Queue - Submit / Execute Flow</text><g><title>osal..work_queue</title><rect fill="#FFFFFF" height="394.18" style="stroke:#000000;stroke-width:1.9025;" width="19.0253" x="878.3659" y="486.6607"/></g><g><title>osal..work_queue</title><rect fill="#FFFFFF" height="432.2306" style="stroke:#000000;stroke-width:1.9025;" width="19.0253" x="878.3659" y="1098.8585"/></g><g><title>osal..work_queue</title><rect fill="#FFFFFF" height="311.8065" style="stroke:#000000;stroke-width:1.9025;" width="19.0253" x="878.3659" y="1626.7802"/></g><g><title>osal..work_queue</title><rect fill="#FFFFFF" height="487.1958" style="stroke:#000000;stroke-width:1.9025;" width="19.0253" x="878.3659" y="2867.7338"/></g><g><title>Worker Thread</title><rect fill="#FFCDD2" height="590.7052" style="stroke:#000000;stroke-width:1.9025;" width="19.0253" x="1900.7944" y="1938.5867"/></g><g><title>App Thread</title><rect fill="#000000" fill-opacity="0.00000" height="3124.3372" width="15.2202" x="139.8934" y="264.8378"/><line style="stroke:#000000;stroke-width:1.9025;stroke-dasharray:9.5126,9.5126;" x1="146.4946" x2="146.4946" y1="264.8378" y2="3389.175"/></g><g><title>osal..work_queue</title><rect fill="#000000" fill-opacity="0.00000" height="3124.3372" width="15.2202" x="880.2684" y="264.8378"/><line style="stroke:#000000;stroke-width:1.9025;stroke-dasharray:9.5126,9.5126;" x1="887.4029" x2="887.4029" y1="264.8378" y2="3389.175"/></g><g><title>extern C bridge</title><rect fill="#000000" fill-opacity="0.00000" height="3124.3372" width="15.2202" x="1352.8775" y="264.8378"/><line style="stroke:#000000;stroke-width:1.9025;stroke-dasharray:9.5126,9.5126;" x1="1359.5457" x2="1359.5457" y1="264.8378" y2="3389.175"/></g><g><title>Worker Thread</title><rect fill="#000000" fill-opacity="0.00000" height="3124.3372" width="15.2202" x="1902.6969" y="264.8378"/><line style="stroke:#000000;stroke-width:1.9025;stroke-dasharray:9.5126,9.5126;" x1="1909.9736" x2="1909.9736" y1="264.8378" y2="3389.175"/></g><g class="participant participant-head" data-participant="app"><rect fill="#E8F5E9" height="95.6912" rx="4.7563" ry="4.7563" style="stroke:#000000;stroke-width:1.9025;" width="218.9059" x="38.0506" y="167.2441"/><text fill="#000000" font-family="'Segoe UI'" font-size="26.6354" lengthAdjust="spacing" textLength="154.22" x="70.3935" y="224.3106">App Thread</text></g><g class="participant participant-tail" data-participant="app"><rect fill="#E8F5E9" height="95.6912" rx="4.7563" ry="4.7563" style="stroke:#000000;stroke-width:1.9025;" width="218.9059" x="38.0506" y="3387.2725"/><text fill="#000000" font-family="'Segoe UI'" font-size="26.6354" lengthAdjust="spacing" textLength="154.22" x="70.3935" y="3444.3391">App Thread</text></g><g class="participant participant-head" data-participant="wq"><rect fill="#E3F2FD" height="95.6912" rx="4.7563" ry="4.7563" style="stroke:#000000;stroke-width:1.9025;" width="297.7456" x="739.0057" y="167.2441"/><text fill="#000000" font-family="'Segoe UI'" font-size="26.6354" lengthAdjust="spacing" textLength="233.0597" x="771.3487" y="224.3106">osal::work_queue</text></g><g class="participant participant-tail" data-participant="wq"><rect fill="#E3F2FD" height="95.6912" rx="4.7563" ry="4.7563" style="stroke:#000000;stroke-width:1.9025;" width="297.7456" x="739.0057" y="3387.2725"/><text fill="#000000" font-family="'Segoe UI'" font-size="26.6354" lengthAdjust="spacing" textLength="233.0597" x="771.3487" y="3444.3391">osal::work_queue</text></g><g class="participant participant-head" data-participant="bridge"><rect fill="#FFF3E0" height="126.6965" rx="4.7563" ry="4.7563" style="stroke:#000000;stroke-width:1.9025;" width="340.5339" x="1190.2207" y="136.2388"/><text fill="#000000" font-family="'Segoe UI'" font-size="26.6354" lengthAdjust="spacing" textLength="207.8029" x="1256.5862" y="193.3054">extern C bridge</text><text fill="#000000" font-family="'Segoe UI'" font-size="26.6354" lengthAdjust="spacing" textLength="275.848" x="1222.5637" y="224.3106">osal_work_queue_*()</text></g><g class="participant participant-tail" data-participant="bridge"><rect fill="#FFF3E0" height="126.6965" rx="4.7563" ry="4.7563" style="stroke:#000000;stroke-width:1.9025;" width="340.5339" x="1190.2207" y="3387.2725"/><text fill="#000000" font-family="'Segoe UI'" font-size="26.6354" lengthAdjust="spacing" textLength="207.8029" x="1256.5862" y="3444.3391">extern C bridge</text><text fill="#000000" font-family="'Segoe UI'" font-size="26.6354" lengthAdjust="spacing" textLength="275.848" x="1222.5637" y="3475.3443">osal_work_queue_*()</text></g><g class="participant participant-head" data-participant="worker"><rect fill="#FFEBEE" height="126.6965" rx="4.7563" ry="4.7563" style="stroke:#000000;stroke-width:1.9025;" width="263.2158" x="1778.6991" y="136.2388"/><text fill="#000000" font-family="'Segoe UI'" font-size="26.6354" lengthAdjust="spacing" textLength="198.5299" x="1811.0421" y="193.3054">Worker Thread</text><text fill="#000000" font-family="'Segoe UI'" font-size="26.6354" lengthAdjust="spacing" textLength="123.4488" x="1848.5827" y="224.3106">(internal)</text></g><g class="participant participant-tail" data-participant="worker"><rect fill="#FFEBEE" height="126.6965" rx="4.7563" ry="4.7563" style="stroke:#000000;stroke-width:1.9025;" width="263.2158" x="1778.6991" y="3387.2725"/><text fill="#000000" font-family="'Segoe UI'" font-size="26.6354" lengthAdjust="spacing" textLength="198.5299" x="1811.0421" y="3444.3391">Worker Thread</text><text fill="#000000" font-family="'Segoe UI'" font-size="26.6354" lengthAdjust="spacing" textLength="123.4488" x="1848.5827" y="3475.3443">(internal)</text></g><g><title>osal..work_queue</title><rect fill="#FFFFFF" height="394.18" style="stroke:#000000;stroke-width:1.9025;" width="19.0253" x="878.3659" y="486.6607"/></g><g><title>osal..work_queue</title><rect fill="#FFFFFF" height="432.2306" style="stroke:#000000;stroke-width:1.9025;" width="19.0253" x="878.3659" y="1098.8585"/></g><g><title>osal..work_queue</title><rect fill="#FFFFFF" height="311.8065" style="stroke:#000000;stroke-width:1.9025;" width="19.0253" x="878.3659" y="1626.7802"/></g><g><title>osal..work_queue</title><rect fill="#FFFFFF" height="487.1958" style="stroke:#000000;stroke-width:1.9025;" width="19.0253" x="878.3659" y="2867.7338"/></g><g><title>Worker Thread</title><rect fill="#FFCDD2" height="590.7052" style="stroke:#000000;stroke-width:1.9025;" width="19.0253" x="1900.7944" y="1938.5867"/></g><rect fill="#FFFFFF" height="5.7076" style="stroke:#FFFFFF;stroke-width:1.9025;" width="2385.3222" x="9.5126" y="343.1239"/><line style="stroke:#000000;stroke-width:0.9513;" x1="9.5126" x2="2394.8348" y1="343.1239" y2="343.1239"/><line style="stroke:#000000;stroke-width:0.9513;" x1="9.5126" x2="2394.8348" y1="348.8315" y2="348.8315"/><rect fill="#FFFFFF" height="84.276" style="stroke:#000000;stroke-width:1.9025;" width="173.4775" x="1115.435" y="302.8884"/><text fill="#000000" font-family="'Segoe UI'" font-size="26.6354" font-weight="bold" lengthAdjust="spacing" textLength="99.5186" x="1145.8754" y="354.2473">Create</text><g class="message" data-participant-1="app" data-participant-2="wq"><polygon fill="#000000" points="855.5356,479.0506,874.5609,486.6607,855.5356,494.2708,863.1457,486.6607" style="stroke:#000000;stroke-width:1.9025;"/><line style="stroke:#000000;stroke-width:1.9025;" x1="147.5035" x2="866.9507" y1="486.6607" y2="486.6607"/><text fill="#000000" font-family="'Segoe UI'" font-size="26.6354" lengthAdjust="spacing" textLength="656.6638" x="184.6028" y="457.5487">work_queue(stack, stack_bytes, depth, "my_wq")</text></g><g class="message" data-participant-1="wq" data-participant-2="bridge"><polygon fill="#000000" points="1337.6573,574.7418,1356.6826,582.3519,1337.6573,589.962,1345.2674,582.3519" style="stroke:#000000;stroke-width:1.9025;"/><line style="stroke:#000000;stroke-width:1.9025;" x1="897.3912" x2="1349.0725" y1="582.3519" y2="582.3519"/><text fill="#000000" font-family="'Segoe UI'" font-size="26.6354" lengthAdjust="spacing" textLength="373.0645" x="942.4072" y="553.2399">osal_work_queue_create(...)</text></g><g class="message" data-participant-1="bridge" data-participant-2="worker"><polygon fill="#000000" points="1887.4767,670.433,1906.502,678.0431,1887.4767,685.6532,1895.0868,678.0431" style="stroke:#000000;stroke-width:1.9025;"/><line style="stroke:#000000;stroke-width:1.9025;" x1="1360.4877" x2="1898.8919" y1="678.0431" y2="678.0431"/><text fill="#000000" font-family="'Segoe UI'" font-size="26.6354" lengthAdjust="spacing" textLength="282.3898" x="1494.2025" y="648.9311">spawn worker thread</text></g><path d="M1919.6506,702.776 L1919.6506,790.2922 L2309.6688,790.2922 L2309.6688,721.8012 L2290.6436,702.776 L1919.6506,702.776" fill="#FFFFFF" style="stroke:#000000;stroke-width:1.9025;"/><path d="M2290.6436,702.776 L2290.6436,721.8012 L2309.6688,721.8012 L2290.6436,702.776" fill="#FFFFFF" style="stroke:#000000;stroke-width:1.9025;"/><text fill="#000000" font-family="'Segoe UI'" font-size="26.6354" lengthAdjust="spacing" textLength="312.0164" x="1950.0911" y="756.0375">blocks on empty queue</text><g class="message" data-participant-1="wq" data-participant-2="app"><polygon fill="#000000" points="168.4313,873.2306,149.406,880.8407,168.4313,888.4508,160.8212,880.8407" style="stroke:#000000;stroke-width:1.9025;"/><line style="stroke:#000000;stroke-width:1.9025;stroke-dasharray:3.8051,3.8051;" x1="157.0161" x2="885.976" y1="880.8407" y2="880.8407"/><text fill="#000000" font-family="'Segoe UI'" font-size="26.6354" lengthAdjust="spacing" textLength="200.8059" x="417.2881" y="851.7287">valid() == true</text></g><rect fill="#FFFFFF" height="5.7076" style="stroke:#FFFFFF;stroke-width:1.9025;" width="2385.3222" x="9.5126" y="955.3217"/><line style="stroke:#000000;stroke-width:0.9513;" x1="9.5126" x2="2394.8348" y1="955.3217" y2="955.3217"/><line style="stroke:#000000;stroke-width:0.9513;" x1="9.5126" x2="2394.8348" y1="961.0293" y2="961.0293"/><rect fill="#FFFFFF" height="84.276" style="stroke:#000000;stroke-width:1.9025;" width="356.6218" x="1023.8628" y="915.0862"/><text fill="#000000" font-family="'Segoe UI'" font-size="26.6354" font-weight="bold" lengthAdjust="spacing" textLength="282.6629" x="1054.3033" y="966.4451">Submit work items</text><g class="message" data-participant-1="app" data-participant-2="wq"><polygon fill="#000000" points="855.5356,1091.2484,874.5609,1098.8585,855.5356,1106.4686,863.1457,1098.8585" style="stroke:#000000;stroke-width:1.9025;"/><line style="stroke:#000000;stroke-width:1.9025;" x1="147.5035" x2="866.9507" y1="1098.8585" y2="1098.8585"/><text fill="#000000" font-family="'Segoe UI'" font-size="26.6354" lengthAdjust="spacing" textLength="334.8282" x="345.5206" y="1069.7465">submit(handler_A, ctx_A)</text></g><g class="message" data-participant-1="wq" data-participant-2="bridge"><polygon fill="#000000" points="1337.6573,1186.9396,1356.6826,1194.5497,1337.6573,1202.1598,1345.2674,1194.5497" style="stroke:#000000;stroke-width:1.9025;"/><line style="stroke:#000000;stroke-width:1.9025;" x1="897.3912" x2="1349.0725" y1="1194.5497" y2="1194.5497"/><text fill="#000000" font-family="'Segoe UI'" font-size="26.6354" lengthAdjust="spacing" textLength="379.3852" x="939.2468" y="1165.4377">osal_work_queue_submit(...)</text></g><g class="message" data-participant-1="bridge" data-participant-2="bridge"><line style="stroke:#000000;stroke-width:1.9025;" x1="1360.4877" x2="1440.3938" y1="1290.2409" y2="1290.2409"/><line style="stroke:#000000;stroke-width:1.9025;" x1="1440.3938" x2="1440.3938" y1="1290.2409" y2="1314.9738"/><line style="stroke:#000000;stroke-width:1.9025;" x1="1362.3902" x2="1440.3938" y1="1314.9738" y2="1314.9738"/><polygon fill="#000000" points="1381.4155,1307.3636,1362.3902,1314.9738,1381.4155,1322.5839,1373.8053,1314.9738" style="stroke:#000000;stroke-width:1.9025;"/><text fill="#000000" font-family="'Segoe UI'" font-size="26.6354" lengthAdjust="spacing" textLength="485.0294" x="1392.8306" y="1261.1289">enqueue {handler_A, ctx_A, seq=1}</text></g><g class="message" data-participant-1="bridge" data-participant-2="bridge"><line style="stroke:#000000;stroke-width:1.9025;" x1="1360.4877" x2="1440.3938" y1="1410.665" y2="1410.665"/><line style="stroke:#000000;stroke-width:1.9025;" x1="1440.3938" x2="1440.3938" y1="1410.665" y2="1435.3978"/><line style="stroke:#000000;stroke-width:1.9025;" x1="1362.3902" x2="1440.3938" y1="1435.3978" y2="1435.3978"/><polygon fill="#000000" points="1381.4155,1427.7877,1362.3902,1435.3978,1381.4155,1443.0079,1373.8053,1435.3978" style="stroke:#000000;stroke-width:1.9025;"/><text fill="#000000" font-family="'Segoe UI'" font-size="26.6354" lengthAdjust="spacing" textLength="179.0476" x="1392.8306" y="1381.5529">signal worker</text></g><g class="message" data-participant-1="wq" data-participant-2="app"><polygon fill="#000000" points="168.4313,1523.4789,149.406,1531.089,168.4313,1538.6991,160.8212,1531.089" style="stroke:#000000;stroke-width:1.9025;"/><line style="stroke:#000000;stroke-width:1.9025;stroke-dasharray:3.8051,3.8051;" x1="157.0161" x2="885.976" y1="1531.089" y2="1531.089"/><text fill="#000000" font-family="'Segoe UI'" font-size="26.6354" lengthAdjust="spacing" textLength="141.5525" x="446.9148" y="1501.977">result{ok}</text></g><g class="message" data-participant-1="app" data-participant-2="wq"><polygon fill="#000000" points="855.5356,1619.1701,874.5609,1626.7802,855.5356,1634.3904,863.1457,1626.7802" style="stroke:#000000;stroke-width:1.9025;"/><line style="stroke:#000000;stroke-width:1.9025;" x1="147.5035" x2="866.9507" y1="1626.7802" y2="1626.7802"/><text fill="#000000" font-family="'Segoe UI'" font-size="26.6354" lengthAdjust="spacing" textLength="334.9322" x="345.4686" y="1597.6682">submit(handler_B, ctx_B)</text></g><g class="message" data-participant-1="wq" data-participant-2="bridge"><polygon fill="#000000" points="1337.6573,1714.8613,1356.6826,1722.4714,1337.6573,1730.0816,1345.2674,1722.4714" style="stroke:#000000;stroke-width:1.9025;"/><line style="stroke:#000000;stroke-width:1.9025;" x1="897.3912" x2="1349.0725" y1="1722.4714" y2="1722.4714"/><text fill="#000000" font-family="'Segoe UI'" font-size="26.6354" lengthAdjust="spacing" textLength="379.3852" x="939.2468" y="1693.3594">osal_work_queue_submit(...)</text></g><g class="message" data-participant-1="bridge" data-participant-2="bridge"><line style="stroke:#000000;stroke-width:1.9025;" x1="1360.4877" x2="1440.3938" y1="1818.1627" y2="1818.1627"/><line style="stroke:#000000;stroke-width:1.9025;" x1="1440.3938" x2="1440.3938" y1="1818.1627" y2="1842.8955"/><line style="stroke:#000000;stroke-width:1.9025;" x1="1362.3902" x2="1440.3938" y1="1842.8955" y2="1842.8955"/><polygon fill="#000000" points="1381.4155,1835.2854,1362.3902,1842.8955,1381.4155,1850.5056,1373.8053,1842.8955" style="stroke:#000000;stroke-width:1.9025;"/><text fill="#000000" font-family="'Segoe UI'" font-size="26.6354" lengthAdjust="spacing" textLength="485.1335" x="1392.8306" y="1789.0506">enqueue {handler_B, ctx_B, seq=2}</text></g><g class="message" data-participant-1="wq" data-participant-2="app"><polygon fill="#000000" points="168.4313,1930.9766,149.406,1938.5867,168.4313,1946.1968,160.8212,1938.5867" style="stroke:#000000;stroke-width:1.9025;"/><line style="stroke:#000000;stroke-width:1.9025;stroke-dasharray:3.8051,3.8051;" x1="157.0161" x2="885.976" y1="1938.5867" y2="1938.5867"/><text fill="#000000" font-family="'Segoe UI'" font-size="26.6354" lengthAdjust="spacing" textLength="141.5525" x="446.9148" y="1909.4747">result{ok}</text></g><rect fill="#FFFFFF" height="5.7076" style="stroke:#FFFFFF;stroke-width:1.9025;" width="2385.3222" x="9.5126" y="2013.0677"/><line style="stroke:#000000;stroke-width:0.9513;" x1="9.5126" x2="2394.8348" y1="2013.0677" y2="2013.0677"/><line style="stroke:#000000;stroke-width:0.9513;" x1="9.5126" x2="2394.8348" y1="2018.7753" y2="2018.7753"/><rect fill="#FFFFFF" height="84.276" style="stroke:#000000;stroke-width:1.9025;" width="523.041" x="940.6533" y="1972.8322"/><text fill="#000000" font-family="'Segoe UI'" font-size="26.6354" font-weight="bold" lengthAdjust="spacing" textLength="449.082" x="971.0937" y="2024.1912">Worker executes items (FIFO)</text><g class="message" data-participant-1="worker" data-participant-2="worker"><line style="stroke:#000000;stroke-width:1.9025;" x1="1919.8197" x2="1999.7259" y1="2156.6045" y2="2156.6045"/><line style="stroke:#000000;stroke-width:1.9025;" x1="1999.7259" x2="1999.7259" y1="2156.6045" y2="2181.3374"/><line style="stroke:#000000;stroke-width:1.9025;" x1="1921.7222" x2="1999.7259" y1="2181.3374" y2="2181.3374"/><polygon fill="#000000" points="1940.7475,2173.7273,1921.7222,2181.3374,1940.7475,2188.9475,1933.1374,2181.3374" style="stroke:#000000;stroke-width:1.9025;"/><text fill="#000000" font-family="'Segoe UI'" font-size="26.6354" lengthAdjust="spacing" textLength="381.6872" x="1952.1627" y="2127.4925">dequeue {handler_A, ctx_A}</text></g><g class="message" data-participant-1="worker" data-participant-2="worker"><line style="stroke:#000000;stroke-width:1.9025;" x1="1919.8197" x2="1999.7259" y1="2277.0286" y2="2277.0286"/><line style="stroke:#000000;stroke-width:1.9025;" x1="1999.7259" x2="1999.7259" y1="2277.0286" y2="2301.7615"/><line style="stroke:#000000;stroke-width:1.9025;" x1="1921.7222" x2="1999.7259" y1="2301.7615" y2="2301.7615"/><polygon fill="#000000" points="1940.7475,2294.1513,1921.7222,2301.7615,1940.7475,2309.3716,1933.1374,2301.7615" style="stroke:#000000;stroke-width:1.9025;"/><text fill="#000000" font-family="'Segoe UI'" font-size="26.6354" lengthAdjust="spacing" textLength="226.4398" x="1952.1627" y="2247.9166">handler_A(ctx_A)</text></g><g class="message" data-participant-1="worker" data-participant-2="worker"><line style="stroke:#000000;stroke-width:1.9025;" x1="1919.8197" x2="1999.7259" y1="2397.4527" y2="2397.4527"/><line style="stroke:#000000;stroke-width:1.9025;" x1="1999.7259" x2="1999.7259" y1="2397.4527" y2="2422.1855"/><line style="stroke:#000000;stroke-width:1.9025;" x1="1921.7222" x2="1999.7259" y1="2422.1855" y2="2422.1855"/><polygon fill="#000000" points="1940.7475,2414.5754,1921.7222,2422.1855,1940.7475,2429.7956,1933.1374,2422.1855" style="stroke:#000000;stroke-width:1.9025;"/><text fill="#000000" font-family="'Segoe UI'" font-size="26.6354" lengthAdjust="spacing" textLength="381.7913" x="1952.1627" y="2368.3406">dequeue {handler_B, ctx_B}</text></g><g class="message" data-participant-1="worker" data-participant-2="worker"><line style="stroke:#000000;stroke-width:1.9025;" x1="1919.8197" x2="1999.7259" y1="2527.3894" y2="2527.3894"/><line style="stroke:#000000;stroke-width:1.9025;" x1="1999.7259" x2="1999.7259" y1="2527.3894" y2="2552.1222"/><line style="stroke:#000000;stroke-width:1.9025;" x1="1910.3071" x2="1999.7259" y1="2552.1222" y2="2552.1222"/><polygon fill="#000000" points="1929.3323,2544.5121,1910.3071,2552.1222,1929.3323,2559.7323,1921.7222,2552.1222" style="stroke:#000000;stroke-width:1.9025;"/><text fill="#000000" font-family="'Segoe UI'" font-size="26.6354" lengthAdjust="spacing" textLength="226.5439" x="1952.1627" y="2498.2774">handler_B(ctx_B)</text></g><path d="M1919.6506,2567.3425 L1919.6506,2654.8587 L2357.232,2654.8587 L2357.232,2586.3677 L2338.2068,2567.3425 L1919.6506,2567.3425" fill="#FFFFFF" style="stroke:#000000;stroke-width:1.9025;"/><path d="M2338.2068,2567.3425 L2338.2068,2586.3677 L2357.232,2586.3677 L2338.2068,2567.3425" fill="#FFFFFF" style="stroke:#000000;stroke-width:1.9025;"/><text fill="#000000" font-family="'Segoe UI'" font-size="26.6354" lengthAdjust="spacing" textLength="361.1384" x="1950.0911" y="2620.604">queue empty, blocks again</text><rect fill="#FFFFFF" height="5.7076" style="stroke:#FFFFFF;stroke-width:1.9025;" width="2385.3222" x="9.5126" y="2724.197"/><line style="stroke:#000000;stroke-width:0.9513;" x1="9.5126" x2="2394.8348" y1="2724.197" y2="2724.197"/><line style="stroke:#000000;stroke-width:0.9513;" x1="9.5126" x2="2394.8348" y1="2729.9045" y2="2729.9045"/><rect fill="#FFFFFF" height="84.276" style="stroke:#000000;stroke-width:1.9025;" width="368.704" x="1017.8218" y="2683.9615"/><text fill="#000000" font-family="'Segoe UI'" font-size="26.6354" font-weight="bold" lengthAdjust="spacing" textLength="294.745" x="1048.2622" y="2735.3204">Flush (synchronize)</text><g class="message" data-participant-1="app" data-participant-2="wq"><polygon fill="#000000" points="855.5356,2860.1237,874.5609,2867.7338,855.5356,2875.3439,863.1457,2867.7338" style="stroke:#000000;stroke-width:1.9025;"/><line style="stroke:#000000;stroke-width:1.9025;" x1="147.5035" x2="866.9507" y1="2867.7338" y2="2867.7338"/><text fill="#000000" font-family="'Segoe UI'" font-size="26.6354" lengthAdjust="spacing" textLength="192.8075" x="416.531" y="2838.6218">flush(5000ms)</text></g><g class="message" data-participant-1="wq" data-participant-2="bridge"><polygon fill="#000000" points="1337.6573,2955.8149,1356.6826,2963.425,1337.6573,2971.0351,1345.2674,2963.425" style="stroke:#000000;stroke-width:1.9025;"/><line style="stroke:#000000;stroke-width:1.9025;" x1="897.3912" x2="1349.0725" y1="2963.425" y2="2963.425"/><text fill="#000000" font-family="'Segoe UI'" font-size="26.6354" lengthAdjust="spacing" textLength="352.3467" x="952.7661" y="2934.313">osal_work_queue_flush(...)</text></g><path d="M1369.8201,2988.1578 L1369.8201,3168.898 L1875.8925,3168.898 L1875.8925,3007.1831 L1856.8672,2988.1578 L1369.8201,2988.1578" fill="#FFFFFF" style="stroke:#000000;stroke-width:1.9025;"/><path d="M1856.8672,2988.1578 L1856.8672,3007.1831 L1875.8925,3007.1831 L1856.8672,2988.1578" fill="#FFFFFF" style="stroke:#000000;stroke-width:1.9025;"/><text fill="#000000" font-family="'Segoe UI'" font-size="26.6354" lengthAdjust="spacing" textLength="333.9178" x="1400.2605" y="3041.4193">captures the last queued</text><text fill="#000000" font-family="'Segoe UI'" font-size="26.6354" lengthAdjust="spacing" textLength="429.1705" x="1400.2605" y="3072.4246">work-item sequence at call time</text><text fill="#000000" font-family="'Segoe UI'" font-size="26.6354" lengthAdjust="spacing" textLength="335.4264" x="1400.2605" y="3103.4299">and waits until execution</text><text fill="#000000" font-family="'Segoe UI'" font-size="26.6354" lengthAdjust="spacing" textLength="423.1359" x="1400.2605" y="3134.4351">reaches that frontier or timeout</text><g class="message" data-participant-1="bridge" data-participant-2="wq"><polygon fill="#000000" points="918.319,3251.6282,899.2937,3259.2383,918.319,3266.8485,910.7089,3259.2383" style="stroke:#000000;stroke-width:1.9025;"/><line style="stroke:#000000;stroke-width:1.9025;stroke-dasharray:3.8051,3.8051;" x1="906.9038" x2="1358.5851" y1="3259.2383" y2="3259.2383"/><text fill="#000000" font-family="'Segoe UI'" font-size="26.6354" lengthAdjust="spacing" textLength="141.5525" x="1058.1632" y="3230.1263">result{ok}</text></g><g class="message" data-participant-1="wq" data-participant-2="app"><polygon fill="#000000" points="168.4313,3347.3194,149.406,3354.9295,168.4313,3362.5397,160.8212,3354.9295" style="stroke:#000000;stroke-width:1.9025;"/><line style="stroke:#000000;stroke-width:1.9025;stroke-dasharray:3.8051,3.8051;" x1="157.0161" x2="885.976" y1="3354.9295" y2="3354.9295"/><text fill="#000000" font-family="'Segoe UI'" font-size="26.6354" lengthAdjust="spacing" textLength="141.5525" x="446.9148" y="3325.8175">result{ok}</text></g><!--SRC=[jLLTRzf047o_Nx4XBwOYG1D5Qf6e10HBaTgcLLhr9H8wx0LVED-PktCS6l7VksSR0kH3oKF50x9kPdPdTyu-SWcc29daGh4ZeIAPnmYTHAVOkPro6HT2TNuOVOkHivrKHERgUl2r4-l8TcB1vuQdjZCng68qaypecP18_qAvTfQdajc5K1ad54nvj9WRdQjufAKsS1oE_My74UECvzA5Mhdld9fgNEDS8_o-REo0B2vpL15-Gslv70TIp1L4g1mQnfnm4k6FDWlucMEES0BN-JGL3ZemliSeTmYXr0LZ9EP493Ak73G6MGQ_4eCyRW2tmEdnUFmfF1z_tiTfosMlLv3yPEdbItIn9F1PU1fUx8FndbfIC8Af4V4SRvHdJnx9amz1inIepcaUONWsxkwBU2jewkPkL22yJyLbnIogKsAEX-CnO_q-Z0X89ljznhoDao- -lnuybWsieqMqeFoRJ5SEROicdxca1OrqDIcMZIRZaHDtNgTOCkAJIjra3mvTH6N1eDrkDraDyaMhpdfWCrwepQChRJ2bITc8UU90pnwXKwcZXGMj0DFChQ3KBykJe3VJWpikHHmqoHuuGuSnxdRg_TVhzg8W7ARsoIXiYGWIhc99cHsq87Btay6xJDSQ1wQtS5Gb31uEYxHyVFiVry-HB0MPoteS-xODMheN3tgnFdJyYh5XLNFuNurjYbJ6JjTlxPisLKSRgsjfwsq5uMLurQoMjYLiOpwwk3XbzUDkoc9yOU3hvz1RK51l_YsA6wUlAWw3UkIxTgk5lX3wgaeP-DRc1l2vVndx6OKojma4TgMYn6Wb_cBpIPvd7XESTxlTrBvhrnMnNFL-SnM30KGySpajaIukWkJMLUt6TEHrJlpAjYzau8u8Ke8JgIVJIA3Wmbd8bHEoNhJGYixeDH0bfIwHPkJC2Pe6VHGyL-UEqVS4V5FR46xSxaJgRL7x1m00]--></g></svg>