<svg xmlns="http://www.w3.org/2000/svg" xmlns:xlink="http://www.w3.org/1999/xlink" contentStyleType="text/css" data-diagram-type="SEQUENCE" height="3996.2822px" preserveAspectRatio="none" style="width:2406px;height:3996px;background:#FEFEFE;" version="1.1" viewBox="0 0 2406 3996" width="2406.5523px" zoomAndPan="magnify"><title>Work Queue - Submit / Execute Flow</title><defs/><g><rect fill="#FEFEFE" height="3996.2822" style="stroke:none;stroke-width:2.1958;" width="2406.5523" x="0" y="0"/><text fill="#000000" font-family="'Segoe UI'" font-size="48.3067" font-weight="bold" lengthAdjust="spacing" textLength="993.3067" x="704.2759" y="99.7334">Work Queue - Submit / Execute Flow</text><g><title>osal..work_queue</title><rect fill="#FFFFFF" height="454.9339" style="stroke:#000000;stroke-width:2.1958;" width="21.9576" x="762.1773" y="561.6684"/></g><g><title>osal..work_queue</title><rect fill="#FFFFFF" height="498.8491" style="stroke:#000000;stroke-width:2.1958;" width="21.9576" x="762.1773" y="1268.2226"/></g><g><title>osal..work_queue</title><rect fill="#FFFFFF" height="359.8644" style="stroke:#000000;stroke-width:2.1958;" width="21.9576" x="762.1773" y="1877.5116"/></g><g><title>osal..work_queue</title><rect fill="#FFFFFF" height="490.7179" style="stroke:#000000;stroke-width:2.1958;" width="21.9576" x="762.1773" y="3309.73"/></g><g><title>Worker Thread</title><rect fill="#FFCDD2" height="681.749" style="stroke:#000000;stroke-width:2.1958;" width="21.9576" x="1822.8899" y="2237.3759"/></g><g><title>App Thread</title><rect fill="#000000" fill-opacity="0.00000" height="3534.315" width="17.5661" x="161.4548" y="305.6566"/><line style="stroke:#000000;stroke-width:2.1958;stroke-dasharray:10.9788,10.9788;" x1="169.0735" x2="169.0735" y1="305.6566" y2="3839.9716"/></g><g><title>osal..work_queue</title><rect fill="#000000" fill-opacity="0.00000" height="3534.315" width="17.5661" x="764.373" y="305.6566"/><line style="stroke:#000000;stroke-width:2.1958;stroke-dasharray:10.9788,10.9788;" x1="772.6071" x2="772.6071" y1="305.6566" y2="3839.9716"/></g><g><title>extern C bridge</title><rect fill="#000000" fill-opacity="0.00000" height="3534.315" width="17.5661" x="1309.8241" y="305.6566"/><line style="stroke:#000000;stroke-width:2.1958;stroke-dasharray:10.9788,10.9788;" x1="1317.52" x2="1317.52" y1="305.6566" y2="3839.9716"/></g><g><title>Worker Thread</title><rect fill="#000000" fill-opacity="0.00000" height="3534.315" width="17.5661" x="1825.0857" y="305.6566"/><line style="stroke:#000000;stroke-width:2.1958;stroke-dasharray:10.9788,10.9788;" x1="1833.4838" x2="1833.4838" y1="305.6566" y2="3839.9716"/></g><g class="participant participant-head" data-participant="app"><rect fill="#E8F5E9" height="110.4398" rx="5.4894" ry="5.4894" style="stroke:#000000;stroke-width:2.1958;" width="252.6453" x="43.9152" y="193.021"/><text fill="#000000" font-family="'Segoe UI'" font-size="30.7406" lengthAdjust="spacing" textLength="177.9895" x="81.2431" y="258.883">App Thread</text></g><g class="participant participant-tail" data-participant="app"><rect fill="#E8F5E9" height="110.4398" rx="5.4894" ry="5.4894" style="stroke:#000000;stroke-width:2.1958;" width="252.6453" x="43.9152" y="3837.7758"/><text fill="#000000" font-family="'Segoe UI'" font-size="30.7406" lengthAdjust="spacing" textLength="177.9895" x="81.2431" y="3903.6379">App Thread</text></g><g class="participant participant-head" data-participant="wq"><rect fill="#E3F2FD" height="110.4398" rx="5.4894" ry="5.4894" style="stroke:#000000;stroke-width:2.1958;" width="343.6364" x="601.3379" y="193.021"/><text fill="#000000" font-family="'Segoe UI'" font-size="30.7406" lengthAdjust="spacing" textLength="268.9805" x="638.6658" y="258.883">osal::work_queue</text></g><g class="participant participant-tail" data-participant="wq"><rect fill="#E3F2FD" height="110.4398" rx="5.4894" ry="5.4894" style="stroke:#000000;stroke-width:2.1958;" width="343.6364" x="601.3379" y="3837.7758"/><text fill="#000000" font-family="'Segoe UI'" font-size="30.7406" lengthAdjust="spacing" textLength="268.9805" x="638.6658" y="3903.6379">osal::work_queue</text></g><g class="participant participant-head" data-participant="bridge"><rect fill="#FFF3E0" height="146.2239" rx="5.4894" ry="5.4894" style="stroke:#000000;stroke-width:2.1958;" width="393.0195" x="1122.0974" y="157.237"/><text fill="#000000" font-family="'Segoe UI'" font-size="30.7406" lengthAdjust="spacing" textLength="239.831" x="1198.6917" y="223.099">extern C bridge</text><text fill="#000000" font-family="'Segoe UI'" font-size="30.7406" lengthAdjust="spacing" textLength="318.3637" x="1159.4253" y="258.883">osal_work_queue_*()</text></g><g class="participant participant-tail" data-participant="bridge"><rect fill="#FFF3E0" height="146.2239" rx="5.4894" ry="5.4894" style="stroke:#000000;stroke-width:2.1958;" width="393.0195" x="1122.0974" y="3837.7758"/><text fill="#000000" font-family="'Segoe UI'" font-size="30.7406" lengthAdjust="spacing" textLength="239.831" x="1198.6917" y="3903.6379">extern C bridge</text><text fill="#000000" font-family="'Segoe UI'" font-size="30.7406" lengthAdjust="spacing" textLength="318.3637" x="1159.4253" y="3939.4219">osal_work_queue_*()</text></g><g class="participant participant-head" data-participant="worker"><rect fill="#FFEBEE" height="146.2239" rx="5.4894" ry="5.4894" style="stroke:#000000;stroke-width:2.1958;" width="303.7846" x="1681.9764" y="157.237"/><text fill="#000000" font-family="'Segoe UI'" font-size="30.7406" lengthAdjust="spacing" textLength="229.1288" x="1719.3043" y="223.099">Worker Thread</text><text fill="#000000" font-family="'Segoe UI'" font-size="30.7406" lengthAdjust="spacing" textLength="142.4756" x="1762.6309" y="258.883">(internal)</text></g><g class="participant participant-tail" data-participant="worker"><rect fill="#FFEBEE" height="146.2239" rx="5.4894" ry="5.4894" style="stroke:#000000;stroke-width:2.1958;" width="303.7846" x="1681.9764" y="3837.7758"/><text fill="#000000" font-family="'Segoe UI'" font-size="30.7406" lengthAdjust="spacing" textLength="229.1288" x="1719.3043" y="3903.6379">Worker Thread</text><text fill="#000000" font-family="'Segoe UI'" font-size="30.7406" lengthAdjust="spacing" textLength="142.4756" x="1762.6309" y="3939.4219">(internal)</text></g><g><title>osal..work_queue</title><rect fill="#FFFFFF" height="454.9339" style="stroke:#000000;stroke-width:2.1958;" width="21.9576" x="762.1773" y="561.6684"/></g><g><title>osal..work_queue</title><rect fill="#FFFFFF" height="498.8491" style="stroke:#000000;stroke-width:2.1958;" width="21.9576" x="762.1773" y="1268.2226"/></g><g><title>osal..work_queue</title><rect fill="#FFFFFF" height="359.8644" style="stroke:#000000;stroke-width:2.1958;" width="21.9576" x="762.1773" y="1877.5116"/></g><g><title>osal..work_queue</title><rect fill="#FFFFFF" height="490.7179" style="stroke:#000000;stroke-width:2.1958;" width="21.9576" x="762.1773" y="3309.73"/></g><g><title>Worker Thread</title><rect fill="#FFCDD2" height="681.749" style="stroke:#000000;stroke-width:2.1958;" width="21.9576" x="1822.8899" y="2237.3759"/></g><rect fill="#FFFFFF" height="6.5873" style="stroke:#FFFFFF;stroke-width:2.1958;" width="2382.0966" x="10.9788" y="396.0086"/><line style="stroke:#000000;stroke-width:1.0979;" x1="10.9788" x2="2393.0754" y1="396.0086" y2="396.0086"/><line style="stroke:#000000;stroke-width:1.0979;" x1="10.9788" x2="2393.0754" y1="402.5959" y2="402.5959"/><rect fill="#FFFFFF" height="97.2653" style="stroke:#000000;stroke-width:2.1958;" width="200.2151" x="1101.9196" y="349.5718"/><text fill="#000000" font-family="'Segoe UI'" font-size="30.7406" font-weight="bold" lengthAdjust="spacing" textLength="114.8571" x="1137.0517" y="408.8465">Create</text><g class="message" data-participant-1="app" data-participant-2="wq"><polygon fill="#000000" points="735.8282,552.8854,757.7857,561.6684,735.8282,570.4514,744.6112,561.6684" style="stroke:#000000;stroke-width:2.1958;"/><line style="stroke:#000000;stroke-width:2.1958;" x1="170.2378" x2="749.0027" y1="561.6684" y2="561.6684"/><text fill="#000000" font-family="'Segoe UI'" font-size="30.7406" lengthAdjust="spacing" textLength="506.3048" x="213.0551" y="528.0694">work_queue(stack, 16, "my_wq")</text></g><g class="message" data-participant-1="wq" data-participant-2="bridge"><polygon fill="#000000" points="1292.258,663.3252,1314.2156,672.1082,1292.258,680.8913,1301.0411,672.1082" style="stroke:#000000;stroke-width:2.1958;"/><line style="stroke:#000000;stroke-width:2.1958;" x1="784.1349" x2="1305.4326" y1="672.1082" y2="672.1082"/><text fill="#000000" font-family="'Segoe UI'" font-size="30.7406" lengthAdjust="spacing" textLength="430.564" x="836.089" y="638.5093">osal_work_queue_create(...)</text></g><g class="message" data-participant-1="bridge" data-participant-2="worker"><polygon fill="#000000" points="1807.5196,773.765,1829.4772,782.5481,1807.5196,791.3311,1816.3026,782.5481" style="stroke:#000000;stroke-width:2.1958;"/><line style="stroke:#000000;stroke-width:2.1958;" x1="1318.6072" x2="1820.6941" y1="782.5481" y2="782.5481"/><text fill="#000000" font-family="'Segoe UI'" font-size="30.7406" lengthAdjust="spacing" textLength="325.9137" x="1413.2811" y="748.9491">spawn worker thread</text></g><path d="M1844.4379,811.093 L1844.4379,912.0979 L2294.5686,912.0979 L2294.5686,833.0505 L2272.611,811.093 L1844.4379,811.093" fill="#FFFFFF" style="stroke:#000000;stroke-width:2.1958;"/><path d="M2272.611,811.093 L2272.611,833.0505 L2294.5686,833.0505 L2272.611,811.093" fill="#FFFFFF" style="stroke:#000000;stroke-width:2.1958;"/><text fill="#000000" font-family="'Segoe UI'" font-size="30.7406" lengthAdjust="spacing" textLength="360.1067" x="1879.5701" y="872.5635">blocks on empty queue</text><g class="message" data-participant-1="wq" data-participant-2="app"><polygon fill="#000000" points="194.3912,1007.8193,172.4336,1016.6023,194.3912,1025.3853,185.6081,1016.6023" style="stroke:#000000;stroke-width:2.1958;"/><line style="stroke:#000000;stroke-width:2.1958;stroke-dasharray:4.3915,4.3915;" x1="181.2166" x2="770.9603" y1="1016.6023" y2="1016.6023"/><text fill="#000000" font-family="'Segoe UI'" font-size="30.7406" lengthAdjust="spacing" textLength="231.7555" x="355.8192" y="983.0033">valid() == true</text></g><rect fill="#FFFFFF" height="6.5873" style="stroke:#FFFFFF;stroke-width:2.1958;" width="2382.0966" x="10.9788" y="1102.5629"/><line style="stroke:#000000;stroke-width:1.0979;" x1="10.9788" x2="2393.0754" y1="1102.5629" y2="1102.5629"/><line style="stroke:#000000;stroke-width:1.0979;" x1="10.9788" x2="2393.0754" y1="1109.1501" y2="1109.1501"/><rect fill="#FFFFFF" height="97.2653" style="stroke:#000000;stroke-width:2.1958;" width="411.587" x="996.2336" y="1056.126"/><text fill="#000000" font-family="'Segoe UI'" font-size="30.7406" font-weight="bold" lengthAdjust="spacing" textLength="326.229" x="1031.3658" y="1115.4008">Submit work items</text><g class="message" data-participant-1="app" data-participant-2="wq"><polygon fill="#000000" points="735.8282,1259.4396,757.7857,1268.2226,735.8282,1277.0057,744.6112,1268.2226" style="stroke:#000000;stroke-width:2.1958;"/><line style="stroke:#000000;stroke-width:2.1958;" x1="170.2378" x2="749.0027" y1="1268.2226" y2="1268.2226"/><text fill="#000000" font-family="'Segoe UI'" font-size="30.7406" lengthAdjust="spacing" textLength="386.4344" x="272.9904" y="1234.6236">submit(handler_A, ctx_A)</text></g><g class="message" data-participant-1="wq" data-participant-2="bridge"><polygon fill="#000000" points="1292.258,1369.8794,1314.2156,1378.6625,1292.258,1387.4455,1301.0411,1378.6625" style="stroke:#000000;stroke-width:2.1958;"/><line style="stroke:#000000;stroke-width:2.1958;" x1="784.1349" x2="1305.4326" y1="1378.6625" y2="1378.6625"/><text fill="#000000" font-family="'Segoe UI'" font-size="30.7406" lengthAdjust="spacing" textLength="437.8589" x="832.4416" y="1345.0635">osal_work_queue_submit(...)</text></g><g class="message" data-participant-1="bridge" data-participant-2="bridge"><line style="stroke:#000000;stroke-width:2.1958;" x1="1318.6072" x2="1410.829" y1="1489.1023" y2="1489.1023"/><line style="stroke:#000000;stroke-width:2.1958;" x1="1410.829" x2="1410.829" y1="1489.1023" y2="1517.6472"/><line style="stroke:#000000;stroke-width:2.1958;" x1="1320.8029" x2="1410.829" y1="1517.6472" y2="1517.6472"/><polygon fill="#000000" points="1342.7605,1508.8641,1320.8029,1517.6472,1342.7605,1526.4302,1333.9775,1517.6472" style="stroke:#000000;stroke-width:2.1958;"/><text fill="#000000" font-family="'Segoe UI'" font-size="30.7406" lengthAdjust="spacing" textLength="440.4856" x="1355.9351" y="1455.5033">enqueue {handler_A, ctx_A}</text></g><g class="message" data-participant-1="bridge" data-participant-2="bridge"><line style="stroke:#000000;stroke-width:2.1958;" x1="1318.6072" x2="1410.829" y1="1628.087" y2="1628.087"/><line style="stroke:#000000;stroke-width:2.1958;" x1="1410.829" x2="1410.829" y1="1628.087" y2="1656.6319"/><line style="stroke:#000000;stroke-width:2.1958;" x1="1320.8029" x2="1410.829" y1="1656.6319" y2="1656.6319"/><polygon fill="#000000" points="1342.7605,1647.8488,1320.8029,1656.6319,1342.7605,1665.4149,1333.9775,1656.6319" style="stroke:#000000;stroke-width:2.1958;"/><text fill="#000000" font-family="'Segoe UI'" font-size="30.7406" lengthAdjust="spacing" textLength="206.6437" x="1355.9351" y="1594.488">signal worker</text></g><g class="message" data-participant-1="wq" data-participant-2="app"><polygon fill="#000000" points="194.3912,1758.2887,172.4336,1767.0717,194.3912,1775.8548,185.6081,1767.0717" style="stroke:#000000;stroke-width:2.1958;"/><line style="stroke:#000000;stroke-width:2.1958;stroke-dasharray:4.3915,4.3915;" x1="181.2166" x2="770.9603" y1="1767.0717" y2="1767.0717"/><text fill="#000000" font-family="'Segoe UI'" font-size="30.7406" lengthAdjust="spacing" textLength="163.3696" x="390.0121" y="1733.4727">result{ok}</text></g><g class="message" data-participant-1="app" data-participant-2="wq"><polygon fill="#000000" points="735.8282,1868.7285,757.7857,1877.5116,735.8282,1886.2946,744.6112,1877.5116" style="stroke:#000000;stroke-width:2.1958;"/><line style="stroke:#000000;stroke-width:2.1958;" x1="170.2378" x2="749.0027" y1="1877.5116" y2="1877.5116"/><text fill="#000000" font-family="'Segoe UI'" font-size="30.7406" lengthAdjust="spacing" textLength="386.5544" x="272.9303" y="1843.9126">submit(handler_B, ctx_B)</text></g><g class="message" data-participant-1="wq" data-participant-2="bridge"><polygon fill="#000000" points="1292.258,1979.1684,1314.2156,1987.9514,1292.258,1996.7344,1301.0411,1987.9514" style="stroke:#000000;stroke-width:2.1958;"/><line style="stroke:#000000;stroke-width:2.1958;" x1="784.1349" x2="1305.4326" y1="1987.9514" y2="1987.9514"/><text fill="#000000" font-family="'Segoe UI'" font-size="30.7406" lengthAdjust="spacing" textLength="437.8589" x="832.4416" y="1954.3524">osal_work_queue_submit(...)</text></g><g class="message" data-participant-1="bridge" data-participant-2="bridge"><line style="stroke:#000000;stroke-width:2.1958;" x1="1318.6072" x2="1410.829" y1="2098.3912" y2="2098.3912"/><line style="stroke:#000000;stroke-width:2.1958;" x1="1410.829" x2="1410.829" y1="2098.3912" y2="2126.9361"/><line style="stroke:#000000;stroke-width:2.1958;" x1="1320.8029" x2="1410.829" y1="2126.9361" y2="2126.9361"/><polygon fill="#000000" points="1342.7605,2118.1531,1320.8029,2126.9361,1342.7605,2135.7191,1333.9775,2126.9361" style="stroke:#000000;stroke-width:2.1958;"/><text fill="#000000" font-family="'Segoe UI'" font-size="30.7406" lengthAdjust="spacing" textLength="440.6057" x="1355.9351" y="2064.7923">enqueue {handler_B, ctx_B}</text></g><g class="message" data-participant-1="wq" data-participant-2="app"><polygon fill="#000000" points="194.3912,2228.5929,172.4336,2237.3759,194.3912,2246.159,185.6081,2237.3759" style="stroke:#000000;stroke-width:2.1958;"/><line style="stroke:#000000;stroke-width:2.1958;stroke-dasharray:4.3915,4.3915;" x1="181.2166" x2="770.9603" y1="2237.3759" y2="2237.3759"/><text fill="#000000" font-family="'Segoe UI'" font-size="30.7406" lengthAdjust="spacing" textLength="163.3696" x="390.0121" y="2203.777">result{ok}</text></g><rect fill="#FFFFFF" height="6.5873" style="stroke:#FFFFFF;stroke-width:2.1958;" width="2382.0966" x="10.9788" y="2323.3365"/><line style="stroke:#000000;stroke-width:1.0979;" x1="10.9788" x2="2393.0754" y1="2323.3365" y2="2323.3365"/><line style="stroke:#000000;stroke-width:1.0979;" x1="10.9788" x2="2393.0754" y1="2329.9238" y2="2329.9238"/><rect fill="#FFFFFF" height="97.2653" style="stroke:#000000;stroke-width:2.1958;" width="603.6559" x="900.1992" y="2276.8996"/><text fill="#000000" font-family="'Segoe UI'" font-size="30.7406" font-weight="bold" lengthAdjust="spacing" textLength="518.2979" x="935.3313" y="2336.1744">Worker executes items (FIFO)</text><g class="message" data-participant-1="worker" data-participant-2="worker"><line style="stroke:#000000;stroke-width:2.1958;" x1="1844.8475" x2="1937.0694" y1="2488.9963" y2="2488.9963"/><line style="stroke:#000000;stroke-width:2.1958;" x1="1937.0694" x2="1937.0694" y1="2488.9963" y2="2517.5411"/><line style="stroke:#000000;stroke-width:2.1958;" x1="1847.0432" x2="1937.0694" y1="2517.5411" y2="2517.5411"/><polygon fill="#000000" points="1869.0008,2508.7581,1847.0432,2517.5411,1869.0008,2526.3242,1860.2178,2517.5411" style="stroke:#000000;stroke-width:2.1958;"/><text fill="#000000" font-family="'Segoe UI'" font-size="30.7406" lengthAdjust="spacing" textLength="440.5157" x="1882.1754" y="2455.3973">dequeue {handler_A, ctx_A}</text></g><g class="message" data-participant-1="worker" data-participant-2="worker"><line style="stroke:#000000;stroke-width:2.1958;" x1="1844.8475" x2="1937.0694" y1="2627.981" y2="2627.981"/><line style="stroke:#000000;stroke-width:2.1958;" x1="1937.0694" x2="1937.0694" y1="2627.981" y2="2656.5258"/><line style="stroke:#000000;stroke-width:2.1958;" x1="1847.0432" x2="1937.0694" y1="2656.5258" y2="2656.5258"/><polygon fill="#000000" points="1869.0008,2647.7428,1847.0432,2656.5258,1869.0008,2665.3089,1860.2178,2656.5258" style="stroke:#000000;stroke-width:2.1958;"/><text fill="#000000" font-family="'Segoe UI'" font-size="30.7406" lengthAdjust="spacing" textLength="261.3404" x="1882.1754" y="2594.382">handler_A(ctx_A)</text></g><g class="message" data-participant-1="worker" data-participant-2="worker"><line style="stroke:#000000;stroke-width:2.1958;" x1="1844.8475" x2="1937.0694" y1="2766.9657" y2="2766.9657"/><line style="stroke:#000000;stroke-width:2.1958;" x1="1937.0694" x2="1937.0694" y1="2766.9657" y2="2795.5105"/><line style="stroke:#000000;stroke-width:2.1958;" x1="1847.0432" x2="1937.0694" y1="2795.5105" y2="2795.5105"/><polygon fill="#000000" points="1869.0008,2786.7275,1847.0432,2795.5105,1869.0008,2804.2936,1860.2178,2795.5105" style="stroke:#000000;stroke-width:2.1958;"/><text fill="#000000" font-family="'Segoe UI'" font-size="30.7406" lengthAdjust="spacing" textLength="440.6357" x="1882.1754" y="2733.3667">dequeue {handler_B, ctx_B}</text></g><g class="message" data-participant-1="worker" data-participant-2="worker"><line style="stroke:#000000;stroke-width:2.1958;" x1="1844.8475" x2="1937.0694" y1="2916.9292" y2="2916.9292"/><line style="stroke:#000000;stroke-width:2.1958;" x1="1937.0694" x2="1937.0694" y1="2916.9292" y2="2945.4741"/><line style="stroke:#000000;stroke-width:2.1958;" x1="1833.8687" x2="1937.0694" y1="2945.4741" y2="2945.4741"/><polygon fill="#000000" points="1855.8263,2936.691,1833.8687,2945.4741,1855.8263,2954.2571,1847.0432,2945.4741" style="stroke:#000000;stroke-width:2.1958;"/><text fill="#000000" font-family="'Segoe UI'" font-size="30.7406" lengthAdjust="spacing" textLength="261.4605" x="1882.1754" y="2883.3302">handler_B(ctx_B)</text></g><path d="M1844.4379,2963.0401 L1844.4379,3064.0451 L2349.4626,3064.0451 L2349.4626,2984.9977 L2327.505,2963.0401 L1844.4379,2963.0401" fill="#FFFFFF" style="stroke:#000000;stroke-width:2.1958;"/><path d="M2327.505,2963.0401 L2327.505,2984.9977 L2349.4626,2984.9977 L2327.505,2963.0401" fill="#FFFFFF" style="stroke:#000000;stroke-width:2.1958;"/><text fill="#000000" font-family="'Segoe UI'" font-size="30.7406" lengthAdjust="spacing" textLength="416.7997" x="1879.5701" y="3024.5107">queue empty, blocks again</text><rect fill="#FFFFFF" height="6.5873" style="stroke:#FFFFFF;stroke-width:2.1958;" width="2382.0966" x="10.9788" y="3144.0702"/><line style="stroke:#000000;stroke-width:1.0979;" x1="10.9788" x2="2393.0754" y1="3144.0702" y2="3144.0702"/><line style="stroke:#000000;stroke-width:1.0979;" x1="10.9788" x2="2393.0754" y1="3150.6575" y2="3150.6575"/><rect fill="#FFFFFF" height="97.2653" style="stroke:#000000;stroke-width:2.1958;" width="425.5313" x="989.2615" y="3097.6333"/><text fill="#000000" font-family="'Segoe UI'" font-size="30.7406" font-weight="bold" lengthAdjust="spacing" textLength="340.1733" x="1024.3936" y="3156.9081">Flush (synchronize)</text><g class="message" data-participant-1="app" data-participant-2="wq"><polygon fill="#000000" points="735.8282,3300.9469,757.7857,3309.73,735.8282,3318.513,744.6112,3309.73" style="stroke:#000000;stroke-width:2.1958;"/><line style="stroke:#000000;stroke-width:2.1958;" x1="170.2378" x2="749.0027" y1="3309.73" y2="3309.73"/><text fill="#000000" font-family="'Segoe UI'" font-size="30.7406" lengthAdjust="spacing" textLength="222.5244" x="354.9454" y="3276.131">flush(5000ms)</text></g><g class="message" data-participant-1="wq" data-participant-2="bridge"><polygon fill="#000000" points="1292.258,3411.3868,1314.2156,3420.1698,1292.258,3428.9528,1301.0411,3420.1698" style="stroke:#000000;stroke-width:2.1958;"/><line style="stroke:#000000;stroke-width:2.1958;" x1="784.1349" x2="1305.4326" y1="3420.1698" y2="3420.1698"/><text fill="#000000" font-family="'Segoe UI'" font-size="30.7406" lengthAdjust="spacing" textLength="406.6529" x="848.0445" y="3386.5708">osal_work_queue_flush(...)</text></g><path d="M1328.4345,3448.7147 L1328.4345,3584.8518 L1739.0415,3584.8518 L1739.0415,3470.6723 L1717.0839,3448.7147 L1328.4345,3448.7147" fill="#FFFFFF" style="stroke:#000000;stroke-width:2.1958;"/><path d="M1717.0839,3448.7147 L1717.0839,3470.6723 L1739.0415,3470.6723 L1717.0839,3448.7147" fill="#FFFFFF" style="stroke:#000000;stroke-width:2.1958;"/><text fill="#000000" font-family="'Segoe UI'" font-size="30.7406" lengthAdjust="spacing" textLength="281.529" x="1363.5666" y="3510.1852">blocks until queue</text><text fill="#000000" font-family="'Segoe UI'" font-size="30.7406" lengthAdjust="spacing" textLength="322.5515" x="1363.5666" y="3545.9692">is drained or timeout</text><g class="message" data-participant-1="bridge" data-participant-2="wq"><polygon fill="#000000" points="808.2882,3681.225,786.3306,3690.008,808.2882,3698.7911,799.5052,3690.008" style="stroke:#000000;stroke-width:2.1958;"/><line style="stroke:#000000;stroke-width:2.1958;stroke-dasharray:4.3915,4.3915;" x1="795.1137" x2="1316.4114" y1="3690.008" y2="3690.008"/><text fill="#000000" font-family="'Segoe UI'" font-size="30.7406" lengthAdjust="spacing" textLength="163.3696" x="969.6862" y="3656.4091">result{ok}</text></g><g class="message" data-participant-1="wq" data-participant-2="app"><polygon fill="#000000" points="194.3912,3791.6648,172.4336,3800.4479,194.3912,3809.2309,185.6081,3800.4479" style="stroke:#000000;stroke-width:2.1958;"/><line style="stroke:#000000;stroke-width:2.1958;stroke-dasharray:4.3915,4.3915;" x1="181.2166" x2="770.9603" y1="3800.4479" y2="3800.4479"/><text fill="#000000" font-family="'Segoe UI'" font-size="30.7406" lengthAdjust="spacing" textLength="163.3696" x="390.0121" y="3766.8489">result{ok}</text></g><!--SRC=[jLJHJjim57ttLrpAIpgLfWCnRPKwgIs9XBIDJMpQ2rBanhUfgMEdjaDWY7-VdQIbBJ31mvI7oFAvvvxZU-m3ky0SeH2KItB0PIfAXX0kL8xXzOmALd4PVjVg6bDhmfod-k9o_2LaAZKXupJJD3TXeb4or4cXrPmBT7ykRRyeSq7Caik2EXJCQBhCj2ebcogXD1p6aV-s40pdj1GsLj9-eqvKvn8pXV3hlBC5ChWgKQRu5OsX6Ou5poIaA2rgGYot0k6tqaluKMA9S0INvIpd5aA8RZ4jBK8iL4M88xCyvGML5ZhZee2V2usKTO0Qe6vv67sCJwDFkpXbg1WEAqUVh3nzZQvM3dmI7yTdks2yTP8aJ66cESlmIlhgvB4uUHTqQu9ctvr779z4WrqIRmLrA-vA1jpxb5GqbLMpwogZIHGHCXh1r06ToT6846_ZwBFNDuJ7je6nRX0zUF-X1vtyBgbMdIwXgUKtlgvQ4OTtLQse8UohJki6GR_Vxv8Mv9iqIePW2bh9zTBMiebKZbdpR651pH-XCw7IfG4b0VF2ta7DNxTtX5xy46weu2peEZjWjTjakAtK-st7wqc1MypD4-kcHWGBAfbm6Htt8BMtoVXDfbkEFTCRECeQ1lVxJHwUGnkNM2hQSzZrgz6u2t2lbW_xLl_XQD8qc_nNH-ic3wyLx6RJXXURYsVQ-GJnUNpHRSQqATW4UNfsTapQvNQk6BvunC-WDw2WdVLh6BSilimu2TgpthRRJFA5c3TTweZtrfcdcNzk_Hd5eZGB2CoTJ1TQIVu7kqyIFFUOu7Gm6EJcJKDk2kiPxufhAWYizPJISj5UG01kW6ad41cuTzho75LfYNlYmRDiuhAMjvM1rsNZBm00]--></g></svg>