<svg xmlns="http://www.w3.org/2000/svg" xmlns:xlink="http://www.w3.org/1999/xlink" contentStyleType="text/css" data-diagram-type="SEQUENCE" height="6189.7917px" preserveAspectRatio="none" style="width:1631px;height:6189px;background:#FEFEFE;" version="1.1" viewBox="0 0 1631 6189" width="1631.6667px" zoomAndPan="magnify"><title>Ring Buffer (SPSC) &#8212; Lock-Free Producer / Consumer</title><defs/><g><rect fill="#FEFEFE" height="6189.7917" style="stroke:none;stroke-width:2.2917;" width="1631.6667" x="0" y="0"/><text fill="#000000" font-family="'Segoe UI'" font-size="50.4167" font-weight="bold" lengthAdjust="spacing" textLength="1510.8752" x="57.2917" y="104.0896">Ring Buffer (SPSC) &#8212; Lock-Free Producer / Consumer</text><g><title>osal..ring_buffer.T.N.</title><rect fill="#E3F2FD" height="393.6654" style="stroke:#000000;stroke-width:2.2917;" width="22.9167" x="855.1341" y="1256.2272"/></g><g><title>osal..ring_buffer.T.N.</title><rect fill="#E3F2FD" height="115.2637" style="stroke:#000000;stroke-width:2.2917;" width="22.9167" x="855.1341" y="1765.1562"/></g><g><title>osal..ring_buffer.T.N.</title><rect fill="#E3F2FD" height="356.3184" style="stroke:#000000;stroke-width:2.2917;" width="22.9167" x="855.1341" y="2143.0306"/></g><g><title>osal..ring_buffer.T.N.</title><rect fill="#E3F2FD" height="115.2637" style="stroke:#000000;stroke-width:2.2917;" width="22.9167" x="855.1341" y="2614.6126"/></g><g><title>osal..ring_buffer.T.N.</title><rect fill="#E3F2FD" height="244.2773" style="stroke:#000000;stroke-width:2.2917;" width="22.9167" x="855.1341" y="2992.487"/></g><g><title>osal..ring_buffer.T.N.</title><rect fill="#E3F2FD" height="281.6243" style="stroke:#000000;stroke-width:2.2917;" width="22.9167" x="855.1341" y="3628.3887"/></g><g><title>osal..ring_buffer.T.N.</title><rect fill="#E3F2FD" height="281.6243" style="stroke:#000000;stroke-width:2.2917;" width="22.9167" x="855.1341" y="4172.6237"/></g><g><title>osal..ring_buffer.T.N.</title><rect fill="#E3F2FD" height="198.444" style="stroke:#000000;stroke-width:2.2917;" width="22.9167" x="855.1341" y="5786.3151"/></g><g><title>Producer Thread</title><rect fill="#000000" fill-opacity="0.00000" height="5707.002" width="18.3333" x="280.3711" y="319.0072"/><line style="stroke:#000000;stroke-width:2.2917;stroke-dasharray:11.4583,11.4583;" x1="289.1942" x2="289.1942" y1="319.0072" y2="6026.0091"/></g><g><title>osal..ring_buffer.T.N.</title><rect fill="#000000" fill-opacity="0.00000" height="5707.002" width="18.3333" x="857.4257" y="319.0072"/><line style="stroke:#000000;stroke-width:2.2917;stroke-dasharray:11.4583,11.4583;" x1="865.3447" x2="865.3447" y1="319.0072" y2="6026.0091"/></g><g><title>Consumer Thread</title><rect fill="#000000" fill-opacity="0.00000" height="5707.002" width="18.3333" x="1332.0145" y="319.0072"/><line style="stroke:#000000;stroke-width:2.2917;stroke-dasharray:11.4583,11.4583;" x1="1339.9234" x2="1339.9234" y1="319.0072" y2="6026.0091"/></g><g class="participant participant-head" data-participant="prod"><rect fill="#E8F5E9" height="152.6107" rx="5.7292" ry="5.7292" style="stroke:#000000;stroke-width:2.2917;" width="344.4371" x="117.3192" y="164.1048"/><text fill="#000000" font-family="'Segoe UI'" font-size="32.0833" lengthAdjust="spacing" textLength="266.5204" x="156.2776" y="232.8436">Producer Thread</text><text fill="#000000" font-family="'Segoe UI'" font-size="32.0833" lengthAdjust="spacing" textLength="120.0149" x="229.5303" y="270.1906">(single)</text></g><g class="participant participant-tail" data-participant="prod"><rect fill="#E8F5E9" height="152.6107" rx="5.7292" ry="5.7292" style="stroke:#000000;stroke-width:2.2917;" width="344.4371" x="117.3192" y="6023.7174"/><text fill="#000000" font-family="'Segoe UI'" font-size="32.0833" lengthAdjust="spacing" textLength="266.5204" x="156.2776" y="6092.4563">Producer Thread</text><text fill="#000000" font-family="'Segoe UI'" font-size="32.0833" lengthAdjust="spacing" textLength="120.0149" x="229.5303" y="6129.8033">(single)</text></g><g class="participant participant-head" data-participant="rb"><rect fill="#E3F2FD" height="115.2637" rx="5.7292" ry="5.7292" style="stroke:#000000;stroke-width:2.2917;" width="447.0787" x="643.0531" y="201.4518"/><text fill="#000000" font-family="'Segoe UI'" font-size="32.0833" lengthAdjust="spacing" textLength="369.162" x="682.0114" y="270.1906">osal::ring_buffer&lt;T,N&gt;</text></g><g class="participant participant-tail" data-participant="rb"><rect fill="#E3F2FD" height="115.2637" rx="5.7292" ry="5.7292" style="stroke:#000000;stroke-width:2.2917;" width="447.0787" x="643.0531" y="6023.7174"/><text fill="#000000" font-family="'Segoe UI'" font-size="32.0833" lengthAdjust="spacing" textLength="369.162" x="682.0114" y="6092.4563">osal::ring_buffer&lt;T,N&gt;</text></g><g class="participant participant-head" data-participant="cons"><rect fill="#FFF8E1" height="152.6107" rx="5.7292" ry="5.7292" style="stroke:#000000;stroke-width:2.2917;" width="364.5988" x="1158.8817" y="164.1048"/><text fill="#000000" font-family="'Segoe UI'" font-size="32.0833" lengthAdjust="spacing" textLength="286.6821" x="1197.8401" y="232.8436">Consumer Thread</text><text fill="#000000" font-family="'Segoe UI'" font-size="32.0833" lengthAdjust="spacing" textLength="120.0149" x="1281.1737" y="270.1906">(single)</text></g><g class="participant participant-tail" data-participant="cons"><rect fill="#FFF8E1" height="152.6107" rx="5.7292" ry="5.7292" style="stroke:#000000;stroke-width:2.2917;" width="364.5988" x="1158.8817" y="6023.7174"/><text fill="#000000" font-family="'Segoe UI'" font-size="32.0833" lengthAdjust="spacing" textLength="286.6821" x="1197.8401" y="6092.4563">Consumer Thread</text><text fill="#000000" font-family="'Segoe UI'" font-size="32.0833" lengthAdjust="spacing" textLength="120.0149" x="1281.1737" y="6129.8033">(single)</text></g><g><title>osal..ring_buffer.T.N.</title><rect fill="#E3F2FD" height="393.6654" style="stroke:#000000;stroke-width:2.2917;" width="22.9167" x="855.1341" y="1256.2272"/></g><g><title>osal..ring_buffer.T.N.</title><rect fill="#E3F2FD" height="115.2637" style="stroke:#000000;stroke-width:2.2917;" width="22.9167" x="855.1341" y="1765.1562"/></g><g><title>osal..ring_buffer.T.N.</title><rect fill="#E3F2FD" height="356.3184" style="stroke:#000000;stroke-width:2.2917;" width="22.9167" x="855.1341" y="2143.0306"/></g><g><title>osal..ring_buffer.T.N.</title><rect fill="#E3F2FD" height="115.2637" style="stroke:#000000;stroke-width:2.2917;" width="22.9167" x="855.1341" y="2614.6126"/></g><g><title>osal..ring_buffer.T.N.</title><rect fill="#E3F2FD" height="244.2773" style="stroke:#000000;stroke-width:2.2917;" width="22.9167" x="855.1341" y="2992.487"/></g><g><title>osal..ring_buffer.T.N.</title><rect fill="#E3F2FD" height="281.6243" style="stroke:#000000;stroke-width:2.2917;" width="22.9167" x="855.1341" y="3628.3887"/></g><g><title>osal..ring_buffer.T.N.</title><rect fill="#E3F2FD" height="281.6243" style="stroke:#000000;stroke-width:2.2917;" width="22.9167" x="855.1341" y="4172.6237"/></g><g><title>osal..ring_buffer.T.N.</title><rect fill="#E3F2FD" height="198.444" style="stroke:#000000;stroke-width:2.2917;" width="22.9167" x="855.1341" y="5786.3151"/></g><path d="M94.4026,353.3822 L94.4026,532.1322 L1533.5692,532.1322 L1533.5692,376.2988 L1510.6526,353.3822 L94.4026,353.3822" fill="#FFFFFF" style="stroke:#000000;stroke-width:2.2917;"/><path d="M1510.6526,353.3822 L1510.6526,376.2988 L1533.5692,376.2988 L1510.6526,353.3822" fill="#FFFFFF" style="stroke:#000000;stroke-width:2.2917;"/><text fill="#000000" font-family="'Segoe UI'" font-size="32.0833" lengthAdjust="spacing" textLength="530.4403" x="410.0763" y="417.5376">Header-only, no OS dependency.</text><text fill="#000000" font-family="'Segoe UI'" font-size="32.0833" lengthAdjust="spacing" textLength="788.5638" x="410.0763" y="454.8846">Uses std::atomic with acquire/release semantics.</text><text fill="#000000" font-family="'Segoe UI'" font-size="32.0833" lengthAdjust="spacing" textLength="777.3472" x="410.0763" y="492.2316">Exactly one producer and one consumer thread.</text><rect fill="#FFFFFF" height="6.875" style="stroke:#FFFFFF;stroke-width:2.2917;" width="1594.7784" x="16.4859" y="617.0133"/><line style="stroke:#000000;stroke-width:1.1458;" x1="16.4859" x2="1611.2643" y1="617.0133" y2="617.0133"/><line style="stroke:#000000;stroke-width:1.1458;" x1="16.4859" x2="1611.2643" y1="623.8883" y2="623.8883"/><rect fill="#FFFFFF" height="101.5137" style="stroke:#000000;stroke-width:2.2917;" width="320.8445" x="653.4529" y="568.5482"/><text fill="#000000" font-family="'Segoe UI'" font-size="32.0833" font-weight="bold" lengthAdjust="spacing" textLength="231.7582" x="690.1195" y="630.412">Construction</text><g class="message" data-participant-1="prod" data-participant-2="rb"><polygon fill="#000000" points="839.0924,780.7422,862.0091,789.9089,839.0924,799.0755,848.2591,789.9089" style="stroke:#000000;stroke-width:2.2917;"/><line style="stroke:#000000;stroke-width:2.2917;" x1="289.5378" x2="852.8424" y1="789.9089" y2="789.9089"/><text fill="#000000" font-family="'Segoe UI'" font-size="32.0833" lengthAdjust="spacing" textLength="476.2213" x="339.9544" y="754.8423">ring_buffer&lt;uint16_t, 64&gt; rb;</text></g><path d="M875.8609,819.7005 L875.8609,998.4505 L1526.6942,998.4505 L1526.6942,842.6172 L1503.7776,819.7005 L875.8609,819.7005" fill="#FFFFFF" style="stroke:#000000;stroke-width:2.2917;"/><path d="M1503.7776,819.7005 L1503.7776,842.6172 L1526.6942,842.6172 L1503.7776,819.7005" fill="#FFFFFF" style="stroke:#000000;stroke-width:2.2917;"/><text fill="#000000" font-family="'Segoe UI'" font-size="32.0833" lengthAdjust="spacing" textLength="318.0292" x="912.5276" y="883.856">head_ = 0, tail_ = 0</text><text fill="#000000" font-family="'Segoe UI'" font-size="32.0833" lengthAdjust="spacing" textLength="558.6542" x="912.5276" y="921.203">Internal array: N+1 slots (sentinel)</text><text fill="#000000" font-family="'Segoe UI'" font-size="32.0833" lengthAdjust="spacing" textLength="402.7179" x="912.5276" y="958.55">Capacity: 64 usable slots</text><rect fill="#FFFFFF" height="6.875" style="stroke:#FFFFFF;stroke-width:2.2917;" width="1594.7784" x="16.4859" y="1083.3317"/><line style="stroke:#000000;stroke-width:1.1458;" x1="16.4859" x2="1611.2643" y1="1083.3317" y2="1083.3317"/><line style="stroke:#000000;stroke-width:1.1458;" x1="16.4859" x2="1611.2643" y1="1090.2067" y2="1090.2067"/><rect fill="#FFFFFF" height="101.5137" style="stroke:#000000;stroke-width:2.2917;" width="504.4307" x="561.6597" y="1034.8665"/><text fill="#000000" font-family="'Segoe UI'" font-size="32.0833" font-weight="bold" lengthAdjust="spacing" textLength="415.3444" x="598.3264" y="1096.7303">Producer pushes items</text><g class="message" data-participant-1="prod" data-participant-2="rb"><polygon fill="#000000" points="827.6341,1247.0605,850.5507,1256.2272,827.6341,1265.3939,836.8007,1256.2272" style="stroke:#000000;stroke-width:2.2917;"/><line style="stroke:#000000;stroke-width:2.2917;" x1="289.5378" x2="841.3841" y1="1256.2272" y2="1256.2272"/><text fill="#000000" font-family="'Segoe UI'" font-size="32.0833" lengthAdjust="spacing" textLength="248.1602" x="448.2558" y="1221.1607">rb.try_push(42)</text></g><path d="M887.3192,1286.0189 L887.3192,1540.3939 L1597.7359,1540.3939 L1597.7359,1308.9355 L1574.8192,1286.0189 L887.3192,1286.0189" fill="#FFFFFF" style="stroke:#000000;stroke-width:2.2917;"/><path d="M1574.8192,1286.0189 L1574.8192,1308.9355 L1597.7359,1308.9355 L1574.8192,1286.0189" fill="#FFFFFF" style="stroke:#000000;stroke-width:2.2917;"/><text fill="#000000" font-family="'Segoe UI'" font-size="32.0833" lengthAdjust="spacing" textLength="380.5039" x="923.9859" y="1350.1744">1. Load head_ (relaxed)</text><text fill="#000000" font-family="'Segoe UI'" font-size="32.0833" lengthAdjust="spacing" textLength="615.8653" x="923.9859" y="1387.5214">2. Compute next = (head+1) % (N+1)</text><text fill="#000000" font-family="'Segoe UI'" font-size="32.0833" lengthAdjust="spacing" textLength="618.5284" x="923.9859" y="1424.8684">3. Load tail_ (acquire) &#8212; check not full</text><text fill="#000000" font-family="'Segoe UI'" font-size="32.0833" lengthAdjust="spacing" textLength="435.4122" x="923.9859" y="1462.2154">4. Write item to buf_[head]</text><text fill="#000000" font-family="'Segoe UI'" font-size="32.0833" lengthAdjust="spacing" textLength="504.4979" x="923.9859" y="1499.5624">5. Store head_ = next (release)</text><g class="message" data-participant-1="rb" data-participant-2="prod"><polygon fill="#000000" points="314.7461,1640.7259,291.8294,1649.8926,314.7461,1659.0592,305.5794,1649.8926" style="stroke:#000000;stroke-width:2.2917;"/><line style="stroke:#000000;stroke-width:2.2917;stroke-dasharray:4.5833,4.5833;" x1="300.9961" x2="864.3007" y1="1649.8926" y2="1649.8926"/><text fill="#000000" font-family="'Segoe UI'" font-size="32.0833" lengthAdjust="spacing" textLength="262.0243" x="447.0529" y="1614.826">true (enqueued)</text></g><g class="message" data-participant-1="prod" data-participant-2="rb"><polygon fill="#000000" points="827.6341,1755.9896,850.5507,1765.1562,827.6341,1774.3229,836.8007,1765.1562" style="stroke:#000000;stroke-width:2.2917;"/><line style="stroke:#000000;stroke-width:2.2917;" x1="289.5378" x2="841.3841" y1="1765.1562" y2="1765.1562"/><text fill="#000000" font-family="'Segoe UI'" font-size="32.0833" lengthAdjust="spacing" textLength="248.1602" x="448.2558" y="1730.0897">rb.try_push(99)</text></g><g class="message" data-participant-1="rb" data-participant-2="prod"><polygon fill="#000000" points="314.7461,1871.2533,291.8294,1880.4199,314.7461,1889.5866,305.5794,1880.4199" style="stroke:#000000;stroke-width:2.2917;"/><line style="stroke:#000000;stroke-width:2.2917;stroke-dasharray:4.5833,4.5833;" x1="300.9961" x2="864.3007" y1="1880.4199" y2="1880.4199"/><text fill="#000000" font-family="'Segoe UI'" font-size="32.0833" lengthAdjust="spacing" textLength="262.0243" x="447.0529" y="1845.3534">true (enqueued)</text></g><rect fill="#FFFFFF" height="6.875" style="stroke:#FFFFFF;stroke-width:2.2917;" width="1594.7784" x="16.4859" y="1970.1351"/><line style="stroke:#000000;stroke-width:1.1458;" x1="16.4859" x2="1611.2643" y1="1970.1351" y2="1970.1351"/><line style="stroke:#000000;stroke-width:1.1458;" x1="16.4859" x2="1611.2643" y1="1977.0101" y2="1977.0101"/><rect fill="#FFFFFF" height="101.5137" style="stroke:#000000;stroke-width:2.2917;" width="480.4936" x="573.6283" y="1921.6699"/><text fill="#000000" font-family="'Segoe UI'" font-size="32.0833" font-weight="bold" lengthAdjust="spacing" textLength="391.4073" x="610.295" y="1983.5337">Consumer pops items</text><g class="message" data-participant-1="cons" data-participant-2="rb"><polygon fill="#000000" points="903.2591,2133.8639,880.3424,2143.0306,903.2591,2152.1973,894.0924,2143.0306" style="stroke:#000000;stroke-width:2.2917;"/><line style="stroke:#000000;stroke-width:2.2917;" x1="889.5091" x2="1338.8895" y1="2143.0306" y2="2143.0306"/><text fill="#000000" font-family="'Segoe UI'" font-size="32.0833" lengthAdjust="spacing" textLength="262.4316" x="978.4001" y="2107.9641">rb.try_pop(item)</text></g><path d="M46.2776,2172.8223 L46.2776,2390.5306 L841.4859,2390.5306 L841.4859,2195.7389 L818.5692,2172.8223 L46.2776,2172.8223" fill="#FFFFFF" style="stroke:#000000;stroke-width:2.2917;"/><path d="M818.5692,2172.8223 L818.5692,2195.7389 L841.4859,2195.7389 L818.5692,2172.8223" fill="#FFFFFF" style="stroke:#000000;stroke-width:2.2917;"/><text fill="#000000" font-family="'Segoe UI'" font-size="32.0833" lengthAdjust="spacing" textLength="350.4728" x="82.9442" y="2236.9777">1. Load tail_ (relaxed)</text><text fill="#000000" font-family="'Segoe UI'" font-size="32.0833" lengthAdjust="spacing" textLength="702.0266" x="82.9442" y="2274.3247">2. Load head_ (acquire) &#8212; check not empty</text><text fill="#000000" font-family="'Segoe UI'" font-size="32.0833" lengthAdjust="spacing" textLength="395.966" x="82.9442" y="2311.6718">3. Read item = buf_[tail]</text><text fill="#000000" font-family="'Segoe UI'" font-size="32.0833" lengthAdjust="spacing" textLength="672.4341" x="82.9442" y="2349.0188">4. Store tail_ = (tail+1) % (N+1) (release)</text><g class="message" data-participant-1="rb" data-participant-2="cons"><polygon fill="#000000" points="1313.6811,2490.1823,1336.5978,2499.349,1313.6811,2508.5156,1322.8478,2499.349" style="stroke:#000000;stroke-width:2.2917;"/><line style="stroke:#000000;stroke-width:2.2917;stroke-dasharray:4.5833,4.5833;" x1="866.5924" x2="1327.4311" y1="2499.349" y2="2499.349"/><text fill="#000000" font-family="'Segoe UI'" font-size="32.0833" lengthAdjust="spacing" textLength="246.8286" x="980.4725" y="2464.2824">true, item = 42</text></g><g class="message" data-participant-1="cons" data-participant-2="rb"><polygon fill="#000000" points="903.2591,2605.446,880.3424,2614.6126,903.2591,2623.7793,894.0924,2614.6126" style="stroke:#000000;stroke-width:2.2917;"/><line style="stroke:#000000;stroke-width:2.2917;" x1="889.5091" x2="1338.8895" y1="2614.6126" y2="2614.6126"/><text fill="#000000" font-family="'Segoe UI'" font-size="32.0833" lengthAdjust="spacing" textLength="262.4316" x="978.4001" y="2579.5461">rb.try_pop(item)</text></g><g class="message" data-participant-1="rb" data-participant-2="cons"><polygon fill="#000000" points="1313.6811,2720.7096,1336.5978,2729.8763,1313.6811,2739.043,1322.8478,2729.8763" style="stroke:#000000;stroke-width:2.2917;"/><line style="stroke:#000000;stroke-width:2.2917;stroke-dasharray:4.5833,4.5833;" x1="866.5924" x2="1327.4311" y1="2729.8763" y2="2729.8763"/><text fill="#000000" font-family="'Segoe UI'" font-size="32.0833" lengthAdjust="spacing" textLength="246.8286" x="980.4725" y="2694.8098">true, item = 99</text></g><rect fill="#FFFFFF" height="6.875" style="stroke:#FFFFFF;stroke-width:2.2917;" width="1594.7784" x="16.4859" y="2819.5915"/><line style="stroke:#000000;stroke-width:1.1458;" x1="16.4859" x2="1611.2643" y1="2819.5915" y2="2819.5915"/><line style="stroke:#000000;stroke-width:1.1458;" x1="16.4859" x2="1611.2643" y1="2826.4665" y2="2826.4665"/><rect fill="#FFFFFF" height="101.5137" style="stroke:#000000;stroke-width:2.2917;" width="327.4554" x="650.1474" y="2771.1263"/><text fill="#000000" font-family="'Segoe UI'" font-size="32.0833" font-weight="bold" lengthAdjust="spacing" textLength="238.3691" x="686.8141" y="2832.9901">Buffer empty</text><g class="message" data-participant-1="cons" data-participant-2="rb"><polygon fill="#000000" points="903.2591,2983.3203,880.3424,2992.487,903.2591,3001.6536,894.0924,2992.487" style="stroke:#000000;stroke-width:2.2917;"/><line style="stroke:#000000;stroke-width:2.2917;" x1="889.5091" x2="1338.8895" y1="2992.487" y2="2992.487"/><text fill="#000000" font-family="'Segoe UI'" font-size="32.0833" lengthAdjust="spacing" textLength="262.4316" x="978.4001" y="2957.4205">rb.try_pop(item)</text></g><path d="M362.5276,3022.2786 L362.5276,3127.6953 L841.4859,3127.6953 L841.4859,3045.1953 L818.5692,3022.2786 L362.5276,3022.2786" fill="#FFFFFF" style="stroke:#000000;stroke-width:2.2917;"/><path d="M818.5692,3022.2786 L818.5692,3045.1953 L841.4859,3045.1953 L818.5692,3022.2786" fill="#FFFFFF" style="stroke:#000000;stroke-width:2.2917;"/><text fill="#000000" font-family="'Segoe UI'" font-size="32.0833" lengthAdjust="spacing" textLength="386.6136" x="399.1942" y="3086.4341">tail_ == head_ &#8594; empty</text><g class="message" data-participant-1="rb" data-participant-2="cons"><polygon fill="#000000" points="1313.6811,3227.5977,1336.5978,3236.7643,1313.6811,3245.931,1322.8478,3236.7643" style="stroke:#000000;stroke-width:2.2917;"/><line style="stroke:#000000;stroke-width:2.2917;stroke-dasharray:4.5833,4.5833;" x1="866.5924" x2="1327.4311" y1="3236.7643" y2="3236.7643"/><text fill="#000000" font-family="'Segoe UI'" font-size="32.0833" lengthAdjust="spacing" textLength="214.479" x="996.6473" y="3201.6978">false (empty)</text></g><rect fill="#FFFFFF" height="6.875" style="stroke:#FFFFFF;stroke-width:2.2917;" width="1594.7784" x="16.4859" y="3326.4795"/><line style="stroke:#000000;stroke-width:1.1458;" x1="16.4859" x2="1611.2643" y1="3326.4795" y2="3326.4795"/><line style="stroke:#000000;stroke-width:1.1458;" x1="16.4859" x2="1611.2643" y1="3333.3545" y2="3333.3545"/><rect fill="#FFFFFF" height="101.5137" style="stroke:#000000;stroke-width:2.2917;" width="271.8422" x="677.954" y="3278.0143"/><text fill="#000000" font-family="'Segoe UI'" font-size="32.0833" font-weight="bold" lengthAdjust="spacing" textLength="182.7559" x="714.6207" y="3339.8781">Buffer full</text><path d="M27.9442,3413.903 L27.9442,3519.3197 L552.7359,3519.3197 L552.7359,3436.8197 L529.8192,3413.903 L27.9442,3413.903" fill="#FFFFFF" style="stroke:#000000;stroke-width:2.2917;"/><path d="M529.8192,3413.903 L529.8192,3436.8197 L552.7359,3436.8197 L529.8192,3413.903" fill="#FFFFFF" style="stroke:#000000;stroke-width:2.2917;"/><text fill="#000000" font-family="'Segoe UI'" font-size="32.0833" lengthAdjust="spacing" textLength="432.6394" x="64.6109" y="3478.0585">Producer fills all 64 slots ...</text><g class="message" data-participant-1="prod" data-participant-2="rb"><polygon fill="#000000" points="827.6341,3619.222,850.5507,3628.3887,827.6341,3637.5553,836.8007,3628.3887" style="stroke:#000000;stroke-width:2.2917;"/><line style="stroke:#000000;stroke-width:2.2917;" x1="289.5378" x2="841.3841" y1="3628.3887" y2="3628.3887"/><text fill="#000000" font-family="'Segoe UI'" font-size="32.0833" lengthAdjust="spacing" textLength="254.8964" x="444.8877" y="3593.3221">rb.try_push(val)</text></g><path d="M887.3192,3658.1803 L887.3192,3800.2637 L1377.7359,3800.2637 L1377.7359,3681.097 L1354.8192,3658.1803 L887.3192,3658.1803" fill="#FFFFFF" style="stroke:#000000;stroke-width:2.2917;"/><path d="M1354.8192,3658.1803 L1354.8192,3681.097 L1377.7359,3681.097 L1354.8192,3658.1803" fill="#FFFFFF" style="stroke:#000000;stroke-width:2.2917;"/><text fill="#000000" font-family="'Segoe UI'" font-size="32.0833" lengthAdjust="spacing" textLength="308.6454" x="923.9859" y="3722.3358">next == tail_ &#8594; full</text><text fill="#000000" font-family="'Segoe UI'" font-size="32.0833" lengthAdjust="spacing" textLength="396.5456" x="923.9859" y="3759.6828">(sentinel slot consumed)</text><g class="message" data-participant-1="rb" data-participant-2="prod"><polygon fill="#000000" points="314.7461,3900.8464,291.8294,3910.013,314.7461,3919.1797,305.5794,3910.013" style="stroke:#000000;stroke-width:2.2917;"/><line style="stroke:#000000;stroke-width:2.2917;stroke-dasharray:4.5833,4.5833;" x1="300.9961" x2="864.3007" y1="3910.013" y2="3910.013"/><text fill="#000000" font-family="'Segoe UI'" font-size="32.0833" lengthAdjust="spacing" textLength="161.012" x="497.5591" y="3874.9465">false (full)</text></g><rect fill="#FFFFFF" height="6.875" style="stroke:#FFFFFF;stroke-width:2.2917;" width="1594.7784" x="16.4859" y="3999.7282"/><line style="stroke:#000000;stroke-width:1.1458;" x1="16.4859" x2="1611.2643" y1="3999.7282" y2="3999.7282"/><line style="stroke:#000000;stroke-width:1.1458;" x1="16.4859" x2="1611.2643" y1="4006.6032" y2="4006.6032"/><rect fill="#FFFFFF" height="101.5137" style="stroke:#000000;stroke-width:2.2917;" width="534.9005" x="546.4249" y="3951.263"/><text fill="#000000" font-family="'Segoe UI'" font-size="32.0833" font-weight="bold" lengthAdjust="spacing" textLength="445.8142" x="583.0915" y="4013.1268">Peek without consuming</text><g class="message" data-participant-1="cons" data-participant-2="rb"><polygon fill="#000000" points="903.2591,4163.457,880.3424,4172.6237,903.2591,4181.7904,894.0924,4172.6237" style="stroke:#000000;stroke-width:2.2917;"/><line style="stroke:#000000;stroke-width:2.2917;" x1="889.5091" x2="1338.8895" y1="4172.6237" y2="4172.6237"/><text fill="#000000" font-family="'Segoe UI'" font-size="32.0833" lengthAdjust="spacing" textLength="219.6956" x="999.7681" y="4137.5572">rb.peek(item)</text></g><path d="M364.8192,4202.4154 L364.8192,4344.4987 L841.4859,4344.4987 L841.4859,4225.332 L818.5692,4202.4154 L364.8192,4202.4154" fill="#FFFFFF" style="stroke:#000000;stroke-width:2.2917;"/><path d="M818.5692,4202.4154 L818.5692,4225.332 L841.4859,4225.332 L818.5692,4202.4154" fill="#FFFFFF" style="stroke:#000000;stroke-width:2.2917;"/><text fill="#000000" font-family="'Segoe UI'" font-size="32.0833" lengthAdjust="spacing" textLength="382.9165" x="401.4859" y="4266.5708">Reads buf_[tail] without</text><text fill="#000000" font-family="'Segoe UI'" font-size="32.0833" lengthAdjust="spacing" textLength="252.7659" x="401.4859" y="4303.9178">advancing tail_.</text><g class="message" data-participant-1="rb" data-participant-2="cons"><polygon fill="#000000" points="1313.6811,4445.0814,1336.5978,4454.248,1313.6811,4463.4147,1322.8478,4454.248" style="stroke:#000000;stroke-width:2.2917;"/><line style="stroke:#000000;stroke-width:2.2917;stroke-dasharray:4.5833,4.5833;" x1="866.5924" x2="1327.4311" y1="4454.248" y2="4454.248"/><text fill="#000000" font-family="'Segoe UI'" font-size="32.0833" lengthAdjust="spacing" textLength="303.9457" x="951.9139" y="4419.1815">true, item = oldest</text></g><rect fill="#FFFFFF" height="6.875" style="stroke:#FFFFFF;stroke-width:2.2917;" width="1594.7784" x="16.4859" y="4543.9632"/><line style="stroke:#000000;stroke-width:1.1458;" x1="16.4859" x2="1611.2643" y1="4543.9632" y2="4543.9632"/><line style="stroke:#000000;stroke-width:1.1458;" x1="16.4859" x2="1611.2643" y1="4550.8382" y2="4550.8382"/><rect fill="#FFFFFF" height="101.5137" style="stroke:#000000;stroke-width:2.2917;" width="683.9752" x="471.8875" y="4495.498"/><text fill="#000000" font-family="'Segoe UI'" font-size="32.0833" font-weight="bold" lengthAdjust="spacing" textLength="594.8889" x="508.5542" y="4557.3619">Query operations (either thread)</text><g class="message" data-participant-1="prod" data-participant-2="rb"><polygon fill="#000000" points="839.0924,4707.6921,862.0091,4716.8587,839.0924,4726.0254,848.2591,4716.8587" style="stroke:#000000;stroke-width:2.2917;"/><line style="stroke:#000000;stroke-width:2.2917;" x1="289.5378" x2="852.8424" y1="4716.8587" y2="4716.8587"/><text fill="#000000" font-family="'Segoe UI'" font-size="32.0833" lengthAdjust="spacing" textLength="130.9965" x="512.5668" y="4681.7922">rb.size()</text></g><g class="message" data-participant-1="rb" data-participant-2="prod"><polygon fill="#000000" points="314.7461,4822.9557,291.8294,4832.1224,314.7461,4841.2891,305.5794,4832.1224" style="stroke:#000000;stroke-width:2.2917;"/><line style="stroke:#000000;stroke-width:2.2917;stroke-dasharray:4.5833,4.5833;" x1="300.9961" x2="864.3007" y1="4832.1224" y2="4832.1224"/><text fill="#000000" font-family="'Segoe UI'" font-size="32.0833" lengthAdjust="spacing" textLength="399.2871" x="378.4215" y="4797.0559">current count (snapshot)</text></g><g class="message" data-participant-1="cons" data-participant-2="rb"><polygon fill="#000000" points="891.8007,4938.2194,868.8841,4947.3861,891.8007,4956.5527,882.6341,4947.3861" style="stroke:#000000;stroke-width:2.2917;"/><line style="stroke:#000000;stroke-width:2.2917;" x1="878.0507" x2="1338.8895" y1="4947.3861" y2="4947.3861"/><text fill="#000000" font-family="'Segoe UI'" font-size="32.0833" lengthAdjust="spacing" textLength="171.7116" x="1018.031" y="4912.3195">rb.empty()</text></g><g class="message" data-participant-1="rb" data-participant-2="cons"><polygon fill="#000000" points="1313.6811,5053.4831,1336.5978,5062.6497,1313.6811,5071.8164,1322.8478,5062.6497" style="stroke:#000000;stroke-width:2.2917;"/><line style="stroke:#000000;stroke-width:2.2917;stroke-dasharray:4.5833,4.5833;" x1="866.5924" x2="1327.4311" y1="5062.6497" y2="5062.6497"/><text fill="#000000" font-family="'Segoe UI'" font-size="32.0833" lengthAdjust="spacing" textLength="173.3722" x="1017.2007" y="5027.5832">true / false</text></g><g class="message" data-participant-1="prod" data-participant-2="rb"><polygon fill="#000000" points="839.0924,5168.7467,862.0091,5177.9134,839.0924,5187.0801,848.2591,5177.9134" style="stroke:#000000;stroke-width:2.2917;"/><line style="stroke:#000000;stroke-width:2.2917;" x1="289.5378" x2="852.8424" y1="5177.9134" y2="5177.9134"/><text fill="#000000" font-family="'Segoe UI'" font-size="32.0833" lengthAdjust="spacing" textLength="118.2446" x="518.9428" y="5142.8469">rb.full()</text></g><g class="message" data-participant-1="rb" data-participant-2="prod"><polygon fill="#000000" points="314.7461,5284.0104,291.8294,5293.1771,314.7461,5302.3438,305.5794,5293.1771" style="stroke:#000000;stroke-width:2.2917;"/><line style="stroke:#000000;stroke-width:2.2917;stroke-dasharray:4.5833,4.5833;" x1="300.9961" x2="864.3007" y1="5293.1771" y2="5293.1771"/><text fill="#000000" font-family="'Segoe UI'" font-size="32.0833" lengthAdjust="spacing" textLength="173.3722" x="491.379" y="5258.1106">true / false</text></g><g class="message" data-participant-1="prod" data-participant-2="rb"><polygon fill="#000000" points="839.0924,5399.2741,862.0091,5408.4408,839.0924,5417.6074,848.2591,5408.4408" style="stroke:#000000;stroke-width:2.2917;"/><line style="stroke:#000000;stroke-width:2.2917;" x1="289.5378" x2="852.8424" y1="5408.4408" y2="5408.4408"/><text fill="#000000" font-family="'Segoe UI'" font-size="32.0833" lengthAdjust="spacing" textLength="357.1621" x="399.484" y="5373.3742">ring_buffer::capacity()</text></g><g class="message" data-participant-1="rb" data-participant-2="prod"><polygon fill="#000000" points="314.7461,5514.5378,291.8294,5523.7044,314.7461,5532.8711,305.5794,5523.7044" style="stroke:#000000;stroke-width:2.2917;"/><line style="stroke:#000000;stroke-width:2.2917;stroke-dasharray:4.5833,4.5833;" x1="300.9961" x2="864.3007" y1="5523.7044" y2="5523.7044"/><text fill="#000000" font-family="'Segoe UI'" font-size="32.0833" lengthAdjust="spacing" textLength="235.236" x="460.4471" y="5488.6379">64 (constexpr)</text></g><rect fill="#FFFFFF" height="6.875" style="stroke:#FFFFFF;stroke-width:2.2917;" width="1594.7784" x="16.4859" y="5613.4196"/><line style="stroke:#000000;stroke-width:1.1458;" x1="16.4859" x2="1611.2643" y1="5613.4196" y2="5613.4196"/><line style="stroke:#000000;stroke-width:1.1458;" x1="16.4859" x2="1611.2643" y1="5620.2946" y2="5620.2946"/><rect fill="#FFFFFF" height="101.5137" style="stroke:#000000;stroke-width:2.2917;" width="628.597" x="499.5766" y="5564.9544"/><text fill="#000000" font-family="'Segoe UI'" font-size="32.0833" font-weight="bold" lengthAdjust="spacing" textLength="539.5107" x="536.2433" y="5626.8182">Reset (consumer thread only)</text><g class="message" data-participant-1="cons" data-participant-2="rb"><polygon fill="#000000" points="903.2591,5777.1484,880.3424,5786.3151,903.2591,5795.4818,894.0924,5786.3151" style="stroke:#000000;stroke-width:2.2917;"/><line style="stroke:#000000;stroke-width:2.2917;" x1="889.5091" x2="1338.8895" y1="5786.3151" y2="5786.3151"/><text fill="#000000" font-family="'Segoe UI'" font-size="32.0833" lengthAdjust="spacing" textLength="150.7509" x="1034.2405" y="5751.2486">rb.reset()</text></g><path d="M385.4442,5816.1068 L385.4442,5958.1901 L841.4859,5958.1901 L841.4859,5839.0234 L818.5692,5816.1068 L385.4442,5816.1068" fill="#FFFFFF" style="stroke:#000000;stroke-width:2.2917;"/><path d="M818.5692,5816.1068 L818.5692,5839.0234 L841.4859,5839.0234 L818.5692,5816.1068" fill="#FFFFFF" style="stroke:#000000;stroke-width:2.2917;"/><text fill="#000000" font-family="'Segoe UI'" font-size="32.0833" lengthAdjust="spacing" textLength="362.4571" x="422.1109" y="5880.2622">tail_ = head_ (release)</text><text fill="#000000" font-family="'Segoe UI'" font-size="32.0833" lengthAdjust="spacing" textLength="295.1886" x="422.1109" y="5917.6093">Discards all items.</text><g class="message" data-participant-1="rb" data-participant-2="cons"><polygon fill="#000000" points="1313.6811,5975.5924,1336.5978,5984.7591,1313.6811,5993.9258,1322.8478,5984.7591" style="stroke:#000000;stroke-width:2.2917;"/><line style="stroke:#000000;stroke-width:2.2917;stroke-dasharray:4.5833,4.5833;" x1="866.5924" x2="1327.4311" y1="5984.7591" y2="5984.7591"/></g><!--SRC=[hLRTZXet5BwVfpZPgDACmWvbGrQ1baZf1jH8wMQx9Ef56o7ZEO23iIUsPxFqgbTvWAXFc2VfiMTWXsL0MQb20ZG-n-TyttT-vf5Ru0eXbqoew95GN1OPGdkXLzZ-E6Ko-onK-yheZyYTRQy4Ds_7Bz-qCyrjEnDiRjZAjYS6LOPcaXiz4nBfLoYNviLAHdOfLCx82gQCB-T65ogxq58RU3mQ-a_D8iCPAwGRQUKk6ILrCiQvHdZ_-gHcPF5JWOhZRsWjc-DBAUOAE2g79egSS1BXMgWv_5BCPcWW7b-DBnBuzi-_y4RpvUd880BXoGfEfssuqCeMA-zBrpl1HSwKWvEjnRk5GPRzfM9BbqfCJe1P89mPF1u-7pqRzdRzj6MotoVuyyaq9F3pkzRbY-1afkJoT7GsUhNhiicWEHIdKw9gD7e-x4IHqWv1tv2nJw4LJYE0NyaFpQbMSjq2fU7jcBZClIQAhrCoU6_HWdLPly-S9X7Xit0BOFnJ8Gos3Kfa5edQ5MKakFKkmrl6dLo3LXY21JQOoi83lidPXPpJY6A1JowA1eF0gJC5Tq8h60o8Mi_NwGjFGH_gv1HK9vtpYMl1UTSV_rGYD6A-SA1dz8GoML242GpWnnOu9cJuIuzVUyaLay2COUi-N3xfW9NQMOWjbODGA1Coks0vuyAHmNaN2ikcL231R3VdhU1vOHT4bd2uiWt9JrDdrXDl57VFaeWu4ZVCftodRWE4JahLnx8AIao4irlCV7fdAT6roWjoKNZh25liZPvq4lW1OiBaZPvMxYNykDAjh6g-GBxqE61MI4d6tHJ-C9H-W01E0t4z-TDV-e5EdwKmTjhWbjKGDQvA8BaZXG2T4kg0lWya9qACYdgly8bdM4D-XADUhvcZ1zrUbLGek5pdTN52UzmFhFFOMnnHH-9iNvoAtLrnwh8Tu1rNkLkNAbsJOSdxeAJTt_cX5AMaVLF1iVzJK_c8105ZIL9hStdtx3v93sVYoFMzNeC6rKGDSFytyYi-1XN7txvyhVWymCACIUjhnTiaXvFqlH1ot9sO573RwBIff0L6TZGOoi6HflL9Th2eRvZyxiulctfGuVJmgZRT3gaGUpDHiuCTM07ttasuhn2NOQhhOdEPtu9DCkLa-Y2DV5NRMZrluj0HoswOuZvI09X-L_5gcQ5r3I1-Bz3GnidHCByxQ98ZHTgkcQHn7blnDyR9FRPuOUYTn3DHq7Ti5SljGhjadurGINV-jNpfxI2GlX_IYx0NyfZBtShhztcraFOke3ACVNY7jxb90Y7NQD6LJslh5loYJngrDTuXVc3prTPIEO40NWdBcSdA_WZZjbdQUoB-1m00]--></g></svg>