<svg xmlns="http://www.w3.org/2000/svg" xmlns:xlink="http://www.w3.org/1999/xlink" contentStyleType="text/css" data-diagram-type="SEQUENCE" height="7278.3333px" preserveAspectRatio="none" style="width:1631px;height:7278px;background:#FEFEFE;" version="1.1" viewBox="0 0 1631 7278" width="1631.6667px" zoomAndPan="magnify"><title>Ring Buffer (SPSC) &#8212; Lock-Free Producer / Consumer</title><defs/><g><rect fill="#FEFEFE" height="7278.3333" style="stroke:none;stroke-width:2.2917;" width="1631.6667" x="0" y="0"/><text fill="#000000" font-family="'Segoe UI'" font-size="50.4167" font-weight="bold" lengthAdjust="spacing" textLength="1510.8752" x="57.2917" y="104.0896">Ring Buffer (SPSC) &#8212; Lock-Free Producer / Consumer</text><g><title>osal..ring_buffer.T.N.</title><rect fill="#E3F2FD" height="393.6654" style="stroke:#000000;stroke-width:2.2917;" width="22.9167" x="853.356" y="1256.2272"/></g><g><title>osal..ring_buffer.T.N.</title><rect fill="#E3F2FD" height="115.2637" style="stroke:#000000;stroke-width:2.2917;" width="22.9167" x="853.356" y="1765.1562"/></g><g><title>osal..ring_buffer.T.N.</title><rect fill="#E3F2FD" height="356.3184" style="stroke:#000000;stroke-width:2.2917;" width="22.9167" x="853.356" y="2143.0306"/></g><g><title>osal..ring_buffer.T.N.</title><rect fill="#E3F2FD" height="115.2637" style="stroke:#000000;stroke-width:2.2917;" width="22.9167" x="853.356" y="2614.6126"/></g><g><title>osal..ring_buffer.T.N.</title><rect fill="#E3F2FD" height="244.2773" style="stroke:#000000;stroke-width:2.2917;" width="22.9167" x="853.356" y="2992.487"/></g><g><title>osal..ring_buffer.T.N.</title><rect fill="#E3F2FD" height="281.6243" style="stroke:#000000;stroke-width:2.2917;" width="22.9167" x="853.356" y="3628.3887"/></g><g><title>osal..ring_buffer.T.N.</title><rect fill="#E3F2FD" height="281.6243" style="stroke:#000000;stroke-width:2.2917;" width="22.9167" x="853.356" y="4172.6237"/></g><g><title>osal..ring_buffer.T.N.</title><rect fill="#E3F2FD" height="356.3184" style="stroke:#000000;stroke-width:2.2917;" width="22.9167" x="853.356" y="4716.8587"/></g><g><title>osal..ring_buffer.T.N.</title><rect fill="#E3F2FD" height="356.3184" style="stroke:#000000;stroke-width:2.2917;" width="22.9167" x="853.356" y="5188.4408"/></g><g><title>osal..ring_buffer.T.N.</title><rect fill="#E3F2FD" height="198.444" style="stroke:#000000;stroke-width:2.2917;" width="22.9167" x="853.356" y="6876.8262"/></g><g><title>Producer Thread</title><rect fill="#000000" fill-opacity="0.00000" height="6797.513" width="18.3333" x="278.593" y="319.0072"/><line style="stroke:#000000;stroke-width:2.2917;stroke-dasharray:11.4583,11.4583;" x1="287.4162" x2="287.4162" y1="319.0072" y2="7116.5202"/></g><g><title>osal..ring_buffer.T.N.</title><rect fill="#000000" fill-opacity="0.00000" height="6797.513" width="18.3333" x="855.6477" y="319.0072"/><line style="stroke:#000000;stroke-width:2.2917;stroke-dasharray:11.4583,11.4583;" x1="863.5667" x2="863.5667" y1="319.0072" y2="7116.5202"/></g><g><title>Consumer Thread</title><rect fill="#000000" fill-opacity="0.00000" height="6797.513" width="18.3333" x="1330.2364" y="319.0072"/><line style="stroke:#000000;stroke-width:2.2917;stroke-dasharray:11.4583,11.4583;" x1="1338.1453" x2="1338.1453" y1="319.0072" y2="7116.5202"/></g><g class="participant participant-head" data-participant="prod"><rect fill="#E8F5E9" height="152.6107" rx="5.7292" ry="5.7292" style="stroke:#000000;stroke-width:2.2917;" width="344.4371" x="115.5412" y="164.1048"/><text fill="#000000" font-family="'Segoe UI'" font-size="32.0833" lengthAdjust="spacing" textLength="266.5204" x="154.4995" y="232.8436">Producer Thread</text><text fill="#000000" font-family="'Segoe UI'" font-size="32.0833" lengthAdjust="spacing" textLength="120.0149" x="227.7523" y="270.1906">(single)</text></g><g class="participant participant-tail" data-participant="prod"><rect fill="#E8F5E9" height="152.6107" rx="5.7292" ry="5.7292" style="stroke:#000000;stroke-width:2.2917;" width="344.4371" x="115.5412" y="7114.2285"/><text fill="#000000" font-family="'Segoe UI'" font-size="32.0833" lengthAdjust="spacing" textLength="266.5204" x="154.4995" y="7182.9673">Producer Thread</text><text fill="#000000" font-family="'Segoe UI'" font-size="32.0833" lengthAdjust="spacing" textLength="120.0149" x="227.7523" y="7220.3143">(single)</text></g><g class="participant participant-head" data-participant="rb"><rect fill="#E3F2FD" height="115.2637" rx="5.7292" ry="5.7292" style="stroke:#000000;stroke-width:2.2917;" width="447.0787" x="641.275" y="201.4518"/><text fill="#000000" font-family="'Segoe UI'" font-size="32.0833" lengthAdjust="spacing" textLength="369.162" x="680.2334" y="270.1906">osal::ring_buffer&lt;T,N&gt;</text></g><g class="participant participant-tail" data-participant="rb"><rect fill="#E3F2FD" height="115.2637" rx="5.7292" ry="5.7292" style="stroke:#000000;stroke-width:2.2917;" width="447.0787" x="641.275" y="7114.2285"/><text fill="#000000" font-family="'Segoe UI'" font-size="32.0833" lengthAdjust="spacing" textLength="369.162" x="680.2334" y="7182.9673">osal::ring_buffer&lt;T,N&gt;</text></g><g class="participant participant-head" data-participant="cons"><rect fill="#FFF8E1" height="152.6107" rx="5.7292" ry="5.7292" style="stroke:#000000;stroke-width:2.2917;" width="364.5988" x="1157.1037" y="164.1048"/><text fill="#000000" font-family="'Segoe UI'" font-size="32.0833" lengthAdjust="spacing" textLength="286.6821" x="1196.062" y="232.8436">Consumer Thread</text><text fill="#000000" font-family="'Segoe UI'" font-size="32.0833" lengthAdjust="spacing" textLength="120.0149" x="1279.3957" y="270.1906">(single)</text></g><g class="participant participant-tail" data-participant="cons"><rect fill="#FFF8E1" height="152.6107" rx="5.7292" ry="5.7292" style="stroke:#000000;stroke-width:2.2917;" width="364.5988" x="1157.1037" y="7114.2285"/><text fill="#000000" font-family="'Segoe UI'" font-size="32.0833" lengthAdjust="spacing" textLength="286.6821" x="1196.062" y="7182.9673">Consumer Thread</text><text fill="#000000" font-family="'Segoe UI'" font-size="32.0833" lengthAdjust="spacing" textLength="120.0149" x="1279.3957" y="7220.3143">(single)</text></g><g><title>osal..ring_buffer.T.N.</title><rect fill="#E3F2FD" height="393.6654" style="stroke:#000000;stroke-width:2.2917;" width="22.9167" x="853.356" y="1256.2272"/></g><g><title>osal..ring_buffer.T.N.</title><rect fill="#E3F2FD" height="115.2637" style="stroke:#000000;stroke-width:2.2917;" width="22.9167" x="853.356" y="1765.1562"/></g><g><title>osal..ring_buffer.T.N.</title><rect fill="#E3F2FD" height="356.3184" style="stroke:#000000;stroke-width:2.2917;" width="22.9167" x="853.356" y="2143.0306"/></g><g><title>osal..ring_buffer.T.N.</title><rect fill="#E3F2FD" height="115.2637" style="stroke:#000000;stroke-width:2.2917;" width="22.9167" x="853.356" y="2614.6126"/></g><g><title>osal..ring_buffer.T.N.</title><rect fill="#E3F2FD" height="244.2773" style="stroke:#000000;stroke-width:2.2917;" width="22.9167" x="853.356" y="2992.487"/></g><g><title>osal..ring_buffer.T.N.</title><rect fill="#E3F2FD" height="281.6243" style="stroke:#000000;stroke-width:2.2917;" width="22.9167" x="853.356" y="3628.3887"/></g><g><title>osal..ring_buffer.T.N.</title><rect fill="#E3F2FD" height="281.6243" style="stroke:#000000;stroke-width:2.2917;" width="22.9167" x="853.356" y="4172.6237"/></g><g><title>osal..ring_buffer.T.N.</title><rect fill="#E3F2FD" height="356.3184" style="stroke:#000000;stroke-width:2.2917;" width="22.9167" x="853.356" y="4716.8587"/></g><g><title>osal..ring_buffer.T.N.</title><rect fill="#E3F2FD" height="356.3184" style="stroke:#000000;stroke-width:2.2917;" width="22.9167" x="853.356" y="5188.4408"/></g><g><title>osal..ring_buffer.T.N.</title><rect fill="#E3F2FD" height="198.444" style="stroke:#000000;stroke-width:2.2917;" width="22.9167" x="853.356" y="6876.8262"/></g><path d="M92.6245,353.3822 L92.6245,532.1322 L1531.7912,532.1322 L1531.7912,376.2988 L1508.8745,353.3822 L92.6245,353.3822" fill="#FFFFFF" style="stroke:#000000;stroke-width:2.2917;"/><path d="M1508.8745,353.3822 L1508.8745,376.2988 L1531.7912,376.2988 L1508.8745,353.3822" fill="#FFFFFF" style="stroke:#000000;stroke-width:2.2917;"/><text fill="#000000" font-family="'Segoe UI'" font-size="32.0833" lengthAdjust="spacing" textLength="530.4403" x="408.2982" y="417.5376">Header-only, no OS dependency.</text><text fill="#000000" font-family="'Segoe UI'" font-size="32.0833" lengthAdjust="spacing" textLength="788.5638" x="408.2982" y="454.8846">Uses std::atomic with acquire/release semantics.</text><text fill="#000000" font-family="'Segoe UI'" font-size="32.0833" lengthAdjust="spacing" textLength="777.3472" x="408.2982" y="492.2316">Exactly one producer and one consumer thread.</text><rect fill="#FFFFFF" height="6.875" style="stroke:#FFFFFF;stroke-width:2.2917;" width="1598.3346" x="14.7078" y="617.0133"/><line style="stroke:#000000;stroke-width:1.1458;" x1="14.7078" x2="1613.0424" y1="617.0133" y2="617.0133"/><line style="stroke:#000000;stroke-width:1.1458;" x1="14.7078" x2="1613.0424" y1="623.8883" y2="623.8883"/><rect fill="#FFFFFF" height="101.5137" style="stroke:#000000;stroke-width:2.2917;" width="320.8445" x="653.4529" y="568.5482"/><text fill="#000000" font-family="'Segoe UI'" font-size="32.0833" font-weight="bold" lengthAdjust="spacing" textLength="231.7582" x="690.1195" y="630.412">Construction</text><g class="message" data-participant-1="prod" data-participant-2="rb"><polygon fill="#000000" points="837.3144,780.7422,860.231,789.9089,837.3144,799.0755,846.481,789.9089" style="stroke:#000000;stroke-width:2.2917;"/><line style="stroke:#000000;stroke-width:2.2917;" x1="287.7597" x2="851.0644" y1="789.9089" y2="789.9089"/><text fill="#000000" font-family="'Segoe UI'" font-size="32.0833" lengthAdjust="spacing" textLength="476.2213" x="338.1764" y="754.8423">ring_buffer&lt;uint16_t, 64&gt; rb;</text></g><path d="M874.0828,819.7005 L874.0828,998.4505 L1524.9162,998.4505 L1524.9162,842.6172 L1501.9995,819.7005 L874.0828,819.7005" fill="#FFFFFF" style="stroke:#000000;stroke-width:2.2917;"/><path d="M1501.9995,819.7005 L1501.9995,842.6172 L1524.9162,842.6172 L1501.9995,819.7005" fill="#FFFFFF" style="stroke:#000000;stroke-width:2.2917;"/><text fill="#000000" font-family="'Segoe UI'" font-size="32.0833" lengthAdjust="spacing" textLength="318.0292" x="910.7495" y="883.856">head_ = 0, tail_ = 0</text><text fill="#000000" font-family="'Segoe UI'" font-size="32.0833" lengthAdjust="spacing" textLength="558.6542" x="910.7495" y="921.203">Internal array: N+1 slots (sentinel)</text><text fill="#000000" font-family="'Segoe UI'" font-size="32.0833" lengthAdjust="spacing" textLength="402.7179" x="910.7495" y="958.55">Capacity: 64 usable slots</text><rect fill="#FFFFFF" height="6.875" style="stroke:#FFFFFF;stroke-width:2.2917;" width="1598.3346" x="14.7078" y="1083.3317"/><line style="stroke:#000000;stroke-width:1.1458;" x1="14.7078" x2="1613.0424" y1="1083.3317" y2="1083.3317"/><line style="stroke:#000000;stroke-width:1.1458;" x1="14.7078" x2="1613.0424" y1="1090.2067" y2="1090.2067"/><rect fill="#FFFFFF" height="101.5137" style="stroke:#000000;stroke-width:2.2917;" width="504.4307" x="561.6597" y="1034.8665"/><text fill="#000000" font-family="'Segoe UI'" font-size="32.0833" font-weight="bold" lengthAdjust="spacing" textLength="415.3444" x="598.3264" y="1096.7303">Producer pushes items</text><g class="message" data-participant-1="prod" data-participant-2="rb"><polygon fill="#000000" points="825.856,1247.0605,848.7727,1256.2272,825.856,1265.3939,835.0227,1256.2272" style="stroke:#000000;stroke-width:2.2917;"/><line style="stroke:#000000;stroke-width:2.2917;" x1="287.7597" x2="839.606" y1="1256.2272" y2="1256.2272"/><text fill="#000000" font-family="'Segoe UI'" font-size="32.0833" lengthAdjust="spacing" textLength="248.1602" x="446.4778" y="1221.1607">rb.try_push(42)</text></g><path d="M885.5412,1286.0189 L885.5412,1540.3939 L1595.9578,1540.3939 L1595.9578,1308.9355 L1573.0412,1286.0189 L885.5412,1286.0189" fill="#FFFFFF" style="stroke:#000000;stroke-width:2.2917;"/><path d="M1573.0412,1286.0189 L1573.0412,1308.9355 L1595.9578,1308.9355 L1573.0412,1286.0189" fill="#FFFFFF" style="stroke:#000000;stroke-width:2.2917;"/><text fill="#000000" font-family="'Segoe UI'" font-size="32.0833" lengthAdjust="spacing" textLength="380.5039" x="922.2078" y="1350.1744">1. Load head_ (relaxed)</text><text fill="#000000" font-family="'Segoe UI'" font-size="32.0833" lengthAdjust="spacing" textLength="615.8653" x="922.2078" y="1387.5214">2. Compute next = (head+1) % (N+1)</text><text fill="#000000" font-family="'Segoe UI'" font-size="32.0833" lengthAdjust="spacing" textLength="618.5284" x="922.2078" y="1424.8684">3. Load tail_ (acquire) &#8212; check not full</text><text fill="#000000" font-family="'Segoe UI'" font-size="32.0833" lengthAdjust="spacing" textLength="435.4122" x="922.2078" y="1462.2154">4. Write item to buf_[head]</text><text fill="#000000" font-family="'Segoe UI'" font-size="32.0833" lengthAdjust="spacing" textLength="504.4979" x="922.2078" y="1499.5624">5. Store head_ = next (release)</text><g class="message" data-participant-1="rb" data-participant-2="prod"><polygon fill="#000000" points="312.968,1640.7259,290.0514,1649.8926,312.968,1659.0592,303.8014,1649.8926" style="stroke:#000000;stroke-width:2.2917;"/><line style="stroke:#000000;stroke-width:2.2917;stroke-dasharray:4.5833,4.5833;" x1="299.218" x2="862.5227" y1="1649.8926" y2="1649.8926"/><text fill="#000000" font-family="'Segoe UI'" font-size="32.0833" lengthAdjust="spacing" textLength="262.0243" x="445.2749" y="1614.826">true (enqueued)</text></g><g class="message" data-participant-1="prod" data-participant-2="rb"><polygon fill="#000000" points="825.856,1755.9896,848.7727,1765.1562,825.856,1774.3229,835.0227,1765.1562" style="stroke:#000000;stroke-width:2.2917;"/><line style="stroke:#000000;stroke-width:2.2917;" x1="287.7597" x2="839.606" y1="1765.1562" y2="1765.1562"/><text fill="#000000" font-family="'Segoe UI'" font-size="32.0833" lengthAdjust="spacing" textLength="248.1602" x="446.4778" y="1730.0897">rb.try_push(99)</text></g><g class="message" data-participant-1="rb" data-participant-2="prod"><polygon fill="#000000" points="312.968,1871.2533,290.0514,1880.4199,312.968,1889.5866,303.8014,1880.4199" style="stroke:#000000;stroke-width:2.2917;"/><line style="stroke:#000000;stroke-width:2.2917;stroke-dasharray:4.5833,4.5833;" x1="299.218" x2="862.5227" y1="1880.4199" y2="1880.4199"/><text fill="#000000" font-family="'Segoe UI'" font-size="32.0833" lengthAdjust="spacing" textLength="262.0243" x="445.2749" y="1845.3534">true (enqueued)</text></g><rect fill="#FFFFFF" height="6.875" style="stroke:#FFFFFF;stroke-width:2.2917;" width="1598.3346" x="14.7078" y="1970.1351"/><line style="stroke:#000000;stroke-width:1.1458;" x1="14.7078" x2="1613.0424" y1="1970.1351" y2="1970.1351"/><line style="stroke:#000000;stroke-width:1.1458;" x1="14.7078" x2="1613.0424" y1="1977.0101" y2="1977.0101"/><rect fill="#FFFFFF" height="101.5137" style="stroke:#000000;stroke-width:2.2917;" width="480.4936" x="573.6283" y="1921.6699"/><text fill="#000000" font-family="'Segoe UI'" font-size="32.0833" font-weight="bold" lengthAdjust="spacing" textLength="391.4073" x="610.295" y="1983.5337">Consumer pops items</text><g class="message" data-participant-1="cons" data-participant-2="rb"><polygon fill="#000000" points="901.481,2133.8639,878.5644,2143.0306,901.481,2152.1973,892.3144,2143.0306" style="stroke:#000000;stroke-width:2.2917;"/><line style="stroke:#000000;stroke-width:2.2917;" x1="887.731" x2="1337.1114" y1="2143.0306" y2="2143.0306"/><text fill="#000000" font-family="'Segoe UI'" font-size="32.0833" lengthAdjust="spacing" textLength="262.4316" x="976.6221" y="2107.9641">rb.try_pop(item)</text></g><path d="M44.4995,2172.8223 L44.4995,2390.5306 L839.7078,2390.5306 L839.7078,2195.7389 L816.7912,2172.8223 L44.4995,2172.8223" fill="#FFFFFF" style="stroke:#000000;stroke-width:2.2917;"/><path d="M816.7912,2172.8223 L816.7912,2195.7389 L839.7078,2195.7389 L816.7912,2172.8223" fill="#FFFFFF" style="stroke:#000000;stroke-width:2.2917;"/><text fill="#000000" font-family="'Segoe UI'" font-size="32.0833" lengthAdjust="spacing" textLength="350.4728" x="81.1662" y="2236.9777">1. Load tail_ (relaxed)</text><text fill="#000000" font-family="'Segoe UI'" font-size="32.0833" lengthAdjust="spacing" textLength="702.0266" x="81.1662" y="2274.3247">2. Load head_ (acquire) &#8212; check not empty</text><text fill="#000000" font-family="'Segoe UI'" font-size="32.0833" lengthAdjust="spacing" textLength="395.966" x="81.1662" y="2311.6718">3. Read item = buf_[tail]</text><text fill="#000000" font-family="'Segoe UI'" font-size="32.0833" lengthAdjust="spacing" textLength="672.4341" x="81.1662" y="2349.0188">4. Store tail_ = (tail+1) % (N+1) (release)</text><g class="message" data-participant-1="rb" data-participant-2="cons"><polygon fill="#000000" points="1311.9031,2490.1823,1334.8197,2499.349,1311.9031,2508.5156,1321.0697,2499.349" style="stroke:#000000;stroke-width:2.2917;"/><line style="stroke:#000000;stroke-width:2.2917;stroke-dasharray:4.5833,4.5833;" x1="864.8144" x2="1325.6531" y1="2499.349" y2="2499.349"/><text fill="#000000" font-family="'Segoe UI'" font-size="32.0833" lengthAdjust="spacing" textLength="246.8286" x="978.6944" y="2464.2824">true, item = 42</text></g><g class="message" data-participant-1="cons" data-participant-2="rb"><polygon fill="#000000" points="901.481,2605.446,878.5644,2614.6126,901.481,2623.7793,892.3144,2614.6126" style="stroke:#000000;stroke-width:2.2917;"/><line style="stroke:#000000;stroke-width:2.2917;" x1="887.731" x2="1337.1114" y1="2614.6126" y2="2614.6126"/><text fill="#000000" font-family="'Segoe UI'" font-size="32.0833" lengthAdjust="spacing" textLength="262.4316" x="976.6221" y="2579.5461">rb.try_pop(item)</text></g><g class="message" data-participant-1="rb" data-participant-2="cons"><polygon fill="#000000" points="1311.9031,2720.7096,1334.8197,2729.8763,1311.9031,2739.043,1321.0697,2729.8763" style="stroke:#000000;stroke-width:2.2917;"/><line style="stroke:#000000;stroke-width:2.2917;stroke-dasharray:4.5833,4.5833;" x1="864.8144" x2="1325.6531" y1="2729.8763" y2="2729.8763"/><text fill="#000000" font-family="'Segoe UI'" font-size="32.0833" lengthAdjust="spacing" textLength="246.8286" x="978.6944" y="2694.8098">true, item = 99</text></g><rect fill="#FFFFFF" height="6.875" style="stroke:#FFFFFF;stroke-width:2.2917;" width="1598.3346" x="14.7078" y="2819.5915"/><line style="stroke:#000000;stroke-width:1.1458;" x1="14.7078" x2="1613.0424" y1="2819.5915" y2="2819.5915"/><line style="stroke:#000000;stroke-width:1.1458;" x1="14.7078" x2="1613.0424" y1="2826.4665" y2="2826.4665"/><rect fill="#FFFFFF" height="101.5137" style="stroke:#000000;stroke-width:2.2917;" width="327.4554" x="650.1474" y="2771.1263"/><text fill="#000000" font-family="'Segoe UI'" font-size="32.0833" font-weight="bold" lengthAdjust="spacing" textLength="238.3691" x="686.8141" y="2832.9901">Buffer empty</text><g class="message" data-participant-1="cons" data-participant-2="rb"><polygon fill="#000000" points="901.481,2983.3203,878.5644,2992.487,901.481,3001.6536,892.3144,2992.487" style="stroke:#000000;stroke-width:2.2917;"/><line style="stroke:#000000;stroke-width:2.2917;" x1="887.731" x2="1337.1114" y1="2992.487" y2="2992.487"/><text fill="#000000" font-family="'Segoe UI'" font-size="32.0833" lengthAdjust="spacing" textLength="262.4316" x="976.6221" y="2957.4205">rb.try_pop(item)</text></g><path d="M360.7495,3022.2786 L360.7495,3127.6953 L839.7078,3127.6953 L839.7078,3045.1953 L816.7912,3022.2786 L360.7495,3022.2786" fill="#FFFFFF" style="stroke:#000000;stroke-width:2.2917;"/><path d="M816.7912,3022.2786 L816.7912,3045.1953 L839.7078,3045.1953 L816.7912,3022.2786" fill="#FFFFFF" style="stroke:#000000;stroke-width:2.2917;"/><text fill="#000000" font-family="'Segoe UI'" font-size="32.0833" lengthAdjust="spacing" textLength="386.6136" x="397.4162" y="3086.4341">tail_ == head_ &#8594; empty</text><g class="message" data-participant-1="rb" data-participant-2="cons"><polygon fill="#000000" points="1311.9031,3227.5977,1334.8197,3236.7643,1311.9031,3245.931,1321.0697,3236.7643" style="stroke:#000000;stroke-width:2.2917;"/><line style="stroke:#000000;stroke-width:2.2917;stroke-dasharray:4.5833,4.5833;" x1="864.8144" x2="1325.6531" y1="3236.7643" y2="3236.7643"/><text fill="#000000" font-family="'Segoe UI'" font-size="32.0833" lengthAdjust="spacing" textLength="214.479" x="994.8692" y="3201.6978">false (empty)</text></g><rect fill="#FFFFFF" height="6.875" style="stroke:#FFFFFF;stroke-width:2.2917;" width="1598.3346" x="14.7078" y="3326.4795"/><line style="stroke:#000000;stroke-width:1.1458;" x1="14.7078" x2="1613.0424" y1="3326.4795" y2="3326.4795"/><line style="stroke:#000000;stroke-width:1.1458;" x1="14.7078" x2="1613.0424" y1="3333.3545" y2="3333.3545"/><rect fill="#FFFFFF" height="101.5137" style="stroke:#000000;stroke-width:2.2917;" width="271.8422" x="677.954" y="3278.0143"/><text fill="#000000" font-family="'Segoe UI'" font-size="32.0833" font-weight="bold" lengthAdjust="spacing" textLength="182.7559" x="714.6207" y="3339.8781">Buffer full</text><path d="M26.1662,3413.903 L26.1662,3519.3197 L550.9578,3519.3197 L550.9578,3436.8197 L528.0412,3413.903 L26.1662,3413.903" fill="#FFFFFF" style="stroke:#000000;stroke-width:2.2917;"/><path d="M528.0412,3413.903 L528.0412,3436.8197 L550.9578,3436.8197 L528.0412,3413.903" fill="#FFFFFF" style="stroke:#000000;stroke-width:2.2917;"/><text fill="#000000" font-family="'Segoe UI'" font-size="32.0833" lengthAdjust="spacing" textLength="432.6394" x="62.8328" y="3478.0585">Producer fills all 64 slots ...</text><g class="message" data-participant-1="prod" data-participant-2="rb"><polygon fill="#000000" points="825.856,3619.222,848.7727,3628.3887,825.856,3637.5553,835.0227,3628.3887" style="stroke:#000000;stroke-width:2.2917;"/><line style="stroke:#000000;stroke-width:2.2917;" x1="287.7597" x2="839.606" y1="3628.3887" y2="3628.3887"/><text fill="#000000" font-family="'Segoe UI'" font-size="32.0833" lengthAdjust="spacing" textLength="254.8964" x="443.1096" y="3593.3221">rb.try_push(val)</text></g><path d="M885.5412,3658.1803 L885.5412,3800.2637 L1375.9578,3800.2637 L1375.9578,3681.097 L1353.0412,3658.1803 L885.5412,3658.1803" fill="#FFFFFF" style="stroke:#000000;stroke-width:2.2917;"/><path d="M1353.0412,3658.1803 L1353.0412,3681.097 L1375.9578,3681.097 L1353.0412,3658.1803" fill="#FFFFFF" style="stroke:#000000;stroke-width:2.2917;"/><text fill="#000000" font-family="'Segoe UI'" font-size="32.0833" lengthAdjust="spacing" textLength="308.6454" x="922.2078" y="3722.3358">next == tail_ &#8594; full</text><text fill="#000000" font-family="'Segoe UI'" font-size="32.0833" lengthAdjust="spacing" textLength="396.5456" x="922.2078" y="3759.6828">(sentinel slot consumed)</text><g class="message" data-participant-1="rb" data-participant-2="prod"><polygon fill="#000000" points="312.968,3900.8464,290.0514,3910.013,312.968,3919.1797,303.8014,3910.013" style="stroke:#000000;stroke-width:2.2917;"/><line style="stroke:#000000;stroke-width:2.2917;stroke-dasharray:4.5833,4.5833;" x1="299.218" x2="862.5227" y1="3910.013" y2="3910.013"/><text fill="#000000" font-family="'Segoe UI'" font-size="32.0833" lengthAdjust="spacing" textLength="161.012" x="495.781" y="3874.9465">false (full)</text></g><rect fill="#FFFFFF" height="6.875" style="stroke:#FFFFFF;stroke-width:2.2917;" width="1598.3346" x="14.7078" y="3999.7282"/><line style="stroke:#000000;stroke-width:1.1458;" x1="14.7078" x2="1613.0424" y1="3999.7282" y2="3999.7282"/><line style="stroke:#000000;stroke-width:1.1458;" x1="14.7078" x2="1613.0424" y1="4006.6032" y2="4006.6032"/><rect fill="#FFFFFF" height="101.5137" style="stroke:#000000;stroke-width:2.2917;" width="534.9005" x="546.4249" y="3951.263"/><text fill="#000000" font-family="'Segoe UI'" font-size="32.0833" font-weight="bold" lengthAdjust="spacing" textLength="445.8142" x="583.0915" y="4013.1268">Peek without consuming</text><g class="message" data-participant-1="cons" data-participant-2="rb"><polygon fill="#000000" points="901.481,4163.457,878.5644,4172.6237,901.481,4181.7904,892.3144,4172.6237" style="stroke:#000000;stroke-width:2.2917;"/><line style="stroke:#000000;stroke-width:2.2917;" x1="887.731" x2="1337.1114" y1="4172.6237" y2="4172.6237"/><text fill="#000000" font-family="'Segoe UI'" font-size="32.0833" lengthAdjust="spacing" textLength="219.6956" x="997.9901" y="4137.5572">rb.peek(item)</text></g><path d="M363.0412,4202.4154 L363.0412,4344.4987 L839.7078,4344.4987 L839.7078,4225.332 L816.7912,4202.4154 L363.0412,4202.4154" fill="#FFFFFF" style="stroke:#000000;stroke-width:2.2917;"/><path d="M816.7912,4202.4154 L816.7912,4225.332 L839.7078,4225.332 L816.7912,4202.4154" fill="#FFFFFF" style="stroke:#000000;stroke-width:2.2917;"/><text fill="#000000" font-family="'Segoe UI'" font-size="32.0833" lengthAdjust="spacing" textLength="382.9165" x="399.7078" y="4266.5708">Reads buf_[tail] without</text><text fill="#000000" font-family="'Segoe UI'" font-size="32.0833" lengthAdjust="spacing" textLength="252.7659" x="399.7078" y="4303.9178">advancing tail_.</text><g class="message" data-participant-1="rb" data-participant-2="cons"><polygon fill="#000000" points="1311.9031,4445.0814,1334.8197,4454.248,1311.9031,4463.4147,1321.0697,4454.248" style="stroke:#000000;stroke-width:2.2917;"/><line style="stroke:#000000;stroke-width:2.2917;stroke-dasharray:4.5833,4.5833;" x1="864.8144" x2="1325.6531" y1="4454.248" y2="4454.248"/><text fill="#000000" font-family="'Segoe UI'" font-size="32.0833" lengthAdjust="spacing" textLength="303.9457" x="950.1359" y="4419.1815">true, item = oldest</text></g><rect fill="#FFFFFF" height="6.875" style="stroke:#FFFFFF;stroke-width:2.2917;" width="1598.3346" x="14.7078" y="4543.9632"/><line style="stroke:#000000;stroke-width:1.1458;" x1="14.7078" x2="1613.0424" y1="4543.9632" y2="4543.9632"/><line style="stroke:#000000;stroke-width:1.1458;" x1="14.7078" x2="1613.0424" y1="4550.8382" y2="4550.8382"/><rect fill="#FFFFFF" height="101.5137" style="stroke:#000000;stroke-width:2.2917;" width="827.3319" x="400.2091" y="4495.498"/><text fill="#000000" font-family="'Segoe UI'" font-size="32.0833" font-weight="bold" lengthAdjust="spacing" textLength="738.2456" x="436.8758" y="4557.3619">Bulk push / pop (memcpy, single atomic)</text><g class="message" data-participant-1="prod" data-participant-2="rb"><polygon fill="#000000" points="825.856,4707.6921,848.7727,4716.8587,825.856,4726.0254,835.0227,4716.8587" style="stroke:#000000;stroke-width:2.2917;"/><line style="stroke:#000000;stroke-width:2.2917;" x1="287.7597" x2="839.606" y1="4716.8587" y2="4716.8587"/><text fill="#000000" font-family="'Segoe UI'" font-size="32.0833" lengthAdjust="spacing" textLength="373.7207" x="383.6975" y="4681.7922">rb.try_push_n(items, 4)</text></g><path d="M885.5412,4746.6504 L885.5412,4964.3587 L1600.5412,4964.3587 L1600.5412,4769.5671 L1577.6245,4746.6504 L885.5412,4746.6504" fill="#FFFFFF" style="stroke:#000000;stroke-width:2.2917;"/><path d="M1577.6245,4746.6504 L1577.6245,4769.5671 L1600.5412,4769.5671 L1577.6245,4746.6504" fill="#FFFFFF" style="stroke:#000000;stroke-width:2.2917;"/><text fill="#000000" font-family="'Segoe UI'" font-size="32.0833" lengthAdjust="spacing" textLength="622.0846" x="922.2078" y="4810.8059">1. Load head_ (relaxed), tail_ (acquire)</text><text fill="#000000" font-family="'Segoe UI'" font-size="32.0833" lengthAdjust="spacing" textLength="453.5844" x="922.2078" y="4848.1529">2. n = min(count, free slots)</text><text fill="#000000" font-family="'Segoe UI'" font-size="32.0833" lengthAdjust="spacing" textLength="567.9126" x="922.2078" y="4885.4999">3. Two-chunk memcpy across wrap</text><text fill="#000000" font-family="'Segoe UI'" font-size="32.0833" lengthAdjust="spacing" textLength="30.6108" x="922.2078" y="4922.8469">4.</text><text fill="#000000" font-family="'Segoe UI'" font-size="32.0833" font-weight="bold" lengthAdjust="spacing" textLength="112.6676" x="963.017" y="4922.8469">Single</text><text fill="#000000" font-family="'Segoe UI'" font-size="32.0833" lengthAdjust="spacing" textLength="341.1204" x="1085.883" y="4922.8469">head_ store (release)</text><g class="message" data-participant-1="rb" data-participant-2="prod"><polygon fill="#000000" points="312.968,5064.0104,290.0514,5073.1771,312.968,5082.3438,303.8014,5073.1771" style="stroke:#000000;stroke-width:2.2917;"/><line style="stroke:#000000;stroke-width:2.2917;stroke-dasharray:4.5833,4.5833;" x1="299.218" x2="862.5227" y1="5073.1771" y2="5073.1771"/><text fill="#000000" font-family="'Segoe UI'" font-size="32.0833" lengthAdjust="spacing" textLength="272.8963" x="439.8389" y="5038.1106">4 (items pushed)</text></g><g class="message" data-participant-1="cons" data-participant-2="rb"><polygon fill="#000000" points="901.481,5179.2741,878.5644,5188.4408,901.481,5197.6074,892.3144,5188.4408" style="stroke:#000000;stroke-width:2.2917;"/><line style="stroke:#000000;stroke-width:2.2917;" x1="887.731" x2="1337.1114" y1="5188.4408" y2="5188.4408"/><text fill="#000000" font-family="'Segoe UI'" font-size="32.0833" lengthAdjust="spacing" textLength="319.1258" x="948.275" y="5153.3742">rb.try_pop_n(buf, 4)</text></g><path d="M124.7078,5218.2324 L124.7078,5435.9408 L839.7078,5435.9408 L839.7078,5241.1491 L816.7912,5218.2324 L124.7078,5218.2324" fill="#FFFFFF" style="stroke:#000000;stroke-width:2.2917;"/><path d="M816.7912,5218.2324 L816.7912,5241.1491 L839.7078,5241.1491 L816.7912,5218.2324" fill="#FFFFFF" style="stroke:#000000;stroke-width:2.2917;"/><text fill="#000000" font-family="'Segoe UI'" font-size="32.0833" lengthAdjust="spacing" textLength="622.0846" x="161.3745" y="5282.3879">1. Load tail_ (relaxed), head_ (acquire)</text><text fill="#000000" font-family="'Segoe UI'" font-size="32.0833" lengthAdjust="spacing" textLength="449.6836" x="161.3745" y="5319.7349">2. n = min(count, available)</text><text fill="#000000" font-family="'Segoe UI'" font-size="32.0833" lengthAdjust="spacing" textLength="567.9126" x="161.3745" y="5357.0819">3. Two-chunk memcpy across wrap</text><text fill="#000000" font-family="'Segoe UI'" font-size="32.0833" lengthAdjust="spacing" textLength="30.6108" x="161.3745" y="5394.4289">4.</text><text fill="#000000" font-family="'Segoe UI'" font-size="32.0833" font-weight="bold" lengthAdjust="spacing" textLength="112.6676" x="202.1836" y="5394.4289">Single</text><text fill="#000000" font-family="'Segoe UI'" font-size="32.0833" lengthAdjust="spacing" textLength="311.0893" x="325.0496" y="5394.4289">tail_ store (release)</text><g class="message" data-participant-1="rb" data-participant-2="cons"><polygon fill="#000000" points="1311.9031,5535.5924,1334.8197,5544.7591,1311.9031,5553.9258,1321.0697,5544.7591" style="stroke:#000000;stroke-width:2.2917;"/><line style="stroke:#000000;stroke-width:2.2917;stroke-dasharray:4.5833,4.5833;" x1="864.8144" x2="1325.6531" y1="5544.7591" y2="5544.7591"/><text fill="#000000" font-family="'Segoe UI'" font-size="32.0833" lengthAdjust="spacing" textLength="275.8728" x="964.1723" y="5509.6926">4 (items popped)</text></g><rect fill="#FFFFFF" height="6.875" style="stroke:#FFFFFF;stroke-width:2.2917;" width="1598.3346" x="14.7078" y="5634.4743"/><line style="stroke:#000000;stroke-width:1.1458;" x1="14.7078" x2="1613.0424" y1="5634.4743" y2="5634.4743"/><line style="stroke:#000000;stroke-width:1.1458;" x1="14.7078" x2="1613.0424" y1="5641.3493" y2="5641.3493"/><rect fill="#FFFFFF" height="101.5137" style="stroke:#000000;stroke-width:2.2917;" width="683.9752" x="471.8875" y="5586.0091"/><text fill="#000000" font-family="'Segoe UI'" font-size="32.0833" font-weight="bold" lengthAdjust="spacing" textLength="594.8889" x="508.5542" y="5647.8729">Query operations (either thread)</text><g class="message" data-participant-1="prod" data-participant-2="rb"><polygon fill="#000000" points="837.3144,5798.2031,860.231,5807.3698,837.3144,5816.5365,846.481,5807.3698" style="stroke:#000000;stroke-width:2.2917;"/><line style="stroke:#000000;stroke-width:2.2917;" x1="287.7597" x2="851.0644" y1="5807.3698" y2="5807.3698"/><text fill="#000000" font-family="'Segoe UI'" font-size="32.0833" lengthAdjust="spacing" textLength="130.9965" x="510.7888" y="5772.3033">rb.size()</text></g><g class="message" data-participant-1="rb" data-participant-2="prod"><polygon fill="#000000" points="312.968,5913.4668,290.0514,5922.6335,312.968,5931.8001,303.8014,5922.6335" style="stroke:#000000;stroke-width:2.2917;"/><line style="stroke:#000000;stroke-width:2.2917;stroke-dasharray:4.5833,4.5833;" x1="299.218" x2="862.5227" y1="5922.6335" y2="5922.6335"/><text fill="#000000" font-family="'Segoe UI'" font-size="32.0833" lengthAdjust="spacing" textLength="399.2871" x="376.6435" y="5887.5669">current count (snapshot)</text></g><g class="message" data-participant-1="cons" data-participant-2="rb"><polygon fill="#000000" points="890.0227,6028.7305,867.106,6037.8971,890.0227,6047.0638,880.856,6037.8971" style="stroke:#000000;stroke-width:2.2917;"/><line style="stroke:#000000;stroke-width:2.2917;" x1="876.2727" x2="1337.1114" y1="6037.8971" y2="6037.8971"/><text fill="#000000" font-family="'Segoe UI'" font-size="32.0833" lengthAdjust="spacing" textLength="171.7116" x="1016.2529" y="6002.8306">rb.empty()</text></g><g class="message" data-participant-1="rb" data-participant-2="cons"><polygon fill="#000000" points="1311.9031,6143.9941,1334.8197,6153.1608,1311.9031,6162.3275,1321.0697,6153.1608" style="stroke:#000000;stroke-width:2.2917;"/><line style="stroke:#000000;stroke-width:2.2917;stroke-dasharray:4.5833,4.5833;" x1="864.8144" x2="1325.6531" y1="6153.1608" y2="6153.1608"/><text fill="#000000" font-family="'Segoe UI'" font-size="32.0833" lengthAdjust="spacing" textLength="173.3722" x="1015.4226" y="6118.0943">true / false</text></g><g class="message" data-participant-1="prod" data-participant-2="rb"><polygon fill="#000000" points="837.3144,6259.2578,860.231,6268.4245,837.3144,6277.5911,846.481,6268.4245" style="stroke:#000000;stroke-width:2.2917;"/><line style="stroke:#000000;stroke-width:2.2917;" x1="287.7597" x2="851.0644" y1="6268.4245" y2="6268.4245"/><text fill="#000000" font-family="'Segoe UI'" font-size="32.0833" lengthAdjust="spacing" textLength="118.2446" x="517.1647" y="6233.358">rb.full()</text></g><g class="message" data-participant-1="rb" data-participant-2="prod"><polygon fill="#000000" points="312.968,6374.5215,290.0514,6383.6882,312.968,6392.8548,303.8014,6383.6882" style="stroke:#000000;stroke-width:2.2917;"/><line style="stroke:#000000;stroke-width:2.2917;stroke-dasharray:4.5833,4.5833;" x1="299.218" x2="862.5227" y1="6383.6882" y2="6383.6882"/><text fill="#000000" font-family="'Segoe UI'" font-size="32.0833" lengthAdjust="spacing" textLength="173.3722" x="489.6009" y="6348.6216">true / false</text></g><g class="message" data-participant-1="prod" data-participant-2="rb"><polygon fill="#000000" points="837.3144,6489.7852,860.231,6498.9518,837.3144,6508.1185,846.481,6498.9518" style="stroke:#000000;stroke-width:2.2917;"/><line style="stroke:#000000;stroke-width:2.2917;" x1="287.7597" x2="851.0644" y1="6498.9518" y2="6498.9518"/><text fill="#000000" font-family="'Segoe UI'" font-size="32.0833" lengthAdjust="spacing" textLength="357.1621" x="397.706" y="6463.8853">ring_buffer::capacity()</text></g><g class="message" data-participant-1="rb" data-participant-2="prod"><polygon fill="#000000" points="312.968,6605.0488,290.0514,6614.2155,312.968,6623.3822,303.8014,6614.2155" style="stroke:#000000;stroke-width:2.2917;"/><line style="stroke:#000000;stroke-width:2.2917;stroke-dasharray:4.5833,4.5833;" x1="299.218" x2="862.5227" y1="6614.2155" y2="6614.2155"/><text fill="#000000" font-family="'Segoe UI'" font-size="32.0833" lengthAdjust="spacing" textLength="235.236" x="458.669" y="6579.149">64 (constexpr)</text></g><rect fill="#FFFFFF" height="6.875" style="stroke:#FFFFFF;stroke-width:2.2917;" width="1598.3346" x="14.7078" y="6703.9307"/><line style="stroke:#000000;stroke-width:1.1458;" x1="14.7078" x2="1613.0424" y1="6703.9307" y2="6703.9307"/><line style="stroke:#000000;stroke-width:1.1458;" x1="14.7078" x2="1613.0424" y1="6710.8057" y2="6710.8057"/><rect fill="#FFFFFF" height="101.5137" style="stroke:#000000;stroke-width:2.2917;" width="628.597" x="499.5766" y="6655.4655"/><text fill="#000000" font-family="'Segoe UI'" font-size="32.0833" font-weight="bold" lengthAdjust="spacing" textLength="539.5107" x="536.2433" y="6717.3293">Reset (consumer thread only)</text><g class="message" data-participant-1="cons" data-participant-2="rb"><polygon fill="#000000" points="901.481,6867.6595,878.5644,6876.8262,901.481,6885.9928,892.3144,6876.8262" style="stroke:#000000;stroke-width:2.2917;"/><line style="stroke:#000000;stroke-width:2.2917;" x1="887.731" x2="1337.1114" y1="6876.8262" y2="6876.8262"/><text fill="#000000" font-family="'Segoe UI'" font-size="32.0833" lengthAdjust="spacing" textLength="150.7509" x="1032.4624" y="6841.7596">rb.reset()</text></g><path d="M383.6662,6906.6178 L383.6662,7048.7012 L839.7078,7048.7012 L839.7078,6929.5345 L816.7912,6906.6178 L383.6662,6906.6178" fill="#FFFFFF" style="stroke:#000000;stroke-width:2.2917;"/><path d="M816.7912,6906.6178 L816.7912,6929.5345 L839.7078,6929.5345 L816.7912,6906.6178" fill="#FFFFFF" style="stroke:#000000;stroke-width:2.2917;"/><text fill="#000000" font-family="'Segoe UI'" font-size="32.0833" lengthAdjust="spacing" textLength="362.4571" x="420.3328" y="6970.7733">tail_ = head_ (release)</text><text fill="#000000" font-family="'Segoe UI'" font-size="32.0833" lengthAdjust="spacing" textLength="295.1886" x="420.3328" y="7008.1203">Discards all items.</text><g class="message" data-participant-1="rb" data-participant-2="cons"><polygon fill="#000000" points="1311.9031,7066.1035,1334.8197,7075.2702,1311.9031,7084.4368,1321.0697,7075.2702" style="stroke:#000000;stroke-width:2.2917;"/><line style="stroke:#000000;stroke-width:2.2917;stroke-dasharray:4.5833,4.5833;" x1="864.8144" x2="1325.6531" y1="7075.2702" y2="7075.2702"/></g><!--SRC=[hLR1RXit4BthAoOE2kmwygfs52DMgm2fOw41KiUr7FJG1WB57KcCkEI6vDfMJptr0uf-ORwaG-vANaihnMuB7omiPpZptioyuHCtmmmXbqoerXEXk2nIXCvCPzZvD6OolH6gSs7q9-JETZB1pVlXwtUTL7FRIGMR6fRPpiYWIj6CSgCdGYBz5yebUP79bfqBbJEoWZ7ZywdHXKfFjTG6dWxE_5_D8iK9AwGRQENE6IMrDyIfHlZmTgzcPF5pWOhZJsWjc-9hAQOAE2g7fjLomac4Iw6cy4CncQ21Q7WnF8tXonz_mplDvmS3WmY49oqudNRWL2jRPDwNhdU2Yvmf1tihYwkPGPR-fY9BbqgCzu1P89mfF3rxENXnTdBVJricUps2FnsDGmBVNxNFNmKdCoQNvuEZmPlxBiiCcaDnEYMg1eENPuUjbj8EGL-JiK-X7KvR03-I7ve3hUIY3Kh3-o5ncVkQABv8oE23HGlMfRqUSvgA23V2pO3npuKms34eaLaaQZFAI73hNSvk6NTo0LfX21ROO2eD7_WoPnToJbeK2tnohLQ_7pXrfk1EQ0NzFb7h-JfuvIdeGPsSWlhay7Zasd3SzSVVbGYDcCuSw0bzeKnc5644VVYs3Ou96NxIvxU-v8f9OCQmHG_Edns2bTfPY2orWr0eOp8xPJdZmf71SHSAoyRK8C7iViwhWkU5dH5Pmc5c6v8V9yuiHjuewXx5BU98N3EVybrr6o0S9jHzBAsWH4GukyNKftUK45rPNf2Bmbj7s29lzEmmXcyW8apUw7dbNiAFghgLNSrdoESU1qmAAScucy0lXj8F4C1f8Av7l_fBFzBfYmI6JXjSiHgYHbKBn7Ua4A03GXtGzu3AYH2XejahVE8frf3luEZaf9cZHzrUjLHek5pdzUA4yLWFhFF8M-oeZiJ9Pd4gTkyNfrwsBRnZbhj5MQLBCYnvxvUq-pi_baKfQLzsSEH_rAgyemG1OqbIUtbvzsYTfCSpiUFwavE66bIA6k3-R-HNVFGhZh_y-LV5vnOM9anQtolU9jwUf9-5aEDznQI0gq6dJIKjCB8ZOIY58qdgIhQrgQ-PVF3abqFTht1wUDMOhaGgn5ugQhfr0YlWthi9zmNYFAYwBfQN-ItOLAQSJ1zL8z_LjjRFopXqnD9hfhYF500c3sfUBLEqhh5uSXu4c1OpDH946MOyfvrMRaGebrUyKvP7Ac2pRUZ-LtbkhmjkAGcqqu38ZJYzPMXpJVoB8lHF9TLND_g0pmerXp9zshD6MmitXkMb5Epl3mEW_Vqgf0tQy5KLxaA9hLnIcqAvPI294YhURa8UeeZjTI5iv8DTavTVi_-6ZZBYr-YeckgE3ftdpNlZvm8DlM5oDCo_HkXjWDIxguTBSojPyJj6yHhtl33qolMpHIXfUXNBxKoxU9Fre4rt_hK9eBOEOxmPqe_rHiXTBdUFg5wFLq-SZGj8s28Vtk5jRk90o2LQTENNsWCE_DCnRbGBunsYHyfvRPBA2WAy4POpavQA6yhMB1PhHVm7]--></g></svg>