<svg xmlns="http://www.w3.org/2000/svg" xmlns:xlink="http://www.w3.org/1999/xlink" contentStyleType="text/css" data-diagram-type="SEQUENCE" height="3194.5833px" preserveAspectRatio="none" style="width:2000px;height:3194px;background:#FEFEFE;" version="1.1" viewBox="0 0 2000 3194" width="2000.625px" zoomAndPan="magnify"><title>Condition Variable - Wait / Notify Sequence</title><defs/><g><rect fill="#FEFEFE" height="3194.5833" style="stroke:none;stroke-width:2.2917;" width="2000.625" x="0" y="0"/><text fill="#000000" font-family="'Segoe UI'" font-size="50.4167" font-weight="bold" lengthAdjust="spacing" textLength="1234.9129" x="379.6826" y="104.0896">Condition Variable - Wait / Notify Sequence</text><g><title>Producer</title><rect fill="#E8F5E9" height="1418.2194" style="stroke:#000000;stroke-width:2.2917;" width="22.9167" x="145.0509" y="1592.1712"/></g><g><title>Consumer</title><rect fill="#FFF8E1" height="244.2773" style="stroke:#000000;stroke-width:2.2917;" width="22.9167" x="1234.9051" y="752.5618"/></g><g><title>Consumer</title><rect fill="#FFF8E1" height="1022.0117" style="stroke:#000000;stroke-width:2.2917;" width="22.9167" x="1234.9051" y="1967.7539"/></g><g><title>Producer</title><rect fill="#000000" fill-opacity="0.00000" height="2712.0085" width="18.3333" x="147.3425" y="319.0072"/><line style="stroke:#000000;stroke-width:2.2917;stroke-dasharray:11.4583,11.4583;" x1="155.8333" x2="155.8333" y1="319.0072" y2="3031.0156"/></g><g><title>osal..condvar</title><rect fill="#000000" fill-opacity="0.00000" height="2712.0085" width="18.3333" x="564.4639" y="319.0072"/><line style="stroke:#000000;stroke-width:2.2917;stroke-dasharray:11.4583,11.4583;" x1="573.1673" x2="573.1673" y1="319.0072" y2="3031.0156"/></g><g><title>osal..mutex</title><rect fill="#000000" fill-opacity="0.00000" height="2712.0085" width="18.3333" x="914.0169" y="319.0072"/><line style="stroke:#000000;stroke-width:2.2917;stroke-dasharray:11.4583,11.4583;" x1="922.4272" x2="922.4272" y1="319.0072" y2="3031.0156"/></g><g><title>Consumer</title><rect fill="#000000" fill-opacity="0.00000" height="2712.0085" width="18.3333" x="1237.1968" y="319.0072"/><line style="stroke:#000000;stroke-width:2.2917;stroke-dasharray:11.4583,11.4583;" x1="1244.7734" x2="1244.7734" y1="319.0072" y2="3031.0156"/></g><g class="participant participant-head" data-participant="prod"><rect fill="#E8F5E9" height="152.6107" rx="5.7292" ry="5.7292" style="stroke:#000000;stroke-width:2.2917;" width="221.3517" x="45.8333" y="164.1048"/><text fill="#000000" font-family="'Segoe UI'" font-size="32.0833" lengthAdjust="spacing" textLength="143.4351" x="84.7917" y="232.8436">Producer</text><text fill="#000000" font-family="'Segoe UI'" font-size="32.0833" lengthAdjust="spacing" textLength="112.887" x="100.0657" y="270.1906">Thread</text></g><g class="participant participant-tail" data-participant="prod"><rect fill="#E8F5E9" height="152.6107" rx="5.7292" ry="5.7292" style="stroke:#000000;stroke-width:2.2917;" width="221.3517" x="45.8333" y="3028.724"/><text fill="#000000" font-family="'Segoe UI'" font-size="32.0833" lengthAdjust="spacing" textLength="143.4351" x="84.7917" y="3097.4628">Producer</text><text fill="#000000" font-family="'Segoe UI'" font-size="32.0833" lengthAdjust="spacing" textLength="112.887" x="100.0657" y="3134.8098">Thread</text></g><g class="participant participant-head" data-participant="cv"><rect fill="#E3F2FD" height="115.2637" rx="5.7292" ry="5.7292" style="stroke:#000000;stroke-width:2.2917;" width="294.2598" x="426.5007" y="201.4518"/><text fill="#000000" font-family="'Segoe UI'" font-size="32.0833" lengthAdjust="spacing" textLength="216.3432" x="465.459" y="270.1906">osal::condvar</text></g><g class="participant participant-tail" data-participant="cv"><rect fill="#E3F2FD" height="115.2637" rx="5.7292" ry="5.7292" style="stroke:#000000;stroke-width:2.2917;" width="294.2598" x="426.5007" y="3028.724"/><text fill="#000000" font-family="'Segoe UI'" font-size="32.0833" lengthAdjust="spacing" textLength="216.3432" x="465.459" y="3097.4628">osal::condvar</text></g><g class="participant participant-head" data-participant="mtx"><rect fill="#E3F2FD" height="115.2637" rx="5.7292" ry="5.7292" style="stroke:#000000;stroke-width:2.2917;" width="267.3462" x="789.5105" y="201.4518"/><text fill="#000000" font-family="'Segoe UI'" font-size="32.0833" lengthAdjust="spacing" textLength="189.4295" x="828.4688" y="270.1906">osal::mutex</text></g><g class="participant participant-tail" data-participant="mtx"><rect fill="#E3F2FD" height="115.2637" rx="5.7292" ry="5.7292" style="stroke:#000000;stroke-width:2.2917;" width="267.3462" x="789.5105" y="3028.724"/><text fill="#000000" font-family="'Segoe UI'" font-size="32.0833" lengthAdjust="spacing" textLength="189.4295" x="828.4688" y="3097.4628">osal::mutex</text></g><g class="participant participant-head" data-participant="cons"><rect fill="#FFF8E1" height="152.6107" rx="5.7292" ry="5.7292" style="stroke:#000000;stroke-width:2.2917;" width="241.5135" x="1125.6067" y="164.1048"/><text fill="#000000" font-family="'Segoe UI'" font-size="32.0833" lengthAdjust="spacing" textLength="163.5968" x="1164.565" y="232.8436">Consumer</text><text fill="#000000" font-family="'Segoe UI'" font-size="32.0833" lengthAdjust="spacing" textLength="112.887" x="1189.9199" y="270.1906">Thread</text></g><g class="participant participant-tail" data-participant="cons"><rect fill="#FFF8E1" height="152.6107" rx="5.7292" ry="5.7292" style="stroke:#000000;stroke-width:2.2917;" width="241.5135" x="1125.6067" y="3028.724"/><text fill="#000000" font-family="'Segoe UI'" font-size="32.0833" lengthAdjust="spacing" textLength="163.5968" x="1164.565" y="3097.4628">Consumer</text><text fill="#000000" font-family="'Segoe UI'" font-size="32.0833" lengthAdjust="spacing" textLength="112.887" x="1189.9199" y="3134.8098">Thread</text></g><g><title>Producer</title><rect fill="#E8F5E9" height="1418.2194" style="stroke:#000000;stroke-width:2.2917;" width="22.9167" x="145.0509" y="1592.1712"/></g><g><title>Consumer</title><rect fill="#FFF8E1" height="244.2773" style="stroke:#000000;stroke-width:2.2917;" width="22.9167" x="1234.9051" y="752.5618"/></g><g><title>Consumer</title><rect fill="#FFF8E1" height="1022.0117" style="stroke:#000000;stroke-width:2.2917;" width="22.9167" x="1234.9051" y="1967.7539"/></g><path d="M22.9167,353.3822 L22.9167,495.4655 L1377.2917,495.4655 L1377.2917,376.2988 L1354.375,353.3822 L22.9167,353.3822" fill="#FFFFFF" style="stroke:#000000;stroke-width:2.2917;"/><path d="M1354.375,353.3822 L1354.375,376.2988 L1377.2917,376.2988 L1354.375,353.3822" fill="#FFFFFF" style="stroke:#000000;stroke-width:2.2917;"/><text fill="#000000" font-family="'Segoe UI'" font-size="32.0833" lengthAdjust="spacing" textLength="971.3511" x="204.7595" y="417.5376">Both threads share the same mutex (mtx) and condvar (cv).</text><text fill="#000000" font-family="'Segoe UI'" font-size="32.0833" lengthAdjust="spacing" textLength="755.9165" x="204.7595" y="454.8846">A boolean flag data_ready is protected by mtx.</text><rect fill="#FFFFFF" height="6.875" style="stroke:#FFFFFF;stroke-width:2.2917;" width="1973.6532" x="11.4583" y="579.6663"/><line style="stroke:#000000;stroke-width:1.1458;" x1="11.4583" x2="1985.1115" y1="579.6663" y2="579.6663"/><line style="stroke:#000000;stroke-width:1.1458;" x1="11.4583" x2="1985.1115" y1="586.5413" y2="586.5413"/><rect fill="#FFFFFF" height="101.5137" style="stroke:#000000;stroke-width:2.2917;" width="534.1172" x="731.2263" y="531.2012"/><text fill="#000000" font-family="'Segoe UI'" font-size="32.0833" font-weight="bold" lengthAdjust="spacing" textLength="445.0309" x="767.893" y="593.065">Consumer waits for data</text><g class="message" data-participant-1="cons" data-participant-2="mtx"><polygon fill="#000000" points="948.3919,743.3952,925.4753,752.5618,948.3919,761.7285,939.2253,752.5618" style="stroke:#000000;stroke-width:2.2917;"/><line style="stroke:#000000;stroke-width:2.2917;" x1="934.6419" x2="1232.6134" y1="752.5618" y2="752.5618"/><text fill="#000000" font-family="'Segoe UI'" font-size="32.0833" lengthAdjust="spacing" textLength="89.7957" x="1034.1465" y="717.4953">lock()</text></g><path d="M1267.2917,782.3535 L1267.2917,887.7702 L1672.9167,887.7702 L1672.9167,805.2702 L1650,782.3535 L1267.2917,782.3535" fill="#FFFFFF" style="stroke:#000000;stroke-width:2.2917;"/><path d="M1650,782.3535 L1650,805.2702 L1672.9167,805.2702 L1650,782.3535" fill="#FFFFFF" style="stroke:#000000;stroke-width:2.2917;"/><text fill="#000000" font-family="'Segoe UI'" font-size="32.0833" lengthAdjust="spacing" textLength="312.4835" x="1303.9583" y="846.509">while (!data_ready)</text><g class="message" data-participant-1="cons" data-participant-2="cv"><polygon fill="#000000" points="598.8389,987.6725,575.9222,996.8392,598.8389,1006.0059,589.6722,996.8392" style="stroke:#000000;stroke-width:2.2917;"/><line style="stroke:#000000;stroke-width:2.2917;" x1="585.0889" x2="1244.0718" y1="996.8392" y2="996.8392"/><text fill="#000000" font-family="'Segoe UI'" font-size="32.0833" lengthAdjust="spacing" textLength="155.247" x="832.3735" y="961.7727">wait(mtx)</text></g><path d="M584.375,1026.6309 L584.375,1205.3809 L912.0833,1205.3809 L912.0833,1049.5475 L889.1667,1026.6309 L584.375,1026.6309" fill="#FFFFFF" style="stroke:#000000;stroke-width:2.2917;"/><path d="M889.1667,1026.6309 L889.1667,1049.5475 L912.0833,1049.5475 L889.1667,1026.6309" fill="#FFFFFF" style="stroke:#000000;stroke-width:2.2917;"/><text fill="#000000" font-family="'Segoe UI'" font-size="32.0833" lengthAdjust="spacing" textLength="179.2468" x="621.0417" y="1090.7863">Atomically:</text><text fill="#000000" font-family="'Segoe UI'" font-size="32.0833" lengthAdjust="spacing" textLength="234.0924" x="621.0417" y="1128.1333">1. unlock(mtx)</text><text fill="#000000" font-family="'Segoe UI'" font-size="32.0833" lengthAdjust="spacing" textLength="223.2674" x="621.0417" y="1165.4803">2. sleep on cv</text><path d="M1136.6667,1230.3385 L1136.6667,1335.7552 L1354.375,1335.7552 L1354.375,1253.2552 L1331.4583,1230.3385 L1136.6667,1230.3385" fill="#FFFFFF" style="stroke:#000000;stroke-width:2.2917;"/><path d="M1331.4583,1230.3385 L1331.4583,1253.2552 L1354.375,1253.2552 L1331.4583,1230.3385" fill="#FFFFFF" style="stroke:#000000;stroke-width:2.2917;"/><text fill="#000000" font-family="'Segoe UI'" font-size="32.0833" lengthAdjust="spacing" textLength="125.2315" x="1173.3333" y="1294.494">blocked</text><rect fill="#FFFFFF" height="6.875" style="stroke:#FFFFFF;stroke-width:2.2917;" width="1973.6532" x="11.4583" y="1419.2757"/><line style="stroke:#000000;stroke-width:1.1458;" x1="11.4583" x2="1985.1115" y1="1419.2757" y2="1419.2757"/><line style="stroke:#000000;stroke-width:1.1458;" x1="11.4583" x2="1985.1115" y1="1426.1507" y2="1426.1507"/><rect fill="#FFFFFF" height="101.5137" style="stroke:#000000;stroke-width:2.2917;" width="391.6848" x="802.4425" y="1370.8105"/><text fill="#000000" font-family="'Segoe UI'" font-size="32.0833" font-weight="bold" lengthAdjust="spacing" textLength="302.5985" x="839.1092" y="1432.6744">Producer signals</text><g class="message" data-participant-1="prod" data-participant-2="mtx"><polygon fill="#000000" points="895.6836,1583.0046,918.6003,1592.1712,895.6836,1601.3379,904.8503,1592.1712" style="stroke:#000000;stroke-width:2.2917;"/><line style="stroke:#000000;stroke-width:2.2917;" x1="167.9675" x2="909.4336" y1="1592.1712" y2="1592.1712"/><text fill="#000000" font-family="'Segoe UI'" font-size="32.0833" lengthAdjust="spacing" textLength="89.7957" x="500.6777" y="1557.1047">lock()</text></g><g class="message" data-participant-1="prod" data-participant-2="prod"><line style="stroke:#000000;stroke-width:2.2917;" x1="167.9675" x2="264.2175" y1="1707.4349" y2="1707.4349"/><line style="stroke:#000000;stroke-width:2.2917;" x1="264.2175" x2="264.2175" y1="1707.4349" y2="1737.2266"/><line style="stroke:#000000;stroke-width:2.2917;" x1="170.2592" x2="264.2175" y1="1737.2266" y2="1737.2266"/><polygon fill="#000000" points="193.1759,1728.0599,170.2592,1737.2266,193.1759,1746.3932,184.0092,1737.2266" style="stroke:#000000;stroke-width:2.2917;"/><text fill="#000000" font-family="'Segoe UI'" font-size="32.0833" lengthAdjust="spacing" textLength="293.3714" x="206.9259" y="1672.3684">data_ready = true</text></g><g class="message" data-participant-1="prod" data-participant-2="mtx"><polygon fill="#000000" points="895.6836,1843.3236,918.6003,1852.4902,895.6836,1861.6569,904.8503,1852.4902" style="stroke:#000000;stroke-width:2.2917;"/><line style="stroke:#000000;stroke-width:2.2917;" x1="167.9675" x2="909.4336" y1="1852.4902" y2="1852.4902"/><text fill="#000000" font-family="'Segoe UI'" font-size="32.0833" lengthAdjust="spacing" textLength="130.4639" x="480.3436" y="1817.4237">unlock()</text></g><g class="message" data-participant-1="prod" data-participant-2="cv"><polygon fill="#000000" points="546.1306,1958.5872,569.0472,1967.7539,546.1306,1976.9206,555.2972,1967.7539" style="stroke:#000000;stroke-width:2.2917;"/><line style="stroke:#000000;stroke-width:2.2917;" x1="167.9675" x2="559.8806" y1="1967.7539" y2="1967.7539"/><text fill="#000000" font-family="'Segoe UI'" font-size="32.0833" lengthAdjust="spacing" textLength="192.5157" x="274.5412" y="1932.6874">notify_one()</text></g><path d="M43.5417,1997.5456 L43.5417,2139.6289 L559.1667,2139.6289 L559.1667,2020.4622 L536.25,1997.5456 L43.5417,1997.5456" fill="#FFFFFF" style="stroke:#000000;stroke-width:2.2917;"/><path d="M536.25,1997.5456 L536.25,2020.4622 L559.1667,2020.4622 L536.25,1997.5456" fill="#FFFFFF" style="stroke:#000000;stroke-width:2.2917;"/><text fill="#000000" font-family="'Segoe UI'" font-size="32.0833" lengthAdjust="spacing" textLength="280.9328" x="80.2083" y="2061.701">Wake one waiter:</text><text fill="#000000" font-family="'Segoe UI'" font-size="32.0833" lengthAdjust="spacing" textLength="422.7856" x="80.2083" y="2099.0481">consumer thread resumes</text><rect fill="#FFFFFF" height="6.875" style="stroke:#FFFFFF;stroke-width:2.2917;" width="1973.6532" x="11.4583" y="2223.8298"/><line style="stroke:#000000;stroke-width:1.1458;" x1="11.4583" x2="1985.1115" y1="2223.8298" y2="2223.8298"/><line style="stroke:#000000;stroke-width:1.1458;" x1="11.4583" x2="1985.1115" y1="2230.7048" y2="2230.7048"/><rect fill="#FFFFFF" height="101.5137" style="stroke:#000000;stroke-width:2.2917;" width="435.439" x="780.5654" y="2175.3646"/><text fill="#000000" font-family="'Segoe UI'" font-size="32.0833" font-weight="bold" lengthAdjust="spacing" textLength="346.3527" x="817.2321" y="2237.2284">Consumer resumes</text><path d="M584.375,2311.2533 L584.375,2490.0033 L914.375,2490.0033 L914.375,2334.1699 L891.4583,2311.2533 L584.375,2311.2533" fill="#FFFFFF" style="stroke:#000000;stroke-width:2.2917;"/><path d="M891.4583,2311.2533 L891.4583,2334.1699 L914.375,2334.1699 L891.4583,2311.2533" fill="#FFFFFF" style="stroke:#000000;stroke-width:2.2917;"/><text fill="#000000" font-family="'Segoe UI'" font-size="32.0833" lengthAdjust="spacing" textLength="179.2468" x="621.0417" y="2375.4087">Atomically:</text><text fill="#000000" font-family="'Segoe UI'" font-size="32.0833" lengthAdjust="spacing" textLength="175.9257" x="621.0417" y="2412.7557">1. wake up</text><text fill="#000000" font-family="'Segoe UI'" font-size="32.0833" lengthAdjust="spacing" textLength="237.9305" x="621.0417" y="2450.1027">2. re-lock(mtx)</text><g class="message" data-participant-1="cv" data-participant-2="cons"><polygon fill="#000000" points="1207.4051,2591.2663,1230.3218,2600.4329,1207.4051,2609.5996,1216.5718,2600.4329" style="stroke:#000000;stroke-width:2.2917;"/><line style="stroke:#000000;stroke-width:2.2917;stroke-dasharray:4.5833,4.5833;" x1="573.6306" x2="1221.1551" y1="2600.4329" y2="2600.4329"/><text fill="#000000" font-family="'Segoe UI'" font-size="32.0833" lengthAdjust="spacing" textLength="218.7087" x="794.9135" y="2565.3664">wait() returns</text></g><path d="M1267.2917,2630.2246 L1267.2917,2735.6413 L1973.125,2735.6413 L1973.125,2653.1413 L1950.2083,2630.2246 L1267.2917,2630.2246" fill="#FFFFFF" style="stroke:#000000;stroke-width:2.2917;"/><path d="M1950.2083,2630.2246 L1950.2083,2653.1413 L1973.125,2653.1413 L1950.2083,2630.2246" fill="#FFFFFF" style="stroke:#000000;stroke-width:2.2917;"/><text fill="#000000" font-family="'Segoe UI'" font-size="32.0833" lengthAdjust="spacing" textLength="612.4032" x="1303.9583" y="2694.3801">data_ready == true -&gt; exit while loop</text><g class="message" data-participant-1="cons" data-participant-2="cons"><line style="stroke:#000000;stroke-width:2.2917;" x1="1257.8218" x2="1354.0718" y1="2844.7103" y2="2844.7103"/><line style="stroke:#000000;stroke-width:2.2917;" x1="1354.0718" x2="1354.0718" y1="2844.7103" y2="2874.502"/><line style="stroke:#000000;stroke-width:2.2917;" x1="1260.1134" x2="1354.0718" y1="2874.502" y2="2874.502"/><polygon fill="#000000" points="1283.0301,2865.3353,1260.1134,2874.502,1283.0301,2883.6686,1273.8634,2874.502" style="stroke:#000000;stroke-width:2.2917;"/><text fill="#000000" font-family="'Segoe UI'" font-size="32.0833" lengthAdjust="spacing" textLength="206.4581" x="1296.7801" y="2809.6438">process data</text></g><g class="message" data-participant-1="cons" data-participant-2="mtx"><polygon fill="#000000" points="948.3919,2980.599,925.4753,2989.7656,948.3919,2998.9323,939.2253,2989.7656" style="stroke:#000000;stroke-width:2.2917;"/><line style="stroke:#000000;stroke-width:2.2917;" x1="934.6419" x2="1244.0718" y1="2989.7656" y2="2989.7656"/><text fill="#000000" font-family="'Segoe UI'" font-size="32.0833" lengthAdjust="spacing" textLength="130.4639" x="1019.5416" y="2954.6991">unlock()</text></g><!--SRC=[ZLHTQnin47pNhzWuBpRKFf9II4rTI5CR2crQIDky5CnQshjJh9EkaiwE_tttvFCd2HG_73hDxixCZkyYbbGHr0Qr5HVQIjCeWgnq5MLF2pHghMtsmxidaZ5abPR- -yFjrqmv6JAbiV1OXMpkoIhoyzgxN1lYfxPnL3UL4M6fROsCWWNAPU5TOzMTCyx3vMpQ_euGYd9iJ9mv6- -HIVKUg704lxxqZa21_ZPa9NsZ4B2WMwCB2v9i92z4rD4Gt3chTDJEmc_q6XVyQWYFg2DaSE-YpZVmq7KHWhj6BNMDDaAFXQf6alzZVvQUKFK00x0g1PVJczcxwVjJk0jencF9urRe4rQk6FbsTZtx_1AoQY8z9rmLdry6ClVGL6SCU49WlsQpc-cL4DP50hSYdvYzIRS2u9EB9SHK522Kw8bF1A5rCWs6FayT05e57MNeozLWnBMti73E45h83HQWCEAyRRG1dVH7tZufM6nQuYF1suQMXH2J2UmOmveT3f3pQjjwc4o4ICI77vFSCHWdb_s1G1dr2bd3YQoaokkYZE3oxTKOrYN72VeN1qA3GrFsUfo69btd3LQjhEWuiMZCPiodgn4qDd58U83h4GH3L0CdXV5xLOfEA1uPtj5Qj5r89Vcxo43W8A89INUApAkwJmFLGTDpV6pz1A9lwAnNfs2mVvrSi2dLSsUftnbXA3_uy8XB5c0fkKM-DKFkjhPD37XgZ-6LrNQtITj_hUz5zzSjZQRUEkzfUDZ5Vchg-M4uF5hkWA6nyRizd4VasB2jOwqhzCp_zcrwZ7Fr8JFR8ZPFylSZ5P-5T6_mUGh-0G00]--></g></svg>