<svg xmlns="http://www.w3.org/2000/svg" xmlns:xlink="http://www.w3.org/1999/xlink" contentStyleType="text/css" data-diagram-type="DESCRIPTION" height="491.4171px" preserveAspectRatio="none" style="width:2250px;height:491px;background:#FEFEFE;" version="1.1" viewBox="0 0 2250 491" width="2250.5478px" zoomAndPan="magnify"><title>**MicrOSAL &#8212; Backend Map &amp; Native Support**</title><defs/><g><rect fill="#FEFEFE" height="491.4171" style="stroke:none;stroke-width:0.5478;" width="2250.5478" x="0" y="0"/><g class="title" data-source-line="8"><text fill="#000000" font-family="'Segoe UI'" font-size="12.0526" font-weight="bold" lengthAdjust="spacing" textLength="298.1487" x="973.7343" y="23.7879">MicrOSAL &#8212; Backend Map &amp; Native Support</text></g><g class="legend" data-source-line="13"><rect fill="none" height="87.2101" rx="4.1088" ry="4.1088" style="stroke:#000000;stroke-width:0.5478;" width="164.9972" x="5.4785" y="39.7787"/><text fill="#000000" font-family="'Segoe UI'" font-size="7.6698" font-weight="bold" lengthAdjust="spacing" textLength="22.5788" x="19.6534" y="59.4984">Color</text><text fill="#000000" font-family="'Segoe UI'" font-size="7.6698" font-weight="bold" lengthAdjust="spacing" textLength="37.0496" x="56.3382" y="59.4984">Meaning</text><rect fill="#C8E6C9" height="17.6937" style="stroke:none;stroke-width:0.5478;" width="36.6848" x="12.6004" y="65.6901"/><text fill="#000000" font-family="'Segoe UI'" font-size="7.6698" lengthAdjust="spacing" textLength="2.438" x="16.9832" y="77.1921">&#160;</text><text fill="#000000" font-family="'Segoe UI'" font-size="7.6698" lengthAdjust="spacing" textLength="100.4269" x="56.106" y="77.1921">Full-featured / desktop OS</text><rect fill="#BBDEFB" height="17.6937" style="stroke:none;stroke-width:0.5478;" width="36.6848" x="12.6004" y="83.3837"/><text fill="#000000" font-family="'Segoe UI'" font-size="7.6698" lengthAdjust="spacing" textLength="2.438" x="16.9832" y="94.8858">&#160;</text><text fill="#000000" font-family="'Segoe UI'" font-size="7.6698" lengthAdjust="spacing" textLength="92.7795" x="56.106" y="94.8858">Real-time kernel (RTOS)</text><rect fill="#FFE0B2" height="17.6937" style="stroke:none;stroke-width:0.5478;" width="36.6848" x="12.6004" y="101.0774"/><text fill="#000000" font-family="'Segoe UI'" font-size="7.6698" lengthAdjust="spacing" textLength="2.438" x="16.9832" y="112.5795">&#160;</text><text fill="#000000" font-family="'Segoe UI'" font-size="7.6698" lengthAdjust="spacing" textLength="82.9413" x="56.106" y="112.5795">Minimal / cooperative</text><line style="stroke:#000000;stroke-width:0.5478;" x1="12.6004" x2="163.3536" y1="47.9964" y2="47.9964"/><line style="stroke:#000000;stroke-width:0.5478;" x1="12.6004" x2="163.3536" y1="65.6901" y2="65.6901"/><line style="stroke:#000000;stroke-width:0.5478;" x1="12.6004" x2="163.3536" y1="83.3837" y2="83.3837"/><line style="stroke:#000000;stroke-width:0.5478;" x1="12.6004" x2="163.3536" y1="101.0774" y2="101.0774"/><line style="stroke:#000000;stroke-width:0.5478;" x1="12.6004" x2="163.3536" y1="118.7711" y2="118.7711"/><line style="stroke:#000000;stroke-width:0.5478;" x1="12.6004" x2="12.6004" y1="47.9964" y2="118.7711"/><line style="stroke:#000000;stroke-width:0.5478;" x1="49.2852" x2="49.2852" y1="47.9964" y2="118.7711"/><line style="stroke:#000000;stroke-width:0.5478;" x1="163.3536" x2="163.3536" y1="47.9964" y2="118.7711"/></g><!--cluster posix_fam--><g class="cluster" data-entity="posix_fam" data-source-line="23" data-uid="ent0002" id="cluster_posix_fam"><path d="M7.3959,164.8285 L70.8266,164.8285 A2.0544,2.0544 0 0 1 72.1963,166.1981 L76.0312,185.1715 L335.5551,185.1715 A1.3696,1.3696 0 0 1 336.9248,186.5411 L336.9248,342.8781 A1.3696,1.3696 0 0 1 335.5551,344.2477 L7.3959,344.2477 A1.3696,1.3696 0 0 1 6.0263,342.8781 L6.0263,166.1981 A1.3696,1.3696 0 0 1 7.3959,164.8285" fill="#C8E6C9" style="stroke:#666666;stroke-width:0.5478;"/><line style="stroke:#666666;stroke-width:0.5478;" x1="6.0263" x2="76.0312" y1="185.1715" y2="185.1715"/><text fill="#000000" font-family="'Segoe UI'" font-size="7.122" font-weight="bold" lengthAdjust="spacing" textLength="54.1174" x="12.6004" y="176.9177">POSIX-Family</text></g><!--cluster commercial--><g class="cluster" data-entity="commercial" data-source-line="48" data-uid="ent0010" id="cluster_commercial"><path d="M806.1541,169.2112 L886.6874,169.2112 A2.0544,2.0544 0 0 1 888.057,170.5808 L891.8919,189.5542 L1149.1052,189.5542 A1.3696,1.3696 0 0 1 1150.4748,190.9239 L1150.4748,338.4954 A1.3696,1.3696 0 0 1 1149.1052,339.865 L806.1541,339.865 A1.3696,1.3696 0 0 1 804.7845,338.4954 L804.7845,170.5808 A1.3696,1.3696 0 0 1 806.1541,169.2112" fill="#BBDEFB" style="stroke:#666666;stroke-width:0.5478;"/><line style="stroke:#666666;stroke-width:0.5478;" x1="804.7845" x2="891.8919" y1="189.5542" y2="189.5542"/><text fill="#000000" font-family="'Segoe UI'" font-size="7.122" font-weight="bold" lengthAdjust="spacing" textLength="71.2199" x="811.3587" y="181.3005">Commercial RTOS</text></g><!--cluster specialty--><g class="cluster" data-entity="specialty" data-source-line="59" data-uid="ent0016" id="cluster_specialty"><path d="M31.5011,361.7788 L101.8347,361.7788 A2.0544,2.0544 0 0 1 103.2043,363.1484 L107.0393,382.1218 L172.8451,382.1218 A1.3696,1.3696 0 0 1 174.2148,383.4914 L174.2148,486.4136 A1.3696,1.3696 0 0 1 172.8451,487.7832 L31.5011,487.7832 A1.3696,1.3696 0 0 1 30.1315,486.4136 L30.1315,363.1484 A1.3696,1.3696 0 0 1 31.5011,361.7788" fill="#BBDEFB" style="stroke:#666666;stroke-width:0.5478;"/><line style="stroke:#666666;stroke-width:0.5478;" x1="30.1315" x2="107.0393" y1="382.1218" y2="382.1218"/><text fill="#000000" font-family="'Segoe UI'" font-size="7.122" font-weight="bold" lengthAdjust="spacing" textLength="61.0203" x="36.7056" y="373.868">Specialty RTOS</text></g><!--cluster cmsis_fam--><g class="cluster" data-entity="cmsis_fam" data-source-line="68" data-uid="ent0020" id="cluster_cmsis_fam"><path d="M1533.1446,169.2112 L1588.2432,169.2112 A2.0544,2.0544 0 0 1 1589.6128,170.5808 L1593.4477,189.5542 L1722.1512,189.5542 A1.3696,1.3696 0 0 1 1723.5208,190.9239 L1723.5208,240.1572 A1.3696,1.3696 0 0 1 1722.1512,241.5268 L1533.1446,241.5268 A1.3696,1.3696 0 0 1 1531.775,240.1572 L1531.775,170.5808 A1.3696,1.3696 0 0 1 1533.1446,169.2112" fill="#BBDEFB" style="stroke:#666666;stroke-width:0.5478;"/><line style="stroke:#666666;stroke-width:0.5478;" x1="1531.775" x2="1593.4477" y1="189.5542" y2="189.5542"/><text fill="#000000" font-family="'Segoe UI'" font-size="7.122" font-weight="bold" lengthAdjust="spacing" textLength="45.7852" x="1538.3492" y="181.3005">ARM CMSIS</text></g><!--cluster noos--><g class="cluster" data-entity="noos" data-source-line="76" data-uid="ent0023" id="cluster_noos"><path d="M2119.8868,169.2112 L2154.1932,169.2112 A2.0544,2.0544 0 0 1 2155.5628,170.5808 L2159.3977,189.5542 L2245.3433,189.5542 A1.3696,1.3696 0 0 1 2246.7129,190.9239 L2246.7129,240.1572 A1.3696,1.3696 0 0 1 2245.3433,241.5268 L2119.8868,241.5268 A1.3696,1.3696 0 0 1 2118.5172,240.1572 L2118.5172,170.5808 A1.3696,1.3696 0 0 1 2119.8868,169.2112" fill="#FFE0B2" style="stroke:#666666;stroke-width:0.5478;"/><line style="stroke:#666666;stroke-width:0.5478;" x1="2118.5172" x2="2159.3977" y1="189.5542" y2="189.5542"/><text fill="#000000" font-family="'Segoe UI'" font-size="7.122" font-weight="bold" lengthAdjust="spacing" textLength="24.993" x="2125.0913" y="181.3005">No-OS</text></g><!--entity be_po--><g class="entity" data-entity="be_po" data-source-line="24" data-uid="ent0003" id="entity_be_po"><rect fill="#FFFFFF" height="36.3033" rx="1.3696" ry="1.3696" style="stroke:#000000;stroke-width:0.5478;" width="82.5614" x="26.0226" y="196.6035"/><text fill="#000000" font-family="'Segoe UI'" font-size="7.122" lengthAdjust="spacing" textLength="21.4007" x="35.8839" y="213.0755">POSIX</text><text fill="#000000" font-family="'Segoe UI'" font-size="7.122" lengthAdjust="spacing" textLength="62.839" x="35.8839" y="221.3659">(any POSIX:2008)</text></g><!--entity be_li--><g class="entity" data-entity="be_li" data-source-line="25" data-uid="ent0004" id="entity_be_li"><rect fill="#FFFFFF" height="36.3033" rx="1.3696" ry="1.3696" style="stroke:#000000;stroke-width:0.5478;" width="106.0765" x="217.4945" y="196.6035"/><text fill="#000000" font-family="'Segoe UI'" font-size="7.122" lengthAdjust="spacing" textLength="19.189" x="227.3557" y="213.0755">Linux</text><text fill="#000000" font-family="'Segoe UI'" font-size="7.122" lengthAdjust="spacing" textLength="86.3541" x="227.3557" y="221.3659">(&#8805; 4.11, extends POSIX)</text></g><!--entity be_qx--><g class="entity" data-entity="be_qx" data-source-line="26" data-uid="ent0005" id="entity_be_qx"><rect fill="#FFFFFF" height="36.3033" rx="1.3696" ry="1.3696" style="stroke:#000000;stroke-width:0.5478;" width="77.7624" x="124.3608" y="196.6035"/><text fill="#000000" font-family="'Segoe UI'" font-size="7.122" lengthAdjust="spacing" textLength="15.8123" x="134.2221" y="213.0755">QNX</text><text fill="#000000" font-family="'Segoe UI'" font-size="7.122" lengthAdjust="spacing" textLength="58.04" x="134.2221" y="221.3659">(Neutrino RTOS)</text></g><!--entity be_nx--><g class="entity" data-entity="be_nx" data-source-line="27" data-uid="ent0006" id="entity_be_nx"><rect fill="#FFFFFF" height="36.3033" rx="1.3696" ry="1.3696" style="stroke:#000000;stroke-width:0.5478;" width="73.6694" x="30.6793" y="294.9417"/><text fill="#000000" font-family="'Segoe UI'" font-size="7.122" lengthAdjust="spacing" textLength="20.3053" x="40.5405" y="311.4137">NuttX</text><text fill="#000000" font-family="'Segoe UI'" font-size="7.122" lengthAdjust="spacing" textLength="53.947" x="40.5405" y="319.7041">(Apache, &#8805; 12)</text></g><!--entity be_fr--><g class="entity" data-entity="be_fr" data-source-line="49" data-uid="ent0011" id="entity_be_fr"><rect fill="#FFFFFF" height="36.3033" rx="1.3696" ry="1.3696" style="stroke:#000000;stroke-width:0.5478;" width="80.8957" x="1000.3652" y="196.6035"/><text fill="#000000" font-family="'Segoe UI'" font-size="7.122" lengthAdjust="spacing" textLength="35.2135" x="1010.2264" y="213.0755">FreeRTOS</text><text fill="#000000" font-family="'Segoe UI'" font-size="7.122" lengthAdjust="spacing" textLength="61.1733" x="1010.2264" y="221.3659">(all chip families)</text></g><!--entity be_zy--><g class="entity" data-entity="be_zy" data-source-line="50" data-uid="ent0012" id="entity_be_zy"><rect fill="#FFFFFF" height="36.3033" rx="1.3696" ry="1.3696" style="stroke:#000000;stroke-width:0.5478;" width="45.1606" x="1096.786" y="196.6035"/><text fill="#000000" font-family="'Segoe UI'" font-size="7.122" lengthAdjust="spacing" textLength="25.4382" x="1106.6472" y="213.0755">Zephyr</text><text fill="#000000" font-family="'Segoe UI'" font-size="7.122" lengthAdjust="spacing" textLength="25.1147" x="1106.6472" y="221.3659">(&#8805; 3.0)</text></g><!--entity be_tx--><g class="entity" data-entity="be_tx" data-source-line="51" data-uid="ent0013" id="entity_be_tx"><rect fill="#FFFFFF" height="36.3033" rx="1.3696" ry="1.3696" style="stroke:#000000;stroke-width:0.5478;" width="67.4029" x="813.824" y="196.6035"/><text fill="#000000" font-family="'Segoe UI'" font-size="7.122" lengthAdjust="spacing" textLength="29.9381" x="823.6852" y="213.0755">ThreadX</text><text fill="#000000" font-family="'Segoe UI'" font-size="7.122" lengthAdjust="spacing" textLength="47.6805" x="823.6852" y="221.3659">(Azure RTOS)</text></g><!--entity be_px--><g class="entity" data-entity="be_px" data-source-line="52" data-uid="ent0014" id="entity_be_px"><rect fill="#FFFFFF" height="36.3033" rx="1.3696" ry="1.3696" style="stroke:#000000;stroke-width:0.5478;" width="88.4211" x="896.5486" y="196.6035"/><text fill="#000000" font-family="'Segoe UI'" font-size="7.122" lengthAdjust="spacing" textLength="13.705" x="906.4098" y="213.0755">PX5</text><text fill="#000000" font-family="'Segoe UI'" font-size="7.122" lengthAdjust="spacing" textLength="68.6987" x="906.4098" y="221.3659">(ThreadX superset)</text></g><!--entity be_vx--><g class="entity" data-entity="be_vx" data-source-line="53" data-uid="ent0015" id="entity_be_vx"><rect fill="#FFFFFF" height="36.3033" rx="1.3696" ry="1.3696" style="stroke:#000000;stroke-width:0.5478;" width="70.8456" x="813.824" y="294.9417"/><text fill="#000000" font-family="'Segoe UI'" font-size="7.122" lengthAdjust="spacing" textLength="31.2491" x="823.6852" y="311.4137">VxWorks</text><text fill="#000000" font-family="'Segoe UI'" font-size="7.122" lengthAdjust="spacing" textLength="51.1232" x="823.6852" y="319.7041">(Wind River 7)</text></g><!--entity be_mi--><g class="entity" data-entity="be_mi" data-source-line="60" data-uid="ent0017" id="entity_be_mi"><rect fill="#FFFFFF" height="36.3033" rx="1.3696" ry="1.3696" style="stroke:#000000;stroke-width:0.5478;" width="56.1809" x="39.1709" y="389.171"/><text fill="#000000" font-family="'Segoe UI'" font-size="7.122" lengthAdjust="spacing" textLength="28.3975" x="49.0321" y="405.643">Micrium</text><text fill="#000000" font-family="'Segoe UI'" font-size="7.122" lengthAdjust="spacing" textLength="36.4585" x="49.0321" y="413.9335">(&#181;C/OS-III)</text></g><!--entity be_ch--><g class="entity" data-entity="be_ch" data-source-line="61" data-uid="ent0018" id="entity_be_ch"><rect fill="#FFFFFF" height="36.3033" rx="1.3696" ry="1.3696" style="stroke:#000000;stroke-width:0.5478;" width="54.1361" x="110.9386" y="389.171"/><text fill="#000000" font-family="'Segoe UI'" font-size="7.122" lengthAdjust="spacing" textLength="28.0915" x="120.7999" y="405.643">ChibiOS</text><text fill="#000000" font-family="'Segoe UI'" font-size="7.122" lengthAdjust="spacing" textLength="34.4137" x="120.7999" y="413.9335">(RT &#8805; 21)</text></g><!--entity be_em--><g class="entity" data-entity="be_em" data-source-line="62" data-uid="ent0019" id="entity_be_em"><rect fill="#FFFFFF" height="36.3033" rx="1.3696" ry="1.3696" style="stroke:#000000;stroke-width:0.5478;" width="54.7864" x="39.9927" y="442.8599"/><text fill="#000000" font-family="'Segoe UI'" font-size="7.122" lengthAdjust="spacing" textLength="25.9667" x="49.8539" y="459.3319">embOS</text><text fill="#000000" font-family="'Segoe UI'" font-size="7.122" lengthAdjust="spacing" textLength="35.064" x="49.8539" y="467.6223">(SEGGER)</text></g><!--entity be_c1--><g class="entity" data-entity="be_c1" data-source-line="69" data-uid="ent0021" id="entity_be_c1"><rect fill="#FFFFFF" height="36.3033" rx="1.3696" ry="1.3696" style="stroke:#000000;stroke-width:0.5478;" width="77.213" x="1540.8145" y="196.6035"/><text fill="#000000" font-family="'Segoe UI'" font-size="7.122" lengthAdjust="spacing" textLength="44.2551" x="1550.6757" y="213.0755">CMSIS-RTOS</text><text fill="#000000" font-family="'Segoe UI'" font-size="7.122" lengthAdjust="spacing" textLength="57.4906" x="1550.6757" y="221.3659">(v1, cmsis_os.h)</text></g><!--entity be_c2--><g class="entity" data-entity="be_c2" data-source-line="70" data-uid="ent0022" id="entity_be_c2"><rect fill="#FFFFFF" height="36.3033" rx="1.3696" ry="1.3696" style="stroke:#000000;stroke-width:0.5478;" width="81.7442" x="1633.4003" y="196.6035"/><text fill="#000000" font-family="'Segoe UI'" font-size="7.122" lengthAdjust="spacing" textLength="48.7863" x="1643.2615" y="213.0755">CMSIS-RTOS2</text><text fill="#000000" font-family="'Segoe UI'" font-size="7.122" lengthAdjust="spacing" textLength="62.0218" x="1643.2615" y="221.3659">(v2, cmsis_os2.h)</text></g><!--entity be_bm--><g class="entity" data-entity="be_bm" data-source-line="77" data-uid="ent0024" id="entity_be_bm"><rect fill="#FFFFFF" height="36.3033" rx="1.3696" ry="1.3696" style="stroke:#000000;stroke-width:0.5478;" width="111.2372" x="2127.0088" y="196.6035"/><text fill="#000000" font-family="'Segoe UI'" font-size="7.122" lengthAdjust="spacing" textLength="39.5848" x="2136.87" y="213.0755">Bare-metal</text><text fill="#000000" font-family="'Segoe UI'" font-size="7.122" lengthAdjust="spacing" textLength="91.5147" x="2136.87" y="221.3659">(cooperative, single-core)</text></g><g class="entity" data-entity="GMN7" data-source-line="31" data-uid="ent0008" id="entity_GMN7"><path d="M350.073,157.7065 L350.073,271.4357 L548.466,271.4357 L548.466,163.1849 L542.9876,157.7065 L350.073,157.7065" fill="#FFFFFF" style="stroke:#000000;stroke-width:0.5478;"/><path d="M542.9876,157.7065 L542.9876,163.1849 L548.466,163.1849 L542.9876,157.7065" fill="#FFFFFF" style="stroke:#000000;stroke-width:0.5478;"/><text fill="#000000" font-family="'Segoe UI'" font-size="7.122" lengthAdjust="spacing" textLength="109.5005" x="357.7429" y="171.4392">Shared implementation files in</text><text fill="#000000" font-family="'Segoe UI'" font-size="7.122" lengthAdjust="spacing" textLength="77.076" x="357.7429" y="179.7297">`src/common/posix/`:</text><text fill="#000000" font-family="'Segoe UI'" font-size="7.122" lengthAdjust="spacing" textLength="2.2639" x="357.7429" y="188.0201">&#160;</text><text fill="#000000" font-family="'Segoe UI'" font-size="7.122" lengthAdjust="spacing" textLength="132.567" x="357.7429" y="196.3106">&#8226; `posix_clock.inl`   &#8212; all 4 backends</text><text fill="#000000" font-family="'Segoe UI'" font-size="7.122" lengthAdjust="spacing" textLength="135.1404" x="357.7429" y="204.601">&#8226; `posix_rwlock.inl`  &#8212; all 4 backends</text><text fill="#000000" font-family="'Segoe UI'" font-size="7.122" lengthAdjust="spacing" textLength="152.5872" x="357.7429" y="212.8914">&#8226; `posix_condvar.inl` &#8212; POSIX, Linux, QNX</text><text fill="#000000" font-family="'Segoe UI'" font-size="7.122" lengthAdjust="spacing" textLength="178.1227" x="357.7429" y="221.1819">&#8226; `posix_pthread_work_queue.inl` &#8212; POSIX, Linux</text><text fill="#000000" font-family="'Segoe UI'" font-size="7.122" lengthAdjust="spacing" textLength="2.2639" x="357.7429" y="229.4723">&#160;</text><text fill="#000000" font-family="'Segoe UI'" font-size="7.122" lengthAdjust="spacing" textLength="62.0809" x="357.7429" y="237.7627">Tick-width guard:</text><text fill="#000000" font-family="'Segoe UI'" font-size="7.122" lengthAdjust="spacing" textLength="112.8946" x="357.7429" y="246.0532">`OSAL_CFG_NATIVE_TICK_BITS`</text><text fill="#000000" font-family="'Segoe UI'" font-size="7.122" lengthAdjust="spacing" textLength="104.6876" x="357.7429" y="254.3436">enforces `sizeof(osal::tick_t)`</text><text fill="#000000" font-family="'Segoe UI'" font-size="7.122" lengthAdjust="spacing" textLength="133.7876" x="357.7429" y="262.6341">&lt;= native tick width at compile time.</text></g><g class="entity" data-entity="GMN25" data-source-line="85" data-uid="ent0026" id="entity_GMN25"><path d="M563.7327,186.7423 L563.7327,242.4384 L796.275,242.4384 L796.275,192.2207 L790.7965,186.7423 L563.7327,186.7423" fill="#FFFFFF" style="stroke:#000000;stroke-width:0.5478;"/><path d="M790.7965,186.7423 L790.7965,192.2207 L796.275,192.2207 L790.7965,186.7423" fill="#FFFFFF" style="stroke:#000000;stroke-width:0.5478;"/><text fill="#000000" font-family="'Segoe UI'" font-size="7.122" font-weight="bold" lengthAdjust="spacing" textLength="63.6562" x="571.4025" y="200.475">Native condvar:</text><text fill="#000000" font-family="'Segoe UI'" font-size="7.122" lengthAdjust="spacing" textLength="146.352" x="637.3226" y="200.475">&#10003; (pthread_cond_t, CLOCK_MONOTONIC)</text><text fill="#000000" font-family="'Segoe UI'" font-size="7.122" font-weight="bold" lengthAdjust="spacing" textLength="57.7966" x="571.4025" y="208.7655">Native rwlock:</text><text fill="#000000" font-family="'Segoe UI'" font-size="7.122" lengthAdjust="spacing" textLength="74.8539" x="631.4629" y="208.7655">&#10003; (pthread_rwlock_t)</text><text fill="#000000" font-family="'Segoe UI'" font-size="7.122" font-weight="bold" lengthAdjust="spacing" textLength="78.5123" x="571.4025" y="217.0559">Native work queue:</text><text fill="#000000" font-family="'Segoe UI'" font-size="7.122" lengthAdjust="spacing" textLength="47.6596" x="652.1786" y="217.0559">&#10007; (emulated)</text><text fill="#000000" font-family="'Segoe UI'" font-size="7.122" font-weight="bold" lengthAdjust="spacing" textLength="36.7853" x="571.4025" y="225.3464">Wait-set:</text><text fill="#000000" font-family="'Segoe UI'" font-size="7.122" lengthAdjust="spacing" textLength="31.0057" x="610.4517" y="225.3464">&#10003; (epoll)</text><text fill="#000000" font-family="'Segoe UI'" font-size="7.122" font-weight="bold" lengthAdjust="spacing" textLength="44.8219" x="571.4025" y="233.6368">Timed join:</text><text fill="#000000" font-family="'Segoe UI'" font-size="7.122" lengthAdjust="spacing" textLength="5.9674" x="618.4883" y="233.6368">&#10007;</text></g><g class="entity" data-entity="GMN28" data-source-line="93" data-uid="ent0029" id="entity_GMN28"><path d="M1159.2403,182.6334 L1159.2403,212.491 L1141.775,214.6824 L1159.2403,216.8737 L1159.2403,246.62 A0,0 0 0 0 1159.2403,246.62 L1324.868,246.62 A0,0 0 0 0 1324.868,246.62 L1324.868,188.1119 L1319.3895,182.6334 L1159.2403,182.6334 A0,0 0 0 0 1159.2403,182.6334" fill="#FFFFFF" style="stroke:#000000;stroke-width:0.5478;"/><path d="M1319.3895,182.6334 L1319.3895,188.1119 L1324.868,188.1119 L1319.3895,182.6334" fill="#FFFFFF" style="stroke:#000000;stroke-width:0.5478;"/><text fill="#000000" font-family="'Segoe UI'" font-size="7.122" font-weight="bold" lengthAdjust="spacing" textLength="63.6562" x="1166.9102" y="196.3662">Native condvar:</text><text fill="#000000" font-family="'Segoe UI'" font-size="7.122" lengthAdjust="spacing" textLength="50.2886" x="1232.8303" y="196.3662">&#10003; (k_condvar)</text><text fill="#000000" font-family="'Segoe UI'" font-size="7.122" font-weight="bold" lengthAdjust="spacing" textLength="76.3527" x="1166.9102" y="204.6566">Native event flags:</text><text fill="#000000" font-family="'Segoe UI'" font-size="7.122" lengthAdjust="spacing" textLength="41.7582" x="1245.5267" y="204.6566">&#10003; (k_event)</text><text fill="#000000" font-family="'Segoe UI'" font-size="7.122" font-weight="bold" lengthAdjust="spacing" textLength="78.5123" x="1166.9102" y="212.9471">Native work queue:</text><text fill="#000000" font-family="'Segoe UI'" font-size="7.122" lengthAdjust="spacing" textLength="64.5813" x="1247.6863" y="212.9471">&#10003; (k_work_queue)</text><text fill="#000000" font-family="'Segoe UI'" font-size="7.122" font-weight="bold" lengthAdjust="spacing" textLength="83.9372" x="1166.9102" y="221.2375">Native memory pool:</text><text fill="#000000" font-family="'Segoe UI'" font-size="7.122" lengthAdjust="spacing" textLength="47.6596" x="1253.1112" y="221.2375">&#10007; (emulated)</text><text fill="#000000" font-family="'Segoe UI'" font-size="7.122" font-weight="bold" lengthAdjust="spacing" textLength="63.2911" x="1166.9102" y="229.528">ISR semaphore:</text><text fill="#000000" font-family="'Segoe UI'" font-size="7.122" lengthAdjust="spacing" textLength="5.9674" x="1232.4651" y="229.528">&#10003;</text><text fill="#000000" font-family="'Segoe UI'" font-size="7.122" font-weight="bold" lengthAdjust="spacing" textLength="44.8219" x="1166.9102" y="237.8184">Timed join:</text><text fill="#000000" font-family="'Segoe UI'" font-size="7.122" lengthAdjust="spacing" textLength="5.9674" x="1213.9959" y="237.8184">&#10003;</text></g><g class="entity" data-entity="GMN31" data-source-line="102" data-uid="ent0032" id="entity_GMN31"><path d="M1340.3031,178.5246 L1340.3031,250.8016 L1522.7655,250.8016 L1522.7655,184.003 L1517.2871,178.5246 L1340.3031,178.5246" fill="#FFFFFF" style="stroke:#000000;stroke-width:0.5478;"/><path d="M1517.2871,178.5246 L1517.2871,184.003 L1522.7655,184.003 L1517.2871,178.5246" fill="#FFFFFF" style="stroke:#000000;stroke-width:0.5478;"/><text fill="#000000" font-family="'Segoe UI'" font-size="7.122" font-weight="bold" lengthAdjust="spacing" textLength="63.6562" x="1347.973" y="192.2574">Native condvar:</text><text fill="#000000" font-family="'Segoe UI'" font-size="7.122" lengthAdjust="spacing" textLength="47.6596" x="1413.8931" y="192.2574">&#10007; (emulated)</text><text fill="#000000" font-family="'Segoe UI'" font-size="7.122" font-weight="bold" lengthAdjust="spacing" textLength="78.5123" x="1347.973" y="200.5478">Native work queue:</text><text fill="#000000" font-family="'Segoe UI'" font-size="7.122" lengthAdjust="spacing" textLength="47.6596" x="1428.7491" y="200.5478">&#10007; (emulated)</text><text fill="#000000" font-family="'Segoe UI'" font-size="7.122" font-weight="bold" lengthAdjust="spacing" textLength="63.2911" x="1347.973" y="208.8382">ISR semaphore:</text><text fill="#000000" font-family="'Segoe UI'" font-size="7.122" lengthAdjust="spacing" textLength="5.9674" x="1413.5279" y="208.8382">&#10003;</text><text fill="#000000" font-family="'Segoe UI'" font-size="7.122" font-weight="bold" lengthAdjust="spacing" textLength="47.823" x="1347.973" y="217.1287">Event flags:</text><text fill="#000000" font-family="'Segoe UI'" font-size="7.122" lengthAdjust="spacing" textLength="84.7544" x="1398.0599" y="217.1287">&#10003; (native xEventGroup)</text><text fill="#000000" font-family="'Segoe UI'" font-size="7.122" font-weight="bold" lengthAdjust="spacing" textLength="59.1389" x="1347.973" y="225.4191">Stream buffer:</text><text fill="#000000" font-family="'Segoe UI'" font-size="7.122" lengthAdjust="spacing" textLength="89.4734" x="1409.3758" y="225.4191">&#10003; (xStreamBufferCreate)</text><text fill="#000000" font-family="'Segoe UI'" font-size="7.122" font-weight="bold" lengthAdjust="spacing" textLength="65.1655" x="1347.973" y="233.7096">Message buffer:</text><text fill="#000000" font-family="'Segoe UI'" font-size="7.122" lengthAdjust="spacing" textLength="94.7628" x="1415.4023" y="233.7096">&#10003; (xMessageBufferCreate)</text><text fill="#000000" font-family="'Segoe UI'" font-size="7.122" font-weight="bold" lengthAdjust="spacing" textLength="73.9915" x="1347.973" y="242">ISR stream buffer:</text><text fill="#000000" font-family="'Segoe UI'" font-size="7.122" lengthAdjust="spacing" textLength="5.9674" x="1424.2283" y="242">&#10003;</text></g><g class="entity" data-entity="GMN34" data-source-line="112" data-uid="ent0035" id="entity_GMN34"><path d="M2127.8305,289.1893 L2127.8305,336.595 A0,0 0 0 0 2127.8305,336.595 L2237.5812,336.595 A0,0 0 0 0 2237.5812,336.595 L2237.5812,294.6678 L2232.1027,289.1893 L2184.8064,289.1893 L2182.615,232.838 L2180.4237,289.1893 L2127.8305,289.1893 A0,0 0 0 0 2127.8305,289.1893" fill="#FFFFFF" style="stroke:#000000;stroke-width:0.5478;"/><path d="M2232.1027,289.1893 L2232.1027,294.6678 L2237.5812,294.6678 L2232.1027,289.1893" fill="#FFFFFF" style="stroke:#000000;stroke-width:0.5478;"/><text fill="#000000" font-family="'Segoe UI'" font-size="7.122" lengthAdjust="spacing" textLength="89.4804" x="2135.5004" y="302.9221">Cooperative round-robin.</text><text fill="#000000" font-family="'Segoe UI'" font-size="7.122" lengthAdjust="spacing" textLength="83.2626" x="2135.5004" y="311.2125">No preemption. Priority</text><text fill="#000000" font-family="'Segoe UI'" font-size="7.122" lengthAdjust="spacing" textLength="77.6185" x="2135.5004" y="319.503">ignored. All advanced</text><text fill="#000000" font-family="'Segoe UI'" font-size="7.122" lengthAdjust="spacing" textLength="67.9788" x="2135.5004" y="327.7934">features emulated.</text></g><g class="entity" data-entity="GMN37" data-source-line="119" data-uid="ent0038" id="entity_GMN37"><path d="M1732.2863,190.8511 L1732.2863,212.491 L1715.1607,214.6824 L1732.2863,216.8737 L1732.2863,238.2568 A0,0 0 0 0 1732.2863,238.2568 L1904.5665,238.2568 A0,0 0 0 0 1904.5665,238.2568 L1904.5665,196.3296 L1899.0881,190.8511 L1732.2863,190.8511 A0,0 0 0 0 1732.2863,190.8511" fill="#FFFFFF" style="stroke:#000000;stroke-width:0.5478;"/><path d="M1899.0881,190.8511 L1899.0881,196.3296 L1904.5665,196.3296 L1899.0881,190.8511" fill="#FFFFFF" style="stroke:#000000;stroke-width:0.5478;"/><text fill="#000000" font-family="'Segoe UI'" font-size="7.122" font-weight="bold" lengthAdjust="spacing" textLength="76.3527" x="1739.9562" y="204.5839">Native event flags:</text><text fill="#000000" font-family="'Segoe UI'" font-size="7.122" lengthAdjust="spacing" textLength="60.9298" x="1818.5728" y="204.5839">&#10003; (osEventFlags)</text><text fill="#000000" font-family="'Segoe UI'" font-size="7.122" font-weight="bold" lengthAdjust="spacing" textLength="83.9372" x="1739.9562" y="212.8743">Native memory pool:</text><text fill="#000000" font-family="'Segoe UI'" font-size="7.122" lengthAdjust="spacing" textLength="65.8088" x="1826.1573" y="212.8743">&#10003; (osMemoryPool)</text><text fill="#000000" font-family="'Segoe UI'" font-size="7.122" font-weight="bold" lengthAdjust="spacing" textLength="63.2911" x="1739.9562" y="221.1648">ISR semaphore:</text><text fill="#000000" font-family="'Segoe UI'" font-size="7.122" lengthAdjust="spacing" textLength="5.9674" x="1805.5111" y="221.1648">&#10003;</text><text fill="#000000" font-family="'Segoe UI'" font-size="7.122" font-weight="bold" lengthAdjust="spacing" textLength="69.9193" x="1739.9562" y="229.4552">Recursive mutex:</text><text fill="#000000" font-family="'Segoe UI'" font-size="7.122" lengthAdjust="spacing" textLength="5.9674" x="1812.1393" y="229.4552">&#10003;</text></g><g class="entity" data-entity="GMN40" data-source-line="126" data-uid="ent0041" id="entity_GMN40"><path d="M1919.9233,195.2339 L1919.9233,234.3491 L2110.0363,234.3491 L2110.0363,200.7123 L2104.5578,195.2339 L1919.9233,195.2339" fill="#FFFFFF" style="stroke:#000000;stroke-width:0.5478;"/><path d="M2104.5578,195.2339 L2104.5578,200.7123 L2110.0363,200.7123 L2104.5578,195.2339" fill="#FFFFFF" style="stroke:#000000;stroke-width:0.5478;"/><text fill="#000000" font-family="'Segoe UI'" font-size="7.122" font-weight="bold" lengthAdjust="spacing" textLength="83.9372" x="1927.5931" y="208.9666">Native memory pool:</text><text fill="#000000" font-family="'Segoe UI'" font-size="7.122" lengthAdjust="spacing" textLength="36.8445" x="2013.7942" y="208.9666">&#10003; (osPool)</text><text fill="#000000" font-family="'Segoe UI'" font-size="7.122" font-weight="bold" lengthAdjust="spacing" textLength="63.2911" x="1927.5931" y="217.2571">ISR semaphore:</text><text fill="#000000" font-family="'Segoe UI'" font-size="7.122" lengthAdjust="spacing" textLength="5.9674" x="1993.1481" y="217.2571">&#10003;</text><text fill="#000000" font-family="'Segoe UI'" font-size="7.122" font-weight="bold" lengthAdjust="spacing" textLength="47.823" x="1927.5931" y="225.5475">Event flags:</text><text fill="#000000" font-family="'Segoe UI'" font-size="7.122" lengthAdjust="spacing" textLength="119.7558" x="1977.68" y="225.5475">emulated (osSignal is per-thread)</text></g><!--link posix_fam to GMN7--><g class="link" data-entity-1="posix_fam" data-entity-2="GMN7" data-source-line="31" data-uid="lnk9" id="link_posix_fam_GMN7"><path d="M10.552,164.6864 C10.844,163.8447 11.1596,163.0173 11.5002,162.2068 C14.2248,155.7222 18.5473,150.316 25.2009,147.2974 C55.4693,133.5629 292.1001,139.1619 324.3243,147.2974 C334.5362,149.8778 344.8247,153.4716 354.8722,157.6736" fill="none" id="posix_fam-GMN7" style="stroke:#000000;stroke-width:0.5478;stroke-dasharray:3.8349,3.8349;"/></g><!--link be_li to GMN25--><g class="link" data-entity-1="be_li" data-entity-2="GMN25" data-source-line="85" data-uid="lnk27" id="link_be_li_GMN25"><path d="M285.2684,196.4775 C299.7316,180.0586 323.5026,157.0491 350.073,147.2974 C370.7597,139.7043 526.9722,142.1258 548.393,147.2974 C580.2447,154.9837 613.0497,171.7806 637.9273,186.6765" fill="none" id="be_li-GMN25" style="stroke:#000000;stroke-width:0.5478;stroke-dasharray:3.8349,3.8349;"/></g><!--link be_fr to GMN31--><g class="link" data-entity-1="be_fr" data-entity-2="GMN31" data-source-line="102" data-uid="lnk33" id="link_be_fr_GMN31"><path d="M1049.8521,196.5103 C1059.0668,180.1188 1075.1242,157.1258 1096.786,147.2974 C1119.8448,136.8336 1300.3652,140.2686 1324.6896,147.2974 C1346.702,153.6579 1368.5446,166.0556 1386.6892,178.5027" fill="none" id="be_fr-GMN31" style="stroke:#000000;stroke-width:0.5478;stroke-dasharray:3.8349,3.8349;"/></g><!--link be_c1 to GMN40--><g class="link" data-entity-1="be_c1" data-entity-2="GMN40" data-source-line="126" data-uid="lnk42" id="link_be_c1_GMN40"><path d="M1587.9511,196.4556 C1596.7659,180.0312 1612.2699,157.0107 1633.6742,147.2974 C1661.0555,134.8723 1875.3561,139.1783 1904.3097,147.2974 C1937.3393,156.5615 1970.2867,178.6999 1991.5321,195.0859" fill="none" id="be_c1-GMN40" style="stroke:#000000;stroke-width:0.5478;stroke-dasharray:3.8349,3.8349;"/></g><!--SRC=[jLVDRXit4BxhAQOEqDg29TjgwgP6Ki3QIePGItArQX8K1MHgDP9OSSaDoNNaD0LoxJa5UkcfG1-XBz17yPDqo5slPCa_ELZsHPZzPeRppH_vcPrYZ908ncNfCouZaOuG1Xhb2FKWqMhC1LQJD1ObC-CoOPh5C6JHRA9LAaU14ah3asR3_IyXHZXcgR1D9Ms7aVsj42SAuSVMrX8eKd6Y94eRsak1e36oJ4u4Ba7Eo1ERO5rfEaxkxF3mi5Iot99AkTpcaUw6nwTmzU4Fg1EQ3Wvjbi3dq66MNo24QP8eRSlbKkaBUF68VsJk52Vaxx7j2cyLh4f0uDYM0Dw_W2nu-j569hcSm7idX-TFWcUDm-2RR-btCnMYCaPcKuqZsACac9apqWqBSBt-NQDPT-0UCb6nd78pGorHm7Qltmrt2cIpsTYlrnoopIMFcI23aL89wepMzoKwOtRI3H1xrWrRhojZ5dDn-TZMawocO2jpqlHEje0PI9JXym5vXPnL-9NOW4MXvZe_osqcBxD37jNszv_jUFKX3XArgd3APJedXQlV_u6drOE3NS2v9T9Cfbve2hwg-KF7EUfWQZMN2dnwhj5lvgleJcgjmnzJU5FS1UVle5Oeo7dfjr99AajznYTJ2sgy29TiXLFcYeR7YQ1v82qbMKbmpM-09WF0kT7H7lcBbTppYdldHoMINttu6yupIv5GqQpAfJW7yFt8X82dVbguW6-2zTibz4FWICdH1TCPse4zTxlWoTq5OkecFh5JZMmqUAlqRF0cnHHlLtK1z7aqgxpb8pk5IShqwCW5wqRA86YU33h7_TRBng3V2huVr5lzy9o-eXmh7H4nvuQ_GpNULeQ9eoDBXWPsno6Ulm2PjOaJGcQTMPyleXHStrLT0u7Bo0Rw9w14eOuujQshcusrq8eVNstHGfRFc_KsQcf4f-0wYV8UJNa2ljivcg9cntfLxITCffSwxwOlg_i5zDtbAhJlAy1tn3kQXpVRnwwrpzdhhmYQAu59QSuPj8k-NbDuENz5nML8wHMdFFOesHg-BXGkVByzUbx311snzdApQRtfniTa2j6TINMxcASnKVBVly5UDwoqMgs2a7XjlWLJFkI-17fzFwvg1mKwcgwYCHvwRDWuEMdq2Y366-7vkDU6e1ssDaTnuI7hcTXmassUkzZru4hUD1UqHp8TPQhJ1Mq7TslLd5fjeLPRrgjjXCKwxPHAZ9Q9ZT7OKPMyGALI1l9hopfxYwCG3Kltc5qmtDqvAv7IMF0nt4nL1InXGvfnr4HCqkJtIzR0ThQH3H_XpcCxNLdvrnUDSZc_7UURzQXSXgk_FiBszUPqye7TXU2qIvkltUrq-zrEAzXPrirM-9fg9gPDk8nrcnZy9ixmVy8sngbW5aSPxXNZja8Zjp27YH8Y-zQdTJc2NnINkVBIwboBpw-2E-ERNTybRfmEBroHZ0MRc2MabzuRXOSjBXati376Ib_I9Kk9Eq9kXJqm6BDaIhMN6xmrte_tnUktvEtnhddyr6JSURB6BKJbDvsv_tP2py8aCn9QAWTwBARZCIuICC_4TIyDwAVDQMkZCQwbL_6vV5t17_8M7wja3PMrAixP6hhBRh3qZl7Fs8fMGowhzAcZ8A6xIPourgp2cUPAKx_I5pwHHCQe2iTqOM54ienmHFBymMNWciBgVTcYIVj0tIdZYMmwuVq5vS5jBpqZuGEfws6KQkCDfHRddr1PVfiyuFuJ7A_Kp3LDJZiaKkcQoEdfXRgIpO-TnP7-1m00]--></g></svg>