<svg xmlns="http://www.w3.org/2000/svg" xmlns:xlink="http://www.w3.org/1999/xlink" contentStyleType="text/css" data-diagram-type="DESCRIPTION" height="457.263px" preserveAspectRatio="none" style="width:2250px;height:457px;background:#FEFEFE;" version="1.1" viewBox="0 0 2250 457" width="2250.5115px" zoomAndPan="magnify"><title>**MicrOSAL &#8212; Backend Map &amp; Native Support**</title><defs/><g><rect fill="#FEFEFE" height="457.263" style="stroke:none;stroke-width:0.5115;" width="2250.5115" x="0" y="0"/><g class="title" data-source-line="8"><text fill="#000000" font-family="'Segoe UI'" font-size="11.2526" font-weight="bold" lengthAdjust="spacing" textLength="278.3579" x="983.7751" y="22.2089">MicrOSAL &#8212; Backend Map &amp; Native Support</text></g><g class="legend" data-source-line="13"><rect fill="none" height="81.4212" rx="3.8361" ry="3.8361" style="stroke:#000000;stroke-width:0.5115;" width="154.0449" x="5.1148" y="37.1382"/><text fill="#000000" font-family="'Segoe UI'" font-size="7.1607" font-weight="bold" lengthAdjust="spacing" textLength="21.0801" x="18.3488" y="55.549">Color</text><text fill="#000000" font-family="'Segoe UI'" font-size="7.1607" font-weight="bold" lengthAdjust="spacing" textLength="34.5903" x="52.5985" y="55.549">Meaning</text><rect fill="#C8E6C9" height="16.5192" style="stroke:none;stroke-width:0.5115;" width="34.2497" x="11.764" y="61.3296"/><text fill="#000000" font-family="'Segoe UI'" font-size="7.1607" lengthAdjust="spacing" textLength="2.2762" x="15.8559" y="72.0682">&#160;</text><text fill="#000000" font-family="'Segoe UI'" font-size="7.1607" lengthAdjust="spacing" textLength="93.7607" x="52.3817" y="72.0682">Full-featured / desktop OS</text><rect fill="#BBDEFB" height="16.5192" style="stroke:none;stroke-width:0.5115;" width="34.2497" x="11.764" y="77.8488"/><text fill="#000000" font-family="'Segoe UI'" font-size="7.1607" lengthAdjust="spacing" textLength="2.2762" x="15.8559" y="88.5874">&#160;</text><text fill="#000000" font-family="'Segoe UI'" font-size="7.1607" lengthAdjust="spacing" textLength="86.6209" x="52.3817" y="88.5874">Real-time kernel (RTOS)</text><rect fill="#FFE0B2" height="16.5192" style="stroke:none;stroke-width:0.5115;" width="34.2497" x="11.764" y="94.368"/><text fill="#000000" font-family="'Segoe UI'" font-size="7.1607" lengthAdjust="spacing" textLength="2.2762" x="15.8559" y="105.1066">&#160;</text><text fill="#000000" font-family="'Segoe UI'" font-size="7.1607" lengthAdjust="spacing" textLength="77.4358" x="52.3817" y="105.1066">Minimal / cooperative</text><line style="stroke:#000000;stroke-width:0.5115;" x1="11.764" x2="152.5104" y1="44.8104" y2="44.8104"/><line style="stroke:#000000;stroke-width:0.5115;" x1="11.764" x2="152.5104" y1="61.3296" y2="61.3296"/><line style="stroke:#000000;stroke-width:0.5115;" x1="11.764" x2="152.5104" y1="77.8488" y2="77.8488"/><line style="stroke:#000000;stroke-width:0.5115;" x1="11.764" x2="152.5104" y1="94.368" y2="94.368"/><line style="stroke:#000000;stroke-width:0.5115;" x1="11.764" x2="152.5104" y1="110.8872" y2="110.8872"/><line style="stroke:#000000;stroke-width:0.5115;" x1="11.764" x2="11.764" y1="44.8104" y2="110.8872"/><line style="stroke:#000000;stroke-width:0.5115;" x1="46.0137" x2="46.0137" y1="44.8104" y2="110.8872"/><line style="stroke:#000000;stroke-width:0.5115;" x1="152.5104" x2="152.5104" y1="44.8104" y2="110.8872"/></g><!--cluster posix_fam--><g class="cluster" data-entity="posix_fam" data-source-line="23" data-uid="ent0002" id="cluster_posix_fam"><path d="M6.905,152.6649 L66.1253,152.6649 A1.918,1.918 0 0 1 67.404,153.9436 L70.9843,171.6576 L396.1412,171.6576 A1.2787,1.2787 0 0 1 397.4199,172.9363 L397.4199,318.8959 A1.2787,1.2787 0 0 1 396.1412,320.1746 L6.905,320.1746 A1.2787,1.2787 0 0 1 5.6263,318.8959 L5.6263,153.9436 A1.2787,1.2787 0 0 1 6.905,152.6649" fill="#C8E6C9" style="stroke:#666666;stroke-width:0.5115;"/><line style="stroke:#666666;stroke-width:0.5115;" x1="5.6263" x2="70.9843" y1="171.6576" y2="171.6576"/><text fill="#000000" font-family="'Segoe UI'" font-size="6.6492" font-weight="bold" lengthAdjust="spacing" textLength="50.5251" x="11.764" y="163.9517">POSIX-Family</text></g><!--cluster commercial--><g class="cluster" data-entity="commercial" data-source-line="50" data-uid="ent0012" id="cluster_commercial"><path d="M901.9948,156.7568 L977.1823,156.7568 A1.918,1.918 0 0 1 978.461,158.0355 L982.0414,175.7494 L1222.1812,175.7494 A1.2787,1.2787 0 0 1 1223.4599,177.0281 L1223.4599,314.804 A1.2787,1.2787 0 0 1 1222.1812,316.0827 L901.9948,316.0827 A1.2787,1.2787 0 0 1 900.7161,314.804 L900.7161,158.0355 A1.2787,1.2787 0 0 1 901.9948,156.7568" fill="#BBDEFB" style="stroke:#666666;stroke-width:0.5115;"/><line style="stroke:#666666;stroke-width:0.5115;" x1="900.7161" x2="982.0414" y1="175.7494" y2="175.7494"/><text fill="#000000" font-family="'Segoe UI'" font-size="6.6492" font-weight="bold" lengthAdjust="spacing" textLength="66.4924" x="906.8538" y="168.0435">Commercial RTOS</text></g><!--cluster specialty--><g class="cluster" data-entity="specialty" data-source-line="61" data-uid="ent0018" id="cluster_specialty"><path d="M29.4101,336.5419 L95.0751,336.5419 A1.918,1.918 0 0 1 96.3538,337.8206 L99.9341,355.5346 L161.3719,355.5346 A1.2787,1.2787 0 0 1 162.6506,356.8133 L162.6506,452.9036 A1.2787,1.2787 0 0 1 161.3719,454.1823 L29.4101,454.1823 A1.2787,1.2787 0 0 1 28.1314,452.9036 L28.1314,337.8206 A1.2787,1.2787 0 0 1 29.4101,336.5419" fill="#BBDEFB" style="stroke:#666666;stroke-width:0.5115;"/><line style="stroke:#666666;stroke-width:0.5115;" x1="28.1314" x2="99.9341" y1="355.5346" y2="355.5346"/><text fill="#000000" font-family="'Segoe UI'" font-size="6.6492" font-weight="bold" lengthAdjust="spacing" textLength="56.9698" x="34.2692" y="347.8287">Specialty RTOS</text></g><!--cluster cmsis_fam--><g class="cluster" data-entity="cmsis_fam" data-source-line="70" data-uid="ent0022" id="cluster_cmsis_fam"><path d="M1580.7286,156.7568 L1632.1698,156.7568 A1.918,1.918 0 0 1 1633.4485,158.0355 L1637.0288,175.7494 L1757.1891,175.7494 A1.2787,1.2787 0 0 1 1758.4678,177.0281 L1758.4678,222.9934 A1.2787,1.2787 0 0 1 1757.1891,224.2721 L1580.7286,224.2721 A1.2787,1.2787 0 0 1 1579.4499,222.9934 L1579.4499,158.0355 A1.2787,1.2787 0 0 1 1580.7286,156.7568" fill="#BBDEFB" style="stroke:#666666;stroke-width:0.5115;"/><line style="stroke:#666666;stroke-width:0.5115;" x1="1579.4499" x2="1637.0288" y1="175.7494" y2="175.7494"/><text fill="#000000" font-family="'Segoe UI'" font-size="6.6492" font-weight="bold" lengthAdjust="spacing" textLength="42.746" x="1585.5876" y="168.0435">ARM CMSIS</text></g><!--cluster noos--><g class="cluster" data-entity="noos" data-source-line="78" data-uid="ent0025" id="cluster_noos"><path d="M2128.5235,156.7568 L2160.5527,156.7568 A1.918,1.918 0 0 1 2161.8314,158.0355 L2165.4118,175.7494 L2245.6524,175.7494 A1.2787,1.2787 0 0 1 2246.9311,177.0281 L2246.9311,222.9934 A1.2787,1.2787 0 0 1 2245.6524,224.2721 L2128.5235,224.2721 A1.2787,1.2787 0 0 1 2127.2448,222.9934 L2127.2448,158.0355 A1.2787,1.2787 0 0 1 2128.5235,156.7568" fill="#FFE0B2" style="stroke:#666666;stroke-width:0.5115;"/><line style="stroke:#666666;stroke-width:0.5115;" x1="2127.2448" x2="2165.4118" y1="175.7494" y2="175.7494"/><text fill="#000000" font-family="'Segoe UI'" font-size="6.6492" font-weight="bold" lengthAdjust="spacing" textLength="23.334" x="2133.3826" y="168.0435">No-OS</text></g><!--entity be_po--><g class="entity" data-entity="be_po" data-source-line="24" data-uid="ent0003" id="entity_be_po"><rect fill="#FFFFFF" height="33.8935" rx="1.2787" ry="1.2787" style="stroke:#000000;stroke-width:0.5115;" width="77.0811" x="24.2953" y="182.3307"/><text fill="#000000" font-family="'Segoe UI'" font-size="6.6492" lengthAdjust="spacing" textLength="19.9802" x="33.5019" y="197.7094">POSIX</text><text fill="#000000" font-family="'Segoe UI'" font-size="6.6492" lengthAdjust="spacing" textLength="58.6678" x="33.5019" y="205.4495">(any POSIX:2008)</text></g><!--entity be_li--><g class="entity" data-entity="be_li" data-source-line="25" data-uid="ent0004" id="entity_be_li"><rect fill="#FFFFFF" height="33.8935" rx="1.2787" ry="1.2787" style="stroke:#000000;stroke-width:0.5115;" width="99.0353" x="285.9173" y="182.3307"/><text fill="#000000" font-family="'Segoe UI'" font-size="6.6492" lengthAdjust="spacing" textLength="17.9153" x="295.1239" y="197.7094">Linux</text><text fill="#000000" font-family="'Segoe UI'" font-size="6.6492" lengthAdjust="spacing" textLength="80.622" x="295.1239" y="205.4495">(&#8805; 4.11, extends POSIX)</text></g><!--entity be_qx--><g class="entity" data-entity="be_qx" data-source-line="26" data-uid="ent0005" id="entity_be_qx"><rect fill="#FFFFFF" height="33.8935" rx="1.2787" ry="1.2787" style="stroke:#000000;stroke-width:0.5115;" width="72.6007" x="116.1059" y="182.3307"/><text fill="#000000" font-family="'Segoe UI'" font-size="6.6492" lengthAdjust="spacing" textLength="14.7627" x="125.3126" y="197.7094">QNX</text><text fill="#000000" font-family="'Segoe UI'" font-size="6.6492" lengthAdjust="spacing" textLength="54.1874" x="125.3126" y="205.4495">(Neutrino RTOS)</text></g><!--entity be_nx--><g class="entity" data-entity="be_nx" data-source-line="27" data-uid="ent0006" id="entity_be_nx"><rect fill="#FFFFFF" height="33.8935" rx="1.2787" ry="1.2787" style="stroke:#000000;stroke-width:0.5115;" width="68.7793" x="203.0575" y="182.3307"/><text fill="#000000" font-family="'Segoe UI'" font-size="6.6492" lengthAdjust="spacing" textLength="18.9575" x="212.2642" y="197.7094">NuttX</text><text fill="#000000" font-family="'Segoe UI'" font-size="6.6492" lengthAdjust="spacing" textLength="50.366" x="212.2642" y="205.4495">(Apache, &#8805; 12)</text></g><!--entity be_rt--><g class="entity" data-entity="be_rt" data-source-line="28" data-uid="ent0007" id="entity_be_rt"><rect fill="#FFFFFF" height="33.8935" rx="1.2787" ry="1.2787" style="stroke:#000000;stroke-width:0.5115;" width="66.8443" x="29.4101" y="274.1414"/><text fill="#000000" font-family="'Segoe UI'" font-size="6.6492" lengthAdjust="spacing" textLength="22.8405" x="38.6167" y="289.52">RTEMS</text><text fill="#000000" font-family="'Segoe UI'" font-size="6.6492" lengthAdjust="spacing" textLength="48.431" x="38.6167" y="297.2601">(POSIX profile)</text></g><!--entity be_in--><g class="entity" data-entity="be_in" data-source-line="29" data-uid="ent0008" id="entity_be_in"><rect fill="#FFFFFF" height="33.8935" rx="1.2787" ry="1.2787" style="stroke:#000000;stroke-width:0.5115;" width="73.026" x="110.7354" y="274.1414"/><text fill="#000000" font-family="'Segoe UI'" font-size="6.6492" lengthAdjust="spacing" textLength="35.0546" x="119.942" y="289.52">INTEGRITY</text><text fill="#000000" font-family="'Segoe UI'" font-size="6.6492" lengthAdjust="spacing" textLength="54.6127" x="119.942" y="297.2601">(pthread profile)</text></g><!--entity be_fr--><g class="entity" data-entity="be_fr" data-source-line="51" data-uid="ent0013" id="entity_be_fr"><rect fill="#FFFFFF" height="33.8935" rx="1.2787" ry="1.2787" style="stroke:#000000;stroke-width:0.5115;" width="75.5259" x="1083.3144" y="182.3307"/><text fill="#000000" font-family="'Segoe UI'" font-size="6.6492" lengthAdjust="spacing" textLength="32.8761" x="1092.521" y="197.7094">FreeRTOS</text><text fill="#000000" font-family="'Segoe UI'" font-size="6.6492" lengthAdjust="spacing" textLength="57.1127" x="1092.521" y="205.4495">(all chip families)</text></g><!--entity be_zy--><g class="entity" data-entity="be_zy" data-source-line="52" data-uid="ent0014" id="entity_be_zy"><rect fill="#FFFFFF" height="33.8935" rx="1.2787" ry="1.2787" style="stroke:#000000;stroke-width:0.5115;" width="42.1629" x="1173.3348" y="182.3307"/><text fill="#000000" font-family="'Segoe UI'" font-size="6.6492" lengthAdjust="spacing" textLength="23.7496" x="1182.5415" y="197.7094">Zephyr</text><text fill="#000000" font-family="'Segoe UI'" font-size="6.6492" lengthAdjust="spacing" textLength="23.4477" x="1182.5415" y="205.4495">(&#8805; 3.0)</text></g><!--entity be_tx--><g class="entity" data-entity="be_tx" data-source-line="53" data-uid="ent0015" id="entity_be_tx"><rect fill="#FFFFFF" height="33.8935" rx="1.2787" ry="1.2787" style="stroke:#000000;stroke-width:0.5115;" width="62.9288" x="909.1555" y="182.3307"/><text fill="#000000" font-family="'Segoe UI'" font-size="6.6492" lengthAdjust="spacing" textLength="27.9508" x="918.3621" y="197.7094">ThreadX</text><text fill="#000000" font-family="'Segoe UI'" font-size="6.6492" lengthAdjust="spacing" textLength="44.5155" x="918.3621" y="205.4495">(Azure RTOS)</text></g><!--entity be_px--><g class="entity" data-entity="be_px" data-source-line="54" data-uid="ent0016" id="entity_be_px"><rect fill="#FFFFFF" height="33.8935" rx="1.2787" ry="1.2787" style="stroke:#000000;stroke-width:0.5115;" width="82.5518" x="986.389" y="182.3307"/><text fill="#000000" font-family="'Segoe UI'" font-size="6.6492" lengthAdjust="spacing" textLength="12.7952" x="995.5956" y="197.7094">PX5</text><text fill="#000000" font-family="'Segoe UI'" font-size="6.6492" lengthAdjust="spacing" textLength="64.1385" x="995.5956" y="205.4495">(ThreadX superset)</text></g><!--entity be_vx--><g class="entity" data-entity="be_vx" data-source-line="55" data-uid="ent0017" id="entity_be_vx"><rect fill="#FFFFFF" height="33.8935" rx="1.2787" ry="1.2787" style="stroke:#000000;stroke-width:0.5115;" width="66.143" x="909.1555" y="274.1414"/><text fill="#000000" font-family="'Segoe UI'" font-size="6.6492" lengthAdjust="spacing" textLength="29.1748" x="918.3621" y="289.52">VxWorks</text><text fill="#000000" font-family="'Segoe UI'" font-size="6.6492" lengthAdjust="spacing" textLength="47.7297" x="918.3621" y="297.2601">(Wind River 7)</text></g><!--entity be_mi--><g class="entity" data-entity="be_mi" data-source-line="62" data-uid="ent0019" id="entity_be_mi"><rect fill="#FFFFFF" height="33.8935" rx="1.2787" ry="1.2787" style="stroke:#000000;stroke-width:0.5115;" width="52.4517" x="36.5708" y="362.1159"/><text fill="#000000" font-family="'Segoe UI'" font-size="6.6492" lengthAdjust="spacing" textLength="26.5125" x="45.7774" y="377.4945">Micrium</text><text fill="#000000" font-family="'Segoe UI'" font-size="6.6492" lengthAdjust="spacing" textLength="34.0384" x="45.7774" y="385.2347">(&#181;C/OS-III)</text></g><!--entity be_ch--><g class="entity" data-entity="be_ch" data-source-line="63" data-uid="ent0020" id="entity_be_ch"><rect fill="#FFFFFF" height="33.8935" rx="1.2787" ry="1.2787" style="stroke:#000000;stroke-width:0.5115;" width="50.5426" x="103.5747" y="362.1159"/><text fill="#000000" font-family="'Segoe UI'" font-size="6.6492" lengthAdjust="spacing" textLength="26.2268" x="112.7813" y="377.4945">ChibiOS</text><text fill="#000000" font-family="'Segoe UI'" font-size="6.6492" lengthAdjust="spacing" textLength="32.1293" x="112.7813" y="385.2347">(RT &#8805; 21)</text></g><!--entity be_em--><g class="entity" data-entity="be_em" data-source-line="64" data-uid="ent0021" id="entity_be_em"><rect fill="#FFFFFF" height="33.8935" rx="1.2787" ry="1.2787" style="stroke:#000000;stroke-width:0.5115;" width="51.1497" x="37.338" y="412.241"/><text fill="#000000" font-family="'Segoe UI'" font-size="6.6492" lengthAdjust="spacing" textLength="24.2431" x="46.5447" y="427.6196">embOS</text><text fill="#000000" font-family="'Segoe UI'" font-size="6.6492" lengthAdjust="spacing" textLength="32.7365" x="46.5447" y="435.3597">(SEGGER)</text></g><!--entity be_c1--><g class="entity" data-entity="be_c1" data-source-line="71" data-uid="ent0023" id="entity_be_c1"><rect fill="#FFFFFF" height="33.8935" rx="1.2787" ry="1.2787" style="stroke:#000000;stroke-width:0.5115;" width="72.0877" x="1587.8893" y="182.3307"/><text fill="#000000" font-family="'Segoe UI'" font-size="6.6492" lengthAdjust="spacing" textLength="41.3175" x="1597.0959" y="197.7094">CMSIS-RTOS</text><text fill="#000000" font-family="'Segoe UI'" font-size="6.6492" lengthAdjust="spacing" textLength="53.6744" x="1597.0959" y="205.4495">(v1, cmsis_os.h)</text></g><!--entity be_c2--><g class="entity" data-entity="be_c2" data-source-line="72" data-uid="ent0024" id="entity_be_c2"><rect fill="#FFFFFF" height="33.8935" rx="1.2787" ry="1.2787" style="stroke:#000000;stroke-width:0.5115;" width="76.3181" x="1674.3294" y="182.3307"/><text fill="#000000" font-family="'Segoe UI'" font-size="6.6492" lengthAdjust="spacing" textLength="45.5479" x="1683.536" y="197.7094">CMSIS-RTOS2</text><text fill="#000000" font-family="'Segoe UI'" font-size="6.6492" lengthAdjust="spacing" textLength="57.9049" x="1683.536" y="205.4495">(v2, cmsis_os2.h)</text></g><!--entity be_bm--><g class="entity" data-entity="be_bm" data-source-line="79" data-uid="ent0026" id="entity_be_bm"><rect fill="#FFFFFF" height="33.8935" rx="1.2787" ry="1.2787" style="stroke:#000000;stroke-width:0.5115;" width="103.8534" x="2135.1728" y="182.3307"/><text fill="#000000" font-family="'Segoe UI'" font-size="6.6492" lengthAdjust="spacing" textLength="36.9572" x="2144.3794" y="197.7094">Bare-metal</text><text fill="#000000" font-family="'Segoe UI'" font-size="6.6492" lengthAdjust="spacing" textLength="85.4401" x="2144.3794" y="205.4495">(cooperative, single-core)</text></g><g class="entity" data-entity="GMN9" data-source-line="33" data-uid="ent0010" id="entity_GMN9"><path d="M409.6954,146.0157 L409.6954,252.1957 L661.2688,252.1957 L661.2688,151.1305 L656.154,146.0157 L409.6954,146.0157" fill="#FFFFFF" style="stroke:#000000;stroke-width:0.5115;"/><path d="M656.154,146.0157 L656.154,151.1305 L661.2688,151.1305 L656.154,146.0157" fill="#FFFFFF" style="stroke:#000000;stroke-width:0.5115;"/><text fill="#000000" font-family="'Segoe UI'" font-size="6.6492" lengthAdjust="spacing" textLength="102.232" x="416.8561" y="158.8369">Shared implementation files in</text><text fill="#000000" font-family="'Segoe UI'" font-size="6.6492" lengthAdjust="spacing" textLength="71.9598" x="416.8561" y="166.577">`src/common/posix/`:</text><text fill="#000000" font-family="'Segoe UI'" font-size="6.6492" lengthAdjust="spacing" textLength="2.1136" x="416.8561" y="174.3171">&#160;</text><text fill="#000000" font-family="'Segoe UI'" font-size="6.6492" lengthAdjust="spacing" textLength="123.7674" x="416.8561" y="182.0573">&#8226; `posix_clock.inl`   &#8212; all 6 backends</text><text fill="#000000" font-family="'Segoe UI'" font-size="6.6492" lengthAdjust="spacing" textLength="126.1699" x="416.8561" y="189.7974">&#8226; `posix_rwlock.inl`  &#8212; all 6 backends</text><text fill="#000000" font-family="'Segoe UI'" font-size="6.6492" lengthAdjust="spacing" textLength="208.8082" x="416.8561" y="197.5375">&#8226; `posix_condvar.inl` &#8212; POSIX, Linux, QNX, RTEMS, INTEGRITY</text><text fill="#000000" font-family="'Segoe UI'" font-size="6.6492" lengthAdjust="spacing" textLength="232.6487" x="416.8561" y="205.2777">&#8226; `posix_pthread_work_queue.inl` &#8212; POSIX, Linux, RTEMS, INTEGRITY</text><text fill="#000000" font-family="'Segoe UI'" font-size="6.6492" lengthAdjust="spacing" textLength="2.1136" x="416.8561" y="213.0178">&#160;</text><text fill="#000000" font-family="'Segoe UI'" font-size="6.6492" lengthAdjust="spacing" textLength="57.9601" x="416.8561" y="220.7579">Tick-width guard:</text><text fill="#000000" font-family="'Segoe UI'" font-size="6.6492" lengthAdjust="spacing" textLength="105.4008" x="416.8561" y="228.4981">`OSAL_CFG_NATIVE_TICK_BITS`</text><text fill="#000000" font-family="'Segoe UI'" font-size="6.6492" lengthAdjust="spacing" textLength="97.7386" x="416.8561" y="236.2382">enforces `sizeof(osal::tick_t)`</text><text fill="#000000" font-family="'Segoe UI'" font-size="6.6492" lengthAdjust="spacing" textLength="124.907" x="416.8561" y="243.9783">&lt;= native tick width at compile time.</text></g><g class="entity" data-entity="GMN27" data-source-line="87" data-uid="ent0028" id="entity_GMN27"><path d="M675.6649,173.1241 L675.6649,225.1232 L892.7714,225.1232 L892.7714,178.2389 L887.6566,173.1241 L675.6649,173.1241" fill="#FFFFFF" style="stroke:#000000;stroke-width:0.5115;"/><path d="M887.6566,173.1241 L887.6566,178.2389 L892.7714,178.2389 L887.6566,173.1241" fill="#FFFFFF" style="stroke:#000000;stroke-width:0.5115;"/><text fill="#000000" font-family="'Segoe UI'" font-size="6.6492" font-weight="bold" lengthAdjust="spacing" textLength="59.4308" x="682.8256" y="185.9453">Native condvar:</text><text fill="#000000" font-family="'Segoe UI'" font-size="6.6492" lengthAdjust="spacing" textLength="136.6373" x="744.3701" y="185.9453">&#10003; (pthread_cond_t, CLOCK_MONOTONIC)</text><text fill="#000000" font-family="'Segoe UI'" font-size="6.6492" font-weight="bold" lengthAdjust="spacing" textLength="53.9601" x="682.8256" y="193.6855">Native rwlock:</text><text fill="#000000" font-family="'Segoe UI'" font-size="6.6492" lengthAdjust="spacing" textLength="69.8852" x="738.8994" y="193.6855">&#10003; (pthread_rwlock_t)</text><text fill="#000000" font-family="'Segoe UI'" font-size="6.6492" font-weight="bold" lengthAdjust="spacing" textLength="73.3007" x="682.8256" y="201.4256">Native work queue:</text><text fill="#000000" font-family="'Segoe UI'" font-size="6.6492" lengthAdjust="spacing" textLength="44.496" x="758.24" y="201.4256">&#10007; (emulated)</text><text fill="#000000" font-family="'Segoe UI'" font-size="6.6492" font-weight="bold" lengthAdjust="spacing" textLength="34.3436" x="682.8256" y="209.1657">Wait-set:</text><text fill="#000000" font-family="'Segoe UI'" font-size="6.6492" lengthAdjust="spacing" textLength="28.9476" x="719.2828" y="209.1657">&#10003; (epoll)</text><text fill="#000000" font-family="'Segoe UI'" font-size="6.6492" font-weight="bold" lengthAdjust="spacing" textLength="41.8467" x="682.8256" y="216.9058">Timed join:</text><text fill="#000000" font-family="'Segoe UI'" font-size="6.6492" lengthAdjust="spacing" textLength="5.5713" x="726.7859" y="216.9058">&#10007;</text></g><g class="entity" data-entity="GMN30" data-source-line="95" data-uid="ent0031" id="entity_GMN30"><path d="M1231.6436,169.288 L1231.6436,197.1637 L1215.3376,199.2096 L1231.6436,201.2555 L1231.6436,229.0273 A0,0 0 0 0 1231.6436,229.0273 L1386.2771,229.0273 A0,0 0 0 0 1386.2771,229.0273 L1386.2771,174.4028 L1381.1623,169.288 L1231.6436,169.288 A0,0 0 0 0 1231.6436,169.288" fill="#FFFFFF" style="stroke:#000000;stroke-width:0.5115;"/><path d="M1381.1623,169.288 L1381.1623,174.4028 L1386.2771,174.4028 L1381.1623,169.288" fill="#FFFFFF" style="stroke:#000000;stroke-width:0.5115;"/><text fill="#000000" font-family="'Segoe UI'" font-size="6.6492" font-weight="bold" lengthAdjust="spacing" textLength="59.4308" x="1238.8043" y="182.1092">Native condvar:</text><text fill="#000000" font-family="'Segoe UI'" font-size="6.6492" lengthAdjust="spacing" textLength="46.9505" x="1300.3487" y="182.1092">&#10003; (k_condvar)</text><text fill="#000000" font-family="'Segoe UI'" font-size="6.6492" font-weight="bold" lengthAdjust="spacing" textLength="71.2845" x="1238.8043" y="189.8494">Native event flags:</text><text fill="#000000" font-family="'Segoe UI'" font-size="6.6492" lengthAdjust="spacing" textLength="38.9864" x="1312.2024" y="189.8494">&#10003; (k_event)</text><text fill="#000000" font-family="'Segoe UI'" font-size="6.6492" font-weight="bold" lengthAdjust="spacing" textLength="73.3007" x="1238.8043" y="197.5895">Native work queue:</text><text fill="#000000" font-family="'Segoe UI'" font-size="6.6492" lengthAdjust="spacing" textLength="60.2944" x="1314.2186" y="197.5895">&#10003; (k_work_queue)</text><text fill="#000000" font-family="'Segoe UI'" font-size="6.6492" font-weight="bold" lengthAdjust="spacing" textLength="78.3656" x="1238.8043" y="205.3296">Native memory pool:</text><text fill="#000000" font-family="'Segoe UI'" font-size="6.6492" lengthAdjust="spacing" textLength="44.496" x="1319.2834" y="205.3296">&#10007; (emulated)</text><text fill="#000000" font-family="'Segoe UI'" font-size="6.6492" font-weight="bold" lengthAdjust="spacing" textLength="59.0899" x="1238.8043" y="213.0697">ISR semaphore:</text><text fill="#000000" font-family="'Segoe UI'" font-size="6.6492" lengthAdjust="spacing" textLength="5.5713" x="1300.0078" y="213.0697">&#10003;</text><text fill="#000000" font-family="'Segoe UI'" font-size="6.6492" font-weight="bold" lengthAdjust="spacing" textLength="41.8467" x="1238.8043" y="220.8099">Timed join:</text><text fill="#000000" font-family="'Segoe UI'" font-size="6.6492" lengthAdjust="spacing" textLength="5.5713" x="1282.7646" y="220.8099">&#10003;</text></g><g class="entity" data-entity="GMN33" data-source-line="104" data-uid="ent0034" id="entity_GMN33"><path d="M1400.6877,165.4519 L1400.6877,232.9313 L1571.0384,232.9313 L1571.0384,170.5667 L1565.9236,165.4519 L1400.6877,165.4519" fill="#FFFFFF" style="stroke:#000000;stroke-width:0.5115;"/><path d="M1565.9236,165.4519 L1565.9236,170.5667 L1571.0384,170.5667 L1565.9236,165.4519" fill="#FFFFFF" style="stroke:#000000;stroke-width:0.5115;"/><text fill="#000000" font-family="'Segoe UI'" font-size="6.6492" font-weight="bold" lengthAdjust="spacing" textLength="59.4308" x="1407.8484" y="178.2731">Native condvar:</text><text fill="#000000" font-family="'Segoe UI'" font-size="6.6492" lengthAdjust="spacing" textLength="44.496" x="1469.3928" y="178.2731">&#10007; (emulated)</text><text fill="#000000" font-family="'Segoe UI'" font-size="6.6492" font-weight="bold" lengthAdjust="spacing" textLength="73.3007" x="1407.8484" y="186.0133">Native work queue:</text><text fill="#000000" font-family="'Segoe UI'" font-size="6.6492" lengthAdjust="spacing" textLength="44.496" x="1483.2627" y="186.0133">&#10007; (emulated)</text><text fill="#000000" font-family="'Segoe UI'" font-size="6.6492" font-weight="bold" lengthAdjust="spacing" textLength="59.0899" x="1407.8484" y="193.7534">ISR semaphore:</text><text fill="#000000" font-family="'Segoe UI'" font-size="6.6492" lengthAdjust="spacing" textLength="5.5713" x="1469.0519" y="193.7534">&#10003;</text><text fill="#000000" font-family="'Segoe UI'" font-size="6.6492" font-weight="bold" lengthAdjust="spacing" textLength="44.6486" x="1407.8484" y="201.4935">Event flags:</text><text fill="#000000" font-family="'Segoe UI'" font-size="6.6492" lengthAdjust="spacing" textLength="79.1285" x="1454.6106" y="201.4935">&#10003; (native xEventGroup)</text><text fill="#000000" font-family="'Segoe UI'" font-size="6.6492" font-weight="bold" lengthAdjust="spacing" textLength="55.2134" x="1407.8484" y="209.2336">Stream buffer:</text><text fill="#000000" font-family="'Segoe UI'" font-size="6.6492" lengthAdjust="spacing" textLength="83.5343" x="1465.1753" y="209.2336">&#10003; (xStreamBufferCreate)</text><text fill="#000000" font-family="'Segoe UI'" font-size="6.6492" font-weight="bold" lengthAdjust="spacing" textLength="60.8399" x="1407.8484" y="216.9738">Message buffer:</text><text fill="#000000" font-family="'Segoe UI'" font-size="6.6492" lengthAdjust="spacing" textLength="88.4725" x="1470.8019" y="216.9738">&#10003; (xMessageBufferCreate)</text><text fill="#000000" font-family="'Segoe UI'" font-size="6.6492" font-weight="bold" lengthAdjust="spacing" textLength="69.08" x="1407.8484" y="224.7139">ISR stream buffer:</text><text fill="#000000" font-family="'Segoe UI'" font-size="6.6492" lengthAdjust="spacing" textLength="5.5713" x="1479.042" y="224.7139">&#10003;</text></g><g class="entity" data-entity="GMN36" data-source-line="114" data-uid="ent0037" id="entity_GMN36"><path d="M2135.94,268.7708 L2135.94,313.0298 A0,0 0 0 0 2135.94,313.0298 L2238.4055,313.0298 A0,0 0 0 0 2238.4055,313.0298 L2238.4055,273.8856 L2233.2907,268.7708 L2189.1339,268.7708 L2187.088,216.16 L2185.0421,268.7708 L2135.94,268.7708 A0,0 0 0 0 2135.94,268.7708" fill="#FFFFFF" style="stroke:#000000;stroke-width:0.5115;"/><path d="M2233.2907,268.7708 L2233.2907,273.8856 L2238.4055,273.8856 L2233.2907,268.7708" fill="#FFFFFF" style="stroke:#000000;stroke-width:0.5115;"/><text fill="#000000" font-family="'Segoe UI'" font-size="6.6492" lengthAdjust="spacing" textLength="83.5408" x="2143.1007" y="281.5921">Cooperative round-robin.</text><text fill="#000000" font-family="'Segoe UI'" font-size="6.6492" lengthAdjust="spacing" textLength="77.7357" x="2143.1007" y="289.3322">No preemption. Priority</text><text fill="#000000" font-family="'Segoe UI'" font-size="6.6492" lengthAdjust="spacing" textLength="72.4663" x="2143.1007" y="297.0723">ignored. All advanced</text><text fill="#000000" font-family="'Segoe UI'" font-size="6.6492" lengthAdjust="spacing" textLength="63.4665" x="2143.1007" y="304.8124">features emulated.</text></g><g class="entity" data-entity="GMN39" data-source-line="121" data-uid="ent0040" id="entity_GMN39"><path d="M1766.6515,176.9602 L1766.6515,197.1637 L1750.6627,199.2096 L1766.6515,201.2555 L1766.6515,221.2192 A0,0 0 0 0 1766.6515,221.2192 L1927.496,221.2192 A0,0 0 0 0 1927.496,221.2192 L1927.496,182.075 L1922.3812,176.9602 L1766.6515,176.9602 A0,0 0 0 0 1766.6515,176.9602" fill="#FFFFFF" style="stroke:#000000;stroke-width:0.5115;"/><path d="M1922.3812,176.9602 L1922.3812,182.075 L1927.496,182.075 L1922.3812,176.9602" fill="#FFFFFF" style="stroke:#000000;stroke-width:0.5115;"/><text fill="#000000" font-family="'Segoe UI'" font-size="6.6492" font-weight="bold" lengthAdjust="spacing" textLength="71.2845" x="1773.8122" y="189.7814">Native event flags:</text><text fill="#000000" font-family="'Segoe UI'" font-size="6.6492" lengthAdjust="spacing" textLength="56.8854" x="1847.2103" y="189.7814">&#10003; (osEventFlags)</text><text fill="#000000" font-family="'Segoe UI'" font-size="6.6492" font-weight="bold" lengthAdjust="spacing" textLength="78.3656" x="1773.8122" y="197.5216">Native memory pool:</text><text fill="#000000" font-family="'Segoe UI'" font-size="6.6492" lengthAdjust="spacing" textLength="61.4405" x="1854.2914" y="197.5216">&#10003; (osMemoryPool)</text><text fill="#000000" font-family="'Segoe UI'" font-size="6.6492" font-weight="bold" lengthAdjust="spacing" textLength="59.0899" x="1773.8122" y="205.2617">ISR semaphore:</text><text fill="#000000" font-family="'Segoe UI'" font-size="6.6492" lengthAdjust="spacing" textLength="5.5713" x="1835.0157" y="205.2617">&#10003;</text><text fill="#000000" font-family="'Segoe UI'" font-size="6.6492" font-weight="bold" lengthAdjust="spacing" textLength="65.2781" x="1773.8122" y="213.0018">Recursive mutex:</text><text fill="#000000" font-family="'Segoe UI'" font-size="6.6492" lengthAdjust="spacing" textLength="5.5713" x="1841.204" y="213.0018">&#10003;</text></g><g class="entity" data-entity="GMN42" data-source-line="128" data-uid="ent0043" id="entity_GMN42"><path d="M1941.8334,181.0521 L1941.8334,217.5709 L2119.3269,217.5709 L2119.3269,186.1668 L2114.2121,181.0521 L1941.8334,181.0521" fill="#FFFFFF" style="stroke:#000000;stroke-width:0.5115;"/><path d="M2114.2121,181.0521 L2114.2121,186.1668 L2119.3269,186.1668 L2114.2121,181.0521" fill="#FFFFFF" style="stroke:#000000;stroke-width:0.5115;"/><text fill="#000000" font-family="'Segoe UI'" font-size="6.6492" font-weight="bold" lengthAdjust="spacing" textLength="78.3656" x="1948.9941" y="193.8733">Native memory pool:</text><text fill="#000000" font-family="'Segoe UI'" font-size="6.6492" lengthAdjust="spacing" textLength="34.3988" x="2029.4733" y="193.8733">&#10003; (osPool)</text><text fill="#000000" font-family="'Segoe UI'" font-size="6.6492" font-weight="bold" lengthAdjust="spacing" textLength="59.0899" x="1948.9941" y="201.6134">ISR semaphore:</text><text fill="#000000" font-family="'Segoe UI'" font-size="6.6492" lengthAdjust="spacing" textLength="5.5713" x="2010.1976" y="201.6134">&#10003;</text><text fill="#000000" font-family="'Segoe UI'" font-size="6.6492" font-weight="bold" lengthAdjust="spacing" textLength="44.6486" x="1948.9941" y="209.3535">Event flags:</text><text fill="#000000" font-family="'Segoe UI'" font-size="6.6492" lengthAdjust="spacing" textLength="111.8066" x="1995.7563" y="209.3535">emulated (osSignal is per-thread)</text></g><!--link posix_fam to GMN9--><g class="link" data-entity-1="posix_fam" data-entity-2="GMN9" data-source-line="33" data-uid="lnk11" id="link_posix_fam_GMN9"><path d="M9.8515,152.5323 C10.1242,151.7465 10.4189,150.974 10.7368,150.2172 C13.2806,144.1632 17.3162,139.1158 23.5281,136.2976 C41.8493,127.986 365.9332,132.3234 385.6558,136.2976 C397.5529,138.6913 409.68,142.0568 421.6231,146.0003" fill="none" id="posix_fam-GMN9" style="stroke:#000000;stroke-width:0.5115;stroke-dasharray:3.5804,3.5804;"/></g><!--link be_li to GMN27--><g class="link" data-entity-1="be_li" data-entity-2="GMN27" data-source-line="87" data-uid="lnk29" id="link_be_li_GMN27"><path d="M349.1924,182.2131 C362.6955,166.8841 384.8886,145.4019 409.6954,136.2976 C435.9445,126.6664 634.1634,129.7404 661.3435,136.2976 C691.0809,143.4736 721.7083,159.1556 744.9346,173.0627" fill="none" id="be_li-GMN27" style="stroke:#000000;stroke-width:0.5115;stroke-dasharray:3.5804,3.5804;"/></g><!--link be_fr to GMN33--><g class="link" data-entity-1="be_fr" data-entity-2="GMN33" data-source-line="104" data-uid="lnk35" id="link_be_fr_GMN33"><path d="M1129.5164,182.2438 C1138.1195,166.9403 1153.1109,145.4735 1173.3348,136.2976 C1194.863,126.5283 1363.4008,129.7353 1386.1105,136.2976 C1406.6617,142.2358 1427.0544,153.8106 1443.9947,165.4315" fill="none" id="be_fr-GMN33" style="stroke:#000000;stroke-width:0.5115;stroke-dasharray:3.5804,3.5804;"/></g><!--link be_c1 to GMN42--><g class="link" data-entity-1="be_c1" data-entity-2="GMN42" data-source-line="128" data-uid="lnk44" id="link_be_c1_GMN42"><path d="M1631.897,182.1927 C1640.1267,166.8585 1654.6016,145.3661 1674.5851,136.2976 C1700.1489,124.6972 1900.2245,128.7174 1927.2562,136.2976 C1958.0933,144.9467 1988.8537,165.6156 2008.6889,180.914" fill="none" id="be_c1-GMN42" style="stroke:#000000;stroke-width:0.5115;stroke-dasharray:3.5804,3.5804;"/></g><!--SRC=[jLVDRYD54BxxAOgi18bbEuc1i4IxIB6n8ulO3Xwpko0afprJjXltTC_sz6JjPP7sodcHk712uX5u0HubJq9rpsJy5oTxY9EBLVDLLVTNl_s9cM2840d6PU4JBdsH10W3ZJ90FOYq6d61bIW9HI6USXanpK8OCdywrYgHGLq9fU59is7_bn01ZbWYJ5D9qs5aVy_3iKBueRMt1F9L62c9qdXcBX0q-eR9iS0bo2LvOcEiAKt7oPoTd9mK2eORKYaMszpNNU_i0cxU_m4rGjF1eSqY-1GwpF1h12-98gLDiLWeV0RF7_6Fp5tWcFmzjbtXh89H4GWScGB0k-UGNfv-j959BiVmpihXsPFwqyP9_Ujlw7Sp4Q8yGcOIZG4SKX3YgJNIzN9mhVPjercpu1uoKJQSOZD5BL70Vg_VzGvoPBFPEAfLBRBD9G-P88E-KX7gbDPt1JfZUj8T47lPzLgloYCMSZ5_REjHcbEmbpffEYTxm6A8LCnd0_8A6QlmAx41YqJDT7wM-qpEqqEULe-EdXuuzI4E8hMkSC5bCYE5cz__WIygnySbm9aXqk9KFTSKV5tp-uvrrC74Q2uLkF3Seb_Frj6Tn1YBFwFhJR04rjznDLUGLc49tkitsXx1tI4Wg_CShSqgkjNfDyvxhVwFf16PYKOMREXG__YjK93AK2NpySI06Yq89NFUXDcqv64agED8Gsca95WJCP0km5Mi_KDo6Yfvw1GFhquB9Bzv_pTSfPPyeVnfXKjn1U0gdWa19wuVMKfNmVhD4leXiAzaSCrqYhPWHqm9NFXAGB4eWUEi13aPgnOoNWPlb9uENYUOu3PZ6tR8K9_xq_8R7fW9Z1EcWrDBY6riWthpVD0vwxTUD0RzLlsxGQtLzwxeAygHqZwHTnNpjwX6-ofculJKaA61ER28Pyz1fiLgXP1QPyO5bcW7M_qLMyPWexQ3AgvJC57xd9g7pTwT5VAQ7vUH_aAMTRtDOcvgHAjWwvbomv_m25pFuHZdUJtIwse_OJIPwwocFwySvT2tytLet-M4gyktr9LNYzXi5F7bgoy9cYb1d52tZT4ikik6melPIqgtc9HUSefZZuAjuQjSuNfcQ_BHu-f5Q8aryzs6TTMDkrESYxO6rMu4F0c9al_-hHzslNAhrSe92JUwR7t2XzobGA_lccRrE4VxatKqXaE7zHhdvurU3iHm9poVzTfGRtkjtL6SUqXh9envdCw_RUmwS3ahcckQPgcEYYkJ1Mt7sxMgLgswKAikwrLtmcADvauvHCF4pcZig7AMe5Af6BBbQPEznL68XgLjgWGnjvjlsLTwCL67kycgEelOa7eS5H6JrFdT88vXFvtQCG_muB6Thgq5j-jEiPZjwDdqFIqMuUQl3t2xOxYfF30bg5zqQVArkvrklzjfrG-MTTCnlw6QYcaIBcFjR0OtcrFydx2FOIAOmI35lMJSbAdbvkOmKaAat_eqBWFuHN6PAI-DpetxkL6mzNxJstrZvNHuRPDa9DWuNa8wwRstSB35sh623J5KUawBc19RhjpoUX1ZoA89vLvcyCxxVhZllcvAtdtV3OyV6uoj9slSGLIswSpSjtDwd4Qf4SzGEj2JDHcDS160MIgkEMcTVfgCjZR6iItfTNmctrHmXxp3npfPGsMC2ZEsXdOXhY-zfjnZkgpLaCiAVUeeMgyHmyYMPWKkDLUQwfM-yB4aCe8AdD72meXawMD0ykpP5yCjXPNxeaMTze6yKx4Zicc5zoUK0xUTz9A43uIkXtwYOsSeCJZxYCnoq-G1zn_XU2rdRccosXwHIciYfmSWwdBQFmuMH_eV]--></g></svg>