<svg xmlns="http://www.w3.org/2000/svg" xmlns:xlink="http://www.w3.org/1999/xlink" contentStyleType="text/css" data-diagram-type="ACTIVITY" height="2473.125px" preserveAspectRatio="none" style="width:1250px;height:2473px;background:#FEFEFE;" version="1.1" viewBox="0 0 1250 2473" width="1250.625px" zoomAndPan="magnify"><title>**MicrOSAL &#8212; Build &amp; Compilation Flow**</title><defs/><g><rect fill="#FEFEFE" height="2473.125" style="stroke:none;stroke-width:1.875;" width="1250.625" x="0" y="0"/><g class="title" data-source-line="8"><text fill="#000000" font-family="'Segoe UI'" font-size="41.25" font-weight="bold" lengthAdjust="spacing" textLength="878.1738" x="183.685" y="81.4142">MicrOSAL &#8212; Build &amp; Compilation Flow</text></g><ellipse cx="549.7668" cy="145.5176" fill="#FFFFFF" rx="18.75" ry="18.75" style="stroke:#000000;stroke-width:1.875;"/><path d="M828.252,183.0176 L828.252,242.4536 L790.752,249.9536 L828.252,257.4536 L828.252,316.8896 A0,0 0 0 0 828.252,316.8896 L1238.0438,316.8896 A0,0 0 0 0 1238.0438,316.8896 L1238.0438,201.7676 L1219.2938,183.0176 L828.252,183.0176 A0,0 0 0 0 828.252,183.0176" fill="#FFFFFF" style="stroke:#000000;stroke-width:1.875;"/><path d="M1219.2938,183.0176 L1219.2938,201.7676 L1238.0438,201.7676 L1219.2938,183.0176" fill="#FFFFFF" style="stroke:#000000;stroke-width:1.875;"/><text fill="#000000" font-family="'Segoe UI'" font-size="24.375" lengthAdjust="spacing" textLength="182.146" x="854.502" y="230.018">cmake -B build</text><text fill="#000000" font-family="'Segoe UI'" font-size="24.375" lengthAdjust="spacing" textLength="317.4344" x="869.9982" y="258.392">-DOSAL_BACKEND=LINUX</text><text fill="#000000" font-family="'Segoe UI'" font-size="24.375" lengthAdjust="spacing" textLength="324.9207" x="869.9982" y="286.7661">-DOSAL_BUILD_TESTS=ON</text><rect fill="#E3F2FD" height="95.874" rx="23.4375" ry="23.4375" style="stroke:#1565C0;stroke-width:1.875;" width="481.9702" x="308.7817" y="202.0166"/><text fill="#000000" font-family="'Segoe UI'" font-size="24.375" lengthAdjust="spacing" textLength="414.4702" x="342.5317" y="258.392">Developer sets backend in CMake</text><path d="M803.4604,335.6396 L803.4604,409.2627 L765.9604,416.7627 L803.4604,424.2627 L803.4604,497.8857 A0,0 0 0 0 803.4604,497.8857 L1226.7371,497.8857 A0,0 0 0 0 1226.7371,497.8857 L1226.7371,354.3896 L1207.9871,335.6396 L803.4604,335.6396 A0,0 0 0 0 803.4604,335.6396" fill="#FFFFFF" style="stroke:#000000;stroke-width:1.875;"/><path d="M1207.9871,335.6396 L1207.9871,354.3896 L1226.7371,354.3896 L1207.9871,335.6396" fill="#FFFFFF" style="stroke:#000000;stroke-width:1.875;"/><text fill="#000000" font-family="'Segoe UI'" font-size="24.375" lengthAdjust="spacing" textLength="285.6921" x="829.7104" y="382.6401">OSAL_BACKEND_SRC =</text><text fill="#000000" font-family="'Segoe UI'" font-size="24.375" lengthAdjust="spacing" textLength="338.4055" x="845.2066" y="411.0141">src/linux/linux_backend.cpp</text><text fill="#000000" font-family="'Segoe UI'" font-size="24.375" lengthAdjust="spacing" textLength="327.1106" x="829.7104" y="439.3881">OSAL_BACKEND_MACRO =</text><text fill="#000000" font-family="'Segoe UI'" font-size="24.375" lengthAdjust="spacing" textLength="281.6336" x="845.2066" y="467.7621">OSAL_BACKEND_LINUX</text><rect fill="#E3F2FD" height="124.248" rx="23.4375" ry="23.4375" style="stroke:#1565C0;stroke-width:1.875;" width="432.3871" x="333.5733" y="354.6387"/><text fill="#000000" font-family="'Segoe UI'" font-size="24.375" lengthAdjust="spacing" textLength="364.8871" x="367.3233" y="411.0141">CMakeLists.txt maps backend</text><text fill="#000000" font-family="'Segoe UI'" font-size="24.375" lengthAdjust="spacing" textLength="252.0694" x="367.3233" y="439.3881">to source and macro</text><rect fill="#000000" height="11.25" rx="4.6875" ry="4.6875" style="stroke:#000000;stroke-width:1.875;" width="1077.0337" x="11.25" y="535.3857"/><rect fill="#E3F2FD" height="152.6221" rx="23.4375" ry="23.4375" style="stroke:#1565C0;stroke-width:1.875;" width="463.9508" x="37.5" y="584.1357"/><text fill="#000000" font-family="'Segoe UI'" font-size="24.375" lengthAdjust="spacing" textLength="99.6899" x="71.25" y="640.5112">Compile</text><text fill="#000000" font-family="'Segoe UI'" font-size="24.375" font-weight="bold" lengthAdjust="spacing" textLength="219.0775" x="178.688" y="640.5112">header-only API</text><text fill="#000000" font-family="'Segoe UI'" font-size="24.375" lengthAdjust="spacing" textLength="396.4508" x="71.25" y="668.8852">(osal.hpp includes all primitives)</text><text fill="#000000" font-family="'Segoe UI'" font-size="24.375" lengthAdjust="spacing" textLength="367.5769" x="71.25" y="697.2592">&#8594; all resolved at compile time</text><rect fill="#E3F2FD" height="152.6221" rx="23.4375" ry="23.4375" style="stroke:#1565C0;stroke-width:1.875;" width="508.0829" x="553.9508" y="584.1357"/><text fill="#000000" font-family="'Segoe UI'" font-size="24.375" lengthAdjust="spacing" textLength="99.6899" x="587.7008" y="640.5112">Compile</text><text fill="#000000" font-family="'Segoe UI'" font-size="24.375" font-weight="bold" lengthAdjust="spacing" textLength="242.0956" x="695.1389" y="640.5112">one backend .cpp</text><text fill="#000000" font-family="'Segoe UI'" font-size="24.375" lengthAdjust="spacing" textLength="440.5829" x="587.7008" y="668.8852">with OSAL_BACKEND_LINUX defined</text><text fill="#000000" font-family="'Segoe UI'" font-size="24.375" lengthAdjust="spacing" textLength="426.7767" x="587.7008" y="697.2592">&#8594; implements extern "C" functions</text><rect fill="#000000" height="11.25" rx="4.6875" ry="4.6875" style="stroke:#000000;stroke-width:1.875;" width="1077.0337" x="11.25" y="774.2578"/><polygon fill="#E3F2FD" points="326.776,823.0078,772.7577,823.0078,795.2577,852.1948,772.7577,881.3818,326.776,881.3818,304.276,852.1948,326.776,823.0078" style="stroke:#1565C0;stroke-width:1.875;"/><text fill="#000000" font-family="'Segoe UI'" font-size="24.375" lengthAdjust="spacing" textLength="415.9818" x="341.776" y="860.6332">Backend uses shared emulations?</text><text fill="#000000" font-family="'Segoe UI'" font-size="24.375" lengthAdjust="spacing" textLength="42.1207" x="247.1553" y="831.4462">yes</text><text fill="#000000" font-family="'Segoe UI'" font-size="24.375" lengthAdjust="spacing" textLength="30.3616" x="810.2577" y="831.4462">no</text><rect fill="#E3F2FD" height="209.3701" rx="23.4375" ry="23.4375" style="stroke:#1565C0;stroke-width:1.875;" width="406.203" x="82.4245" y="900.1318"/><text fill="#000000" font-family="'Segoe UI'" font-size="24.375" lengthAdjust="spacing" textLength="164.9359" x="116.1745" y="956.5073">Backend .cpp</text><text fill="#000000" font-family="'Segoe UI'" font-size="24.375" font-weight="bold" lengthAdjust="spacing" textLength="134.7766" x="296.6066" y="956.5073">#includes</text><text fill="#000000" font-family="'Segoe UI'" font-size="24.375" lengthAdjust="spacing" textLength="320.1361" x="116.1745" y="984.8813">emulated_work_queue.inl,</text><text fill="#000000" font-family="'Segoe UI'" font-size="24.375" lengthAdjust="spacing" textLength="271.2195" x="116.1745" y="1013.2553">emulated_condvar.inl,</text><text fill="#000000" font-family="'Segoe UI'" font-size="24.375" lengthAdjust="spacing" textLength="338.703" x="116.1745" y="1041.6293">emulated_memory_pool.inl,</text><text fill="#000000" font-family="'Segoe UI'" font-size="24.375" lengthAdjust="spacing" textLength="330.7645" x="116.1745" y="1070.0034">and/or emulated_rwlock.inl</text><rect fill="#E3F2FD" height="124.248" rx="23.4375" ry="23.4375" style="stroke:#1565C0;stroke-width:1.875;" width="357.215" x="635.4002" y="900.1318"/><text fill="#000000" font-family="'Segoe UI'" font-size="24.375" lengthAdjust="spacing" textLength="262.9358" x="669.1502" y="956.5073">Backend provides full</text><text fill="#000000" font-family="'Segoe UI'" font-size="24.375" lengthAdjust="spacing" textLength="289.715" x="669.1502" y="984.8813">native implementations</text><polygon fill="#E3F2FD" points="549.7668,1128.252,572.2668,1150.752,549.7668,1173.252,527.2668,1150.752,549.7668,1128.252" style="stroke:#1565C0;stroke-width:1.875;"/><rect fill="#E3F2FD" height="152.6221" rx="23.4375" ry="23.4375" style="stroke:#1565C0;stroke-width:1.875;" width="398.5858" x="350.4739" y="1210.752"/><text fill="#000000" font-family="'Segoe UI'" font-size="24.375" lengthAdjust="spacing" textLength="318.5889" x="384.2239" y="1267.1274">Linker resolves extern "C"</text><text fill="#000000" font-family="'Segoe UI'" font-size="24.375" lengthAdjust="spacing" textLength="305.6635" x="384.2239" y="1295.5014">symbols from header API</text><text fill="#000000" font-family="'Segoe UI'" font-size="24.375" lengthAdjust="spacing" textLength="331.0858" x="384.2239" y="1323.8754">to backend .cpp definitions</text><rect fill="#E3F2FD" height="124.248" rx="23.4375" ry="23.4375" style="stroke:#1565C0;stroke-width:1.875;" width="355.751" x="371.8913" y="1400.874"/><text fill="#000000" font-family="'Segoe UI'" font-size="24.375" lengthAdjust="spacing" textLength="104.3555" x="405.6413" y="1457.2495">Link into</text><text fill="#000000" font-family="'Segoe UI'" font-size="24.375" font-weight="bold" lengthAdjust="spacing" textLength="176.1475" x="517.7449" y="1457.2495">libmicrosal.a</text><text fill="#000000" font-family="'Segoe UI'" font-size="24.375" lengthAdjust="spacing" textLength="172.1127" x="405.6413" y="1485.6235">(static library)</text><polygon fill="#E3F2FD" points="379.6202,1562.6221,719.9135,1562.6221,742.4135,1591.8091,719.9135,1620.9961,379.6202,1620.9961,357.1202,1591.8091,379.6202,1562.6221" style="stroke:#1565C0;stroke-width:1.875;"/><text fill="#000000" font-family="'Segoe UI'" font-size="24.375" lengthAdjust="spacing" textLength="310.2933" x="394.6202" y="1600.2475">OSAL_BUILD_TESTS=ON?</text><text fill="#000000" font-family="'Segoe UI'" font-size="24.375" lengthAdjust="spacing" textLength="42.1207" x="299.9995" y="1571.0605">yes</text><text fill="#000000" font-family="'Segoe UI'" font-size="24.375" lengthAdjust="spacing" textLength="30.3616" x="757.4135" y="1571.0605">no</text><rect fill="#E3F2FD" height="124.248" rx="23.4375" ry="23.4375" style="stroke:#1565C0;stroke-width:1.875;" width="377.46" x="139.1156" y="1639.7461"/><text fill="#000000" font-family="'Segoe UI'" font-size="24.375" lengthAdjust="spacing" textLength="309.96" x="172.8656" y="1696.1215">Build 15 test executables</text><text fill="#000000" font-family="'Segoe UI'" font-size="24.375" lengthAdjust="spacing" textLength="248.6298" x="172.8656" y="1724.4955">(doctest framework)</text><rect fill="#E3F2FD" height="95.874" rx="23.4375" ry="23.4375" style="stroke:#1565C0;stroke-width:1.875;" width="305.3229" x="175.1842" y="1801.4941"/><text fill="#000000" font-family="'Segoe UI'" font-size="24.375" lengthAdjust="spacing" textLength="237.8229" x="208.9342" y="1857.8696">Register with CTest</text><rect fill="#E3F2FD" height="95.874" rx="23.4375" ry="23.4375" style="stroke:#1565C0;stroke-width:1.875;" width="191.8744" x="231.9085" y="1934.8682"/><text fill="#000000" font-family="'Segoe UI'" font-size="24.375" lengthAdjust="spacing" textLength="47.8336" x="265.6585" y="1991.2436">Run</text><text fill="#000000" font-family="'Segoe UI'" font-size="24.375" font-weight="bold" lengthAdjust="spacing" textLength="68.7927" x="321.2401" y="1991.2436">ctest</text><polygon fill="#E3F2FD" points="225.8609,2068.2422,429.8304,2068.2422,452.3304,2097.4292,429.8304,2126.6162,225.8609,2126.6162,203.3609,2097.4292,225.8609,2068.2422" style="stroke:#1565C0;stroke-width:1.875;"/><text fill="#000000" font-family="'Segoe UI'" font-size="24.375" lengthAdjust="spacing" textLength="173.9694" x="240.8609" y="2105.8676">All tests pass?</text><text fill="#000000" font-family="'Segoe UI'" font-size="24.375" lengthAdjust="spacing" textLength="42.1207" x="146.2403" y="2076.6806">yes</text><text fill="#000000" font-family="'Segoe UI'" font-size="24.375" lengthAdjust="spacing" textLength="30.3616" x="467.3304" y="2076.6806">no</text><rect fill="#C8E6C9" height="95.874" rx="23.4375" ry="23.4375" style="stroke:#1565C0;stroke-width:1.875;" width="290.755" x="32.7568" y="2145.3662"/><text fill="#000000" font-family="'Segoe UI'" font-size="24.375" lengthAdjust="spacing" textLength="223.255" x="66.5068" y="2201.7416">&#10003; Build successful</text><rect fill="#FFCDD2" height="95.874" rx="23.4375" ry="23.4375" style="stroke:#1565C0;stroke-width:1.875;" width="233.0905" x="361.0118" y="2145.3662"/><text fill="#000000" font-family="'Segoe UI'" font-size="24.375" lengthAdjust="spacing" textLength="165.5905" x="394.7618" y="2201.7416">&#10007; Test failure</text><ellipse cx="477.557" cy="2299.3652" fill="none" rx="20.625" ry="20.625" style="stroke:#000000;stroke-width:1.875;"/><ellipse cx="477.557" cy="2299.3652" fill="#FFFFFF" rx="11.25" ry="11.25" style="stroke:#000000;stroke-width:1.875;"/><rect fill="#C8E6C9" height="95.874" rx="23.4375" ry="23.4375" style="stroke:#1565C0;stroke-width:1.875;" width="242.6715" x="650.3523" y="1639.7461"/><text fill="#000000" font-family="'Segoe UI'" font-size="24.375" lengthAdjust="spacing" textLength="175.1715" x="684.1023" y="1696.1215">&#10003; Library built</text><polygon fill="#E3F2FD" points="549.7668,2338.7402,572.2668,2361.2402,549.7668,2383.7402,527.2668,2361.2402,549.7668,2338.7402" style="stroke:#1565C0;stroke-width:1.875;"/><ellipse cx="549.7668" cy="2441.8652" fill="none" rx="20.625" ry="20.625" style="stroke:#000000;stroke-width:1.875;"/><ellipse cx="549.7668" cy="2441.8652" fill="#FFFFFF" rx="11.25" ry="11.25" style="stroke:#000000;stroke-width:1.875;"/><line style="stroke:#000000;stroke-width:1.875;" x1="549.7668" x2="549.7668" y1="164.2676" y2="202.0166"/><polygon fill="#000000" points="542.2668,183.2666,549.7668,202.0166,557.2668,183.2666,549.7668,190.7666" style="stroke:#000000;stroke-width:1.875;"/><line style="stroke:#000000;stroke-width:1.875;" x1="549.7668" x2="549.7668" y1="297.8906" y2="354.6387"/><polygon fill="#000000" points="542.2668,335.8887,549.7668,354.6387,557.2668,335.8887,549.7668,343.3887" style="stroke:#000000;stroke-width:1.875;"/><line style="stroke:#000000;stroke-width:1.875;" x1="269.4754" x2="269.4754" y1="546.6357" y2="584.1357"/><polygon fill="#000000" points="261.9754,565.3857,269.4754,584.1357,276.9754,565.3857,269.4754,572.8857" style="stroke:#000000;stroke-width:1.875;"/><line style="stroke:#000000;stroke-width:1.875;" x1="807.9922" x2="807.9922" y1="546.6357" y2="584.1357"/><polygon fill="#000000" points="800.4922,565.3857,807.9922,584.1357,815.4922,565.3857,807.9922,572.8857" style="stroke:#000000;stroke-width:1.875;"/><line style="stroke:#000000;stroke-width:1.875;" x1="269.4754" x2="269.4754" y1="736.7578" y2="774.2578"/><polygon fill="#000000" points="261.9754,755.5078,269.4754,774.2578,276.9754,755.5078,269.4754,763.0078" style="stroke:#000000;stroke-width:1.875;"/><line style="stroke:#000000;stroke-width:1.875;" x1="807.9922" x2="807.9922" y1="736.7578" y2="774.2578"/><polygon fill="#000000" points="800.4922,755.5078,807.9922,774.2578,815.4922,755.5078,807.9922,763.0078" style="stroke:#000000;stroke-width:1.875;"/><line style="stroke:#000000;stroke-width:1.875;" x1="549.7668" x2="549.7668" y1="478.8867" y2="535.3857"/><polygon fill="#000000" points="542.2668,516.6357,549.7668,535.3857,557.2668,516.6357,549.7668,524.1357" style="stroke:#000000;stroke-width:1.875;"/><line style="stroke:#000000;stroke-width:1.875;" x1="304.276" x2="285.526" y1="852.1948" y2="852.1948"/><line style="stroke:#000000;stroke-width:1.875;" x1="285.526" x2="285.526" y1="852.1948" y2="900.1318"/><polygon fill="#000000" points="278.026,881.3818,285.526,900.1318,293.026,881.3818,285.526,888.8818" style="stroke:#000000;stroke-width:1.875;"/><line style="stroke:#000000;stroke-width:1.875;" x1="795.2577" x2="814.0077" y1="852.1948" y2="852.1948"/><line style="stroke:#000000;stroke-width:1.875;" x1="814.0077" x2="814.0077" y1="852.1948" y2="900.1318"/><polygon fill="#000000" points="806.5077,881.3818,814.0077,900.1318,821.5077,881.3818,814.0077,888.8818" style="stroke:#000000;stroke-width:1.875;"/><line style="stroke:#000000;stroke-width:1.875;" x1="285.526" x2="285.526" y1="1109.502" y2="1150.752"/><line style="stroke:#000000;stroke-width:1.875;" x1="285.526" x2="527.2668" y1="1150.752" y2="1150.752"/><polygon fill="#000000" points="508.5168,1143.252,527.2668,1150.752,508.5168,1158.252,516.0168,1150.752" style="stroke:#000000;stroke-width:1.875;"/><line style="stroke:#000000;stroke-width:1.875;" x1="814.0077" x2="814.0077" y1="1024.3799" y2="1150.752"/><line style="stroke:#000000;stroke-width:1.875;" x1="814.0077" x2="572.2668" y1="1150.752" y2="1150.752"/><polygon fill="#000000" points="591.0168,1143.252,572.2668,1150.752,591.0168,1158.252,583.5168,1150.752" style="stroke:#000000;stroke-width:1.875;"/><line style="stroke:#000000;stroke-width:1.875;" x1="549.7668" x2="549.7668" y1="785.5078" y2="823.0078"/><polygon fill="#000000" points="542.2668,804.2578,549.7668,823.0078,557.2668,804.2578,549.7668,811.7578" style="stroke:#000000;stroke-width:1.875;"/><line style="stroke:#000000;stroke-width:1.875;" x1="549.7668" x2="549.7668" y1="1173.252" y2="1210.752"/><polygon fill="#000000" points="542.2668,1192.002,549.7668,1210.752,557.2668,1192.002,549.7668,1199.502" style="stroke:#000000;stroke-width:1.875;"/><line style="stroke:#000000;stroke-width:1.875;" x1="549.7668" x2="549.7668" y1="1363.374" y2="1400.874"/><polygon fill="#000000" points="542.2668,1382.124,549.7668,1400.874,557.2668,1382.124,549.7668,1389.624" style="stroke:#000000;stroke-width:1.875;"/><line style="stroke:#000000;stroke-width:1.875;" x1="327.8456" x2="327.8456" y1="1763.9941" y2="1801.4941"/><polygon fill="#000000" points="320.3456,1782.7441,327.8456,1801.4941,335.3456,1782.7441,327.8456,1790.2441" style="stroke:#000000;stroke-width:1.875;"/><line style="stroke:#000000;stroke-width:1.875;" x1="327.8456" x2="327.8456" y1="1897.3682" y2="1934.8682"/><polygon fill="#000000" points="320.3456,1916.1182,327.8456,1934.8682,335.3456,1916.1182,327.8456,1923.6182" style="stroke:#000000;stroke-width:1.875;"/><line style="stroke:#000000;stroke-width:1.875;" x1="477.557" x2="477.557" y1="2241.2402" y2="2278.7402"/><polygon fill="#000000" points="470.057,2259.9902,477.557,2278.7402,485.057,2259.9902,477.557,2267.4902" style="stroke:#000000;stroke-width:1.875;"/><line style="stroke:#000000;stroke-width:1.875;" x1="203.3609" x2="178.1343" y1="2097.4292" y2="2097.4292"/><line style="stroke:#000000;stroke-width:1.875;" x1="178.1343" x2="178.1343" y1="2097.4292" y2="2145.3662"/><polygon fill="#000000" points="170.6343,2126.6162,178.1343,2145.3662,185.6343,2126.6162,178.1343,2134.1162" style="stroke:#000000;stroke-width:1.875;"/><line style="stroke:#000000;stroke-width:1.875;" x1="452.3304" x2="477.557" y1="2097.4292" y2="2097.4292"/><line style="stroke:#000000;stroke-width:1.875;" x1="477.557" x2="477.557" y1="2097.4292" y2="2145.3662"/><polygon fill="#000000" points="470.057,2126.6162,477.557,2145.3662,485.057,2126.6162,477.557,2134.1162" style="stroke:#000000;stroke-width:1.875;"/><line style="stroke:#000000;stroke-width:1.875;" x1="178.1343" x2="178.1343" y1="2241.2402" y2="2361.2402"/><line style="stroke:#000000;stroke-width:1.875;" x1="178.1343" x2="527.2668" y1="2361.2402" y2="2361.2402"/><polygon fill="#000000" points="508.5168,2353.7402,527.2668,2361.2402,508.5168,2368.7402,516.0168,2361.2402" style="stroke:#000000;stroke-width:1.875;"/><line style="stroke:#000000;stroke-width:1.875;" x1="327.8456" x2="327.8456" y1="2030.7422" y2="2068.2422"/><polygon fill="#000000" points="320.3456,2049.4922,327.8456,2068.2422,335.3456,2049.4922,327.8456,2056.9922" style="stroke:#000000;stroke-width:1.875;"/><line style="stroke:#000000;stroke-width:1.875;" x1="357.1202" x2="327.8456" y1="1591.8091" y2="1591.8091"/><line style="stroke:#000000;stroke-width:1.875;" x1="327.8456" x2="327.8456" y1="1591.8091" y2="1639.7461"/><polygon fill="#000000" points="320.3456,1620.9961,327.8456,1639.7461,335.3456,1620.9961,327.8456,1628.4961" style="stroke:#000000;stroke-width:1.875;"/><line style="stroke:#000000;stroke-width:1.875;" x1="742.4135" x2="771.688" y1="1591.8091" y2="1591.8091"/><line style="stroke:#000000;stroke-width:1.875;" x1="771.688" x2="771.688" y1="1591.8091" y2="1639.7461"/><polygon fill="#000000" points="764.188,1620.9961,771.688,1639.7461,779.188,1620.9961,771.688,1628.4961" style="stroke:#000000;stroke-width:1.875;"/><line style="stroke:#000000;stroke-width:1.875;" x1="771.688" x2="771.688" y1="1735.6201" y2="2361.2402"/><line style="stroke:#000000;stroke-width:1.875;" x1="771.688" x2="572.2668" y1="2361.2402" y2="2361.2402"/><polygon fill="#000000" points="591.0168,2353.7402,572.2668,2361.2402,591.0168,2368.7402,583.5168,2361.2402" style="stroke:#000000;stroke-width:1.875;"/><line style="stroke:#000000;stroke-width:1.875;" x1="549.7668" x2="549.7668" y1="1525.1221" y2="1562.6221"/><polygon fill="#000000" points="542.2668,1543.8721,549.7668,1562.6221,557.2668,1543.8721,549.7668,1551.3721" style="stroke:#000000;stroke-width:1.875;"/><line style="stroke:#000000;stroke-width:1.875;" x1="549.7668" x2="549.7668" y1="2383.7402" y2="2421.2402"/><polygon fill="#000000" points="542.2668,2402.4902,549.7668,2421.2402,557.2668,2402.4902,549.7668,2409.9902" style="stroke:#000000;stroke-width:1.875;"/><!--SRC=[RLHDJzj04BtxLmmWLS4geQK2jI1K9KuYHGsX8a7gpTgi9yagwrrtFn9owwa_eAtKItyTlwIpjW47KAGSPcVUl9dtndjkYJb28PbGqPvGNFeC8JMeCZHfOVHSI6mNFfUHNGbLCCDoc36-MXZjLPPegGqS3FhXryZ8SCwyT0Ejt9WH_lu45nhXThZVIEfm9zR2RRlFuVeV1YU3tckPsX2jEklzwTbfyYwAd70I8Owl13VNayu8xd_yWQuNCeCtaEYy498veHKCfDx4SHHPnuoBelCUhb7g0WrOTBQSYiO6eI2vOYkyY9Hs24OibYu2u3d5uAWBim1D0O2ZNkYNTZl9b_wuTpaQZc-_xJpS3aUzTDgVJ2UNr-CeW0T8Qbqs60dhRDlTESXPyTW_SXgizeOZC2h86JVw6PLcrtHoay1bsTKQVYo5ydVLVre3jdbHF2-wwYGtrtNPpaCrmnFJkJOhoZglzXZMl4H66Xnf9RVG-JgaXGAqj6MolImAg1raWKa9XH6v8ENG7bBI_SzVPTIWrNAD6J07l8Pr8gTzXsR05i6AEosrmaTrmZHbpurmorUu1-i9XLdTKEI598ChqXVl71e5-ya-pBtYmHBseXor738ISsXrwoxUqWXsoGpHnDnN1hAV3u7EHK5hMqrqtcsG0Y9wy31-oR0gn2pT47xwtQF7jb3oRVE9QvMjcNaHpp7NPfiMMik7DtB3CVd-CSLifEQhy4fJI8lGKdg75LtlMWGjvbvAUb0iQF6q4lQq0Z4dKuw4Mj4nrFeq5nRPRJxJaf2Cpg5oG10_UBKfJBLyKUDMY6G9oefZAMOvNMZf54RxQTb0W0F53JFRmujAWLSEv-NQo-D-VmeEhIEQoBrZCuasM37Jl0pFwSE1OVE4J3KtkA1p8zgbRv8ffLHnhuXSMHB78H98TCYc8MAXOFQ5x007oSV-MVBf_FxVx_fBOptdQ2rjEc0qvQ3imI3fzKue-ozCIsfCI6_mehfQfyDvLY8q2vjDHjMIoc-FUrIiBFqF]--></g></svg>