<?plantuml 1.2026.1?><svg xmlns="http://www.w3.org/2000/svg" xmlns:xlink="http://www.w3.org/1999/xlink" contentStyleType="text/css" data-diagram-type="DESCRIPTION" height="906.8798px" preserveAspectRatio="none" style="width:2250px;height:906px;background:#FFFFFF;" version="1.1" viewBox="0 0 2250 906" width="2250.5212px" zoomAndPan="magnify"><title>micrOSAL Bus + Signal Layer &#8212; Architecture</title><defs/><g><g class="title" data-source-line="3"><text fill="#000000" font-family="'Segoe UI'" font-size="14.5935" font-weight="bold" lengthAdjust="spacing" textLength="366.5397" x="934.9546" y="32.309">micrOSAL Bus + Signal Layer &#8212; Architecture</text></g><!--cluster Bus / Signal API--><g class="cluster" data-qualified-name="Bus . Signal API" data-source-line="10" id="ent0005"><path d="M273.6275,298.4332 L411.4949,298.4332 A3.909,3.909 0 0 1 414.1008,301.0391 L421.3976,337.14 L988.1862,337.14 A2.606,2.606 0 0 1 990.7922,339.746 L990.7922,522.0259 A2.606,2.606 0 0 1 988.1862,524.6319 L273.6275,524.6319 A2.606,2.606 0 0 1 271.0215,522.0259 L271.0215,301.0391 A2.606,2.606 0 0 1 273.6275,298.4332" fill="none" style="stroke:#000000;stroke-width:1.5636;"/><line style="stroke:#000000;stroke-width:1.5636;" x1="271.0215" x2="421.3976" y1="337.14" y2="337.14"/><text fill="#000000" font-family="'Segoe UI'" font-size="13.5511" font-weight="bold" lengthAdjust="spacing" textLength="120.1467" x="283.5302" y="321.4355">Bus / Signal API</text></g><!--cluster Implemented Runtime--><g class="cluster" data-qualified-name="Implemented Runtime" data-source-line="16" id="ent0009"><path d="M1171.647,87.8703 L1359.2722,87.8703 A3.909,3.909 0 0 1 1361.8782,90.4762 L1369.1749,126.5772 L1888.8117,126.5772 A2.606,2.606 0 0 1 1891.4177,129.1831 L1891.4177,450.101 A2.606,2.606 0 0 1 1888.8117,452.707 L1171.647,452.707 A2.606,2.606 0 0 1 1169.041,450.101 L1169.041,90.4762 A2.606,2.606 0 0 1 1171.647,87.8703" fill="none" style="stroke:#000000;stroke-width:1.5636;"/><line style="stroke:#000000;stroke-width:1.5636;" x1="1169.041" x2="1369.1749" y1="126.5772" y2="126.5772"/><text fill="#000000" font-family="'Segoe UI'" font-size="13.5511" font-weight="bold" lengthAdjust="spacing" textLength="169.9046" x="1181.5497" y="110.8726">Implemented Runtime</text></g><!--cluster Premium Helpers--><g class="cluster" data-qualified-name="Premium Helpers" data-source-line="23" id="ent0014"><path d="M762.5087,549.6493 L912.1009,549.6493 A3.909,3.909 0 0 1 914.7069,552.2553 L922.0036,588.3562 L983.4955,588.3562 A2.606,2.606 0 0 1 986.1015,590.9621 L986.1015,897.2865 A2.606,2.606 0 0 1 983.4955,899.8925 L762.5087,899.8925 A2.606,2.606 0 0 1 759.9027,897.2865 L759.9027,552.2553 A2.606,2.606 0 0 1 762.5087,549.6493" fill="none" style="stroke:#000000;stroke-width:1.5636;"/><line style="stroke:#000000;stroke-width:1.5636;" x1="759.9027" x2="922.0036" y1="588.3562" y2="588.3562"/><text fill="#000000" font-family="'Segoe UI'" font-size="13.5511" font-weight="bold" lengthAdjust="spacing" textLength="131.8716" x="772.4114" y="572.6516">Premium Helpers</text></g><!--cluster Planned Zephyr Native Path--><g class="cluster" data-qualified-name="Planned Zephyr Native Path" data-source-line="29" id="ent0018"><path d="M1637.5956,536.0982 L1870.0889,536.0982 A3.909,3.909 0 0 1 1872.6948,538.7042 L1879.9916,574.8051 L2232.8006,574.8051 A2.606,2.606 0 0 1 2235.4065,577.4111 L2235.4065,759.691 A2.606,2.606 0 0 1 2232.8006,762.297 L1637.5956,762.297 A2.606,2.606 0 0 1 1634.9896,759.691 L1634.9896,538.7042 A2.606,2.606 0 0 1 1637.5956,536.0982" fill="none" style="stroke:#000000;stroke-width:1.5636;"/><line style="stroke:#000000;stroke-width:1.5636;" x1="1634.9896" x2="1879.9916" y1="574.8051" y2="574.8051"/><text fill="#000000" font-family="'Segoe UI'" font-size="13.5511" font-weight="bold" lengthAdjust="spacing" textLength="214.7727" x="1647.4983" y="559.1005">Planned Zephyr Native Path</text></g><!--cluster MicrOSAL Primitives--><g class="cluster" data-qualified-name="MicrOSAL Primitives" data-source-line="35" id="ent0022"><path d="M2023.2801,203.5756 L2196.2029,203.5756 A3.909,3.909 0 0 1 2198.8089,206.1816 L2206.1056,242.2825 L2241.1397,242.2825 A2.606,2.606 0 0 1 2243.7457,244.8885 L2243.7457,427.1684 A2.606,2.606 0 0 1 2241.1397,429.7744 L2023.2801,429.7744 A2.606,2.606 0 0 1 2020.6741,427.1684 L2020.6741,206.1816 A2.606,2.606 0 0 1 2023.2801,203.5756" fill="none" style="stroke:#000000;stroke-width:1.5636;"/><line style="stroke:#000000;stroke-width:1.5636;" x1="2020.6741" x2="2206.1056" y1="242.2825" y2="242.2825"/><text fill="#000000" font-family="'Segoe UI'" font-size="13.5511" font-weight="bold" lengthAdjust="spacing" textLength="155.2022" x="2033.1828" y="226.5779">MicrOSAL Primitives</text></g><!--entity BUS--><g class="entity" data-qualified-name="Bus . Signal API.BUS" data-source-line="11" id="ent0006"><rect fill="#F1F1F1" height="63.7243" rx="2.606" ry="2.606" style="stroke:#181818;stroke-width:0.5212;" width="215.6405" x="315.3231" y="351.0739"/><rect fill="#F1F1F1" height="10.4239" style="stroke:#181818;stroke-width:0.5212;" width="15.6359" x="510.1158" y="356.2858"/><rect fill="#F1F1F1" height="2.0848" style="stroke:#181818;stroke-width:0.5212;" width="4.1696" x="508.031" y="358.3706"/><rect fill="#F1F1F1" height="2.0848" style="stroke:#181818;stroke-width:0.5212;" width="4.1696" x="508.031" y="362.5402"/><text fill="#000000" font-family="'Segoe UI'" font-size="13.5511" lengthAdjust="spacing" textLength="157.2666" x="339.2981" y="392.8392">osal_bus&lt;T, Capacity&gt;</text></g><!--entity SIGNAL--><g class="entity" data-qualified-name="Bus . Signal API.SIGNAL" data-source-line="12" id="ent0007"><rect fill="#F1F1F1" height="63.7243" rx="2.606" ry="2.606" style="stroke:#181818;stroke-width:0.5212;" width="202.6981" x="771.8902" y="351.0739"/><rect fill="#F1F1F1" height="10.4239" style="stroke:#181818;stroke-width:0.5212;" width="15.6359" x="953.7405" y="356.2858"/><rect fill="#F1F1F1" height="2.0848" style="stroke:#181818;stroke-width:0.5212;" width="4.1696" x="951.6557" y="358.3706"/><rect fill="#F1F1F1" height="2.0848" style="stroke:#181818;stroke-width:0.5212;" width="4.1696" x="951.6557" y="362.5402"/><text fill="#000000" font-family="'Segoe UI'" font-size="13.5511" lengthAdjust="spacing" textLength="144.3243" x="795.8652" y="392.8392">osal_signal&lt;T, N, M&gt;</text></g><!--entity PREMIUM--><g class="entity" data-qualified-name="Bus . Signal API.PREMIUM" data-source-line="13" id="ent0008"><rect fill="#F1F1F1" height="63.7243" rx="2.606" ry="2.606" style="stroke:#181818;stroke-width:0.5212;" width="270.738" x="287.6998" y="443.8466"/><rect fill="#F1F1F1" height="10.4239" style="stroke:#181818;stroke-width:0.5212;" width="15.6359" x="537.59" y="449.0586"/><rect fill="#F1F1F1" height="2.0848" style="stroke:#181818;stroke-width:0.5212;" width="4.1696" x="535.5052" y="451.1434"/><rect fill="#F1F1F1" height="2.0848" style="stroke:#181818;stroke-width:0.5212;" width="4.1696" x="535.5052" y="455.3129"/><text fill="#000000" font-family="'Segoe UI'" font-size="13.5511" lengthAdjust="spacing" textLength="212.3642" x="311.6748" y="485.612">osal_signal_premium&lt;T, N, M&gt;</text></g><!--entity GEN--><g class="entity" data-qualified-name="Implemented Runtime.GEN" data-source-line="17" id="ent0010"><rect fill="#F1F1F1" height="79.4986" rx="2.606" ry="2.606" style="stroke:#181818;stroke-width:0.5212;" width="212.3056" x="1662.0917" y="248.3984"/><rect fill="#F1F1F1" height="10.4239" style="stroke:#181818;stroke-width:0.5212;" width="15.6359" x="1853.5496" y="253.6104"/><rect fill="#F1F1F1" height="2.0848" style="stroke:#181818;stroke-width:0.5212;" width="4.1696" x="1851.4648" y="255.6951"/><rect fill="#F1F1F1" height="2.0848" style="stroke:#181818;stroke-width:0.5212;" width="4.1696" x="1851.4648" y="259.8647"/><text fill="#000000" font-family="'Segoe UI'" font-size="13.5511" lengthAdjust="spacing" textLength="146.1836" x="1686.0667" y="290.1638">bus_backend_generic</text><text fill="#000000" font-family="'Segoe UI'" font-size="13.5511" lengthAdjust="spacing" textLength="153.9318" x="1686.0667" y="305.9381">canonical LCD runtime</text></g><!--entity DEL--><g class="entity" data-qualified-name="Implemented Runtime.DEL" data-source-line="18" id="ent0011"><rect fill="#F1F1F1" height="79.4986" rx="2.606" ry="2.606" style="stroke:#181818;stroke-width:0.5212;" width="266.7746" x="1185.7192" y="139.9898"/><rect fill="#F1F1F1" height="10.4239" style="stroke:#181818;stroke-width:0.5212;" width="15.6359" x="1431.6461" y="145.2017"/><rect fill="#F1F1F1" height="2.0848" style="stroke:#181818;stroke-width:0.5212;" width="4.1696" x="1429.5613" y="147.2865"/><rect fill="#F1F1F1" height="2.0848" style="stroke:#181818;stroke-width:0.5212;" width="4.1696" x="1429.5613" y="151.4561"/><text fill="#000000" font-family="'Segoe UI'" font-size="13.5511" lengthAdjust="spacing" textLength="208.4007" x="1209.6942" y="181.7551">delegated bus_backend_* tags</text><text fill="#000000" font-family="'Segoe UI'" font-size="13.5511" lengthAdjust="spacing" textLength="126.34" x="1209.6942" y="197.5294">16 tags -&gt; generic</text></g><!--entity ZEP--><g class="entity" data-qualified-name="Implemented Runtime.ZEP" data-source-line="19" id="ent0012"><rect fill="#F1F1F1" height="79.4986" rx="2.606" ry="2.606" style="stroke:#181818;stroke-width:0.5212;" width="219.8686" x="1209.173" y="356.807"/><rect fill="#F1F1F1" height="10.4239" style="stroke:#181818;stroke-width:0.5212;" width="15.6359" x="1408.1938" y="362.019"/><rect fill="#F1F1F1" height="2.0848" style="stroke:#181818;stroke-width:0.5212;" width="4.1696" x="1406.109" y="364.1038"/><rect fill="#F1F1F1" height="2.0848" style="stroke:#181818;stroke-width:0.5212;" width="4.1696" x="1406.109" y="368.2733"/><text fill="#000000" font-family="'Segoe UI'" font-size="13.5511" lengthAdjust="spacing" textLength="141.7636" x="1233.148" y="398.5724">bus_backend_zephyr</text><text fill="#000000" font-family="'Segoe UI'" font-size="13.5511" lengthAdjust="spacing" textLength="161.4947" x="1233.148" y="414.3467">current generic fallback</text></g><!--entity MOCK--><g class="entity" data-qualified-name="Implemented Runtime.MOCK" data-source-line="20" id="ent0013"><rect fill="#F1F1F1" height="79.4986" rx="2.606" ry="2.606" style="stroke:#181818;stroke-width:0.5212;" width="210.0493" x="1213.8638" y="248.3984"/><rect fill="#F1F1F1" height="10.4239" style="stroke:#181818;stroke-width:0.5212;" width="15.6359" x="1403.0653" y="253.6104"/><rect fill="#F1F1F1" height="2.0848" style="stroke:#181818;stroke-width:0.5212;" width="4.1696" x="1400.9805" y="255.6951"/><rect fill="#F1F1F1" height="2.0848" style="stroke:#181818;stroke-width:0.5212;" width="4.1696" x="1400.9805" y="259.8647"/><text fill="#000000" font-family="'Segoe UI'" font-size="13.5511" lengthAdjust="spacing" textLength="132.3215" x="1237.8388" y="290.1638">bus_backend_mock</text><text fill="#000000" font-family="'Segoe UI'" font-size="13.5511" lengthAdjust="spacing" textLength="151.6755" x="1237.8388" y="305.9381">test-only premium tag</text></g><!--entity OBS--><g class="entity" data-qualified-name="Premium Helpers.OBS" data-source-line="24" id="ent0015"><rect fill="#F1F1F1" height="63.7243" rx="2.606" ry="2.606" style="stroke:#181818;stroke-width:0.5212;" width="156.7912" x="794.8228" y="602.29"/><rect fill="#F1F1F1" height="10.4239" style="stroke:#181818;stroke-width:0.5212;" width="15.6359" x="930.7662" y="607.502"/><rect fill="#F1F1F1" height="2.0848" style="stroke:#181818;stroke-width:0.5212;" width="4.1696" x="928.6814" y="609.5867"/><rect fill="#F1F1F1" height="2.0848" style="stroke:#181818;stroke-width:0.5212;" width="4.1696" x="928.6814" y="613.7563"/><text fill="#000000" font-family="'Segoe UI'" font-size="13.5511" lengthAdjust="spacing" textLength="98.4173" x="818.7978" y="644.0554">observer table</text></g><!--entity ZCOPY--><g class="entity" data-qualified-name="Premium Helpers.ZCOPY" data-source-line="25" id="ent0016"><rect fill="#F1F1F1" height="79.4986" rx="2.606" ry="2.606" style="stroke:#181818;stroke-width:0.5212;" width="193.1436" x="776.581" y="695.584"/><rect fill="#F1F1F1" height="10.4239" style="stroke:#181818;stroke-width:0.5212;" width="15.6359" x="948.8767" y="700.7959"/><rect fill="#F1F1F1" height="2.0848" style="stroke:#181818;stroke-width:0.5212;" width="4.1696" x="946.7919" y="702.8807"/><rect fill="#F1F1F1" height="2.0848" style="stroke:#181818;stroke-width:0.5212;" width="4.1696" x="946.7919" y="707.0503"/><text fill="#000000" font-family="'Segoe UI'" font-size="13.5511" lengthAdjust="spacing" textLength="134.7697" x="800.5559" y="737.3493">publish_zero_copy()</text><text fill="#000000" font-family="'Segoe UI'" font-size="13.5511" lengthAdjust="spacing" textLength="132.3149" x="800.5559" y="753.1236">copy fallback today</text></g><!--entity ROUTE--><g class="entity" data-qualified-name="Premium Helpers.ROUTE" data-source-line="26" id="ent0017"><rect fill="#F1F1F1" height="79.4986" rx="2.606" ry="2.606" style="stroke:#181818;stroke-width:0.5212;" width="130.7742" x="807.8527" y="803.9926"/><rect fill="#F1F1F1" height="10.4239" style="stroke:#181818;stroke-width:0.5212;" width="15.6359" x="917.7791" y="809.2045"/><rect fill="#F1F1F1" height="2.0848" style="stroke:#181818;stroke-width:0.5212;" width="4.1696" x="915.6943" y="811.2893"/><rect fill="#F1F1F1" height="2.0848" style="stroke:#181818;stroke-width:0.5212;" width="4.1696" x="915.6943" y="815.4589"/><text fill="#000000" font-family="'Segoe UI'" font-size="13.5511" lengthAdjust="spacing" textLength="67.054" x="831.8277" y="845.7579">route_to()</text><text fill="#000000" font-family="'Segoe UI'" font-size="13.5511" lengthAdjust="spacing" textLength="72.4003" x="831.8277" y="861.5322">stub today</text></g><!--entity ZEP_NATIVE--><g class="entity" data-qualified-name="Planned Zephyr Native Path.ZEP_NATIVE" data-source-line="30" id="ent0019"><rect fill="#F1F1F1" height="79.4986" rx="2.606" ry="2.606" style="stroke:#181818;stroke-width:0.5212;" width="234.0019" x="1651.6678" y="588.2177"/><rect fill="#F1F1F1" height="10.4239" style="stroke:#181818;stroke-width:0.5212;" width="15.6359" x="1864.8219" y="593.4297"/><rect fill="#F1F1F1" height="2.0848" style="stroke:#181818;stroke-width:0.5212;" width="4.1696" x="1862.7372" y="595.5145"/><rect fill="#F1F1F1" height="2.0848" style="stroke:#181818;stroke-width:0.5212;" width="4.1696" x="1862.7372" y="599.684"/><text fill="#000000" font-family="'Segoe UI'" font-size="13.5511" lengthAdjust="spacing" textLength="175.628" x="1675.6428" y="629.9831">future native Zephyr path</text><text fill="#000000" font-family="'Segoe UI'" font-size="13.5511" lengthAdjust="spacing" textLength="127.1207" x="1675.6428" y="645.7574">(not implemented)</text></g><!--entity ZPUB--><g class="entity" data-qualified-name="Planned Zephyr Native Path.ZPUB" data-source-line="31" id="ent0020"><rect fill="#F1F1F1" height="63.7243" rx="2.606" ry="2.606" style="stroke:#181818;stroke-width:0.5212;" width="172.5854" x="2045.6915" y="588.7389"/><rect fill="#F1F1F1" height="10.4239" style="stroke:#181818;stroke-width:0.5212;" width="15.6359" x="2197.429" y="593.9509"/><rect fill="#F1F1F1" height="2.0848" style="stroke:#181818;stroke-width:0.5212;" width="4.1696" x="2195.3442" y="596.0357"/><rect fill="#F1F1F1" height="2.0848" style="stroke:#181818;stroke-width:0.5212;" width="4.1696" x="2195.3442" y="600.2052"/><text fill="#000000" font-family="'Segoe UI'" font-size="13.5511" lengthAdjust="spacing" textLength="114.2115" x="2069.6664" y="630.5043">zbus_chan_pub()</text></g><!--entity ZWAIT--><g class="entity" data-qualified-name="Planned Zephyr Native Path.ZWAIT" data-source-line="32" id="ent0021"><rect fill="#F1F1F1" height="63.7243" rx="2.606" ry="2.606" style="stroke:#181818;stroke-width:0.5212;" width="166.5774" x="2048.8186" y="681.5117"/><rect fill="#F1F1F1" height="10.4239" style="stroke:#181818;stroke-width:0.5212;" width="15.6359" x="2194.5482" y="686.7236"/><rect fill="#F1F1F1" height="2.0848" style="stroke:#181818;stroke-width:0.5212;" width="4.1696" x="2192.4634" y="688.8084"/><rect fill="#F1F1F1" height="2.0848" style="stroke:#181818;stroke-width:0.5212;" width="4.1696" x="2192.4634" y="692.978"/><text fill="#000000" font-family="'Segoe UI'" font-size="13.5511" lengthAdjust="spacing" textLength="108.2035" x="2072.7936" y="723.277">zbus_sub_wait()</text></g><!--entity QABI--><g class="entity" data-qualified-name="MicrOSAL Primitives.QABI" data-source-line="36" id="ent0023"><rect fill="#F1F1F1" height="63.7243" rx="2.606" ry="2.606" style="stroke:#181818;stroke-width:0.5212;" width="189.2132" x="2037.3523" y="348.9891"/><rect fill="#F1F1F1" height="10.4239" style="stroke:#181818;stroke-width:0.5212;" width="15.6359" x="2205.7177" y="354.2011"/><rect fill="#F1F1F1" height="2.0848" style="stroke:#181818;stroke-width:0.5212;" width="4.1696" x="2203.633" y="356.2858"/><rect fill="#F1F1F1" height="2.0848" style="stroke:#181818;stroke-width:0.5212;" width="4.1696" x="2203.633" y="360.4554"/><text fill="#000000" font-family="'Segoe UI'" font-size="13.5511" lengthAdjust="spacing" textLength="130.8394" x="2061.3273" y="390.7545">osal_queue_* C ABI</text></g><!--entity MUTEX--><g class="entity" data-qualified-name="MicrOSAL Primitives.MUTEX" data-source-line="37" id="ent0024"><rect fill="#F1F1F1" height="63.7243" rx="2.606" ry="2.606" style="stroke:#181818;stroke-width:0.5212;" width="138.3835" x="2062.8909" y="256.2163"/><rect fill="#F1F1F1" height="10.4239" style="stroke:#181818;stroke-width:0.5212;" width="15.6359" x="2180.4265" y="261.4283"/><rect fill="#F1F1F1" height="2.0848" style="stroke:#181818;stroke-width:0.5212;" width="4.1696" x="2178.3418" y="263.5131"/><rect fill="#F1F1F1" height="2.0848" style="stroke:#181818;stroke-width:0.5212;" width="4.1696" x="2178.3418" y="267.6826"/><text fill="#000000" font-family="'Segoe UI'" font-size="13.5511" lengthAdjust="spacing" textLength="80.0096" x="2086.8659" y="297.9817">osal::mutex</text></g><!--entity Producer--><g class="entity" data-qualified-name="Producer" data-source-line="6" id="ent0002"><ellipse cx="37.5882" cy="201.4908" fill="#F1F1F1" rx="8.3391" ry="8.3391" style="stroke:#181818;stroke-width:0.5212;"/><path d="M37.5882,209.83 L37.5882,237.9745 M24.0371,218.1691 L51.1392,218.1691 M37.5882,237.9745 L24.0371,253.6104 M37.5882,237.9745 L51.1392,253.6104" fill="none" style="stroke:#181818;stroke-width:0.5212;"/><text fill="#000000" font-family="'Segoe UI'" font-size="13.5511" lengthAdjust="spacing" textLength="60.5828" x="7.2967" y="276.0915">Producer</text></g><!--entity Subscriber--><g class="entity" data-qualified-name="Subscriber" data-source-line="7" id="ent0003"><ellipse cx="423.3225" cy="195.2365" fill="#F1F1F1" rx="8.3391" ry="8.3391" style="stroke:#181818;stroke-width:0.5212;"/><path d="M423.3225,203.5756 L423.3225,231.7202 M409.7715,211.9147 L436.8736,211.9147 M423.3225,231.7202 L409.7715,247.356 M423.3225,231.7202 L436.8736,247.356" fill="none" style="stroke:#181818;stroke-width:0.5212;"/><text fill="#000000" font-family="'Segoe UI'" font-size="13.5511" lengthAdjust="spacing" textLength="72.1489" x="387.2481" y="269.8371">Subscriber</text></g><!--entity Observer--><g class="entity" data-qualified-name="Observer" data-source-line="8" id="ent0004"><ellipse cx="37.3365" cy="437.0711" fill="#F1F1F1" rx="8.3391" ry="8.3391" style="stroke:#181818;stroke-width:0.5212;"/><path d="M37.3365,445.4102 L37.3365,473.5548 M23.7854,453.7493 L50.8875,453.7493 M37.3365,473.5548 L23.7854,489.1906 M37.3365,473.5548 L50.8875,489.1906" fill="none" style="stroke:#181818;stroke-width:0.5212;"/><text fill="#000000" font-family="'Segoe UI'" font-size="13.5511" lengthAdjust="spacing" textLength="62.1642" x="6.2543" y="511.6718">Observer</text></g><!--link Producer to BUS--><g class="link" data-entity-1="ent0002" data-entity-2="ent0006" data-link-type="dependency" data-source-line="40" id="lnk25"><path d="M76.3968,254.142 C136.5115,276.5221 249.472,318.5797 330.8931,348.882" fill="none" id="Producer-to-BUS" style="stroke:#181818;stroke-width:1.0424;"/><polygon fill="#181818" points="336.7547,351.0635,329.4167,343.8835,331.8701,349.2456,326.508,351.6989,336.7547,351.0635" style="stroke:#181818;stroke-width:1.0424;"/><text fill="#000000" font-family="'Segoe UI'" font-size="13.5511" lengthAdjust="spacing" textLength="125.182" x="111.5358" y="248.4681">try_send() / send()</text></g><!--link Producer to SIGNAL--><g class="link" data-entity-1="ent0002" data-entity-2="ent0007" data-link-type="dependency" data-source-line="41" id="lnk26"><path d="M76.1883,224.4443 C120.0521,207.2136 195.1564,180.6639 262.6824,171.2615 C393.0021,153.1135 429.4128,146.953 558.7213,171.2615 C645.2189,187.5228 670.5281,193.5687 743.2245,243.1865 C786.6713,272.8425 822.189,314.7622 845.6324,345.9297" fill="none" id="Producer-to-SIGNAL" style="stroke:#181818;stroke-width:1.0424;"/><polygon fill="#181818" points="849.3919,350.9279,847.0848,340.9242,846.259,346.7627,840.4204,345.9369,849.3919,350.9279" style="stroke:#181818;stroke-width:1.0424;"/><text fill="#000000" font-family="'Segoe UI'" font-size="13.5511" lengthAdjust="spacing" textLength="59.544" x="393.5024" y="143.1867">publish()</text></g><!--link Subscriber to SIGNAL--><g class="link" data-entity-1="ent0003" data-entity-2="ent0007" data-link-type="dependency" data-source-line="42" id="lnk27"><path d="M467.5851,248.2316 C538.4677,271.8313 674.9137,317.2636 770.3758,349.0461" fill="none" id="Subscriber-to-SIGNAL" style="stroke:#181818;stroke-width:1.0424;"/><polygon fill="#181818" points="776.3099,351.0218,768.7259,344.1022,771.3649,349.3754,766.0917,352.0143,776.3099,351.0218" style="stroke:#181818;stroke-width:1.0424;"/><text fill="#000000" font-family="'Segoe UI'" font-size="13.5511" lengthAdjust="spacing" textLength="149.1809" x="584.7811" y="272.4431">subscribe() / receive()</text></g><!--link Observer to PREMIUM--><g class="link" data-entity-1="ent0004" data-entity-2="ent0008" data-link-type="dependency" data-source-line="43" id="lnk28"><path d="M77.46,475.6396 C126.5045,475.6396 207.1543,475.6396 281.435,475.6396" fill="none" id="Observer-to-PREMIUM" style="stroke:#181818;stroke-width:1.0424;"/><polygon fill="#181818" points="287.6894,475.6396,278.3079,471.47,282.4774,475.6396,278.3079,479.8091,287.6894,475.6396" style="stroke:#181818;stroke-width:1.0424;"/><text fill="#000000" font-family="'Segoe UI'" font-size="13.5511" lengthAdjust="spacing" textLength="142.1738" x="103.1967" y="463.2006">subscribe_observer()</text></g><!--link PREMIUM to SIGNAL--><g class="link" data-entity-1="ent0008" data-entity-2="ent0007" data-link-type="dependency" data-source-line="45" id="lnk29"><path d="M558.8881,447.7452 C627.2585,433.5791 702.7741,417.9189 765.5469,404.9203" fill="none" id="PREMIUM-to-SIGNAL" style="stroke:#181818;stroke-width:1.0424;"/><polygon fill="#181818" points="771.6713,403.6521,761.6392,401.4714,766.5676,404.7089,763.3301,409.6373,771.6713,403.6521" style="stroke:#181818;stroke-width:1.0424;"/><text fill="#000000" font-family="'Segoe UI'" font-size="13.5511" lengthAdjust="spacing" textLength="80.003" x="619.7012" y="398.5724">extends API</text></g><!--link SIGNAL to GEN--><g class="link" data-entity-1="ent0007" data-entity-2="ent0010" data-link-type="dependency" data-source-line="46" id="lnk30"><path d="M890.7331,350.9488 C912.8735,311.119 955.3301,242.9676 1007.4705,199.4061 C1065.5108,150.914 1086.9736,142.2726 1160.7019,125.3963 C1359.9548,79.8022 1435.82,79.1976 1618.3113,171.2615 C1658.2245,191.4005 1693.138,218.9244 1721.4702,244.2128" fill="none" id="SIGNAL-to-GEN" style="stroke:#181818;stroke-width:1.0424;"/><polygon fill="#181818" points="1726.1362,248.3776,1721.9137,239.0198,1722.2479,244.9069,1716.3607,245.2411,1726.1362,248.3776" style="stroke:#181818;stroke-width:1.0424;"/><text fill="#000000" font-family="'Segoe UI'" font-size="13.5511" lengthAdjust="spacing" textLength="122.178" x="1258.1654" y="83.7704">canonical runtime</text></g><!--link SIGNAL to DEL--><g class="link" data-entity-1="ent0007" data-entity-2="ent0011" data-link-type="dependency" data-source-line="47" id="lnk31"><path d="M929.4163,350.9384 C986.2995,318.8953 1077.9778,269.3296 1160.7019,233.8049 C1172.3871,228.791 1178.8544,226.0943 1191.238,221.4348" fill="none" id="SIGNAL-to-DEL" style="stroke:#181818;stroke-width:1.0424;"/><polygon fill="#181818" points="1197.0917,219.2323,1186.8428,218.6336,1192.2137,221.0678,1189.7795,226.4386,1197.0917,219.2323" style="stroke:#181818;stroke-width:1.0424;"/><text fill="#000000" font-family="'Segoe UI'" font-size="13.5511" lengthAdjust="spacing" textLength="101.7853" x="1029.3607" y="228.6627">delegated tags</text></g><!--link SIGNAL to ZEP--><g class="link" data-entity-1="ent0007" data-entity-2="ent0012" data-link-type="dependency" data-source-line="48" id="lnk32"><path d="M974.2495,385.921 C1044.0896,388.0579 1130.955,390.7024 1202.6819,392.8914" fill="none" id="SIGNAL-to-ZEP" style="stroke:#181818;stroke-width:1.0424;"/><polygon fill="#181818" points="1208.9333,393.0822,1199.6833,388.6284,1203.7238,392.9232,1199.4289,396.9637,1208.9333,393.0822" style="stroke:#181818;stroke-width:1.0424;"/><text fill="#000000" font-family="'Segoe UI'" font-size="13.5511" lengthAdjust="spacing" textLength="126.9156" x="1016.852" y="375.6398">Zephyr default tag</text></g><!--link BUS to QABI--><g class="link" data-entity-1="ent0006" data-entity-2="ent0023" data-link-type="dependency" data-source-line="49" id="lnk33"><path d="M531.2335,412.3769 C540.9382,417.0885 550.2884,422.5089 558.7213,428.732 C568.8638,436.2163 564.7047,444.9933 575.3996,451.6646 C688.9263,522.5263 738.1376,503.7841 871.9597,503.7841 C871.9597,503.7841 871.9597,503.7841 1769.458,503.7841 C1882.7137,503.7841 2000.272,451.9658 2069.6848,415.5239" fill="none" id="BUS-to-QABI" style="stroke:#181818;stroke-width:1.0424;"/><polygon fill="#181818" points="2075.2224,412.6166,2064.9779,413.2858,2070.6077,415.0393,2068.8542,420.6692,2075.2224,412.6166" style="stroke:#181818;stroke-width:1.0424;"/><text fill="#000000" font-family="'Segoe UI'" font-size="13.5511" lengthAdjust="spacing" textLength="97.7292" x="1270.6741" y="491.3451">transport path</text></g><!--link GEN to QABI--><g class="link" data-entity-1="ent0010" data-entity-2="ent0023" data-link-type="dependency" data-source-line="50" id="lnk34"><path d="M1874.8436,320.511 C1886.0389,323.7216 1897.2863,326.8487 1908.0959,329.7049 C1950.2502,340.8585 1991.1573,350.4747 2031.1122,359.3767" fill="none" id="GEN-to-QABI" style="stroke:#181818;stroke-width:1.0424;"/><polygon fill="#181818" points="2037.2168,360.7368,2028.9666,354.6269,2032.1296,359.6034,2027.1531,362.7664,2037.2168,360.7368" style="stroke:#181818;stroke-width:1.0424;"/><text fill="#000000" font-family="'Segoe UI'" font-size="13.5511" lengthAdjust="spacing" textLength="77.568" x="1917.4774" y="317.2659">queue path</text></g><!--link GEN to MUTEX--><g class="link" data-entity-1="ent0010" data-entity-2="ent0024" data-link-type="dependency" data-source-line="51" id="lnk35"><path d="M1875.0521,288.0093 C1935.6254,288.0093 2003.6623,288.0093 2056.5949,288.0093" fill="none" id="GEN-to-MUTEX" style="stroke:#181818;stroke-width:1.0424;"/><polygon fill="#181818" points="2062.8492,288.0093,2053.4677,283.8397,2057.6372,288.0093,2053.4677,292.1788,2062.8492,288.0093" style="stroke:#181818;stroke-width:1.0424;"/><text fill="#000000" font-family="'Segoe UI'" font-size="13.5511" lengthAdjust="spacing" textLength="68.4038" x="1922.1682" y="275.5703">slot guard</text></g><!--link DEL to GEN--><g class="link" data-entity-1="ent0011" data-entity-2="ent0010" data-link-type="dependency" data-source-line="52" id="lnk36"><path d="M1452.6233,207.6722 C1504.451,219.0655 1564.3051,232.7313 1618.3113,246.3136 C1632.3836,249.8578 1641.1187,252.1165 1655.6601,256.0672" fill="none" id="DEL-to-GEN" style="stroke:#181818;stroke-width:1.0424;"/><polygon fill="#181818" points="1661.6956,257.707,1653.7355,251.2236,1656.666,256.3405,1651.5491,259.271,1661.6956,257.707" style="stroke:#181818;stroke-width:1.0424;"/><text fill="#000000" font-family="'Segoe UI'" font-size="13.5511" lengthAdjust="spacing" textLength="66.657" x="1510.9451" y="200.5182">delegates</text></g><!--link ZEP to GEN--><g class="link" data-entity-1="ent0012" data-entity-2="ent0010" data-link-type="dependency" data-source-line="53" id="lnk37"><path d="M1429.1904,373.4644 C1485.7818,361.1851 1555.9451,345.3929 1618.3113,329.7049 C1632.3836,326.1607 1641.1187,323.902 1655.6601,319.9513" fill="none" id="ZEP-to-GEN" style="stroke:#181818;stroke-width:1.0424;"/><polygon fill="#181818" points="1661.6956,318.3115,1651.5491,316.7475,1656.666,319.678,1653.7355,324.7949,1661.6956,318.3115" style="stroke:#181818;stroke-width:1.0424;"/><text fill="#000000" font-family="'Segoe UI'" font-size="13.5511" lengthAdjust="spacing" textLength="109.4938" x="1489.0549" y="317.2659">delegates today</text></g><!--link MOCK to GEN--><g class="link" data-entity-1="ent0013" data-entity-2="ent0010" data-link-type="dependency" data-source-line="54" id="lnk38"><path d="M1424.4684,288.0093 C1495.8304,288.0093 1583.8707,288.0093 1655.5038,288.0093" fill="none" id="MOCK-to-GEN" style="stroke:#181818;stroke-width:1.0424;"/><polygon fill="#181818" points="1661.7582,288.0093,1652.3767,283.8397,1656.5462,288.0093,1652.3767,292.1788,1661.7582,288.0093" style="stroke:#181818;stroke-width:1.0424;"/><text fill="#000000" font-family="'Segoe UI'" font-size="13.5511" lengthAdjust="spacing" textLength="102.6256" x="1492.7033" y="275.5703">reuses runtime</text></g><!--link PREMIUM to OBS--><g class="link" data-entity-1="ent0008" data-entity-2="ent0015" data-link-type="dependency" data-source-line="55" id="lnk39"><path d="M472.5886,507.4846 C501.4524,525.3407 539.3954,546.8244 575.3996,561.1156 C647.3454,589.6875 727.5438,608.2229 788.4611,619.8873" fill="none" id="PREMIUM-to-OBS" style="stroke:#181818;stroke-width:1.0424;"/><polygon fill="#181818" points="794.6039,621.0635,786.1739,615.204,789.4849,620.0833,784.6056,623.3943,794.6039,621.0635" style="stroke:#181818;stroke-width:1.0424;"/><text fill="#000000" font-family="'Segoe UI'" font-size="13.5511" lengthAdjust="spacing" textLength="98.4306" x="610.3197" y="548.6766">local callbacks</text></g><!--link PREMIUM to ZCOPY--><g class="link" data-entity-1="ent0008" data-entity-2="ent0016" data-link-type="dependency" data-source-line="56" id="lnk40"><path d="M451.574,507.4742 C479.9166,538.8814 526.8033,586.5499 575.3996,617.4047 C637.9534,657.1197 710.1523,685.5332 770.5172,705.4741" fill="none" id="PREMIUM-to-ZCOPY" style="stroke:#181818;stroke-width:1.0424;"/><polygon fill="#181818" points="776.4559,707.4359,768.8557,700.5341,771.507,705.8011,766.24,708.4524,776.4559,707.4359" style="stroke:#181818;stroke-width:1.0424;"/></g><!--link PREMIUM to ROUTE--><g class="link" data-entity-1="ent0008" data-entity-2="ent0017" data-link-type="dependency" data-source-line="57" id="lnk41"><path d="M439.1174,507.7765 C462.394,555.2156 511.4906,644.4234 575.3996,700.7959 C644.1869,761.463 737.3672,800.1816 801.7348,822.124" fill="none" id="PREMIUM-to-ROUTE" style="stroke:#181818;stroke-width:1.0424;"/><polygon fill="#181818" points="807.6546,824.142,800.1202,817.1684,802.7214,822.4603,797.4295,825.0615,807.6546,824.142" style="stroke:#181818;stroke-width:1.0424;"/></g><!--link ZEP to ZEP_NATIVE--><g class="link" data-entity-1="ent0012" data-entity-2="ent0019" data-link-type="dependency" data-source-line="58" id="lnk42"><path d="M1400.8478,436.0496 C1417.9639,444.5659 1435.893,453.5617 1452.5712,462.0885 C1535.337,504.3991 1624.0702,551.3054 1687.6977,585.204" fill="none" id="ZEP-to-ZEP_NATIVE" style="stroke:#181818;stroke-width:1.0424;stroke-dasharray:7.2967,7.2967;"/><polygon fill="#181818" points="1693.2175,588.1448,1686.8983,580.0537,1688.6176,585.6941,1682.9772,587.4135,1693.2175,588.1448" style="stroke:#181818;stroke-width:1.0424;"/><text fill="#000000" font-family="'Segoe UI'" font-size="13.5511" lengthAdjust="spacing" textLength="131.2827" x="1478.631" y="459.031">future replacement</text></g><!--link ZEP_NATIVE to ZPUB--><g class="link" data-entity-1="ent0019" data-entity-2="ent0020" data-link-type="dependency" data-source-line="59" id="lnk43"><path d="M1885.3926,625.4936 C1937.4705,624.4408 1991.5718,623.3478 2039.4384,622.3784" fill="none" id="ZEP_NATIVE-to-ZPUB" style="stroke:#181818;stroke-width:1.0424;"/><polygon fill="#181818" points="2045.6915,622.2518,2036.2274,618.273,2040.4806,622.3573,2036.3963,626.6104,2045.6915,622.2518" style="stroke:#181818;stroke-width:1.0424;"/></g><!--link ZEP_NATIVE to ZWAIT--><g class="link" data-entity-1="ent0019" data-entity-2="ent0021" data-link-type="dependency" data-source-line="60" id="lnk44"><path d="M1885.3926,655.2226 C1938.6067,667.8042 1994.3754,680.9802 2042.7215,692.4048" fill="none" id="ZEP_NATIVE-to-ZWAIT" style="stroke:#181818;stroke-width:1.0424;"/><polygon fill="#181818" points="2048.8082,693.8432,2040.637,687.6278,2043.7359,692.6445,2038.7192,695.7435,2048.8082,693.8432" style="stroke:#181818;stroke-width:1.0424;"/></g><?plantuml-src VLJRRXCn47tVhnZwb49Rn0iF5QgKf569Q9AbIRbKbLPUxoInwhKNNqfJXCH7y8Ly2UEzDBiXD2_nUiuSpnpFyGkXkFGPGc9GPMYImkYba7XI-5n6aHDE8kI2czcyVma3R-4LpCLACGcNR8C6_lpw3Nt3ry8XTzvW977fm6amOhLsa0b3-qAhA6BSQGEnqPddQEhFkKyjDo9zsfYb5iqzVKO5utTiXN0GJdtTdDgFnmVm8mBwSPqNMg5oSA0jaqdgxRl54GmPPGgtEJi0Pc5mFTyBjYLTm4-FO59Xv-EBQV_o6JYfWxdmUJSjlXfDnjUJw6Uhvd5UICmf7pEuyig97FUKJHKdAQMGzCaA5Hh1RnLdIYl1WyB3Sp1DCXrqCPhkCcGeSSN2AMskb-3OojwgDs_B1HoVGKrVyfoFBf-hv16BzSPG8TwO4AnJOSca39YIusOKFyUHQtvtIzrRTwoLt40jN2YdJ9_CXXywWiKru3tA0etTTyVrP117AYj1PeD_BhVmgHHsJKqOdN1TR7g7r0dzFvLFmvcnJTN4S1P_tMKmsZjCd0w9rlcqXR-QNIz6tR8bKuhKloarWobpuXuXPcwzfuEb3mu1LO7gb8Amjwgdj0En7Ph3HkHasb-CFursgHw3s7pDL48DzsfqV3tOYxC-JRupuHhSv_vuqUbYqXWyDY8NeJhxFvDzy-YH1cm8_S6ufFj8YttGqzESX7oehfjq-nAEREmFnpIJv4qu1MSsYQMPwHsIowj55rRPaf3rtL9y-snq4RRPBydewK7gXV3DgrAYQx-suKapN8IDcdY76HySbMR3-nFLco5EbgJWrhArNTiGSXj1jaODZcp7wP8fNaz3XalcfGkWACWJ047WKYUcRA6DAqSc2YUtekMzT2EbwA5BIREryinaKQXbMtPJaur23Nlsgz6FWbbROOFUKgnfjIqN6P80KWSfUEqtsq5KbcllLAOA5PoSdBL6deXgmnWi9EEbCw9MlAGBCx-xLyxtNm00?></g></svg>