<?plantuml 1.2026.1?><svg xmlns="http://www.w3.org/2000/svg" xmlns:xlink="http://www.w3.org/1999/xlink" contentStyleType="text/css" data-diagram-type="CLASS" height="2701.875px" preserveAspectRatio="none" style="width:1636px;height:2701px;background:#FFFFFF;" version="1.1" viewBox="0 0 1636 2701" width="1636.875px" zoomAndPan="magnify"><title>micrOSAL Bus + Signal Layer &#8212; Class Diagram</title><defs/><g><g class="title" data-source-line="3"><text fill="#000000" font-family="'Segoe UI'" font-size="26.25" font-weight="bold" lengthAdjust="spacing" textLength="686.5759" x="462.0245" y="58.1158">micrOSAL Bus + Signal Layer &#8212; Class Diagram</text></g><!--cluster osal--><g class="cluster" data-qualified-name="osal" data-source-line="5" id="ent0002"><path d="M15.9375,111.1816 L103.8702,111.1816 A7.0313,7.0313 0 0 1 108.5577,115.8691 L121.6827,180.8057 L1619.0625,180.8057 A4.6875,4.6875 0 0 1 1623.75,185.4932 L1623.75,2684.6191 A4.6875,4.6875 0 0 1 1619.0625,2689.3066 L15.9375,2689.3066 A4.6875,4.6875 0 0 1 11.25,2684.6191 L11.25,115.8691 A4.6875,4.6875 0 0 1 15.9375,111.1816" fill="none" style="stroke:#000000;stroke-width:2.8125;"/><line style="stroke:#000000;stroke-width:2.8125;" x1="11.25" x2="121.6827" y1="180.8057" y2="180.8057"/><text fill="#000000" font-family="'Segoe UI'" font-size="24.375" font-weight="bold" lengthAdjust="spacing" textLength="56.0577" x="33.75" y="152.5571">osal</text></g><!--class Bus--><g class="entity" data-qualified-name="osal.Bus" data-source-line="7" id="ent0003"><rect fill="#F1F1F1" height="457.3682" rx="4.6875" ry="4.6875" style="stroke:#181818;stroke-width:0.9375;" width="543.6694" x="742.5" y="1839.9316"/><ellipse cx="768.75" cy="1907.6807" fill="#ADD1B2" rx="18.75" ry="18.75" style="stroke:#181818;stroke-width:1.875;"/><path d="M770.332,1916.5869 L766.8457,1916.5869 L766.8457,1901.8799 L762.334,1901.8799 L762.334,1898.8037 L774.8438,1898.8037 L774.8438,1901.8799 L770.332,1901.8799 L770.332,1916.5869 Z " fill="#000000"/><text fill="#000000" font-family="Segoe UI" font-size="24.375" font-style="italic" lengthAdjust="spacing" textLength="140.1205" x="804.375" y="1886.9321">&#171;template&#187;</text><text fill="#000000" font-family="'Segoe UI'" font-size="24.375" lengthAdjust="spacing" textLength="105.1291" x="821.8707" y="1945.3061">osal_bus</text><rect fill="#FFFFFF" height="62.124" style="stroke:#181818;stroke-width:1.875;stroke-dasharray:3.75,3.75;" width="321.0489" x="970.7455" y="1834.3066"/><text fill="#000000" font-family="Segoe UI" font-size="24.375" font-style="italic" lengthAdjust="spacing" textLength="287.2989" x="987.6205" y="1873.8071">T,Capacity,BackendTag</text><line style="stroke:#181818;stroke-width:0.9375;" x1="744.375" x2="1284.2944" y1="1975.4297" y2="1975.4297"/><line style="stroke:#181818;stroke-width:0.9375;" x1="744.375" x2="1284.2944" y1="1990.4297" y2="1990.4297"/><g data-visibility-modifier="PUBLIC_METHOD"><ellipse cx="763.125" cy="2029.9292" fill="#84BE84" rx="5.625" ry="5.625" style="stroke:#038048;stroke-width:1.875;"/></g><text fill="#000000" font-family="'Segoe UI'" font-size="24.375" lengthAdjust="spacing" textLength="153.1769" x="793.125" y="2035.5551">valid() : bool</text><g data-visibility-modifier="PUBLIC_METHOD"><ellipse cx="763.125" cy="2088.3032" fill="#84BE84" rx="5.625" ry="5.625" style="stroke:#038048;stroke-width:1.875;"/></g><text fill="#000000" font-family="'Segoe UI'" font-size="24.375" lengthAdjust="spacing" textLength="293.2736" x="793.125" y="2093.9291">try_send(item : T) : bool</text><g data-visibility-modifier="PUBLIC_METHOD"><ellipse cx="763.125" cy="2146.6772" fill="#84BE84" rx="5.625" ry="5.625" style="stroke:#038048;stroke-width:1.875;"/></g><text fill="#000000" font-family="'Segoe UI'" font-size="24.375" lengthAdjust="spacing" textLength="408.4241" x="793.125" y="2152.3032">send(item : T, ticks : tick_t) : bool</text><g data-visibility-modifier="PUBLIC_METHOD"><ellipse cx="763.125" cy="2205.0513" fill="#84BE84" rx="5.625" ry="5.625" style="stroke:#038048;stroke-width:1.875;"/></g><text fill="#000000" font-family="'Segoe UI'" font-size="24.375" lengthAdjust="spacing" textLength="328.1223" x="793.125" y="2210.6772">try_receive(out : T&amp;) : bool</text><g data-visibility-modifier="PUBLIC_METHOD"><ellipse cx="763.125" cy="2263.4253" fill="#84BE84" rx="5.625" ry="5.625" style="stroke:#038048;stroke-width:1.875;"/></g><text fill="#000000" font-family="'Segoe UI'" font-size="24.375" lengthAdjust="spacing" textLength="443.2727" x="793.125" y="2269.0512">receive(out : T&amp;, ticks : tick_t) : bool</text></g><!--class BusGeneric--><g class="entity" data-qualified-name="osal.BusGeneric" data-source-line="15" id="ent0004"><rect fill="#F1F1F1" height="299.3701" rx="4.6875" ry="4.6875" style="stroke:#181818;stroke-width:0.9375;" width="532.24" x="41.25" y="2359.3066"/><ellipse cx="85.6859" cy="2406.4307" fill="#ADD1B2" rx="18.75" ry="18.75" style="stroke:#181818;stroke-width:1.875;"/><path d="M89.1723,2414.3701 Q88.352,2414.7803 87.4145,2414.9854 Q86.5063,2415.2197 85.5102,2415.2197 Q81.9066,2415.2197 80.0023,2412.8467 Q78.1273,2410.4736 78.1273,2405.9912 Q78.1273,2401.5088 80.0023,2399.1357 Q81.9066,2396.7627 85.5102,2396.7627 Q86.5063,2396.7627 87.4438,2396.9971 Q88.3813,2397.2021 89.1723,2397.6416 L89.1723,2401.5381 Q88.2641,2400.7178 87.4145,2400.3369 Q86.5648,2399.9268 85.6566,2399.9268 Q83.7523,2399.9268 82.7563,2401.4795 Q81.7602,2403.0029 81.7602,2405.9912 Q81.7602,2409.0088 82.7563,2410.5322 Q83.7523,2412.0557 85.6566,2412.0557 Q86.5648,2412.0557 87.4145,2411.6748 Q88.2641,2411.2939 89.1723,2410.4443 L89.1723,2414.3701 Z " fill="#000000"/><text fill="#000000" font-family="'Segoe UI'" font-size="24.375" lengthAdjust="spacing" textLength="105.1291" x="129.1023" y="2414.8691">osal_bus</text><rect fill="#FFFFFF" height="90.498" style="stroke:#181818;stroke-width:1.875;stroke-dasharray:3.75,3.75;" width="296.6977" x="282.4173" y="2353.6816"/><text fill="#000000" font-family="Segoe UI" font-size="24.375" font-style="italic" lengthAdjust="spacing" textLength="136.907" x="362.3126" y="2393.1821">T,Capacity,</text><text fill="#000000" font-family="Segoe UI" font-size="24.375" font-style="italic" lengthAdjust="spacing" textLength="262.9477" x="299.2923" y="2421.5561">bus_backend_generic</text><line style="stroke:#181818;stroke-width:0.9375;" x1="43.125" x2="571.615" y1="2453.5547" y2="2453.5547"/><g data-visibility-modifier="PRIVATE_FIELD"><rect fill="none" height="11.25" style="stroke:#C82930;stroke-width:1.875;" width="11.25" x="56.25" y="2487.4292"/></g><text fill="#000000" font-family="'Segoe UI'" font-size="24.375" lengthAdjust="spacing" textLength="312.3404" x="91.875" y="2498.6801">handle_ : queue_handle_t</text><g data-visibility-modifier="PRIVATE_FIELD"><rect fill="none" height="11.25" style="stroke:#C82930;stroke-width:1.875;" width="11.25" x="56.25" y="2545.8032"/></g><text fill="#000000" font-family="'Segoe UI'" font-size="24.375" lengthAdjust="spacing" textLength="146.3452" x="91.875" y="2557.0541">valid_ : bool</text><line style="stroke:#181818;stroke-width:0.9375;" x1="43.125" x2="571.615" y1="2585.3027" y2="2585.3027"/><g data-visibility-modifier="PRIVATE_METHOD"><rect fill="#F24D5C" height="11.25" style="stroke:#C82930;stroke-width:1.875;" width="11.25" x="56.25" y="2619.1772"/></g><text fill="#000000" font-family="'Segoe UI'" font-size="24.375" lengthAdjust="spacing" textLength="455.365" x="91.875" y="2630.4282">storage_ : uint8_t[Capacity*sizeof(T)]</text></g><!--class BusZephyr--><g class="entity" data-qualified-name="osal.BusZephyr" data-source-line="21" id="ent0005"><rect fill="#F1F1F1" height="196.8091" rx="4.6875" ry="4.6875" style="stroke:#181818;stroke-width:0.9375;" width="483.8763" x="626.25" y="2410.8691"/><ellipse cx="652.5" cy="2457.9932" fill="#ADD1B2" rx="18.75" ry="18.75" style="stroke:#181818;stroke-width:1.875;"/><path d="M655.9863,2465.9326 Q655.166,2466.3428 654.2285,2466.5479 Q653.3203,2466.7822 652.3242,2466.7822 Q648.7207,2466.7822 646.8164,2464.4092 Q644.9414,2462.0361 644.9414,2457.5537 Q644.9414,2453.0713 646.8164,2450.6982 Q648.7207,2448.3252 652.3242,2448.3252 Q653.3203,2448.3252 654.2578,2448.5596 Q655.1953,2448.7646 655.9863,2449.2041 L655.9863,2453.1006 Q655.0781,2452.2803 654.2285,2451.8994 Q653.3789,2451.4893 652.4707,2451.4893 Q650.5664,2451.4893 649.5703,2453.042 Q648.5742,2454.5654 648.5742,2457.5537 Q648.5742,2460.5713 649.5703,2462.0947 Q650.5664,2463.6182 652.4707,2463.6182 Q653.3789,2463.6182 654.2285,2463.2373 Q655.0781,2462.8564 655.9863,2462.0068 L655.9863,2465.9326 Z " fill="#000000"/><text fill="#000000" font-family="'Segoe UI'" font-size="24.375" lengthAdjust="spacing" textLength="105.1291" x="691.875" y="2466.4316">osal_bus</text><rect fill="#FFFFFF" height="90.498" style="stroke:#181818;stroke-width:1.875;stroke-dasharray:3.75,3.75;" width="288.7473" x="827.0041" y="2405.2441"/><text fill="#000000" font-family="Segoe UI" font-size="24.375" font-style="italic" lengthAdjust="spacing" textLength="136.907" x="902.9242" y="2444.7446">T,Capacity,</text><text fill="#000000" font-family="Segoe UI" font-size="24.375" font-style="italic" lengthAdjust="spacing" textLength="254.9973" x="843.8791" y="2473.1186">bus_backend_zephyr</text><line style="stroke:#181818;stroke-width:0.9375;" x1="628.125" x2="1108.2513" y1="2505.1172" y2="2505.1172"/><line style="stroke:#181818;stroke-width:1.875;stroke-dasharray:1.875,3.75;" x1="628.125" x2="720.536" y1="2549.3042" y2="2549.3042"/><text fill="#000000" font-family="'Segoe UI'" font-size="24.375" lengthAdjust="spacing" textLength="265.3043" x="735.536" y="2556.8051">TODO Zbus reference</text><line style="stroke:#181818;stroke-width:1.875;stroke-dasharray:1.875,3.75;" x1="1015.8403" x2="1108.2513" y1="2549.3042" y2="2549.3042"/></g><!--class Signal--><g class="entity" data-qualified-name="osal.Signal" data-source-line="28" id="ent0008"><rect fill="#F1F1F1" height="515.7422" rx="4.6875" ry="4.6875" style="stroke:#181818;stroke-width:0.9375;" width="653.7341" x="42.1875" y="900.5566"/><ellipse cx="147.1046" cy="968.3057" fill="#ADD1B2" rx="18.75" ry="18.75" style="stroke:#181818;stroke-width:1.875;"/><path d="M148.6867,977.2119 L145.2003,977.2119 L145.2003,962.5049 L140.6886,962.5049 L140.6886,959.4287 L153.1984,959.4287 L153.1984,962.5049 L148.6867,962.5049 L148.6867,977.2119 Z " fill="#000000"/><text fill="#000000" font-family="Segoe UI" font-size="24.375" font-style="italic" lengthAdjust="spacing" textLength="140.1205" x="194.4745" y="947.5571">&#171;template&#187;</text><text fill="#000000" font-family="'Segoe UI'" font-size="24.375" lengthAdjust="spacing" textLength="133.6102" x="197.7296" y="1005.9311">osal_signal</text><rect fill="#FFFFFF" height="62.124" style="stroke:#181818;stroke-width:1.875;stroke-dasharray:3.75,3.75;" width="261.5396" x="440.007" y="894.9316"/><text fill="#000000" font-family="Segoe UI" font-size="24.375" font-style="italic" lengthAdjust="spacing" textLength="227.7896" x="456.882" y="934.4321">T,N,M,BackendTag</text><line style="stroke:#181818;stroke-width:0.9375;" x1="44.0625" x2="694.0466" y1="1036.0547" y2="1036.0547"/><line style="stroke:#181818;stroke-width:0.9375;" x1="44.0625" x2="694.0466" y1="1051.0547" y2="1051.0547"/><g data-visibility-modifier="PUBLIC_METHOD"><ellipse cx="62.8125" cy="1090.5542" fill="#84BE84" rx="5.625" ry="5.625" style="stroke:#038048;stroke-width:1.875;"/></g><text fill="#000000" font-family="'Segoe UI'" font-size="24.375" lengthAdjust="spacing" textLength="490.285" x="92.8125" y="1096.1801">subscribe(out_id : subscriber_id&amp;) : bool</text><g data-visibility-modifier="PUBLIC_METHOD"><ellipse cx="62.8125" cy="1148.9282" fill="#84BE84" rx="5.625" ry="5.625" style="stroke:#038048;stroke-width:1.875;"/></g><text fill="#000000" font-family="'Segoe UI'" font-size="24.375" lengthAdjust="spacing" textLength="450.0687" x="92.8125" y="1154.5541">unsubscribe(id : subscriber_id) : bool</text><g data-visibility-modifier="PUBLIC_METHOD"><ellipse cx="62.8125" cy="1207.3022" fill="#84BE84" rx="5.625" ry="5.625" style="stroke:#038048;stroke-width:1.875;"/></g><text fill="#000000" font-family="'Segoe UI'" font-size="24.375" lengthAdjust="spacing" textLength="273.3975" x="92.8125" y="1212.9282">publish(msg : T) : bool</text><g data-visibility-modifier="PUBLIC_METHOD"><ellipse cx="62.8125" cy="1265.6763" fill="#84BE84" rx="5.625" ry="5.625" style="stroke:#038048;stroke-width:1.875;"/></g><text fill="#000000" font-family="'Segoe UI'" font-size="24.375" lengthAdjust="spacing" textLength="551.0083" x="92.8125" y="1271.3022">try_receive(id : subscriber_id, out : T&amp;) : bool</text><g data-visibility-modifier="PUBLIC_METHOD"><ellipse cx="62.8125" cy="1324.0503" fill="#84BE84" rx="5.625" ry="5.625" style="stroke:#038048;stroke-width:1.875;"/></g><text fill="#000000" font-family="'Segoe UI'" font-size="24.375" lengthAdjust="spacing" textLength="576.8591" x="92.8125" y="1329.6762">receive(id : subscriber_id, out : T&amp;, ticks) : bool</text><g data-visibility-modifier="PUBLIC_METHOD"><ellipse cx="62.8125" cy="1382.4243" fill="#84BE84" rx="5.625" ry="5.625" style="stroke:#038048;stroke-width:1.875;"/></g><text fill="#000000" font-family="'Segoe UI'" font-size="24.375" lengthAdjust="spacing" textLength="319.6957" x="92.8125" y="1388.0502">subscriber_count() : size_t</text></g><!--class SignalGeneric--><g class="entity" data-qualified-name="osal.SignalGeneric" data-source-line="37" id="ent0009"><rect fill="#F1F1F1" height="299.3701" rx="4.6875" ry="4.6875" style="stroke:#181818;stroke-width:0.9375;" width="520.3079" x="107.8125" y="1478.0566"/><ellipse cx="134.0625" cy="1525.1807" fill="#ADD1B2" rx="18.75" ry="18.75" style="stroke:#181818;stroke-width:1.875;"/><path d="M137.5488,1533.1201 Q136.7285,1533.5303 135.791,1533.7354 Q134.8828,1533.9697 133.8867,1533.9697 Q130.2832,1533.9697 128.3789,1531.5967 Q126.5039,1529.2236 126.5039,1524.7412 Q126.5039,1520.2588 128.3789,1517.8857 Q130.2832,1515.5127 133.8867,1515.5127 Q134.8828,1515.5127 135.8203,1515.7471 Q136.7578,1515.9521 137.5488,1516.3916 L137.5488,1520.2881 Q136.6406,1519.4678 135.791,1519.0869 Q134.9414,1518.6768 134.0332,1518.6768 Q132.1289,1518.6768 131.1328,1520.2295 Q130.1367,1521.7529 130.1367,1524.7412 Q130.1367,1527.7588 131.1328,1529.2822 Q132.1289,1530.8057 134.0332,1530.8057 Q134.9414,1530.8057 135.791,1530.4248 Q136.6406,1530.0439 137.5488,1529.1943 L137.5488,1533.1201 Z " fill="#000000"/><text fill="#000000" font-family="'Segoe UI'" font-size="24.375" lengthAdjust="spacing" textLength="133.6102" x="173.4375" y="1533.6191">osal_signal</text><rect fill="#FFFFFF" height="90.498" style="stroke:#181818;stroke-width:1.875;stroke-dasharray:3.75,3.75;" width="296.6977" x="337.0477" y="1472.4316"/><text fill="#000000" font-family="Segoe UI" font-size="24.375" font-style="italic" lengthAdjust="spacing" textLength="77.3978" x="446.6977" y="1511.9321">T,N,M,</text><text fill="#000000" font-family="Segoe UI" font-size="24.375" font-style="italic" lengthAdjust="spacing" textLength="262.9477" x="353.9227" y="1540.3061">bus_backend_generic</text><line style="stroke:#181818;stroke-width:0.9375;" x1="109.6875" x2="626.2454" y1="1572.3047" y2="1572.3047"/><g data-visibility-modifier="PRIVATE_FIELD"><rect fill="none" height="11.25" style="stroke:#C82930;stroke-width:1.875;" width="11.25" x="122.8125" y="1606.1792"/></g><text fill="#000000" font-family="'Segoe UI'" font-size="24.375" lengthAdjust="spacing" textLength="312.9236" x="158.4375" y="1617.4301">slots_ : subscriber_slot[N]</text><g data-visibility-modifier="PRIVATE_FIELD"><rect fill="none" height="11.25" style="stroke:#C82930;stroke-width:1.875;" width="11.25" x="122.8125" y="1664.5532"/></g><text fill="#000000" font-family="'Segoe UI'" font-size="24.375" lengthAdjust="spacing" textLength="257.9846" x="158.4375" y="1675.8041">mutex_ : osal::mutex</text><g data-visibility-modifier="PRIVATE_FIELD"><rect fill="none" height="11.25" style="stroke:#C82930;stroke-width:1.875;" width="11.25" x="122.8125" y="1722.9272"/></g><text fill="#000000" font-family="'Segoe UI'" font-size="24.375" lengthAdjust="spacing" textLength="312.8641" x="158.4375" y="1734.1782">subscriber_count_ : size_t</text><line style="stroke:#181818;stroke-width:0.9375;" x1="109.6875" x2="626.2454" y1="1762.4268" y2="1762.4268"/></g><!--class subscriber_slot--><g class="entity" data-qualified-name="osal.subscriber_slot" data-source-line="43" id="ent0010"><rect fill="#F1F1F1" height="223.8721" rx="4.6875" ry="4.6875" style="stroke:#181818;stroke-width:0.9375;" width="649.4733" x="41.25" y="1957.1191"/><ellipse cx="251.9197" cy="1995.6812" fill="#ADD1B2" rx="18.75" ry="18.75" style="stroke:#181818;stroke-width:1.875;"/><path d="M255.406,2003.6206 Q254.5857,2004.0308 253.6482,2004.2358 Q252.74,2004.4702 251.7439,2004.4702 Q248.1404,2004.4702 246.2361,2002.0972 Q244.3611,1999.7241 244.3611,1995.2417 Q244.3611,1990.7593 246.2361,1988.3862 Q248.1404,1986.0132 251.7439,1986.0132 Q252.74,1986.0132 253.6775,1986.2476 Q254.615,1986.4526 255.406,1986.8921 L255.406,1990.7886 Q254.4978,1989.9683 253.6482,1989.5874 Q252.7986,1989.1772 251.8904,1989.1772 Q249.9861,1989.1772 248.99,1990.73 Q247.9939,1992.2534 247.9939,1995.2417 Q247.9939,1998.2593 248.99,1999.7827 Q249.9861,2001.3062 251.8904,2001.3062 Q252.7986,2001.3062 253.6482,2000.9253 Q254.4978,2000.5444 255.406,1999.6948 L255.406,2003.6206 Z " fill="#000000"/><text fill="#000000" font-family="'Segoe UI'" font-size="24.375" lengthAdjust="spacing" textLength="183.1339" x="302.5447" y="2004.1196">subscriber_slot</text><line style="stroke:#181818;stroke-width:0.9375;" x1="43.125" x2="688.8483" y1="2034.2432" y2="2034.2432"/><g data-visibility-modifier="PUBLIC_FIELD"><ellipse cx="61.875" cy="2073.7427" fill="none" rx="5.625" ry="5.625" style="stroke:#038048;stroke-width:1.875;"/></g><text fill="#000000" font-family="'Segoe UI'" font-size="24.375" lengthAdjust="spacing" textLength="165.5191" x="91.875" y="2079.3686">in_use_ : bool</text><g data-visibility-modifier="PUBLIC_FIELD"><ellipse cx="61.875" cy="2132.1167" fill="none" rx="5.625" ry="5.625" style="stroke:#038048;stroke-width:1.875;"/></g><text fill="#000000" font-family="'Segoe UI'" font-size="24.375" lengthAdjust="spacing" textLength="572.5983" x="91.875" y="2137.7426">queue_ : osal_bus&lt;T,M,bus_backend_generic&gt;</text><line style="stroke:#181818;stroke-width:0.9375;" x1="43.125" x2="688.8483" y1="2165.9912" y2="2165.9912"/></g><!--class SignalPremium--><g class="entity" data-qualified-name="osal.SignalPremium" data-source-line="48" id="ent0011"><rect fill="#F1F1F1" height="574.1162" rx="4.6875" ry="4.6875" style="stroke:#181818;stroke-width:0.9375;" width="630.7874" x="384.375" y="204.9316"/><ellipse cx="421.0878" cy="243.4937" fill="#ADD1B2" rx="18.75" ry="18.75" style="stroke:#181818;stroke-width:1.875;"/><path d="M424.5742,251.4331 Q423.7538,251.8433 422.8163,252.0483 Q421.9081,252.2827 420.912,252.2827 Q417.3085,252.2827 415.4042,249.9097 Q413.5292,247.5366 413.5292,243.0542 Q413.5292,238.5718 415.4042,236.1987 Q417.3085,233.8257 420.912,233.8257 Q421.9081,233.8257 422.8456,234.0601 Q423.7831,234.2651 424.5742,234.7046 L424.5742,238.6011 Q423.666,237.7808 422.8163,237.3999 Q421.9667,236.9897 421.0585,236.9897 Q419.1542,236.9897 418.1581,238.5425 Q417.162,240.0659 417.162,243.0542 Q417.162,246.0718 418.1581,247.5952 Q419.1542,249.1187 421.0585,249.1187 Q421.9667,249.1187 422.8163,248.7378 Q423.666,248.3569 424.5742,247.5073 L424.5742,251.4331 Z " fill="#000000"/><text fill="#000000" font-family="'Segoe UI'" font-size="24.375" lengthAdjust="spacing" textLength="255.997" x="462.7879" y="251.9321">osal_signal_premium</text><rect fill="#FFFFFF" height="62.124" style="stroke:#181818;stroke-width:1.875;stroke-dasharray:3.75,3.75;" width="261.5396" x="759.2477" y="199.3066"/><text fill="#000000" font-family="Segoe UI" font-size="24.375" font-style="italic" lengthAdjust="spacing" textLength="227.7896" x="776.1227" y="238.8071">T,N,M,BackendTag</text><line style="stroke:#181818;stroke-width:0.9375;" x1="386.25" x2="1013.2874" y1="282.0557" y2="282.0557"/><g data-visibility-modifier="PRIVATE_FIELD"><rect fill="none" height="11.25" style="stroke:#C82930;stroke-width:1.875;" width="11.25" x="399.375" y="315.9302"/></g><text fill="#000000" font-family="'Segoe UI'" font-size="24.375" lengthAdjust="spacing" textLength="511.7917" x="435" y="327.1811">observers_ : observer_fn[MaxSubscribers]</text><g data-visibility-modifier="PRIVATE_FIELD"><rect fill="none" height="11.25" style="stroke:#C82930;stroke-width:1.875;" width="11.25" x="399.375" y="374.3042"/></g><text fill="#000000" font-family="'Segoe UI'" font-size="24.375" lengthAdjust="spacing" textLength="293.4045" x="435" y="385.5551">observer_count_ : size_t</text><line style="stroke:#181818;stroke-width:0.9375;" x1="386.25" x2="1013.2874" y1="413.8037" y2="413.8037"/><g data-visibility-modifier="PUBLIC_METHOD"><ellipse cx="405" cy="453.3032" fill="#84BE84" rx="5.625" ry="5.625" style="stroke:#038048;stroke-width:1.875;"/></g><text fill="#000000" font-family="'Segoe UI'" font-size="24.375" lengthAdjust="spacing" textLength="523.0151" x="435" y="458.9291">subscribe_observer(fn : observer_fn) : bool</text><g data-visibility-modifier="PUBLIC_METHOD"><ellipse cx="405" cy="511.6772" fill="#84BE84" rx="5.625" ry="5.625" style="stroke:#038048;stroke-width:1.875;"/></g><text fill="#000000" font-family="'Segoe UI'" font-size="24.375" lengthAdjust="spacing" textLength="553.9124" x="435" y="517.3032">unsubscribe_observer(fn : observer_fn) : bool</text><g data-visibility-modifier="PUBLIC_METHOD"><ellipse cx="405" cy="570.0513" fill="#84BE84" rx="5.625" ry="5.625" style="stroke:#038048;stroke-width:1.875;"/></g><text fill="#000000" font-family="'Segoe UI'" font-size="24.375" lengthAdjust="spacing" textLength="273.3975" x="435" y="575.6772">publish(msg : T) : bool</text><g data-visibility-modifier="PUBLIC_METHOD"><ellipse cx="405" cy="628.4253" fill="#84BE84" rx="5.625" ry="5.625" style="stroke:#038048;stroke-width:1.875;"/></g><text fill="#000000" font-family="'Segoe UI'" font-size="24.375" lengthAdjust="spacing" textLength="404.0323" x="435" y="634.0512">publish_zero_copy(ptr : T*) : bool</text><g data-visibility-modifier="PUBLIC_METHOD"><ellipse cx="405" cy="686.7993" fill="#84BE84" rx="5.625" ry="5.625" style="stroke:#038048;stroke-width:1.875;"/></g><text fill="#000000" font-family="'Segoe UI'" font-size="24.375" lengthAdjust="spacing" textLength="485.3696" x="435" y="692.4252">route_to(dest : signal_id, msg : T) : bool</text><g data-visibility-modifier="PUBLIC_METHOD"><ellipse cx="405" cy="745.1733" fill="#84BE84" rx="5.625" ry="5.625" style="stroke:#038048;stroke-width:1.875;"/></g><text fill="#000000" font-family="'Segoe UI'" font-size="24.375" lengthAdjust="spacing" textLength="300.2362" x="435" y="750.7993">observer_count() : size_t</text></g><!--class Caps--><g class="entity" data-qualified-name="osal.Caps" data-source-line="59" id="ent0012"><rect fill="#F1F1F1" height="340.6201" rx="4.6875" ry="4.6875" style="stroke:#181818;stroke-width:0.9375;" width="558.501" x="750" y="987.7441"/><ellipse cx="776.25" cy="1026.3062" fill="#ADD1B2" rx="18.75" ry="18.75" style="stroke:#181818;stroke-width:1.875;"/><path d="M779.7363,1034.2456 Q778.916,1034.6558 777.9785,1034.8608 Q777.0703,1035.0952 776.0742,1035.0952 Q772.4707,1035.0952 770.5664,1032.7222 Q768.6914,1030.3491 768.6914,1025.8667 Q768.6914,1021.3843 770.5664,1019.0112 Q772.4707,1016.6382 776.0742,1016.6382 Q777.0703,1016.6382 778.0078,1016.8726 Q778.9453,1017.0776 779.7363,1017.5171 L779.7363,1021.4136 Q778.8281,1020.5933 777.9785,1020.2124 Q777.1289,1019.8022 776.2207,1019.8022 Q774.3164,1019.8022 773.3203,1021.355 Q772.3242,1022.8784 772.3242,1025.8667 Q772.3242,1028.8843 773.3203,1030.4077 Q774.3164,1031.9312 776.2207,1031.9312 Q777.1289,1031.9312 777.9785,1031.5503 Q778.8281,1031.1694 779.7363,1030.3198 L779.7363,1034.2456 Z " fill="#000000"/><text fill="#000000" font-family="'Segoe UI'" font-size="24.375" lengthAdjust="spacing" textLength="284.3591" x="815.625" y="1034.7446">osal_signal_capabilities</text><rect fill="#FFFFFF" height="62.124" style="stroke:#181818;stroke-width:1.875;stroke-dasharray:3.75,3.75;" width="184.1418" x="1129.9841" y="982.1191"/><text fill="#000000" font-family="Segoe UI" font-size="24.375" font-style="italic" lengthAdjust="spacing" textLength="150.3918" x="1146.8591" y="1021.6196">BackendTag</text><line style="stroke:#181818;stroke-width:0.9375;" x1="751.875" x2="1306.626" y1="1064.8682" y2="1064.8682"/><g data-visibility-modifier="PUBLIC_FIELD"><ellipse cx="770.625" cy="1104.3677" fill="none" rx="5.625" ry="5.625" style="stroke:#038048;stroke-width:1.875;"/></g><text fill="#000000" font-family="'Segoe UI'" font-size="24.375" lengthAdjust="spacing" textLength="254.1165" x="800.625" y="1109.9936">native_pubsub : bool</text><g data-visibility-modifier="PUBLIC_FIELD"><ellipse cx="770.625" cy="1162.7417" fill="none" rx="5.625" ry="5.625" style="stroke:#038048;stroke-width:1.875;"/></g><text fill="#000000" font-family="'Segoe UI'" font-size="24.375" lengthAdjust="spacing" textLength="284.3472" x="800.625" y="1168.3676">native_observers : bool</text><g data-visibility-modifier="PUBLIC_FIELD"><ellipse cx="770.625" cy="1221.1157" fill="none" rx="5.625" ry="5.625" style="stroke:#038048;stroke-width:1.875;"/></g><text fill="#000000" font-family="'Segoe UI'" font-size="24.375" lengthAdjust="spacing" textLength="251.7361" x="800.625" y="1226.7416">native_routing : bool</text><g data-visibility-modifier="PUBLIC_FIELD"><ellipse cx="770.625" cy="1279.4897" fill="none" rx="5.625" ry="5.625" style="stroke:#038048;stroke-width:1.875;"/></g><text fill="#000000" font-family="'Segoe UI'" font-size="24.375" lengthAdjust="spacing" textLength="198.9038" x="800.625" y="1285.1157">zero_copy : bool</text><line style="stroke:#181818;stroke-width:0.9375;" x1="751.875" x2="1306.626" y1="1313.3643" y2="1313.3643"/></g><g class="entity" data-qualified-name="osal.GMN18" data-source-line="73" id="ent0019"><path d="M1162.5,2456.8066 L1162.5,2501.8066 L1110.1688,2509.3066 L1162.5,2516.8066 L1162.5,2562.3047 A0,0 0 0 0 1162.5,2562.3047 L1593.0963,2562.3047 A0,0 0 0 0 1593.0963,2562.3047 L1593.0963,2475.5566 L1574.3463,2456.8066 L1162.5,2456.8066 A0,0 0 0 0 1162.5,2456.8066" fill="#FEFFDD" style="stroke:#181818;stroke-width:0.9375;"/><path d="M1574.3463,2456.8066 L1574.3463,2475.5566 L1593.0963,2475.5566 L1574.3463,2456.8066" fill="#FEFFDD" style="stroke:#181818;stroke-width:0.9375;"/><text fill="#000000" font-family="'Segoe UI'" font-size="24.375" lengthAdjust="spacing" textLength="361.2213" x="1188.75" y="2503.8071">Current Zephyr specialisation</text><text fill="#000000" font-family="'Segoe UI'" font-size="24.375" lengthAdjust="spacing" textLength="240.9293" x="1188.75" y="2532.1811">is a TODO skeleton.</text></g><!--reverse link Bus to BusGeneric--><g class="link" data-entity-1="ent0003" data-entity-2="ent0004" data-link-type="extension" data-source-line="25" id="lnk6"><path codeLine="25" d="M713.8368,2299.4366 C705.6056,2304.6303 646.7813,2334.3129 574.0875,2371.5691" fill="none" id="Bus-backto-BusGeneric" style="stroke:#181818;stroke-width:1.875;stroke-dasharray:13.125,13.125;"/><polygon fill="none" points="741.975,2280.8004,707.6248,2290.0572,720.0489,2308.8159,741.975,2280.8004" style="stroke:#181818;stroke-width:1.875;"/></g><!--reverse link Bus to BusZephyr--><g class="link" data-entity-1="ent0003" data-entity-2="ent0005" data-link-type="extension" data-source-line="26" id="lnk7"><path codeLine="26" d="M927.5364,2329.961 C914.2802,2369.561 911.8688,2376.7629 900.6188,2410.3629" fill="none" id="Bus-backto-BusZephyr" style="stroke:#181818;stroke-width:1.875;stroke-dasharray:13.125,13.125;"/><polygon fill="none" points="938.25,2297.9566,916.8683,2326.3898,938.2045,2333.5322,938.25,2297.9566" style="stroke:#181818;stroke-width:1.875;"/></g><!--reverse link Signal to SignalGeneric--><g class="link" data-entity-1="ent0008" data-entity-2="ent0009" data-link-type="extension" data-source-line="66" id="lnk13"><path codeLine="66" d="M368.2228,1450.1377 C368.1478,1471.0627 368.175,1457.9941 368.1,1477.7566" fill="none" id="Signal-backto-SignalGeneric" style="stroke:#181818;stroke-width:1.875;stroke-dasharray:13.125,13.125;"/><polygon fill="none" points="368.3438,1416.3879,356.9729,1450.0974,379.4727,1450.178,368.3438,1416.3879" style="stroke:#181818;stroke-width:1.875;"/></g><!--link SignalPremium to Signal--><g class="link" data-entity-1="ent0011" data-entity-2="ent0008" data-link-type="extension" data-source-line="67" id="lnk14"><path codeLine="67" d="M557.2688,779.0941 C537.1875,819.4254 531.704,830.4657 511.9228,870.1782" fill="none" id="SignalPremium-to-Signal" style="stroke:#181818;stroke-width:1.875;"/><polygon fill="none" points="496.875,900.3879,521.9927,875.1941,501.8529,865.1623,496.875,900.3879" style="stroke:#181818;stroke-width:1.875;"/></g><!--reverse link SignalGeneric to subscriber_slot--><g class="link" data-entity-1="ent0009" data-entity-2="ent0010" data-link-type="composition" data-source-line="68" id="lnk15"><path codeLine="68" d="M366.7685,1800.9502 C366.5248,1859.3189 366.3375,1902.6504 366.0938,1956.6504" fill="none" id="SignalGeneric-backto-subscriber_slot" style="stroke:#181818;stroke-width:1.875;"/><polygon fill="#181818" points="366.8625,1778.4504,359.3156,1789.669,366.7685,1800.9502,374.3155,1789.7316,366.8625,1778.4504" style="stroke:#181818;stroke-width:1.875;"/></g><!--reverse link subscriber_slot to BusGeneric--><g class="link" data-entity-1="ent0010" data-entity-2="ent0004" data-link-type="composition" data-source-line="69" id="lnk16"><path codeLine="69" d="M347.9939,2203.1099 C340.7939,2257.2037 334.9875,2300.8254 327.2062,2359.2504" fill="none" id="subscriber_slot-backto-BusGeneric" style="stroke:#181818;stroke-width:1.875;"/><polygon fill="#181818" points="350.9625,2180.8066,342.0438,2190.9688,347.9939,2203.1099,356.9126,2192.9478,350.9625,2180.8066" style="stroke:#181818;stroke-width:1.875;"/></g><!--link SignalPremium to Caps--><g class="link" data-entity-1="ent0011" data-entity-2="ent0012" data-link-type="dependency" data-source-line="70" id="lnk17"><path codeLine="70" d="M841.4813,779.0941 C876.825,850.1004 908.5992,913.9042 940.1367,977.2604" fill="none" id="SignalPremium-to-Caps" style="stroke:#181818;stroke-width:1.875;stroke-dasharray:13.125,13.125;"/><polygon fill="#181818" points="945.15,987.3316,944.3443,968.8826,940.9723,978.9389,930.916,975.567,945.15,987.3316" style="stroke:#181818;stroke-width:1.875;"/><text fill="#000000" font-family="'Segoe UI'" font-size="24.375" lengthAdjust="spacing" textLength="199.0466" x="900" y="848.1821">constexpr query</text></g><?plantuml-src fLLBRjim4Dth56mA54fY2sXNXM4OI6AWctmAnAku0K79Ovc8HAhy176Q03r4JzYJT4Z9iYmfTejgOvDyy-6RDyDtN2IPNG2X2iG252sKNF8CeiBcMH0ORZ8WEK_KpUtP9JctcfoIMvuAbf5BjWP5Vl_yHIuofZMPSfOgbWU1O3deWYL0f4RSZo0W-2KUTEIsQ6prU3QuO0ZYPZquPya3Hf-nT794cFPXncCIpWRlpwRJZ-UVZec1lCYO0JAPe4DIVQUFBEEBy9YCI2nbjjqtQaqrkWmv6kBfh0lPEHuGmvC7ZN_TBpNz7XKam1yXbDOuemzTL1knr-_hGMA-2ToWSKaFJK60uadDqPTotU1Zk69YaG75ADyjMA3LscmHsaZ5KW-nN9ZFrCmtuKuqVmQv36V7zrkyPvZ-JzhFKApMgixwpYyRIKSHcTrCRyWT6X45Iq0bedQYg1dDI-85eTjxT_PBpztijDSh9dWzkEfehHBptybDsrWdYiU-m9Gla9PwI-6wHn5MR8sw1bryOUECwrMOwxHVjqqXTXqEo65nxhEg1DlJBbjy8gqmlkcSO2fnlHxWVO-KonBqg5bdqcYwcwpRcryt19fR0qyEv6AEHdxPSD5Ac-x9kXMbMNWkgDL0EwoKNLO5hzhWQj1tq_qauTY5dDjyhqY_bfXUGL8PQr2FeCAbSEbKAxeKUoNvBsO7bLa1iE6LHBQBTLWOvQ0dFLf4mM4HPBW0RNnDF0rEYc_whxFh5Q0lzmRYLTEupVoAFTtMvTNtNOl3yjYfLuApBkOPDnpqk5qk78IwMIN13FOTHNwG-CwrgjCwzRS0ZZ8kqivnJNVFa7RVPiAvARdJQYt4Hbx3uSkasceXDYrwCXoscwL6jfl8OLipknioYYObQIEIIA6nWmlbNZ2rtbv3I1p7YgShG-IoCUv9uxkm2XyFGwetHXUGS7o_D18enGwIQyBAPqS_G0P6YgW-nrBwQC5hy0S0?></g></svg>