<?plantuml 1.2026.1?><svg xmlns="http://www.w3.org/2000/svg" xmlns:xlink="http://www.w3.org/1999/xlink" contentStyleType="text/css" data-diagram-type="DESCRIPTION" height="1147.7084px" preserveAspectRatio="none" style="width:2250px;height:1147px;background:#FFFFFF;" version="1.1" viewBox="0 0 2250 1147" width="2250.5343px" zoomAndPan="magnify"><title>micrOSAL Bus + Signal Layer &#8212; Architecture</title><defs/><g><g class="title" data-source-line="3"><text fill="#000000" font-family="'Segoe UI'" font-size="14.9608" font-weight="bold" lengthAdjust="spacing" textLength="375.7663" x="930.1707" y="33.1223">micrOSAL Bus + Signal Layer &#8212; Architecture</text></g><!--cluster Bus / Signal API--><g class="cluster" data-qualified-name="Bus . Signal API" data-source-line="10" id="ent0005"><path d="M280.5153,523.9458 L421.8531,523.9458 A4.0074,4.0074 0 0 1 424.5247,526.6174 L432.0051,563.6271 L1013.061,563.6271 A2.6716,2.6716 0 0 1 1015.7326,566.2986 L1015.7326,753.1669 A2.6716,2.6716 0 0 1 1013.061,755.8385 L280.5153,755.8385 A2.6716,2.6716 0 0 1 277.8437,753.1669 L277.8437,526.6174 A2.6716,2.6716 0 0 1 280.5153,523.9458" fill="none" style="stroke:#000000;stroke-width:1.6029;"/><line style="stroke:#000000;stroke-width:1.6029;" x1="277.8437" x2="432.0051" y1="563.6271" y2="563.6271"/><text fill="#000000" font-family="'Segoe UI'" font-size="13.8922" font-weight="bold" lengthAdjust="spacing" textLength="123.1711" x="290.6673" y="547.5272">Bus / Signal API</text></g><!--cluster Implemented Runtime--><g class="cluster" data-qualified-name="Implemented Runtime" data-source-line="16" id="ent0009"><path d="M1201.1399,320.9062 L1393.488,320.9062 A4.0074,4.0074 0 0 1 1396.1596,323.5778 L1403.64,360.5874 L1879.7198,360.5874 A2.6716,2.6716 0 0 1 1882.3914,363.259 L1882.3914,581.1175 A2.6716,2.6716 0 0 1 1879.7198,583.7891 L1201.1399,583.7891 A2.6716,2.6716 0 0 1 1198.4683,581.1175 L1198.4683,323.5778 A2.6716,2.6716 0 0 1 1201.1399,320.9062" fill="none" style="stroke:#000000;stroke-width:1.6029;"/><line style="stroke:#000000;stroke-width:1.6029;" x1="1198.4683" x2="1403.64" y1="360.5874" y2="360.5874"/><text fill="#000000" font-family="'Segoe UI'" font-size="13.8922" font-weight="bold" lengthAdjust="spacing" textLength="174.1814" x="1211.2919" y="344.4875">Implemented Runtime</text></g><!--cluster Premium Helpers--><g class="cluster" data-qualified-name="Premium Helpers" data-source-line="22" id="ent0013"><path d="M781.7027,781.4856 L935.0604,781.4856 A4.0074,4.0074 0 0 1 937.732,784.1572 L945.2124,821.1668 L1008.2522,821.1668 A2.6716,2.6716 0 0 1 1010.9238,823.8384 L1010.9238,1137.8736 A2.6716,2.6716 0 0 1 1008.2522,1140.5452 L781.7027,1140.5452 A2.6716,2.6716 0 0 1 779.0311,1137.8736 L779.0311,784.1572 A2.6716,2.6716 0 0 1 781.7027,781.4856" fill="none" style="stroke:#000000;stroke-width:1.6029;"/><line style="stroke:#000000;stroke-width:1.6029;" x1="779.0311" x2="945.2124" y1="821.1668" y2="821.1668"/><text fill="#000000" font-family="'Segoe UI'" font-size="13.8922" font-weight="bold" lengthAdjust="spacing" textLength="135.1911" x="791.8547" y="805.067">Premium Helpers</text></g><!--cluster Planned Zephyr Path--><g class="cluster" data-qualified-name="Planned Zephyr Path" data-source-line="28" id="ent0017"><path d="M1231.5958,63.3664 L1414.2235,63.3664 A4.0074,4.0074 0 0 1 1416.8951,66.038 L1424.3755,103.0476 L1859.4158,103.0476 A2.6716,2.6716 0 0 1 1862.0874,105.7192 L1862.0874,292.5875 A2.6716,2.6716 0 0 1 1859.4158,295.2591 L1231.5958,295.2591 A2.6716,2.6716 0 0 1 1228.9242,292.5875 L1228.9242,66.038 A2.6716,2.6716 0 0 1 1231.5958,63.3664" fill="none" style="stroke:#000000;stroke-width:1.6029;"/><line style="stroke:#000000;stroke-width:1.6029;" x1="1228.9242" x2="1424.3755" y1="103.0476" y2="103.0476"/><text fill="#000000" font-family="'Segoe UI'" font-size="13.8922" font-weight="bold" lengthAdjust="spacing" textLength="164.461" x="1241.7478" y="86.9477">Planned Zephyr Path</text></g><!--cluster MicrOSAL Primitives--><g class="cluster" data-qualified-name="MicrOSAL Primitives" data-source-line="34" id="ent0021"><path d="M2017.573,439.5241 L2194.8487,439.5241 A4.0074,4.0074 0 0 1 2197.5203,442.1957 L2205.0007,479.2053 L2240.9166,479.2053 A2.6716,2.6716 0 0 1 2243.5882,481.8769 L2243.5882,668.7452 A2.6716,2.6716 0 0 1 2240.9166,671.4168 L2017.573,671.4168 A2.6716,2.6716 0 0 1 2014.9014,668.7452 L2014.9014,442.1957 A2.6716,2.6716 0 0 1 2017.573,439.5241" fill="none" style="stroke:#000000;stroke-width:1.6029;"/><line style="stroke:#000000;stroke-width:1.6029;" x1="2014.9014" x2="2205.0007" y1="479.2053" y2="479.2053"/><text fill="#000000" font-family="'Segoe UI'" font-size="13.8922" font-weight="bold" lengthAdjust="spacing" textLength="159.109" x="2027.725" y="463.1054">MicrOSAL Primitives</text></g><!--entity BUS--><g class="entity" data-qualified-name="Bus . Signal API.BUS" data-source-line="11" id="ent0006"><rect fill="#F1F1F1" height="65.3283" rx="2.6716" ry="2.6716" style="stroke:#181818;stroke-width:0.5343;" width="221.0686" x="323.2605" y="577.9116"/><rect fill="#F1F1F1" height="10.6863" style="stroke:#181818;stroke-width:0.5343;" width="16.0294" x="522.9565" y="583.2548"/><rect fill="#F1F1F1" height="2.1373" style="stroke:#181818;stroke-width:0.5343;" width="4.2745" x="520.8193" y="585.3921"/><rect fill="#F1F1F1" height="2.1373" style="stroke:#181818;stroke-width:0.5343;" width="4.2745" x="520.8193" y="589.6666"/><text fill="#000000" font-family="'Segoe UI'" font-size="13.8922" lengthAdjust="spacing" textLength="161.2253" x="347.839" y="620.7283">osal_bus&lt;T, Capacity&gt;</text></g><!--entity SIGNAL--><g class="entity" data-qualified-name="Bus . Signal API.SIGNAL" data-source-line="12" id="ent0007"><rect fill="#F1F1F1" height="65.3283" rx="2.6716" ry="2.6716" style="stroke:#181818;stroke-width:0.5343;" width="207.8005" x="791.3204" y="577.9116"/><rect fill="#F1F1F1" height="10.6863" style="stroke:#181818;stroke-width:0.5343;" width="16.0294" x="977.7482" y="583.2548"/><rect fill="#F1F1F1" height="2.1373" style="stroke:#181818;stroke-width:0.5343;" width="4.2745" x="975.611" y="585.3921"/><rect fill="#F1F1F1" height="2.1373" style="stroke:#181818;stroke-width:0.5343;" width="4.2745" x="975.611" y="589.6666"/><text fill="#000000" font-family="'Segoe UI'" font-size="13.8922" lengthAdjust="spacing" textLength="147.9572" x="815.8988" y="620.7283">osal_signal&lt;T, N, M&gt;</text></g><!--entity PREMIUM--><g class="entity" data-qualified-name="Bus . Signal API.PREMIUM" data-source-line="13" id="ent0008"><rect fill="#F1F1F1" height="65.3283" rx="2.6716" ry="2.6716" style="stroke:#181818;stroke-width:0.5343;" width="277.5531" x="294.9418" y="673.0197"/><rect fill="#F1F1F1" height="10.6863" style="stroke:#181818;stroke-width:0.5343;" width="16.0294" x="551.1223" y="678.3628"/><rect fill="#F1F1F1" height="2.1373" style="stroke:#181818;stroke-width:0.5343;" width="4.2745" x="548.9851" y="680.5001"/><rect fill="#F1F1F1" height="2.1373" style="stroke:#181818;stroke-width:0.5343;" width="4.2745" x="548.9851" y="684.7746"/><text fill="#000000" font-family="'Segoe UI'" font-size="13.8922" lengthAdjust="spacing" textLength="217.7098" x="319.5203" y="715.8364">osal_signal_premium&lt;T, N, M&gt;</text></g><!--entity GEN--><g class="entity" data-qualified-name="Implemented Runtime.GEN" data-source-line="17" id="ent0010"><rect fill="#F1F1F1" height="81.4997" rx="2.6716" ry="2.6716" style="stroke:#181818;stroke-width:0.5343;" width="217.6498" x="1647.2928" y="485.4752"/><rect fill="#F1F1F1" height="10.6863" style="stroke:#181818;stroke-width:0.5343;" width="16.0294" x="1843.57" y="490.8183"/><rect fill="#F1F1F1" height="2.1373" style="stroke:#181818;stroke-width:0.5343;" width="4.2745" x="1841.4328" y="492.9556"/><rect fill="#F1F1F1" height="2.1373" style="stroke:#181818;stroke-width:0.5343;" width="4.2745" x="1841.4328" y="497.2301"/><text fill="#000000" font-family="'Segoe UI'" font-size="13.8922" lengthAdjust="spacing" textLength="149.8633" x="1671.8713" y="528.2918">bus_backend_generic</text><text fill="#000000" font-family="'Segoe UI'" font-size="13.8922" lengthAdjust="spacing" textLength="157.8066" x="1671.8713" y="544.4632">canonical LCD runtime</text></g><!--entity DEL--><g class="entity" data-qualified-name="Implemented Runtime.DEL" data-source-line="18" id="ent0011"><rect fill="#F1F1F1" height="81.4997" rx="2.6716" ry="2.6716" style="stroke:#181818;stroke-width:0.5343;" width="273.4899" x="1215.5664" y="374.3377"/><rect fill="#F1F1F1" height="10.6863" style="stroke:#181818;stroke-width:0.5343;" width="16.0294" x="1467.6837" y="379.6808"/><rect fill="#F1F1F1" height="2.1373" style="stroke:#181818;stroke-width:0.5343;" width="4.2745" x="1465.5464" y="381.8181"/><rect fill="#F1F1F1" height="2.1373" style="stroke:#181818;stroke-width:0.5343;" width="4.2745" x="1465.5464" y="386.0926"/><text fill="#000000" font-family="'Segoe UI'" font-size="13.8922" lengthAdjust="spacing" textLength="213.6466" x="1240.1449" y="417.1543">delegated bus_backend_* tags</text><text fill="#000000" font-family="'Segoe UI'" font-size="13.8922" lengthAdjust="spacing" textLength="129.5202" x="1240.1449" y="433.3257">16 tags -&gt; generic</text></g><!--entity MOCK--><g class="entity" data-qualified-name="Implemented Runtime.MOCK" data-source-line="19" id="ent0012"><rect fill="#F1F1F1" height="81.4997" rx="2.6716" ry="2.6716" style="stroke:#181818;stroke-width:0.5343;" width="215.3367" x="1244.4194" y="485.4752"/><rect fill="#F1F1F1" height="10.6863" style="stroke:#181818;stroke-width:0.5343;" width="16.0294" x="1438.3835" y="490.8183"/><rect fill="#F1F1F1" height="2.1373" style="stroke:#181818;stroke-width:0.5343;" width="4.2745" x="1436.2463" y="492.9556"/><rect fill="#F1F1F1" height="2.1373" style="stroke:#181818;stroke-width:0.5343;" width="4.2745" x="1436.2463" y="497.2301"/><text fill="#000000" font-family="'Segoe UI'" font-size="13.8922" lengthAdjust="spacing" textLength="135.6523" x="1268.9979" y="528.2918">bus_backend_mock</text><text fill="#000000" font-family="'Segoe UI'" font-size="13.8922" lengthAdjust="spacing" textLength="155.4935" x="1268.9979" y="544.4632">test-only premium tag</text></g><!--entity OBS--><g class="entity" data-qualified-name="Premium Helpers.OBS" data-source-line="23" id="ent0014"><rect fill="#F1F1F1" height="65.3283" rx="2.6716" ry="2.6716" style="stroke:#181818;stroke-width:0.5343;" width="160.738" x="814.8302" y="835.4514"/><rect fill="#F1F1F1" height="10.6863" style="stroke:#181818;stroke-width:0.5343;" width="16.0294" x="954.1956" y="840.7946"/><rect fill="#F1F1F1" height="2.1373" style="stroke:#181818;stroke-width:0.5343;" width="4.2745" x="952.0583" y="842.9318"/><rect fill="#F1F1F1" height="2.1373" style="stroke:#181818;stroke-width:0.5343;" width="4.2745" x="952.0583" y="847.2063"/><text fill="#000000" font-family="'Segoe UI'" font-size="13.8922" lengthAdjust="spacing" textLength="100.8947" x="839.4087" y="878.2681">observer table</text></g><!--entity ZCOPY--><g class="entity" data-qualified-name="Premium Helpers.ZCOPY" data-source-line="24" id="ent0015"><rect fill="#F1F1F1" height="81.4997" rx="2.6716" ry="2.6716" style="stroke:#181818;stroke-width:0.5343;" width="198.0054" x="796.1292" y="931.0938"/><rect fill="#F1F1F1" height="10.6863" style="stroke:#181818;stroke-width:0.5343;" width="16.0294" x="972.762" y="936.4369"/><rect fill="#F1F1F1" height="2.1373" style="stroke:#181818;stroke-width:0.5343;" width="4.2745" x="970.6247" y="938.5742"/><rect fill="#F1F1F1" height="2.1373" style="stroke:#181818;stroke-width:0.5343;" width="4.2745" x="970.6247" y="942.8487"/><text fill="#000000" font-family="'Segoe UI'" font-size="13.8922" lengthAdjust="spacing" textLength="138.1621" x="820.7077" y="973.9105">publish_zero_copy()</text><text fill="#000000" font-family="'Segoe UI'" font-size="13.8922" lengthAdjust="spacing" textLength="135.6455" x="820.7077" y="990.0818">copy fallback today</text></g><!--entity ROUTE--><g class="entity" data-qualified-name="Premium Helpers.ROUTE" data-source-line="25" id="ent0016"><rect fill="#F1F1F1" height="81.4997" rx="2.6716" ry="2.6716" style="stroke:#181818;stroke-width:0.5343;" width="134.0661" x="828.1881" y="1042.2313"/><rect fill="#F1F1F1" height="10.6863" style="stroke:#181818;stroke-width:0.5343;" width="16.0294" x="940.8816" y="1047.5744"/><rect fill="#F1F1F1" height="2.1373" style="stroke:#181818;stroke-width:0.5343;" width="4.2745" x="938.7443" y="1049.7117"/><rect fill="#F1F1F1" height="2.1373" style="stroke:#181818;stroke-width:0.5343;" width="4.2745" x="938.7443" y="1053.9862"/><text fill="#000000" font-family="'Segoe UI'" font-size="13.8922" lengthAdjust="spacing" textLength="68.7419" x="852.7666" y="1085.048">route_to()</text><text fill="#000000" font-family="'Segoe UI'" font-size="13.8922" lengthAdjust="spacing" textLength="74.2228" x="852.7666" y="1101.2193">stub today</text></g><!--entity ZEP--><g class="entity" data-qualified-name="Planned Zephyr Path.ZEP" data-source-line="29" id="ent0018"><rect fill="#F1F1F1" height="81.4997" rx="2.6716" ry="2.6716" style="stroke:#181818;stroke-width:0.5343;" width="212.1893" x="1246.0223" y="196.9451"/><rect fill="#F1F1F1" height="10.6863" style="stroke:#181818;stroke-width:0.5343;" width="16.0294" x="1436.839" y="202.2883"/><rect fill="#F1F1F1" height="2.1373" style="stroke:#181818;stroke-width:0.5343;" width="4.2745" x="1434.7017" y="204.4255"/><rect fill="#F1F1F1" height="2.1373" style="stroke:#181818;stroke-width:0.5343;" width="4.2745" x="1434.7017" y="208.7001"/><text fill="#000000" font-family="'Segoe UI'" font-size="13.8922" lengthAdjust="spacing" textLength="145.3321" x="1270.6008" y="239.7618">bus_backend_zephyr</text><text fill="#000000" font-family="'Segoe UI'" font-size="13.8922" lengthAdjust="spacing" textLength="152.346" x="1270.6008" y="255.9332">Zbus skeleton / TODO</text></g><!--entity ZPUB--><g class="entity" data-qualified-name="Planned Zephyr Path.ZPUB" data-source-line="30" id="ent0019"><rect fill="#F1F1F1" height="65.3283" rx="2.6716" ry="2.6716" style="stroke:#181818;stroke-width:0.5343;" width="176.9297" x="1667.5968" y="212.4403"/><rect fill="#F1F1F1" height="10.6863" style="stroke:#181818;stroke-width:0.5343;" width="16.0294" x="1823.1539" y="217.7834"/><rect fill="#F1F1F1" height="2.1373" style="stroke:#181818;stroke-width:0.5343;" width="4.2745" x="1821.0166" y="219.9207"/><rect fill="#F1F1F1" height="2.1373" style="stroke:#181818;stroke-width:0.5343;" width="4.2745" x="1821.0166" y="224.1952"/><text fill="#000000" font-family="'Segoe UI'" font-size="13.8922" lengthAdjust="spacing" textLength="117.0864" x="1692.1753" y="255.2569">zbus_chan_pub()</text></g><!--entity ZWAIT--><g class="entity" data-qualified-name="Planned Zephyr Path.ZWAIT" data-source-line="31" id="ent0020"><rect fill="#F1F1F1" height="65.3283" rx="2.6716" ry="2.6716" style="stroke:#181818;stroke-width:0.5343;" width="170.7705" x="1670.8027" y="117.3322"/><rect fill="#F1F1F1" height="10.6863" style="stroke:#181818;stroke-width:0.5343;" width="16.0294" x="1820.2005" y="122.6754"/><rect fill="#F1F1F1" height="2.1373" style="stroke:#181818;stroke-width:0.5343;" width="4.2745" x="1818.0633" y="124.8126"/><rect fill="#F1F1F1" height="2.1373" style="stroke:#181818;stroke-width:0.5343;" width="4.2745" x="1818.0633" y="129.0871"/><text fill="#000000" font-family="'Segoe UI'" font-size="13.8922" lengthAdjust="spacing" textLength="110.9272" x="1695.3811" y="160.1489">zbus_sub_wait()</text></g><!--entity QABI--><g class="entity" data-qualified-name="MicrOSAL Primitives.QABI" data-source-line="35" id="ent0022"><rect fill="#F1F1F1" height="65.3283" rx="2.6716" ry="2.6716" style="stroke:#181818;stroke-width:0.5343;" width="193.9761" x="2031.9995" y="588.5979"/><rect fill="#F1F1F1" height="10.6863" style="stroke:#181818;stroke-width:0.5343;" width="16.0294" x="2204.6031" y="593.9411"/><rect fill="#F1F1F1" height="2.1373" style="stroke:#181818;stroke-width:0.5343;" width="4.2745" x="2202.4658" y="596.0784"/><rect fill="#F1F1F1" height="2.1373" style="stroke:#181818;stroke-width:0.5343;" width="4.2745" x="2202.4658" y="600.3529"/><text fill="#000000" font-family="'Segoe UI'" font-size="13.8922" lengthAdjust="spacing" textLength="134.1329" x="2056.578" y="631.4146">osal_queue_* C ABI</text></g><!--entity MUTEX--><g class="entity" data-qualified-name="MicrOSAL Primitives.MUTEX" data-source-line="36" id="ent0023"><rect fill="#F1F1F1" height="65.3283" rx="2.6716" ry="2.6716" style="stroke:#181818;stroke-width:0.5343;" width="141.8669" x="2058.181" y="493.4899"/><rect fill="#F1F1F1" height="10.6863" style="stroke:#181818;stroke-width:0.5343;" width="16.0294" x="2178.6752" y="498.833"/><rect fill="#F1F1F1" height="2.1373" style="stroke:#181818;stroke-width:0.5343;" width="4.2745" x="2176.538" y="500.9703"/><rect fill="#F1F1F1" height="2.1373" style="stroke:#181818;stroke-width:0.5343;" width="4.2745" x="2176.538" y="505.2448"/><text fill="#000000" font-family="'Segoe UI'" font-size="13.8922" lengthAdjust="spacing" textLength="82.0236" x="2082.7594" y="536.3066">osal::mutex</text></g><!--entity Producer--><g class="entity" data-qualified-name="Producer" data-source-line="6" id="ent0002"><ellipse cx="38.5343" cy="508.985" fill="#F1F1F1" rx="8.549" ry="8.549" style="stroke:#181818;stroke-width:0.5343;"/><path d="M38.5343,517.5341 L38.5343,546.3871 M24.6421,526.0831 L52.4265,526.0831 M38.5343,546.3871 L24.6421,562.4165 M38.5343,546.3871 L52.4265,562.4165" fill="none" style="stroke:#181818;stroke-width:0.5343;"/><text fill="#000000" font-family="'Segoe UI'" font-size="13.8922" lengthAdjust="spacing" textLength="62.1078" x="7.4804" y="585.4635">Producer</text></g><!--entity Subscriber--><g class="entity" data-qualified-name="Subscriber" data-source-line="7" id="ent0003"><ellipse cx="433.9785" cy="363.6514" fill="#F1F1F1" rx="8.549" ry="8.549" style="stroke:#181818;stroke-width:0.5343;"/><path d="M433.9785,372.2004 L433.9785,401.0534 M420.0863,380.7495 L447.8707,380.7495 M433.9785,401.0534 L420.0863,417.0829 M433.9785,401.0534 L447.8707,417.0829" fill="none" style="stroke:#181818;stroke-width:0.5343;"/><text fill="#000000" font-family="'Segoe UI'" font-size="13.8922" lengthAdjust="spacing" textLength="73.965" x="396.996" y="440.1299">Subscriber</text></g><!--entity Observer--><g class="entity" data-qualified-name="Observer" data-source-line="8" id="ent0004"><ellipse cx="38.2763" cy="666.0736" fill="#F1F1F1" rx="8.549" ry="8.549" style="stroke:#181818;stroke-width:0.5343;"/><path d="M38.2763,674.6226 L38.2763,703.4756 M24.3841,683.1717 L52.1685,683.1717 M38.2763,703.4756 L24.3841,719.5051 M38.2763,703.4756 L52.1685,719.5051" fill="none" style="stroke:#181818;stroke-width:0.5343;"/><text fill="#000000" font-family="'Segoe UI'" font-size="13.8922" lengthAdjust="spacing" textLength="63.7291" x="6.4118" y="742.5521">Observer</text></g><!--link Producer to BUS--><g class="link" data-entity-1="ent0002" data-entity-2="ent0006" data-link-type="dependency" data-source-line="39" id="lnk24"><path d="M78.1275,569.6725 C84.037,572.2586 90.171,574.5882 96.1767,576.3087 C170.019,597.4355 249.8424,605.5892 316.5356,608.8164" fill="none" id="Producer-to-BUS" style="stroke:#181818;stroke-width:1.0686;"/><polygon fill="#181818" points="322.9399,609.1263,313.5401,604.3919,317.603,608.8681,313.1269,612.931,322.9399,609.1263" style="stroke:#181818;stroke-width:1.0686;"/><text fill="#000000" font-family="'Segoe UI'" font-size="13.8922" lengthAdjust="spacing" textLength="128.3331" x="114.3434" y="563.5566">try_send() / send()</text></g><!--link Producer to SIGNAL--><g class="link" data-entity-1="ent0002" data-entity-2="ent0007" data-link-type="dependency" data-source-line="40" id="lnk25"><path d="M78.0955,540.2531 C84.1225,539.2486 90.2992,538.383 96.1767,537.838 C169.0038,531.0309 187.6621,534.9634 260.7457,537.838 C399.753,543.3094 434.569,546.6435 572.7856,562.4165 C646.0188,570.7732 721.8764,582.1208 784.7759,592.2194" fill="none" id="Producer-to-SIGNAL" style="stroke:#181818;stroke-width:1.0686;"/><polygon fill="#181818" points="791.1066,593.2358,782.2882,587.4907,785.831,592.3888,780.933,595.9317,791.1066,593.2358" style="stroke:#181818;stroke-width:1.0686;"/><text fill="#000000" font-family="'Segoe UI'" font-size="13.8922" lengthAdjust="spacing" textLength="61.0429" x="403.4077" y="526.1546">publish()</text></g><!--link Subscriber to SIGNAL--><g class="link" data-entity-1="ent0003" data-entity-2="ent0007" data-link-type="dependency" data-source-line="41" id="lnk26"><path d="M479.3553,409.0468 C544.5737,419.0278 668.5775,443.3818 761.933,494.0242 C801.9532,515.7388 835.6885,546.9842 860.5769,573.1977" fill="none" id="Subscriber-to-SIGNAL" style="stroke:#181818;stroke-width:1.0686;"/><polygon fill="#181818" points="864.9917,577.8475,861.4694,567.9296,861.3127,573.9727,855.2697,573.816,864.9917,577.8475" style="stroke:#181818;stroke-width:1.0686;"/><text fill="#000000" font-family="'Segoe UI'" font-size="13.8922" lengthAdjust="spacing" textLength="152.9362" x="599.5013" y="421.4289">subscribe() / receive()</text></g><!--link Observer to PREMIUM--><g class="link" data-entity-1="ent0004" data-entity-2="ent0008" data-link-type="dependency" data-source-line="42" id="lnk27"><path d="M79.4099,705.6129 C129.6889,705.6129 212.3688,705.6129 288.5194,705.6129" fill="none" id="Observer-to-PREMIUM" style="stroke:#181818;stroke-width:1.0686;"/><polygon fill="#181818" points="294.9311,705.6129,285.3135,701.3384,289.588,705.6129,285.3135,709.8874,294.9311,705.6129" style="stroke:#181818;stroke-width:1.0686;"/><text fill="#000000" font-family="'Segoe UI'" font-size="13.8922" lengthAdjust="spacing" textLength="145.7526" x="105.7943" y="692.8608">subscribe_observer()</text></g><!--link PREMIUM to SIGNAL--><g class="link" data-entity-1="ent0008" data-entity-2="ent0007" data-link-type="dependency" data-source-line="44" id="lnk28"><path d="M572.9565,677.0164 C643.048,662.4937 720.4645,646.4393 784.8174,633.1135" fill="none" id="PREMIUM-to-SIGNAL" style="stroke:#181818;stroke-width:1.0686;"/><polygon fill="#181818" points="791.0959,631.8133,780.8113,629.5778,785.8638,632.8968,782.5448,637.9492,791.0959,631.8133" style="stroke:#181818;stroke-width:1.0686;"/><text fill="#000000" font-family="'Segoe UI'" font-size="13.8922" lengthAdjust="spacing" textLength="82.0168" x="635.3004" y="625.5372">extends API</text></g><!--link SIGNAL to GEN--><g class="link" data-entity-1="ent0007" data-entity-2="ent0010" data-link-type="dependency" data-source-line="45" id="lnk29"><path d="M998.6773,622.3987 C1117.5837,633.6941 1318.9884,645.1605 1489.1356,616.9166 C1547.7606,607.1814 1604.8307,588.4769 1654.8319,569.1134" fill="none" id="SIGNAL-to-GEN" style="stroke:#181818;stroke-width:1.0686;"/><polygon fill="#181818" points="1660.811,566.7979,1650.2987,566.285,1655.8284,568.7275,1653.386,574.2572,1660.811,566.7979" style="stroke:#181818;stroke-width:1.0686;"/><text fill="#000000" font-family="'Segoe UI'" font-size="13.8922" lengthAdjust="spacing" textLength="125.2535" x="1289.8361" y="604.1646">canonical runtime</text></g><!--link SIGNAL to DEL--><g class="link" data-entity-1="ent0007" data-entity-2="ent0011" data-link-type="dependency" data-source-line="46" id="lnk30"><path d="M959.3196,577.8048 C1018.2118,547.99 1108.8423,503.6632 1189.9193,470.5144 C1202.2619,465.4704 1209.2292,462.696 1222.2558,457.8979" fill="none" id="SIGNAL-to-DEL" style="stroke:#181818;stroke-width:1.0686;"/><polygon fill="#181818" points="1228.2724,455.6818,1217.77,454.9949,1223.2585,457.5285,1220.7249,463.017,1228.2724,455.6818" style="stroke:#181818;stroke-width:1.0686;"/><text fill="#000000" font-family="'Segoe UI'" font-size="13.8922" lengthAdjust="spacing" textLength="104.3474" x="1055.2719" y="465.2427">delegated tags</text></g><!--link SIGNAL to ZEP--><g class="link" data-entity-1="ent0007" data-entity-2="ent0018" data-link-type="dependency" data-source-line="47" id="lnk31"><path d="M916.5424,577.6445 C941.014,540.1463 984.7317,478.4543 1032.8307,435.2496 C1104.9632,370.4585 1195.3434,317.1174 1263.0304,281.329" fill="none" id="SIGNAL-to-ZEP" style="stroke:#181818;stroke-width:1.0686;stroke-dasharray:7.4804,7.4804;"/><polygon fill="#181818" points="1268.6986,278.332,1258.1983,279.0486,1263.9751,280.8295,1262.1943,286.6063,1268.6986,278.332" style="stroke:#181818;stroke-width:1.0686;"/><text fill="#000000" font-family="'Segoe UI'" font-size="13.8922" lengthAdjust="spacing" textLength="130.1104" x="1042.4483" y="304.9482">Zephyr default tag</text><text fill="#000000" font-family="'Segoe UI'" font-size="13.8922" lengthAdjust="spacing" textLength="119.0536" x="1047.9767" y="321.1196">(currently TODO)</text></g><!--link BUS to QABI--><g class="link" data-entity-1="ent0006" data-entity-2="ent0022" data-link-type="dependency" data-source-line="48" id="lnk32"><path d="M544.6592,642.2432 C554.5441,647.0199 564.0976,652.4486 572.7856,658.5932 C582.7131,665.6248 579.3576,673.8746 589.8836,679.9658 C708.213,748.465 757.1776,726.9855 893.9088,726.9855 C893.9088,726.9855 893.9088,726.9855 1757.3617,726.9855 C1865.4749,726.9855 1978.8629,687.384 2052.1922,656.2976" fill="none" id="BUS-to-QABI" style="stroke:#181818;stroke-width:1.0686;"/><polygon fill="#181818" points="2058.0955,653.795,2047.5722,653.6134,2053.1761,655.8805,2050.909,661.4844,2058.0955,653.795" style="stroke:#181818;stroke-width:1.0686;"/><text fill="#000000" font-family="'Segoe UI'" font-size="13.8922" lengthAdjust="spacing" textLength="100.1893" x="1302.6597" y="714.2334">transport path</text></g><!--link GEN to QABI--><g class="link" data-entity-1="ent0010" data-entity-2="ent0022" data-link-type="dependency" data-source-line="49" id="lnk33"><path d="M1865.4001,559.403 C1876.8772,562.6944 1888.4077,565.9002 1899.4894,568.8283 C1942.7048,580.2626 1984.6417,590.1209 2025.6023,599.247" fill="none" id="GEN-to-QABI" style="stroke:#181818;stroke-width:1.0686;"/><polygon fill="#181818" points="2031.8606,600.6414,2023.4027,594.3776,2026.6453,599.4794,2021.5435,602.7221,2031.8606,600.6414" style="stroke:#181818;stroke-width:1.0686;"/><text fill="#000000" font-family="'Segoe UI'" font-size="13.8922" lengthAdjust="spacing" textLength="79.5206" x="1909.1071" y="556.0762">queue path</text></g><!--link GEN to MUTEX--><g class="link" data-entity-1="ent0010" data-entity-2="ent0023" data-link-type="dependency" data-source-line="50" id="lnk34"><path d="M1865.6139,526.0831 C1927.7119,526.0831 1997.4614,526.0831 2051.7264,526.0831" fill="none" id="GEN-to-MUTEX" style="stroke:#181818;stroke-width:1.0686;"/><polygon fill="#181818" points="2058.1382,526.0831,2048.5205,521.8086,2052.7951,526.0831,2048.5205,530.3576,2058.1382,526.0831" style="stroke:#181818;stroke-width:1.0686;"/><text fill="#000000" font-family="'Segoe UI'" font-size="13.8922" lengthAdjust="spacing" textLength="70.1257" x="1913.9159" y="513.331">slot guard</text></g><!--link DEL to GEN--><g class="link" data-entity-1="ent0011" data-entity-2="ent0010" data-link-type="dependency" data-source-line="51" id="lnk35"><path d="M1489.1997,446 C1534.2852,456.9748 1584.607,469.9373 1630.1947,483.3379 C1635.6982,484.9515 1635.2005,484.7449 1640.8642,486.5189" fill="none" id="DEL-to-GEN" style="stroke:#181818;stroke-width:1.0686;"/><polygon fill="#181818" points="1646.9829,488.4353,1639.0825,481.4815,1641.884,486.8383,1636.5273,489.6398,1646.9829,488.4353" style="stroke:#181818;stroke-width:1.0686;"/><text fill="#000000" font-family="'Segoe UI'" font-size="13.8922" lengthAdjust="spacing" textLength="68.3349" x="1534.5524" y="438.5269">delegates</text></g><!--link MOCK to GEN--><g class="link" data-entity-1="ent0012" data-entity-2="ent0010" data-link-type="dependency" data-source-line="52" id="lnk36"><path d="M1460.5711,526.0831 C1518.2237,526.0831 1582.7476,526.0831 1640.5711,526.0831" fill="none" id="MOCK-to-GEN" style="stroke:#181818;stroke-width:1.0686;"/><polygon fill="#181818" points="1646.9829,526.0831,1637.3652,521.8086,1641.6398,526.0831,1637.3652,530.3576,1646.9829,526.0831" style="stroke:#181818;stroke-width:1.0686;"/><text fill="#000000" font-family="'Segoe UI'" font-size="13.8922" lengthAdjust="spacing" textLength="105.2089" x="1515.8513" y="513.331">reuses runtime</text></g><!--link PREMIUM to OBS--><g class="link" data-entity-1="ent0008" data-entity-2="ent0014" data-link-type="dependency" data-source-line="53" id="lnk37"><path d="M490.982,738.2916 C519.8456,754.1608 556.0081,772.5946 589.8836,785.7601 C664.1641,814.6452 746.1598,835.8874 808.3968,850.0575" fill="none" id="PREMIUM-to-OBS" style="stroke:#181818;stroke-width:1.0686;"/><polygon fill="#181818" points="814.6485,851.4809,806.2198,845.1779,809.4387,850.2947,804.3219,853.5136,814.6485,851.4809" style="stroke:#181818;stroke-width:1.0686;"/><text fill="#000000" font-family="'Segoe UI'" font-size="13.8922" lengthAdjust="spacing" textLength="100.9083" x="625.6827" y="773.0081">local callbacks</text></g><!--link PREMIUM to ZCOPY--><g class="link" data-entity-1="ent0008" data-entity-2="ent0015" data-link-type="dependency" data-source-line="54" id="lnk38"><path d="M464.6616,738.2809 C494.0917,769.1323 541.6243,815.0833 589.8836,845.6034 C654.3541,886.3823 728.2205,916.7865 789.9339,938.5865" fill="none" id="PREMIUM-to-ZCOPY" style="stroke:#181818;stroke-width:1.0686;"/><polygon fill="#181818" points="795.9796,940.7221,788.3348,933.4883,790.9415,938.9425,785.4873,941.5492,795.9796,940.7221" style="stroke:#181818;stroke-width:1.0686;"/></g><!--link PREMIUM to ROUTE--><g class="link" data-entity-1="ent0008" data-entity-2="ent0016" data-link-type="dependency" data-source-line="55" id="lnk39"><path d="M450.5877,738.3664 C474.8136,786.2624 525.3918,875.9097 589.8836,933.231 C660.4559,995.9596 755.9931,1036.7006 821.9596,1059.9646" fill="none" id="PREMIUM-to-ROUTE" style="stroke:#181818;stroke-width:1.0686;"/><polygon fill="#181818" points="828.0064,1062.0971,820.3579,1054.8672,822.9674,1060.32,817.5146,1062.9296,828.0064,1062.0971" style="stroke:#181818;stroke-width:1.0686;"/></g><!--link ZEP to ZPUB--><g class="link" data-entity-1="ent0018" data-entity-2="ent0019" data-link-type="dependency" data-source-line="56" id="lnk40"><path d="M1458.9896,239.5193 C1523.8661,240.7269 1599.5903,242.1355 1660.9083,243.2789" fill="none" id="ZEP-to-ZPUB" style="stroke:#181818;stroke-width:1.0686;"/><polygon fill="#181818" points="1667.3189,243.3985,1657.7826,238.9454,1661.9767,243.2988,1657.6232,247.4929,1667.3189,243.3985" style="stroke:#181818;stroke-width:1.0686;"/></g><!--link ZEP to ZWAIT--><g class="link" data-entity-1="ent0018" data-entity-2="ent0020" data-link-type="dependency" data-source-line="57" id="lnk41"><path d="M1458.9896,214.5348 C1525.0202,200.1296 1602.6858,183.1901 1664.3351,169.7467" fill="none" id="ZEP-to-ZWAIT" style="stroke:#181818;stroke-width:1.0686;"/><polygon fill="#181818" points="1670.5996,168.3807,1660.2921,166.2534,1665.3791,169.519,1662.1135,174.6061,1670.5996,168.3807" style="stroke:#181818;stroke-width:1.0686;"/></g><?plantuml-src XLJRRjD047ttLmnvIg0jueM72bLAqgX4D4re4W5L96kzdYIhhdVDNafJXCH7y8Ly2RE-D7O99I-nTywSdJapno-4ujAd2B51bQA9SwFNGk99xZCPHKuuYP09RgRp_YKCl8LNC1SRnIHSiXqQ-Ftp5_GDtmg7t7c3aSIr0wV1YCtMGIeCdGkjeeXnfmtCZ4uzHrEzpdrYkH79uy4qiMZkw3NA6Rzb6uHEkFLrVMj_Dkx0zmZentMMQuNAGKTR9kF4stUB8nWooXHkTzO1Pc6md1y4su8kuA-EO59Yv-EBg_xbCt1I1pFXitRQx7eq6IydqOz6pUCibvXHFgPmxPKJ6HuecogE4qeXwUCDAZI2hnHdIYl1WyB3Sp1rCbrqCRfwof2Yn0qBjpIvNe9Z6xjIRzuM3t1y1XLzmNC-kdokaappsnLLRjsnLd87LTE1gaYVJ8SVMitEAi1xb3aQUsW-rLI98v5bCzF1NuF9VIA5tSOFQ7JCTRxhzaWE-eSrapAKHukLibsHVpESphuyPJ3QEuoT3edM-QI1lvuk5wDssP8fHShTOBxTqMOoj_tFZ1uAv4hTq27OMzBUQKMxkPYUJykYHhEd-G-1W6-PYgczRg-4pPQ3WpZha_WR4wx6VUgF5wsQ9xKLPqPameaxjF-omrUF7caLXj0VZ0kwZ_Hm27fwcf5iz-LmIQNFuShQg71CsqCkWbDmPXTRqg7RevxBXpQiD10XgqbIV6_mDiBMvmKPVIIGUY5yxVy2NJch2O_hLI9iLCTRp7Zlg3GRlXHHTHZYP1uAxirL6Qi98LyGP6-fu9qwVd9o5gPByMfTKbmpBrq0hLINUqCVK4Tk2RlGYu9WWJ98NYZ7bCsrSP3JbaMXbaQqc5GxKemXz2srWurd9er2TVj6wYfj5EpO21Zq5krZUqs9o784a3gqpoj7sHQYD5NpfBHDwBo8XyLzV2csymy0?></g></svg>