<?plantuml 1.2026.1?><svg xmlns="http://www.w3.org/2000/svg" xmlns:xlink="http://www.w3.org/1999/xlink" contentStyleType="text/css" data-diagram-type="CLASS" height="2870.625px" preserveAspectRatio="none" style="width:2073px;height:2870px;background:#FFFFFF;" version="1.1" viewBox="0 0 2073 2870" width="2073.75px" zoomAndPan="magnify"><title>micrOSAL Bus + Signal Layer &#8212; Class Diagram</title><defs/><g><g class="title" data-source-line="3"><text fill="#000000" font-family="'Segoe UI'" font-size="26.25" font-weight="bold" lengthAdjust="spacing" textLength="686.5759" x="680.462" y="58.1158">micrOSAL Bus + Signal Layer &#8212; Class Diagram</text></g><!--cluster osal--><g class="cluster" data-qualified-name="osal" data-source-line="5" id="ent0002"><path d="M15.9375,111.1816 L103.8702,111.1816 A7.0313,7.0313 0 0 1 108.5577,115.8691 L121.6827,180.8057 L2055.9375,180.8057 A4.6875,4.6875 0 0 1 2060.625,185.4932 L2060.625,2853.3691 A4.6875,4.6875 0 0 1 2055.9375,2858.0566 L15.9375,2858.0566 A4.6875,4.6875 0 0 1 11.25,2853.3691 L11.25,115.8691 A4.6875,4.6875 0 0 1 15.9375,111.1816" fill="none" style="stroke:#000000;stroke-width:2.8125;"/><line style="stroke:#000000;stroke-width:2.8125;" x1="11.25" x2="121.6827" y1="180.8057" y2="180.8057"/><text fill="#000000" font-family="'Segoe UI'" font-size="24.375" font-weight="bold" lengthAdjust="spacing" textLength="56.0577" x="33.75" y="152.5571">osal</text></g><!--class Bus--><g class="entity" data-qualified-name="osal.Bus" data-source-line="7" id="ent0003"><rect fill="#F1F1F1" height="457.3682" rx="4.6875" ry="4.6875" style="stroke:#181818;stroke-width:0.9375;" width="543.6694" x="1156.875" y="1663.6816"/><ellipse cx="1183.125" cy="1731.4307" fill="#ADD1B2" rx="18.75" ry="18.75" style="stroke:#181818;stroke-width:1.875;"/><path d="M1184.707,1740.3369 L1181.2207,1740.3369 L1181.2207,1725.6299 L1176.709,1725.6299 L1176.709,1722.5537 L1189.2188,1722.5537 L1189.2188,1725.6299 L1184.707,1725.6299 L1184.707,1740.3369 Z " fill="#000000"/><text fill="#000000" font-family="Segoe UI" font-size="24.375" font-style="italic" lengthAdjust="spacing" textLength="140.1205" x="1218.75" y="1710.6821">&#171;template&#187;</text><text fill="#000000" font-family="'Segoe UI'" font-size="24.375" lengthAdjust="spacing" textLength="105.1291" x="1236.2457" y="1769.0561">osal_bus</text><rect fill="#FFFFFF" height="62.124" style="stroke:#181818;stroke-width:1.875;stroke-dasharray:3.75,3.75;" width="321.0489" x="1385.1205" y="1658.0566"/><text fill="#000000" font-family="Segoe UI" font-size="24.375" font-style="italic" lengthAdjust="spacing" textLength="287.2989" x="1401.9955" y="1697.5571">T,Capacity,BackendTag</text><line style="stroke:#181818;stroke-width:0.9375;" x1="1158.75" x2="1698.6694" y1="1799.1797" y2="1799.1797"/><line style="stroke:#181818;stroke-width:0.9375;" x1="1158.75" x2="1698.6694" y1="1814.1797" y2="1814.1797"/><g data-visibility-modifier="PUBLIC_METHOD"><ellipse cx="1177.5" cy="1853.6792" fill="#84BE84" rx="5.625" ry="5.625" style="stroke:#038048;stroke-width:1.875;"/></g><text fill="#000000" font-family="'Segoe UI'" font-size="24.375" lengthAdjust="spacing" textLength="153.1769" x="1207.5" y="1859.3051">valid() : bool</text><g data-visibility-modifier="PUBLIC_METHOD"><ellipse cx="1177.5" cy="1912.0532" fill="#84BE84" rx="5.625" ry="5.625" style="stroke:#038048;stroke-width:1.875;"/></g><text fill="#000000" font-family="'Segoe UI'" font-size="24.375" lengthAdjust="spacing" textLength="293.2736" x="1207.5" y="1917.6791">try_send(item : T) : bool</text><g data-visibility-modifier="PUBLIC_METHOD"><ellipse cx="1177.5" cy="1970.4272" fill="#84BE84" rx="5.625" ry="5.625" style="stroke:#038048;stroke-width:1.875;"/></g><text fill="#000000" font-family="'Segoe UI'" font-size="24.375" lengthAdjust="spacing" textLength="408.4241" x="1207.5" y="1976.0532">send(item : T, ticks : tick_t) : bool</text><g data-visibility-modifier="PUBLIC_METHOD"><ellipse cx="1177.5" cy="2028.8013" fill="#84BE84" rx="5.625" ry="5.625" style="stroke:#038048;stroke-width:1.875;"/></g><text fill="#000000" font-family="'Segoe UI'" font-size="24.375" lengthAdjust="spacing" textLength="328.1223" x="1207.5" y="2034.4272">try_receive(out : T&amp;) : bool</text><g data-visibility-modifier="PUBLIC_METHOD"><ellipse cx="1177.5" cy="2087.1753" fill="#84BE84" rx="5.625" ry="5.625" style="stroke:#038048;stroke-width:1.875;"/></g><text fill="#000000" font-family="'Segoe UI'" font-size="24.375" lengthAdjust="spacing" textLength="443.2727" x="1207.5" y="2092.8012">receive(out : T&amp;, ticks : tick_t) : bool</text></g><!--class BusGeneric--><g class="entity" data-qualified-name="osal.BusGeneric" data-source-line="15" id="ent0004"><rect fill="#F1F1F1" height="299.3701" rx="4.6875" ry="4.6875" style="stroke:#181818;stroke-width:0.9375;" width="532.24" x="832.5" y="2528.0566"/><ellipse cx="876.9359" cy="2575.1807" fill="#ADD1B2" rx="18.75" ry="18.75" style="stroke:#181818;stroke-width:1.875;"/><path d="M880.4223,2583.1201 Q879.602,2583.5303 878.6645,2583.7354 Q877.7563,2583.9697 876.7602,2583.9697 Q873.1566,2583.9697 871.2523,2581.5967 Q869.3773,2579.2236 869.3773,2574.7412 Q869.3773,2570.2588 871.2523,2567.8857 Q873.1566,2565.5127 876.7602,2565.5127 Q877.7563,2565.5127 878.6938,2565.7471 Q879.6313,2565.9521 880.4223,2566.3916 L880.4223,2570.2881 Q879.5141,2569.4678 878.6645,2569.0869 Q877.8148,2568.6768 876.9066,2568.6768 Q875.0023,2568.6768 874.0063,2570.2295 Q873.0102,2571.7529 873.0102,2574.7412 Q873.0102,2577.7588 874.0063,2579.2822 Q875.0023,2580.8057 876.9066,2580.8057 Q877.8148,2580.8057 878.6645,2580.4248 Q879.5141,2580.0439 880.4223,2579.1943 L880.4223,2583.1201 Z " fill="#000000"/><text fill="#000000" font-family="'Segoe UI'" font-size="24.375" lengthAdjust="spacing" textLength="105.1291" x="920.3523" y="2583.6191">osal_bus</text><rect fill="#FFFFFF" height="90.498" style="stroke:#181818;stroke-width:1.875;stroke-dasharray:3.75,3.75;" width="296.6977" x="1073.6673" y="2522.4316"/><text fill="#000000" font-family="Segoe UI" font-size="24.375" font-style="italic" lengthAdjust="spacing" textLength="136.907" x="1153.5626" y="2561.9321">T,Capacity,</text><text fill="#000000" font-family="Segoe UI" font-size="24.375" font-style="italic" lengthAdjust="spacing" textLength="262.9477" x="1090.5423" y="2590.3061">bus_backend_generic</text><line style="stroke:#181818;stroke-width:0.9375;" x1="834.375" x2="1362.865" y1="2622.3047" y2="2622.3047"/><g data-visibility-modifier="PRIVATE_FIELD"><rect fill="none" height="11.25" style="stroke:#C82930;stroke-width:1.875;" width="11.25" x="847.5" y="2656.1792"/></g><text fill="#000000" font-family="'Segoe UI'" font-size="24.375" lengthAdjust="spacing" textLength="312.3404" x="883.125" y="2667.4301">handle_ : queue_handle_t</text><g data-visibility-modifier="PRIVATE_FIELD"><rect fill="none" height="11.25" style="stroke:#C82930;stroke-width:1.875;" width="11.25" x="847.5" y="2714.5532"/></g><text fill="#000000" font-family="'Segoe UI'" font-size="24.375" lengthAdjust="spacing" textLength="146.3452" x="883.125" y="2725.8041">valid_ : bool</text><line style="stroke:#181818;stroke-width:0.9375;" x1="834.375" x2="1362.865" y1="2754.0527" y2="2754.0527"/><g data-visibility-modifier="PRIVATE_METHOD"><rect fill="#F24D5C" height="11.25" style="stroke:#C82930;stroke-width:1.875;" width="11.25" x="847.5" y="2787.9272"/></g><text fill="#000000" font-family="'Segoe UI'" font-size="24.375" lengthAdjust="spacing" textLength="455.365" x="883.125" y="2799.1782">storage_ : uint8_t[Capacity*sizeof(T)]</text></g><!--class BusZephyr--><g class="entity" data-qualified-name="osal.BusZephyr" data-source-line="21" id="ent0005"><rect fill="#F1F1F1" height="182.6221" rx="4.6875" ry="4.6875" style="stroke:#181818;stroke-width:0.9375;" width="711.3629" x="743.4375" y="2203.6816"/><ellipse cx="877.8058" cy="2250.8057" fill="#ADD1B2" rx="18.75" ry="18.75" style="stroke:#181818;stroke-width:1.875;"/><path d="M881.2921,2258.7451 Q880.4718,2259.1553 879.5343,2259.3604 Q878.6261,2259.5947 877.63,2259.5947 Q874.0265,2259.5947 872.1222,2257.2217 Q870.2472,2254.8486 870.2472,2250.3662 Q870.2472,2245.8838 872.1222,2243.5107 Q874.0265,2241.1377 877.63,2241.1377 Q878.6261,2241.1377 879.5636,2241.3721 Q880.5011,2241.5771 881.2921,2242.0166 L881.2921,2245.9131 Q880.3839,2245.0928 879.5343,2244.7119 Q878.6847,2244.3018 877.7765,2244.3018 Q875.8722,2244.3018 874.8761,2245.8545 Q873.88,2247.3779 873.88,2250.3662 Q873.88,2253.3838 874.8761,2254.9072 Q875.8722,2256.4307 877.7765,2256.4307 Q878.6847,2256.4307 879.5343,2256.0498 Q880.3839,2255.6689 881.2921,2254.8193 L881.2921,2258.7451 Z " fill="#000000"/><text fill="#000000" font-family="'Segoe UI'" font-size="24.375" lengthAdjust="spacing" textLength="105.1291" x="928.4308" y="2259.2441">osal_bus</text><rect fill="#FFFFFF" height="90.498" style="stroke:#181818;stroke-width:1.875;stroke-dasharray:3.75,3.75;" width="288.7473" x="1171.6782" y="2198.0566"/><text fill="#000000" font-family="Segoe UI" font-size="24.375" font-style="italic" lengthAdjust="spacing" textLength="136.907" x="1247.5983" y="2237.5571">T,Capacity,</text><text fill="#000000" font-family="Segoe UI" font-size="24.375" font-style="italic" lengthAdjust="spacing" textLength="254.9973" x="1188.5532" y="2265.9311">bus_backend_zephyr</text><line style="stroke:#181818;stroke-width:0.9375;" x1="745.3125" x2="1452.9254" y1="2297.9297" y2="2297.9297"/><g data-visibility-modifier="PRIVATE_FIELD"><rect fill="none" height="11.25" style="stroke:#C82930;stroke-width:1.875;" width="11.25" x="758.4375" y="2331.8042"/></g><text fill="#000000" font-family="'Segoe UI'" font-size="24.375" lengthAdjust="spacing" textLength="634.4879" x="794.0625" y="2343.0551">impl_ : osal_bus&lt;T,Capacity,bus_backend_generic&gt;</text><line style="stroke:#181818;stroke-width:0.9375;" x1="745.3125" x2="1452.9254" y1="2371.3037" y2="2371.3037"/></g><!--class Signal--><g class="entity" data-qualified-name="osal.Signal" data-source-line="28" id="ent0008"><rect fill="#F1F1F1" height="515.7422" rx="4.6875" ry="4.6875" style="stroke:#181818;stroke-width:0.9375;" width="653.7341" x="188.4375" y="900.5566"/><ellipse cx="293.3546" cy="968.3057" fill="#ADD1B2" rx="18.75" ry="18.75" style="stroke:#181818;stroke-width:1.875;"/><path d="M294.9367,977.2119 L291.4503,977.2119 L291.4503,962.5049 L286.9386,962.5049 L286.9386,959.4287 L299.4484,959.4287 L299.4484,962.5049 L294.9367,962.5049 L294.9367,977.2119 Z " fill="#000000"/><text fill="#000000" font-family="Segoe UI" font-size="24.375" font-style="italic" lengthAdjust="spacing" textLength="140.1205" x="340.7245" y="947.5571">&#171;template&#187;</text><text fill="#000000" font-family="'Segoe UI'" font-size="24.375" lengthAdjust="spacing" textLength="133.6102" x="343.9796" y="1005.9311">osal_signal</text><rect fill="#FFFFFF" height="62.124" style="stroke:#181818;stroke-width:1.875;stroke-dasharray:3.75,3.75;" width="261.5396" x="586.257" y="894.9316"/><text fill="#000000" font-family="Segoe UI" font-size="24.375" font-style="italic" lengthAdjust="spacing" textLength="227.7896" x="603.132" y="934.4321">T,N,M,BackendTag</text><line style="stroke:#181818;stroke-width:0.9375;" x1="190.3125" x2="840.2966" y1="1036.0547" y2="1036.0547"/><line style="stroke:#181818;stroke-width:0.9375;" x1="190.3125" x2="840.2966" y1="1051.0547" y2="1051.0547"/><g data-visibility-modifier="PUBLIC_METHOD"><ellipse cx="209.0625" cy="1090.5542" fill="#84BE84" rx="5.625" ry="5.625" style="stroke:#038048;stroke-width:1.875;"/></g><text fill="#000000" font-family="'Segoe UI'" font-size="24.375" lengthAdjust="spacing" textLength="490.285" x="239.0625" y="1096.1801">subscribe(out_id : subscriber_id&amp;) : bool</text><g data-visibility-modifier="PUBLIC_METHOD"><ellipse cx="209.0625" cy="1148.9282" fill="#84BE84" rx="5.625" ry="5.625" style="stroke:#038048;stroke-width:1.875;"/></g><text fill="#000000" font-family="'Segoe UI'" font-size="24.375" lengthAdjust="spacing" textLength="450.0687" x="239.0625" y="1154.5541">unsubscribe(id : subscriber_id) : bool</text><g data-visibility-modifier="PUBLIC_METHOD"><ellipse cx="209.0625" cy="1207.3022" fill="#84BE84" rx="5.625" ry="5.625" style="stroke:#038048;stroke-width:1.875;"/></g><text fill="#000000" font-family="'Segoe UI'" font-size="24.375" lengthAdjust="spacing" textLength="273.3975" x="239.0625" y="1212.9282">publish(msg : T) : bool</text><g data-visibility-modifier="PUBLIC_METHOD"><ellipse cx="209.0625" cy="1265.6763" fill="#84BE84" rx="5.625" ry="5.625" style="stroke:#038048;stroke-width:1.875;"/></g><text fill="#000000" font-family="'Segoe UI'" font-size="24.375" lengthAdjust="spacing" textLength="551.0083" x="239.0625" y="1271.3022">try_receive(id : subscriber_id, out : T&amp;) : bool</text><g data-visibility-modifier="PUBLIC_METHOD"><ellipse cx="209.0625" cy="1324.0503" fill="#84BE84" rx="5.625" ry="5.625" style="stroke:#038048;stroke-width:1.875;"/></g><text fill="#000000" font-family="'Segoe UI'" font-size="24.375" lengthAdjust="spacing" textLength="576.8591" x="239.0625" y="1329.6762">receive(id : subscriber_id, out : T&amp;, ticks) : bool</text><g data-visibility-modifier="PUBLIC_METHOD"><ellipse cx="209.0625" cy="1382.4243" fill="#84BE84" rx="5.625" ry="5.625" style="stroke:#038048;stroke-width:1.875;"/></g><text fill="#000000" font-family="'Segoe UI'" font-size="24.375" lengthAdjust="spacing" textLength="319.6957" x="239.0625" y="1388.0502">subscriber_count() : size_t</text></g><!--class SignalGeneric--><g class="entity" data-qualified-name="osal.SignalGeneric" data-source-line="37" id="ent0009"><rect fill="#F1F1F1" height="299.3701" rx="4.6875" ry="4.6875" style="stroke:#181818;stroke-width:0.9375;" width="520.3079" x="105.9375" y="1742.4316"/><ellipse cx="132.1875" cy="1789.5557" fill="#ADD1B2" rx="18.75" ry="18.75" style="stroke:#181818;stroke-width:1.875;"/><path d="M135.6738,1797.4951 Q134.8535,1797.9053 133.916,1798.1104 Q133.0078,1798.3447 132.0117,1798.3447 Q128.4082,1798.3447 126.5039,1795.9717 Q124.6289,1793.5986 124.6289,1789.1162 Q124.6289,1784.6338 126.5039,1782.2607 Q128.4082,1779.8877 132.0117,1779.8877 Q133.0078,1779.8877 133.9453,1780.1221 Q134.8828,1780.3271 135.6738,1780.7666 L135.6738,1784.6631 Q134.7656,1783.8428 133.916,1783.4619 Q133.0664,1783.0518 132.1582,1783.0518 Q130.2539,1783.0518 129.2578,1784.6045 Q128.2617,1786.1279 128.2617,1789.1162 Q128.2617,1792.1338 129.2578,1793.6572 Q130.2539,1795.1807 132.1582,1795.1807 Q133.0664,1795.1807 133.916,1794.7998 Q134.7656,1794.4189 135.6738,1793.5693 L135.6738,1797.4951 Z " fill="#000000"/><text fill="#000000" font-family="'Segoe UI'" font-size="24.375" lengthAdjust="spacing" textLength="133.6102" x="171.5625" y="1797.9941">osal_signal</text><rect fill="#FFFFFF" height="90.498" style="stroke:#181818;stroke-width:1.875;stroke-dasharray:3.75,3.75;" width="296.6977" x="335.1727" y="1736.8066"/><text fill="#000000" font-family="Segoe UI" font-size="24.375" font-style="italic" lengthAdjust="spacing" textLength="77.3978" x="444.8227" y="1776.3071">T,N,M,</text><text fill="#000000" font-family="Segoe UI" font-size="24.375" font-style="italic" lengthAdjust="spacing" textLength="262.9477" x="352.0477" y="1804.6811">bus_backend_generic</text><line style="stroke:#181818;stroke-width:0.9375;" x1="107.8125" x2="624.3704" y1="1836.6797" y2="1836.6797"/><g data-visibility-modifier="PRIVATE_FIELD"><rect fill="none" height="11.25" style="stroke:#C82930;stroke-width:1.875;" width="11.25" x="120.9375" y="1870.5542"/></g><text fill="#000000" font-family="'Segoe UI'" font-size="24.375" lengthAdjust="spacing" textLength="312.9236" x="156.5625" y="1881.8051">slots_ : subscriber_slot[N]</text><g data-visibility-modifier="PRIVATE_FIELD"><rect fill="none" height="11.25" style="stroke:#C82930;stroke-width:1.875;" width="11.25" x="120.9375" y="1928.9282"/></g><text fill="#000000" font-family="'Segoe UI'" font-size="24.375" lengthAdjust="spacing" textLength="257.9846" x="156.5625" y="1940.1791">mutex_ : osal::mutex</text><g data-visibility-modifier="PRIVATE_FIELD"><rect fill="none" height="11.25" style="stroke:#C82930;stroke-width:1.875;" width="11.25" x="120.9375" y="1987.3022"/></g><text fill="#000000" font-family="'Segoe UI'" font-size="24.375" lengthAdjust="spacing" textLength="312.8641" x="156.5625" y="1998.5532">subscriber_count_ : size_t</text><line style="stroke:#181818;stroke-width:0.9375;" x1="107.8125" x2="624.3704" y1="2026.8018" y2="2026.8018"/></g><!--class SignalZephyr--><g class="entity" data-qualified-name="osal.SignalZephyr" data-source-line="43" id="ent0010"><rect fill="#F1F1F1" height="124.248" rx="4.6875" ry="4.6875" style="stroke:#181818;stroke-width:0.9375;" width="512.3575" x="377.8125" y="1478.0566"/><ellipse cx="404.0625" cy="1525.1807" fill="#ADD1B2" rx="18.75" ry="18.75" style="stroke:#181818;stroke-width:1.875;"/><path d="M407.5488,1533.1201 Q406.7285,1533.5303 405.791,1533.7354 Q404.8828,1533.9697 403.8867,1533.9697 Q400.2832,1533.9697 398.3789,1531.5967 Q396.5039,1529.2236 396.5039,1524.7412 Q396.5039,1520.2588 398.3789,1517.8857 Q400.2832,1515.5127 403.8867,1515.5127 Q404.8828,1515.5127 405.8203,1515.7471 Q406.7578,1515.9521 407.5488,1516.3916 L407.5488,1520.2881 Q406.6406,1519.4678 405.791,1519.0869 Q404.9414,1518.6768 404.0332,1518.6768 Q402.1289,1518.6768 401.1328,1520.2295 Q400.1367,1521.7529 400.1367,1524.7412 Q400.1367,1527.7588 401.1328,1529.2822 Q402.1289,1530.8057 404.0332,1530.8057 Q404.9414,1530.8057 405.791,1530.4248 Q406.6406,1530.0439 407.5488,1529.1943 L407.5488,1533.1201 Z " fill="#000000"/><text fill="#000000" font-family="'Segoe UI'" font-size="24.375" lengthAdjust="spacing" textLength="133.6102" x="443.4375" y="1533.6191">osal_signal</text><rect fill="#FFFFFF" height="90.498" style="stroke:#181818;stroke-width:1.875;stroke-dasharray:3.75,3.75;" width="288.7473" x="607.0477" y="1472.4316"/><text fill="#000000" font-family="Segoe UI" font-size="24.375" font-style="italic" lengthAdjust="spacing" textLength="77.3978" x="712.7225" y="1511.9321">T,N,M,</text><text fill="#000000" font-family="Segoe UI" font-size="24.375" font-style="italic" lengthAdjust="spacing" textLength="254.9973" x="623.9227" y="1540.3061">bus_backend_zephyr</text><line style="stroke:#181818;stroke-width:0.9375;" x1="379.6875" x2="888.295" y1="1572.3047" y2="1572.3047"/><line style="stroke:#181818;stroke-width:0.9375;" x1="379.6875" x2="888.295" y1="1587.3047" y2="1587.3047"/></g><!--class subscriber_slot--><g class="entity" data-qualified-name="osal.subscriber_slot" data-source-line="46" id="ent0011"><rect fill="#F1F1F1" height="223.8721" rx="4.6875" ry="4.6875" style="stroke:#181818;stroke-width:0.9375;" width="649.4733" x="41.25" y="2183.0566"/><ellipse cx="251.9197" cy="2221.6187" fill="#ADD1B2" rx="18.75" ry="18.75" style="stroke:#181818;stroke-width:1.875;"/><path d="M255.406,2229.5581 Q254.5857,2229.9683 253.6482,2230.1733 Q252.74,2230.4077 251.7439,2230.4077 Q248.1404,2230.4077 246.2361,2228.0347 Q244.3611,2225.6616 244.3611,2221.1792 Q244.3611,2216.6968 246.2361,2214.3237 Q248.1404,2211.9507 251.7439,2211.9507 Q252.74,2211.9507 253.6775,2212.1851 Q254.615,2212.3901 255.406,2212.8296 L255.406,2216.7261 Q254.4978,2215.9058 253.6482,2215.5249 Q252.7986,2215.1147 251.8904,2215.1147 Q249.9861,2215.1147 248.99,2216.6675 Q247.9939,2218.1909 247.9939,2221.1792 Q247.9939,2224.1968 248.99,2225.7202 Q249.9861,2227.2437 251.8904,2227.2437 Q252.7986,2227.2437 253.6482,2226.8628 Q254.4978,2226.4819 255.406,2225.6323 L255.406,2229.5581 Z " fill="#000000"/><text fill="#000000" font-family="'Segoe UI'" font-size="24.375" lengthAdjust="spacing" textLength="183.1339" x="302.5447" y="2230.0571">subscriber_slot</text><line style="stroke:#181818;stroke-width:0.9375;" x1="43.125" x2="688.8483" y1="2260.1807" y2="2260.1807"/><g data-visibility-modifier="PUBLIC_FIELD"><ellipse cx="61.875" cy="2299.6802" fill="none" rx="5.625" ry="5.625" style="stroke:#038048;stroke-width:1.875;"/></g><text fill="#000000" font-family="'Segoe UI'" font-size="24.375" lengthAdjust="spacing" textLength="165.5191" x="91.875" y="2305.3061">in_use_ : bool</text><g data-visibility-modifier="PUBLIC_FIELD"><ellipse cx="61.875" cy="2358.0542" fill="none" rx="5.625" ry="5.625" style="stroke:#038048;stroke-width:1.875;"/></g><text fill="#000000" font-family="'Segoe UI'" font-size="24.375" lengthAdjust="spacing" textLength="572.5983" x="91.875" y="2363.6801">queue_ : osal_bus&lt;T,M,bus_backend_generic&gt;</text><line style="stroke:#181818;stroke-width:0.9375;" x1="43.125" x2="688.8483" y1="2391.9287" y2="2391.9287"/></g><!--class SignalPremium--><g class="entity" data-qualified-name="osal.SignalPremium" data-source-line="51" id="ent0012"><rect fill="#F1F1F1" height="574.1162" rx="4.6875" ry="4.6875" style="stroke:#181818;stroke-width:0.9375;" width="630.7874" x="530.625" y="204.9316"/><ellipse cx="567.3378" cy="243.4937" fill="#ADD1B2" rx="18.75" ry="18.75" style="stroke:#181818;stroke-width:1.875;"/><path d="M570.8242,251.4331 Q570.0038,251.8433 569.0663,252.0483 Q568.1581,252.2827 567.162,252.2827 Q563.5585,252.2827 561.6542,249.9097 Q559.7792,247.5366 559.7792,243.0542 Q559.7792,238.5718 561.6542,236.1987 Q563.5585,233.8257 567.162,233.8257 Q568.1581,233.8257 569.0956,234.0601 Q570.0331,234.2651 570.8242,234.7046 L570.8242,238.6011 Q569.916,237.7808 569.0663,237.3999 Q568.2167,236.9897 567.3085,236.9897 Q565.4042,236.9897 564.4081,238.5425 Q563.412,240.0659 563.412,243.0542 Q563.412,246.0718 564.4081,247.5952 Q565.4042,249.1187 567.3085,249.1187 Q568.2167,249.1187 569.0663,248.7378 Q569.916,248.3569 570.8242,247.5073 L570.8242,251.4331 Z " fill="#000000"/><text fill="#000000" font-family="'Segoe UI'" font-size="24.375" lengthAdjust="spacing" textLength="255.997" x="609.0379" y="251.9321">osal_signal_premium</text><rect fill="#FFFFFF" height="62.124" style="stroke:#181818;stroke-width:1.875;stroke-dasharray:3.75,3.75;" width="261.5396" x="905.4977" y="199.3066"/><text fill="#000000" font-family="Segoe UI" font-size="24.375" font-style="italic" lengthAdjust="spacing" textLength="227.7896" x="922.3727" y="238.8071">T,N,M,BackendTag</text><line style="stroke:#181818;stroke-width:0.9375;" x1="532.5" x2="1159.5374" y1="282.0557" y2="282.0557"/><g data-visibility-modifier="PRIVATE_FIELD"><rect fill="none" height="11.25" style="stroke:#C82930;stroke-width:1.875;" width="11.25" x="545.625" y="315.9302"/></g><text fill="#000000" font-family="'Segoe UI'" font-size="24.375" lengthAdjust="spacing" textLength="511.7917" x="581.25" y="327.1811">observers_ : observer_fn[MaxSubscribers]</text><g data-visibility-modifier="PRIVATE_FIELD"><rect fill="none" height="11.25" style="stroke:#C82930;stroke-width:1.875;" width="11.25" x="545.625" y="374.3042"/></g><text fill="#000000" font-family="'Segoe UI'" font-size="24.375" lengthAdjust="spacing" textLength="293.4045" x="581.25" y="385.5551">observer_count_ : size_t</text><line style="stroke:#181818;stroke-width:0.9375;" x1="532.5" x2="1159.5374" y1="413.8037" y2="413.8037"/><g data-visibility-modifier="PUBLIC_METHOD"><ellipse cx="551.25" cy="453.3032" fill="#84BE84" rx="5.625" ry="5.625" style="stroke:#038048;stroke-width:1.875;"/></g><text fill="#000000" font-family="'Segoe UI'" font-size="24.375" lengthAdjust="spacing" textLength="523.0151" x="581.25" y="458.9291">subscribe_observer(fn : observer_fn) : bool</text><g data-visibility-modifier="PUBLIC_METHOD"><ellipse cx="551.25" cy="511.6772" fill="#84BE84" rx="5.625" ry="5.625" style="stroke:#038048;stroke-width:1.875;"/></g><text fill="#000000" font-family="'Segoe UI'" font-size="24.375" lengthAdjust="spacing" textLength="553.9124" x="581.25" y="517.3032">unsubscribe_observer(fn : observer_fn) : bool</text><g data-visibility-modifier="PUBLIC_METHOD"><ellipse cx="551.25" cy="570.0513" fill="#84BE84" rx="5.625" ry="5.625" style="stroke:#038048;stroke-width:1.875;"/></g><text fill="#000000" font-family="'Segoe UI'" font-size="24.375" lengthAdjust="spacing" textLength="273.3975" x="581.25" y="575.6772">publish(msg : T) : bool</text><g data-visibility-modifier="PUBLIC_METHOD"><ellipse cx="551.25" cy="628.4253" fill="#84BE84" rx="5.625" ry="5.625" style="stroke:#038048;stroke-width:1.875;"/></g><text fill="#000000" font-family="'Segoe UI'" font-size="24.375" lengthAdjust="spacing" textLength="404.0323" x="581.25" y="634.0512">publish_zero_copy(ptr : T*) : bool</text><g data-visibility-modifier="PUBLIC_METHOD"><ellipse cx="551.25" cy="686.7993" fill="#84BE84" rx="5.625" ry="5.625" style="stroke:#038048;stroke-width:1.875;"/></g><text fill="#000000" font-family="'Segoe UI'" font-size="24.375" lengthAdjust="spacing" textLength="485.3696" x="581.25" y="692.4252">route_to(dest : signal_id, msg : T) : bool</text><g data-visibility-modifier="PUBLIC_METHOD"><ellipse cx="551.25" cy="745.1733" fill="#84BE84" rx="5.625" ry="5.625" style="stroke:#038048;stroke-width:1.875;"/></g><text fill="#000000" font-family="'Segoe UI'" font-size="24.375" lengthAdjust="spacing" textLength="300.2362" x="581.25" y="750.7993">observer_count() : size_t</text></g><!--class Caps--><g class="entity" data-qualified-name="osal.Caps" data-source-line="62" id="ent0013"><rect fill="#F1F1F1" height="340.6201" rx="4.6875" ry="4.6875" style="stroke:#181818;stroke-width:0.9375;" width="558.501" x="896.25" y="987.7441"/><ellipse cx="922.5" cy="1026.3062" fill="#ADD1B2" rx="18.75" ry="18.75" style="stroke:#181818;stroke-width:1.875;"/><path d="M925.9863,1034.2456 Q925.166,1034.6558 924.2285,1034.8608 Q923.3203,1035.0952 922.3242,1035.0952 Q918.7207,1035.0952 916.8164,1032.7222 Q914.9414,1030.3491 914.9414,1025.8667 Q914.9414,1021.3843 916.8164,1019.0112 Q918.7207,1016.6382 922.3242,1016.6382 Q923.3203,1016.6382 924.2578,1016.8726 Q925.1953,1017.0776 925.9863,1017.5171 L925.9863,1021.4136 Q925.0781,1020.5933 924.2285,1020.2124 Q923.3789,1019.8022 922.4707,1019.8022 Q920.5664,1019.8022 919.5703,1021.355 Q918.5742,1022.8784 918.5742,1025.8667 Q918.5742,1028.8843 919.5703,1030.4077 Q920.5664,1031.9312 922.4707,1031.9312 Q923.3789,1031.9312 924.2285,1031.5503 Q925.0781,1031.1694 925.9863,1030.3198 L925.9863,1034.2456 Z " fill="#000000"/><text fill="#000000" font-family="'Segoe UI'" font-size="24.375" lengthAdjust="spacing" textLength="284.3591" x="961.875" y="1034.7446">osal_signal_capabilities</text><rect fill="#FFFFFF" height="62.124" style="stroke:#181818;stroke-width:1.875;stroke-dasharray:3.75,3.75;" width="184.1418" x="1276.2341" y="982.1191"/><text fill="#000000" font-family="Segoe UI" font-size="24.375" font-style="italic" lengthAdjust="spacing" textLength="150.3918" x="1293.1091" y="1021.6196">BackendTag</text><line style="stroke:#181818;stroke-width:0.9375;" x1="898.125" x2="1452.876" y1="1064.8682" y2="1064.8682"/><g data-visibility-modifier="PUBLIC_FIELD"><ellipse cx="916.875" cy="1104.3677" fill="none" rx="5.625" ry="5.625" style="stroke:#038048;stroke-width:1.875;"/></g><text fill="#000000" font-family="'Segoe UI'" font-size="24.375" lengthAdjust="spacing" textLength="254.1165" x="946.875" y="1109.9936">native_pubsub : bool</text><g data-visibility-modifier="PUBLIC_FIELD"><ellipse cx="916.875" cy="1162.7417" fill="none" rx="5.625" ry="5.625" style="stroke:#038048;stroke-width:1.875;"/></g><text fill="#000000" font-family="'Segoe UI'" font-size="24.375" lengthAdjust="spacing" textLength="284.3472" x="946.875" y="1168.3676">native_observers : bool</text><g data-visibility-modifier="PUBLIC_FIELD"><ellipse cx="916.875" cy="1221.1157" fill="none" rx="5.625" ry="5.625" style="stroke:#038048;stroke-width:1.875;"/></g><text fill="#000000" font-family="'Segoe UI'" font-size="24.375" lengthAdjust="spacing" textLength="251.7361" x="946.875" y="1226.7416">native_routing : bool</text><g data-visibility-modifier="PUBLIC_FIELD"><ellipse cx="916.875" cy="1279.4897" fill="none" rx="5.625" ry="5.625" style="stroke:#038048;stroke-width:1.875;"/></g><text fill="#000000" font-family="'Segoe UI'" font-size="24.375" lengthAdjust="spacing" textLength="198.9038" x="946.875" y="1285.1157">zero_copy : bool</text><line style="stroke:#181818;stroke-width:0.9375;" x1="898.125" x2="1452.876" y1="1313.3643" y2="1313.3643"/></g><g class="entity" data-qualified-name="osal.GMN22" data-source-line="79" id="ent0023"><path d="M1506.5625,2213.0566 L1506.5625,2287.1191 L1454.4375,2294.6191 L1506.5625,2302.1191 L1506.5625,2375.3027 A0,0 0 0 0 1506.5625,2375.3027 L1973.4476,2375.3027 A0,0 0 0 0 1973.4476,2375.3027 L1973.4476,2231.8066 L1954.6976,2213.0566 L1506.5625,2213.0566 A0,0 0 0 0 1506.5625,2213.0566" fill="#FEFFDD" style="stroke:#181818;stroke-width:0.9375;"/><path d="M1954.6976,2213.0566 L1954.6976,2231.8066 L1973.4476,2231.8066 L1954.6976,2213.0566" fill="#FEFFDD" style="stroke:#181818;stroke-width:0.9375;"/><text fill="#000000" font-family="'Segoe UI'" font-size="24.375" lengthAdjust="spacing" textLength="373.9206" x="1532.8125" y="2260.0571">Current Zephyr specialisations</text><text fill="#000000" font-family="'Segoe UI'" font-size="24.375" lengthAdjust="spacing" textLength="397.5101" x="1532.8125" y="2288.4311">delegate to the generic runtime.</text><text fill="#000000" font-family="'Segoe UI'" font-size="24.375" lengthAdjust="spacing" textLength="365.1251" x="1532.8125" y="2316.8051">A future native Zbus path can</text><text fill="#000000" font-family="'Segoe UI'" font-size="24.375" lengthAdjust="spacing" textLength="259.1748" x="1532.8125" y="2345.1791">replace this wrapper.</text></g><!--reverse link Bus to BusGeneric--><g class="link" data-entity-1="ent0003" data-entity-2="ent0004" data-link-type="extension" data-source-line="25" id="lnk6"><path codeLine="25" d="M1732.3427,1974.9623 C1845.5552,2018.3873 1934.325,2075.3004 2000.625,2183.0566 C2052.6,2267.5066 2059.8375,2326.6441 2000.625,2406.1816 C1924.0688,2509.0066 1602.675,2587.2129 1365.2625,2632.3441" fill="none" id="Bus-backto-BusGeneric" style="stroke:#181818;stroke-width:1.875;stroke-dasharray:13.125,13.125;"/><polygon fill="none" points="1700.8313,1962.8754,1728.3137,1985.4661,1736.3716,1964.4584,1700.8313,1962.8754" style="stroke:#181818;stroke-width:1.875;"/></g><!--reverse link Bus to BusZephyr--><g class="link" data-entity-1="ent0003" data-entity-2="ent0005" data-link-type="extension" data-source-line="26" id="lnk7"><path codeLine="26" d="M1219.0874,2147.4577 C1195.0686,2176.464 1193.2313,2178.6691 1172.625,2203.5504" fill="none" id="Bus-backto-BusZephyr" style="stroke:#181818;stroke-width:1.875;stroke-dasharray:13.125,13.125;"/><polygon fill="none" points="1240.6125,2121.4629,1210.4224,2140.2827,1227.7523,2154.6328,1240.6125,2121.4629" style="stroke:#181818;stroke-width:1.875;"/></g><!--reverse link Signal to SignalGeneric--><g class="link" data-entity-1="ent0008" data-entity-2="ent0009" data-link-type="extension" data-source-line="69" id="lnk14"><path codeLine="69" d="M359.8111,1448.1243 C352.2361,1468.5431 357.45,1457.5629 352.5,1478.0566 C331.7625,1563.8941 334.0313,1662.6879 341.9625,1742.0754" fill="none" id="Signal-backto-SignalGeneric" style="stroke:#181818;stroke-width:1.875;stroke-dasharray:13.125,13.125;"/><polygon fill="none" points="371.55,1416.4816,349.2635,1444.2114,370.3587,1452.0373,371.55,1416.4816" style="stroke:#181818;stroke-width:1.875;"/></g><!--reverse link Signal to SignalZephyr--><g class="link" data-entity-1="ent0008" data-entity-2="ent0010" data-link-type="extension" data-source-line="70" id="lnk15"><path codeLine="70" d="M605.7887,1448.64 C612.7825,1471.0275 609.2625,1459.7379 614.8875,1477.7004" fill="none" id="Signal-backto-SignalZephyr" style="stroke:#181818;stroke-width:1.875;stroke-dasharray:13.125,13.125;"/><polygon fill="none" points="595.725,1416.4254,595.0505,1451.9946,616.5269,1445.2855,595.725,1416.4254" style="stroke:#181818;stroke-width:1.875;"/></g><!--link SignalPremium to Signal--><g class="link" data-entity-1="ent0012" data-entity-2="ent0008" data-link-type="extension" data-source-line="71" id="lnk16"><path codeLine="71" d="M703.5188,779.0941 C683.4375,819.4254 677.954,830.4657 658.1728,870.1782" fill="none" id="SignalPremium-to-Signal" style="stroke:#181818;stroke-width:1.875;"/><polygon fill="none" points="643.125,900.3879,668.2427,875.1941,648.1029,865.1623,643.125,900.3879" style="stroke:#181818;stroke-width:1.875;"/></g><!--link SignalZephyr to SignalGeneric--><g class="link" data-entity-1="ent0010" data-entity-2="ent0009" data-link-type="extension" data-source-line="72" id="lnk17"><path codeLine="72" d="M587.0437,1602.5566 C557.3438,1641.2004 538.0743,1666.2717 500.368,1715.3029" fill="none" id="SignalZephyr-to-SignalGeneric" style="stroke:#181818;stroke-width:1.875;"/><polygon fill="none" points="479.7938,1742.0566,509.2859,1722.161,491.4501,1708.4448,479.7938,1742.0566" style="stroke:#181818;stroke-width:1.875;"/></g><!--reverse link SignalGeneric to subscriber_slot--><g class="link" data-entity-1="ent0009" data-entity-2="ent0011" data-link-type="composition" data-source-line="73" id="lnk18"><path codeLine="73" d="M365.625,2065.1754 C365.625,2111.6379 365.625,2139.5566 365.625,2182.8691" fill="none" id="SignalGeneric-backto-subscriber_slot" style="stroke:#181818;stroke-width:1.875;"/><polygon fill="#181818" points="365.625,2042.6754,358.125,2053.9254,365.625,2065.1754,373.125,2053.9254,365.625,2042.6754" style="stroke:#181818;stroke-width:1.875;"/></g><!--reverse link subscriber_slot to BusGeneric--><g class="link" data-entity-1="ent0011" data-entity-2="ent0004" data-link-type="composition" data-source-line="74" id="lnk19"><path codeLine="74" d="M597.6491,2416.6587 C677.1678,2457.8337 748.5563,2494.8129 832.35,2538.2191" fill="none" id="subscriber_slot-backto-BusGeneric" style="stroke:#181818;stroke-width:1.875;"/><polygon fill="#181818" points="577.6687,2406.3129,584.2103,2418.1459,597.6491,2416.6587,591.1075,2404.8257,577.6687,2406.3129" style="stroke:#181818;stroke-width:1.875;"/></g><!--reverse link BusZephyr to BusGeneric--><g class="link" data-entity-1="ent0005" data-entity-2="ent0004" data-link-type="composition" data-source-line="75" id="lnk20"><path codeLine="75" d="M1098.75,2408.4879 C1098.75,2450.8066 1098.75,2479.9629 1098.75,2527.8879" fill="none" id="BusZephyr-backto-BusGeneric" style="stroke:#181818;stroke-width:1.875;"/><polygon fill="#181818" points="1098.75,2385.9879,1091.25,2397.2379,1098.75,2408.4879,1106.25,2397.2379,1098.75,2385.9879" style="stroke:#181818;stroke-width:1.875;"/><text fill="#000000" font-family="'Segoe UI'" font-size="24.375" lengthAdjust="spacing" textLength="64.9484" x="1115.625" y="2475.6821">impl_</text></g><!--link SignalPremium to Caps--><g class="link" data-entity-1="ent0012" data-entity-2="ent0013" data-link-type="dependency" data-source-line="76" id="lnk21"><path codeLine="76" d="M987.7312,779.0941 C1023.075,850.1004 1054.8492,913.9042 1086.3867,977.2604" fill="none" id="SignalPremium-to-Caps" style="stroke:#181818;stroke-width:1.875;stroke-dasharray:13.125,13.125;"/><polygon fill="#181818" points="1091.4,987.3316,1090.5943,968.8826,1087.2223,978.9389,1077.166,975.567,1091.4,987.3316" style="stroke:#181818;stroke-width:1.875;"/><text fill="#000000" font-family="'Segoe UI'" font-size="24.375" lengthAdjust="spacing" textLength="199.0466" x="1046.25" y="848.1821">constexpr query</text></g><?plantuml-src fLRRJjj047tFLqofL1b88hLFLOGYSP7w0hGIUOAYrTgPE2liNNSlb52G-X7zmdv9nsl7yOsa2ByakpuxCtlcp8pV2HabRex0DCevQfPfjH09ZZEN9eE15JP1I4MalruTdyE9Ct08LoAMF85pla8DVt__WTE46mDdWiUQfuE1v2cQZ4S8oX3krs00z4GUj9TliT2Pezdmb1D8sDNmX4Ttv7t6u-aUSEFT71r1C1k-Fpux-tZoQHyifbd2BS9qIWQXV0xlUIBcmJvC85GgsUnRlMA6J0Q23jBRMHVIU3q4Aw8xGt_pNsRxBMgCKDnZe9pD3tteejg8hNQVTnBpNT862mjwM8mIjOWgZhuKwneVeoMNymGPUVdXq24hrtQ3C5Pf7dk84z9-PlPcxUx0Y4TKYs2sVxl1UuRPMy9-n6ovqbNKrtvP3rfGQdCFVQRwxb-FmalbQJokyT7PBpnsepPUn-JjSdZHqM0fyl-JeN6XYRG8VUAPcDDbgYrDwnwbEBavr3tGnMSkJ8HP1gc9-_LS5sZNu11sYtRRgLB8FMMqmKVAIUkBCHTIARhd7RnlaNYHWXwLcqHPmvh1vditbpNXfixYmrfMaubVraoqmcPlYRgky2BeXiWRnbeXrrKa97C6MOVYefIR1NAnipAwiLDlnrIuTAlYlnMONdKp5HhKzwY3XSp3ALTi8RVg-pN7Tigy113dMb7gibMGMPr33tg4JUgbZAfWZiRw17iQSbs_QB-AhbVDNZjhY9TWxJOt5_pXgaglkUsUU9tMM4HTC1I9i0BDKJjTr29DFKkIMofYHlmGyPrhbM-hq5y2v9G96NTULtJtJ8ByMRVBlEKswdOBekpBJS1QVwFHqxJSQY7Asge1-bsj6yV1QDIkkWhPhiOSsveavJGflJO1H8OVNY_SOJoU5ccQGAIaeGQKwNmmwzM6EAbeccWHBoseHMrQGUqvTPg-pYoKCPWC8q5ZsL3Ao6m3EiS4utn0MGLsYL1s1j2aEv7Yk04-XeMpJYCKoOThwYcGSRk4YCi6KYEDFVgWiqjXuAVcMOPwOujawUynU1xy0m00?></g></svg>