<svg xmlns="http://www.w3.org/2000/svg" xmlns:xlink="http://www.w3.org/1999/xlink" contentStyleType="text/css" data-diagram-type="SEQUENCE" height="4638.9439px" preserveAspectRatio="none" style="width:2250px;height:4638px;background:#FEFEFE;" version="1.1" viewBox="0 0 2250 4638" width="2250.9583px" zoomAndPan="magnify"><title>Memory Pool &#8212; Allocate / Deallocate Lifecycle</title><defs/><g><rect fill="#FEFEFE" height="4638.9439" style="stroke:none;stroke-width:1.4274;" width="2250.9583" x="0" y="0"/><text fill="#000000" font-family="'Segoe UI'" font-size="31.4021" font-weight="bold" lengthAdjust="spacing" textLength="814.9668" x="716.0892" y="61.9776">Memory Pool &#8212; Allocate / Deallocate Lifecycle</text><g><title>osal..memory_pool</title><rect fill="#FFFFFF" height="450.9477" style="stroke:#000000;stroke-width:1.4274;" width="14.2737" x="666.7872" y="430.2174"/></g><g><title>osal..memory_pool</title><rect fill="#FFFFFF" height="450.9477" style="stroke:#000000;stroke-width:1.4274;" width="14.2737" x="666.7872" y="1029.9905"/></g><g><title>osal..memory_pool</title><rect fill="#FFFFFF" height="450.9477" style="stroke:#000000;stroke-width:1.4274;" width="14.2737" x="666.7872" y="1702.7489"/></g><g><title>osal..memory_pool</title><rect fill="#FFFFFF" height="450.9477" style="stroke:#000000;stroke-width:1.4274;" width="14.2737" x="666.7872" y="2302.522"/></g><g><title>osal..memory_pool</title><rect fill="#FFFFFF" height="628.51" style="stroke:#000000;stroke-width:1.4274;" width="14.2737" x="666.7872" y="2975.2803"/></g><g><title>osal..memory_pool</title><rect fill="#FFFFFF" height="322.1055" style="stroke:#000000;stroke-width:1.4274;" width="14.2737" x="666.7872" y="3752.6157"/></g><g><title>osal..memory_pool</title><rect fill="#FFFFFF" height="297.6507" style="stroke:#000000;stroke-width:1.4274;" width="14.2737" x="666.7872" y="4223.5465"/></g><g><title>Application</title><rect fill="#000000" fill-opacity="0.00000" height="4362.9379" width="11.4189" x="191.7213" y="183.952"/><line style="stroke:#000000;stroke-width:1.4274;stroke-dasharray:7.1368,7.1368;" x1="196.9767" x2="196.9767" y1="183.952" y2="4546.8899"/></g><g><title>osal..memory_pool</title><rect fill="#000000" fill-opacity="0.00000" height="4362.9379" width="11.4189" x="668.2146" y="183.952"/><line style="stroke:#000000;stroke-width:1.4274;stroke-dasharray:7.1368,7.1368;" x1="672.7448" x2="672.7448" y1="183.952" y2="4546.8899"/></g><g><title>extern C bridge</title><rect fill="#000000" fill-opacity="0.00000" height="4362.9379" width="11.4189" x="1207.5845" y="183.952"/><line style="stroke:#000000;stroke-width:1.4274;stroke-dasharray:7.1368,7.1368;" x1="1212.9113" x2="1212.9113" y1="183.952" y2="4546.8899"/></g><g><title>Backend .cpp</title><rect fill="#000000" fill-opacity="0.00000" height="4362.9379" width="11.4189" x="1459.1594" y="183.952"/><line style="stroke:#000000;stroke-width:1.4274;stroke-dasharray:7.1368,7.1368;" x1="1463.4659" x2="1463.4659" y1="183.952" y2="4546.8899"/></g><g><title>OS . Emulation</title><rect fill="#000000" fill-opacity="0.00000" height="4362.9379" width="11.4189" x="1937.5282" y="183.952"/><line style="stroke:#000000;stroke-width:1.4274;stroke-dasharray:7.1368,7.1368;" x1="1942.3476" x2="1942.3476" y1="183.952" y2="4546.8899"/></g><g class="participant participant-head" data-participant="app"><rect fill="#E8F5E9" height="64.4211" rx="3.5684" ry="3.5684" style="stroke:#000000;stroke-width:1.4274;" width="146.4996" x="124.181" y="118.1035"/><text fill="#000000" font-family="'Segoe UI'" font-size="18.5558" lengthAdjust="spacing" textLength="103.6786" x="145.5915" y="156.7379">Application</text></g><g class="participant participant-tail" data-participant="app"><rect fill="#E8F5E9" height="64.4211" rx="3.5684" ry="3.5684" style="stroke:#000000;stroke-width:1.4274;" width="146.4996" x="124.181" y="4545.4625"/><text fill="#000000" font-family="'Segoe UI'" font-size="18.5558" lengthAdjust="spacing" textLength="103.6786" x="145.5915" y="4584.0969">Application</text></g><g class="participant participant-head" data-participant="mp"><rect fill="#E3F2FD" height="86.0212" rx="3.5684" ry="3.5684" style="stroke:#000000;stroke-width:1.4274;" width="219.3183" x="564.2649" y="96.5034"/><text fill="#000000" font-family="'Segoe UI'" font-size="18.5558" lengthAdjust="spacing" textLength="176.4973" x="585.6754" y="135.1378">osal::memory_pool</text><text fill="#000000" font-family="'Segoe UI'" font-size="18.5558" lengthAdjust="spacing" textLength="125.7951" x="611.0265" y="156.7379">(header-only)</text></g><g class="participant participant-tail" data-participant="mp"><rect fill="#E3F2FD" height="86.0212" rx="3.5684" ry="3.5684" style="stroke:#000000;stroke-width:1.4274;" width="219.3183" x="564.2649" y="4545.4625"/><text fill="#000000" font-family="'Segoe UI'" font-size="18.5558" lengthAdjust="spacing" textLength="176.4973" x="585.6754" y="4584.0969">osal::memory_pool</text><text fill="#000000" font-family="'Segoe UI'" font-size="18.5558" lengthAdjust="spacing" textLength="125.7951" x="611.0265" y="4605.697">(header-only)</text></g><g class="participant participant-head" data-participant="bridge"><rect fill="#FFF3E0" height="86.0212" rx="3.5684" ry="3.5684" style="stroke:#000000;stroke-width:1.4274;" width="249.1272" x="1088.7304" y="96.5034"/><text fill="#000000" font-family="'Segoe UI'" font-size="18.5558" lengthAdjust="spacing" textLength="144.7677" x="1140.9101" y="135.1378">extern C bridge</text><text fill="#000000" font-family="'Segoe UI'" font-size="18.5558" lengthAdjust="spacing" textLength="206.3062" x="1110.1409" y="156.7379">osal_memory_pool_*()</text></g><g class="participant participant-tail" data-participant="bridge"><rect fill="#FFF3E0" height="86.0212" rx="3.5684" ry="3.5684" style="stroke:#000000;stroke-width:1.4274;" width="249.1272" x="1088.7304" y="4545.4625"/><text fill="#000000" font-family="'Segoe UI'" font-size="18.5558" lengthAdjust="spacing" textLength="144.7677" x="1140.9101" y="4584.0969">extern C bridge</text><text fill="#000000" font-family="'Segoe UI'" font-size="18.5558" lengthAdjust="spacing" textLength="206.3062" x="1110.1409" y="4605.697">osal_memory_pool_*()</text></g><g class="participant participant-head" data-participant="be"><rect fill="#FFEBEE" height="86.0212" rx="3.5684" ry="3.5684" style="stroke:#000000;stroke-width:1.4274;" width="168.3806" x="1380.6786" y="96.5034"/><text fill="#000000" font-family="'Segoe UI'" font-size="18.5558" lengthAdjust="spacing" textLength="125.5595" x="1402.0891" y="135.1378">Backend .cpp</text><text fill="#000000" font-family="'Segoe UI'" font-size="18.5558" lengthAdjust="spacing" textLength="121.6454" x="1404.0461" y="156.7379">(e.g. Zephyr)</text></g><g class="participant participant-tail" data-participant="be"><rect fill="#FFEBEE" height="86.0212" rx="3.5684" ry="3.5684" style="stroke:#000000;stroke-width:1.4274;" width="168.3806" x="1380.6786" y="4545.4625"/><text fill="#000000" font-family="'Segoe UI'" font-size="18.5558" lengthAdjust="spacing" textLength="125.5595" x="1402.0891" y="4584.0969">Backend .cpp</text><text fill="#000000" font-family="'Segoe UI'" font-size="18.5558" lengthAdjust="spacing" textLength="121.6454" x="1404.0461" y="4605.697">(e.g. Zephyr)</text></g><g class="participant participant-head" data-participant="os"><rect fill="#ECEFF1" height="86.0212" rx="3.5684" ry="3.5684" style="stroke:#000000;stroke-width:1.4274;" width="213.0304" x="1836.7224" y="96.5034"/><text fill="#000000" font-family="'Segoe UI'" font-size="18.5558" lengthAdjust="spacing" textLength="138.0629" x="1874.2062" y="135.1378">OS / Emulation</text><text fill="#000000" font-family="'Segoe UI'" font-size="18.5558" lengthAdjust="spacing" textLength="170.2094" x="1858.133" y="156.7379">(e.g. k_mem_slab)</text></g><g class="participant participant-tail" data-participant="os"><rect fill="#ECEFF1" height="86.0212" rx="3.5684" ry="3.5684" style="stroke:#000000;stroke-width:1.4274;" width="213.0304" x="1836.7224" y="4545.4625"/><text fill="#000000" font-family="'Segoe UI'" font-size="18.5558" lengthAdjust="spacing" textLength="138.0629" x="1874.2062" y="4584.0969">OS / Emulation</text><text fill="#000000" font-family="'Segoe UI'" font-size="18.5558" lengthAdjust="spacing" textLength="170.2094" x="1858.133" y="4605.697">(e.g. k_mem_slab)</text></g><g><title>osal..memory_pool</title><rect fill="#FFFFFF" height="450.9477" style="stroke:#000000;stroke-width:1.4274;" width="14.2737" x="666.7872" y="430.2174"/></g><g><title>osal..memory_pool</title><rect fill="#FFFFFF" height="450.9477" style="stroke:#000000;stroke-width:1.4274;" width="14.2737" x="666.7872" y="1029.9905"/></g><g><title>osal..memory_pool</title><rect fill="#FFFFFF" height="450.9477" style="stroke:#000000;stroke-width:1.4274;" width="14.2737" x="666.7872" y="1702.7489"/></g><g><title>osal..memory_pool</title><rect fill="#FFFFFF" height="450.9477" style="stroke:#000000;stroke-width:1.4274;" width="14.2737" x="666.7872" y="2302.522"/></g><g><title>osal..memory_pool</title><rect fill="#FFFFFF" height="628.51" style="stroke:#000000;stroke-width:1.4274;" width="14.2737" x="666.7872" y="2975.2803"/></g><g><title>osal..memory_pool</title><rect fill="#FFFFFF" height="322.1055" style="stroke:#000000;stroke-width:1.4274;" width="14.2737" x="666.7872" y="3752.6157"/></g><g><title>osal..memory_pool</title><rect fill="#FFFFFF" height="297.6507" style="stroke:#000000;stroke-width:1.4274;" width="14.2737" x="666.7872" y="4223.5465"/></g><path d="M14.2737,205.3625 L14.2737,285.295 L381.1071,285.295 L381.1071,219.6362 L366.8334,205.3625 L14.2737,205.3625" fill="#FFFFFF" style="stroke:#000000;stroke-width:1.4274;"/><path d="M366.8334,205.3625 L366.8334,219.6362 L381.1071,219.6362 L366.8334,205.3625" fill="#FFFFFF" style="stroke:#000000;stroke-width:1.4274;"/><text fill="#000000" font-family="'Segoe UI'" font-size="18.5558" lengthAdjust="spacing" textLength="312.5488" x="34.2568" y="241.1421">Caller supplies the backing buffer</text><text fill="#000000" font-family="'Segoe UI'" font-size="18.5558" lengthAdjust="spacing" textLength="315.1945" x="34.2568" y="262.7422">(stack or static, properly aligned).</text><rect fill="#FFFFFF" height="4.2821" style="stroke:#FFFFFF;stroke-width:1.4274;" width="2234.299" x="7.1368" y="333.5858"/><line style="stroke:#000000;stroke-width:0.7137;" x1="7.1368" x2="2241.4358" y1="333.5858" y2="333.5858"/><line style="stroke:#000000;stroke-width:0.7137;" x1="7.1368" x2="2241.4358" y1="337.8679" y2="337.8679"/><rect fill="#FFFFFF" height="55.8569" style="stroke:#000000;stroke-width:1.4274;" width="183.3212" x="1032.6257" y="307.0847"/><text fill="#000000" font-family="'Segoe UI'" font-size="18.5558" font-weight="bold" lengthAdjust="spacing" textLength="134.0401" x="1052.6088" y="341.437">Construction</text><g class="message" data-participant-1="app" data-participant-2="mp"><polygon fill="#000000" points="649.6588,424.508,663.9325,430.2174,649.6588,435.9269,655.3683,430.2174" style="stroke:#000000;stroke-width:1.4274;"/><line style="stroke:#000000;stroke-width:1.4274;" x1="197.4308" x2="658.223" y1="430.2174" y2="430.2174"/><text fill="#000000" font-family="'Segoe UI'" font-size="18.5558" lengthAdjust="spacing" textLength="419.3986" x="222.4097" y="411.5676">memory_pool pool(buf, buf_sz, blk_sz, count)</text></g><g class="message" data-participant-1="mp" data-participant-2="bridge"><polygon fill="#000000" points="1196.1656,488.9291,1210.4392,494.6385,1196.1656,500.348,1201.875,494.6385" style="stroke:#000000;stroke-width:1.4274;"/><line style="stroke:#000000;stroke-width:1.4274;" x1="681.0609" x2="1204.7298" y1="494.6385" y2="494.6385"/><text fill="#000000" font-family="'Segoe UI'" font-size="18.5558" lengthAdjust="spacing" textLength="414.6872" x="739.8338" y="475.9887">osal_memory_pool_create(&amp;handle_, buf, ...)</text></g><g class="message" data-participant-1="bridge" data-participant-2="be"><polygon fill="#000000" points="1447.7404,553.3502,1462.0141,559.0596,1447.7404,564.7691,1453.4499,559.0596" style="stroke:#000000;stroke-width:1.4274;"/><line style="stroke:#000000;stroke-width:1.4274;" x1="1213.294" x2="1456.3046" y1="559.0596" y2="559.0596"/><text fill="#000000" font-family="'Segoe UI'" font-size="18.5558" lengthAdjust="spacing" textLength="194.4732" x="1241.8448" y="540.4098">calls implementation</text></g><g class="message" data-participant-1="be" data-participant-2="os"><polygon fill="#000000" points="1926.1092,617.7713,1940.3829,623.4808,1926.1092,629.1902,1931.8187,623.4808" style="stroke:#000000;stroke-width:1.4274;"/><line style="stroke:#000000;stroke-width:1.4274;" x1="1464.8689" x2="1934.6734" y1="623.4808" y2="623.4808"/><text fill="#000000" font-family="'Segoe UI'" font-size="18.5558" lengthAdjust="spacing" textLength="286.6722" x="1560.7171" y="604.8309">k_mem_slab_init() / bitmap init</text></g><g class="message" data-participant-1="os" data-participant-2="be"><polygon fill="#000000" points="1480.5699,682.1924,1466.2962,687.9019,1480.5699,693.6113,1474.8604,687.9019" style="stroke:#000000;stroke-width:1.4274;"/><line style="stroke:#000000;stroke-width:1.4274;stroke-dasharray:2.8547,2.8547;" x1="1472.0057" x2="1941.8103" y1="687.9019" y2="687.9019"/><text fill="#000000" font-family="'Segoe UI'" font-size="18.5558" lengthAdjust="spacing" textLength="104.7658" x="1651.6703" y="669.252">0 (success)</text></g><g class="message" data-participant-1="be" data-participant-2="bridge"><polygon fill="#000000" points="1228.995,746.6135,1214.7213,752.323,1228.995,758.0324,1223.2855,752.323" style="stroke:#000000;stroke-width:1.4274;"/><line style="stroke:#000000;stroke-width:1.4274;stroke-dasharray:2.8547,2.8547;" x1="1220.4308" x2="1463.4415" y1="752.323" y2="752.323"/><text fill="#000000" font-family="'Segoe UI'" font-size="18.5558" lengthAdjust="spacing" textLength="98.6138" x="1289.7745" y="733.6731">result{ok}</text></g><g class="message" data-participant-1="bridge" data-participant-2="mp"><polygon fill="#000000" points="696.7619,811.0346,682.4882,816.7441,696.7619,822.4535,691.0524,816.7441" style="stroke:#000000;stroke-width:1.4274;"/><line style="stroke:#000000;stroke-width:1.4274;stroke-dasharray:2.8547,2.8547;" x1="688.1977" x2="1211.8666" y1="816.7441" y2="816.7441"/><text fill="#000000" font-family="'Segoe UI'" font-size="18.5558" lengthAdjust="spacing" textLength="98.6138" x="897.8705" y="798.0942">result{ok}</text></g><g class="message" data-participant-1="mp" data-participant-2="app"><polygon fill="#000000" points="213.1318,875.4557,198.8581,881.1652,213.1318,886.8746,207.4223,881.1652" style="stroke:#000000;stroke-width:1.4274;"/><line style="stroke:#000000;stroke-width:1.4274;stroke-dasharray:2.8547,2.8547;" x1="204.5676" x2="672.4967" y1="881.1652" y2="881.1652"/><text fill="#000000" font-family="'Segoe UI'" font-size="18.5558" lengthAdjust="spacing" textLength="139.8932" x="365.7308" y="862.5153">valid() == true</text></g><rect fill="#FFFFFF" height="4.2821" style="stroke:#FFFFFF;stroke-width:1.4274;" width="2234.299" x="7.1368" y="933.3589"/><line style="stroke:#000000;stroke-width:0.7137;" x1="7.1368" x2="2241.4358" y1="933.3589" y2="933.3589"/><line style="stroke:#000000;stroke-width:0.7137;" x1="7.1368" x2="2241.4358" y1="937.641" y2="937.641"/><rect fill="#FFFFFF" height="55.8569" style="stroke:#000000;stroke-width:1.4274;" width="292.9616" x="977.8055" y="906.8578"/><text fill="#000000" font-family="'Segoe UI'" font-size="18.5558" font-weight="bold" lengthAdjust="spacing" textLength="243.6805" x="997.7887" y="941.2101">Allocate (non-blocking)</text><g class="message" data-participant-1="app" data-participant-2="mp"><polygon fill="#000000" points="649.6588,1024.281,663.9325,1029.9905,649.6588,1035.7,655.3683,1029.9905" style="stroke:#000000;stroke-width:1.4274;"/><line style="stroke:#000000;stroke-width:1.4274;" x1="197.4308" x2="658.223" y1="1029.9905" y2="1029.9905"/><text fill="#000000" font-family="'Segoe UI'" font-size="18.5558" lengthAdjust="spacing" textLength="242.7835" x="310.7172" y="1011.3406">void* blk = pool.allocate()</text></g><g class="message" data-participant-1="mp" data-participant-2="bridge"><polygon fill="#000000" points="1196.1656,1088.7021,1210.4392,1094.4116,1196.1656,1100.1211,1201.875,1094.4116" style="stroke:#000000;stroke-width:1.4274;"/><line style="stroke:#000000;stroke-width:1.4274;" x1="681.0609" x2="1204.7298" y1="1094.4116" y2="1094.4116"/><text fill="#000000" font-family="'Segoe UI'" font-size="18.5558" lengthAdjust="spacing" textLength="357.3165" x="768.5192" y="1075.7618">osal_memory_pool_allocate(&amp;handle_)</text></g><g class="message" data-participant-1="bridge" data-participant-2="be"><polygon fill="#000000" points="1447.7404,1153.1232,1462.0141,1158.8327,1447.7404,1164.5422,1453.4499,1158.8327" style="stroke:#000000;stroke-width:1.4274;"/><line style="stroke:#000000;stroke-width:1.4274;" x1="1213.294" x2="1456.3046" y1="1158.8327" y2="1158.8327"/><text fill="#000000" font-family="'Segoe UI'" font-size="18.5558" lengthAdjust="spacing" textLength="194.4732" x="1241.8448" y="1140.1829">calls implementation</text></g><g class="message" data-participant-1="be" data-participant-2="os"><polygon fill="#000000" points="1926.1092,1217.5444,1940.3829,1223.2538,1926.1092,1228.9633,1931.8187,1223.2538" style="stroke:#000000;stroke-width:1.4274;"/><line style="stroke:#000000;stroke-width:1.4274;" x1="1464.8689" x2="1934.6734" y1="1223.2538" y2="1223.2538"/><text fill="#000000" font-family="'Segoe UI'" font-size="18.5558" lengthAdjust="spacing" textLength="421.2741" x="1493.4162" y="1204.604">k_mem_slab_alloc(K_NO_WAIT) / bitmap scan</text></g><g class="message" data-participant-1="os" data-participant-2="be"><polygon fill="#000000" points="1480.5699,1281.9655,1466.2962,1287.6749,1480.5699,1293.3844,1474.8604,1287.6749" style="stroke:#000000;stroke-width:1.4274;"/><line style="stroke:#000000;stroke-width:1.4274;stroke-dasharray:2.8547,2.8547;" x1="1472.0057" x2="1941.8103" y1="1287.6749" y2="1287.6749"/><text fill="#000000" font-family="'Segoe UI'" font-size="18.5558" lengthAdjust="spacing" textLength="188.9192" x="1609.5937" y="1269.0251">pointer to free block</text></g><g class="message" data-participant-1="be" data-participant-2="bridge"><polygon fill="#000000" points="1228.995,1346.3866,1214.7213,1352.096,1228.995,1357.8055,1223.2855,1352.096" style="stroke:#000000;stroke-width:1.4274;"/><line style="stroke:#000000;stroke-width:1.4274;stroke-dasharray:2.8547,2.8547;" x1="1220.4308" x2="1463.4415" y1="1352.096" y2="1352.096"/><text fill="#000000" font-family="'Segoe UI'" font-size="18.5558" lengthAdjust="spacing" textLength="123.4575" x="1277.3526" y="1333.4462">blk (non-null)</text></g><g class="message" data-participant-1="bridge" data-participant-2="mp"><polygon fill="#000000" points="696.7619,1410.8077,682.4882,1416.5171,696.7619,1422.2266,691.0524,1416.5171" style="stroke:#000000;stroke-width:1.4274;"/><line style="stroke:#000000;stroke-width:1.4274;stroke-dasharray:2.8547,2.8547;" x1="688.1977" x2="1211.8666" y1="1416.5171" y2="1416.5171"/><text fill="#000000" font-family="'Segoe UI'" font-size="18.5558" lengthAdjust="spacing" textLength="27.6796" x="933.3376" y="1397.8673">blk</text></g><g class="message" data-participant-1="mp" data-participant-2="app"><polygon fill="#000000" points="213.1318,1475.2288,198.8581,1480.9382,213.1318,1486.6477,207.4223,1480.9382" style="stroke:#000000;stroke-width:1.4274;"/><line style="stroke:#000000;stroke-width:1.4274;stroke-dasharray:2.8547,2.8547;" x1="204.5676" x2="672.4967" y1="1480.9382" y2="1480.9382"/><text fill="#000000" font-family="'Segoe UI'" font-size="18.5558" lengthAdjust="spacing" textLength="123.4575" x="373.9486" y="1462.2884">blk (non-null)</text></g><path d="M39.9663,1499.494 L39.9663,1558.0161 L352.5597,1558.0161 L352.5597,1513.7677 L338.2861,1499.494 L39.9663,1499.494" fill="#FFFFFF" style="stroke:#000000;stroke-width:1.4274;"/><path d="M338.2861,1499.494 L338.2861,1513.7677 L352.5597,1513.7677 L338.2861,1499.494" fill="#FFFFFF" style="stroke:#000000;stroke-width:1.4274;"/><text fill="#000000" font-family="'Segoe UI'" font-size="18.5558" lengthAdjust="spacing" textLength="261.0312" x="59.9494" y="1535.2737">placement new &#8212; use block</text><rect fill="#FFFFFF" height="4.2821" style="stroke:#FFFFFF;stroke-width:1.4274;" width="2234.299" x="7.1368" y="1606.1172"/><line style="stroke:#000000;stroke-width:0.7137;" x1="7.1368" x2="2241.4358" y1="1606.1172" y2="1606.1172"/><line style="stroke:#000000;stroke-width:0.7137;" x1="7.1368" x2="2241.4358" y1="1610.3993" y2="1610.3993"/><rect fill="#FFFFFF" height="55.8569" style="stroke:#000000;stroke-width:1.4274;" width="160.2352" x="1044.1687" y="1579.6162"/><text fill="#000000" font-family="'Segoe UI'" font-size="18.5558" font-weight="bold" lengthAdjust="spacing" textLength="110.9541" x="1064.1518" y="1613.9685">Deallocate</text><g class="message" data-participant-1="app" data-participant-2="mp"><polygon fill="#000000" points="649.6588,1697.0394,663.9325,1702.7489,649.6588,1708.4584,655.3683,1702.7489" style="stroke:#000000;stroke-width:1.4274;"/><line style="stroke:#000000;stroke-width:1.4274;" x1="197.4308" x2="658.223" y1="1702.7489" y2="1702.7489"/><text fill="#000000" font-family="'Segoe UI'" font-size="18.5558" lengthAdjust="spacing" textLength="184.1896" x="340.0142" y="1684.099">pool.deallocate(blk)</text></g><g class="message" data-participant-1="mp" data-participant-2="bridge"><polygon fill="#000000" points="1196.1656,1761.4605,1210.4392,1767.17,1196.1656,1772.8795,1201.875,1767.17" style="stroke:#000000;stroke-width:1.4274;"/><line style="stroke:#000000;stroke-width:1.4274;" x1="681.0609" x2="1204.7298" y1="1767.17" y2="1767.17"/><text fill="#000000" font-family="'Segoe UI'" font-size="18.5558" lengthAdjust="spacing" textLength="419.9875" x="737.1837" y="1748.5201">osal_memory_pool_deallocate(&amp;handle_, blk)</text></g><g class="message" data-participant-1="bridge" data-participant-2="be"><polygon fill="#000000" points="1447.7404,1825.8816,1462.0141,1831.5911,1447.7404,1837.3006,1453.4499,1831.5911" style="stroke:#000000;stroke-width:1.4274;"/><line style="stroke:#000000;stroke-width:1.4274;" x1="1213.294" x2="1456.3046" y1="1831.5911" y2="1831.5911"/><text fill="#000000" font-family="'Segoe UI'" font-size="18.5558" lengthAdjust="spacing" textLength="194.4732" x="1241.8448" y="1812.9412">calls implementation</text></g><g class="message" data-participant-1="be" data-participant-2="os"><polygon fill="#000000" points="1926.1092,1890.3027,1940.3829,1896.0122,1926.1092,1901.7217,1931.8187,1896.0122" style="stroke:#000000;stroke-width:1.4274;"/><line style="stroke:#000000;stroke-width:1.4274;" x1="1464.8689" x2="1934.6734" y1="1896.0122" y2="1896.0122"/><text fill="#000000" font-family="'Segoe UI'" font-size="18.5558" lengthAdjust="spacing" textLength="310.7458" x="1548.6803" y="1877.3623">k_mem_slab_free() / bitmap clear</text></g><g class="message" data-participant-1="os" data-participant-2="be"><polygon fill="#000000" points="1480.5699,1954.7238,1466.2962,1960.4333,1480.5699,1966.1428,1474.8604,1960.4333" style="stroke:#000000;stroke-width:1.4274;"/><line style="stroke:#000000;stroke-width:1.4274;stroke-dasharray:2.8547,2.8547;" x1="1472.0057" x2="1941.8103" y1="1960.4333" y2="1960.4333"/><text fill="#000000" font-family="'Segoe UI'" font-size="18.5558" lengthAdjust="spacing" textLength="11.8057" x="1698.1504" y="1941.7834">0</text></g><g class="message" data-participant-1="be" data-participant-2="bridge"><polygon fill="#000000" points="1228.995,2019.1449,1214.7213,2024.8544,1228.995,2030.5639,1223.2855,2024.8544" style="stroke:#000000;stroke-width:1.4274;"/><line style="stroke:#000000;stroke-width:1.4274;stroke-dasharray:2.8547,2.8547;" x1="1220.4308" x2="1463.4415" y1="2024.8544" y2="2024.8544"/><text fill="#000000" font-family="'Segoe UI'" font-size="18.5558" lengthAdjust="spacing" textLength="98.6138" x="1289.7745" y="2006.2045">result{ok}</text></g><g class="message" data-participant-1="bridge" data-participant-2="mp"><polygon fill="#000000" points="696.7619,2083.566,682.4882,2089.2755,696.7619,2094.985,691.0524,2089.2755" style="stroke:#000000;stroke-width:1.4274;"/><line style="stroke:#000000;stroke-width:1.4274;stroke-dasharray:2.8547,2.8547;" x1="688.1977" x2="1211.8666" y1="2089.2755" y2="2089.2755"/><text fill="#000000" font-family="'Segoe UI'" font-size="18.5558" lengthAdjust="spacing" textLength="98.6138" x="897.8705" y="2070.6256">result{ok}</text></g><g class="message" data-participant-1="mp" data-participant-2="app"><polygon fill="#000000" points="213.1318,2147.9871,198.8581,2153.6966,213.1318,2159.4061,207.4223,2153.6966" style="stroke:#000000;stroke-width:1.4274;"/><line style="stroke:#000000;stroke-width:1.4274;stroke-dasharray:2.8547,2.8547;" x1="204.5676" x2="672.4967" y1="2153.6966" y2="2153.6966"/><text fill="#000000" font-family="'Segoe UI'" font-size="18.5558" lengthAdjust="spacing" textLength="98.6138" x="386.3705" y="2135.0467">result{ok}</text></g><rect fill="#FFFFFF" height="4.2821" style="stroke:#FFFFFF;stroke-width:1.4274;" width="2234.299" x="7.1368" y="2205.8903"/><line style="stroke:#000000;stroke-width:0.7137;" x1="7.1368" x2="2241.4358" y1="2205.8903" y2="2205.8903"/><line style="stroke:#000000;stroke-width:0.7137;" x1="7.1368" x2="2241.4358" y1="2210.1724" y2="2210.1724"/><rect fill="#FFFFFF" height="55.8569" style="stroke:#000000;stroke-width:1.4274;" width="210.4754" x="1019.0486" y="2179.3892"/><text fill="#000000" font-family="'Segoe UI'" font-size="18.5558" font-weight="bold" lengthAdjust="spacing" textLength="161.1942" x="1039.0318" y="2213.7415">Pool exhausted</text><g class="message" data-participant-1="app" data-participant-2="mp"><polygon fill="#000000" points="649.6588,2296.8125,663.9325,2302.522,649.6588,2308.2314,655.3683,2302.522" style="stroke:#000000;stroke-width:1.4274;"/><line style="stroke:#000000;stroke-width:1.4274;" x1="197.4308" x2="658.223" y1="2302.522" y2="2302.522"/><text fill="#000000" font-family="'Segoe UI'" font-size="18.5558" lengthAdjust="spacing" textLength="254.5892" x="304.8144" y="2283.8721">void* blk2 = pool.allocate()</text></g><g class="message" data-participant-1="mp" data-participant-2="bridge"><polygon fill="#000000" points="1196.1656,2361.2336,1210.4392,2366.9431,1196.1656,2372.6525,1201.875,2366.9431" style="stroke:#000000;stroke-width:1.4274;"/><line style="stroke:#000000;stroke-width:1.4274;" x1="681.0609" x2="1204.7298" y1="2366.9431" y2="2366.9431"/><text fill="#000000" font-family="'Segoe UI'" font-size="18.5558" lengthAdjust="spacing" textLength="357.3165" x="768.5192" y="2348.2932">osal_memory_pool_allocate(&amp;handle_)</text></g><g class="message" data-participant-1="bridge" data-participant-2="be"><polygon fill="#000000" points="1447.7404,2425.6547,1462.0141,2431.3642,1447.7404,2437.0736,1453.4499,2431.3642" style="stroke:#000000;stroke-width:1.4274;"/><line style="stroke:#000000;stroke-width:1.4274;" x1="1213.294" x2="1456.3046" y1="2431.3642" y2="2431.3642"/><text fill="#000000" font-family="'Segoe UI'" font-size="18.5558" lengthAdjust="spacing" textLength="194.4732" x="1241.8448" y="2412.7143">calls implementation</text></g><g class="message" data-participant-1="be" data-participant-2="os"><polygon fill="#000000" points="1926.1092,2490.0758,1940.3829,2495.7853,1926.1092,2501.4947,1931.8187,2495.7853" style="stroke:#000000;stroke-width:1.4274;"/><line style="stroke:#000000;stroke-width:1.4274;" x1="1464.8689" x2="1934.6734" y1="2495.7853" y2="2495.7853"/><text fill="#000000" font-family="'Segoe UI'" font-size="18.5558" lengthAdjust="spacing" textLength="148.0385" x="1630.034" y="2477.1354">all blocks in use</text></g><g class="message" data-participant-1="os" data-participant-2="be"><polygon fill="#000000" points="1480.5699,2554.4969,1466.2962,2560.2064,1480.5699,2565.9158,1474.8604,2560.2064" style="stroke:#000000;stroke-width:1.4274;"/><line style="stroke:#000000;stroke-width:1.4274;stroke-dasharray:2.8547,2.8547;" x1="1472.0057" x2="1941.8103" y1="2560.2064" y2="2560.2064"/><text fill="#000000" font-family="'Segoe UI'" font-size="18.5558" lengthAdjust="spacing" textLength="60.5147" x="1673.7959" y="2541.5565">nullptr</text></g><g class="message" data-participant-1="be" data-participant-2="bridge"><polygon fill="#000000" points="1228.995,2618.918,1214.7213,2624.6275,1228.995,2630.3369,1223.2855,2624.6275" style="stroke:#000000;stroke-width:1.4274;"/><line style="stroke:#000000;stroke-width:1.4274;stroke-dasharray:2.8547,2.8547;" x1="1220.4308" x2="1463.4415" y1="2624.6275" y2="2624.6275"/><text fill="#000000" font-family="'Segoe UI'" font-size="18.5558" lengthAdjust="spacing" textLength="60.5147" x="1308.8241" y="2605.9776">nullptr</text></g><g class="message" data-participant-1="bridge" data-participant-2="mp"><polygon fill="#000000" points="696.7619,2683.3391,682.4882,2689.0486,696.7619,2694.758,691.0524,2689.0486" style="stroke:#000000;stroke-width:1.4274;"/><line style="stroke:#000000;stroke-width:1.4274;stroke-dasharray:2.8547,2.8547;" x1="688.1977" x2="1211.8666" y1="2689.0486" y2="2689.0486"/><text fill="#000000" font-family="'Segoe UI'" font-size="18.5558" lengthAdjust="spacing" textLength="60.5147" x="916.9201" y="2670.3987">nullptr</text></g><g class="message" data-participant-1="mp" data-participant-2="app"><polygon fill="#000000" points="213.1318,2747.7602,198.8581,2753.4697,213.1318,2759.1792,207.4223,2753.4697" style="stroke:#000000;stroke-width:1.4274;"/><line style="stroke:#000000;stroke-width:1.4274;stroke-dasharray:2.8547,2.8547;" x1="204.5676" x2="672.4967" y1="2753.4697" y2="2753.4697"/><text fill="#000000" font-family="'Segoe UI'" font-size="18.5558" lengthAdjust="spacing" textLength="60.5147" x="405.4201" y="2734.8198">nullptr</text></g><path d="M72.7957,2772.0255 L72.7957,2830.5475 L321.1577,2830.5475 L321.1577,2786.2991 L306.884,2772.0255 L72.7957,2772.0255" fill="#FFFFFF" style="stroke:#000000;stroke-width:1.4274;"/><path d="M306.884,2772.0255 L306.884,2786.2991 L321.1577,2786.2991 L306.884,2772.0255" fill="#FFFFFF" style="stroke:#000000;stroke-width:1.4274;"/><text fill="#000000" font-family="'Segoe UI'" font-size="18.5558" lengthAdjust="spacing" textLength="196.1494" x="92.7789" y="2807.8051">caller handles nullptr</text><rect fill="#FFFFFF" height="4.2821" style="stroke:#FFFFFF;stroke-width:1.4274;" width="2234.299" x="7.1368" y="2878.6487"/><line style="stroke:#000000;stroke-width:0.7137;" x1="7.1368" x2="2241.4358" y1="2878.6487" y2="2878.6487"/><line style="stroke:#000000;stroke-width:0.7137;" x1="7.1368" x2="2241.4358" y1="2882.9308" y2="2882.9308"/><rect fill="#FFFFFF" height="55.8569" style="stroke:#000000;stroke-width:1.4274;" width="274.5689" x="987.0019" y="2852.1476"/><text fill="#000000" font-family="'Segoe UI'" font-size="18.5558" font-weight="bold" lengthAdjust="spacing" textLength="225.2878" x="1006.985" y="2886.4999">Allocate with timeout</text><g class="message" data-participant-1="app" data-participant-2="mp"><polygon fill="#000000" points="649.6588,2969.5709,663.9325,2975.2803,649.6588,2980.9898,655.3683,2975.2803" style="stroke:#000000;stroke-width:1.4274;"/><line style="stroke:#000000;stroke-width:1.4274;" x1="197.4308" x2="658.223" y1="2975.2803" y2="2975.2803"/><text fill="#000000" font-family="'Segoe UI'" font-size="18.5558" lengthAdjust="spacing" textLength="352.5416" x="255.8382" y="2956.6305">void* blk3 = pool.allocate_for(500ms)</text></g><g class="message" data-participant-1="mp" data-participant-2="mp"><line style="stroke:#000000;stroke-width:1.4274;" x1="681.0609" x2="741.0103" y1="3039.7014" y2="3039.7014"/><line style="stroke:#000000;stroke-width:1.4274;" x1="741.0103" x2="741.0103" y1="3039.7014" y2="3058.2572"/><line style="stroke:#000000;stroke-width:1.4274;" x1="682.4882" x2="741.0103" y1="3058.2572" y2="3058.2572"/><polygon fill="#000000" points="696.7619,3052.5477,682.4882,3058.2572,696.7619,3063.9667,691.0524,3058.2572" style="stroke:#000000;stroke-width:1.4274;"/><text fill="#000000" font-family="'Segoe UI'" font-size="18.5558" lengthAdjust="spacing" textLength="157.8691" x="702.4714" y="3021.0516">ms_to_ticks(500)</text></g><g class="message" data-participant-1="mp" data-participant-2="bridge"><polygon fill="#000000" points="1196.1656,3116.9689,1210.4392,3122.6783,1196.1656,3128.3878,1201.875,3122.6783" style="stroke:#000000;stroke-width:1.4274;"/><line style="stroke:#000000;stroke-width:1.4274;" x1="681.0609" x2="1204.7298" y1="3122.6783" y2="3122.6783"/><text fill="#000000" font-family="'Segoe UI'" font-size="18.5558" lengthAdjust="spacing" textLength="475.1384" x="709.6082" y="3104.0285">osal_memory_pool_allocate_timed(&amp;handle_, ticks)</text></g><g class="message" data-participant-1="bridge" data-participant-2="be"><polygon fill="#000000" points="1447.7404,3181.39,1462.0141,3187.0994,1447.7404,3192.8089,1453.4499,3187.0994" style="stroke:#000000;stroke-width:1.4274;"/><line style="stroke:#000000;stroke-width:1.4274;" x1="1213.294" x2="1456.3046" y1="3187.0994" y2="3187.0994"/><text fill="#000000" font-family="'Segoe UI'" font-size="18.5558" lengthAdjust="spacing" textLength="194.4732" x="1241.8448" y="3168.4496">calls implementation</text></g><g class="message" data-participant-1="be" data-participant-2="os"><polygon fill="#000000" points="1926.1092,3245.8111,1940.3829,3251.5205,1926.1092,3257.23,1931.8187,3251.5205" style="stroke:#000000;stroke-width:1.4274;"/><line style="stroke:#000000;stroke-width:1.4274;" x1="1464.8689" x2="1934.6734" y1="3251.5205" y2="3251.5205"/><text fill="#000000" font-family="'Segoe UI'" font-size="18.5558" lengthAdjust="spacing" textLength="326.964" x="1540.5712" y="3232.8707">k_mem_slab_alloc(ticks) / sem wait</text></g><path d="M1949.7838,3270.0763 L1949.7838,3350.0089 L2233.8299,3350.0089 L2233.8299,3284.35 L2219.5562,3270.0763 L1949.7838,3270.0763" fill="#FFFFFF" style="stroke:#000000;stroke-width:1.4274;"/><path d="M2219.5562,3270.0763 L2219.5562,3284.35 L2233.8299,3284.35 L2219.5562,3270.0763" fill="#FFFFFF" style="stroke:#000000;stroke-width:1.4274;"/><text fill="#000000" font-family="'Segoe UI'" font-size="18.5558" lengthAdjust="spacing" textLength="199.982" x="1969.7669" y="3305.856">Blocks until a block is</text><text fill="#000000" font-family="'Segoe UI'" font-size="18.5558" lengthAdjust="spacing" textLength="231.7026" x="1969.7669" y="3327.4561">freed or timeout expires.</text><g class="message" data-participant-1="os" data-participant-2="be"><polygon fill="#000000" points="1480.5699,3404.8176,1466.2962,3410.527,1480.5699,3416.2365,1474.8604,3410.527" style="stroke:#000000;stroke-width:1.4274;"/><line style="stroke:#000000;stroke-width:1.4274;stroke-dasharray:2.8547,2.8547;" x1="1472.0057" x2="1941.8103" y1="3410.527" y2="3410.527"/><text fill="#000000" font-family="'Segoe UI'" font-size="18.5558" lengthAdjust="spacing" textLength="172.1392" x="1617.9836" y="3391.8772">pointer (or nullptr)</text></g><g class="message" data-participant-1="be" data-participant-2="bridge"><polygon fill="#000000" points="1228.995,3469.2387,1214.7213,3474.9481,1228.995,3480.6576,1223.2855,3474.9481" style="stroke:#000000;stroke-width:1.4274;"/><line style="stroke:#000000;stroke-width:1.4274;stroke-dasharray:2.8547,2.8547;" x1="1220.4308" x2="1463.4415" y1="3474.9481" y2="3474.9481"/><text fill="#000000" font-family="'Segoe UI'" font-size="18.5558" lengthAdjust="spacing" textLength="39.4854" x="1319.3387" y="3456.2983">blk3</text></g><g class="message" data-participant-1="bridge" data-participant-2="mp"><polygon fill="#000000" points="696.7619,3533.6598,682.4882,3539.3692,696.7619,3545.0787,691.0524,3539.3692" style="stroke:#000000;stroke-width:1.4274;"/><line style="stroke:#000000;stroke-width:1.4274;stroke-dasharray:2.8547,2.8547;" x1="688.1977" x2="1211.8666" y1="3539.3692" y2="3539.3692"/><text fill="#000000" font-family="'Segoe UI'" font-size="18.5558" lengthAdjust="spacing" textLength="39.4854" x="927.4347" y="3520.7194">blk3</text></g><g class="message" data-participant-1="mp" data-participant-2="app"><polygon fill="#000000" points="213.1318,3598.0809,198.8581,3603.7903,213.1318,3609.4998,207.4223,3603.7903" style="stroke:#000000;stroke-width:1.4274;"/><line style="stroke:#000000;stroke-width:1.4274;stroke-dasharray:2.8547,2.8547;" x1="204.5676" x2="672.4967" y1="3603.7903" y2="3603.7903"/><text fill="#000000" font-family="'Segoe UI'" font-size="18.5558" lengthAdjust="spacing" textLength="39.4854" x="415.9347" y="3585.1405">blk3</text></g><rect fill="#FFFFFF" height="4.2821" style="stroke:#FFFFFF;stroke-width:1.4274;" width="2234.299" x="7.1368" y="3655.984"/><line style="stroke:#000000;stroke-width:0.7137;" x1="7.1368" x2="2241.4358" y1="3655.984" y2="3655.984"/><line style="stroke:#000000;stroke-width:0.7137;" x1="7.1368" x2="2241.4358" y1="3660.2661" y2="3660.2661"/><rect fill="#FFFFFF" height="55.8569" style="stroke:#000000;stroke-width:1.4274;" width="286.4018" x="981.0854" y="3629.4829"/><text fill="#000000" font-family="'Segoe UI'" font-size="18.5558" font-weight="bold" lengthAdjust="spacing" textLength="237.1207" x="1001.0686" y="3663.8352">Query available blocks</text><g class="message" data-participant-1="app" data-participant-2="mp"><polygon fill="#000000" points="649.6588,3746.9062,663.9325,3752.6157,649.6588,3758.3251,655.3683,3752.6157" style="stroke:#000000;stroke-width:1.4274;"/><line style="stroke:#000000;stroke-width:1.4274;" x1="197.4308" x2="658.223" y1="3752.6157" y2="3752.6157"/><text fill="#000000" font-family="'Segoe UI'" font-size="18.5558" lengthAdjust="spacing" textLength="282.5316" x="290.8432" y="3733.9658">std::size_t n = pool.available()</text></g><g class="message" data-participant-1="mp" data-participant-2="bridge"><polygon fill="#000000" points="1196.1656,3811.3273,1210.4392,3817.0368,1196.1656,3822.7463,1201.875,3817.0368" style="stroke:#000000;stroke-width:1.4274;"/><line style="stroke:#000000;stroke-width:1.4274;" x1="681.0609" x2="1204.7298" y1="3817.0368" y2="3817.0368"/><text fill="#000000" font-family="'Segoe UI'" font-size="18.5558" lengthAdjust="spacing" textLength="367.7722" x="763.2913" y="3798.3869">osal_memory_pool_available(&amp;handle_)</text></g><g class="message" data-participant-1="bridge" data-participant-2="be"><polygon fill="#000000" points="1447.7404,3875.7484,1462.0141,3881.4579,1447.7404,3887.1674,1453.4499,3881.4579" style="stroke:#000000;stroke-width:1.4274;"/><line style="stroke:#000000;stroke-width:1.4274;" x1="1213.294" x2="1456.3046" y1="3881.4579" y2="3881.4579"/><text fill="#000000" font-family="'Segoe UI'" font-size="18.5558" lengthAdjust="spacing" textLength="194.4732" x="1241.8448" y="3862.808">calls implementation</text></g><g class="message" data-participant-1="be" data-participant-2="bridge"><polygon fill="#000000" points="1228.995,3940.1695,1214.7213,3945.879,1228.995,3951.5885,1223.2855,3945.879" style="stroke:#000000;stroke-width:1.4274;"/><line style="stroke:#000000;stroke-width:1.4274;stroke-dasharray:2.8547,2.8547;" x1="1220.4308" x2="1463.4415" y1="3945.879" y2="3945.879"/><text fill="#000000" font-family="'Segoe UI'" font-size="18.5558" lengthAdjust="spacing" textLength="52.3512" x="1312.9058" y="3927.2291">count</text></g><g class="message" data-participant-1="bridge" data-participant-2="mp"><polygon fill="#000000" points="696.7619,4004.5906,682.4882,4010.3001,696.7619,4016.0096,691.0524,4010.3001" style="stroke:#000000;stroke-width:1.4274;"/><line style="stroke:#000000;stroke-width:1.4274;stroke-dasharray:2.8547,2.8547;" x1="688.1977" x2="1211.8666" y1="4010.3001" y2="4010.3001"/><text fill="#000000" font-family="'Segoe UI'" font-size="18.5558" lengthAdjust="spacing" textLength="52.3512" x="921.0018" y="3991.6502">count</text></g><g class="message" data-participant-1="mp" data-participant-2="app"><polygon fill="#000000" points="213.1318,4069.0117,198.8581,4074.7212,213.1318,4080.4307,207.4223,4074.7212" style="stroke:#000000;stroke-width:1.4274;"/><line style="stroke:#000000;stroke-width:1.4274;stroke-dasharray:2.8547,2.8547;" x1="204.5676" x2="672.4967" y1="4074.7212" y2="4074.7212"/><text fill="#000000" font-family="'Segoe UI'" font-size="18.5558" lengthAdjust="spacing" textLength="11.7604" x="429.7972" y="4056.0713">n</text></g><rect fill="#FFFFFF" height="4.2821" style="stroke:#FFFFFF;stroke-width:1.4274;" width="2234.299" x="7.1368" y="4126.9149"/><line style="stroke:#000000;stroke-width:0.7137;" x1="7.1368" x2="2241.4358" y1="4126.9149" y2="4126.9149"/><line style="stroke:#000000;stroke-width:0.7137;" x1="7.1368" x2="2241.4358" y1="4131.197" y2="4131.197"/><rect fill="#FFFFFF" height="55.8569" style="stroke:#000000;stroke-width:1.4274;" width="171.7329" x="1038.4199" y="4100.4138"/><text fill="#000000" font-family="'Segoe UI'" font-size="18.5558" font-weight="bold" lengthAdjust="spacing" textLength="122.4518" x="1058.403" y="4134.7661">Destruction</text><g class="message" data-participant-1="app" data-participant-2="mp"><polygon fill="#000000" points="649.6588,4217.8371,663.9325,4223.5465,649.6588,4229.256,655.3683,4223.5465" style="stroke:#000000;stroke-width:1.4274;"/><line style="stroke:#000000;stroke-width:1.4274;" x1="197.4308" x2="658.223" y1="4223.5465" y2="4223.5465"/><text fill="#000000" font-family="'Segoe UI'" font-size="18.5558" lengthAdjust="spacing" textLength="156.4738" x="353.8721" y="4204.8967">~memory_pool()</text></g><g class="message" data-participant-1="mp" data-participant-2="bridge"><polygon fill="#000000" points="1196.1656,4282.2582,1210.4392,4287.9676,1196.1656,4293.6771,1201.875,4287.9676" style="stroke:#000000;stroke-width:1.4274;"/><line style="stroke:#000000;stroke-width:1.4274;" x1="681.0609" x2="1204.7298" y1="4287.9676" y2="4287.9676"/><text fill="#000000" font-family="'Segoe UI'" font-size="18.5558" lengthAdjust="spacing" textLength="354.1181" x="770.1184" y="4269.3178">osal_memory_pool_destroy(&amp;handle_)</text></g><g class="message" data-participant-1="bridge" data-participant-2="be"><polygon fill="#000000" points="1447.7404,4346.6793,1462.0141,4352.3887,1447.7404,4358.0982,1453.4499,4352.3887" style="stroke:#000000;stroke-width:1.4274;"/><line style="stroke:#000000;stroke-width:1.4274;" x1="1213.294" x2="1456.3046" y1="4352.3887" y2="4352.3887"/><text fill="#000000" font-family="'Segoe UI'" font-size="18.5558" lengthAdjust="spacing" textLength="194.4732" x="1241.8448" y="4333.7389">calls implementation</text></g><g class="message" data-participant-1="be" data-participant-2="os"><polygon fill="#000000" points="1926.1092,4411.1004,1940.3829,4416.8099,1926.1092,4422.5193,1931.8187,4416.8099" style="stroke:#000000;stroke-width:1.4274;"/><line style="stroke:#000000;stroke-width:1.4274;" x1="1464.8689" x2="1934.6734" y1="4416.8099" y2="4416.8099"/><text fill="#000000" font-family="'Segoe UI'" font-size="18.5558" lengthAdjust="spacing" textLength="144.4324" x="1631.837" y="4398.16">cleanup / no-op</text></g><g class="message" data-participant-1="os" data-participant-2="be"><polygon fill="#000000" points="1480.5699,4431.0835,1466.2962,4436.793,1480.5699,4442.5025,1474.8604,4436.793" style="stroke:#000000;stroke-width:1.4274;"/><line style="stroke:#000000;stroke-width:1.4274;stroke-dasharray:2.8547,2.8547;" x1="1472.0057" x2="1941.8103" y1="4436.793" y2="4436.793"/></g><g class="message" data-participant-1="be" data-participant-2="bridge"><polygon fill="#000000" points="1228.995,4495.5046,1214.7213,4501.2141,1228.995,4506.9236,1223.2855,4501.2141" style="stroke:#000000;stroke-width:1.4274;"/><line style="stroke:#000000;stroke-width:1.4274;stroke-dasharray:2.8547,2.8547;" x1="1220.4308" x2="1463.4415" y1="4501.2141" y2="4501.2141"/><text fill="#000000" font-family="'Segoe UI'" font-size="18.5558" lengthAdjust="spacing" textLength="98.6138" x="1289.7745" y="4482.5642">result{ok}</text></g><g class="message" data-participant-1="bridge" data-participant-2="mp"><polygon fill="#000000" points="689.6251,4515.4878,675.3514,4521.1972,689.6251,4526.9067,683.9156,4521.1972" style="stroke:#000000;stroke-width:1.4274;"/><line style="stroke:#000000;stroke-width:1.4274;stroke-dasharray:2.8547,2.8547;" x1="681.0609" x2="1211.8666" y1="4521.1972" y2="4521.1972"/></g><!--SRC=[nPRXYXit4CU_woac5oYxuRoznWHQWmjtlZM4DabBMWebiCYxOrjOAwcIrdTEQUb3z0dx91rfRzrTsqVZf50EpbvfPgJvpNzc_SIliKOmaWl5dWXLogP2A2og2crXh5uAYPbfQidSHYZ3BQzXmSlDokf6LJCjjOMdyppyzImgNF96-hbM_ZMd-1TlSQKHVdnvqJDo-4k3giHNw1nVuRKKAmKbAe-MCI-yH7Y5jROx-4vh2N_zyITSIwbBxX4-XrlatSEtOedbhfJ864NseXI6AmyNryP8GHP2gmlW3hWny3J_SluY_sfeg1sNaqaT3oiC7VPE9MlaX62abTobqRiEpkFvy_djq1dlwS8APh2mebhXEnMY5RrWnREaZT0Q4AxvV9nV3QFS45E23bbf39sEsIg3dz6iT_R1D_hbDta-z7lpbbZaTIDZcftd9fnVECaNhRTsTFTPFfz_mPZIX4nlqGOU36167Ed1DO4MEY15n0eBjO95irnIDG0Ivsa9gDZqXKw_1DA6GIjtm4FTi4ep5kuVeZCsdS9CA-TjKuPhmNJAMA0_-ZfWd42F3eH_2Hrq6Kuht7lwb9luMPB4VCeunTY6EjU6rJ760yW97A4kBP9byjcQgqfY4MDUGfPbANjm2kx1jQIq7OZQI6e0vIC-jeZxH6lIGrW89NoI4kU5y3Kt49uP6OswM5V4fobBqd4QG_IlQD5H9_ogDx_jRz1Hw6s5l6WvC9h0bf1MT21H98B8AkmZ273tVP0ehKOBUWZbIeyuRxMedWMUC8sSiwvdalEmxjqwi9-2CmPBlYbUlob-kdxvGm-iAxaQW3LQX740NiFI8kaoP7g4EEGNGQX6olG8CsqF-HxO7-0Tz4UuW-Hbp0aKtiKfrBZk9g4MlK5qY3yYh_Rx2Hry7lUURq_I8Sh7umyW-sgckSdjKCx_XOXxwyVwZGCTxzUySHwhnsNx_7_NBMstjIOZ5Ie_81K4PBmzuhLVFu3LhGz8TOl_eiEodTDj8cxlDHW7TyAlmOiQTUCVfpe-f5eijKrUN5tLxXJUTcAxmkk29l_61SlqWz4NuJfLJxunngVFZpOCoTXX3NUS9d84PiLgxK4loOjUMpTjvUWr8YJmjf0WmaxeWYgyppfQU6y4QRRt5ZirY1BoU22Vdff3urFJPtmqViOdUkBx1kcd3jzoGKbAx5HtM4Ndgyd4YVS45jI-a9tNkVsnzpk_GVg1uvlwAFLsTQZr4udVukC_57xltJOvTtPIMBtx-DOFWr4rXYIcz4YRV_JmmUFn8Dc_0G00]--></g></svg>