<?plantuml 1.2026.1?><svg xmlns="http://www.w3.org/2000/svg" xmlns:xlink="http://www.w3.org/1999/xlink" contentStyleType="text/css" data-diagram-type="SEQUENCE" height="3165px" preserveAspectRatio="none" style="width:2199px;height:3165px;background:#FEFEFE;" version="1.1" viewBox="0 0 2199 3165" width="2199.375px" zoomAndPan="magnify"><title>Work Queue - Submit / Execute Flow</title><defs/><g><rect fill="#FEFEFE" height="3165" style="stroke:none;stroke-width:1.875;" width="2199.375" x="0" y="0"/><text fill="#000000" font-family="'Segoe UI'" font-size="41.25" font-weight="bold" lengthAdjust="spacing" textLength="848.2031" x="673.1712" y="81.4142">Work Queue - Submit / Execute Flow</text><g><title>osal..work_queue</title><rect fill="#FFFFFF" height="349.7461" style="stroke:#000000;stroke-width:1.875;" width="18.75" x="802.7527" y="440.8887"/></g><g><title>osal..work_queue</title><rect fill="#FFFFFF" height="387.2461" style="stroke:#000000;stroke-width:1.875;" width="18.75" x="802.7527" y="986.1328"/></g><g><title>osal..work_queue</title><rect fill="#FFFFFF" height="278.2471" style="stroke:#000000;stroke-width:1.875;" width="18.75" x="802.7527" y="1458.0029"/></g><g><title>osal..work_queue</title><rect fill="#FFFFFF" height="434.8682" style="stroke:#000000;stroke-width:1.875;" width="18.75" x="802.7527" y="2574.4922"/></g><g><title>Worker Thread</title><rect fill="#FFCDD2" height="533.7451" style="stroke:#000000;stroke-width:1.875;" width="18.75" x="1734.5297" y="1736.25"/></g><g class="participant-lifeline" data-entity-uid="part1" data-qualified-name="app" id="part1-lifeline"><g><title>App Thread</title><rect fill="#000000" fill-opacity="0.00000" height="2801.4697" width="15" x="128.6911" y="241.6406"/><line style="stroke:#000000;stroke-width:1.875;stroke-dasharray:9.375,9.375;" x1="135" x2="135" y1="241.6406" y2="3043.1104"/></g></g><g class="participant-lifeline" data-entity-uid="part2" data-qualified-name="wq" id="part2-lifeline"><g><title>osal..work_queue</title><rect fill="#000000" fill-opacity="0.00000" height="2801.4697" width="15" x="804.6277" y="241.6406"/><line style="stroke:#000000;stroke-width:1.875;stroke-dasharray:9.375,9.375;" x1="810.4871" x2="810.4871" y1="241.6406" y2="3043.1104"/></g></g><g class="participant-lifeline" data-entity-uid="part3" data-qualified-name="bridge" id="part3-lifeline"><g><title>extern C bridge</title><rect fill="#000000" fill-opacity="0.00000" height="2801.4697" width="15" x="1236.1917" y="241.6406"/><line style="stroke:#000000;stroke-width:1.875;stroke-dasharray:9.375,9.375;" x1="1243.0975" x2="1243.0975" y1="241.6406" y2="3043.1104"/></g></g><g class="participant-lifeline" data-entity-uid="part4" data-qualified-name="worker" id="part4-lifeline"><g><title>Worker Thread</title><rect fill="#000000" fill-opacity="0.00000" height="2801.4697" width="15" x="1736.4047" y="241.6406"/><line style="stroke:#000000;stroke-width:1.875;stroke-dasharray:9.375,9.375;" x1="1743.0638" x2="1743.0638" y1="241.6406" y2="3043.1104"/></g></g><g class="participant participant-head" data-entity-uid="part1" data-qualified-name="app" id="part1-head"><rect fill="#E8F5E9" height="84.624" rx="4.6875" ry="4.6875" style="stroke:#000000;stroke-width:1.875;" width="197.3822" x="37.5" y="155.1416"/><text fill="#000000" font-family="'Segoe UI'" font-size="24.375" lengthAdjust="spacing" textLength="141.1322" x="65.625" y="205.892">App Thread</text></g><g class="participant participant-tail" data-entity-uid="part1" data-qualified-name="app" id="part1-tail"><rect fill="#E8F5E9" height="84.624" rx="4.6875" ry="4.6875" style="stroke:#000000;stroke-width:1.875;" width="197.3822" x="37.5" y="3041.2354"/><text fill="#000000" font-family="'Segoe UI'" font-size="24.375" lengthAdjust="spacing" textLength="141.1322" x="65.625" y="3091.9858">App Thread</text></g><g class="participant participant-head" data-entity-uid="part2" data-qualified-name="wq" id="part2-head"><rect fill="#E3F2FD" height="84.624" rx="4.6875" ry="4.6875" style="stroke:#000000;stroke-width:1.875;" width="269.5313" x="677.3621" y="155.1416"/><text fill="#000000" font-family="'Segoe UI'" font-size="24.375" lengthAdjust="spacing" textLength="213.2813" x="705.4871" y="205.892">osal::work_queue</text></g><g class="participant participant-tail" data-entity-uid="part2" data-qualified-name="wq" id="part2-tail"><rect fill="#E3F2FD" height="84.624" rx="4.6875" ry="4.6875" style="stroke:#000000;stroke-width:1.875;" width="269.5313" x="677.3621" y="3041.2354"/><text fill="#000000" font-family="'Segoe UI'" font-size="24.375" lengthAdjust="spacing" textLength="213.2813" x="705.4871" y="3091.9858">osal::work_queue</text></g><g class="participant participant-head" data-entity-uid="part3" data-qualified-name="bridge" id="part3-head"><rect fill="#FFF3E0" height="112.998" rx="4.6875" ry="4.6875" style="stroke:#000000;stroke-width:1.875;" width="308.6884" x="1089.3475" y="126.7676"/><text fill="#000000" font-family="'Segoe UI'" font-size="24.375" lengthAdjust="spacing" textLength="190.1678" x="1148.6078" y="177.518">extern C bridge</text><text fill="#000000" font-family="'Segoe UI'" font-size="24.375" lengthAdjust="spacing" textLength="252.4384" x="1117.4725" y="205.892">osal_work_queue_*()</text></g><g class="participant participant-tail" data-entity-uid="part3" data-qualified-name="bridge" id="part3-tail"><rect fill="#FFF3E0" height="112.998" rx="4.6875" ry="4.6875" style="stroke:#000000;stroke-width:1.875;" width="308.6884" x="1089.3475" y="3041.2354"/><text fill="#000000" font-family="'Segoe UI'" font-size="24.375" lengthAdjust="spacing" textLength="190.1678" x="1148.6078" y="3091.9858">extern C bridge</text><text fill="#000000" font-family="'Segoe UI'" font-size="24.375" lengthAdjust="spacing" textLength="252.4384" x="1117.4725" y="3120.3598">osal_work_queue_*()</text></g><g class="participant participant-head" data-entity-uid="part4" data-qualified-name="worker" id="part4-head"><rect fill="#FFEBEE" height="112.998" rx="4.6875" ry="4.6875" style="stroke:#000000;stroke-width:1.875;" width="237.9318" x="1624.9388" y="126.7676"/><text fill="#000000" font-family="'Segoe UI'" font-size="24.375" lengthAdjust="spacing" textLength="181.6818" x="1653.0638" y="177.518">Worker Thread</text><text fill="#000000" font-family="'Segoe UI'" font-size="24.375" lengthAdjust="spacing" textLength="112.9724" x="1687.4185" y="205.892">(internal)</text></g><g class="participant participant-tail" data-entity-uid="part4" data-qualified-name="worker" id="part4-tail"><rect fill="#FFEBEE" height="112.998" rx="4.6875" ry="4.6875" style="stroke:#000000;stroke-width:1.875;" width="237.9318" x="1624.9388" y="3041.2354"/><text fill="#000000" font-family="'Segoe UI'" font-size="24.375" lengthAdjust="spacing" textLength="181.6818" x="1653.0638" y="3091.9858">Worker Thread</text><text fill="#000000" font-family="'Segoe UI'" font-size="24.375" lengthAdjust="spacing" textLength="112.9724" x="1687.4185" y="3120.3598">(internal)</text></g><g><title>osal..work_queue</title><rect fill="#FFFFFF" height="349.7461" style="stroke:#000000;stroke-width:1.875;" width="18.75" x="802.7527" y="440.8887"/></g><g><title>osal..work_queue</title><rect fill="#FFFFFF" height="387.2461" style="stroke:#000000;stroke-width:1.875;" width="18.75" x="802.7527" y="986.1328"/></g><g><title>osal..work_queue</title><rect fill="#FFFFFF" height="278.2471" style="stroke:#000000;stroke-width:1.875;" width="18.75" x="802.7527" y="1458.0029"/></g><g><title>osal..work_queue</title><rect fill="#FFFFFF" height="434.8682" style="stroke:#000000;stroke-width:1.875;" width="18.75" x="802.7527" y="2574.4922"/></g><g><title>Worker Thread</title><rect fill="#FFCDD2" height="533.7451" style="stroke:#000000;stroke-width:1.875;" width="18.75" x="1734.5297" y="1736.25"/></g><rect fill="#FFFFFF" height="5.625" style="stroke:#FFFFFF;stroke-width:1.875;" width="2177.6706" x="9.375" y="313.9526"/><line style="stroke:#000000;stroke-width:0.9375;" x1="9.375" x2="2187.0456" y1="313.9526" y2="313.9526"/><line style="stroke:#000000;stroke-width:0.9375;" x1="9.375" x2="2187.0456" y1="319.5776" y2="319.5776"/><rect fill="#FFFFFF" height="73.374" style="stroke:#000000;stroke-width:1.875;" width="155.809" x="1020.3058" y="279.1406"/><text fill="#000000" font-family="'Segoe UI'" font-size="24.375" font-weight="bold" lengthAdjust="spacing" textLength="91.073" x="1046.5558" y="324.2661">Create</text><g class="message" data-entity-1="part1" data-entity-2="part2" id="msg1"><polygon fill="#000000" points="780.2527,433.3887,799.0027,440.8887,780.2527,448.3887,787.7527,440.8887" style="stroke:#000000;stroke-width:1.875;"/><line style="stroke:#000000;stroke-width:1.875;" x1="136.1911" x2="791.5027" y1="440.8887" y2="440.8887"/><text fill="#000000" font-family="'Segoe UI'" font-size="24.375" lengthAdjust="spacing" textLength="600.9366" x="169.0036" y="416.3901">work_queue(stack, stack_bytes, depth, "my_wq")</text></g><g class="message" data-entity-1="part2" data-entity-2="part3" id="msg2"><polygon fill="#000000" points="1221.1917,518.0127,1239.9417,525.5127,1221.1917,533.0127,1228.6917,525.5127" style="stroke:#000000;stroke-width:1.875;"/><line style="stroke:#000000;stroke-width:1.875;" x1="821.5027" x2="1232.4417" y1="525.5127" y2="525.5127"/><text fill="#000000" font-family="'Segoe UI'" font-size="24.375" lengthAdjust="spacing" textLength="341.4047" x="861.8948" y="501.0141">osal_work_queue_create(...)</text></g><g class="message" data-entity-1="part3" data-entity-2="part4" id="msg3"><polygon fill="#000000" points="1721.4047,602.6367,1740.1547,610.1367,1721.4047,617.6367,1728.9047,610.1367" style="stroke:#000000;stroke-width:1.875;"/><line style="stroke:#000000;stroke-width:1.875;" x1="1243.6917" x2="1732.6547" y1="610.1367" y2="610.1367"/><text fill="#000000" font-family="'Segoe UI'" font-size="24.375" lengthAdjust="spacing" textLength="258.425" x="1364.5857" y="585.6381">spawn worker thread</text></g><path d="M1753.125,634.5117 L1753.125,711.3867 L2107.5,711.3867 L2107.5,653.2617 L2088.75,634.5117 L1753.125,634.5117" fill="#FFFFFF" style="stroke:#000000;stroke-width:1.875;"/><path d="M2088.75,634.5117 L2088.75,653.2617 L2107.5,653.2617 L2088.75,634.5117" fill="#FFFFFF" style="stroke:#000000;stroke-width:1.875;"/><text fill="#000000" font-family="'Segoe UI'" font-size="24.375" lengthAdjust="spacing" textLength="285.5374" x="1779.375" y="681.5121">blocks on empty queue</text><g class="message" data-entity-1="part2" data-entity-2="part1" id="msg4"><polygon fill="#000000" points="156.8161,783.1348,138.0661,790.6348,156.8161,798.1348,149.3161,790.6348" style="stroke:#000000;stroke-width:1.875;"/><line style="stroke:#000000;stroke-width:1.875;stroke-dasharray:3.75,3.75;" x1="145.5661" x2="810.2527" y1="790.6348" y2="790.6348"/><text fill="#000000" font-family="'Segoe UI'" font-size="24.375" lengthAdjust="spacing" textLength="183.7646" x="382.2771" y="766.1362">valid() == true</text></g><rect fill="#FFFFFF" height="5.625" style="stroke:#FFFFFF;stroke-width:1.875;" width="2177.6706" x="9.375" y="859.1968"/><line style="stroke:#000000;stroke-width:0.9375;" x1="9.375" x2="2187.0456" y1="859.1968" y2="859.1968"/><line style="stroke:#000000;stroke-width:0.9375;" x1="9.375" x2="2187.0456" y1="864.8218" y2="864.8218"/><rect fill="#FFFFFF" height="73.374" style="stroke:#000000;stroke-width:1.875;" width="323.4109" x="936.5048" y="824.3848"/><text fill="#000000" font-family="'Segoe UI'" font-size="24.375" font-weight="bold" lengthAdjust="spacing" textLength="258.6749" x="962.7548" y="869.5102">Submit work items</text><g class="message" data-entity-1="part1" data-entity-2="part2" id="msg5"><polygon fill="#000000" points="780.2527,978.6328,799.0027,986.1328,780.2527,993.6328,787.7527,986.1328" style="stroke:#000000;stroke-width:1.875;"/><line style="stroke:#000000;stroke-width:1.875;" x1="136.1911" x2="791.5027" y1="986.1328" y2="986.1328"/><text fill="#000000" font-family="'Segoe UI'" font-size="24.375" lengthAdjust="spacing" textLength="306.4133" x="316.2653" y="961.6342">submit(handler_A, ctx_A)</text></g><g class="message" data-entity-1="part2" data-entity-2="part3" id="msg6"><polygon fill="#000000" points="1221.1917,1063.2568,1239.9417,1070.7568,1221.1917,1078.2568,1228.6917,1070.7568" style="stroke:#000000;stroke-width:1.875;"/><line style="stroke:#000000;stroke-width:1.875;" x1="821.5027" x2="1232.4417" y1="1070.7568" y2="1070.7568"/><text fill="#000000" font-family="'Segoe UI'" font-size="24.375" lengthAdjust="spacing" textLength="347.189" x="859.0027" y="1046.2582">osal_work_queue_submit(...)</text></g><g class="message" data-entity-1="part3" data-entity-2="part3" id="msg7"><line style="stroke:#000000;stroke-width:1.875;" x1="1243.6917" x2="1322.4417" y1="1155.3809" y2="1155.3809"/><line style="stroke:#000000;stroke-width:1.875;" x1="1322.4417" x2="1322.4417" y1="1155.3809" y2="1179.7559"/><line style="stroke:#000000;stroke-width:1.875;" x1="1245.5667" x2="1322.4417" y1="1179.7559" y2="1179.7559"/><polygon fill="#000000" points="1264.3167,1172.2559,1245.5667,1179.7559,1264.3167,1187.2559,1256.8167,1179.7559" style="stroke:#000000;stroke-width:1.875;"/><text fill="#000000" font-family="'Segoe UI'" font-size="24.375" lengthAdjust="spacing" textLength="443.8678" x="1271.8167" y="1130.8823">enqueue {handler_A, ctx_A, seq=1}</text></g><g class="message" data-entity-1="part3" data-entity-2="part3" id="msg8"><line style="stroke:#000000;stroke-width:1.875;" x1="1243.6917" x2="1322.4417" y1="1264.3799" y2="1264.3799"/><line style="stroke:#000000;stroke-width:1.875;" x1="1322.4417" x2="1322.4417" y1="1264.3799" y2="1288.7549"/><line style="stroke:#000000;stroke-width:1.875;" x1="1245.5667" x2="1322.4417" y1="1288.7549" y2="1288.7549"/><polygon fill="#000000" points="1264.3167,1281.2549,1245.5667,1288.7549,1264.3167,1296.2549,1256.8167,1288.7549" style="stroke:#000000;stroke-width:1.875;"/><text fill="#000000" font-family="'Segoe UI'" font-size="24.375" lengthAdjust="spacing" textLength="163.8528" x="1271.8167" y="1239.8813">signal worker</text></g><g class="message" data-entity-1="part2" data-entity-2="part1" id="msg9"><polygon fill="#000000" points="156.8161,1365.8789,138.0661,1373.3789,156.8161,1380.8789,149.3161,1373.3789" style="stroke:#000000;stroke-width:1.875;"/><line style="stroke:#000000;stroke-width:1.875;stroke-dasharray:3.75,3.75;" x1="145.5661" x2="810.2527" y1="1373.3789" y2="1373.3789"/><text fill="#000000" font-family="'Segoe UI'" font-size="24.375" lengthAdjust="spacing" textLength="129.5398" x="409.3895" y="1348.8803">result{ok}</text></g><g class="message" data-entity-1="part1" data-entity-2="part2" id="msg10"><polygon fill="#000000" points="780.2527,1450.5029,799.0027,1458.0029,780.2527,1465.5029,787.7527,1458.0029" style="stroke:#000000;stroke-width:1.875;"/><line style="stroke:#000000;stroke-width:1.875;" x1="136.1911" x2="791.5027" y1="1458.0029" y2="1458.0029"/><text fill="#000000" font-family="'Segoe UI'" font-size="24.375" lengthAdjust="spacing" textLength="306.5085" x="316.2177" y="1433.5043">submit(handler_B, ctx_B)</text></g><g class="message" data-entity-1="part2" data-entity-2="part3" id="msg11"><polygon fill="#000000" points="1221.1917,1535.127,1239.9417,1542.627,1221.1917,1550.127,1228.6917,1542.627" style="stroke:#000000;stroke-width:1.875;"/><line style="stroke:#000000;stroke-width:1.875;" x1="821.5027" x2="1232.4417" y1="1542.627" y2="1542.627"/><text fill="#000000" font-family="'Segoe UI'" font-size="24.375" lengthAdjust="spacing" textLength="347.189" x="859.0027" y="1518.1284">osal_work_queue_submit(...)</text></g><g class="message" data-entity-1="part3" data-entity-2="part3" id="msg12"><line style="stroke:#000000;stroke-width:1.875;" x1="1243.6917" x2="1322.4417" y1="1627.251" y2="1627.251"/><line style="stroke:#000000;stroke-width:1.875;" x1="1322.4417" x2="1322.4417" y1="1627.251" y2="1651.626"/><line style="stroke:#000000;stroke-width:1.875;" x1="1245.5667" x2="1322.4417" y1="1651.626" y2="1651.626"/><polygon fill="#000000" points="1264.3167,1644.126,1245.5667,1651.626,1264.3167,1659.126,1256.8167,1651.626" style="stroke:#000000;stroke-width:1.875;"/><text fill="#000000" font-family="'Segoe UI'" font-size="24.375" lengthAdjust="spacing" textLength="443.963" x="1271.8167" y="1602.7524">enqueue {handler_B, ctx_B, seq=2}</text></g><g class="message" data-entity-1="part2" data-entity-2="part1" id="msg13"><polygon fill="#000000" points="156.8161,1728.75,138.0661,1736.25,156.8161,1743.75,149.3161,1736.25" style="stroke:#000000;stroke-width:1.875;"/><line style="stroke:#000000;stroke-width:1.875;stroke-dasharray:3.75,3.75;" x1="145.5661" x2="810.2527" y1="1736.25" y2="1736.25"/><text fill="#000000" font-family="'Segoe UI'" font-size="24.375" lengthAdjust="spacing" textLength="129.5398" x="409.3895" y="1711.7514">result{ok}</text></g><rect fill="#FFFFFF" height="5.625" style="stroke:#FFFFFF;stroke-width:1.875;" width="2177.6706" x="9.375" y="1804.812"/><line style="stroke:#000000;stroke-width:0.9375;" x1="9.375" x2="2187.0456" y1="1804.812" y2="1804.812"/><line style="stroke:#000000;stroke-width:0.9375;" x1="9.375" x2="2187.0456" y1="1810.437" y2="1810.437"/><rect fill="#FFFFFF" height="73.374" style="stroke:#000000;stroke-width:1.875;" width="475.7071" x="860.3568" y="1770"/><text fill="#000000" font-family="'Segoe UI'" font-size="24.375" font-weight="bold" lengthAdjust="spacing" textLength="410.9711" x="886.6068" y="1815.1254">Worker executes items (FIFO)</text><g class="message" data-entity-1="part4" data-entity-2="part4" id="msg14"><line style="stroke:#000000;stroke-width:1.875;" x1="1753.2797" x2="1832.0297" y1="1931.748" y2="1931.748"/><line style="stroke:#000000;stroke-width:1.875;" x1="1832.0297" x2="1832.0297" y1="1931.748" y2="1956.123"/><line style="stroke:#000000;stroke-width:1.875;" x1="1755.1547" x2="1832.0297" y1="1956.123" y2="1956.123"/><polygon fill="#000000" points="1773.9047,1948.623,1755.1547,1956.123,1773.9047,1963.623,1766.4047,1956.123" style="stroke:#000000;stroke-width:1.875;"/><text fill="#000000" font-family="'Segoe UI'" font-size="24.375" lengthAdjust="spacing" textLength="349.2957" x="1781.4047" y="1907.2495">dequeue {handler_A, ctx_A}</text></g><g class="message" data-entity-1="part4" data-entity-2="part4" id="msg15"><line style="stroke:#000000;stroke-width:1.875;" x1="1753.2797" x2="1832.0297" y1="2040.7471" y2="2040.7471"/><line style="stroke:#000000;stroke-width:1.875;" x1="1832.0297" x2="1832.0297" y1="2040.7471" y2="2065.1221"/><line style="stroke:#000000;stroke-width:1.875;" x1="1755.1547" x2="1832.0297" y1="2065.1221" y2="2065.1221"/><polygon fill="#000000" points="1773.9047,2057.6221,1755.1547,2065.1221,1773.9047,2072.6221,1766.4047,2065.1221" style="stroke:#000000;stroke-width:1.875;"/><text fill="#000000" font-family="'Segoe UI'" font-size="24.375" lengthAdjust="spacing" textLength="207.2232" x="1781.4047" y="2016.2485">handler_A(ctx_A)</text></g><g class="message" data-entity-1="part4" data-entity-2="part4" id="msg16"><line style="stroke:#000000;stroke-width:1.875;" x1="1753.2797" x2="1832.0297" y1="2149.7461" y2="2149.7461"/><line style="stroke:#000000;stroke-width:1.875;" x1="1832.0297" x2="1832.0297" y1="2149.7461" y2="2174.1211"/><line style="stroke:#000000;stroke-width:1.875;" x1="1755.1547" x2="1832.0297" y1="2174.1211" y2="2174.1211"/><polygon fill="#000000" points="1773.9047,2166.6211,1755.1547,2174.1211,1773.9047,2181.6211,1766.4047,2174.1211" style="stroke:#000000;stroke-width:1.875;"/><text fill="#000000" font-family="'Segoe UI'" font-size="24.375" lengthAdjust="spacing" textLength="349.3909" x="1781.4047" y="2125.2475">dequeue {handler_B, ctx_B}</text></g><g class="message" data-entity-1="part4" data-entity-2="part4" id="msg17"><line style="stroke:#000000;stroke-width:1.875;" x1="1753.2797" x2="1832.0297" y1="2268.1201" y2="2268.1201"/><line style="stroke:#000000;stroke-width:1.875;" x1="1832.0297" x2="1832.0297" y1="2268.1201" y2="2292.4951"/><line style="stroke:#000000;stroke-width:1.875;" x1="1743.9047" x2="1832.0297" y1="2292.4951" y2="2292.4951"/><polygon fill="#000000" points="1762.6547,2284.9951,1743.9047,2292.4951,1762.6547,2299.9951,1755.1547,2292.4951" style="stroke:#000000;stroke-width:1.875;"/><text fill="#000000" font-family="'Segoe UI'" font-size="24.375" lengthAdjust="spacing" textLength="207.3184" x="1781.4047" y="2243.6215">handler_B(ctx_B)</text></g><path d="M1753.125,2307.4951 L1753.125,2384.3701 L2152.5,2384.3701 L2152.5,2326.2451 L2133.75,2307.4951 L1753.125,2307.4951" fill="#FFFFFF" style="stroke:#000000;stroke-width:1.875;"/><path d="M2133.75,2307.4951 L2133.75,2326.2451 L2152.5,2326.2451 L2133.75,2307.4951" fill="#FFFFFF" style="stroke:#000000;stroke-width:1.875;"/><text fill="#000000" font-family="'Segoe UI'" font-size="24.375" lengthAdjust="spacing" textLength="330.4907" x="1779.375" y="2354.4955">queue empty, blocks again</text><rect fill="#FFFFFF" height="5.625" style="stroke:#FFFFFF;stroke-width:1.875;" width="2177.6706" x="9.375" y="2447.5562"/><line style="stroke:#000000;stroke-width:0.9375;" x1="9.375" x2="2187.0456" y1="2447.5562" y2="2447.5562"/><line style="stroke:#000000;stroke-width:0.9375;" x1="9.375" x2="2187.0456" y1="2453.1812" y2="2453.1812"/><rect fill="#FFFFFF" height="73.374" style="stroke:#000000;stroke-width:1.875;" width="334.4678" x="930.9764" y="2412.7441"/><text fill="#000000" font-family="'Segoe UI'" font-size="24.375" font-weight="bold" lengthAdjust="spacing" textLength="269.7318" x="957.2264" y="2457.8696">Flush (synchronize)</text><g class="message" data-entity-1="part1" data-entity-2="part2" id="msg18"><polygon fill="#000000" points="780.2527,2566.9922,799.0027,2574.4922,780.2527,2581.9922,787.7527,2574.4922" style="stroke:#000000;stroke-width:1.875;"/><line style="stroke:#000000;stroke-width:1.875;" x1="136.1911" x2="791.5027" y1="2574.4922" y2="2574.4922"/><text fill="#000000" font-family="'Segoe UI'" font-size="24.375" lengthAdjust="spacing" textLength="176.445" x="381.2494" y="2549.9936">flush(5000ms)</text></g><g class="message" data-entity-1="part2" data-entity-2="part3" id="msg19"><polygon fill="#000000" points="1221.1917,2651.6162,1239.9417,2659.1162,1221.1917,2666.6162,1228.6917,2659.1162" style="stroke:#000000;stroke-width:1.875;"/><line style="stroke:#000000;stroke-width:1.875;" x1="821.5027" x2="1232.4417" y1="2659.1162" y2="2659.1162"/><text fill="#000000" font-family="'Segoe UI'" font-size="24.375" lengthAdjust="spacing" textLength="322.4451" x="871.3747" y="2634.6176">osal_work_queue_flush(...)</text></g><path d="M1252.5,2683.4912 L1252.5,2844.7412 L1713.75,2844.7412 L1713.75,2702.2412 L1695,2683.4912 L1252.5,2683.4912" fill="#FFFFFF" style="stroke:#000000;stroke-width:1.875;"/><path d="M1695,2683.4912 L1695,2702.2412 L1713.75,2702.2412 L1695,2683.4912" fill="#FFFFFF" style="stroke:#000000;stroke-width:1.875;"/><text fill="#000000" font-family="'Segoe UI'" font-size="24.375" lengthAdjust="spacing" textLength="305.5801" x="1278.75" y="2730.4916">captures the last queued</text><text fill="#000000" font-family="'Segoe UI'" font-size="24.375" lengthAdjust="spacing" textLength="392.7493" x="1278.75" y="2758.8657">work-item sequence at call time</text><text fill="#000000" font-family="'Segoe UI'" font-size="24.375" lengthAdjust="spacing" textLength="306.9608" x="1278.75" y="2787.2397">and waits until execution</text><text fill="#000000" font-family="'Segoe UI'" font-size="24.375" lengthAdjust="spacing" textLength="387.2269" x="1278.75" y="2815.6137">reaches that frontier or timeout</text><g class="message" data-entity-1="part3" data-entity-2="part2" id="msg20"><polygon fill="#000000" points="842.1277,2917.2363,823.3777,2924.7363,842.1277,2932.2363,834.6277,2924.7363" style="stroke:#000000;stroke-width:1.875;"/><line style="stroke:#000000;stroke-width:1.875;stroke-dasharray:3.75,3.75;" x1="830.8777" x2="1241.8167" y1="2924.7363" y2="2924.7363"/><text fill="#000000" font-family="'Segoe UI'" font-size="24.375" lengthAdjust="spacing" textLength="129.5398" x="967.8273" y="2900.2377">result{ok}</text></g><g class="message" data-entity-1="part2" data-entity-2="part1" id="msg21"><polygon fill="#000000" points="156.8161,3001.8604,138.0661,3009.3604,156.8161,3016.8604,149.3161,3009.3604" style="stroke:#000000;stroke-width:1.875;"/><line style="stroke:#000000;stroke-width:1.875;stroke-dasharray:3.75,3.75;" x1="145.5661" x2="810.2527" y1="3009.3604" y2="3009.3604"/><text fill="#000000" font-family="'Segoe UI'" font-size="24.375" lengthAdjust="spacing" textLength="129.5398" x="409.3895" y="2984.8618">result{ok}</text></g><?plantuml-src jLLDRzf04BtlhvYGYwa8fOaYjKXK0c9BERHLbLQzHB8MUy0hrhjcTns7Hlptpjg60FbGSgWu86lVUpDlvgrzuZBC4Gh9XM8dGYMoJ15YWof54nT6puN4Vb7cajcbK0KtF8SPJvOBeqkLJhNK1awZqF_s42dEUIbTf9Nxpac_SuCBZV3xkhC7ihWgKINu3Qtb2nnBiL2Ge79e67F2IOG_sYpXPuabmXdSbBDSEFW8uJqcfKE8fAuO8p4d4b5mvQ0pBWhubHdaQGUu1KwFf-7dw3BySeZJbilXi2BvUENbQtIr8l15T1vT7OBndbfIC8MP4Ua2RvLdnu_a-4FGhGMQSvf755s4WqCHRmLDszoj2eJtgRXic5LpIinm4eQCZKOm9I2P78qOypREllh-Xl1ODh2E5j63-Y-UhHtQ7as-S5aFElawhbQTBkE94tTUfrenufDAs-GGZbqaTS6Wt-ztMGloHPlEXc0BNgdjewjjCAL9sOX5va3F7w4pgPEb1Qq0yyAjeTQlovEWDpE4Eov56dJ97ZX3XodkT-hzj-lseY0SvlR9A6oD23AkKabf7VSWSVVn-5scMuqZqpiugXe63yT5UZw-eq-RvqYMWinbEuv3smOjtOi7lTmSEtx5sAIfEVclnhP56cFdcxVsJPjgeutDjRJjjeBeElhHRPQs8-nYFhswEcVjutxAKdnXu9ldq3jGq6x-BOfRfwygJe9svFjscuM-4FgcIXtutlO6y8L_h_ePHRAq6GHshPBCQ2N-OlT9dkSU4rmE1eFSlclN3R5UzM5p3OC19Bnm9IsHBYw2vDOrxQPqv7NE_CfsBsJWZWXIWXEv9zD8eEB2MIYL4x9TjD2ApkWra6IrBf7cvCm9cWPz53nNbuxHbmHyKxiGRjtkHUfjKVi7?></g></svg>