<svg xmlns="http://www.w3.org/2000/svg" xmlns:xlink="http://www.w3.org/1999/xlink" contentStyleType="text/css" data-diagram-type="SEQUENCE" height="4605px" preserveAspectRatio="none" style="width:1327px;height:4605px;background:#FEFEFE;" version="1.1" viewBox="0 0 1327 4605" width="1327.5px" zoomAndPan="magnify"><title>Ring Buffer (SPSC) &#8212; Lock-Free Producer / Consumer</title><defs/><g><rect fill="#FEFEFE" height="4605" style="stroke:none;stroke-width:1.875;" width="1327.5" x="0" y="0"/><text fill="#000000" font-family="'Segoe UI'" font-size="41.25" font-weight="bold" lengthAdjust="spacing" textLength="1236.1707" x="43.125" y="81.4142">Ring Buffer (SPSC) &#8212; Lock-Free Producer / Consumer</text><g><title>osal..ring_buffer.T.N.</title><rect fill="#E3F2FD" height="293.9941" style="stroke:#000000;stroke-width:1.875;" width="18.75" x="692.4225" y="941.6309"/></g><g><title>osal..ring_buffer.T.N.</title><rect fill="#E3F2FD" height="84.624" style="stroke:#000000;stroke-width:1.875;" width="18.75" x="692.4225" y="1320.249"/></g><g><title>osal..ring_buffer.T.N.</title><rect fill="#E3F2FD" height="265.6201" style="stroke:#000000;stroke-width:1.875;" width="18.75" x="692.4225" y="1600.3711"/></g><g><title>osal..ring_buffer.T.N.</title><rect fill="#E3F2FD" height="84.624" style="stroke:#000000;stroke-width:1.875;" width="18.75" x="692.4225" y="1950.6152"/></g><g><title>osal..ring_buffer.T.N.</title><rect fill="#E3F2FD" height="180.498" style="stroke:#000000;stroke-width:1.875;" width="18.75" x="692.4225" y="2230.7373"/></g><g><title>osal..ring_buffer.T.N.</title><rect fill="#E3F2FD" height="208.8721" style="stroke:#000000;stroke-width:1.875;" width="18.75" x="692.4225" y="2702.6074"/></g><g><title>osal..ring_buffer.T.N.</title><rect fill="#E3F2FD" height="208.8721" style="stroke:#000000;stroke-width:1.875;" width="18.75" x="692.4225" y="3106.9775"/></g><g><title>osal..ring_buffer.T.N.</title><rect fill="#E3F2FD" height="150.498" style="stroke:#000000;stroke-width:1.875;" width="18.75" x="692.4225" y="4299.2139"/></g><g><title>Producer Thread</title><rect fill="#000000" fill-opacity="0.00000" height="4241.8213" width="15" x="257.493" y="241.6406"/><line style="stroke:#000000;stroke-width:1.875;stroke-dasharray:9.375,9.375;" x1="263.1248" x2="263.1248" y1="241.6406" y2="4483.4619"/></g><g><title>osal..ring_buffer.T.N.</title><rect fill="#000000" fill-opacity="0.00000" height="4241.8213" width="15" x="694.2975" y="241.6406"/><line style="stroke:#000000;stroke-width:1.875;stroke-dasharray:9.375,9.375;" x1="700.3139" x2="700.3139" y1="241.6406" y2="4483.4619"/></g><g><title>Consumer Thread</title><rect fill="#000000" fill-opacity="0.00000" height="4241.8213" width="15" x="1055.9331" y="241.6406"/><line style="stroke:#000000;stroke-width:1.875;stroke-dasharray:9.375,9.375;" x1="1063.2811" x2="1063.2811" y1="241.6406" y2="4483.4619"/></g><g class="participant participant-head" data-participant="prod"><rect fill="#E8F5E9" height="112.998" rx="4.6875" ry="4.6875" style="stroke:#000000;stroke-width:1.875;" width="258.7363" x="135.6248" y="126.7676"/><text fill="#000000" font-family="'Segoe UI'" font-size="24.375" lengthAdjust="spacing" textLength="202.4863" x="163.7498" y="177.518">Producer Thread</text><text fill="#000000" font-family="'Segoe UI'" font-size="24.375" lengthAdjust="spacing" textLength="91.1801" x="219.4029" y="205.892">(single)</text></g><g class="participant participant-tail" data-participant="prod"><rect fill="#E8F5E9" height="112.998" rx="4.6875" ry="4.6875" style="stroke:#000000;stroke-width:1.875;" width="258.7363" x="135.6248" y="4481.5869"/><text fill="#000000" font-family="'Segoe UI'" font-size="24.375" lengthAdjust="spacing" textLength="202.4863" x="163.7498" y="4532.3373">Producer Thread</text><text fill="#000000" font-family="'Segoe UI'" font-size="24.375" lengthAdjust="spacing" textLength="91.1801" x="219.4029" y="4560.7114">(single)</text></g><g class="participant participant-head" data-participant="rb"><rect fill="#E3F2FD" height="84.624" rx="4.6875" ry="4.6875" style="stroke:#000000;stroke-width:1.875;" width="336.7172" x="533.4389" y="155.1416"/><text fill="#000000" font-family="'Segoe UI'" font-size="24.375" lengthAdjust="spacing" textLength="280.4672" x="561.5639" y="205.892">osal::ring_buffer&lt;T,N&gt;</text></g><g class="participant participant-tail" data-participant="rb"><rect fill="#E3F2FD" height="84.624" rx="4.6875" ry="4.6875" style="stroke:#000000;stroke-width:1.875;" width="336.7172" x="533.4389" y="4481.5869"/><text fill="#000000" font-family="'Segoe UI'" font-size="24.375" lengthAdjust="spacing" textLength="280.4672" x="561.5639" y="4532.3373">osal::ring_buffer&lt;T,N&gt;</text></g><g class="participant participant-head" data-participant="cons"><rect fill="#FFF8E1" height="112.998" rx="4.6875" ry="4.6875" style="stroke:#000000;stroke-width:1.875;" width="274.054" x="926.4061" y="126.7676"/><text fill="#000000" font-family="'Segoe UI'" font-size="24.375" lengthAdjust="spacing" textLength="217.804" x="954.5311" y="177.518">Consumer Thread</text><text fill="#000000" font-family="'Segoe UI'" font-size="24.375" lengthAdjust="spacing" textLength="91.1801" x="1017.843" y="205.892">(single)</text></g><g class="participant participant-tail" data-participant="cons"><rect fill="#FFF8E1" height="112.998" rx="4.6875" ry="4.6875" style="stroke:#000000;stroke-width:1.875;" width="274.054" x="926.4061" y="4481.5869"/><text fill="#000000" font-family="'Segoe UI'" font-size="24.375" lengthAdjust="spacing" textLength="217.804" x="954.5311" y="4532.3373">Consumer Thread</text><text fill="#000000" font-family="'Segoe UI'" font-size="24.375" lengthAdjust="spacing" textLength="91.1801" x="1017.843" y="4560.7114">(single)</text></g><g><title>osal..ring_buffer.T.N.</title><rect fill="#E3F2FD" height="293.9941" style="stroke:#000000;stroke-width:1.875;" width="18.75" x="692.4225" y="941.6309"/></g><g><title>osal..ring_buffer.T.N.</title><rect fill="#E3F2FD" height="84.624" style="stroke:#000000;stroke-width:1.875;" width="18.75" x="692.4225" y="1320.249"/></g><g><title>osal..ring_buffer.T.N.</title><rect fill="#E3F2FD" height="265.6201" style="stroke:#000000;stroke-width:1.875;" width="18.75" x="692.4225" y="1600.3711"/></g><g><title>osal..ring_buffer.T.N.</title><rect fill="#E3F2FD" height="84.624" style="stroke:#000000;stroke-width:1.875;" width="18.75" x="692.4225" y="1950.6152"/></g><g><title>osal..ring_buffer.T.N.</title><rect fill="#E3F2FD" height="180.498" style="stroke:#000000;stroke-width:1.875;" width="18.75" x="692.4225" y="2230.7373"/></g><g><title>osal..ring_buffer.T.N.</title><rect fill="#E3F2FD" height="208.8721" style="stroke:#000000;stroke-width:1.875;" width="18.75" x="692.4225" y="2702.6074"/></g><g><title>osal..ring_buffer.T.N.</title><rect fill="#E3F2FD" height="208.8721" style="stroke:#000000;stroke-width:1.875;" width="18.75" x="692.4225" y="3106.9775"/></g><g><title>osal..ring_buffer.T.N.</title><rect fill="#E3F2FD" height="150.498" style="stroke:#000000;stroke-width:1.875;" width="18.75" x="692.4225" y="4299.2139"/></g><path d="M116.8748,269.7656 L116.8748,402.8906 L1208.1248,402.8906 L1208.1248,288.5156 L1189.3748,269.7656 L116.8748,269.7656" fill="#FFFFFF" style="stroke:#000000;stroke-width:1.875;"/><path d="M1189.3748,269.7656 L1189.3748,288.5156 L1208.1248,288.5156 L1189.3748,269.7656" fill="#FFFFFF" style="stroke:#000000;stroke-width:1.875;"/><text fill="#000000" font-family="'Segoe UI'" font-size="24.375" lengthAdjust="spacing" textLength="402.9968" x="355.3656" y="316.7661">Header-only, no OS dependency.</text><text fill="#000000" font-family="'Segoe UI'" font-size="24.375" lengthAdjust="spacing" textLength="599.1037" x="355.3656" y="345.1401">Uses std::atomic with acquire/release semantics.</text><text fill="#000000" font-family="'Segoe UI'" font-size="24.375" lengthAdjust="spacing" textLength="590.582" x="355.3656" y="373.5141">Exactly one producer and one consumer thread.</text><rect fill="#FFFFFF" height="5.625" style="stroke:#FFFFFF;stroke-width:1.875;" width="1210.546" x="56.8748" y="466.5747"/><line style="stroke:#000000;stroke-width:0.9375;" x1="56.8748" x2="1267.4208" y1="466.5747" y2="466.5747"/><line style="stroke:#000000;stroke-width:0.9375;" x1="56.8748" x2="1267.4208" y1="472.1997" y2="472.1997"/><rect fill="#FFFFFF" height="73.374" style="stroke:#000000;stroke-width:1.875;" width="240.8121" x="541.7418" y="431.7627"/><text fill="#000000" font-family="'Segoe UI'" font-size="24.375" font-weight="bold" lengthAdjust="spacing" textLength="176.076" x="567.9918" y="476.8881">Construction</text><g class="message" data-participant-1="prod" data-participant-2="rb"><polygon fill="#000000" points="679.2975,586.0107,698.0475,593.5107,679.2975,601.0107,686.7975,593.5107" style="stroke:#000000;stroke-width:1.875;"/><line style="stroke:#000000;stroke-width:1.875;" x1="264.993" x2="690.5475" y1="593.5107" y2="593.5107"/><text fill="#000000" font-family="'Segoe UI'" font-size="24.375" lengthAdjust="spacing" textLength="361.8045" x="302.493" y="569.0121">ring_buffer&lt;uint16_t, 64&gt; rb;</text></g><path d="M709.3748,617.8857 L709.3748,751.0107 L1202.4998,751.0107 L1202.4998,636.6357 L1183.7498,617.8857 L709.3748,617.8857" fill="#FFFFFF" style="stroke:#000000;stroke-width:1.875;"/><path d="M1183.7498,617.8857 L1183.7498,636.6357 L1202.4998,636.6357 L1183.7498,617.8857" fill="#FFFFFF" style="stroke:#000000;stroke-width:1.875;"/><text fill="#000000" font-family="'Segoe UI'" font-size="24.375" lengthAdjust="spacing" textLength="241.6196" x="735.6248" y="664.8862">head_ = 0, tail_ = 0</text><text fill="#000000" font-family="'Segoe UI'" font-size="24.375" lengthAdjust="spacing" textLength="424.4321" x="735.6248" y="693.2602">Internal array: N+1 slots (sentinel)</text><text fill="#000000" font-family="'Segoe UI'" font-size="24.375" lengthAdjust="spacing" textLength="305.961" x="735.6248" y="721.6342">Capacity: 64 usable slots</text><rect fill="#FFFFFF" height="5.625" style="stroke:#FFFFFF;stroke-width:1.875;" width="1210.546" x="56.8748" y="814.6948"/><line style="stroke:#000000;stroke-width:0.9375;" x1="56.8748" x2="1267.4208" y1="814.6948" y2="814.6948"/><line style="stroke:#000000;stroke-width:0.9375;" x1="56.8748" x2="1267.4208" y1="820.3198" y2="820.3198"/><rect fill="#FFFFFF" height="73.374" style="stroke:#000000;stroke-width:1.875;" width="380.2899" x="472.0029" y="779.8828"/><text fill="#000000" font-family="'Segoe UI'" font-size="24.375" font-weight="bold" lengthAdjust="spacing" textLength="315.5539" x="498.2529" y="825.0082">Producer pushes items</text><g class="message" data-participant-1="prod" data-participant-2="rb"><polygon fill="#000000" points="669.9225,934.1309,688.6725,941.6309,669.9225,949.1309,677.4225,941.6309" style="stroke:#000000;stroke-width:1.875;"/><line style="stroke:#000000;stroke-width:1.875;" x1="264.993" x2="681.1725" y1="941.6309" y2="941.6309"/><text fill="#000000" font-family="'Segoe UI'" font-size="24.375" lengthAdjust="spacing" textLength="188.5373" x="384.4391" y="917.1323">rb.try_push(42)</text></g><path d="M718.7498,966.0059 L718.7498,1155.3809 L1256.8748,1155.3809 L1256.8748,984.7559 L1238.1248,966.0059 L718.7498,966.0059" fill="#FFFFFF" style="stroke:#000000;stroke-width:1.875;"/><path d="M1238.1248,966.0059 L1238.1248,984.7559 L1256.8748,984.7559 L1238.1248,966.0059" fill="#FFFFFF" style="stroke:#000000;stroke-width:1.875;"/><text fill="#000000" font-family="'Segoe UI'" font-size="24.375" lengthAdjust="spacing" textLength="289.0842" x="744.9998" y="1013.0063">1. Load head_ (relaxed)</text><text fill="#000000" font-family="'Segoe UI'" font-size="24.375" lengthAdjust="spacing" textLength="467.8976" x="744.9998" y="1041.3803">2. Compute next = (head+1) % (N+1)</text><text fill="#000000" font-family="'Segoe UI'" font-size="24.375" lengthAdjust="spacing" textLength="469.921" x="744.9998" y="1069.7543">3. Load tail_ (acquire) &#8212; check not full</text><text fill="#000000" font-family="'Segoe UI'" font-size="24.375" lengthAdjust="spacing" textLength="330.8002" x="744.9998" y="1098.1284">4. Write item to buf_[head]</text><text fill="#000000" font-family="'Segoe UI'" font-size="24.375" lengthAdjust="spacing" textLength="383.2874" x="744.9998" y="1126.5024">5. Store head_ = next (release)</text><g class="message" data-participant-1="rb" data-participant-2="prod"><polygon fill="#000000" points="285.618,1228.125,266.868,1235.625,285.618,1243.125,278.118,1235.625" style="stroke:#000000;stroke-width:1.875;"/><line style="stroke:#000000;stroke-width:1.875;stroke-dasharray:3.75,3.75;" x1="274.368" x2="699.9225" y1="1235.625" y2="1235.625"/><text fill="#000000" font-family="'Segoe UI'" font-size="24.375" lengthAdjust="spacing" textLength="199.0704" x="383.86" y="1211.1264">true (enqueued)</text></g><g class="message" data-participant-1="prod" data-participant-2="rb"><polygon fill="#000000" points="669.9225,1312.749,688.6725,1320.249,669.9225,1327.749,677.4225,1320.249" style="stroke:#000000;stroke-width:1.875;"/><line style="stroke:#000000;stroke-width:1.875;" x1="264.993" x2="681.1725" y1="1320.249" y2="1320.249"/><text fill="#000000" font-family="'Segoe UI'" font-size="24.375" lengthAdjust="spacing" textLength="188.5373" x="384.4391" y="1295.7504">rb.try_push(99)</text></g><g class="message" data-participant-1="rb" data-participant-2="prod"><polygon fill="#000000" points="285.618,1397.373,266.868,1404.873,285.618,1412.373,278.118,1404.873" style="stroke:#000000;stroke-width:1.875;"/><line style="stroke:#000000;stroke-width:1.875;stroke-dasharray:3.75,3.75;" x1="274.368" x2="699.9225" y1="1404.873" y2="1404.873"/><text fill="#000000" font-family="'Segoe UI'" font-size="24.375" lengthAdjust="spacing" textLength="199.0704" x="383.86" y="1380.3745">true (enqueued)</text></g><rect fill="#FFFFFF" height="5.625" style="stroke:#FFFFFF;stroke-width:1.875;" width="1210.546" x="56.8748" y="1473.4351"/><line style="stroke:#000000;stroke-width:0.9375;" x1="56.8748" x2="1267.4208" y1="1473.4351" y2="1473.4351"/><line style="stroke:#000000;stroke-width:0.9375;" x1="56.8748" x2="1267.4208" y1="1479.0601" y2="1479.0601"/><rect fill="#FFFFFF" height="73.374" style="stroke:#000000;stroke-width:1.875;" width="362.1039" x="481.0959" y="1438.623"/><text fill="#000000" font-family="'Segoe UI'" font-size="24.375" font-weight="bold" lengthAdjust="spacing" textLength="297.3679" x="507.3459" y="1483.7485">Consumer pops items</text><g class="message" data-participant-1="cons" data-participant-2="rb"><polygon fill="#000000" points="731.7975,1592.8711,713.0475,1600.3711,731.7975,1607.8711,724.2975,1600.3711" style="stroke:#000000;stroke-width:1.875;"/><line style="stroke:#000000;stroke-width:1.875;" x1="720.5475" x2="1061.5581" y1="1600.3711" y2="1600.3711"/><text fill="#000000" font-family="'Segoe UI'" font-size="24.375" lengthAdjust="spacing" textLength="199.3799" x="787.6128" y="1575.8725">rb.try_pop(item)</text></g><path d="M79.3748,1624.7461 L79.3748,1785.9961 L681.2498,1785.9961 L681.2498,1643.4961 L662.4998,1624.7461 L79.3748,1624.7461" fill="#FFFFFF" style="stroke:#000000;stroke-width:1.875;"/><path d="M662.4998,1624.7461 L662.4998,1643.4961 L681.2498,1643.4961 L662.4998,1624.7461" fill="#FFFFFF" style="stroke:#000000;stroke-width:1.875;"/><text fill="#000000" font-family="'Segoe UI'" font-size="24.375" lengthAdjust="spacing" textLength="266.2683" x="105.6248" y="1671.7465">1. Load tail_ (relaxed)</text><text fill="#000000" font-family="'Segoe UI'" font-size="24.375" lengthAdjust="spacing" textLength="533.3578" x="105.6248" y="1700.1205">2. Load head_ (acquire) &#8212; check not empty</text><text fill="#000000" font-family="'Segoe UI'" font-size="24.375" lengthAdjust="spacing" textLength="300.8313" x="105.6248" y="1728.4946">3. Read item = buf_[tail]</text><text fill="#000000" font-family="'Segoe UI'" font-size="24.375" lengthAdjust="spacing" textLength="510.8752" x="105.6248" y="1756.8686">4. Store tail_ = (tail+1) % (N+1) (release)</text><g class="message" data-participant-1="rb" data-participant-2="cons"><polygon fill="#000000" points="1040.9331,1858.4912,1059.6831,1865.9912,1040.9331,1873.4912,1048.4331,1865.9912" style="stroke:#000000;stroke-width:1.875;"/><line style="stroke:#000000;stroke-width:1.875;stroke-dasharray:3.75,3.75;" x1="701.7975" x2="1052.1831" y1="1865.9912" y2="1865.9912"/><text fill="#000000" font-family="'Segoe UI'" font-size="24.375" lengthAdjust="spacing" textLength="187.5256" x="788.8525" y="1841.4926">true, item = 42</text></g><g class="message" data-participant-1="cons" data-participant-2="rb"><polygon fill="#000000" points="731.7975,1943.1152,713.0475,1950.6152,731.7975,1958.1152,724.2975,1950.6152" style="stroke:#000000;stroke-width:1.875;"/><line style="stroke:#000000;stroke-width:1.875;" x1="720.5475" x2="1061.5581" y1="1950.6152" y2="1950.6152"/><text fill="#000000" font-family="'Segoe UI'" font-size="24.375" lengthAdjust="spacing" textLength="199.3799" x="787.6128" y="1926.1166">rb.try_pop(item)</text></g><g class="message" data-participant-1="rb" data-participant-2="cons"><polygon fill="#000000" points="1040.9331,2027.7393,1059.6831,2035.2393,1040.9331,2042.7393,1048.4331,2035.2393" style="stroke:#000000;stroke-width:1.875;"/><line style="stroke:#000000;stroke-width:1.875;stroke-dasharray:3.75,3.75;" x1="701.7975" x2="1052.1831" y1="2035.2393" y2="2035.2393"/><text fill="#000000" font-family="'Segoe UI'" font-size="24.375" lengthAdjust="spacing" textLength="187.5256" x="788.8525" y="2010.7407">true, item = 99</text></g><rect fill="#FFFFFF" height="5.625" style="stroke:#FFFFFF;stroke-width:1.875;" width="1210.546" x="56.8748" y="2103.8013"/><line style="stroke:#000000;stroke-width:0.9375;" x1="56.8748" x2="1267.4208" y1="2103.8013" y2="2103.8013"/><line style="stroke:#000000;stroke-width:0.9375;" x1="56.8748" x2="1267.4208" y1="2109.4263" y2="2109.4263"/><rect fill="#FFFFFF" height="73.374" style="stroke:#000000;stroke-width:1.875;" width="245.8347" x="539.2305" y="2068.9893"/><text fill="#000000" font-family="'Segoe UI'" font-size="24.375" font-weight="bold" lengthAdjust="spacing" textLength="181.0986" x="565.4805" y="2114.1147">Buffer empty</text><g class="message" data-participant-1="cons" data-participant-2="rb"><polygon fill="#000000" points="731.7975,2223.2373,713.0475,2230.7373,731.7975,2238.2373,724.2975,2230.7373" style="stroke:#000000;stroke-width:1.875;"/><line style="stroke:#000000;stroke-width:1.875;" x1="720.5475" x2="1061.5581" y1="2230.7373" y2="2230.7373"/><text fill="#000000" font-family="'Segoe UI'" font-size="24.375" lengthAdjust="spacing" textLength="199.3799" x="787.6128" y="2206.2387">rb.try_pop(item)</text></g><path d="M319.3748,2255.1123 L319.3748,2331.9873 L681.2498,2331.9873 L681.2498,2273.8623 L662.4998,2255.1123 L319.3748,2255.1123" fill="#FFFFFF" style="stroke:#000000;stroke-width:1.875;"/><path d="M662.4998,2255.1123 L662.4998,2273.8623 L681.2498,2273.8623 L662.4998,2255.1123" fill="#FFFFFF" style="stroke:#000000;stroke-width:1.875;"/><text fill="#000000" font-family="'Segoe UI'" font-size="24.375" lengthAdjust="spacing" textLength="293.7259" x="345.6248" y="2302.1127">tail_ == head_ &#8594; empty</text><g class="message" data-participant-1="rb" data-participant-2="cons"><polygon fill="#000000" points="1040.9331,2403.7354,1059.6831,2411.2354,1040.9331,2418.7354,1048.4331,2411.2354" style="stroke:#000000;stroke-width:1.875;"/><line style="stroke:#000000;stroke-width:1.875;stroke-dasharray:3.75,3.75;" x1="701.7975" x2="1052.1831" y1="2411.2354" y2="2411.2354"/><text fill="#000000" font-family="'Segoe UI'" font-size="24.375" lengthAdjust="spacing" textLength="162.9483" x="801.1411" y="2386.7368">false (empty)</text></g><rect fill="#FFFFFF" height="5.625" style="stroke:#FFFFFF;stroke-width:1.875;" width="1210.546" x="56.8748" y="2479.7974"/><line style="stroke:#000000;stroke-width:0.9375;" x1="56.8748" x2="1267.4208" y1="2479.7974" y2="2479.7974"/><line style="stroke:#000000;stroke-width:0.9375;" x1="56.8748" x2="1267.4208" y1="2485.4224" y2="2485.4224"/><rect fill="#FFFFFF" height="73.374" style="stroke:#000000;stroke-width:1.875;" width="203.5831" x="560.3563" y="2444.9854"/><text fill="#000000" font-family="'Segoe UI'" font-size="24.375" font-weight="bold" lengthAdjust="spacing" textLength="138.847" x="586.6063" y="2490.1108">Buffer full</text><path d="M66.2498,2546.4844 L66.2498,2623.3594 L463.7498,2623.3594 L463.7498,2565.2344 L444.9998,2546.4844 L66.2498,2546.4844" fill="#FFFFFF" style="stroke:#000000;stroke-width:1.875;"/><path d="M444.9998,2546.4844 L444.9998,2565.2344 L463.7498,2565.2344 L444.9998,2546.4844" fill="#FFFFFF" style="stroke:#000000;stroke-width:1.875;"/><text fill="#000000" font-family="'Segoe UI'" font-size="24.375" lengthAdjust="spacing" textLength="328.6935" x="92.4998" y="2593.4848">Producer fills all 64 slots ...</text><g class="message" data-participant-1="prod" data-participant-2="rb"><polygon fill="#000000" points="669.9225,2695.1074,688.6725,2702.6074,669.9225,2710.1074,677.4225,2702.6074" style="stroke:#000000;stroke-width:1.875;"/><line style="stroke:#000000;stroke-width:1.875;" x1="264.993" x2="681.1725" y1="2702.6074" y2="2702.6074"/><text fill="#000000" font-family="'Segoe UI'" font-size="24.375" lengthAdjust="spacing" textLength="193.6551" x="381.8802" y="2678.1088">rb.try_push(val)</text></g><path d="M718.7498,2726.9824 L718.7498,2831.9824 L1088.1248,2831.9824 L1088.1248,2745.7324 L1069.3748,2726.9824 L718.7498,2726.9824" fill="#FFFFFF" style="stroke:#000000;stroke-width:1.875;"/><path d="M1069.3748,2726.9824 L1069.3748,2745.7324 L1088.1248,2745.7324 L1069.3748,2726.9824" fill="#FFFFFF" style="stroke:#000000;stroke-width:1.875;"/><text fill="#000000" font-family="'Segoe UI'" font-size="24.375" lengthAdjust="spacing" textLength="234.4904" x="744.9998" y="2773.9828">next == tail_ &#8594; full</text><text fill="#000000" font-family="'Segoe UI'" font-size="24.375" lengthAdjust="spacing" textLength="301.2717" x="744.9998" y="2802.3569">(sentinel slot consumed)</text><g class="message" data-participant-1="rb" data-participant-2="prod"><polygon fill="#000000" points="285.618,2903.9795,266.868,2911.4795,285.618,2918.9795,278.118,2911.4795" style="stroke:#000000;stroke-width:1.875;"/><line style="stroke:#000000;stroke-width:1.875;stroke-dasharray:3.75,3.75;" x1="274.368" x2="699.9225" y1="2911.4795" y2="2911.4795"/><text fill="#000000" font-family="'Segoe UI'" font-size="24.375" lengthAdjust="spacing" textLength="122.3273" x="422.2316" y="2886.9809">false (full)</text></g><rect fill="#FFFFFF" height="5.625" style="stroke:#FFFFFF;stroke-width:1.875;" width="1210.546" x="56.8748" y="2980.0415"/><line style="stroke:#000000;stroke-width:0.9375;" x1="56.8748" x2="1267.4208" y1="2980.0415" y2="2980.0415"/><line style="stroke:#000000;stroke-width:0.9375;" x1="56.8748" x2="1267.4208" y1="2985.6665" y2="2985.6665"/><rect fill="#FFFFFF" height="73.374" style="stroke:#000000;stroke-width:1.875;" width="403.439" x="460.4283" y="2945.2295"/><text fill="#000000" font-family="'Segoe UI'" font-size="24.375" font-weight="bold" lengthAdjust="spacing" textLength="338.703" x="486.6783" y="2990.3549">Peek without consuming</text><g class="message" data-participant-1="cons" data-participant-2="rb"><polygon fill="#000000" points="731.7975,3099.4775,713.0475,3106.9775,731.7975,3114.4775,724.2975,3106.9775" style="stroke:#000000;stroke-width:1.875;"/><line style="stroke:#000000;stroke-width:1.875;" x1="720.5475" x2="1061.5581" y1="3106.9775" y2="3106.9775"/><text fill="#000000" font-family="'Segoe UI'" font-size="24.375" lengthAdjust="spacing" textLength="166.9116" x="803.847" y="3082.4789">rb.peek(item)</text></g><path d="M321.2498,3131.3525 L321.2498,3236.3525 L681.2498,3236.3525 L681.2498,3150.1025 L662.4998,3131.3525 L321.2498,3131.3525" fill="#FFFFFF" style="stroke:#000000;stroke-width:1.875;"/><path d="M662.4998,3131.3525 L662.4998,3150.1025 L681.2498,3150.1025 L662.4998,3131.3525" fill="#FFFFFF" style="stroke:#000000;stroke-width:1.875;"/><text fill="#000000" font-family="'Segoe UI'" font-size="24.375" lengthAdjust="spacing" textLength="290.9171" x="347.4998" y="3178.353">Reads buf_[tail] without</text><text fill="#000000" font-family="'Segoe UI'" font-size="24.375" lengthAdjust="spacing" textLength="192.0364" x="347.4998" y="3206.727">advancing tail_.</text><g class="message" data-participant-1="rb" data-participant-2="cons"><polygon fill="#000000" points="1040.9331,3308.3496,1059.6831,3315.8496,1040.9331,3323.3496,1048.4331,3315.8496" style="stroke:#000000;stroke-width:1.875;"/><line style="stroke:#000000;stroke-width:1.875;stroke-dasharray:3.75,3.75;" x1="701.7975" x2="1052.1831" y1="3315.8496" y2="3315.8496"/><text fill="#000000" font-family="'Segoe UI'" font-size="24.375" lengthAdjust="spacing" textLength="230.9198" x="767.1554" y="3291.351">true, item = oldest</text></g><rect fill="#FFFFFF" height="5.625" style="stroke:#FFFFFF;stroke-width:1.875;" width="1210.546" x="56.8748" y="3384.4116"/><line style="stroke:#000000;stroke-width:0.9375;" x1="56.8748" x2="1267.4208" y1="3384.4116" y2="3384.4116"/><line style="stroke:#000000;stroke-width:0.9375;" x1="56.8748" x2="1267.4208" y1="3390.0366" y2="3390.0366"/><rect fill="#FFFFFF" height="73.374" style="stroke:#000000;stroke-width:1.875;" width="516.6971" x="403.7993" y="3349.5996"/><text fill="#000000" font-family="'Segoe UI'" font-size="24.375" font-weight="bold" lengthAdjust="spacing" textLength="451.9611" x="430.0493" y="3394.725">Query operations (either thread)</text><g class="message" data-participant-1="prod" data-participant-2="rb"><polygon fill="#000000" points="679.2975,3503.8477,698.0475,3511.3477,679.2975,3518.8477,686.7975,3511.3477" style="stroke:#000000;stroke-width:1.875;"/><line style="stroke:#000000;stroke-width:1.875;" x1="264.993" x2="690.5475" y1="3511.3477" y2="3511.3477"/><text fill="#000000" font-family="'Segoe UI'" font-size="24.375" lengthAdjust="spacing" textLength="99.5233" x="433.6336" y="3486.8491">rb.size()</text></g><g class="message" data-participant-1="rb" data-participant-2="prod"><polygon fill="#000000" points="285.618,3588.4717,266.868,3595.9717,285.618,3603.4717,278.118,3595.9717" style="stroke:#000000;stroke-width:1.875;"/><line style="stroke:#000000;stroke-width:1.875;stroke-dasharray:3.75,3.75;" x1="274.368" x2="699.9225" y1="3595.9717" y2="3595.9717"/><text fill="#000000" font-family="'Segoe UI'" font-size="24.375" lengthAdjust="spacing" textLength="303.3545" x="331.718" y="3571.4731">current count (snapshot)</text></g><g class="message" data-participant-1="cons" data-participant-2="rb"><polygon fill="#000000" points="722.4225,3673.0957,703.6725,3680.5957,722.4225,3688.0957,714.9225,3680.5957" style="stroke:#000000;stroke-width:1.875;"/><line style="stroke:#000000;stroke-width:1.875;" x1="711.1725" x2="1061.5581" y1="3680.5957" y2="3680.5957"/><text fill="#000000" font-family="'Segoe UI'" font-size="24.375" lengthAdjust="spacing" textLength="130.4562" x="817.3872" y="3656.0971">rb.empty()</text></g><g class="message" data-participant-1="rb" data-participant-2="cons"><polygon fill="#000000" points="1040.9331,3757.7197,1059.6831,3765.2197,1040.9331,3772.7197,1048.4331,3765.2197" style="stroke:#000000;stroke-width:1.875;"/><line style="stroke:#000000;stroke-width:1.875;stroke-dasharray:3.75,3.75;" x1="701.7975" x2="1052.1831" y1="3765.2197" y2="3765.2197"/><text fill="#000000" font-family="'Segoe UI'" font-size="24.375" lengthAdjust="spacing" textLength="131.7178" x="816.7564" y="3740.7211">true / false</text></g><g class="message" data-participant-1="prod" data-participant-2="rb"><polygon fill="#000000" points="679.2975,3842.3438,698.0475,3849.8438,679.2975,3857.3438,686.7975,3849.8438" style="stroke:#000000;stroke-width:1.875;"/><line style="stroke:#000000;stroke-width:1.875;" x1="264.993" x2="690.5475" y1="3849.8438" y2="3849.8438"/><text fill="#000000" font-family="'Segoe UI'" font-size="24.375" lengthAdjust="spacing" textLength="89.8352" x="438.4776" y="3825.3452">rb.full()</text></g><g class="message" data-participant-1="rb" data-participant-2="prod"><polygon fill="#000000" points="285.618,3926.9678,266.868,3934.4678,285.618,3941.9678,278.118,3934.4678" style="stroke:#000000;stroke-width:1.875;"/><line style="stroke:#000000;stroke-width:1.875;stroke-dasharray:3.75,3.75;" x1="274.368" x2="699.9225" y1="3934.4678" y2="3934.4678"/><text fill="#000000" font-family="'Segoe UI'" font-size="24.375" lengthAdjust="spacing" textLength="131.7178" x="417.5363" y="3909.9692">true / false</text></g><g class="message" data-participant-1="prod" data-participant-2="rb"><polygon fill="#000000" points="679.2975,4011.5918,698.0475,4019.0918,679.2975,4026.5918,686.7975,4019.0918" style="stroke:#000000;stroke-width:1.875;"/><line style="stroke:#000000;stroke-width:1.875;" x1="264.993" x2="690.5475" y1="4019.0918" y2="4019.0918"/><text fill="#000000" font-family="'Segoe UI'" font-size="24.375" lengthAdjust="spacing" textLength="271.3504" x="347.72" y="3994.5932">ring_buffer::capacity()</text></g><g class="message" data-participant-1="rb" data-participant-2="prod"><polygon fill="#000000" points="285.618,4096.2158,266.868,4103.7158,285.618,4111.2158,278.118,4103.7158" style="stroke:#000000;stroke-width:1.875;"/><line style="stroke:#000000;stroke-width:1.875;stroke-dasharray:3.75,3.75;" x1="274.368" x2="699.9225" y1="4103.7158" y2="4103.7158"/><text fill="#000000" font-family="'Segoe UI'" font-size="24.375" lengthAdjust="spacing" textLength="178.7183" x="394.0361" y="4079.2172">64 (constexpr)</text></g><rect fill="#FFFFFF" height="5.625" style="stroke:#FFFFFF;stroke-width:1.875;" width="1210.546" x="56.8748" y="4172.2778"/><line style="stroke:#000000;stroke-width:0.9375;" x1="56.8748" x2="1267.4208" y1="4172.2778" y2="4172.2778"/><line style="stroke:#000000;stroke-width:0.9375;" x1="56.8748" x2="1267.4208" y1="4177.9028" y2="4177.9028"/><rect fill="#FFFFFF" height="73.374" style="stroke:#000000;stroke-width:1.875;" width="474.624" x="424.8358" y="4137.4658"/><text fill="#000000" font-family="'Segoe UI'" font-size="24.375" font-weight="bold" lengthAdjust="spacing" textLength="409.888" x="451.0858" y="4182.5912">Reset (consumer thread only)</text><g class="message" data-participant-1="cons" data-participant-2="rb"><polygon fill="#000000" points="731.7975,4291.7139,713.0475,4299.2139,731.7975,4306.7139,724.2975,4299.2139" style="stroke:#000000;stroke-width:1.875;"/><line style="stroke:#000000;stroke-width:1.875;" x1="720.5475" x2="1061.5581" y1="4299.2139" y2="4299.2139"/><text fill="#000000" font-family="'Segoe UI'" font-size="24.375" lengthAdjust="spacing" textLength="114.5316" x="830.037" y="4274.7153">rb.reset()</text></g><path d="M338.1248,4323.5889 L338.1248,4428.5889 L681.2498,4428.5889 L681.2498,4342.3389 L662.4998,4323.5889 L338.1248,4323.5889" fill="#FFFFFF" style="stroke:#000000;stroke-width:1.875;"/><path d="M662.4998,4323.5889 L662.4998,4342.3389 L681.2498,4342.3389 L662.4998,4323.5889" fill="#FFFFFF" style="stroke:#000000;stroke-width:1.875;"/><text fill="#000000" font-family="'Segoe UI'" font-size="24.375" lengthAdjust="spacing" textLength="275.3732" x="364.3748" y="4370.5893">tail_ = head_ (release)</text><text fill="#000000" font-family="'Segoe UI'" font-size="24.375" lengthAdjust="spacing" textLength="224.2667" x="364.3748" y="4398.9633">Discards all items.</text><g class="message" data-participant-1="rb" data-participant-2="cons"><polygon fill="#000000" points="1040.9331,4442.2119,1059.6831,4449.7119,1040.9331,4457.2119,1048.4331,4449.7119" style="stroke:#000000;stroke-width:1.875;"/><line style="stroke:#000000;stroke-width:1.875;stroke-dasharray:3.75,3.75;" x1="701.7975" x2="1052.1831" y1="4449.7119" y2="4449.7119"/></g><!--SRC=[hLRRRjj647tdLqmS520HcQaTnOZKAa3hI6Y0rdMj17re0s6r74aBhNQPlRXMd_gK3mZwXVcIpYufcR8e8GOA0GB1dTivPtQ6Jzm2LmYbP48bJuJYqXS84uEgG3CfZPu9YNdfLpAnIw5APjWAfemlvqPxLLnggGqy7Gt3hs5Hu8nvwKPQkIj6yK_6EDS8xz-UD8miVlIeEFw2rh8v_Y35N057vT0aYHDE8jm8DOSV_Mo61jBnzVWoWo___0i_Qxuy7Hb4k3Qwy9nEdyEbLjQlWY-5TuABaYa79rkBTmk3hFXJfPQ2IinEW5aWX0Ky7RuQlHpsTlsqPRBVDsGxcSO2ld_NkNeTdSoKN5wCpaTlTbqs5RIdudHAL8r6huPdIQAqGz2tP1nAwCJJ1E0dyaDpgfLSTq1f-7LCN9P13SNNEHcyjsZ1kgBVPqwl18U_X5i0un-zCFZSe4HcaQXTKKM2s-0ol6FSoJLeXJ5PP8Ef8hxWcvfTh3bFA1U4uf9aC8YSEkEv4rh1O43K1hvENmSA-j0anmlbpYuchWCNtN3yNONGYFd2WPxH6wfaGHacC81lE-2OaF6HNhyDaYicWHd3rdsuUdO6Lcfd8RNK3aAXpCZiafMC2qS65rtmbasfGQBPRirRmKjl5qIMSBYoBSLFSsVMas2KTi-pX3WIjooKVAzk2uIpdBgF5JMKb0XdTrY4yivpecjLUd9HUES8MngCdfrby0saX2aOlQZTA_XfhLlLrNo1V1bmmCnBISRT77utL7w404u3SJtv8mJzGASlSnWxRN3BQioQrYsGtPD2W4u9TKJV1v8J8KL5Ty-7mWji83_2KQ_Npj6ZejSj5Hkkr6LJd7Wz7YRMPHeiZgWZSROlJitkhZXDsGxmZglIhIkLRiYmudrGqHvYVgX4gMZVT70Q7Xeg7v4WOgn8wco2TyyValHu9ew4x_LQDAWdQeJxlv5Vyp6eEVxowNFDvm4MPapQq2l19ZjSPBWBiSRTYKa9jnUTTfIqmCYE1aCrEFAyESaEDlKjarzzywjBFQXn1dZrDTqEgPXxCr6BWpUm1Xwyst1V8oxZLDT-4onimJQPIZ9zb4QXgssZdpTvw8WLjqpna2a2pB-gURKiqBeM4BzvDBHnIZGix0wQv4YPjcicQvt7LloDQVQ0BUuDVOq49ZpzfrQnqYwqo_RPY9rqxz-ebxuE8kdxAOC8UocFkToll7wVrmjfBm2rOHhIExmhJHO9kK6BhdhRMBSG5dtMggq93kaZBrzZBLKJ2E2Di9oPeheVSTosI_j0nFy0]--></g></svg>