<svg xmlns="http://www.w3.org/2000/svg" xmlns:xlink="http://www.w3.org/1999/xlink" contentStyleType="text/css" data-diagram-type="SEQUENCE" height="2791.7961px" preserveAspectRatio="none" style="width:2250px;height:2791px;background:#FEFEFE;" version="1.1" viewBox="0 0 2250 2791" width="2250.763px" zoomAndPan="magnify"><title>Thread Lifecycle - Create / Run / Join</title><defs/><g><rect fill="#FEFEFE" height="2791.7961" style="stroke:none;stroke-width:1.6345;" width="2250.763" x="0" y="0"/><text fill="#000000" font-family="'Segoe UI'" font-size="35.9599" font-weight="bold" lengthAdjust="spacing" textLength="738.4071" x="754.1619" y="70.9732">Thread Lifecycle - Create / Run / Join</text><g><title>osal..thread</title><rect fill="#FFFFFF" height="516.4" style="stroke:#000000;stroke-width:1.6345;" width="16.3454" x="589.5438" y="783.2772"/></g><g><title>osal..thread</title><rect fill="#FFFFFF" height="694.9992" style="stroke:#000000;stroke-width:1.6345;" width="16.3454" x="589.5438" y="1853.6717"/></g><g><title>OS Kernel</title><rect fill="#ECEFF1" height="558.8981" style="stroke:#000000;stroke-width:1.6345;" width="16.3454" x="1899.6491" y="1004.5915"/></g><g><title>Application</title><rect fill="#000000" fill-opacity="0.00000" height="2475.755" width="13.0763" x="230.9903" y="210.6515"/><line style="stroke:#000000;stroke-width:1.6345;stroke-dasharray:8.1727,8.1727;" x1="237.0084" x2="237.0084" y1="210.6515" y2="2686.4065"/></g><g><title>osal..thread</title><rect fill="#000000" fill-opacity="0.00000" height="2475.755" width="13.0763" x="591.1783" y="210.6515"/><line style="stroke:#000000;stroke-width:1.6345;stroke-dasharray:8.1727,8.1727;" x1="596.113" x2="596.113" y1="210.6515" y2="2686.4065"/></g><g><title>extern C bridge</title><rect fill="#000000" fill-opacity="0.00000" height="2475.755" width="13.0763" x="1132.3566" y="210.6515"/><line style="stroke:#000000;stroke-width:1.6345;stroke-dasharray:8.1727,8.1727;" x1="1137.7319" x2="1137.7319" y1="210.6515" y2="2686.4065"/></g><g><title>Backend .cpp</title><rect fill="#000000" fill-opacity="0.00000" height="2475.755" width="13.0763" x="1385.2109" y="210.6515"/><line style="stroke:#000000;stroke-width:1.6345;stroke-dasharray:8.1727,8.1727;" x1="1390.1424" x2="1390.1424" y1="210.6515" y2="2686.4065"/></g><g><title>OS Kernel</title><rect fill="#000000" fill-opacity="0.00000" height="2475.755" width="13.0763" x="1901.2837" y="210.6515"/><line style="stroke:#000000;stroke-width:1.6345;stroke-dasharray:8.1727,8.1727;" x1="1907.5493" x2="1907.5493" y1="210.6515" y2="2686.4065"/></g><g class="participant participant-head" data-participant="app"><rect fill="#E8F5E9" height="73.7714" rx="4.0864" ry="4.0864" style="stroke:#000000;stroke-width:1.6345;" width="167.7631" x="153.6469" y="135.2455"/><text fill="#000000" font-family="'Segoe UI'" font-size="21.249" lengthAdjust="spacing" textLength="118.7269" x="178.165" y="179.4875">Application</text></g><g class="participant participant-tail" data-participant="app"><rect fill="#E8F5E9" height="73.7714" rx="4.0864" ry="4.0864" style="stroke:#000000;stroke-width:1.6345;" width="167.7631" x="153.6469" y="2684.772"/><text fill="#000000" font-family="'Segoe UI'" font-size="21.249" lengthAdjust="spacing" textLength="118.7269" x="178.165" y="2729.0139">Application</text></g><g class="participant participant-head" data-participant="t"><rect fill="#E3F2FD" height="73.7714" rx="4.0864" ry="4.0864" style="stroke:#000000;stroke-width:1.6345;" width="176.4682" x="509.4824" y="135.2455"/><text fill="#000000" font-family="'Segoe UI'" font-size="21.249" lengthAdjust="spacing" textLength="127.4319" x="534.0005" y="179.4875">osal::thread</text></g><g class="participant participant-tail" data-participant="t"><rect fill="#E3F2FD" height="73.7714" rx="4.0864" ry="4.0864" style="stroke:#000000;stroke-width:1.6345;" width="176.4682" x="509.4824" y="2684.772"/><text fill="#000000" font-family="'Segoe UI'" font-size="21.249" lengthAdjust="spacing" textLength="127.4319" x="534.0005" y="2729.0139">osal::thread</text></g><g class="participant participant-head" data-participant="bridge"><rect fill="#FFF3E0" height="98.5066" rx="4.0864" ry="4.0864" style="stroke:#000000;stroke-width:1.6345;" width="214.816" x="1031.4868" y="110.5103"/><text fill="#000000" font-family="'Segoe UI'" font-size="21.249" lengthAdjust="spacing" textLength="165.7798" x="1056.0049" y="154.7522">extern C bridge</text><text fill="#000000" font-family="'Segoe UI'" font-size="21.249" lengthAdjust="spacing" textLength="161.5674" x="1058.1111" y="179.4875">osal_thread_*()</text></g><g class="participant participant-tail" data-participant="bridge"><rect fill="#FFF3E0" height="98.5066" rx="4.0864" ry="4.0864" style="stroke:#000000;stroke-width:1.6345;" width="214.816" x="1031.4868" y="2684.772"/><text fill="#000000" font-family="'Segoe UI'" font-size="21.249" lengthAdjust="spacing" textLength="165.7798" x="1056.0049" y="2729.0139">extern C bridge</text><text fill="#000000" font-family="'Segoe UI'" font-size="21.249" lengthAdjust="spacing" textLength="161.5674" x="1058.1111" y="2753.7491">osal_thread_*()</text></g><g class="participant participant-head" data-participant="be"><rect fill="#FFEBEE" height="73.7714" rx="4.0864" ry="4.0864" style="stroke:#000000;stroke-width:1.6345;" width="192.82" x="1295.339" y="135.2455"/><text fill="#000000" font-family="'Segoe UI'" font-size="21.249" lengthAdjust="spacing" textLength="143.7837" x="1319.8572" y="179.4875">Backend .cpp</text></g><g class="participant participant-tail" data-participant="be"><rect fill="#FFEBEE" height="73.7714" rx="4.0864" ry="4.0864" style="stroke:#000000;stroke-width:1.6345;" width="192.82" x="1295.339" y="2684.772"/><text fill="#000000" font-family="'Segoe UI'" font-size="21.249" lengthAdjust="spacing" textLength="143.7837" x="1319.8572" y="2729.0139">Backend .cpp</text></g><g class="participant participant-head" data-participant="os"><rect fill="#ECEFF1" height="73.7714" rx="4.0864" ry="4.0864" style="stroke:#000000;stroke-width:1.6345;" width="154.192" x="1830.7259" y="135.2455"/><text fill="#000000" font-family="'Segoe UI'" font-size="21.249" lengthAdjust="spacing" textLength="105.1557" x="1855.244" y="179.4875">OS Kernel</text></g><g class="participant participant-tail" data-participant="os"><rect fill="#ECEFF1" height="73.7714" rx="4.0864" ry="4.0864" style="stroke:#000000;stroke-width:1.6345;" width="154.192" x="1830.7259" y="2684.772"/><text fill="#000000" font-family="'Segoe UI'" font-size="21.249" lengthAdjust="spacing" textLength="105.1557" x="1855.244" y="2729.0139">OS Kernel</text></g><g><title>osal..thread</title><rect fill="#FFFFFF" height="516.4" style="stroke:#000000;stroke-width:1.6345;" width="16.3454" x="589.5438" y="783.2772"/></g><g><title>osal..thread</title><rect fill="#FFFFFF" height="694.9992" style="stroke:#000000;stroke-width:1.6345;" width="16.3454" x="589.5438" y="1853.6717"/></g><g><title>OS Kernel</title><rect fill="#ECEFF1" height="558.8981" style="stroke:#000000;stroke-width:1.6345;" width="16.3454" x="1899.6491" y="1004.5915"/></g><rect fill="#FFFFFF" height="4.9036" style="stroke:#FFFFFF;stroke-width:1.6345;" width="2232.02" x="8.1727" y="273.6898"/><line style="stroke:#000000;stroke-width:0.8173;" x1="8.1727" x2="2240.1928" y1="273.6898" y2="273.6898"/><line style="stroke:#000000;stroke-width:0.8173;" x1="8.1727" x2="2240.1928" y1="278.5935" y2="278.5935"/><rect fill="#FFFFFF" height="63.9642" style="stroke:#000000;stroke-width:1.6345;" width="220.6056" x="1013.8799" y="243.3423"/><text fill="#000000" font-family="'Segoe UI'" font-size="21.249" font-weight="bold" lengthAdjust="spacing" textLength="164.1716" x="1036.7635" y="282.6806">Configuration</text><g class="message" data-participant-1="app" data-participant-2="app"><line style="stroke:#000000;stroke-width:1.6345;" x1="237.5284" x2="306.1791" y1="384.347" y2="384.347"/><line style="stroke:#000000;stroke-width:1.6345;" x1="306.1791" x2="306.1791" y1="384.347" y2="405.596"/><line style="stroke:#000000;stroke-width:1.6345;" x1="239.163" x2="306.1791" y1="405.596" y2="405.596"/><polygon fill="#000000" points="255.5084,399.0579,239.163,405.596,255.5084,412.1342,248.9702,405.596" style="stroke:#000000;stroke-width:1.6345;"/><text fill="#000000" font-family="'Segoe UI'" font-size="21.249" lengthAdjust="spacing" textLength="212.2102" x="262.0465" y="362.9902">thread_config cfg{}</text></g><path d="M245.1812,426.8451 L245.1812,616.4518 L660.3546,616.4518 L660.3546,443.1905 L644.0092,426.8451 L245.1812,426.8451" fill="#FFFFFF" style="stroke:#000000;stroke-width:1.6345;"/><path d="M644.0092,426.8451 L644.0092,443.1905 L660.3546,443.1905 L644.0092,426.8451" fill="#FFFFFF" style="stroke:#000000;stroke-width:1.6345;"/><text fill="#000000" font-family="'Segoe UI'" font-size="21.249" lengthAdjust="spacing" textLength="222.6895" x="268.0647" y="467.8179">cfg.entry = my_task;</text><text fill="#000000" font-family="'Segoe UI'" font-size="21.249" lengthAdjust="spacing" textLength="223.6648" x="268.0647" y="492.5531">cfg.arg   = &amp;context;</text><text fill="#000000" font-family="'Segoe UI'" font-size="21.249" lengthAdjust="spacing" textLength="259.6678" x="268.0647" y="517.2883">cfg.stack = static_stack;</text><text fill="#000000" font-family="'Segoe UI'" font-size="21.249" lengthAdjust="spacing" textLength="257.5304" x="268.0647" y="542.0235">cfg.stack_bytes = 4096;</text><text fill="#000000" font-family="'Segoe UI'" font-size="21.249" lengthAdjust="spacing" textLength="354.8319" x="268.0647" y="566.7587">cfg.priority = PRIORITY_NORMAL;</text><text fill="#000000" font-family="'Segoe UI'" font-size="21.249" lengthAdjust="spacing" textLength="230.9172" x="268.0647" y="591.4939">cfg.name = "worker";</text><rect fill="#FFFFFF" height="4.9036" style="stroke:#FFFFFF;stroke-width:1.6345;" width="2232.02" x="8.1727" y="672.62"/><line style="stroke:#000000;stroke-width:0.8173;" x1="8.1727" x2="2240.1928" y1="672.62" y2="672.62"/><line style="stroke:#000000;stroke-width:0.8173;" x1="8.1727" x2="2240.1928" y1="677.5236" y2="677.5236"/><rect fill="#FFFFFF" height="63.9642" style="stroke:#000000;stroke-width:1.6345;" width="135.8273" x="1056.2691" y="642.2725"/><text fill="#000000" font-family="'Segoe UI'" font-size="21.249" font-weight="bold" lengthAdjust="spacing" textLength="79.3934" x="1079.1526" y="681.6108">Create</text><g class="message" data-participant-1="app" data-participant-2="t"><polygon fill="#000000" points="569.9293,776.739,586.2747,783.2772,569.9293,789.8153,576.4674,783.2772" style="stroke:#000000;stroke-width:1.6345;"/><line style="stroke:#000000;stroke-width:1.6345;" x1="237.5284" x2="579.7365" y1="783.2772" y2="783.2772"/><text fill="#000000" font-family="'Segoe UI'" font-size="21.249" lengthAdjust="spacing" textLength="132.2358" x="347.4182" y="761.9204">t.create(cfg)</text></g><g class="message" data-participant-1="t" data-participant-2="bridge"><polygon fill="#000000" points="1119.2803,850.5104,1135.6257,857.0486,1119.2803,863.5868,1125.8185,857.0486" style="stroke:#000000;stroke-width:1.6345;"/><line style="stroke:#000000;stroke-width:1.6345;" x1="605.8892" x2="1129.0875" y1="857.0486" y2="857.0486"/><text fill="#000000" font-family="'Segoe UI'" font-size="21.249" lengthAdjust="spacing" textLength="352.2484" x="696.2678" y="835.6918">osal_thread_create(&amp;handle_, ...)</text></g><g class="message" data-participant-1="bridge" data-participant-2="be"><polygon fill="#000000" points="1372.1345,924.2819,1388.48,930.82,1372.1345,937.3582,1378.6727,930.82" style="stroke:#000000;stroke-width:1.6345;"/><line style="stroke:#000000;stroke-width:1.6345;" x1="1138.8948" x2="1381.9418" y1="930.82" y2="930.82"/><text fill="#000000" font-family="'Segoe UI'" font-size="21.249" lengthAdjust="spacing" textLength="168.3633" x="1181.1403" y="909.4633">implementation</text></g><g class="message" data-participant-1="be" data-participant-2="os"><polygon fill="#000000" points="1880.0346,998.0533,1896.3801,1004.5915,1880.0346,1011.1296,1886.5728,1004.5915" style="stroke:#000000;stroke-width:1.6345;"/><line style="stroke:#000000;stroke-width:1.6345;" x1="1391.749" x2="1889.8419" y1="1004.5915" y2="1004.5915"/><text fill="#000000" font-family="'Segoe UI'" font-size="21.249" lengthAdjust="spacing" textLength="450.6912" x="1420.3535" y="983.2347">pthread_create() / xTaskCreateStatic() / ...</text></g><g class="message" data-participant-1="os" data-participant-2="be"><polygon fill="#000000" points="1409.729,1071.8247,1393.3836,1078.3629,1409.729,1084.9011,1403.1908,1078.3629" style="stroke:#000000;stroke-width:1.6345;"/><line style="stroke:#000000;stroke-width:1.6345;stroke-dasharray:3.2691,3.2691;" x1="1399.9217" x2="1898.0146" y1="1078.3629" y2="1078.3629"/><text fill="#000000" font-family="'Segoe UI'" font-size="21.249" lengthAdjust="spacing" textLength="83.1182" x="1604.14" y="1057.0061">success</text></g><g class="message" data-participant-1="be" data-participant-2="bridge"><polygon fill="#000000" points="1156.8747,1145.5962,1140.5293,1152.1343,1156.8747,1158.6725,1150.3366,1152.1343" style="stroke:#000000;stroke-width:1.6345;"/><line style="stroke:#000000;stroke-width:1.6345;stroke-dasharray:3.2691,3.2691;" x1="1147.0675" x2="1390.1145" y1="1152.1343" y2="1152.1343"/><text fill="#000000" font-family="'Segoe UI'" font-size="21.249" lengthAdjust="spacing" textLength="112.927" x="1208.8584" y="1130.7776">result{ok}</text></g><g class="message" data-participant-1="bridge" data-participant-2="t"><polygon fill="#000000" points="623.8691,1219.3676,607.5237,1225.9058,623.8691,1232.4439,617.331,1225.9058" style="stroke:#000000;stroke-width:1.6345;"/><line style="stroke:#000000;stroke-width:1.6345;stroke-dasharray:3.2691,3.2691;" x1="614.0619" x2="1137.2603" y1="1225.9058" y2="1225.9058"/><text fill="#000000" font-family="'Segoe UI'" font-size="21.249" lengthAdjust="spacing" textLength="112.927" x="815.9285" y="1204.549">result{ok}</text></g><g class="message" data-participant-1="t" data-participant-2="app"><polygon fill="#000000" points="255.5084,1293.139,239.163,1299.6772,255.5084,1306.2154,248.9702,1299.6772" style="stroke:#000000;stroke-width:1.6345;"/><line style="stroke:#000000;stroke-width:1.6345;stroke-dasharray:3.2691,3.2691;" x1="245.7011" x2="596.0819" y1="1299.6772" y2="1299.6772"/><text fill="#000000" font-family="'Segoe UI'" font-size="21.249" lengthAdjust="spacing" textLength="286.6337" x="274.3056" y="1278.3204">result{ok}, valid() == true</text></g><path d="M1708.0954,1320.9262 L1708.0954,1387.9424 L2105.2888,1387.9424 L2105.2888,1337.2717 L2088.9434,1320.9262 L1708.0954,1320.9262" fill="#FFFFFF" style="stroke:#000000;stroke-width:1.6345;"/><path d="M2088.9434,1320.9262 L2088.9434,1337.2717 L2105.2888,1337.2717 L2088.9434,1320.9262" fill="#FFFFFF" style="stroke:#000000;stroke-width:1.6345;"/><text fill="#000000" font-family="'Segoe UI'" font-size="21.249" lengthAdjust="spacing" textLength="336.7785" x="1730.979" y="1361.8991">Thread running asynchronously</text><rect fill="#FFFFFF" height="4.9036" style="stroke:#FFFFFF;stroke-width:1.6345;" width="2232.02" x="8.1727" y="1443.0252"/><line style="stroke:#000000;stroke-width:0.8173;" x1="8.1727" x2="2240.1928" y1="1443.0252" y2="1443.0252"/><line style="stroke:#000000;stroke-width:0.8173;" x1="8.1727" x2="2240.1928" y1="1447.9288" y2="1447.9288"/><rect fill="#FFFFFF" height="63.9642" style="stroke:#000000;stroke-width:1.6345;" width="255.3635" x="996.501" y="1412.6776"/><text fill="#000000" font-family="'Segoe UI'" font-size="21.249" font-weight="bold" lengthAdjust="spacing" textLength="198.9295" x="1019.3845" y="1452.016">Thread executes</text><g class="message" data-participant-1="os" data-participant-2="os"><line style="stroke:#000000;stroke-width:1.6345;" x1="1915.9945" x2="1984.6453" y1="1561.855" y2="1561.855"/><line style="stroke:#000000;stroke-width:1.6345;" x1="1984.6453" x2="1984.6453" y1="1561.855" y2="1583.1041"/><line style="stroke:#000000;stroke-width:1.6345;" x1="1907.8218" x2="1984.6453" y1="1583.1041" y2="1583.1041"/><polygon fill="#000000" points="1924.1673,1576.5659,1907.8218,1583.1041,1924.1673,1589.6422,1917.6291,1583.1041" style="stroke:#000000;stroke-width:1.6345;"/><text fill="#000000" font-family="'Segoe UI'" font-size="21.249" lengthAdjust="spacing" textLength="186.8213" x="1940.5127" y="1540.4983">cfg.entry(cfg.arg)</text></g><path d="M1915.6821,1596.1804 L1915.6821,1687.7147 L2177.2087,1687.7147 L2177.2087,1612.5258 L2160.8632,1596.1804 L1915.6821,1596.1804" fill="#FFFFFF" style="stroke:#000000;stroke-width:1.6345;"/><path d="M2160.8632,1596.1804 L2160.8632,1612.5258 L2177.2087,1612.5258 L2160.8632,1596.1804" fill="#FFFFFF" style="stroke:#000000;stroke-width:1.6345;"/><text fill="#000000" font-family="'Segoe UI'" font-size="21.249" lengthAdjust="spacing" textLength="202.2393" x="1938.5657" y="1637.1533">my_task(&amp;context)</text><text fill="#000000" font-family="'Segoe UI'" font-size="21.249" lengthAdjust="spacing" textLength="200.1331" x="1938.5657" y="1661.8885">runs to completion</text><rect fill="#FFFFFF" height="4.9036" style="stroke:#FFFFFF;stroke-width:1.6345;" width="2232.02" x="8.1727" y="1743.0145"/><line style="stroke:#000000;stroke-width:0.8173;" x1="8.1727" x2="2240.1928" y1="1743.0145" y2="1743.0145"/><line style="stroke:#000000;stroke-width:0.8173;" x1="8.1727" x2="2240.1928" y1="1747.9182" y2="1747.9182"/><rect fill="#FFFFFF" height="63.9642" style="stroke:#000000;stroke-width:1.6345;" width="101.3495" x="1073.508" y="1712.667"/><text fill="#000000" font-family="'Segoe UI'" font-size="21.249" font-weight="bold" lengthAdjust="spacing" textLength="44.9156" x="1096.3915" y="1752.0053">Join</text><g class="message" data-participant-1="app" data-participant-2="t"><polygon fill="#000000" points="569.9293,1847.1335,586.2747,1853.6717,569.9293,1860.2099,576.4674,1853.6717" style="stroke:#000000;stroke-width:1.6345;"/><line style="stroke:#000000;stroke-width:1.6345;" x1="237.5284" x2="579.7365" y1="1853.6717" y2="1853.6717"/><text fill="#000000" font-family="'Segoe UI'" font-size="21.249" lengthAdjust="spacing" textLength="69.9413" x="378.5654" y="1832.3149">t.join()</text></g><g class="message" data-participant-1="t" data-participant-2="bridge"><polygon fill="#000000" points="1119.2803,1920.905,1135.6257,1927.4431,1119.2803,1933.9813,1125.8185,1927.4431" style="stroke:#000000;stroke-width:1.6345;"/><line style="stroke:#000000;stroke-width:1.6345;" x1="605.8892" x2="1129.0875" y1="1927.4431" y2="1927.4431"/><text fill="#000000" font-family="'Segoe UI'" font-size="21.249" lengthAdjust="spacing" textLength="467.624" x="638.58" y="1906.0863">osal_thread_join(&amp;handle_, WAIT_FOREVER)</text></g><g class="message" data-participant-1="bridge" data-participant-2="be"><polygon fill="#000000" points="1372.1345,1994.6764,1388.48,2001.2146,1372.1345,2007.7527,1378.6727,2001.2146" style="stroke:#000000;stroke-width:1.6345;"/><line style="stroke:#000000;stroke-width:1.6345;" x1="1138.8948" x2="1381.9418" y1="2001.2146" y2="2001.2146"/><text fill="#000000" font-family="'Segoe UI'" font-size="21.249" lengthAdjust="spacing" textLength="168.3633" x="1181.1403" y="1979.8578">implementation</text></g><g class="message" data-participant-1="be" data-participant-2="os"><polygon fill="#000000" points="1888.2074,2068.4478,1904.5528,2074.986,1888.2074,2081.5242,1894.7455,2074.986" style="stroke:#000000;stroke-width:1.6345;"/><line style="stroke:#000000;stroke-width:1.6345;" x1="1391.749" x2="1898.0146" y1="2074.986" y2="2074.986"/><text fill="#000000" font-family="'Segoe UI'" font-size="21.249" lengthAdjust="spacing" textLength="400.6709" x="1449.45" y="2053.6292">pthread_join() / xTaskNotifyWait() / ...</text></g><path d="M1915.6821,2096.235 L1915.6821,2163.2512 L2231.1485,2163.2512 L2231.1485,2112.5804 L2214.8031,2096.235 L1915.6821,2096.235" fill="#FFFFFF" style="stroke:#000000;stroke-width:1.6345;"/><path d="M2214.8031,2096.235 L2214.8031,2112.5804 L2231.1485,2112.5804 L2214.8031,2096.235" fill="#FFFFFF" style="stroke:#000000;stroke-width:1.6345;"/><text fill="#000000" font-family="'Segoe UI'" font-size="21.249" lengthAdjust="spacing" textLength="255.8599" x="1938.5657" y="2137.2079">blocks until thread exits</text><g class="message" data-participant-1="os" data-participant-2="be"><polygon fill="#000000" points="1409.729,2225.7979,1393.3836,2232.3361,1409.729,2238.8743,1403.1908,2232.3361" style="stroke:#000000;stroke-width:1.6345;"/><line style="stroke:#000000;stroke-width:1.6345;stroke-dasharray:3.2691,3.2691;" x1="1399.9217" x2="1906.1873" y1="2232.3361" y2="2232.3361"/><text fill="#000000" font-family="'Segoe UI'" font-size="21.249" lengthAdjust="spacing" textLength="83.1182" x="1608.2264" y="2210.9793">success</text></g><g class="message" data-participant-1="be" data-participant-2="bridge"><polygon fill="#000000" points="1156.8747,2299.5694,1140.5293,2306.1075,1156.8747,2312.6457,1150.3366,2306.1075" style="stroke:#000000;stroke-width:1.6345;"/><line style="stroke:#000000;stroke-width:1.6345;stroke-dasharray:3.2691,3.2691;" x1="1147.0675" x2="1390.1145" y1="2306.1075" y2="2306.1075"/><text fill="#000000" font-family="'Segoe UI'" font-size="21.249" lengthAdjust="spacing" textLength="112.927" x="1208.8584" y="2284.7508">result{ok}</text></g><g class="message" data-participant-1="bridge" data-participant-2="t"><polygon fill="#000000" points="623.8691,2373.3408,607.5237,2379.879,623.8691,2386.4171,617.331,2379.879" style="stroke:#000000;stroke-width:1.6345;"/><line style="stroke:#000000;stroke-width:1.6345;stroke-dasharray:3.2691,3.2691;" x1="614.0619" x2="1137.2603" y1="2379.879" y2="2379.879"/><text fill="#000000" font-family="'Segoe UI'" font-size="21.249" lengthAdjust="spacing" textLength="112.927" x="815.9285" y="2358.5222">result{ok}</text></g><g class="message" data-participant-1="t" data-participant-2="t"><line style="stroke:#000000;stroke-width:1.6345;" x1="605.8892" x2="674.5399" y1="2453.6504" y2="2453.6504"/><line style="stroke:#000000;stroke-width:1.6345;" x1="674.5399" x2="674.5399" y1="2453.6504" y2="2474.8994"/><line style="stroke:#000000;stroke-width:1.6345;" x1="607.5237" x2="674.5399" y1="2474.8994" y2="2474.8994"/><polygon fill="#000000" points="623.8691,2468.3613,607.5237,2474.8994,623.8691,2481.4376,617.331,2474.8994" style="stroke:#000000;stroke-width:1.6345;"/><text fill="#000000" font-family="'Segoe UI'" font-size="21.249" lengthAdjust="spacing" textLength="143.3791" x="630.4073" y="2432.2936">valid_ = false</text></g><g class="message" data-participant-1="t" data-participant-2="app"><polygon fill="#000000" points="255.5084,2542.1327,239.163,2548.6709,255.5084,2555.209,248.9702,2548.6709" style="stroke:#000000;stroke-width:1.6345;"/><line style="stroke:#000000;stroke-width:1.6345;stroke-dasharray:3.2691,3.2691;" x1="245.7011" x2="596.0819" y1="2548.6709" y2="2548.6709"/><text fill="#000000" font-family="'Segoe UI'" font-size="21.249" lengthAdjust="spacing" textLength="112.927" x="361.1589" y="2527.3141">result{ok}</text></g><path d="M16.3454,2569.9199 L16.3454,2661.4542 L459.306,2661.4542 L459.306,2586.2653 L442.9606,2569.9199 L16.3454,2569.9199" fill="#FFFFFF" style="stroke:#000000;stroke-width:1.6345;"/><path d="M442.9606,2569.9199 L442.9606,2586.2653 L459.306,2586.2653 L442.9606,2569.9199" fill="#FFFFFF" style="stroke:#000000;stroke-width:1.6345;"/><text fill="#000000" font-family="'Segoe UI'" font-size="21.249" lengthAdjust="spacing" textLength="246.4286" x="39.229" y="2610.8928">Thread handle cleared.</text><text fill="#000000" font-family="'Segoe UI'" font-size="21.249" lengthAdjust="spacing" textLength="384.0701" x="39.229" y="2635.628">Object may be reused or destroyed.</text><!--SRC=[hLHXRzCm4FtkNt4h4chHLWO314L5saeY3TYAkW52GefSvvfwTUrWEsCHsd_dxAHTEeI44AhKfkTtvxlttcNFBt6DK2ekDTkJMgWgHyWiwXnjLbgpa0g7PRLMpAsaBhdbQvXpiIgigNG-CSfOU90cuTD1vBZWbVAfqVwSK_tU1HO6uTDfhmDo-Br2BV0CdUC57YjPQ12eFLh6lFGAuN9faUVmGIvGr8821p2XY4Tu3BDAq_SxGuqpAkYba2NN7dh7PQcau5uQtGFkW9SbF4XUfi-JLxj0uxWQZNoy8o8zuOxIf-dRNHpUK4iQ9Z2tCY_mcmw9MPENFUeFOcvpHboawL5ok5lWX0WZHc4eoh81Hs1oaYIxmEa5lAUhK4MKSTJF94dJ9uoDnp0nUY6BoiR9O3ncB4nsy2OEE8As7n5H81R5prkc3L5bPR7qO1O1no2S38baMyCOrdNckLkzRiFS5W0KVaX5F4szYJjF0r2SVgdNBFxTESlcjKT7Y6U7hrviJaehZPK-tFDnTZgTdLv-pSwdixFZ3nk43juOG- -7iIkqlTSia1HwRkPjbEuCwiEOGn7ZVIemO5nuUHrGdlc0Q5KOGLUYDk7XakjSOROFm-5mm5feI0e9SbqgMWNj8xri7az8WH6KksK6vBgRIsAjwUyYSXAZLFQkeOvuz7YmkSPLGf3VO_rklnOTBSnFixhTDjOEt3dnCTZ8VHVUXskkP4uj46dULiXoxF3IcC1Sest6QNVALbfBNP3FQYsMrcXJELL7ubi4tg2eegoaG9YXvMDhe7xhcS4zdnb7-hRMwc-yDA0OtKbBPa2OG7RaUQjufsVA3ss4rVvT_IkAzlzI-8Yza_tByUbbbavdoUTazW_wDpTlr3ytNYxgBrpwhVRtMQ3SkJ9YvQ3INgfsGubNwTr_DKKJYox8Q9yMN3dyWrd-w8tcvT1Atr06zCRb5lCX7KpdLoWyh7aTMhPOESo1tlqvEczD7K1RANy1]--></g></svg>