<svg xmlns="http://www.w3.org/2000/svg" xmlns:xlink="http://www.w3.org/1999/xlink" contentStyleType="text/css" data-diagram-type="SEQUENCE" height="3106.875px" preserveAspectRatio="none" style="width:1905px;height:3106px;background:#FEFEFE;" version="1.1" viewBox="0 0 1905 3106" width="1905px" zoomAndPan="magnify"><title>Work Queue - Submit / Execute Flow</title><defs/><g><rect fill="#FEFEFE" height="3106.875" style="stroke:none;stroke-width:1.875;" width="1905" x="0" y="0"/><text fill="#000000" font-family="'Segoe UI'" font-size="41.25" font-weight="bold" lengthAdjust="spacing" textLength="848.2031" x="526.1357" y="81.4142">Work Queue - Submit / Execute Flow</text><g><title>osal..work_queue</title><rect fill="#FFFFFF" height="349.7461" style="stroke:#000000;stroke-width:1.875;" width="18.75" x="603.2776" y="440.8887"/></g><g><title>osal..work_queue</title><rect fill="#FFFFFF" height="387.2461" style="stroke:#000000;stroke-width:1.875;" width="18.75" x="603.2776" y="986.1328"/></g><g><title>osal..work_queue</title><rect fill="#FFFFFF" height="278.2471" style="stroke:#000000;stroke-width:1.875;" width="18.75" x="603.2776" y="1458.0029"/></g><g><title>osal..work_queue</title><rect fill="#FFFFFF" height="378.1201" style="stroke:#000000;stroke-width:1.875;" width="18.75" x="603.2776" y="2574.4922"/></g><g><title>Worker Thread</title><rect fill="#FFCDD2" height="533.7451" style="stroke:#000000;stroke-width:1.875;" width="18.75" x="1440.4587" y="1736.25"/></g><g><title>App Thread</title><rect fill="#000000" fill-opacity="0.00000" height="2744.7217" width="15" x="128.6911" y="241.6406"/><line style="stroke:#000000;stroke-width:1.875;stroke-dasharray:9.375,9.375;" x1="135" x2="135" y1="241.6406" y2="2986.3623"/></g><g><title>osal..work_queue</title><rect fill="#000000" fill-opacity="0.00000" height="2744.7217" width="15" x="605.1526" y="241.6406"/><line style="stroke:#000000;stroke-width:1.875;stroke-dasharray:9.375,9.375;" x1="611.012" x2="611.012" y1="241.6406" y2="2986.3623"/></g><g><title>extern C bridge</title><rect fill="#000000" fill-opacity="0.00000" height="2744.7217" width="15" x="1036.7166" y="241.6406"/><line style="stroke:#000000;stroke-width:1.875;stroke-dasharray:9.375,9.375;" x1="1043.6224" x2="1043.6224" y1="241.6406" y2="2986.3623"/></g><g><title>Worker Thread</title><rect fill="#000000" fill-opacity="0.00000" height="2744.7217" width="15" x="1442.3337" y="241.6406"/><line style="stroke:#000000;stroke-width:1.875;stroke-dasharray:9.375,9.375;" x1="1448.9928" x2="1448.9928" y1="241.6406" y2="2986.3623"/></g><g class="participant participant-head" data-participant="app"><rect fill="#E8F5E9" height="84.624" rx="4.6875" ry="4.6875" style="stroke:#000000;stroke-width:1.875;" width="197.3822" x="37.5" y="155.1416"/><text fill="#000000" font-family="'Segoe UI'" font-size="24.375" lengthAdjust="spacing" textLength="141.1322" x="65.625" y="205.892">App Thread</text></g><g class="participant participant-tail" data-participant="app"><rect fill="#E8F5E9" height="84.624" rx="4.6875" ry="4.6875" style="stroke:#000000;stroke-width:1.875;" width="197.3822" x="37.5" y="2984.4873"/><text fill="#000000" font-family="'Segoe UI'" font-size="24.375" lengthAdjust="spacing" textLength="141.1322" x="65.625" y="3035.2377">App Thread</text></g><g class="participant participant-head" data-participant="wq"><rect fill="#E3F2FD" height="84.624" rx="4.6875" ry="4.6875" style="stroke:#000000;stroke-width:1.875;" width="269.5313" x="477.887" y="155.1416"/><text fill="#000000" font-family="'Segoe UI'" font-size="24.375" lengthAdjust="spacing" textLength="213.2813" x="506.012" y="205.892">osal::work_queue</text></g><g class="participant participant-tail" data-participant="wq"><rect fill="#E3F2FD" height="84.624" rx="4.6875" ry="4.6875" style="stroke:#000000;stroke-width:1.875;" width="269.5313" x="477.887" y="2984.4873"/><text fill="#000000" font-family="'Segoe UI'" font-size="24.375" lengthAdjust="spacing" textLength="213.2813" x="506.012" y="3035.2377">osal::work_queue</text></g><g class="participant participant-head" data-participant="bridge"><rect fill="#FFF3E0" height="112.998" rx="4.6875" ry="4.6875" style="stroke:#000000;stroke-width:1.875;" width="308.6884" x="889.8724" y="126.7676"/><text fill="#000000" font-family="'Segoe UI'" font-size="24.375" lengthAdjust="spacing" textLength="190.1678" x="949.1327" y="177.518">extern C bridge</text><text fill="#000000" font-family="'Segoe UI'" font-size="24.375" lengthAdjust="spacing" textLength="252.4384" x="917.9974" y="205.892">osal_work_queue_*()</text></g><g class="participant participant-tail" data-participant="bridge"><rect fill="#FFF3E0" height="112.998" rx="4.6875" ry="4.6875" style="stroke:#000000;stroke-width:1.875;" width="308.6884" x="889.8724" y="2984.4873"/><text fill="#000000" font-family="'Segoe UI'" font-size="24.375" lengthAdjust="spacing" textLength="190.1678" x="949.1327" y="3035.2377">extern C bridge</text><text fill="#000000" font-family="'Segoe UI'" font-size="24.375" lengthAdjust="spacing" textLength="252.4384" x="917.9974" y="3063.6118">osal_work_queue_*()</text></g><g class="participant participant-head" data-participant="worker"><rect fill="#FFEBEE" height="112.998" rx="4.6875" ry="4.6875" style="stroke:#000000;stroke-width:1.875;" width="237.9318" x="1330.8678" y="126.7676"/><text fill="#000000" font-family="'Segoe UI'" font-size="24.375" lengthAdjust="spacing" textLength="181.6818" x="1358.9928" y="177.518">Worker Thread</text><text fill="#000000" font-family="'Segoe UI'" font-size="24.375" lengthAdjust="spacing" textLength="112.9724" x="1393.3475" y="205.892">(internal)</text></g><g class="participant participant-tail" data-participant="worker"><rect fill="#FFEBEE" height="112.998" rx="4.6875" ry="4.6875" style="stroke:#000000;stroke-width:1.875;" width="237.9318" x="1330.8678" y="2984.4873"/><text fill="#000000" font-family="'Segoe UI'" font-size="24.375" lengthAdjust="spacing" textLength="181.6818" x="1358.9928" y="3035.2377">Worker Thread</text><text fill="#000000" font-family="'Segoe UI'" font-size="24.375" lengthAdjust="spacing" textLength="112.9724" x="1393.3475" y="3063.6118">(internal)</text></g><g><title>osal..work_queue</title><rect fill="#FFFFFF" height="349.7461" style="stroke:#000000;stroke-width:1.875;" width="18.75" x="603.2776" y="440.8887"/></g><g><title>osal..work_queue</title><rect fill="#FFFFFF" height="387.2461" style="stroke:#000000;stroke-width:1.875;" width="18.75" x="603.2776" y="986.1328"/></g><g><title>osal..work_queue</title><rect fill="#FFFFFF" height="278.2471" style="stroke:#000000;stroke-width:1.875;" width="18.75" x="603.2776" y="1458.0029"/></g><g><title>osal..work_queue</title><rect fill="#FFFFFF" height="378.1201" style="stroke:#000000;stroke-width:1.875;" width="18.75" x="603.2776" y="2574.4922"/></g><g><title>Worker Thread</title><rect fill="#FFCDD2" height="533.7451" style="stroke:#000000;stroke-width:1.875;" width="18.75" x="1440.4587" y="1736.25"/></g><rect fill="#FFFFFF" height="5.625" style="stroke:#FFFFFF;stroke-width:1.875;" width="1883.5995" x="9.375" y="313.9526"/><line style="stroke:#000000;stroke-width:0.9375;" x1="9.375" x2="1892.9745" y1="313.9526" y2="313.9526"/><line style="stroke:#000000;stroke-width:0.9375;" x1="9.375" x2="1892.9745" y1="319.5776" y2="319.5776"/><rect fill="#FFFFFF" height="73.374" style="stroke:#000000;stroke-width:1.875;" width="155.809" x="873.2703" y="279.1406"/><text fill="#000000" font-family="'Segoe UI'" font-size="24.375" font-weight="bold" lengthAdjust="spacing" textLength="91.073" x="899.5203" y="324.2661">Create</text><g class="message" data-participant-1="app" data-participant-2="wq"><polygon fill="#000000" points="580.7776,433.3887,599.5276,440.8887,580.7776,448.3887,588.2776,440.8887" style="stroke:#000000;stroke-width:1.875;"/><line style="stroke:#000000;stroke-width:1.875;" x1="136.1911" x2="592.0276" y1="440.8887" y2="440.8887"/><text fill="#000000" font-family="'Segoe UI'" font-size="24.375" lengthAdjust="spacing" textLength="401.4615" x="169.0036" y="416.3901">work_queue(stack, 16, "my_wq")</text></g><g class="message" data-participant-1="wq" data-participant-2="bridge"><polygon fill="#000000" points="1021.7166,518.0127,1040.4666,525.5127,1021.7166,533.0127,1029.2166,525.5127" style="stroke:#000000;stroke-width:1.875;"/><line style="stroke:#000000;stroke-width:1.875;" x1="622.0276" x2="1032.9666" y1="525.5127" y2="525.5127"/><text fill="#000000" font-family="'Segoe UI'" font-size="24.375" lengthAdjust="spacing" textLength="341.4047" x="662.4197" y="501.0141">osal_work_queue_create(...)</text></g><g class="message" data-participant-1="bridge" data-participant-2="worker"><polygon fill="#000000" points="1427.3337,602.6367,1446.0837,610.1367,1427.3337,617.6367,1434.8337,610.1367" style="stroke:#000000;stroke-width:1.875;"/><line style="stroke:#000000;stroke-width:1.875;" x1="1044.2166" x2="1438.5837" y1="610.1367" y2="610.1367"/><text fill="#000000" font-family="'Segoe UI'" font-size="24.375" lengthAdjust="spacing" textLength="258.425" x="1117.8127" y="585.6381">spawn worker thread</text></g><path d="M1458.75,634.5117 L1458.75,711.3867 L1813.125,711.3867 L1813.125,653.2617 L1794.375,634.5117 L1458.75,634.5117" fill="#FFFFFF" style="stroke:#000000;stroke-width:1.875;"/><path d="M1794.375,634.5117 L1794.375,653.2617 L1813.125,653.2617 L1794.375,634.5117" fill="#FFFFFF" style="stroke:#000000;stroke-width:1.875;"/><text fill="#000000" font-family="'Segoe UI'" font-size="24.375" lengthAdjust="spacing" textLength="285.5374" x="1485" y="681.5121">blocks on empty queue</text><g class="message" data-participant-1="wq" data-participant-2="app"><polygon fill="#000000" points="156.8161,783.1348,138.0661,790.6348,156.8161,798.1348,149.3161,790.6348" style="stroke:#000000;stroke-width:1.875;"/><line style="stroke:#000000;stroke-width:1.875;stroke-dasharray:3.75,3.75;" x1="145.5661" x2="610.7776" y1="790.6348" y2="790.6348"/><text fill="#000000" font-family="'Segoe UI'" font-size="24.375" lengthAdjust="spacing" textLength="183.7646" x="282.5395" y="766.1362">valid() == true</text></g><rect fill="#FFFFFF" height="5.625" style="stroke:#FFFFFF;stroke-width:1.875;" width="1883.5995" x="9.375" y="859.1968"/><line style="stroke:#000000;stroke-width:0.9375;" x1="9.375" x2="1892.9745" y1="859.1968" y2="859.1968"/><line style="stroke:#000000;stroke-width:0.9375;" x1="9.375" x2="1892.9745" y1="864.8218" y2="864.8218"/><rect fill="#FFFFFF" height="73.374" style="stroke:#000000;stroke-width:1.875;" width="323.4109" x="789.4693" y="824.3848"/><text fill="#000000" font-family="'Segoe UI'" font-size="24.375" font-weight="bold" lengthAdjust="spacing" textLength="258.6749" x="815.7193" y="869.5102">Submit work items</text><g class="message" data-participant-1="app" data-participant-2="wq"><polygon fill="#000000" points="580.7776,978.6328,599.5276,986.1328,580.7776,993.6328,588.2776,986.1328" style="stroke:#000000;stroke-width:1.875;"/><line style="stroke:#000000;stroke-width:1.875;" x1="136.1911" x2="592.0276" y1="986.1328" y2="986.1328"/><text fill="#000000" font-family="'Segoe UI'" font-size="24.375" lengthAdjust="spacing" textLength="306.4133" x="216.5277" y="961.6342">submit(handler_A, ctx_A)</text></g><g class="message" data-participant-1="wq" data-participant-2="bridge"><polygon fill="#000000" points="1021.7166,1063.2568,1040.4666,1070.7568,1021.7166,1078.2568,1029.2166,1070.7568" style="stroke:#000000;stroke-width:1.875;"/><line style="stroke:#000000;stroke-width:1.875;" x1="622.0276" x2="1032.9666" y1="1070.7568" y2="1070.7568"/><text fill="#000000" font-family="'Segoe UI'" font-size="24.375" lengthAdjust="spacing" textLength="347.189" x="659.5276" y="1046.2582">osal_work_queue_submit(...)</text></g><g class="message" data-participant-1="bridge" data-participant-2="bridge"><line style="stroke:#000000;stroke-width:1.875;" x1="1044.2166" x2="1122.9666" y1="1155.3809" y2="1155.3809"/><line style="stroke:#000000;stroke-width:1.875;" x1="1122.9666" x2="1122.9666" y1="1155.3809" y2="1179.7559"/><line style="stroke:#000000;stroke-width:1.875;" x1="1046.0916" x2="1122.9666" y1="1179.7559" y2="1179.7559"/><polygon fill="#000000" points="1064.8416,1172.2559,1046.0916,1179.7559,1064.8416,1187.2559,1057.3416,1179.7559" style="stroke:#000000;stroke-width:1.875;"/><text fill="#000000" font-family="'Segoe UI'" font-size="24.375" lengthAdjust="spacing" textLength="349.2719" x="1072.3416" y="1130.8823">enqueue {handler_A, ctx_A}</text></g><g class="message" data-participant-1="bridge" data-participant-2="bridge"><line style="stroke:#000000;stroke-width:1.875;" x1="1044.2166" x2="1122.9666" y1="1264.3799" y2="1264.3799"/><line style="stroke:#000000;stroke-width:1.875;" x1="1122.9666" x2="1122.9666" y1="1264.3799" y2="1288.7549"/><line style="stroke:#000000;stroke-width:1.875;" x1="1046.0916" x2="1122.9666" y1="1288.7549" y2="1288.7549"/><polygon fill="#000000" points="1064.8416,1281.2549,1046.0916,1288.7549,1064.8416,1296.2549,1057.3416,1288.7549" style="stroke:#000000;stroke-width:1.875;"/><text fill="#000000" font-family="'Segoe UI'" font-size="24.375" lengthAdjust="spacing" textLength="163.8528" x="1072.3416" y="1239.8813">signal worker</text></g><g class="message" data-participant-1="wq" data-participant-2="app"><polygon fill="#000000" points="156.8161,1365.8789,138.0661,1373.3789,156.8161,1380.8789,149.3161,1373.3789" style="stroke:#000000;stroke-width:1.875;"/><line style="stroke:#000000;stroke-width:1.875;stroke-dasharray:3.75,3.75;" x1="145.5661" x2="610.7776" y1="1373.3789" y2="1373.3789"/><text fill="#000000" font-family="'Segoe UI'" font-size="24.375" lengthAdjust="spacing" textLength="129.5398" x="309.6519" y="1348.8803">result{ok}</text></g><g class="message" data-participant-1="app" data-participant-2="wq"><polygon fill="#000000" points="580.7776,1450.5029,599.5276,1458.0029,580.7776,1465.5029,588.2776,1458.0029" style="stroke:#000000;stroke-width:1.875;"/><line style="stroke:#000000;stroke-width:1.875;" x1="136.1911" x2="592.0276" y1="1458.0029" y2="1458.0029"/><text fill="#000000" font-family="'Segoe UI'" font-size="24.375" lengthAdjust="spacing" textLength="306.5085" x="216.4801" y="1433.5043">submit(handler_B, ctx_B)</text></g><g class="message" data-participant-1="wq" data-participant-2="bridge"><polygon fill="#000000" points="1021.7166,1535.127,1040.4666,1542.627,1021.7166,1550.127,1029.2166,1542.627" style="stroke:#000000;stroke-width:1.875;"/><line style="stroke:#000000;stroke-width:1.875;" x1="622.0276" x2="1032.9666" y1="1542.627" y2="1542.627"/><text fill="#000000" font-family="'Segoe UI'" font-size="24.375" lengthAdjust="spacing" textLength="347.189" x="659.5276" y="1518.1284">osal_work_queue_submit(...)</text></g><g class="message" data-participant-1="bridge" data-participant-2="bridge"><line style="stroke:#000000;stroke-width:1.875;" x1="1044.2166" x2="1122.9666" y1="1627.251" y2="1627.251"/><line style="stroke:#000000;stroke-width:1.875;" x1="1122.9666" x2="1122.9666" y1="1627.251" y2="1651.626"/><line style="stroke:#000000;stroke-width:1.875;" x1="1046.0916" x2="1122.9666" y1="1651.626" y2="1651.626"/><polygon fill="#000000" points="1064.8416,1644.126,1046.0916,1651.626,1064.8416,1659.126,1057.3416,1651.626" style="stroke:#000000;stroke-width:1.875;"/><text fill="#000000" font-family="'Segoe UI'" font-size="24.375" lengthAdjust="spacing" textLength="349.3671" x="1072.3416" y="1602.7524">enqueue {handler_B, ctx_B}</text></g><g class="message" data-participant-1="wq" data-participant-2="app"><polygon fill="#000000" points="156.8161,1728.75,138.0661,1736.25,156.8161,1743.75,149.3161,1736.25" style="stroke:#000000;stroke-width:1.875;"/><line style="stroke:#000000;stroke-width:1.875;stroke-dasharray:3.75,3.75;" x1="145.5661" x2="610.7776" y1="1736.25" y2="1736.25"/><text fill="#000000" font-family="'Segoe UI'" font-size="24.375" lengthAdjust="spacing" textLength="129.5398" x="309.6519" y="1711.7514">result{ok}</text></g><rect fill="#FFFFFF" height="5.625" style="stroke:#FFFFFF;stroke-width:1.875;" width="1883.5995" x="9.375" y="1804.812"/><line style="stroke:#000000;stroke-width:0.9375;" x1="9.375" x2="1892.9745" y1="1804.812" y2="1804.812"/><line style="stroke:#000000;stroke-width:0.9375;" x1="9.375" x2="1892.9745" y1="1810.437" y2="1810.437"/><rect fill="#FFFFFF" height="73.374" style="stroke:#000000;stroke-width:1.875;" width="475.7071" x="713.3212" y="1770"/><text fill="#000000" font-family="'Segoe UI'" font-size="24.375" font-weight="bold" lengthAdjust="spacing" textLength="410.9711" x="739.5712" y="1815.1254">Worker executes items (FIFO)</text><g class="message" data-participant-1="worker" data-participant-2="worker"><line style="stroke:#000000;stroke-width:1.875;" x1="1459.2087" x2="1537.9587" y1="1931.748" y2="1931.748"/><line style="stroke:#000000;stroke-width:1.875;" x1="1537.9587" x2="1537.9587" y1="1931.748" y2="1956.123"/><line style="stroke:#000000;stroke-width:1.875;" x1="1461.0837" x2="1537.9587" y1="1956.123" y2="1956.123"/><polygon fill="#000000" points="1479.8337,1948.623,1461.0837,1956.123,1479.8337,1963.623,1472.3337,1956.123" style="stroke:#000000;stroke-width:1.875;"/><text fill="#000000" font-family="'Segoe UI'" font-size="24.375" lengthAdjust="spacing" textLength="349.2957" x="1487.3337" y="1907.2495">dequeue {handler_A, ctx_A}</text></g><g class="message" data-participant-1="worker" data-participant-2="worker"><line style="stroke:#000000;stroke-width:1.875;" x1="1459.2087" x2="1537.9587" y1="2040.7471" y2="2040.7471"/><line style="stroke:#000000;stroke-width:1.875;" x1="1537.9587" x2="1537.9587" y1="2040.7471" y2="2065.1221"/><line style="stroke:#000000;stroke-width:1.875;" x1="1461.0837" x2="1537.9587" y1="2065.1221" y2="2065.1221"/><polygon fill="#000000" points="1479.8337,2057.6221,1461.0837,2065.1221,1479.8337,2072.6221,1472.3337,2065.1221" style="stroke:#000000;stroke-width:1.875;"/><text fill="#000000" font-family="'Segoe UI'" font-size="24.375" lengthAdjust="spacing" textLength="207.2232" x="1487.3337" y="2016.2485">handler_A(ctx_A)</text></g><g class="message" data-participant-1="worker" data-participant-2="worker"><line style="stroke:#000000;stroke-width:1.875;" x1="1459.2087" x2="1537.9587" y1="2149.7461" y2="2149.7461"/><line style="stroke:#000000;stroke-width:1.875;" x1="1537.9587" x2="1537.9587" y1="2149.7461" y2="2174.1211"/><line style="stroke:#000000;stroke-width:1.875;" x1="1461.0837" x2="1537.9587" y1="2174.1211" y2="2174.1211"/><polygon fill="#000000" points="1479.8337,2166.6211,1461.0837,2174.1211,1479.8337,2181.6211,1472.3337,2174.1211" style="stroke:#000000;stroke-width:1.875;"/><text fill="#000000" font-family="'Segoe UI'" font-size="24.375" lengthAdjust="spacing" textLength="349.3909" x="1487.3337" y="2125.2475">dequeue {handler_B, ctx_B}</text></g><g class="message" data-participant-1="worker" data-participant-2="worker"><line style="stroke:#000000;stroke-width:1.875;" x1="1459.2087" x2="1537.9587" y1="2268.1201" y2="2268.1201"/><line style="stroke:#000000;stroke-width:1.875;" x1="1537.9587" x2="1537.9587" y1="2268.1201" y2="2292.4951"/><line style="stroke:#000000;stroke-width:1.875;" x1="1449.8337" x2="1537.9587" y1="2292.4951" y2="2292.4951"/><polygon fill="#000000" points="1468.5837,2284.9951,1449.8337,2292.4951,1468.5837,2299.9951,1461.0837,2292.4951" style="stroke:#000000;stroke-width:1.875;"/><text fill="#000000" font-family="'Segoe UI'" font-size="24.375" lengthAdjust="spacing" textLength="207.3184" x="1487.3337" y="2243.6215">handler_B(ctx_B)</text></g><path d="M1458.75,2307.4951 L1458.75,2384.3701 L1858.125,2384.3701 L1858.125,2326.2451 L1839.375,2307.4951 L1458.75,2307.4951" fill="#FFFFFF" style="stroke:#000000;stroke-width:1.875;"/><path d="M1839.375,2307.4951 L1839.375,2326.2451 L1858.125,2326.2451 L1839.375,2307.4951" fill="#FFFFFF" style="stroke:#000000;stroke-width:1.875;"/><text fill="#000000" font-family="'Segoe UI'" font-size="24.375" lengthAdjust="spacing" textLength="330.4907" x="1485" y="2354.4955">queue empty, blocks again</text><rect fill="#FFFFFF" height="5.625" style="stroke:#FFFFFF;stroke-width:1.875;" width="1883.5995" x="9.375" y="2447.5562"/><line style="stroke:#000000;stroke-width:0.9375;" x1="9.375" x2="1892.9745" y1="2447.5562" y2="2447.5562"/><line style="stroke:#000000;stroke-width:0.9375;" x1="9.375" x2="1892.9745" y1="2453.1812" y2="2453.1812"/><rect fill="#FFFFFF" height="73.374" style="stroke:#000000;stroke-width:1.875;" width="334.4678" x="783.9409" y="2412.7441"/><text fill="#000000" font-family="'Segoe UI'" font-size="24.375" font-weight="bold" lengthAdjust="spacing" textLength="269.7318" x="810.1909" y="2457.8696">Flush (synchronize)</text><g class="message" data-participant-1="app" data-participant-2="wq"><polygon fill="#000000" points="580.7776,2566.9922,599.5276,2574.4922,580.7776,2581.9922,588.2776,2574.4922" style="stroke:#000000;stroke-width:1.875;"/><line style="stroke:#000000;stroke-width:1.875;" x1="136.1911" x2="592.0276" y1="2574.4922" y2="2574.4922"/><text fill="#000000" font-family="'Segoe UI'" font-size="24.375" lengthAdjust="spacing" textLength="176.445" x="281.5118" y="2549.9936">flush(5000ms)</text></g><g class="message" data-participant-1="wq" data-participant-2="bridge"><polygon fill="#000000" points="1021.7166,2651.6162,1040.4666,2659.1162,1021.7166,2666.6162,1029.2166,2659.1162" style="stroke:#000000;stroke-width:1.875;"/><line style="stroke:#000000;stroke-width:1.875;" x1="622.0276" x2="1032.9666" y1="2659.1162" y2="2659.1162"/><text fill="#000000" font-family="'Segoe UI'" font-size="24.375" lengthAdjust="spacing" textLength="322.4451" x="671.8996" y="2634.6176">osal_work_queue_flush(...)</text></g><path d="M1051.875,2683.4912 L1051.875,2788.4912 L1376.25,2788.4912 L1376.25,2702.2412 L1357.5,2683.4912 L1051.875,2683.4912" fill="#FFFFFF" style="stroke:#000000;stroke-width:1.875;"/><path d="M1357.5,2683.4912 L1357.5,2702.2412 L1376.25,2702.2412 L1357.5,2683.4912" fill="#FFFFFF" style="stroke:#000000;stroke-width:1.875;"/><text fill="#000000" font-family="'Segoe UI'" font-size="24.375" lengthAdjust="spacing" textLength="223.2312" x="1078.125" y="2730.4916">blocks until queue</text><text fill="#000000" font-family="'Segoe UI'" font-size="24.375" lengthAdjust="spacing" textLength="255.759" x="1078.125" y="2758.8657">is drained or timeout</text><g class="message" data-participant-1="bridge" data-participant-2="wq"><polygon fill="#000000" points="642.6526,2860.4883,623.9026,2867.9883,642.6526,2875.4883,635.1526,2867.9883" style="stroke:#000000;stroke-width:1.875;"/><line style="stroke:#000000;stroke-width:1.875;stroke-dasharray:3.75,3.75;" x1="631.4026" x2="1042.3416" y1="2867.9883" y2="2867.9883"/><text fill="#000000" font-family="'Segoe UI'" font-size="24.375" lengthAdjust="spacing" textLength="129.5398" x="768.3522" y="2843.4897">result{ok}</text></g><g class="message" data-participant-1="wq" data-participant-2="app"><polygon fill="#000000" points="156.8161,2945.1123,138.0661,2952.6123,156.8161,2960.1123,149.3161,2952.6123" style="stroke:#000000;stroke-width:1.875;"/><line style="stroke:#000000;stroke-width:1.875;stroke-dasharray:3.75,3.75;" x1="145.5661" x2="610.7776" y1="2952.6123" y2="2952.6123"/><text fill="#000000" font-family="'Segoe UI'" font-size="24.375" lengthAdjust="spacing" textLength="129.5398" x="309.6519" y="2928.1137">result{ok}</text></g><!--SRC=[jLHTRzem57tthxXDNy946MlLQKDY4X-9r8TjchffBvKYaro2XMC7ssdAAlxxx2H0e6MY3rEUh9nxxZdt7ll2B313o3bbWbmm4VCYGOWKYWHLb2ivPnnxUP5nefTCv5JH36OqNgPA5YAPI2uLN8Q1-rg81EUqu2QKmdoZbj-xnrGY_BhpMY2Dgm95Z5zHQvhYYBDKG8p2e2B4CCCHVakrX1y55WXNS5_CCcRWFGHF61S68UIo9CII6HQpd0e3tYZFuUT28Kqye1geFLu6dyBRuFCXJchA1uFIqaShHr-XovK5tuJNuVGGZ4zMae09p1HBKdmGhZhQ5qVl_4v5KF-tymZ3cw1_IEAie6h4FGYVEP-2yhgohF_Qoc0S18GCXp2nG6joE2J4sRZwulGDOD_MryOkeWiVFdR1ozPHkV8wXCQ6FRgwSaKitbOreWPmh3gk6lYzNgz36f1hKYiPWCvfARP7KyacGbfcnTA50JdVGsTSnaiDKW1ckLb3nL-rjuHE_00UAMU9tx5sm2ZxCy6sKkUtMQyZ1MOmqo-iwmhXBwX8k4tdg0knUOf6RpBTS1oPti5HL31uFcwoUGsjRM8fR-Pmw5UXjXVWMIutnrR_uMXSDnl_LqVR9fjp1TlTDE75-kBfPZz-U1T-xzHhsXNiWZoPJgz9SspdAi6J8tu5lGFvpQxFOMnPFCquzfjPj-tMcpmHyxfB5V7kDlCqTI-dcr782xq0Nwz5l51Ii3_OUP7WkSFuj_r-FzDlMd9TMEtuK5nTGM2hfn26yUO20Z0DYR82CG7xJXkMeImCiOyxE9PTNBRoMXauBnj_0G00]--></g></svg>