<svg xmlns="http://www.w3.org/2000/svg" xmlns:xlink="http://www.w3.org/1999/xlink" contentStyleType="text/css" data-diagram-type="SEQUENCE" height="5416.875px" preserveAspectRatio="none" style="width:1327px;height:5416px;background:#FEFEFE;" version="1.1" viewBox="0 0 1327 5416" width="1327.5px" zoomAndPan="magnify"><title>Ring Buffer (SPSC) &#8212; Lock-Free Producer / Consumer</title><defs/><g><rect fill="#FEFEFE" height="5416.875" style="stroke:none;stroke-width:1.875;" width="1327.5" x="0" y="0"/><text fill="#000000" font-family="'Segoe UI'" font-size="41.25" font-weight="bold" lengthAdjust="spacing" textLength="1236.1707" x="43.125" y="81.4142">Ring Buffer (SPSC) &#8212; Lock-Free Producer / Consumer</text><g><title>osal..ring_buffer.T.N.</title><rect fill="#E3F2FD" height="293.9941" style="stroke:#000000;stroke-width:1.875;" width="18.75" x="691.0716" y="941.6309"/></g><g><title>osal..ring_buffer.T.N.</title><rect fill="#E3F2FD" height="84.624" style="stroke:#000000;stroke-width:1.875;" width="18.75" x="691.0716" y="1320.249"/></g><g><title>osal..ring_buffer.T.N.</title><rect fill="#E3F2FD" height="265.6201" style="stroke:#000000;stroke-width:1.875;" width="18.75" x="691.0716" y="1600.3711"/></g><g><title>osal..ring_buffer.T.N.</title><rect fill="#E3F2FD" height="84.624" style="stroke:#000000;stroke-width:1.875;" width="18.75" x="691.0716" y="1950.6152"/></g><g><title>osal..ring_buffer.T.N.</title><rect fill="#E3F2FD" height="180.498" style="stroke:#000000;stroke-width:1.875;" width="18.75" x="691.0716" y="2230.7373"/></g><g><title>osal..ring_buffer.T.N.</title><rect fill="#E3F2FD" height="208.8721" style="stroke:#000000;stroke-width:1.875;" width="18.75" x="691.0716" y="2702.6074"/></g><g><title>osal..ring_buffer.T.N.</title><rect fill="#E3F2FD" height="208.8721" style="stroke:#000000;stroke-width:1.875;" width="18.75" x="691.0716" y="3106.9775"/></g><g><title>osal..ring_buffer.T.N.</title><rect fill="#E3F2FD" height="265.6201" style="stroke:#000000;stroke-width:1.875;" width="18.75" x="691.0716" y="3511.3477"/></g><g><title>osal..ring_buffer.T.N.</title><rect fill="#E3F2FD" height="265.6201" style="stroke:#000000;stroke-width:1.875;" width="18.75" x="691.0716" y="3861.5918"/></g><g><title>osal..ring_buffer.T.N.</title><rect fill="#E3F2FD" height="150.498" style="stroke:#000000;stroke-width:1.875;" width="18.75" x="691.0716" y="5110.5762"/></g><g><title>Producer Thread</title><rect fill="#000000" fill-opacity="0.00000" height="5053.1836" width="15" x="256.1421" y="241.6406"/><line style="stroke:#000000;stroke-width:1.875;stroke-dasharray:9.375,9.375;" x1="261.774" x2="261.774" y1="241.6406" y2="5294.8242"/></g><g><title>osal..ring_buffer.T.N.</title><rect fill="#000000" fill-opacity="0.00000" height="5053.1836" width="15" x="692.9466" y="241.6406"/><line style="stroke:#000000;stroke-width:1.875;stroke-dasharray:9.375,9.375;" x1="698.963" x2="698.963" y1="241.6406" y2="5294.8242"/></g><g><title>Consumer Thread</title><rect fill="#000000" fill-opacity="0.00000" height="5053.1836" width="15" x="1054.5822" y="241.6406"/><line style="stroke:#000000;stroke-width:1.875;stroke-dasharray:9.375,9.375;" x1="1061.9302" x2="1061.9302" y1="241.6406" y2="5294.8242"/></g><g class="participant participant-head" data-participant="prod"><rect fill="#E8F5E9" height="112.998" rx="4.6875" ry="4.6875" style="stroke:#000000;stroke-width:1.875;" width="258.7363" x="134.274" y="126.7676"/><text fill="#000000" font-family="'Segoe UI'" font-size="24.375" lengthAdjust="spacing" textLength="202.4863" x="162.399" y="177.518">Producer Thread</text><text fill="#000000" font-family="'Segoe UI'" font-size="24.375" lengthAdjust="spacing" textLength="91.1801" x="218.0521" y="205.892">(single)</text></g><g class="participant participant-tail" data-participant="prod"><rect fill="#E8F5E9" height="112.998" rx="4.6875" ry="4.6875" style="stroke:#000000;stroke-width:1.875;" width="258.7363" x="134.274" y="5292.9492"/><text fill="#000000" font-family="'Segoe UI'" font-size="24.375" lengthAdjust="spacing" textLength="202.4863" x="162.399" y="5343.6996">Producer Thread</text><text fill="#000000" font-family="'Segoe UI'" font-size="24.375" lengthAdjust="spacing" textLength="91.1801" x="218.0521" y="5372.0737">(single)</text></g><g class="participant participant-head" data-participant="rb"><rect fill="#E3F2FD" height="84.624" rx="4.6875" ry="4.6875" style="stroke:#000000;stroke-width:1.875;" width="336.7172" x="532.088" y="155.1416"/><text fill="#000000" font-family="'Segoe UI'" font-size="24.375" lengthAdjust="spacing" textLength="280.4672" x="560.213" y="205.892">osal::ring_buffer&lt;T,N&gt;</text></g><g class="participant participant-tail" data-participant="rb"><rect fill="#E3F2FD" height="84.624" rx="4.6875" ry="4.6875" style="stroke:#000000;stroke-width:1.875;" width="336.7172" x="532.088" y="5292.9492"/><text fill="#000000" font-family="'Segoe UI'" font-size="24.375" lengthAdjust="spacing" textLength="280.4672" x="560.213" y="5343.6996">osal::ring_buffer&lt;T,N&gt;</text></g><g class="participant participant-head" data-participant="cons"><rect fill="#FFF8E1" height="112.998" rx="4.6875" ry="4.6875" style="stroke:#000000;stroke-width:1.875;" width="274.054" x="925.0552" y="126.7676"/><text fill="#000000" font-family="'Segoe UI'" font-size="24.375" lengthAdjust="spacing" textLength="217.804" x="953.1802" y="177.518">Consumer Thread</text><text fill="#000000" font-family="'Segoe UI'" font-size="24.375" lengthAdjust="spacing" textLength="91.1801" x="1016.4922" y="205.892">(single)</text></g><g class="participant participant-tail" data-participant="cons"><rect fill="#FFF8E1" height="112.998" rx="4.6875" ry="4.6875" style="stroke:#000000;stroke-width:1.875;" width="274.054" x="925.0552" y="5292.9492"/><text fill="#000000" font-family="'Segoe UI'" font-size="24.375" lengthAdjust="spacing" textLength="217.804" x="953.1802" y="5343.6996">Consumer Thread</text><text fill="#000000" font-family="'Segoe UI'" font-size="24.375" lengthAdjust="spacing" textLength="91.1801" x="1016.4922" y="5372.0737">(single)</text></g><g><title>osal..ring_buffer.T.N.</title><rect fill="#E3F2FD" height="293.9941" style="stroke:#000000;stroke-width:1.875;" width="18.75" x="691.0716" y="941.6309"/></g><g><title>osal..ring_buffer.T.N.</title><rect fill="#E3F2FD" height="84.624" style="stroke:#000000;stroke-width:1.875;" width="18.75" x="691.0716" y="1320.249"/></g><g><title>osal..ring_buffer.T.N.</title><rect fill="#E3F2FD" height="265.6201" style="stroke:#000000;stroke-width:1.875;" width="18.75" x="691.0716" y="1600.3711"/></g><g><title>osal..ring_buffer.T.N.</title><rect fill="#E3F2FD" height="84.624" style="stroke:#000000;stroke-width:1.875;" width="18.75" x="691.0716" y="1950.6152"/></g><g><title>osal..ring_buffer.T.N.</title><rect fill="#E3F2FD" height="180.498" style="stroke:#000000;stroke-width:1.875;" width="18.75" x="691.0716" y="2230.7373"/></g><g><title>osal..ring_buffer.T.N.</title><rect fill="#E3F2FD" height="208.8721" style="stroke:#000000;stroke-width:1.875;" width="18.75" x="691.0716" y="2702.6074"/></g><g><title>osal..ring_buffer.T.N.</title><rect fill="#E3F2FD" height="208.8721" style="stroke:#000000;stroke-width:1.875;" width="18.75" x="691.0716" y="3106.9775"/></g><g><title>osal..ring_buffer.T.N.</title><rect fill="#E3F2FD" height="265.6201" style="stroke:#000000;stroke-width:1.875;" width="18.75" x="691.0716" y="3511.3477"/></g><g><title>osal..ring_buffer.T.N.</title><rect fill="#E3F2FD" height="265.6201" style="stroke:#000000;stroke-width:1.875;" width="18.75" x="691.0716" y="3861.5918"/></g><g><title>osal..ring_buffer.T.N.</title><rect fill="#E3F2FD" height="150.498" style="stroke:#000000;stroke-width:1.875;" width="18.75" x="691.0716" y="5110.5762"/></g><path d="M115.524,269.7656 L115.524,402.8906 L1206.774,402.8906 L1206.774,288.5156 L1188.024,269.7656 L115.524,269.7656" fill="#FFFFFF" style="stroke:#000000;stroke-width:1.875;"/><path d="M1188.024,269.7656 L1188.024,288.5156 L1206.774,288.5156 L1188.024,269.7656" fill="#FFFFFF" style="stroke:#000000;stroke-width:1.875;"/><text fill="#000000" font-family="'Segoe UI'" font-size="24.375" lengthAdjust="spacing" textLength="402.9968" x="354.0147" y="316.7661">Header-only, no OS dependency.</text><text fill="#000000" font-family="'Segoe UI'" font-size="24.375" lengthAdjust="spacing" textLength="599.1037" x="354.0147" y="345.1401">Uses std::atomic with acquire/release semantics.</text><text fill="#000000" font-family="'Segoe UI'" font-size="24.375" lengthAdjust="spacing" textLength="590.582" x="354.0147" y="373.5141">Exactly one producer and one consumer thread.</text><rect fill="#FFFFFF" height="5.625" style="stroke:#FFFFFF;stroke-width:1.875;" width="1213.2477" x="55.524" y="466.5747"/><line style="stroke:#000000;stroke-width:0.9375;" x1="55.524" x2="1268.7717" y1="466.5747" y2="466.5747"/><line style="stroke:#000000;stroke-width:0.9375;" x1="55.524" x2="1268.7717" y1="472.1997" y2="472.1997"/><rect fill="#FFFFFF" height="73.374" style="stroke:#000000;stroke-width:1.875;" width="240.8121" x="541.7418" y="431.7627"/><text fill="#000000" font-family="'Segoe UI'" font-size="24.375" font-weight="bold" lengthAdjust="spacing" textLength="176.076" x="567.9918" y="476.8881">Construction</text><g class="message" data-participant-1="prod" data-participant-2="rb"><polygon fill="#000000" points="677.9466,586.0107,696.6966,593.5107,677.9466,601.0107,685.4466,593.5107" style="stroke:#000000;stroke-width:1.875;"/><line style="stroke:#000000;stroke-width:1.875;" x1="263.6421" x2="689.1966" y1="593.5107" y2="593.5107"/><text fill="#000000" font-family="'Segoe UI'" font-size="24.375" lengthAdjust="spacing" textLength="361.8045" x="301.1421" y="569.0121">ring_buffer&lt;uint16_t, 64&gt; rb;</text></g><path d="M708.024,617.8857 L708.024,751.0107 L1201.149,751.0107 L1201.149,636.6357 L1182.399,617.8857 L708.024,617.8857" fill="#FFFFFF" style="stroke:#000000;stroke-width:1.875;"/><path d="M1182.399,617.8857 L1182.399,636.6357 L1201.149,636.6357 L1182.399,617.8857" fill="#FFFFFF" style="stroke:#000000;stroke-width:1.875;"/><text fill="#000000" font-family="'Segoe UI'" font-size="24.375" lengthAdjust="spacing" textLength="241.6196" x="734.274" y="664.8862">head_ = 0, tail_ = 0</text><text fill="#000000" font-family="'Segoe UI'" font-size="24.375" lengthAdjust="spacing" textLength="424.4321" x="734.274" y="693.2602">Internal array: N+1 slots (sentinel)</text><text fill="#000000" font-family="'Segoe UI'" font-size="24.375" lengthAdjust="spacing" textLength="305.961" x="734.274" y="721.6342">Capacity: 64 usable slots</text><rect fill="#FFFFFF" height="5.625" style="stroke:#FFFFFF;stroke-width:1.875;" width="1213.2477" x="55.524" y="814.6948"/><line style="stroke:#000000;stroke-width:0.9375;" x1="55.524" x2="1268.7717" y1="814.6948" y2="814.6948"/><line style="stroke:#000000;stroke-width:0.9375;" x1="55.524" x2="1268.7717" y1="820.3198" y2="820.3198"/><rect fill="#FFFFFF" height="73.374" style="stroke:#000000;stroke-width:1.875;" width="380.2899" x="472.0029" y="779.8828"/><text fill="#000000" font-family="'Segoe UI'" font-size="24.375" font-weight="bold" lengthAdjust="spacing" textLength="315.5539" x="498.2529" y="825.0082">Producer pushes items</text><g class="message" data-participant-1="prod" data-participant-2="rb"><polygon fill="#000000" points="668.5716,934.1309,687.3216,941.6309,668.5716,949.1309,676.0716,941.6309" style="stroke:#000000;stroke-width:1.875;"/><line style="stroke:#000000;stroke-width:1.875;" x1="263.6421" x2="679.8216" y1="941.6309" y2="941.6309"/><text fill="#000000" font-family="'Segoe UI'" font-size="24.375" lengthAdjust="spacing" textLength="188.5373" x="383.0882" y="917.1323">rb.try_push(42)</text></g><path d="M717.399,966.0059 L717.399,1155.3809 L1255.524,1155.3809 L1255.524,984.7559 L1236.774,966.0059 L717.399,966.0059" fill="#FFFFFF" style="stroke:#000000;stroke-width:1.875;"/><path d="M1236.774,966.0059 L1236.774,984.7559 L1255.524,984.7559 L1236.774,966.0059" fill="#FFFFFF" style="stroke:#000000;stroke-width:1.875;"/><text fill="#000000" font-family="'Segoe UI'" font-size="24.375" lengthAdjust="spacing" textLength="289.0842" x="743.649" y="1013.0063">1. Load head_ (relaxed)</text><text fill="#000000" font-family="'Segoe UI'" font-size="24.375" lengthAdjust="spacing" textLength="467.8976" x="743.649" y="1041.3803">2. Compute next = (head+1) % (N+1)</text><text fill="#000000" font-family="'Segoe UI'" font-size="24.375" lengthAdjust="spacing" textLength="469.921" x="743.649" y="1069.7543">3. Load tail_ (acquire) &#8212; check not full</text><text fill="#000000" font-family="'Segoe UI'" font-size="24.375" lengthAdjust="spacing" textLength="330.8002" x="743.649" y="1098.1284">4. Write item to buf_[head]</text><text fill="#000000" font-family="'Segoe UI'" font-size="24.375" lengthAdjust="spacing" textLength="383.2874" x="743.649" y="1126.5024">5. Store head_ = next (release)</text><g class="message" data-participant-1="rb" data-participant-2="prod"><polygon fill="#000000" points="284.2671,1228.125,265.5171,1235.625,284.2671,1243.125,276.7671,1235.625" style="stroke:#000000;stroke-width:1.875;"/><line style="stroke:#000000;stroke-width:1.875;stroke-dasharray:3.75,3.75;" x1="273.0171" x2="698.5716" y1="1235.625" y2="1235.625"/><text fill="#000000" font-family="'Segoe UI'" font-size="24.375" lengthAdjust="spacing" textLength="199.0704" x="382.5092" y="1211.1264">true (enqueued)</text></g><g class="message" data-participant-1="prod" data-participant-2="rb"><polygon fill="#000000" points="668.5716,1312.749,687.3216,1320.249,668.5716,1327.749,676.0716,1320.249" style="stroke:#000000;stroke-width:1.875;"/><line style="stroke:#000000;stroke-width:1.875;" x1="263.6421" x2="679.8216" y1="1320.249" y2="1320.249"/><text fill="#000000" font-family="'Segoe UI'" font-size="24.375" lengthAdjust="spacing" textLength="188.5373" x="383.0882" y="1295.7504">rb.try_push(99)</text></g><g class="message" data-participant-1="rb" data-participant-2="prod"><polygon fill="#000000" points="284.2671,1397.373,265.5171,1404.873,284.2671,1412.373,276.7671,1404.873" style="stroke:#000000;stroke-width:1.875;"/><line style="stroke:#000000;stroke-width:1.875;stroke-dasharray:3.75,3.75;" x1="273.0171" x2="698.5716" y1="1404.873" y2="1404.873"/><text fill="#000000" font-family="'Segoe UI'" font-size="24.375" lengthAdjust="spacing" textLength="199.0704" x="382.5092" y="1380.3745">true (enqueued)</text></g><rect fill="#FFFFFF" height="5.625" style="stroke:#FFFFFF;stroke-width:1.875;" width="1213.2477" x="55.524" y="1473.4351"/><line style="stroke:#000000;stroke-width:0.9375;" x1="55.524" x2="1268.7717" y1="1473.4351" y2="1473.4351"/><line style="stroke:#000000;stroke-width:0.9375;" x1="55.524" x2="1268.7717" y1="1479.0601" y2="1479.0601"/><rect fill="#FFFFFF" height="73.374" style="stroke:#000000;stroke-width:1.875;" width="362.1039" x="481.0959" y="1438.623"/><text fill="#000000" font-family="'Segoe UI'" font-size="24.375" font-weight="bold" lengthAdjust="spacing" textLength="297.3679" x="507.3459" y="1483.7485">Consumer pops items</text><g class="message" data-participant-1="cons" data-participant-2="rb"><polygon fill="#000000" points="730.4466,1592.8711,711.6966,1600.3711,730.4466,1607.8711,722.9466,1600.3711" style="stroke:#000000;stroke-width:1.875;"/><line style="stroke:#000000;stroke-width:1.875;" x1="719.1966" x2="1060.2072" y1="1600.3711" y2="1600.3711"/><text fill="#000000" font-family="'Segoe UI'" font-size="24.375" lengthAdjust="spacing" textLength="199.3799" x="786.262" y="1575.8725">rb.try_pop(item)</text></g><path d="M78.024,1624.7461 L78.024,1785.9961 L679.899,1785.9961 L679.899,1643.4961 L661.149,1624.7461 L78.024,1624.7461" fill="#FFFFFF" style="stroke:#000000;stroke-width:1.875;"/><path d="M661.149,1624.7461 L661.149,1643.4961 L679.899,1643.4961 L661.149,1624.7461" fill="#FFFFFF" style="stroke:#000000;stroke-width:1.875;"/><text fill="#000000" font-family="'Segoe UI'" font-size="24.375" lengthAdjust="spacing" textLength="266.2683" x="104.274" y="1671.7465">1. Load tail_ (relaxed)</text><text fill="#000000" font-family="'Segoe UI'" font-size="24.375" lengthAdjust="spacing" textLength="533.3578" x="104.274" y="1700.1205">2. Load head_ (acquire) &#8212; check not empty</text><text fill="#000000" font-family="'Segoe UI'" font-size="24.375" lengthAdjust="spacing" textLength="300.8313" x="104.274" y="1728.4946">3. Read item = buf_[tail]</text><text fill="#000000" font-family="'Segoe UI'" font-size="24.375" lengthAdjust="spacing" textLength="510.8752" x="104.274" y="1756.8686">4. Store tail_ = (tail+1) % (N+1) (release)</text><g class="message" data-participant-1="rb" data-participant-2="cons"><polygon fill="#000000" points="1039.5822,1858.4912,1058.3322,1865.9912,1039.5822,1873.4912,1047.0822,1865.9912" style="stroke:#000000;stroke-width:1.875;"/><line style="stroke:#000000;stroke-width:1.875;stroke-dasharray:3.75,3.75;" x1="700.4466" x2="1050.8322" y1="1865.9912" y2="1865.9912"/><text fill="#000000" font-family="'Segoe UI'" font-size="24.375" lengthAdjust="spacing" textLength="187.5256" x="787.5016" y="1841.4926">true, item = 42</text></g><g class="message" data-participant-1="cons" data-participant-2="rb"><polygon fill="#000000" points="730.4466,1943.1152,711.6966,1950.6152,730.4466,1958.1152,722.9466,1950.6152" style="stroke:#000000;stroke-width:1.875;"/><line style="stroke:#000000;stroke-width:1.875;" x1="719.1966" x2="1060.2072" y1="1950.6152" y2="1950.6152"/><text fill="#000000" font-family="'Segoe UI'" font-size="24.375" lengthAdjust="spacing" textLength="199.3799" x="786.262" y="1926.1166">rb.try_pop(item)</text></g><g class="message" data-participant-1="rb" data-participant-2="cons"><polygon fill="#000000" points="1039.5822,2027.7393,1058.3322,2035.2393,1039.5822,2042.7393,1047.0822,2035.2393" style="stroke:#000000;stroke-width:1.875;"/><line style="stroke:#000000;stroke-width:1.875;stroke-dasharray:3.75,3.75;" x1="700.4466" x2="1050.8322" y1="2035.2393" y2="2035.2393"/><text fill="#000000" font-family="'Segoe UI'" font-size="24.375" lengthAdjust="spacing" textLength="187.5256" x="787.5016" y="2010.7407">true, item = 99</text></g><rect fill="#FFFFFF" height="5.625" style="stroke:#FFFFFF;stroke-width:1.875;" width="1213.2477" x="55.524" y="2103.8013"/><line style="stroke:#000000;stroke-width:0.9375;" x1="55.524" x2="1268.7717" y1="2103.8013" y2="2103.8013"/><line style="stroke:#000000;stroke-width:0.9375;" x1="55.524" x2="1268.7717" y1="2109.4263" y2="2109.4263"/><rect fill="#FFFFFF" height="73.374" style="stroke:#000000;stroke-width:1.875;" width="245.8347" x="539.2305" y="2068.9893"/><text fill="#000000" font-family="'Segoe UI'" font-size="24.375" font-weight="bold" lengthAdjust="spacing" textLength="181.0986" x="565.4805" y="2114.1147">Buffer empty</text><g class="message" data-participant-1="cons" data-participant-2="rb"><polygon fill="#000000" points="730.4466,2223.2373,711.6966,2230.7373,730.4466,2238.2373,722.9466,2230.7373" style="stroke:#000000;stroke-width:1.875;"/><line style="stroke:#000000;stroke-width:1.875;" x1="719.1966" x2="1060.2072" y1="2230.7373" y2="2230.7373"/><text fill="#000000" font-family="'Segoe UI'" font-size="24.375" lengthAdjust="spacing" textLength="199.3799" x="786.262" y="2206.2387">rb.try_pop(item)</text></g><path d="M318.024,2255.1123 L318.024,2331.9873 L679.899,2331.9873 L679.899,2273.8623 L661.149,2255.1123 L318.024,2255.1123" fill="#FFFFFF" style="stroke:#000000;stroke-width:1.875;"/><path d="M661.149,2255.1123 L661.149,2273.8623 L679.899,2273.8623 L661.149,2255.1123" fill="#FFFFFF" style="stroke:#000000;stroke-width:1.875;"/><text fill="#000000" font-family="'Segoe UI'" font-size="24.375" lengthAdjust="spacing" textLength="293.7259" x="344.274" y="2302.1127">tail_ == head_ &#8594; empty</text><g class="message" data-participant-1="rb" data-participant-2="cons"><polygon fill="#000000" points="1039.5822,2403.7354,1058.3322,2411.2354,1039.5822,2418.7354,1047.0822,2411.2354" style="stroke:#000000;stroke-width:1.875;"/><line style="stroke:#000000;stroke-width:1.875;stroke-dasharray:3.75,3.75;" x1="700.4466" x2="1050.8322" y1="2411.2354" y2="2411.2354"/><text fill="#000000" font-family="'Segoe UI'" font-size="24.375" lengthAdjust="spacing" textLength="162.9483" x="799.7903" y="2386.7368">false (empty)</text></g><rect fill="#FFFFFF" height="5.625" style="stroke:#FFFFFF;stroke-width:1.875;" width="1213.2477" x="55.524" y="2479.7974"/><line style="stroke:#000000;stroke-width:0.9375;" x1="55.524" x2="1268.7717" y1="2479.7974" y2="2479.7974"/><line style="stroke:#000000;stroke-width:0.9375;" x1="55.524" x2="1268.7717" y1="2485.4224" y2="2485.4224"/><rect fill="#FFFFFF" height="73.374" style="stroke:#000000;stroke-width:1.875;" width="203.5831" x="560.3563" y="2444.9854"/><text fill="#000000" font-family="'Segoe UI'" font-size="24.375" font-weight="bold" lengthAdjust="spacing" textLength="138.847" x="586.6063" y="2490.1108">Buffer full</text><path d="M64.899,2546.4844 L64.899,2623.3594 L462.399,2623.3594 L462.399,2565.2344 L443.649,2546.4844 L64.899,2546.4844" fill="#FFFFFF" style="stroke:#000000;stroke-width:1.875;"/><path d="M443.649,2546.4844 L443.649,2565.2344 L462.399,2565.2344 L443.649,2546.4844" fill="#FFFFFF" style="stroke:#000000;stroke-width:1.875;"/><text fill="#000000" font-family="'Segoe UI'" font-size="24.375" lengthAdjust="spacing" textLength="328.6935" x="91.149" y="2593.4848">Producer fills all 64 slots ...</text><g class="message" data-participant-1="prod" data-participant-2="rb"><polygon fill="#000000" points="668.5716,2695.1074,687.3216,2702.6074,668.5716,2710.1074,676.0716,2702.6074" style="stroke:#000000;stroke-width:1.875;"/><line style="stroke:#000000;stroke-width:1.875;" x1="263.6421" x2="679.8216" y1="2702.6074" y2="2702.6074"/><text fill="#000000" font-family="'Segoe UI'" font-size="24.375" lengthAdjust="spacing" textLength="193.6551" x="380.5293" y="2678.1088">rb.try_push(val)</text></g><path d="M717.399,2726.9824 L717.399,2831.9824 L1086.774,2831.9824 L1086.774,2745.7324 L1068.024,2726.9824 L717.399,2726.9824" fill="#FFFFFF" style="stroke:#000000;stroke-width:1.875;"/><path d="M1068.024,2726.9824 L1068.024,2745.7324 L1086.774,2745.7324 L1068.024,2726.9824" fill="#FFFFFF" style="stroke:#000000;stroke-width:1.875;"/><text fill="#000000" font-family="'Segoe UI'" font-size="24.375" lengthAdjust="spacing" textLength="234.4904" x="743.649" y="2773.9828">next == tail_ &#8594; full</text><text fill="#000000" font-family="'Segoe UI'" font-size="24.375" lengthAdjust="spacing" textLength="301.2717" x="743.649" y="2802.3569">(sentinel slot consumed)</text><g class="message" data-participant-1="rb" data-participant-2="prod"><polygon fill="#000000" points="284.2671,2903.9795,265.5171,2911.4795,284.2671,2918.9795,276.7671,2911.4795" style="stroke:#000000;stroke-width:1.875;"/><line style="stroke:#000000;stroke-width:1.875;stroke-dasharray:3.75,3.75;" x1="273.0171" x2="698.5716" y1="2911.4795" y2="2911.4795"/><text fill="#000000" font-family="'Segoe UI'" font-size="24.375" lengthAdjust="spacing" textLength="122.3273" x="420.8807" y="2886.9809">false (full)</text></g><rect fill="#FFFFFF" height="5.625" style="stroke:#FFFFFF;stroke-width:1.875;" width="1213.2477" x="55.524" y="2980.0415"/><line style="stroke:#000000;stroke-width:0.9375;" x1="55.524" x2="1268.7717" y1="2980.0415" y2="2980.0415"/><line style="stroke:#000000;stroke-width:0.9375;" x1="55.524" x2="1268.7717" y1="2985.6665" y2="2985.6665"/><rect fill="#FFFFFF" height="73.374" style="stroke:#000000;stroke-width:1.875;" width="403.439" x="460.4283" y="2945.2295"/><text fill="#000000" font-family="'Segoe UI'" font-size="24.375" font-weight="bold" lengthAdjust="spacing" textLength="338.703" x="486.6783" y="2990.3549">Peek without consuming</text><g class="message" data-participant-1="cons" data-participant-2="rb"><polygon fill="#000000" points="730.4466,3099.4775,711.6966,3106.9775,730.4466,3114.4775,722.9466,3106.9775" style="stroke:#000000;stroke-width:1.875;"/><line style="stroke:#000000;stroke-width:1.875;" x1="719.1966" x2="1060.2072" y1="3106.9775" y2="3106.9775"/><text fill="#000000" font-family="'Segoe UI'" font-size="24.375" lengthAdjust="spacing" textLength="166.9116" x="802.4961" y="3082.4789">rb.peek(item)</text></g><path d="M319.899,3131.3525 L319.899,3236.3525 L679.899,3236.3525 L679.899,3150.1025 L661.149,3131.3525 L319.899,3131.3525" fill="#FFFFFF" style="stroke:#000000;stroke-width:1.875;"/><path d="M661.149,3131.3525 L661.149,3150.1025 L679.899,3150.1025 L661.149,3131.3525" fill="#FFFFFF" style="stroke:#000000;stroke-width:1.875;"/><text fill="#000000" font-family="'Segoe UI'" font-size="24.375" lengthAdjust="spacing" textLength="290.9171" x="346.149" y="3178.353">Reads buf_[tail] without</text><text fill="#000000" font-family="'Segoe UI'" font-size="24.375" lengthAdjust="spacing" textLength="192.0364" x="346.149" y="3206.727">advancing tail_.</text><g class="message" data-participant-1="rb" data-participant-2="cons"><polygon fill="#000000" points="1039.5822,3308.3496,1058.3322,3315.8496,1039.5822,3323.3496,1047.0822,3315.8496" style="stroke:#000000;stroke-width:1.875;"/><line style="stroke:#000000;stroke-width:1.875;stroke-dasharray:3.75,3.75;" x1="700.4466" x2="1050.8322" y1="3315.8496" y2="3315.8496"/><text fill="#000000" font-family="'Segoe UI'" font-size="24.375" lengthAdjust="spacing" textLength="230.9198" x="765.8045" y="3291.351">true, item = oldest</text></g><rect fill="#FFFFFF" height="5.625" style="stroke:#FFFFFF;stroke-width:1.875;" width="1213.2477" x="55.524" y="3384.4116"/><line style="stroke:#000000;stroke-width:0.9375;" x1="55.524" x2="1268.7717" y1="3384.4116" y2="3384.4116"/><line style="stroke:#000000;stroke-width:0.9375;" x1="55.524" x2="1268.7717" y1="3390.0366" y2="3390.0366"/><rect fill="#FFFFFF" height="73.374" style="stroke:#000000;stroke-width:1.875;" width="625.611" x="349.3423" y="3349.5996"/><text fill="#000000" font-family="'Segoe UI'" font-size="24.375" font-weight="bold" lengthAdjust="spacing" textLength="560.8749" x="375.5923" y="3394.725">Bulk push / pop (memcpy, single atomic)</text><g class="message" data-participant-1="prod" data-participant-2="rb"><polygon fill="#000000" points="668.5716,3503.8477,687.3216,3511.3477,668.5716,3518.8477,676.0716,3511.3477" style="stroke:#000000;stroke-width:1.875;"/><line style="stroke:#000000;stroke-width:1.875;" x1="263.6421" x2="679.8216" y1="3511.3477" y2="3511.3477"/><text fill="#000000" font-family="'Segoe UI'" font-size="24.375" lengthAdjust="spacing" textLength="283.9307" x="335.3915" y="3486.8491">rb.try_push_n(items, 4)</text></g><path d="M717.399,3535.7227 L717.399,3696.9727 L1259.274,3696.9727 L1259.274,3554.4727 L1240.524,3535.7227 L717.399,3535.7227" fill="#FFFFFF" style="stroke:#000000;stroke-width:1.875;"/><path d="M1240.524,3535.7227 L1240.524,3554.4727 L1259.274,3554.4727 L1240.524,3535.7227" fill="#FFFFFF" style="stroke:#000000;stroke-width:1.875;"/><text fill="#000000" font-family="'Segoe UI'" font-size="24.375" lengthAdjust="spacing" textLength="472.6227" x="743.649" y="3582.7231">1. Load head_ (relaxed), tail_ (acquire)</text><text fill="#000000" font-family="'Segoe UI'" font-size="24.375" lengthAdjust="spacing" textLength="344.6063" x="743.649" y="3611.0971">2. n = min(count, free slots)</text><text fill="#000000" font-family="'Segoe UI'" font-size="24.375" lengthAdjust="spacing" textLength="431.4661" x="743.649" y="3639.4711">3. Two-chunk memcpy across wrap</text><text fill="#000000" font-family="'Segoe UI'" font-size="24.375" lengthAdjust="spacing" textLength="23.2562" x="743.649" y="3667.8452">4.</text><text fill="#000000" font-family="'Segoe UI'" font-size="24.375" font-weight="bold" lengthAdjust="spacing" textLength="85.5981" x="774.6533" y="3667.8452">Single</text><text fill="#000000" font-family="'Segoe UI'" font-size="24.375" lengthAdjust="spacing" textLength="259.1629" x="867.9996" y="3667.8452">head_ store (release)</text><g class="message" data-participant-1="rb" data-participant-2="prod"><polygon fill="#000000" points="284.2671,3769.4678,265.5171,3776.9678,284.2671,3784.4678,276.7671,3776.9678" style="stroke:#000000;stroke-width:1.875;"/><line style="stroke:#000000;stroke-width:1.875;stroke-dasharray:3.75,3.75;" x1="273.0171" x2="698.5716" y1="3776.9678" y2="3776.9678"/><text fill="#000000" font-family="'Segoe UI'" font-size="24.375" lengthAdjust="spacing" textLength="207.3303" x="378.3792" y="3752.4692">4 (items pushed)</text></g><g class="message" data-participant-1="cons" data-participant-2="rb"><polygon fill="#000000" points="730.4466,3854.0918,711.6966,3861.5918,730.4466,3869.0918,722.9466,3861.5918" style="stroke:#000000;stroke-width:1.875;"/><line style="stroke:#000000;stroke-width:1.875;" x1="719.1966" x2="1060.2072" y1="3861.5918" y2="3861.5918"/><text fill="#000000" font-family="'Segoe UI'" font-size="24.375" lengthAdjust="spacing" textLength="242.4527" x="764.7256" y="3837.0932">rb.try_pop_n(buf, 4)</text></g><path d="M138.024,3885.9668 L138.024,4047.2168 L679.899,4047.2168 L679.899,3904.7168 L661.149,3885.9668 L138.024,3885.9668" fill="#FFFFFF" style="stroke:#000000;stroke-width:1.875;"/><path d="M661.149,3885.9668 L661.149,3904.7168 L679.899,3904.7168 L661.149,3885.9668" fill="#FFFFFF" style="stroke:#000000;stroke-width:1.875;"/><text fill="#000000" font-family="'Segoe UI'" font-size="24.375" lengthAdjust="spacing" textLength="472.6227" x="164.274" y="3932.9672">1. Load tail_ (relaxed), head_ (acquire)</text><text fill="#000000" font-family="'Segoe UI'" font-size="24.375" lengthAdjust="spacing" textLength="341.6428" x="164.274" y="3961.3412">2. n = min(count, available)</text><text fill="#000000" font-family="'Segoe UI'" font-size="24.375" lengthAdjust="spacing" textLength="431.4661" x="164.274" y="3989.7153">3. Two-chunk memcpy across wrap</text><text fill="#000000" font-family="'Segoe UI'" font-size="24.375" lengthAdjust="spacing" textLength="23.2562" x="164.274" y="4018.0893">4.</text><text fill="#000000" font-family="'Segoe UI'" font-size="24.375" font-weight="bold" lengthAdjust="spacing" textLength="85.5981" x="195.2783" y="4018.0893">Single</text><text fill="#000000" font-family="'Segoe UI'" font-size="24.375" lengthAdjust="spacing" textLength="236.347" x="288.6246" y="4018.0893">tail_ store (release)</text><g class="message" data-participant-1="rb" data-participant-2="cons"><polygon fill="#000000" points="1039.5822,4119.7119,1058.3322,4127.2119,1039.5822,4134.7119,1047.0822,4127.2119" style="stroke:#000000;stroke-width:1.875;"/><line style="stroke:#000000;stroke-width:1.875;stroke-dasharray:3.75,3.75;" x1="700.4466" x2="1050.8322" y1="4127.2119" y2="4127.2119"/><text fill="#000000" font-family="'Segoe UI'" font-size="24.375" lengthAdjust="spacing" textLength="209.5917" x="776.4686" y="4102.7133">4 (items popped)</text></g><rect fill="#FFFFFF" height="5.625" style="stroke:#FFFFFF;stroke-width:1.875;" width="1213.2477" x="55.524" y="4195.7739"/><line style="stroke:#000000;stroke-width:0.9375;" x1="55.524" x2="1268.7717" y1="4195.7739" y2="4195.7739"/><line style="stroke:#000000;stroke-width:0.9375;" x1="55.524" x2="1268.7717" y1="4201.3989" y2="4201.3989"/><rect fill="#FFFFFF" height="73.374" style="stroke:#000000;stroke-width:1.875;" width="516.6971" x="403.7993" y="4160.9619"/><text fill="#000000" font-family="'Segoe UI'" font-size="24.375" font-weight="bold" lengthAdjust="spacing" textLength="451.9611" x="430.0493" y="4206.0873">Query operations (either thread)</text><g class="message" data-participant-1="prod" data-participant-2="rb"><polygon fill="#000000" points="677.9466,4315.21,696.6966,4322.71,677.9466,4330.21,685.4466,4322.71" style="stroke:#000000;stroke-width:1.875;"/><line style="stroke:#000000;stroke-width:1.875;" x1="263.6421" x2="689.1966" y1="4322.71" y2="4322.71"/><text fill="#000000" font-family="'Segoe UI'" font-size="24.375" lengthAdjust="spacing" textLength="99.5233" x="432.2827" y="4298.2114">rb.size()</text></g><g class="message" data-participant-1="rb" data-participant-2="prod"><polygon fill="#000000" points="284.2671,4399.834,265.5171,4407.334,284.2671,4414.834,276.7671,4407.334" style="stroke:#000000;stroke-width:1.875;"/><line style="stroke:#000000;stroke-width:1.875;stroke-dasharray:3.75,3.75;" x1="273.0171" x2="698.5716" y1="4407.334" y2="4407.334"/><text fill="#000000" font-family="'Segoe UI'" font-size="24.375" lengthAdjust="spacing" textLength="303.3545" x="330.3671" y="4382.8354">current count (snapshot)</text></g><g class="message" data-participant-1="cons" data-participant-2="rb"><polygon fill="#000000" points="721.0716,4484.458,702.3216,4491.958,721.0716,4499.458,713.5716,4491.958" style="stroke:#000000;stroke-width:1.875;"/><line style="stroke:#000000;stroke-width:1.875;" x1="709.8216" x2="1060.2072" y1="4491.958" y2="4491.958"/><text fill="#000000" font-family="'Segoe UI'" font-size="24.375" lengthAdjust="spacing" textLength="130.4562" x="816.0363" y="4467.4594">rb.empty()</text></g><g class="message" data-participant-1="rb" data-participant-2="cons"><polygon fill="#000000" points="1039.5822,4569.082,1058.3322,4576.582,1039.5822,4584.082,1047.0822,4576.582" style="stroke:#000000;stroke-width:1.875;"/><line style="stroke:#000000;stroke-width:1.875;stroke-dasharray:3.75,3.75;" x1="700.4466" x2="1050.8322" y1="4576.582" y2="4576.582"/><text fill="#000000" font-family="'Segoe UI'" font-size="24.375" lengthAdjust="spacing" textLength="131.7178" x="815.4055" y="4552.0834">true / false</text></g><g class="message" data-participant-1="prod" data-participant-2="rb"><polygon fill="#000000" points="677.9466,4653.7061,696.6966,4661.2061,677.9466,4668.7061,685.4466,4661.2061" style="stroke:#000000;stroke-width:1.875;"/><line style="stroke:#000000;stroke-width:1.875;" x1="263.6421" x2="689.1966" y1="4661.2061" y2="4661.2061"/><text fill="#000000" font-family="'Segoe UI'" font-size="24.375" lengthAdjust="spacing" textLength="89.8352" x="437.1268" y="4636.7075">rb.full()</text></g><g class="message" data-participant-1="rb" data-participant-2="prod"><polygon fill="#000000" points="284.2671,4738.3301,265.5171,4745.8301,284.2671,4753.3301,276.7671,4745.8301" style="stroke:#000000;stroke-width:1.875;"/><line style="stroke:#000000;stroke-width:1.875;stroke-dasharray:3.75,3.75;" x1="273.0171" x2="698.5716" y1="4745.8301" y2="4745.8301"/><text fill="#000000" font-family="'Segoe UI'" font-size="24.375" lengthAdjust="spacing" textLength="131.7178" x="416.1855" y="4721.3315">true / false</text></g><g class="message" data-participant-1="prod" data-participant-2="rb"><polygon fill="#000000" points="677.9466,4822.9541,696.6966,4830.4541,677.9466,4837.9541,685.4466,4830.4541" style="stroke:#000000;stroke-width:1.875;"/><line style="stroke:#000000;stroke-width:1.875;" x1="263.6421" x2="689.1966" y1="4830.4541" y2="4830.4541"/><text fill="#000000" font-family="'Segoe UI'" font-size="24.375" lengthAdjust="spacing" textLength="271.3504" x="346.3692" y="4805.9555">ring_buffer::capacity()</text></g><g class="message" data-participant-1="rb" data-participant-2="prod"><polygon fill="#000000" points="284.2671,4907.5781,265.5171,4915.0781,284.2671,4922.5781,276.7671,4915.0781" style="stroke:#000000;stroke-width:1.875;"/><line style="stroke:#000000;stroke-width:1.875;stroke-dasharray:3.75,3.75;" x1="273.0171" x2="698.5716" y1="4915.0781" y2="4915.0781"/><text fill="#000000" font-family="'Segoe UI'" font-size="24.375" lengthAdjust="spacing" textLength="178.7183" x="392.6852" y="4890.5795">64 (constexpr)</text></g><rect fill="#FFFFFF" height="5.625" style="stroke:#FFFFFF;stroke-width:1.875;" width="1213.2477" x="55.524" y="4983.6401"/><line style="stroke:#000000;stroke-width:0.9375;" x1="55.524" x2="1268.7717" y1="4983.6401" y2="4983.6401"/><line style="stroke:#000000;stroke-width:0.9375;" x1="55.524" x2="1268.7717" y1="4989.2651" y2="4989.2651"/><rect fill="#FFFFFF" height="73.374" style="stroke:#000000;stroke-width:1.875;" width="474.624" x="424.8358" y="4948.8281"/><text fill="#000000" font-family="'Segoe UI'" font-size="24.375" font-weight="bold" lengthAdjust="spacing" textLength="409.888" x="451.0858" y="4993.9536">Reset (consumer thread only)</text><g class="message" data-participant-1="cons" data-participant-2="rb"><polygon fill="#000000" points="730.4466,5103.0762,711.6966,5110.5762,730.4466,5118.0762,722.9466,5110.5762" style="stroke:#000000;stroke-width:1.875;"/><line style="stroke:#000000;stroke-width:1.875;" x1="719.1966" x2="1060.2072" y1="5110.5762" y2="5110.5762"/><text fill="#000000" font-family="'Segoe UI'" font-size="24.375" lengthAdjust="spacing" textLength="114.5316" x="828.6861" y="5086.0776">rb.reset()</text></g><path d="M336.774,5134.9512 L336.774,5239.9512 L679.899,5239.9512 L679.899,5153.7012 L661.149,5134.9512 L336.774,5134.9512" fill="#FFFFFF" style="stroke:#000000;stroke-width:1.875;"/><path d="M661.149,5134.9512 L661.149,5153.7012 L679.899,5153.7012 L661.149,5134.9512" fill="#FFFFFF" style="stroke:#000000;stroke-width:1.875;"/><text fill="#000000" font-family="'Segoe UI'" font-size="24.375" lengthAdjust="spacing" textLength="275.3732" x="363.024" y="5181.9516">tail_ = head_ (release)</text><text fill="#000000" font-family="'Segoe UI'" font-size="24.375" lengthAdjust="spacing" textLength="224.2667" x="363.024" y="5210.3256">Discards all items.</text><g class="message" data-participant-1="rb" data-participant-2="cons"><polygon fill="#000000" points="1039.5822,5253.5742,1058.3322,5261.0742,1039.5822,5268.5742,1047.0822,5261.0742" style="stroke:#000000;stroke-width:1.875;"/><line style="stroke:#000000;stroke-width:1.875;stroke-dasharray:3.75,3.75;" x1="700.4466" x2="1050.8322" y1="5261.0742" y2="5261.0742"/></g><!--SRC=[hLR1RXit4BthAoOE2kmwygPs52DMgm2jOo41MjUr7FJG1WBD7Kc4kEI6vDfMJptr0uf-ORwaGt8bhwML4hU5Bi9oXZFlpSmRFd4pB11AoOJgF16Aoof761jKEPfnQVH4ICpAgf0TEnUgP8OLSCtuV6fqfV9JBRM1fyCp_sjOv3XXbNH3hTmve_ltHZZL2E_VxJMCB7wiK77y4QrbK_nEYga2ZigXwNISS1BXKgWfV5zD9cWW6LsCJbFuzCVVy8FcyuEXGOGBe_EAq-bpEDNALeNtfUkTuA9aoi7Uok9gPf3blwd4qgKIqprW5WXX3a_FNWrVdfqyzDEMoNxVaEtuEYJmxLNt_7LmCjVayc9uD7ppq6MPGNieJgT4rN3uwkomqr7Q8UWRClOfTCDf1-0j-Q4vq4ekkg0q_3GYBajV3SKN6HcyjsZ1khpVPquNWiEjS3DW_6Cb33utA95P96eBoaXmwrtExXXtSW5QOGWMs60g3n_uCcSNSiuw50jySftEO10uTQRYJcW5Wm5Hw_awUEqfw4EJd4eeTtWyTbquxldZRo928wOp1tf2NoYJ6KKOmm2-xe9ZGeQ_zFcTBxbY4fWnRD67ysU7OALs5X9BxI0KofJCJbd9k71aSDo3oh9hQf1WzZ3dLS7Boiw8BE6mi2t9NsVEBCRUAEaTfHtYIDmmd_9zTLiW76RKVIoleIH4EBl3tATtb15THLcHYy8xHzWIR_JiC8Ml825CtkX5xHxX9tNTObVp6VAvnm6JIaeoxcNmYw7q0mHm6eZhyQ_-qWzq-ZA3aTC6Lwo6g4dT0kazAGJeW507z7sWSY8ag6ZsAfzuZWtaEpWwEMddw56troqL6gxKPRCuOJpM0-ioyHOxgYDnibcScjs7nMcMRGllM9Hk4QjqIOQHzq6atT_v8HObqhxiuCJ_QLHvHma2naXITtbvxsYTfCSpiUFwavEM6jIA6k3-R-JNV0ngZZ_z-LVDvnOM9anQtolU9jsUf9-5aED3nQI0gq6d7IKjCB8ZOOZ2aMLD9TlQr3TCVl7anw4Ur3Wzl7fCLo8LOYyLDTywWJLmxzs6-m9n7bHTLylB_1PiArD9fe-gaUzgs-ZdPHmwOlaDKzn72W2pBsfUBNEqhhLuSXu4c1OpDH8a1HQyf9qMDoB4vPNkbEMn2jXi5th_LPwxwu8R9O5s6X2v2QUt36skYNzHXFwffVhgLX_mMQNc4DEdFMkqjN1hM1cbO7z_503jxzSXRT26pwfm3oAskAGsXNBBG18bLBpTX7o98dRNXR2L3tP3NdxD_XiwOiJFqL4trJqTkYpRzyRF5HfwmvHec7-DqDi0gNTN3vVsLhBYTqpIDUvvPUXzwsUBKDBqAbRQcNRf9kj1c-xz6nD0RHt6U3Ea7-kDaBjSxXzH_JwldpWR5v2m9JwymxlIf86GIxJeujV60mxyqp5jLGlZ7P97odbZac850Tu8ovd9e-A6ihMBnLeH_m40]--></g></svg>