<svg xmlns="http://www.w3.org/2000/svg" xmlns:xlink="http://www.w3.org/1999/xlink" contentStyleType="text/css" data-diagram-type="SEQUENCE" height="3555px" preserveAspectRatio="none" style="width:1910px;height:3555px;background:#FEFEFE;" version="1.1" viewBox="0 0 1910 3555" width="1910.625px" zoomAndPan="magnify"><title>Mutex Lock / Unlock - Call Flow</title><defs/><g><rect fill="#FEFEFE" height="3555" style="stroke:none;stroke-width:1.875;" width="1910.625" x="0" y="0"/><text fill="#000000" font-family="'Segoe UI'" font-size="41.25" font-weight="bold" lengthAdjust="spacing" textLength="721.9556" x="592.0624" y="81.4142">Mutex Lock / Unlock - Call Flow</text><g><title>osal..mutex</title><rect fill="#FFFFFF" height="592.3682" style="stroke:#000000;stroke-width:1.875;" width="18.75" x="399.9861" y="440.8887"/></g><g><title>osal..mutex</title><rect fill="#FFFFFF" height="701.3672" style="stroke:#000000;stroke-width:1.875;" width="18.75" x="399.9861" y="1228.7549"/></g><g><title>osal..mutex</title><rect fill="#FFFFFF" height="592.3682" style="stroke:#000000;stroke-width:1.875;" width="18.75" x="399.9861" y="2221.4941"/></g><g><title>osal..mutex</title><rect fill="#FFFFFF" height="390.9961" style="stroke:#000000;stroke-width:1.875;" width="18.75" x="399.9861" y="3009.3604"/></g><g><title>Application</title><rect fill="#000000" fill-opacity="0.00000" height="3192.4658" width="15" x="133.7215" y="241.6406"/><line style="stroke:#000000;stroke-width:1.875;stroke-dasharray:9.375,9.375;" x1="140.625" x2="140.625" y1="241.6406" y2="3434.1064"/></g><g><title>osal..mutex</title><rect fill="#000000" fill-opacity="0.00000" height="3192.4658" width="15" x="401.8611" y="241.6406"/><line style="stroke:#000000;stroke-width:1.875;stroke-dasharray:9.375,9.375;" x1="409.2384" x2="409.2384" y1="241.6406" y2="3434.1064"/></g><g><title>extern C bridge</title><rect fill="#000000" fill-opacity="0.00000" height="3192.4658" width="15" x="922.7843" y="241.6406"/><line style="stroke:#000000;stroke-width:1.875;stroke-dasharray:9.375,9.375;" x1="928.9503" x2="928.9503" y1="241.6406" y2="3434.1064"/></g><g><title>Backend .cpp</title><rect fill="#000000" fill-opacity="0.00000" height="3192.4658" width="15" x="1253.2457" y="241.6406"/><line style="stroke:#000000;stroke-width:1.875;stroke-dasharray:9.375,9.375;" x1="1258.9027" x2="1258.9027" y1="241.6406" y2="3434.1064"/></g><g><title>OS Kernel</title><rect fill="#000000" fill-opacity="0.00000" height="3192.4658" width="15" x="1750.5116" y="241.6406"/><line style="stroke:#000000;stroke-width:1.875;stroke-dasharray:9.375,9.375;" x1="1756.1929" x2="1756.1929" y1="241.6406" y2="3434.1064"/></g><g class="participant participant-head" data-participant="app"><rect fill="#E8F5E9" height="84.624" rx="4.6875" ry="4.6875" style="stroke:#000000;stroke-width:1.875;" width="192.4429" x="45" y="155.1416"/><text fill="#000000" font-family="'Segoe UI'" font-size="24.375" lengthAdjust="spacing" textLength="136.1929" x="73.125" y="205.892">Application</text></g><g class="participant participant-tail" data-participant="app"><rect fill="#E8F5E9" height="84.624" rx="4.6875" ry="4.6875" style="stroke:#000000;stroke-width:1.875;" width="192.4429" x="45" y="3432.2314"/><text fill="#000000" font-family="'Segoe UI'" font-size="24.375" lengthAdjust="spacing" textLength="136.1929" x="73.125" y="3482.9819">Application</text></g><g class="participant participant-head" data-participant="mtx"><rect fill="#E3F2FD" height="112.998" rx="4.6875" ry="4.6875" style="stroke:#000000;stroke-width:1.875;" width="221.4954" x="298.6134" y="126.7676"/><text fill="#000000" font-family="'Segoe UI'" font-size="24.375" lengthAdjust="spacing" textLength="143.9172" x="337.4025" y="177.518">osal::mutex</text><text fill="#000000" font-family="'Segoe UI'" font-size="24.375" lengthAdjust="spacing" textLength="165.2454" x="326.7384" y="205.892">(header-only)</text></g><g class="participant participant-tail" data-participant="mtx"><rect fill="#E3F2FD" height="112.998" rx="4.6875" ry="4.6875" style="stroke:#000000;stroke-width:1.875;" width="221.4954" x="298.6134" y="3432.2314"/><text fill="#000000" font-family="'Segoe UI'" font-size="24.375" lengthAdjust="spacing" textLength="143.9172" x="337.4025" y="3482.9819">osal::mutex</text><text fill="#000000" font-family="'Segoe UI'" font-size="24.375" lengthAdjust="spacing" textLength="165.2454" x="326.7384" y="3511.3559">(header-only)</text></g><g class="participant participant-head" data-participant="bridge"><rect fill="#FFF3E0" height="112.998" rx="4.6875" ry="4.6875" style="stroke:#000000;stroke-width:1.875;" width="246.4178" x="807.0753" y="126.7676"/><text fill="#000000" font-family="'Segoe UI'" font-size="24.375" lengthAdjust="spacing" textLength="190.1678" x="835.2003" y="177.518">extern C bridge</text><text fill="#000000" font-family="'Segoe UI'" font-size="24.375" lengthAdjust="spacing" textLength="183.0743" x="838.7471" y="205.892">osal_mutex_*()</text></g><g class="participant participant-tail" data-participant="bridge"><rect fill="#FFF3E0" height="112.998" rx="4.6875" ry="4.6875" style="stroke:#000000;stroke-width:1.875;" width="246.4178" x="807.0753" y="3432.2314"/><text fill="#000000" font-family="'Segoe UI'" font-size="24.375" lengthAdjust="spacing" textLength="190.1678" x="835.2003" y="3482.9819">extern C bridge</text><text fill="#000000" font-family="'Segoe UI'" font-size="24.375" lengthAdjust="spacing" textLength="183.0743" x="838.7471" y="3511.3559">osal_mutex_*()</text></g><g class="participant participant-head" data-participant="be"><rect fill="#FFEBEE" height="112.998" rx="4.6875" ry="4.6875" style="stroke:#000000;stroke-width:1.875;" width="221.1859" x="1150.1527" y="126.7676"/><text fill="#000000" font-family="'Segoe UI'" font-size="24.375" lengthAdjust="spacing" textLength="164.9359" x="1178.2777" y="177.518">Backend .cpp</text><text fill="#000000" font-family="'Segoe UI'" font-size="24.375" lengthAdjust="spacing" textLength="138.4067" x="1191.5424" y="205.892">(e.g. Linux)</text></g><g class="participant participant-tail" data-participant="be"><rect fill="#FFEBEE" height="112.998" rx="4.6875" ry="4.6875" style="stroke:#000000;stroke-width:1.875;" width="221.1859" x="1150.1527" y="3432.2314"/><text fill="#000000" font-family="'Segoe UI'" font-size="24.375" lengthAdjust="spacing" textLength="164.9359" x="1178.2777" y="3482.9819">Backend .cpp</text><text fill="#000000" font-family="'Segoe UI'" font-size="24.375" lengthAdjust="spacing" textLength="138.4067" x="1191.5424" y="3511.3559">(e.g. Linux)</text></g><g class="participant participant-head" data-participant="os"><rect fill="#ECEFF1" height="112.998" rx="4.6875" ry="4.6875" style="stroke:#000000;stroke-width:1.875;" width="224.8874" x="1645.5679" y="126.7676"/><text fill="#000000" font-family="'Segoe UI'" font-size="24.375" lengthAdjust="spacing" textLength="120.6253" x="1697.699" y="177.518">OS Kernel</text><text fill="#000000" font-family="'Segoe UI'" font-size="24.375" lengthAdjust="spacing" textLength="168.6374" x="1673.6929" y="205.892">(e.g. pthread)</text></g><g class="participant participant-tail" data-participant="os"><rect fill="#ECEFF1" height="112.998" rx="4.6875" ry="4.6875" style="stroke:#000000;stroke-width:1.875;" width="224.8874" x="1645.5679" y="3432.2314"/><text fill="#000000" font-family="'Segoe UI'" font-size="24.375" lengthAdjust="spacing" textLength="120.6253" x="1697.699" y="3482.9819">OS Kernel</text><text fill="#000000" font-family="'Segoe UI'" font-size="24.375" lengthAdjust="spacing" textLength="168.6374" x="1673.6929" y="3511.3559">(e.g. pthread)</text></g><g><title>osal..mutex</title><rect fill="#FFFFFF" height="592.3682" style="stroke:#000000;stroke-width:1.875;" width="18.75" x="399.9861" y="440.8887"/></g><g><title>osal..mutex</title><rect fill="#FFFFFF" height="701.3672" style="stroke:#000000;stroke-width:1.875;" width="18.75" x="399.9861" y="1228.7549"/></g><g><title>osal..mutex</title><rect fill="#FFFFFF" height="592.3682" style="stroke:#000000;stroke-width:1.875;" width="18.75" x="399.9861" y="2221.4941"/></g><g><title>osal..mutex</title><rect fill="#FFFFFF" height="390.9961" style="stroke:#000000;stroke-width:1.875;" width="18.75" x="399.9861" y="3009.3604"/></g><rect fill="#FFFFFF" height="5.625" style="stroke:#FFFFFF;stroke-width:1.875;" width="1889.2053" x="9.375" y="313.9526"/><line style="stroke:#000000;stroke-width:0.9375;" x1="9.375" x2="1898.5803" y1="313.9526" y2="313.9526"/><line style="stroke:#000000;stroke-width:0.9375;" x1="9.375" x2="1898.5803" y1="319.5776" y2="319.5776"/><rect fill="#FFFFFF" height="73.374" style="stroke:#000000;stroke-width:1.875;" width="240.8121" x="833.5716" y="279.1406"/><text fill="#000000" font-family="'Segoe UI'" font-size="24.375" font-weight="bold" lengthAdjust="spacing" textLength="176.076" x="859.8216" y="324.2661">Construction</text><g class="message" data-participant-1="app" data-participant-2="mtx"><polygon fill="#000000" points="377.4861,433.3887,396.2361,440.8887,377.4861,448.3887,384.9861,440.8887" style="stroke:#000000;stroke-width:1.875;"/><line style="stroke:#000000;stroke-width:1.875;" x1="141.2215" x2="388.7361" y1="440.8887" y2="440.8887"/><text fill="#000000" font-family="'Segoe UI'" font-size="24.375" lengthAdjust="spacing" textLength="117.876" x="211.6658" y="416.3901">mutex m;</text></g><g class="message" data-participant-1="mtx" data-participant-2="bridge"><polygon fill="#000000" points="907.7843,518.0127,926.5343,525.5127,907.7843,533.0127,915.2843,525.5127" style="stroke:#000000;stroke-width:1.875;"/><line style="stroke:#000000;stroke-width:1.875;" x1="418.7361" x2="919.0343" y1="525.5127" y2="525.5127"/><text fill="#000000" font-family="'Segoe UI'" font-size="24.375" lengthAdjust="spacing" textLength="436.5482" x="456.2361" y="501.0141">osal_mutex_create(&amp;handle_, false)</text></g><g class="message" data-participant-1="bridge" data-participant-2="be"><polygon fill="#000000" points="1238.2457,602.6367,1256.9957,610.1367,1238.2457,617.6367,1245.7457,610.1367" style="stroke:#000000;stroke-width:1.875;"/><line style="stroke:#000000;stroke-width:1.875;" x1="930.2843" x2="1249.4957" y1="610.1367" y2="610.1367"/><text fill="#000000" font-family="'Segoe UI'" font-size="24.375" lengthAdjust="spacing" textLength="255.4614" x="967.7843" y="585.6381">calls implementation</text></g><g class="message" data-participant-1="be" data-participant-2="os"><polygon fill="#000000" points="1735.5116,687.2607,1754.2616,694.7607,1735.5116,702.2607,1743.0116,694.7607" style="stroke:#000000;stroke-width:1.875;"/><line style="stroke:#000000;stroke-width:1.875;" x1="1260.7457" x2="1746.7616" y1="694.7607" y2="694.7607"/><text fill="#000000" font-family="'Segoe UI'" font-size="24.375" lengthAdjust="spacing" textLength="256.0208" x="1381.3683" y="670.2621">pthread_mutex_init()</text></g><g class="message" data-participant-1="os" data-participant-2="be"><polygon fill="#000000" points="1281.3707,771.8848,1262.6207,779.3848,1281.3707,786.8848,1273.8707,779.3848" style="stroke:#000000;stroke-width:1.875;"/><line style="stroke:#000000;stroke-width:1.875;stroke-dasharray:3.75,3.75;" x1="1270.1207" x2="1756.1366" y1="779.3848" y2="779.3848"/><text fill="#000000" font-family="'Segoe UI'" font-size="24.375" lengthAdjust="spacing" textLength="137.6212" x="1440.5681" y="754.8862">0 (success)</text></g><g class="message" data-participant-1="be" data-participant-2="bridge"><polygon fill="#000000" points="950.9093,856.5088,932.1593,864.0088,950.9093,871.5088,943.4093,864.0088" style="stroke:#000000;stroke-width:1.875;"/><line style="stroke:#000000;stroke-width:1.875;stroke-dasharray:3.75,3.75;" x1="939.6593" x2="1258.8707" y1="864.0088" y2="864.0088"/><text fill="#000000" font-family="'Segoe UI'" font-size="24.375" lengthAdjust="spacing" textLength="129.5398" x="1030.7451" y="839.5102">result{ok}</text></g><g class="message" data-participant-1="bridge" data-participant-2="mtx"><polygon fill="#000000" points="439.3611,941.1328,420.6111,948.6328,439.3611,956.1328,431.8611,948.6328" style="stroke:#000000;stroke-width:1.875;"/><line style="stroke:#000000;stroke-width:1.875;stroke-dasharray:3.75,3.75;" x1="428.1111" x2="928.4093" y1="948.6328" y2="948.6328"/><text fill="#000000" font-family="'Segoe UI'" font-size="24.375" lengthAdjust="spacing" textLength="129.5398" x="609.7403" y="924.1342">result{ok}</text></g><g class="message" data-participant-1="mtx" data-participant-2="app"><polygon fill="#000000" points="161.8465,1025.7568,143.0965,1033.2568,161.8465,1040.7568,154.3465,1033.2568" style="stroke:#000000;stroke-width:1.875;"/><line style="stroke:#000000;stroke-width:1.875;stroke-dasharray:3.75,3.75;" x1="150.5965" x2="407.4861" y1="1033.2568" y2="1033.2568"/><text fill="#000000" font-family="'Segoe UI'" font-size="24.375" lengthAdjust="spacing" textLength="183.7646" x="183.409" y="1008.7582">valid() == true</text></g><rect fill="#FFFFFF" height="5.625" style="stroke:#FFFFFF;stroke-width:1.875;" width="1889.2053" x="9.375" y="1101.8188"/><line style="stroke:#000000;stroke-width:0.9375;" x1="9.375" x2="1898.5803" y1="1101.8188" y2="1101.8188"/><line style="stroke:#000000;stroke-width:0.9375;" x1="9.375" x2="1898.5803" y1="1107.4438" y2="1107.4438"/><rect fill="#FFFFFF" height="73.374" style="stroke:#000000;stroke-width:1.875;" width="274.8038" x="816.5758" y="1067.0068"/><text fill="#000000" font-family="'Segoe UI'" font-size="24.375" font-weight="bold" lengthAdjust="spacing" textLength="210.0677" x="842.8258" y="1112.1323">Lock (blocking)</text><g class="message" data-participant-1="app" data-participant-2="mtx"><polygon fill="#000000" points="377.4861,1221.2549,396.2361,1228.7549,377.4861,1236.2549,384.9861,1228.7549" style="stroke:#000000;stroke-width:1.875;"/><line style="stroke:#000000;stroke-width:1.875;" x1="141.2215" x2="388.7361" y1="1228.7549" y2="1228.7549"/><text fill="#000000" font-family="'Segoe UI'" font-size="24.375" lengthAdjust="spacing" textLength="99.7137" x="220.7469" y="1204.2563">m.lock()</text></g><g class="message" data-participant-1="mtx" data-participant-2="mtx"><line style="stroke:#000000;stroke-width:1.875;" x1="418.7361" x2="497.4861" y1="1313.3789" y2="1313.3789"/><line style="stroke:#000000;stroke-width:1.875;" x1="497.4861" x2="497.4861" y1="1313.3789" y2="1337.7539"/><line style="stroke:#000000;stroke-width:1.875;" x1="420.6111" x2="497.4861" y1="1337.7539" y2="1337.7539"/><polygon fill="#000000" points="439.3611,1330.2539,420.6111,1337.7539,439.3611,1345.2539,431.8611,1337.7539" style="stroke:#000000;stroke-width:1.875;"/><text fill="#000000" font-family="'Segoe UI'" font-size="24.375" lengthAdjust="spacing" textLength="350.4501" x="446.8611" y="1288.8803">ms_to_ticks(WAIT_FOREVER)</text></g><g class="message" data-participant-1="mtx" data-participant-2="bridge"><polygon fill="#000000" points="907.7843,1414.8779,926.5343,1422.3779,907.7843,1429.8779,915.2843,1422.3779" style="stroke:#000000;stroke-width:1.875;"/><line style="stroke:#000000;stroke-width:1.875;" x1="418.7361" x2="919.0343" y1="1422.3779" y2="1422.3779"/><text fill="#000000" font-family="'Segoe UI'" font-size="24.375" lengthAdjust="spacing" textLength="406.4008" x="471.3098" y="1397.8793">osal_mutex_lock(&amp;handle_, ticks)</text></g><g class="message" data-participant-1="bridge" data-participant-2="be"><polygon fill="#000000" points="1238.2457,1499.502,1256.9957,1507.002,1238.2457,1514.502,1245.7457,1507.002" style="stroke:#000000;stroke-width:1.875;"/><line style="stroke:#000000;stroke-width:1.875;" x1="930.2843" x2="1249.4957" y1="1507.002" y2="1507.002"/><text fill="#000000" font-family="'Segoe UI'" font-size="24.375" lengthAdjust="spacing" textLength="255.4614" x="967.7843" y="1482.5034">calls implementation</text></g><g class="message" data-participant-1="be" data-participant-2="os"><polygon fill="#000000" points="1735.5116,1584.126,1754.2616,1591.626,1735.5116,1599.126,1743.0116,1591.626" style="stroke:#000000;stroke-width:1.875;"/><line style="stroke:#000000;stroke-width:1.875;" x1="1260.7457" x2="1746.7616" y1="1591.626" y2="1591.626"/><text fill="#000000" font-family="'Segoe UI'" font-size="24.375" lengthAdjust="spacing" textLength="266.673" x="1376.0422" y="1567.1274">pthread_mutex_lock()</text></g><g class="message" data-participant-1="os" data-participant-2="be"><polygon fill="#000000" points="1281.3707,1668.75,1262.6207,1676.25,1281.3707,1683.75,1273.8707,1676.25" style="stroke:#000000;stroke-width:1.875;"/><line style="stroke:#000000;stroke-width:1.875;stroke-dasharray:3.75,3.75;" x1="1270.1207" x2="1756.1366" y1="1676.25" y2="1676.25"/><text fill="#000000" font-family="'Segoe UI'" font-size="24.375" lengthAdjust="spacing" textLength="148.797" x="1434.9802" y="1651.7514">0 (acquired)</text></g><g class="message" data-participant-1="be" data-participant-2="bridge"><polygon fill="#000000" points="950.9093,1753.374,932.1593,1760.874,950.9093,1768.374,943.4093,1760.874" style="stroke:#000000;stroke-width:1.875;"/><line style="stroke:#000000;stroke-width:1.875;stroke-dasharray:3.75,3.75;" x1="939.6593" x2="1258.8707" y1="1760.874" y2="1760.874"/><text fill="#000000" font-family="'Segoe UI'" font-size="24.375" lengthAdjust="spacing" textLength="129.5398" x="1030.7451" y="1736.3754">result{ok}</text></g><g class="message" data-participant-1="bridge" data-participant-2="mtx"><polygon fill="#000000" points="439.3611,1837.998,420.6111,1845.498,439.3611,1852.998,431.8611,1845.498" style="stroke:#000000;stroke-width:1.875;"/><line style="stroke:#000000;stroke-width:1.875;stroke-dasharray:3.75,3.75;" x1="428.1111" x2="928.4093" y1="1845.498" y2="1845.498"/><text fill="#000000" font-family="'Segoe UI'" font-size="24.375" lengthAdjust="spacing" textLength="129.5398" x="609.7403" y="1820.9995">result{ok}</text></g><g class="message" data-participant-1="mtx" data-participant-2="app"><polygon fill="#000000" points="161.8465,1922.6221,143.0965,1930.1221,161.8465,1937.6221,154.3465,1930.1221" style="stroke:#000000;stroke-width:1.875;"/><line style="stroke:#000000;stroke-width:1.875;stroke-dasharray:3.75,3.75;" x1="150.5965" x2="407.4861" y1="1930.1221" y2="1930.1221"/><text fill="#000000" font-family="'Segoe UI'" font-size="24.375" lengthAdjust="spacing" textLength="129.5398" x="210.5214" y="1905.6235">result{ok}</text></g><path d="M18.75,1954.4971 L18.75,2031.3721 L264.375,2031.3721 L264.375,1973.2471 L245.625,1954.4971 L18.75,1954.4971" fill="#FFFFFF" style="stroke:#000000;stroke-width:1.875;"/><path d="M245.625,1954.4971 L245.625,1973.2471 L264.375,1973.2471 L245.625,1954.4971" fill="#FFFFFF" style="stroke:#000000;stroke-width:1.875;"/><text fill="#000000" font-family="'Segoe UI'" font-size="24.375" lengthAdjust="spacing" textLength="177.171" x="45" y="2001.4975">critical section</text><rect fill="#FFFFFF" height="5.625" style="stroke:#FFFFFF;stroke-width:1.875;" width="1889.2053" x="9.375" y="2094.5581"/><line style="stroke:#000000;stroke-width:0.9375;" x1="9.375" x2="1898.5803" y1="2094.5581" y2="2094.5581"/><line style="stroke:#000000;stroke-width:0.9375;" x1="9.375" x2="1898.5803" y1="2100.1831" y2="2100.1831"/><rect fill="#FFFFFF" height="73.374" style="stroke:#000000;stroke-width:1.875;" width="157.6419" x="875.1567" y="2059.7461"/><text fill="#000000" font-family="'Segoe UI'" font-size="24.375" font-weight="bold" lengthAdjust="spacing" textLength="92.9059" x="901.4067" y="2104.8715">Unlock</text><g class="message" data-participant-1="app" data-participant-2="mtx"><polygon fill="#000000" points="377.4861,2213.9941,396.2361,2221.4941,377.4861,2228.9941,384.9861,2221.4941" style="stroke:#000000;stroke-width:1.875;"/><line style="stroke:#000000;stroke-width:1.875;" x1="141.2215" x2="388.7361" y1="2221.4941" y2="2221.4941"/><text fill="#000000" font-family="'Segoe UI'" font-size="24.375" lengthAdjust="spacing" textLength="130.611" x="205.2983" y="2196.9955">m.unlock()</text></g><g class="message" data-participant-1="mtx" data-participant-2="bridge"><polygon fill="#000000" points="907.7843,2298.6182,926.5343,2306.1182,907.7843,2313.6182,915.2843,2306.1182" style="stroke:#000000;stroke-width:1.875;"/><line style="stroke:#000000;stroke-width:1.875;" x1="418.7361" x2="919.0343" y1="2306.1182" y2="2306.1182"/><text fill="#000000" font-family="'Segoe UI'" font-size="24.375" lengthAdjust="spacing" textLength="365.256" x="491.8822" y="2281.6196">osal_mutex_unlock(&amp;handle_)</text></g><g class="message" data-participant-1="bridge" data-participant-2="be"><polygon fill="#000000" points="1238.2457,2383.2422,1256.9957,2390.7422,1238.2457,2398.2422,1245.7457,2390.7422" style="stroke:#000000;stroke-width:1.875;"/><line style="stroke:#000000;stroke-width:1.875;" x1="930.2843" x2="1249.4957" y1="2390.7422" y2="2390.7422"/><text fill="#000000" font-family="'Segoe UI'" font-size="24.375" lengthAdjust="spacing" textLength="255.4614" x="967.7843" y="2366.2436">calls implementation</text></g><g class="message" data-participant-1="be" data-participant-2="os"><polygon fill="#000000" points="1735.5116,2467.8662,1754.2616,2475.3662,1735.5116,2482.8662,1743.0116,2475.3662" style="stroke:#000000;stroke-width:1.875;"/><line style="stroke:#000000;stroke-width:1.875;" x1="1260.7457" x2="1746.7616" y1="2475.3662" y2="2475.3662"/><text fill="#000000" font-family="'Segoe UI'" font-size="24.375" lengthAdjust="spacing" textLength="297.5702" x="1360.5936" y="2450.8676">pthread_mutex_unlock()</text></g><g class="message" data-participant-1="os" data-participant-2="be"><polygon fill="#000000" points="1281.3707,2552.4902,1262.6207,2559.9902,1281.3707,2567.4902,1273.8707,2559.9902" style="stroke:#000000;stroke-width:1.875;"/><line style="stroke:#000000;stroke-width:1.875;stroke-dasharray:3.75,3.75;" x1="1270.1207" x2="1756.1366" y1="2559.9902" y2="2559.9902"/><text fill="#000000" font-family="'Segoe UI'" font-size="24.375" lengthAdjust="spacing" textLength="15.5081" x="1501.6246" y="2535.4916">0</text></g><g class="message" data-participant-1="be" data-participant-2="bridge"><polygon fill="#000000" points="950.9093,2637.1143,932.1593,2644.6143,950.9093,2652.1143,943.4093,2644.6143" style="stroke:#000000;stroke-width:1.875;"/><line style="stroke:#000000;stroke-width:1.875;stroke-dasharray:3.75,3.75;" x1="939.6593" x2="1258.8707" y1="2644.6143" y2="2644.6143"/><text fill="#000000" font-family="'Segoe UI'" font-size="24.375" lengthAdjust="spacing" textLength="129.5398" x="1030.7451" y="2620.1157">result{ok}</text></g><g class="message" data-participant-1="bridge" data-participant-2="mtx"><polygon fill="#000000" points="439.3611,2721.7383,420.6111,2729.2383,439.3611,2736.7383,431.8611,2729.2383" style="stroke:#000000;stroke-width:1.875;"/><line style="stroke:#000000;stroke-width:1.875;stroke-dasharray:3.75,3.75;" x1="428.1111" x2="928.4093" y1="2729.2383" y2="2729.2383"/><text fill="#000000" font-family="'Segoe UI'" font-size="24.375" lengthAdjust="spacing" textLength="129.5398" x="609.7403" y="2704.7397">result{ok}</text></g><g class="message" data-participant-1="mtx" data-participant-2="app"><polygon fill="#000000" points="161.8465,2806.3623,143.0965,2813.8623,161.8465,2821.3623,154.3465,2813.8623" style="stroke:#000000;stroke-width:1.875;"/><line style="stroke:#000000;stroke-width:1.875;stroke-dasharray:3.75,3.75;" x1="150.5965" x2="407.4861" y1="2813.8623" y2="2813.8623"/><text fill="#000000" font-family="'Segoe UI'" font-size="24.375" lengthAdjust="spacing" textLength="129.5398" x="210.5214" y="2789.3637">result{ok}</text></g><rect fill="#FFFFFF" height="5.625" style="stroke:#FFFFFF;stroke-width:1.875;" width="1889.2053" x="9.375" y="2882.4243"/><line style="stroke:#000000;stroke-width:0.9375;" x1="9.375" x2="1898.5803" y1="2882.4243" y2="2882.4243"/><line style="stroke:#000000;stroke-width:0.9375;" x1="9.375" x2="1898.5803" y1="2888.0493" y2="2888.0493"/><rect fill="#FFFFFF" height="73.374" style="stroke:#000000;stroke-width:1.875;" width="225.5896" x="841.1829" y="2847.6123"/><text fill="#000000" font-family="'Segoe UI'" font-size="24.375" font-weight="bold" lengthAdjust="spacing" textLength="160.8536" x="867.4329" y="2892.7377">Destruction</text><g class="message" data-participant-1="app" data-participant-2="mtx"><polygon fill="#000000" points="377.4861,3001.8604,396.2361,3009.3604,377.4861,3016.8604,384.9861,3009.3604" style="stroke:#000000;stroke-width:1.875;"/><line style="stroke:#000000;stroke-width:1.875;" x1="141.2215" x2="388.7361" y1="3009.3604" y2="3009.3604"/><text fill="#000000" font-family="'Segoe UI'" font-size="24.375" lengthAdjust="spacing" textLength="117.6141" x="211.7967" y="2984.8618">~mutex()</text></g><g class="message" data-participant-1="mtx" data-participant-2="bridge"><polygon fill="#000000" points="907.7843,3086.4844,926.5343,3093.9844,907.7843,3101.4844,915.2843,3093.9844" style="stroke:#000000;stroke-width:1.875;"/><line style="stroke:#000000;stroke-width:1.875;" x1="418.7361" x2="919.0343" y1="3093.9844" y2="3093.9844"/><text fill="#000000" font-family="'Segoe UI'" font-size="24.375" lengthAdjust="spacing" textLength="377.2412" x="485.8896" y="3069.4858">osal_mutex_destroy(&amp;handle_)</text></g><g class="message" data-participant-1="bridge" data-participant-2="be"><polygon fill="#000000" points="1238.2457,3171.1084,1256.9957,3178.6084,1238.2457,3186.1084,1245.7457,3178.6084" style="stroke:#000000;stroke-width:1.875;"/><line style="stroke:#000000;stroke-width:1.875;" x1="930.2843" x2="1249.4957" y1="3178.6084" y2="3178.6084"/><text fill="#000000" font-family="'Segoe UI'" font-size="24.375" lengthAdjust="spacing" textLength="255.4614" x="967.7843" y="3154.1098">calls implementation</text></g><g class="message" data-participant-1="be" data-participant-2="os"><polygon fill="#000000" points="1735.5116,3255.7324,1754.2616,3263.2324,1735.5116,3270.7324,1743.0116,3263.2324" style="stroke:#000000;stroke-width:1.875;"/><line style="stroke:#000000;stroke-width:1.875;" x1="1260.7457" x2="1746.7616" y1="3263.2324" y2="3263.2324"/><text fill="#000000" font-family="'Segoe UI'" font-size="24.375" lengthAdjust="spacing" textLength="422.2659" x="1298.2457" y="3238.7338">pthread_mutex_destroy() + delete</text></g><g class="message" data-participant-1="os" data-participant-2="be"><polygon fill="#000000" points="1281.3707,3281.9824,1262.6207,3289.4824,1281.3707,3296.9824,1273.8707,3289.4824" style="stroke:#000000;stroke-width:1.875;"/><line style="stroke:#000000;stroke-width:1.875;stroke-dasharray:3.75,3.75;" x1="1270.1207" x2="1756.1366" y1="3289.4824" y2="3289.4824"/></g><g class="message" data-participant-1="be" data-participant-2="bridge"><polygon fill="#000000" points="950.9093,3366.6064,932.1593,3374.1064,950.9093,3381.6064,943.4093,3374.1064" style="stroke:#000000;stroke-width:1.875;"/><line style="stroke:#000000;stroke-width:1.875;stroke-dasharray:3.75,3.75;" x1="939.6593" x2="1258.8707" y1="3374.1064" y2="3374.1064"/><text fill="#000000" font-family="'Segoe UI'" font-size="24.375" lengthAdjust="spacing" textLength="129.5398" x="1030.7451" y="3349.6078">result{ok}</text></g><g class="message" data-participant-1="bridge" data-participant-2="mtx"><polygon fill="#000000" points="429.9861,3392.8564,411.2361,3400.3564,429.9861,3407.8564,422.4861,3400.3564" style="stroke:#000000;stroke-width:1.875;"/><line style="stroke:#000000;stroke-width:1.875;stroke-dasharray:3.75,3.75;" x1="418.7361" x2="928.4093" y1="3400.3564" y2="3400.3564"/></g><!--SRC=[jPHXJzim48Q_-rSSHPgIRUtOqAIjKoT1IIGq61ACxGjIv3f7QjMnW-sKecdxxJkR55fKeKqmvKkKk_VklSVdRFafrWYDubApBQc5Qak4mg8kqHQDDPTIuQ1fQyNSJEg6Mrx3X8jPPKshox5Hni9sdeLd9QF4IzugdnljltAgtpl3oY2S7_PMaXnUjQW57gDplC8z9IiD0hL7ovYNNY4SjnuNS6J43Dx0kLRXfGzZhXJaobmpHfMy5BBXsaDlhscK5DnBetl07V2cWUtiG_u- -xYUQ1nNms4TYb_eP8gSXkqRhMxIgAlzWdIx-RlyO5s72_AcOGmJAyiABtGeLCGwnSlaLdmR8YPvlfljhElt2HoHXO5e6cgCWse0HrAtYquQPTb-bgtBJixW2_L5jTGqVch9zAtAE38xplByBMEZ4OoDTjws8b20qOYnGA7_EGurXEWLwa-CKyASUmpVMOXHIcTz22jZ2MhaCNanvRfKMBo6IwuSfgpB3QgW47Ga3cJTA5edxUCPi4cCax_Xqd5NL6hfavHHfByii0E9QuMWLKYZRjMEHKVBzDFCVjsrlHje9HQde40OU0XphcIPf8G020Uo4jT63gZYNYMJi5LIL-a6MeCG8wURQ7Kfhl2ceBEQkUJ7tk6t8ZyvpRvdf-bZK6FLUwHH_KIadT47IBcuQgN5yfcOhWGUujI6timSRPSghAInkA9R7bSn0kzky0REhNw4z2Q4dM09yOdqxjglyVllq0Z90JvoMtz7T_z0fGpLpCrpOLcMI-4L_T8LUhm7zFTm7exz1m00]--></g></svg>