<svg xmlns="http://www.w3.org/2000/svg" xmlns:xlink="http://www.w3.org/1999/xlink" contentStyleType="text/css" data-diagram-type="SEQUENCE" height="2385px" preserveAspectRatio="none" style="width:1524px;height:2385px;background:#FEFEFE;" version="1.1" viewBox="0 0 1524 2385" width="1524.375px" zoomAndPan="magnify"><title>Condition Variable - Wait / Notify Sequence</title><defs/><g><rect fill="#FEFEFE" height="2385" style="stroke:none;stroke-width:1.875;" width="1524.375" x="0" y="0"/><text fill="#000000" font-family="'Segoe UI'" font-size="41.25" font-weight="bold" lengthAdjust="spacing" textLength="1010.3833" x="254.317" y="81.4142">Condition Variable - Wait / Notify Sequence</text><g><title>Producer</title><rect fill="#E8F5E9" height="1056.9873" style="stroke:#000000;stroke-width:1.875;" width="18.75" x="110.7367" y="1189.6289"/></g><g><title>Consumer</title><rect fill="#FFF8E1" height="180.498" style="stroke:#000000;stroke-width:1.875;" width="18.75" x="940.6178" y="565.1367"/></g><g><title>Consumer</title><rect fill="#FFF8E1" height="761.8652" style="stroke:#000000;stroke-width:1.875;" width="18.75" x="940.6178" y="1467.876"/></g><g><title>Producer</title><rect fill="#000000" fill-opacity="0.00000" height="2021.8506" width="15" x="112.6117" y="241.6406"/><line style="stroke:#000000;stroke-width:1.875;stroke-dasharray:9.375,9.375;" x1="120" x2="120" y1="241.6406" y2="2263.4912"/></g><g><title>osal..condvar</title><rect fill="#000000" fill-opacity="0.00000" height="2021.8506" width="15" x="429.2477" y="241.6406"/><line style="stroke:#000000;stroke-width:1.875;stroke-dasharray:9.375,9.375;" x1="435.1904" x2="435.1904" y1="241.6406" y2="2263.4912"/></g><g><title>osal..mutex</title><rect fill="#000000" fill-opacity="0.00000" height="2021.8506" width="15" x="695.8887" y="241.6406"/><line style="stroke:#000000;stroke-width:1.875;stroke-dasharray:9.375,9.375;" x1="702.6801" x2="702.6801" y1="241.6406" y2="2263.4912"/></g><g><title>Consumer</title><rect fill="#000000" fill-opacity="0.00000" height="2021.8506" width="15" x="942.4928" y="241.6406"/><line style="stroke:#000000;stroke-width:1.875;stroke-dasharray:9.375,9.375;" x1="949.7223" x2="949.7223" y1="241.6406" y2="2263.4912"/></g><g class="participant participant-head" data-participant="prod"><rect fill="#E8F5E9" height="112.998" rx="4.6875" ry="4.6875" style="stroke:#000000;stroke-width:1.875;" width="165.2234" x="37.5" y="126.7676"/><text fill="#000000" font-family="'Segoe UI'" font-size="24.375" lengthAdjust="spacing" textLength="108.9734" x="65.625" y="177.518">Producer</text><text fill="#000000" font-family="'Segoe UI'" font-size="24.375" lengthAdjust="spacing" textLength="85.7648" x="77.2293" y="205.892">Thread</text></g><g class="participant participant-tail" data-participant="prod"><rect fill="#E8F5E9" height="112.998" rx="4.6875" ry="4.6875" style="stroke:#000000;stroke-width:1.875;" width="165.2234" x="37.5" y="2261.6162"/><text fill="#000000" font-family="'Segoe UI'" font-size="24.375" lengthAdjust="spacing" textLength="108.9734" x="65.625" y="2312.3666">Producer</text><text fill="#000000" font-family="'Segoe UI'" font-size="24.375" lengthAdjust="spacing" textLength="85.7648" x="77.2293" y="2340.7407">Thread</text></g><g class="participant participant-head" data-participant="cv"><rect fill="#E3F2FD" height="84.624" rx="4.6875" ry="4.6875" style="stroke:#000000;stroke-width:1.875;" width="220.6146" x="326.4404" y="155.1416"/><text fill="#000000" font-family="'Segoe UI'" font-size="24.375" lengthAdjust="spacing" textLength="164.3646" x="354.5654" y="205.892">osal::condvar</text></g><g class="participant participant-tail" data-participant="cv"><rect fill="#E3F2FD" height="84.624" rx="4.6875" ry="4.6875" style="stroke:#000000;stroke-width:1.875;" width="220.6146" x="326.4404" y="2261.6162"/><text fill="#000000" font-family="'Segoe UI'" font-size="24.375" lengthAdjust="spacing" textLength="164.3646" x="354.5654" y="2312.3666">osal::condvar</text></g><g class="participant participant-head" data-participant="mtx"><rect fill="#E3F2FD" height="84.624" rx="4.6875" ry="4.6875" style="stroke:#000000;stroke-width:1.875;" width="200.1672" x="603.3051" y="155.1416"/><text fill="#000000" font-family="'Segoe UI'" font-size="24.375" lengthAdjust="spacing" textLength="143.9172" x="631.4301" y="205.892">osal::mutex</text></g><g class="participant participant-tail" data-participant="mtx"><rect fill="#E3F2FD" height="84.624" rx="4.6875" ry="4.6875" style="stroke:#000000;stroke-width:1.875;" width="200.1672" x="603.3051" y="2261.6162"/><text fill="#000000" font-family="'Segoe UI'" font-size="24.375" lengthAdjust="spacing" textLength="143.9172" x="631.4301" y="2312.3666">osal::mutex</text></g><g class="participant participant-head" data-participant="cons"><rect fill="#FFF8E1" height="112.998" rx="4.6875" ry="4.6875" style="stroke:#000000;stroke-width:1.875;" width="180.5411" x="859.7223" y="126.7676"/><text fill="#000000" font-family="'Segoe UI'" font-size="24.375" lengthAdjust="spacing" textLength="124.2911" x="887.8473" y="177.518">Consumer</text><text fill="#000000" font-family="'Segoe UI'" font-size="24.375" lengthAdjust="spacing" textLength="85.7648" x="907.1104" y="205.892">Thread</text></g><g class="participant participant-tail" data-participant="cons"><rect fill="#FFF8E1" height="112.998" rx="4.6875" ry="4.6875" style="stroke:#000000;stroke-width:1.875;" width="180.5411" x="859.7223" y="2261.6162"/><text fill="#000000" font-family="'Segoe UI'" font-size="24.375" lengthAdjust="spacing" textLength="124.2911" x="887.8473" y="2312.3666">Consumer</text><text fill="#000000" font-family="'Segoe UI'" font-size="24.375" lengthAdjust="spacing" textLength="85.7648" x="907.1104" y="2340.7407">Thread</text></g><g><title>Producer</title><rect fill="#E8F5E9" height="1056.9873" style="stroke:#000000;stroke-width:1.875;" width="18.75" x="110.7367" y="1189.6289"/></g><g><title>Consumer</title><rect fill="#FFF8E1" height="180.498" style="stroke:#000000;stroke-width:1.875;" width="18.75" x="940.6178" y="565.1367"/></g><g><title>Consumer</title><rect fill="#FFF8E1" height="761.8652" style="stroke:#000000;stroke-width:1.875;" width="18.75" x="940.6178" y="1467.876"/></g><path d="M18.75,269.7656 L18.75,374.7656 L1048.125,374.7656 L1048.125,288.5156 L1029.375,269.7656 L18.75,269.7656" fill="#FFFFFF" style="stroke:#000000;stroke-width:1.875;"/><path d="M1029.375,269.7656 L1029.375,288.5156 L1048.125,288.5156 L1029.375,269.7656" fill="#FFFFFF" style="stroke:#000000;stroke-width:1.875;"/><text fill="#000000" font-family="'Segoe UI'" font-size="24.375" lengthAdjust="spacing" textLength="737.9745" x="156.7694" y="316.7661">Both threads share the same mutex (mtx) and condvar (cv).</text><text fill="#000000" font-family="'Segoe UI'" font-size="24.375" lengthAdjust="spacing" textLength="574.3002" x="156.7694" y="345.1401">A boolean flag data_ready is protected by mtx.</text><rect fill="#FFFFFF" height="5.625" style="stroke:#FFFFFF;stroke-width:1.875;" width="1502.1423" x="9.375" y="438.2007"/><line style="stroke:#000000;stroke-width:0.9375;" x1="9.375" x2="1511.5173" y1="438.2007" y2="438.2007"/><line style="stroke:#000000;stroke-width:0.9375;" x1="9.375" x2="1511.5173" y1="443.8257" y2="443.8257"/><rect fill="#FFFFFF" height="73.374" style="stroke:#000000;stroke-width:1.875;" width="402.8439" x="559.0242" y="403.3887"/><text fill="#000000" font-family="'Segoe UI'" font-size="24.375" font-weight="bold" lengthAdjust="spacing" textLength="338.1079" x="585.2742" y="448.5141">Consumer waits for data</text><g class="message" data-participant-1="cons" data-participant-2="mtx"><polygon fill="#000000" points="724.0137,557.6367,705.2637,565.1367,724.0137,572.6367,716.5137,565.1367" style="stroke:#000000;stroke-width:1.875;"/><line style="stroke:#000000;stroke-width:1.875;" x1="712.7637" x2="938.7428" y1="565.1367" y2="565.1367"/><text fill="#000000" font-family="'Segoe UI'" font-size="24.375" lengthAdjust="spacing" textLength="68.2214" x="787.8925" y="540.6381">lock()</text></g><path d="M967.5,589.5117 L967.5,666.3867 L1273.125,666.3867 L1273.125,608.2617 L1254.375,589.5117 L967.5,589.5117" fill="#FFFFFF" style="stroke:#000000;stroke-width:1.875;"/><path d="M1254.375,589.5117 L1254.375,608.2617 L1273.125,608.2617 L1254.375,589.5117" fill="#FFFFFF" style="stroke:#000000;stroke-width:1.875;"/><text fill="#000000" font-family="'Segoe UI'" font-size="24.375" lengthAdjust="spacing" textLength="237.4063" x="993.75" y="636.5121">while (!data_ready)</text><g class="message" data-participant-1="cons" data-participant-2="cv"><polygon fill="#000000" points="457.3727,738.1348,438.6227,745.6348,457.3727,753.1348,449.8727,745.6348" style="stroke:#000000;stroke-width:1.875;"/><line style="stroke:#000000;stroke-width:1.875;" x1="446.1227" x2="948.1178" y1="745.6348" y2="745.6348"/><text fill="#000000" font-family="'Segoe UI'" font-size="24.375" lengthAdjust="spacing" textLength="117.9474" x="634.3966" y="721.1362">wait(mtx)</text></g><path d="M444.375,770.0098 L444.375,903.1348 L690,903.1348 L690,788.7598 L671.25,770.0098 L444.375,770.0098" fill="#FFFFFF" style="stroke:#000000;stroke-width:1.875;"/><path d="M671.25,770.0098 L671.25,788.7598 L690,788.7598 L671.25,770.0098" fill="#FFFFFF" style="stroke:#000000;stroke-width:1.875;"/><text fill="#000000" font-family="'Segoe UI'" font-size="24.375" lengthAdjust="spacing" textLength="136.181" x="470.625" y="817.0102">Atomically:</text><text fill="#000000" font-family="'Segoe UI'" font-size="24.375" lengthAdjust="spacing" textLength="177.8494" x="470.625" y="845.3842">1. unlock(mtx)</text><text fill="#000000" font-family="'Segoe UI'" font-size="24.375" lengthAdjust="spacing" textLength="169.6252" x="470.625" y="873.7582">2. sleep on cv</text><path d="M866.25,922.6318 L866.25,999.5068 L1029.375,999.5068 L1029.375,941.3818 L1010.625,922.6318 L866.25,922.6318" fill="#FFFFFF" style="stroke:#000000;stroke-width:1.875;"/><path d="M1010.625,922.6318 L1010.625,941.3818 L1029.375,941.3818 L1010.625,922.6318" fill="#FFFFFF" style="stroke:#000000;stroke-width:1.875;"/><text fill="#000000" font-family="'Segoe UI'" font-size="24.375" lengthAdjust="spacing" textLength="95.1434" x="892.5" y="969.6323">blocked</text><rect fill="#FFFFFF" height="5.625" style="stroke:#FFFFFF;stroke-width:1.875;" width="1502.1423" x="9.375" y="1062.6929"/><line style="stroke:#000000;stroke-width:0.9375;" x1="9.375" x2="1511.5173" y1="1062.6929" y2="1062.6929"/><line style="stroke:#000000;stroke-width:0.9375;" x1="9.375" x2="1511.5173" y1="1068.3179" y2="1068.3179"/><rect fill="#FFFFFF" height="73.374" style="stroke:#000000;stroke-width:1.875;" width="294.6323" x="613.13" y="1027.8809"/><text fill="#000000" font-family="'Segoe UI'" font-size="24.375" font-weight="bold" lengthAdjust="spacing" textLength="229.8962" x="639.38" y="1073.0063">Producer signals</text><g class="message" data-participant-1="prod" data-participant-2="mtx"><polygon fill="#000000" points="680.8887,1182.1289,699.6387,1189.6289,680.8887,1197.1289,688.3887,1189.6289" style="stroke:#000000;stroke-width:1.875;"/><line style="stroke:#000000;stroke-width:1.875;" x1="129.4867" x2="692.1387" y1="1189.6289" y2="1189.6289"/><text fill="#000000" font-family="'Segoe UI'" font-size="24.375" lengthAdjust="spacing" textLength="68.2214" x="382.327" y="1165.1303">lock()</text></g><g class="message" data-participant-1="prod" data-participant-2="prod"><line style="stroke:#000000;stroke-width:1.875;" x1="129.4867" x2="208.2367" y1="1274.2529" y2="1274.2529"/><line style="stroke:#000000;stroke-width:1.875;" x1="208.2367" x2="208.2367" y1="1274.2529" y2="1298.6279"/><line style="stroke:#000000;stroke-width:1.875;" x1="131.3617" x2="208.2367" y1="1298.6279" y2="1298.6279"/><polygon fill="#000000" points="150.1117,1291.1279,131.3617,1298.6279,150.1117,1306.1279,142.6117,1298.6279" style="stroke:#000000;stroke-width:1.875;"/><text fill="#000000" font-family="'Segoe UI'" font-size="24.375" lengthAdjust="spacing" textLength="222.886" x="157.6117" y="1249.7543">data_ready = true</text></g><g class="message" data-participant-1="prod" data-participant-2="mtx"><polygon fill="#000000" points="680.8887,1375.752,699.6387,1383.252,680.8887,1390.752,688.3887,1383.252" style="stroke:#000000;stroke-width:1.875;"/><line style="stroke:#000000;stroke-width:1.875;" x1="129.4867" x2="692.1387" y1="1383.252" y2="1383.252"/><text fill="#000000" font-family="'Segoe UI'" font-size="24.375" lengthAdjust="spacing" textLength="99.1187" x="366.8784" y="1358.7534">unlock()</text></g><g class="message" data-participant-1="prod" data-participant-2="cv"><polygon fill="#000000" points="414.2477,1460.376,432.9977,1467.876,414.2477,1475.376,421.7477,1467.876" style="stroke:#000000;stroke-width:1.875;"/><line style="stroke:#000000;stroke-width:1.875;" x1="129.4867" x2="425.4977" y1="1467.876" y2="1467.876"/><text fill="#000000" font-family="'Segoe UI'" font-size="24.375" lengthAdjust="spacing" textLength="146.2619" x="209.9863" y="1443.3774">notify_one()</text></g><path d="M35.625,1492.251 L35.625,1597.251 L425.625,1597.251 L425.625,1511.001 L406.875,1492.251 L35.625,1492.251" fill="#FFFFFF" style="stroke:#000000;stroke-width:1.875;"/><path d="M406.875,1492.251 L406.875,1511.001 L425.625,1511.001 L406.875,1492.251" fill="#FFFFFF" style="stroke:#000000;stroke-width:1.875;"/><text fill="#000000" font-family="'Segoe UI'" font-size="24.375" lengthAdjust="spacing" textLength="213.436" x="61.875" y="1539.2514">Wake one waiter:</text><text fill="#000000" font-family="'Segoe UI'" font-size="24.375" lengthAdjust="spacing" textLength="321.2073" x="61.875" y="1567.6254">consumer thread resumes</text><rect fill="#FFFFFF" height="5.625" style="stroke:#FFFFFF;stroke-width:1.875;" width="1502.1423" x="9.375" y="1660.686"/><line style="stroke:#000000;stroke-width:0.9375;" x1="9.375" x2="1511.5173" y1="1660.686" y2="1660.686"/><line style="stroke:#000000;stroke-width:0.9375;" x1="9.375" x2="1511.5173" y1="1666.311" y2="1666.311"/><rect fill="#FFFFFF" height="73.374" style="stroke:#000000;stroke-width:1.875;" width="327.8741" x="596.5091" y="1625.874"/><text fill="#000000" font-family="'Segoe UI'" font-size="24.375" font-weight="bold" lengthAdjust="spacing" textLength="263.1381" x="622.7591" y="1670.9995">Consumer resumes</text><path d="M444.375,1727.373 L444.375,1860.498 L693.75,1860.498 L693.75,1746.123 L675,1727.373 L444.375,1727.373" fill="#FFFFFF" style="stroke:#000000;stroke-width:1.875;"/><path d="M675,1727.373 L675,1746.123 L693.75,1746.123 L675,1727.373" fill="#FFFFFF" style="stroke:#000000;stroke-width:1.875;"/><text fill="#000000" font-family="'Segoe UI'" font-size="24.375" lengthAdjust="spacing" textLength="136.181" x="470.625" y="1774.3735">Atomically:</text><text fill="#000000" font-family="'Segoe UI'" font-size="24.375" lengthAdjust="spacing" textLength="133.6578" x="470.625" y="1802.7475">1. wake up</text><text fill="#000000" font-family="'Segoe UI'" font-size="24.375" lengthAdjust="spacing" textLength="180.7654" x="470.625" y="1831.1215">2. re-lock(mtx)</text><g class="message" data-participant-1="cv" data-participant-2="cons"><polygon fill="#000000" points="918.1178,1932.7441,936.8678,1940.2441,918.1178,1947.7441,925.6178,1940.2441" style="stroke:#000000;stroke-width:1.875;"/><line style="stroke:#000000;stroke-width:1.875;stroke-dasharray:3.75,3.75;" x1="436.7477" x2="929.3678" y1="1940.2441" y2="1940.2441"/><text fill="#000000" font-family="'Segoe UI'" font-size="24.375" lengthAdjust="spacing" textLength="166.1618" x="605.6019" y="1915.7455">wait() returns</text></g><path d="M967.5,1964.6191 L967.5,2041.4941 L1501.875,2041.4941 L1501.875,1983.3691 L1483.125,1964.6191 L967.5,1964.6191" fill="#FFFFFF" style="stroke:#000000;stroke-width:1.875;"/><path d="M1483.125,1964.6191 L1483.125,1983.3691 L1501.875,1983.3691 L1483.125,1964.6191" fill="#FFFFFF" style="stroke:#000000;stroke-width:1.875;"/><text fill="#000000" font-family="'Segoe UI'" font-size="24.375" lengthAdjust="spacing" textLength="465.2673" x="993.75" y="2011.6196">data_ready == true -&gt; exit while loop</text><g class="message" data-participant-1="cons" data-participant-2="cons"><line style="stroke:#000000;stroke-width:1.875;" x1="959.3678" x2="1038.1178" y1="2120.7422" y2="2120.7422"/><line style="stroke:#000000;stroke-width:1.875;" x1="1038.1178" x2="1038.1178" y1="2120.7422" y2="2145.1172"/><line style="stroke:#000000;stroke-width:1.875;" x1="961.2428" x2="1038.1178" y1="2145.1172" y2="2145.1172"/><polygon fill="#000000" points="979.9928,2137.6172,961.2428,2145.1172,979.9928,2152.6172,972.4928,2145.1172" style="stroke:#000000;stroke-width:1.875;"/><text fill="#000000" font-family="'Segoe UI'" font-size="24.375" lengthAdjust="spacing" textLength="156.8546" x="987.4928" y="2096.2436">process data</text></g><g class="message" data-participant-1="cons" data-participant-2="mtx"><polygon fill="#000000" points="724.0137,2222.2412,705.2637,2229.7412,724.0137,2237.2412,716.5137,2229.7412" style="stroke:#000000;stroke-width:1.875;"/><line style="stroke:#000000;stroke-width:1.875;" x1="712.7637" x2="948.1178" y1="2229.7412" y2="2229.7412"/><text fill="#000000" font-family="'Segoe UI'" font-size="24.375" lengthAdjust="spacing" textLength="99.1187" x="777.1314" y="2205.2426">unlock()</text></g><!--SRC=[ZLHDYzim4BthLqoobnYQbDrIs9gciDt6q4ENmcwxbqAOIED4H9PSISx7l-zOSJx9Gl4Xo7epyzwRv_JYWYg2sg2segUjD8qYc7goYloqzgxKXaPrKnaHbjhMwB626ShbtBl6gaTdd8UROj8-9mX59JOc5ix69-J-_MUQEu9Vt_ide41_6xAIVb08EAS7e-SM9Db8NeYeeo5uT5Rfg9s5t-WrplZL45vHHtWFJoxgSWlFNHSXk6lKKjTe8_H_UgSQIVwFVLbuGjK73C1w5DnCxekFaq_dS1VGvBdaSIlq2IjNZFnGt1NVhY6h9j8cuQgukGvaxg6fBXZmXC1-5SNzv5O8woA1Mv5FpDwbMm7mrSK5n5GK82pG4vy8Gkja6Wm3dfe1MWKTPHZ8LJRYsWUOEMS8BPG6vw0muhHjj0MTz4UIaHJCjYtnaU0zGyj2YF4OzenXpGu7A7crRJsCnq8auiClIMuEnidb81CeeruXQpYJbLHvFLz4SENkAeVrWeC4WzwHK7PiobxdQMZITTbWrSgAhj8IZTdcVBeTGMCJXuG7k1j1C4GrS58OVr2bw8pYYU4ThLdRXLIIluyC10uYcf1qfyYygViyK1qq_UQdreyX-eOkUdKAiiFhv89DgPuwIuFE24FbqOTNNB80IyajygqPSh-rNMB0KtiCRwoskqtQ_cjzLzrVjpIQUkUyf-5n5uUfgUVduV1akHb3O-FtUxYCoAbXEyTQLsZ3N_ikFSQv-fYPNH6R9_d_8nLVXFHWy6KA_W40]--></g></svg>